<?xml version="1.0" encoding="utf-8"?>
<svg version="1.1" xmlns:xlink="http://www.w3.org/1999/xlink" width="13px" height="13px" viewBox="95 1047  13 13" xmlns="http://www.w3.org/2000/svg">
  <path d="M 101.5 1047  C 105.14 1047  108 1049.86  108 1053.5  C 108 1057.14  105.14 1060  101.5 1060  C 97.86 1060  95 1057.14  95 1053.5  C 95 1049.86  97.86 1047  101.5 1047  Z " fill-rule="nonzero" fill="#ffffff" stroke="none" />
  <path d="M 101.5 1047.5  C 104.86 1047.5  107.5 1050.14  107.5 1053.5  C 107.5 1056.86  104.86 1059.5  101.5 1059.5  C 98.14 1059.5  95.5 1056.86  95.5 1053.5  C 95.5 1050.14  98.14 1047.5  101.5 1047.5  Z " stroke-width="1" stroke="#797979" fill="none" />
  <path d="M 101.5 1056.75  C 99.68 1056.75  98.25 1055.32  98.25 1053.5  C 98.25 1051.68  99.68 1050.25  101.5 1050.25  C 103.32 1050.25  104.75 1051.68  104.75 1053.5  C 104.75 1055.32  103.32 1056.75  101.5 1056.75  " fill-rule="nonzero" fill="#797979" stroke="none" />
</svg>