<?xml version="1.0" encoding="utf-8"?>
<svg version="1.1" xmlns:xlink="http://www.w3.org/1999/xlink" width="40px" height="40px" xmlns="http://www.w3.org/2000/svg">
  <defs>
    <linearGradient gradientUnits="userSpaceOnUse" x1="40.3956043956045" y1="0" x2="0" y2="-0.6557377049180335" id="LinearGradient105">
      <stop id="Stop106" stop-color="#ffffff" offset="0" />
      <stop id="Stop107" stop-color="#006dff" stop-opacity="0.996078431372549" offset="0" />
      <stop id="Stop108" stop-color="#0116fe" offset="1" />
    </linearGradient>
  </defs>
  <g transform="matrix(1 0 0 1 -519 -1094 )">
    <path d="M 31.171875 22.83854166666667  C 31.50173611111111 22.508680555555554  31.666666666666664 22.118055555555554  31.666666666666664 21.66666666666667  L 31.666666666666664 18.333333333333336  C 31.666666666666664 17.881944444444443  31.50173611111111 17.491319444444443  31.171875 17.161458333333336  C 30.842013888888893 16.83159722222222  30.451388888888893 16.666666666666664  30 16.666666666666664  L 23.333333333333336 16.666666666666664  L 23.333333333333336 10  C 23.333333333333336 9.548611111111107  23.168402777777782 9.157986111111107  22.838541666666664 8.828125  C 22.508680555555557 8.49826388888889  22.118055555555557 8.333333333333336  21.666666666666664 8.333333333333336  L 18.333333333333332 8.333333333333336  C 17.881944444444446 8.333333333333336  17.491319444444446 8.49826388888889  17.161458333333332 8.828125  C 16.83159722222222 9.157986111111107  16.666666666666668 9.548611111111107  16.666666666666668 10  L 16.666666666666668 16.666666666666664  L 10 16.666666666666664  C 9.54861111111111 16.666666666666664  9.15798611111111 16.83159722222222  8.828125 17.161458333333336  C 8.49826388888889 17.491319444444443  8.333333333333334 17.881944444444443  8.333333333333334 18.333333333333336  L 8.333333333333334 21.66666666666667  C 8.333333333333334 22.118055555555554  8.49826388888889 22.508680555555554  8.828125 22.83854166666667  C 9.15798611111111 23.16840277777778  9.54861111111111 23.33333333333333  10 23.33333333333333  L 16.666666666666668 23.33333333333333  L 16.666666666666668 30  C 16.666666666666668 30.45138888888889  16.83159722222222 30.84201388888889  17.161458333333332 31.171875  C 17.491319444444446 31.50173611111111  17.881944444444446 31.666666666666664  18.333333333333332 31.666666666666664  L 21.666666666666664 31.666666666666664  C 22.118055555555557 31.666666666666664  22.508680555555557 31.50173611111111  22.838541666666664 31.171875  C 23.168402777777782 30.84201388888889  23.333333333333336 30.45138888888889  23.333333333333336 30  L 23.333333333333336 23.33333333333333  L 30 23.33333333333333  C 30.451388888888893 23.33333333333333  30.842013888888893 23.16840277777778  31.171875 22.83854166666667  Z M 37.317708333333336 9.9609375  C 39.10590277777777 13.025173611111107  40 16.37152777777777  40 20  C 40 23.62847222222222  39.10590277777777 26.974826388888886  37.317708333333336 30.0390625  C 35.52951388888889 33.103298611111114  33.103298611111114 35.529513888888886  30.0390625 37.317708333333336  C 26.974826388888893 39.10590277777778  23.62847222222222 40  20 40  C 16.37152777777778 40  13.02517361111111 39.10590277777778  9.9609375 37.317708333333336  C 6.896701388888889 35.529513888888886  4.470486111111112 33.103298611111114  2.682291666666667 30.0390625  C 0.8940972222222221 26.974826388888886  0 23.62847222222222  0 20  C 0 16.37152777777777  0.8940972222222221 13.025173611111107  2.682291666666667 9.9609375  C 4.470486111111112 6.896701388888888  6.896701388888889 4.470486111111107  9.9609375 2.682291666666665  C 13.02517361111111 0.8940972222222188  16.37152777777778 0  20 0  C 23.62847222222222 0  26.974826388888893 0.8940972222222188  30.0390625 2.682291666666665  C 33.103298611111114 4.470486111111107  35.52951388888889 6.896701388888888  37.317708333333336 9.9609375  Z " fill-rule="nonzero" fill="url(#LinearGradient105)" stroke="none" transform="matrix(1 0 0 1 519 1094 )" />
  </g>
</svg>