<?xml version="1.0" encoding="utf-8"?>
<svg version="1.1" xmlns:xlink="http://www.w3.org/1999/xlink" width="30px" height="30px" xmlns="http://www.w3.org/2000/svg">
  <defs>
    <mask fill="white" id="clip30">
      <path d="M 0 15  C 0 8.161008309655102  4.374913951927484 2.5151749698358836  10.534265651175872 0.6529761851489219  C 11.940145292496227 0.2279270099569311  13.438991690344897 0  15 0  C 23.400000000000002 0  30 6.6  30 15  C 30 23.400000000000002  23.400000000000002 30  15 30  C 6.599999999999998 30  0 23.400000000000002  0 15  Z " fill-rule="evenodd" />
    </mask>
  </defs>
  <g transform="matrix(1 0 0 1 -78 -6 )">
    <path d="M 0 15  C 0 8.161008309655102  4.374913951927484 2.5151749698358836  10.534265651175872 0.6529761851489219  C 11.940145292496227 0.2279270099569311  13.438991690344897 0  15 0  C 23.400000000000002 0  30 6.6  30 15  C 30 23.400000000000002  23.400000000000002 30  15 30  C 6.599999999999998 30  0 23.400000000000002  0 15  Z " fill-rule="nonzero" fill="#7f7f7f" stroke="none" transform="matrix(1 0 0 1 78 6 )" />
    <path d="M 0 15  C 0 8.161008309655102  4.374913951927484 2.5151749698358836  10.534265651175872 0.6529761851489219  C 11.940145292496227 0.2279270099569311  13.438991690344897 0  15 0  C 23.400000000000002 0  30 6.6  30 15  C 30 23.400000000000002  23.400000000000002 30  15 30  C 6.599999999999998 30  0 23.400000000000002  0 15  Z " stroke-width="2" stroke="#797979" fill="none" transform="matrix(1 0 0 1 78 6 )" mask="url(#clip30)" />
  </g>
</svg>