<?xml version="1.0" encoding="utf-8"?>
<svg version="1.1" xmlns:xlink="http://www.w3.org/1999/xlink" width="35px" height="35px" xmlns="http://www.w3.org/2000/svg">
  <g transform="matrix(1 0 0 1 -494 -73 )">
    <path d="M 10.703125 1.3867187499999996  C 12.864583333333334 0.46223958333333315  15.130208333333334 0  17.5 0  C 19.869791666666668 0  22.13541666666667 0.46223958333333315  24.296875 1.3867187499999996  C 26.458333333333336 2.3111979166666656  28.3203125 3.5546875  29.8828125 5.117187499999998  C 31.445312500000004 6.679687500000001  32.688802083333336 8.541666666666664  33.61328125 10.703124999999998  C 34.53776041666667 12.86458333333333  35 15.130208333333332  35 17.5  C 35 19.856770833333332  34.541015625 22.115885416666668  33.623046875 24.277343749999996  C 32.705078125 26.438802083333336  31.46484375 28.30078125  29.90234375 29.863281250000004  C 28.33984375 31.42578125  26.477864583333336 32.672526041666664  24.31640625 33.603515625  C 22.154947916666668 34.534505208333336  19.8828125 35  17.5 35  C 15.1171875 35  12.845052083333336 34.537760416666664  10.68359375 33.61328125  C 8.522135416666668 32.688802083333336  6.663411458333334 31.442057291666664  5.107421875 29.873046875  C 3.5514322916666665 28.304036458333332  2.3111979166666665 26.442057291666664  1.38671875 24.287109375  C 0.46223958333333326 22.13216145833333  0 19.869791666666664  0 17.5  C 0 15.130208333333332  0.46223958333333326 12.86458333333333  1.38671875 10.703124999999998  C 2.3111979166666665 8.541666666666664  3.5546875 6.679687500000001  5.1171875 5.117187499999998  C 6.6796875 3.5546875  8.541666666666668 2.3111979166666656  10.703125 1.3867187499999996  Z M 23.61328125 20  C 26.73828125 20  28.73046875 22.12890625  29.58984375 26.38671875  C 31.52994791666667 23.717447916666668  32.5 20.755208333333332  32.5 17.5  C 32.5 15.46875  32.102864583333336 13.52864583333333  31.30859375 11.679687499999998  C 30.514322916666668 9.830729166666666  29.44661458333334 8.23567708333333  28.10546875 6.894531249999998  C 26.76432291666667 5.553385416666667  25.169270833333336 4.485677083333331  23.3203125 3.69140625  C 21.471354166666668 2.8971354166666647  19.53125 2.499999999999999  17.5 2.499999999999999  C 15.46875 2.499999999999999  13.528645833333336 2.8971354166666647  11.6796875 3.69140625  C 9.830729166666668 4.485677083333331  8.235677083333334 5.553385416666667  6.89453125 6.894531249999998  C 5.553385416666668 8.23567708333333  4.485677083333333 9.830729166666666  3.69140625 11.679687499999998  C 2.897135416666667 13.52864583333333  2.5 15.46875  2.5 17.5  C 2.5 20.755208333333332  3.4700520833333335 23.717447916666668  5.41015625 26.38671875  C 6.26953125 22.12890625  8.26171875 20  11.38671875 20  C 13.092447916666668 21.666666666666668  15.130208333333334 22.499999999999996  17.5 22.499999999999996  C 19.869791666666668 22.499999999999996  21.907552083333332 21.666666666666668  23.61328125 20  Z M 22.802734375 19.052734375  C 24.267578125 17.587890625  25 15.820312500000002  25 13.750000000000002  C 25 11.679687499999998  24.267578125 9.912109375  22.802734375 8.447265624999998  C 21.337890625 6.982421875000002  19.5703125 6.250000000000001  17.5 6.250000000000001  C 15.4296875 6.250000000000001  13.662109375 6.982421875000002  12.197265625 8.447265624999998  C 10.732421875 9.912109375  10 11.679687499999998  10 13.750000000000002  C 10 15.820312500000002  10.732421875 17.587890625  12.197265625 19.052734375  C 13.662109375 20.517578124999996  15.4296875 21.250000000000004  17.5 21.250000000000004  C 19.5703125 21.250000000000004  21.337890625 20.517578124999996  22.802734375 19.052734375  Z " fill-rule="nonzero" fill="#ffffff" stroke="none" fill-opacity="0.996078431372549" transform="matrix(1 0 0 1 494 73 )" />
  </g>
</svg>