<?xml version="1.0" encoding="utf-8"?>
<svg version="1.1" xmlns:xlink="http://www.w3.org/1999/xlink" width="20px" height="20px" xmlns="http://www.w3.org/2000/svg">
  <defs>
    <linearGradient gradientUnits="userSpaceOnUse" x1="20.19780219780225" y1="0" x2="4.842490842490869" y2="0" id="LinearGradient616">
      <stop id="Stop617" stop-color="#0096fe" stop-opacity="0.8313725490196079" offset="0" />
      <stop id="Stop618" stop-color="#00a8fd" stop-opacity="0.996078431372549" offset="0" />
      <stop id="Stop619" stop-color="#01cafe" offset="1" />
    </linearGradient>
  </defs>
  <g transform="matrix(1 0 0 1 -89 -660 )">
    <path d="M 13.003472222222223 0.3125  C 13.223379629629628 0.5208333333333304  13.333333333333332 0.7675438596491202  13 1.0526315789473695  L 13 18.947368421052634  C 13.333333333333332 19.232456140350877  13.223379629629628 19.479166666666664  13.003472222222223 19.6875  C 12.783564814814817 19.895833333333336  12.523148148148149 20  12.222222222222223 20  C 11.921296296296298 20  11.66087962962963 19.895833333333336  11.440972222222223 19.6875  L 5.659722222222222 14.210526315789473  L 1.1111111111111112 14.210526315789473  C 0.8101851851851853 14.210526315789473  0.5497685185185185 14.106359649122808  0.3298611111111111 13.898026315789473  C 0.1099537037037037 13.689692982456139  0 13.442982456140351  0 13.157894736842106  L 0 6.842105263157894  C 0 6.557017543859647  0.1099537037037037 6.310307017543857  0.3298611111111111 6.1019736842105265  C 0.5497685185185185 5.893640350877192  0.8101851851851853 5.7894736842105265  1.1111111111111112 5.7894736842105265  L 5.659722222222222 5.7894736842105265  L 11.440972222222223 0.3125  C 11.66087962962963 0.10416666666666519  11.921296296296298 0  12.222222222222223 0  C 12.523148148148149 0  12.783564814814817 0.10416666666666519  13.003472222222223 0.3125  Z M 19.26215277777778 7.6644736842105265  C 19.754050925925927 8.388157894736842  20 9.166666666666664  20 10  C 20 10.833333333333332  19.754050925925927 11.609100877192981  19.26215277777778 12.327302631578947  C 18.77025462962963 13.045504385964911  18.119212962962965 13.55811403508772  17.30902777777778 13.865131578947366  C 17.193287037037038 13.919956140350877  17.048611111111114 13.947368421052634  16.875 13.947368421052634  C 16.574074074074076 13.947368421052634  16.31365740740741 13.845942982456139  16.09375 13.64309210526316  C 15.873842592592593 13.440241228070173  15.76388888888889 13.19078947368421  15.76388888888889 12.894736842105264  C 15.76388888888889 12.664473684210527  15.833333333333332 12.469846491228068  15.972222222222223 12.310855263157894  C 16.11111111111111 12.15186403508772  16.278935185185187 12.014802631578947  16.475694444444443 11.899671052631579  C 16.672453703703706 11.78453947368421  16.869212962962965 11.658442982456139  17.06597222222222 11.521381578947366  C 17.26273148148148 11.384320175438596  17.430555555555557 11.186951754385962  17.569444444444443 10.929276315789473  C 17.708333333333332 10.671600877192981  17.77777777777778 10.36184210526316  17.77777777777778 10  C 17.77777777777778 9.638157894736842  17.708333333333332 9.328399122807017  17.569444444444443 9.070723684210527  C 17.430555555555557 8.813048245614034  17.26273148148148 8.615679824561402  17.06597222222222 8.47861842105263  C 16.869212962962965 8.34155701754386  16.672453703703706 8.21546052631579  16.475694444444443 8.100328947368421  C 16.278935185185187 7.985197368421053  16.11111111111111 7.848135964912279  15.972222222222223 7.689144736842106  C 15.833333333333332 7.530153508771928  15.76388888888889 7.335526315789471  15.76388888888889 7.105263157894736  C 15.76388888888889 6.809210526315788  15.873842592592593 6.559758771929822  16.09375 6.3569078947368425  C 16.31365740740741 6.15405701754386  16.574074074074076 6.05263157894737  16.875 6.05263157894737  C 17.048611111111114 6.05263157894737  17.193287037037038 6.080043859649122  17.30902777777778 6.13486842105263  C 18.119212962962965 6.43092105263158  18.77025462962963 6.940789473684211  19.26215277777778 7.6644736842105265  Z " fill-rule="nonzero" fill="url(#LinearGradient616)" stroke="none" transform="matrix(1 0 0 1 89 660 )" />
  </g>
</svg>