<?xml version="1.0" encoding="utf-8"?>
<svg version="1.1" xmlns:xlink="http://www.w3.org/1999/xlink" width="50px" height="40px" xmlns="http://www.w3.org/2000/svg">
  <g transform="matrix(1 0 0 1 -110 -1145 )">
    <path d="M 42.81288723667906 22.8526890101325  C 42.833539859562165 22.894258248895817  42.84386617100372 22.95661210704079  42 23.03975058456742  L 42 38.00467653936087  C 42.84386617100372 38.54507664328396  42.64766625361421 39.012730579371265  42.25526641883519 39.40763834762276  C 41.86286658405618 39.80254611587426  41.39818256918629 40  40.861214374225526 40  L 29 40  L 29 28.02805923616524  L 21 28.02805923616524  L 21 40  L 9.138785625774473 40  C 8.601817430813714 40  8.137133415943826 39.80254611587426  7.744733581164807 39.40763834762276  C 7.352333746385792 39.012730579371265  7.156133828996282 38.54507664328396  8 38.00467653936087  L 8 23.03975058456742  C 7.156133828996282 23.01896596518576  7.16129698471706 22.987789036113277  7.171623296158612 22.94621979734996  C 7.181949607600166 22.904650558586646  7.187112763320942 22.87347362951416  7.187112763320942 22.8526890101325  L 25 8.074824629773968  L 42.81288723667906 22.8526890101325  Z M 49.96902106567534 20.155884645362434  C 49.98967368855845 20.43647700701481  49.91738950846758 20.680696284749285  49.75216852540272 20.888542478565864  L 47.83147459727385 23.195635229929856  C 47.66625361420901 23.382696804364773  47.44940107393639 23.497012210963888  47.18091697645601 23.538581449727204  L 47.08798017348203 23.538581449727204  C 46.819496076001656 23.538581449727204  46.602643535729044 23.465835281891398  46.43742255266419 23.320342946219796  L 25 5.331254871395168  L 3.5625774473358116 23.320342946219796  C 3.314745972738538 23.486619901273052  3.066914498141264 23.559366069108858  2.81908302354399 23.538581449727204  C 2.55059892606361 23.497012210963888  2.3337463857909957 23.382696804364773  2.168525402726146 23.195635229929856  L 0.24783147459727387 20.888542478565864  C 0.08261049153242465 20.680696284749285  0.010326311441553151 20.43647700701481  0.030978934324659233 20.155884645362434  C 0.051631557207765535 19.875292283710056  0.1652209830648493 19.651857625357234  0.37174721189591076 19.485580670303975  L 22.6456009913259 0.8106001558846465  C 23.306484923585298 0.2702000519615444  24.09128459314333 0  25 0  C 25.908715406856675 0  26.69351507641471 0.2702000519615444  27.3543990086741 0.8106001558846465  L 34.913258983890955 7.170693686671861  L 34.913258983890955 1.0911925175370207  C 34.913258983890955 0.8002078461938122  35.00619578686493 0.5611847233047529  35.19206939281288 0.3741231488698382  C 35.377942998760844 0.1870615744349191  35.61544816191656 0.09353078721745955  35.90458488228005 0.09353078721745955  L 41.852540272614625 0.09353078721745955  C 42.14167699297811 0.09353078721745955  42.37918215613383 0.1870615744349191  42.56505576208178 0.3741231488698382  C 42.75092936802974 0.5611847233047529  42.84386617100372 0.8002078461938122  42 1.0911925175370207  L 42 13.811379579111458  L 49.628252788104085 19.485580670303975  C 49.83477901693515 19.651857625357234  49.94836844279224 19.875292283710056  49.96902106567534 20.155884645362434  Z " fill-rule="nonzero" fill="#000000" stroke="none" transform="matrix(1 0 0 1 110 1145 )" />
  </g>
</svg>