<?xml version="1.0" encoding="utf-8"?>
<svg version="1.1" xmlns:xlink="http://www.w3.org/1999/xlink" width="33px" height="40px" xmlns="http://www.w3.org/2000/svg">
  <defs>
    <linearGradient gradientUnits="userSpaceOnUse" x1="16.5" y1="0" x2="16.5" y2="40" id="LinearGradient928">
      <stop id="Stop929" stop-color="#0066ff" offset="0" />
      <stop id="Stop930" stop-color="#64cefb" stop-opacity="0.8745098039215686" offset="1" />
    </linearGradient>
  </defs>
  <g transform="matrix(1 0 0 1 -35 -77 )">
    <path d="M 22.7734375 1.5178571428571441  L 31.5390625 10.625  C 31.73958333333334 10.83333333333333  31.940104166666668 11.101190476190474  32.140625 12  L 22 12  L 22 0.8928571428571441  C 22.315104166666668 1.1011904761904745  22.572916666666668 1.3095238095238049  22.7734375 1.5178571428571441  Z M 19.8515625 13.660714285714285  C 20.252604166666668 14.077380952380949  20.739583333333332 14.285714285714285  21.3125 15  L 33 15  L 33 37.857142857142854  C 33 38.452380952380956  32.799479166666664 38.95833333333333  32.3984375 39.375  C 31.99739583333334 39.79166666666667  31.510416666666668 40  30.9375 40  L 2.0625 40  C 1.4895833333333335 40  1.0026041666666667 39.79166666666667  0.6015625 39.375  C 0.20052083333333331 38.95833333333333  0 38.452380952380956  0 37.857142857142854  L 0 2.142857142857144  C 0 1.5476190476190466  0.20052083333333331 1.0416666666666652  0.6015625 0.625  C 1.0026041666666667 0.2083333333333348  1.4895833333333335 0  2.0625 0  L 19 0  L 19 12.142857142857144  C 19.25 12.738095238095234  19.450520833333332 13.244047619047619  19.8515625 13.660714285714285  Z M 24.556640625 31.227678571428573  C 24.685546875 31.09375  24.75 30.922619047619047  24.75 30.71428571428571  L 24.75 29.28571428571429  C 24.75 29.077380952380953  24.685546875 28.90625  24.556640625 28.772321428571427  C 24.427734375 28.638392857142854  24.26302083333334 28.571428571428573  24.0625 28  L 8.9375 28  C 8.736979166666668 28.571428571428573  8.572265625000002 28.638392857142854  8.443359375 28.772321428571427  C 8.314453125 28.90625  8.25 29.077380952380953  8.25 29.28571428571429  L 8.25 30.71428571428571  C 8.25 30.922619047619047  8.314453125 31.09375  8.443359375 31.227678571428573  C 8.572265625000002 31.361607142857146  8.736979166666668 31.428571428571427  8.9375 31  L 24.0625 31  C 24.26302083333334 31.428571428571427  24.427734375 31.361607142857146  24.556640625 31.227678571428573  Z M 24.556640625 25.513392857142854  C 24.685546875 25.37946428571429  24.75 25.20833333333333  24.75 25  L 24.75 23.571428571428573  C 24.75 23.363095238095237  24.685546875 23.19196428571429  24.556640625 23.05803571428571  C 24.427734375 22.924107142857146  24.26302083333334 22.857142857142854  24.0625 22.857142857142854  L 8.9375 22.857142857142854  C 8.736979166666668 22.857142857142854  8.572265625000002 22.924107142857146  8.443359375 23.05803571428571  C 8.314453125 23.19196428571429  8.25 23.363095238095237  8.25 23.571428571428573  L 8.25 25  C 8.25 25.20833333333333  8.314453125 25.37946428571429  8.443359375 25.513392857142854  C 8.572265625000002 25.647321428571427  8.736979166666668 25.71428571428571  8.9375 25  L 24.0625 25  C 24.26302083333334 25.71428571428571  24.427734375 25.647321428571427  24.556640625 25.513392857142854  Z M 24.556640625 19.799107142857146  C 24.685546875 19.665178571428573  24.75 19.49404761904762  24.75 19.285714285714285  L 24.75 17.857142857142854  C 24.75 17.648809523809522  24.685546875 17.477678571428573  24.556640625 17.34375  C 24.427734375 17.209821428571427  24.26302083333334 17.142857142857146  24.0625 17.142857142857146  L 8.9375 17.142857142857146  C 8.736979166666668 17.142857142857146  8.572265625000002 17.209821428571427  8.443359375 17.34375  C 8.314453125 17.477678571428573  8.25 17.648809523809522  8.25 17.857142857142854  L 8.25 19.285714285714285  C 8.25 19.49404761904762  8.314453125 19.665178571428573  8.443359375 19.799107142857146  C 8.572265625000002 19.933035714285715  8.736979166666668 20  8.9375 20  L 24.0625 20  C 24.26302083333334 20  24.427734375 19.933035714285715  24.556640625 19.799107142857146  Z " fill-rule="nonzero" fill="url(#LinearGradient928)" stroke="none" transform="matrix(1 0 0 1 35 77 )" />
  </g>
</svg>