<?xml version="1.0" encoding="utf-8"?>
<svg version="1.1" xmlns:xlink="http://www.w3.org/1999/xlink" width="30px" height="30px" xmlns="http://www.w3.org/2000/svg">
  <g transform="matrix(1 0 0 1 -434 -27 )">
    <path d="M 29.292929292929294 22.424242424242422  C 29.764309764309765 22.895622895622893  30 23.468013468013464  30 24.141414141414142  C 30 24.814814814814817  29.764309764309765 25.387205387205384  29.292929292929294 25.858585858585858  L 25.858585858585858 29.292929292929294  C 25.38720538720539 29.764309764309765  24.814814814814817 30  24.141414141414142 30  C 23.46801346801347 30  22.8956228956229 29.764309764309765  22.424242424242426 29.292929292929294  L 15 21.868686868686872  L 7.575757575757576 29.292929292929294  C 7.104377104377106 29.764309764309765  6.531986531986532 30  5.858585858585858 30  C 5.185185185185186 30  4.612794612794613 29.764309764309765  4.141414141414142 29.292929292929294  L 0.7070707070707071 25.858585858585858  C 0.23569023569023592 25.387205387205384  0 24.814814814814817  0 24.141414141414142  C 0 23.468013468013464  0.23569023569023592 22.895622895622893  0.7070707070707071 22.424242424242422  L 8.131313131313131 15  L 0.7070707070707071 7.575757575757574  C 0.23569023569023592 7.104377104377102  0 6.531986531986532  0 5.858585858585858  C 0 5.185185185185185  0.23569023569023592 4.612794612794609  0.7070707070707071 4.141414141414143  L 4.141414141414142 0.7070707070707072  C 4.612794612794613 0.23569023569023462  5.185185185185186 0  5.858585858585858 0  C 6.531986531986532 0  7.104377104377106 0.23569023569023462  7.575757575757576 0.7070707070707072  L 15 8.131313131313133  L 22.424242424242426 0.7070707070707072  C 22.8956228956229 0.23569023569023462  23.46801346801347 0  24.141414141414142 0  C 24.814814814814817 0  25.38720538720539 0.23569023569023462  25.858585858585858 0.7070707070707072  L 29.292929292929294 4.141414141414143  C 29.764309764309765 4.612794612794609  30 5.185185185185185  30 5.858585858585858  C 30 6.531986531986532  29.764309764309765 7.104377104377102  29.292929292929294 7.575757575757574  L 21.86868686868687 15  L 29.292929292929294 22.424242424242422  Z " fill-rule="nonzero" fill="#aaaaaa" stroke="none" transform="matrix(1 0 0 1 434 27 )" />
  </g>
</svg>