<?xml version="1.0" encoding="utf-8"?>
<svg version="1.1" xmlns:xlink="http://www.w3.org/1999/xlink" width="13px" height="13px" viewBox="118 909  13 13" xmlns="http://www.w3.org/2000/svg">
  <path d="M 124.5 909  C 128.14 909  131 911.86  131 915.5  C 131 919.14  128.14 922  124.5 922  C 120.86 922  118 919.14  118 915.5  C 118 911.86  120.86 909  124.5 909  Z " fill-rule="nonzero" fill="#ffffff" stroke="none" />
  <path d="M 124.5 909.5  C 127.86 909.5  130.5 912.14  130.5 915.5  C 130.5 918.86  127.86 921.5  124.5 921.5  C 121.14 921.5  118.5 918.86  118.5 915.5  C 118.5 912.14  121.14 909.5  124.5 909.5  Z " stroke-width="1" stroke="#797979" fill="none" />
  <path d="M 124.5 918.75  C 122.68 918.75  121.25 917.32  121.25 915.5  C 121.25 913.68  122.68 912.25  124.5 912.25  C 126.32 912.25  127.75 913.68  127.75 915.5  C 127.75 917.32  126.32 918.75  124.5 918.75  " fill-rule="nonzero" fill="#797979" stroke="none" />
</svg>