<?xml version="1.0" encoding="utf-8"?>
<svg version="1.1" xmlns:xlink="http://www.w3.org/1999/xlink" width="30px" height="30px" xmlns="http://www.w3.org/2000/svg">
  <g transform="matrix(1 0 0 1 -425 -725 )">
    <path d="M 24.35369318181818 13.828125  C 24.48153409090909 13.95596590909091  24.545454545454547 14.11931818181818  24.545454545454547 14.318181818181818  L 24.545454545454547 15.681818181818182  C 24.545454545454547 15.880681818181817  24.48153409090909 16.04403409090909  24.35369318181818 16.171875  C 24.225852272727273 16.29971590909091  24.062500000000004 16.363636363636363  23.863636363636363 16.363636363636363  L 16.363636363636363 16.363636363636363  L 16.363636363636363 23.863636363636363  C 16.363636363636363 24.062499999999996  16.29971590909091 24.225852272727273  16.171875 24.35369318181818  C 16.04403409090909 24.48153409090909  15.88068181818182 24.545454545454543  15.681818181818182 24.545454545454543  L 14.318181818181818 24.545454545454543  C 14.119318181818183 24.545454545454543  13.95596590909091 24.48153409090909  13.828125 24.35369318181818  C 13.70028409090909 24.225852272727273  13.636363636363637 24.062499999999996  13.636363636363637 23.863636363636363  L 13.636363636363637 16.363636363636363  L 6.136363636363637 16.363636363636363  C 5.937500000000001 16.363636363636363  5.7741477272727275 16.29971590909091  5.646306818181818 16.171875  C 5.518465909090909 16.04403409090909  5.454545454545455 15.880681818181817  5.454545454545455 15.681818181818182  L 5.454545454545455 14.318181818181818  C 5.454545454545455 14.11931818181818  5.518465909090909 13.95596590909091  5.646306818181818 13.828125  C 5.7741477272727275 13.70028409090909  5.937500000000001 13.636363636363637  6.136363636363637 13.636363636363637  L 13.636363636363637 13.636363636363637  L 13.636363636363637 6.136363636363638  C 13.636363636363637 5.937499999999996  13.70028409090909 5.774147727272728  13.828125 5.646306818181818  C 13.95596590909091 5.518465909090909  14.119318181818183 5.454545454545453  14.318181818181818 5.454545454545453  L 15.681818181818182 5.454545454545453  C 15.88068181818182 5.454545454545453  16.04403409090909 5.518465909090909  16.171875 5.646306818181818  C 16.29971590909091 5.774147727272728  16.363636363636363 5.937499999999996  16.363636363636363 6.136363636363638  L 16.363636363636363 13.636363636363637  L 23.863636363636363 13.636363636363637  C 24.062500000000004 13.636363636363637  24.225852272727273 13.70028409090909  24.35369318181818 13.828125  Z M 26.27130681818182 26.27130681818182  C 26.938920454545457 25.603693181818176  27.272727272727273 24.801136363636363  27 23.863636363636363  L 27 6.136363636363638  C 27.272727272727273 5.198863636363638  26.938920454545457 4.396306818181817  26.27130681818182 3.728693181818181  C 25.603693181818183 3.0610795454545423  24.801136363636363 2.7272727272727284  23.863636363636363 3  L 6.136363636363637 3  C 5.198863636363637 2.7272727272727284  4.396306818181819 3.0610795454545423  3.7286931818181817 3.728693181818181  C 3.061079545454546 4.396306818181817  2.7272727272727275 5.198863636363638  3 6.136363636363638  L 3 23.863636363636363  C 2.7272727272727275 24.801136363636363  3.061079545454546 25.603693181818176  3.7286931818181817 26.27130681818182  C 4.396306818181819 26.938920454545453  5.198863636363637 27.272727272727273  6.136363636363637 27  L 23.863636363636363 27  C 24.801136363636363 27.272727272727273  25.603693181818183 26.938920454545453  26.27130681818182 26.27130681818182  Z M 28.199573863636363 1.8004261363636376  C 29.399857954545457 3.0007102272727257  30 4.446022727272724  30 6.136363636363638  L 30 23.863636363636363  C 30 25.553977272727273  29.399857954545457 26.999289772727273  28.199573863636363 28.199573863636363  C 26.999289772727273 29.399857954545453  25.553977272727277 30  23.863636363636363 30  L 6.136363636363637 30  C 4.4460227272727275 30  3.0007102272727275 29.399857954545453  1.8004261363636362 28.199573863636363  C 0.6001420454545454 26.999289772727273  0 25.553977272727273  0 23.863636363636363  L 0 6.136363636363638  C 0 4.446022727272724  0.6001420454545454 3.0007102272727257  1.8004261363636362 1.8004261363636376  C 3.0007102272727275 0.6001420454545425  4.4460227272727275 0  6.136363636363637 0  L 23.863636363636363 0  C 25.553977272727277 0  26.999289772727273 0.6001420454545425  28.199573863636363 1.8004261363636376  Z " fill-rule="nonzero" fill="#ffffff" stroke="none" transform="matrix(1 0 0 1 425 725 )" />
  </g>
</svg>