<?xml version="1.0" encoding="utf-8"?>
<!-- Generator: Adobe Illustrator 22.0.0, SVG Export Plug-In . SVG Version: 6.00 Build 0)  -->
<svg version="1.1" id="图层_1" xmlns="http://www.w3.org/2000/svg" xmlns:xlink="http://www.w3.org/1999/xlink" x="0px" y="0px"
	 viewBox="0 0 1024 1024" style="enable-background:new 0 0 1024 1024;" xml:space="preserve">
<style type="text/css">
	.st0{fill:#CCDAFE;}
	.st1{fill:#A8BEEF;}
	.st2{fill:none;stroke:#3B6CE4;stroke-width:4;stroke-miterlimit:10;}
	.st3{fill:#FFFFFF;}
	.st4{fill:#3B6CE4;}
	.st5{fill:#5D94FA;}
	.st6{fill:#C69767;}
	.st7{fill:#EFBB81;}
	.st8{fill:url(#SVGID_1_);}
	.st9{fill:url(#SVGID_2_);}
	.st10{fill:url(#SVGID_3_);}
	.st11{fill:#FF7F2A;}
	.st12{fill:url(#SVGID_4_);}
	.st13{fill:#EF9F92;}
	.st14{fill:#FFAE9C;}
	.st15{fill:#FDCACA;}
	.st16{fill:#63393F;}
	.st17{fill:#383838;}
	.st18{fill:#353535;}
	.st19{fill:#DBEEFE;}
	.st20{fill:#274DA0;}
	.st21{fill:#B9D8ED;}
	.st22{fill:#1E3F7A;}
	.st23{fill:#183F8C;}
</style>
<g>
	<g>
		<polygon class="st0" points="162.6,716.1 162.6,510.3 245,510.3 245,362.1 385.7,362.1 385.7,716.1 		"/>
		<g>
			<rect x="259" y="386.6" class="st1" width="28.8" height="23"/>
			<rect x="302.2" y="386.6" class="st1" width="28.8" height="23"/>
			<rect x="345.4" y="386.6" class="st1" width="28.8" height="23"/>
			<rect x="259" y="422.6" class="st1" width="28.8" height="23"/>
			<rect x="302.2" y="422.6" class="st1" width="28.8" height="23"/>
			<rect x="345.4" y="422.6" class="st1" width="28.8" height="23"/>
			<rect x="259" y="458.5" class="st1" width="28.8" height="23"/>
			<rect x="302.2" y="458.5" class="st1" width="28.8" height="23"/>
			<rect x="345.4" y="458.5" class="st1" width="28.8" height="23"/>
			<rect x="259" y="494.5" class="st1" width="28.8" height="23"/>
			<rect x="302.2" y="494.5" class="st1" width="28.8" height="23"/>
			<rect x="345.4" y="494.5" class="st1" width="28.8" height="23"/>
			<rect x="259" y="530.5" class="st1" width="28.8" height="23"/>
			<rect x="215.8" y="530.5" class="st1" width="28.8" height="23"/>
			<rect x="172.7" y="530.5" class="st1" width="28.8" height="23"/>
			<rect x="302.2" y="530.5" class="st1" width="28.8" height="23"/>
			<rect x="345.4" y="530.5" class="st1" width="28.8" height="23"/>
			<rect x="259" y="566.5" class="st1" width="28.8" height="23"/>
			<rect x="215.8" y="566.5" class="st1" width="28.8" height="23"/>
			<rect x="172.7" y="566.5" class="st1" width="28.8" height="23"/>
			<rect x="302.2" y="566.5" class="st1" width="28.8" height="23"/>
			<rect x="345.4" y="566.5" class="st1" width="28.8" height="23"/>
			<rect x="259" y="602.4" class="st1" width="28.8" height="23"/>
			<rect x="215.8" y="602.4" class="st1" width="28.8" height="23"/>
			<rect x="172.7" y="602.4" class="st1" width="28.8" height="23"/>
			<rect x="302.2" y="602.4" class="st1" width="28.8" height="23"/>
			<rect x="345.4" y="602.4" class="st1" width="28.8" height="23"/>
			<rect x="259" y="638.4" class="st1" width="28.8" height="23"/>
			<rect x="215.8" y="638.4" class="st1" width="28.8" height="23"/>
			<rect x="172.7" y="638.4" class="st1" width="28.8" height="23"/>
			<rect x="302.2" y="638.4" class="st1" width="28.8" height="23"/>
			<rect x="345.4" y="638.4" class="st1" width="28.8" height="23"/>
		</g>
	</g>
	<g>
		<polygon class="st0" points="634.6,713.3 634.6,583.7 697.9,583.7 697.9,434.1 794.4,434.1 794.4,504.6 850.5,504.6 850.5,713.3 
					"/>
		<g>
			<rect x="712.3" y="452.8" class="st1" width="28.8" height="23"/>
			<rect x="752.6" y="452.8" class="st1" width="28.8" height="23"/>
			<rect x="712.3" y="596.7" class="st1" width="28.8" height="23"/>
			<rect x="672" y="596.7" class="st1" width="28.8" height="23"/>
			<rect x="672" y="632.7" class="st1" width="28.8" height="23"/>
			<rect x="752.6" y="596.7" class="st1" width="28.8" height="23"/>
			<rect x="712.3" y="488.8" class="st1" width="28.8" height="23"/>
			<rect x="752.6" y="488.8" class="st1" width="28.8" height="23"/>
			<rect x="712.3" y="524.7" class="st1" width="28.8" height="23"/>
			<rect x="752.6" y="524.7" class="st1" width="28.8" height="23"/>
			<rect x="792.9" y="524.7" class="st1" width="28.8" height="23"/>
			<rect x="792.9" y="560.7" class="st1" width="28.8" height="23"/>
			<rect x="792.9" y="596.7" class="st1" width="28.8" height="23"/>
			<rect x="792.9" y="632.7" class="st1" width="28.8" height="23"/>
			<rect x="712.3" y="560.7" class="st1" width="28.8" height="23"/>
			<rect x="752.6" y="560.7" class="st1" width="28.8" height="23"/>
			<rect x="712.3" y="632.7" class="st1" width="28.8" height="23"/>
			<rect x="752.6" y="632.7" class="st1" width="28.8" height="23"/>
		</g>
	</g>
	<g>
		<line class="st2" x1="511.6" y1="286.3" x2="401.8" y2="335.9"/>
		<line class="st2" x1="511.6" y1="286.3" x2="621.3" y2="335.9"/>
		<path class="st3" d="M511.6,297c-5.9,0-10.7-4.8-10.7-10.7c0-5.9,4.8-10.7,10.7-10.7c5.9,0,10.7,4.8,10.7,10.7
			C522.3,292.2,517.5,297,511.6,297z"/>
		<path class="st4" d="M693.6,549.4h-364c-4.4,0-8-3.6-8-8l0,0c0-4.4,3.6-8,8-8h364c4.4,0,8,3.6,8,8l0,0
			C701.6,545.8,698,549.4,693.6,549.4z"/>
		
			<rect x="469.8" y="575.1" transform="matrix(1.406491e-10 1 -1 1.406491e-10 1094.6974 71.548)" class="st4" width="83.5" height="16"/>
		<path class="st5" d="M681.6,533.4h-340v-190c0-5.5,4.5-10,10-10h320c5.5,0,10,4.5,10,10V533.4z"/>
		<rect x="351.6" y="343.4" class="st3" width="320" height="180"/>
		<g>
			<path class="st4" d="M511.6,299.6c-7.3,0-13.2-5.9-13.2-13.3c0-7.3,5.9-13.2,13.2-13.2c7.3,0,13.3,5.9,13.3,13.2
				C524.8,293.6,518.9,299.6,511.6,299.6z M511.6,280.3c-3.3,0-6.1,2.7-6.1,6.1c0,3.3,2.7,6.1,6.1,6.1c3.3,0,6.1-2.7,6.1-6.1
				C517.6,283,514.9,280.3,511.6,280.3z"/>
		</g>
		<g>
			<path class="st6" d="M395.1,388.7h178c5.5,0,10-4.5,10-10c0-5.5-4.5-10-10-10h-178c-5.5,0-10,4.5-10,10
				C385.1,384.2,389.6,388.7,395.1,388.7z"/>
			<path class="st6" d="M395.1,428H509c5.5,0,10-4.5,10-10c0-5.5-4.5-10-10-10H395.1c-5.5,0-10,4.5-10,10
				C385.1,423.5,389.6,428,395.1,428z"/>
			<path class="st6" d="M624.1,447.3h-229c-5.5,0-10,4.5-10,10c0,5.5,4.5,10,10,10h229c5.5,0,10-4.5,10-10
				C634.1,451.8,629.6,447.3,624.1,447.3z"/>
			<path class="st6" d="M464.3,486.6h-69.3c-5.5,0-10,4.5-10,10c0,5.5,4.5,10,10,10h69.3c5.5,0,10-4.5,10-10
				C474.3,491.1,469.9,486.6,464.3,486.6z"/>
		</g>
		<g>
			<path class="st7" d="M397.1,385.7h178c5.5,0,10-4.5,10-10c0-5.5-4.5-10-10-10h-178c-5.5,0-10,4.5-10,10
				C387.1,381.2,391.6,385.7,397.1,385.7z"/>
			<path class="st7" d="M397.1,425H511c5.5,0,10-4.5,10-10c0-5.5-4.5-10-10-10H397.1c-5.5,0-10,4.5-10,10
				C387.1,420.5,391.6,425,397.1,425z"/>
			<path class="st7" d="M626.1,444.3h-229c-5.5,0-10,4.5-10,10c0,5.5,4.5,10,10,10h229c5.5,0,10-4.5,10-10
				C636.1,448.8,631.6,444.3,626.1,444.3z"/>
			<path class="st7" d="M466.3,483.6h-69.3c-5.5,0-10,4.5-10,10c0,5.5,4.5,10,10,10h69.3c5.5,0,10-4.5,10-10
				C476.3,488.1,471.9,483.6,466.3,483.6z"/>
		</g>
	</g>
	<g>
		<g>
			<linearGradient id="SVGID_1_" gradientUnits="userSpaceOnUse" x1="503.3618" y1="621.252" x2="511.719" y2="752.951">
				<stop  offset="0" style="stop-color:#91B3FF"/>
				<stop  offset="0.4022" style="stop-color:#6791F2"/>
				<stop  offset="0.7939" style="stop-color:#3B6CE4"/>
			</linearGradient>
			<path class="st8" d="M92.1,750.7c0,0,164.1-131,411.6-131c233.1,0,427.4,131,427.4,131s-65.5-24.7-204.4-27.3
				c-76.3-1.4-132.4,24.5-225.9,24.5c-87.8,0-149.8-12.1-243.2-15.8C171,728.5,92.1,750.7,92.1,750.7z"/>
			<linearGradient id="SVGID_2_" gradientUnits="userSpaceOnUse" x1="519.0669" y1="618.2672" x2="523.0499" y2="681.0345">
				<stop  offset="0" style="stop-color:#91B3FF"/>
				<stop  offset="0.2484" style="stop-color:#6795EC"/>
				<stop  offset="0.7939" style="stop-color:#004CBF"/>
			</linearGradient>
			<path class="st9" d="M428.8,623.7c-5.5,3.8-8.6,8.1-8.6,12.5c0,17.1,44.8,30.9,100,30.9c55.2,0,100-13.9,100-30.9
				c0-2.2-0.8-4.4-2.3-6.6c-36.5-6.2-74.8-10-114.3-10C477.7,619.7,452.8,621.2,428.8,623.7z"/>
			
				<ellipse transform="matrix(0.9596 -0.2814 0.2814 0.9596 -180.3948 124.0386)" class="st4" cx="341.8" cy="690.2" rx="46.8" ry="15.8"/>
			
				<ellipse transform="matrix(0.2923 -0.9563 0.9563 0.2923 -284.8926 1037.2354)" class="st4" cx="558.3" cy="711.1" rx="12.2" ry="30.2"/>
		</g>
		<g>
			<g>
				<linearGradient id="SVGID_3_" gradientUnits="userSpaceOnUse" x1="743.5417" y1="649.0374" x2="706.5889" y2="598.7522">
					<stop  offset="0" style="stop-color:#EFBB81"/>
					<stop  offset="0.5011" style="stop-color:#F79E57"/>
					<stop  offset="1" style="stop-color:#FF7F2A"/>
				</linearGradient>
				<path class="st10" d="M749.3,627.7c4.9-5.1,7.4-11.8,6.4-18.6c-1.2-8.2-7.1-14.6-15.2-17.8c0.2-1.8,0.2-3.7-0.2-5.6
					c-1.9-9.1-10.8-15-19.8-13.1c-9,1.9-14.8,10.8-12.9,19.9c0.2,1.2,0.6,2.3,1.1,3.3c-6.9,5.4-10.9,13.4-9.7,21.6
					c0.6,3.8,2.1,7.2,4.5,10.1c-5.2,3.4-8.4,8-8.4,13c0,10.5,14,19,31.2,19c17.2,0,31.2-8.5,31.2-19
					C757.5,635.6,754.4,631.1,749.3,627.7z"/>
				<g>
					<g>
						<path class="st11" d="M725.7,686L725.7,686c-0.9-0.5-1.5-2.5-1.2-4.3c4.4-35.6,1.3-54.8-0.2-61.3c-0.4-1.6-0.1-3.4,0.6-4.4
							l0,0c0.9-1.3,2.1-0.7,2.6,1.4c1.8,8,5.1,28.9,0.4,66.1C727.6,685.4,726.6,686.6,725.7,686z"/>
					</g>
				</g>
			</g>
			<g>
				<linearGradient id="SVGID_4_" gradientUnits="userSpaceOnUse" x1="801.872" y1="686.5665" x2="780.7891" y2="657.8769">
					<stop  offset="0" style="stop-color:#EFBB81"/>
					<stop  offset="0.5011" style="stop-color:#F79E57"/>
					<stop  offset="1" style="stop-color:#FF7F2A"/>
				</linearGradient>
				<path class="st12" d="M805.2,674.4c2.8-2.9,4.2-6.7,3.7-10.6c-0.7-4.7-4.1-8.3-8.7-10.2c0.1-1,0.1-2.1-0.1-3.2
					c-1.1-5.2-6.2-8.5-11.3-7.5c-5.2,1.1-8.4,6.2-7.3,11.4c0.1,0.7,0.3,1.3,0.6,1.9c-4,3.1-6.2,7.6-5.5,12.3
					c0.3,2.2,1.2,4.1,2.6,5.8c-3,1.9-4.8,4.5-4.8,7.4c0,6,8,10.8,17.8,10.8s17.8-4.9,17.8-10.8C809.8,678.9,808.1,676.3,805.2,674.4
					z"/>
				<g>
					<g>
						<path class="st11" d="M791.7,707.7L791.7,707.7c-0.5-0.3-0.8-1.4-0.7-2.5c2.5-20.3,0.8-31.2-0.1-35c-0.2-0.9-0.1-1.9,0.3-2.5
							l0,0c0.5-0.8,1.2-0.4,1.5,0.8c1,4.5,2.9,16.5,0.2,37.7C792.8,707.3,792.2,708,791.7,707.7z"/>
					</g>
				</g>
			</g>
		</g>
	</g>
	<g>
		<path class="st13" d="M554.3,584c0,0,1.7,15.3,2.2,17.7c0.5,2.4,3.7,10.6,4,14.1c0.3,3.4,2.6,30.2,2.6,31s0,11.1,0,11.1
			s1.9,9.1-5.4,11.8c-7.3,2.6-15.9,3.8-14.5,6.6c1.4,2.9,1.4,4,6.9,3.8c5.5-0.2,23-1.7,23-1.7s3.2-8.9,1.7-13.7
			c-1.5-4.8,1.1-21.8,1.1-22.2s2.6-16.7,0-27c-2.6-10.3-5.1-33.2-5.1-33.2L554.3,584z"/>
		<path class="st14" d="M582.5,582.2c0,0-1.7,19.5-0.8,26.5c0.9,7,6.2,11.5,5.6,22.4c-0.6,11-4.1,33.8-4.7,35.3s-2.3,7.7-1.8,10.2
			c0.5,2.5,3.3,8,1.3,9.1s-15.4,3.9-20.8,4.3c-6.2,0.4-8.3-2.8-8.3-2.8s-1.9-3.3,6.9-6.4c8.8-3.1,7.7-3.5,9.8-7.2
			c1.3-2.3,1.6-8.7,1.6-8.7s0.5-24.4,0-26.5c-0.5-2.1-0.7-19-1.1-20.1s-3.9-24.5-4.3-27.9C565.5,586.8,582.5,582.2,582.5,582.2z"/>
		<path class="st15" d="M554.8,505.8c0,0-5.9,5.5-8.1,5.3c-2.1-0.2-6.7-4.6-7.5-4.9s-5-1.2-6.2-1s-4.9,1-4.6,2.2s2.6,4.5,3.8,5
			c1.1,0.5,5.1,2.4,5.1,2.4l7.8,5.3l12.8-5.6L554.8,505.8z"/>
		<path class="st15" d="M549.9,447.4c0,0-1.2,2.6,0,6.1c1.2,3.5,3.7,3.9,4.2,5.3s-0.6,6.8,0.9,6.8s2.7,0.2,3.8,1.9
			c1.1,1.8,1.8,4.5,3.1,4.6c1.8,0.2,8.2-4.4,8.5-4.8s6.2-3,6.9-11.2c0.6-8.2-1.4-10.3-1.4-10.3s-6.2-10-13.3-6.2
			C555.3,443.4,549.9,447.4,549.9,447.4z"/>
		<path class="st16" d="M556.7,446.5l-5,3.2c0,0-4,1.7-5.5-1.6c-1.5-3.3-0.7-6.4,0.2-8c1.8-3.4,9.6-8.7,15.4-8.9
			c5.7-0.2,9.4,3.3,10.3,4.6c0.9,1.3,5.1,6.8,5,14c0,1.1-1.3-1.5-2.7-1.9c-3-0.8-4.4,2.7-4.4,4.5s-0.9,2.5-0.9,2.5s-3.6-5.3-5.1-4.8
			c-2.4,0.8-2.4-1.6-2.5-2.4C561.3,447.2,559.5,444.8,556.7,446.5z"/>
		<path class="st6" d="M574.7,582.2"/>
		<polygon class="st17" points="515.7,501.8 545.8,514.1 552.9,528.3 524,519.1 		"/>
		<polygon class="st3" points="517.7,503.5 545.5,514.5 551.2,526.4 524.6,518.6 		"/>
		<path class="st18" d="M563,656.5l11.9,0.3c0,0,1.7,20.6,0.6,21.2c-1.1,0.6-18.6,3.1-22.1,3.2c-3.9,0-14.9,0.6-15.3-3.6
			c-0.4-3.2,2.3-3.9,2.3-3.9s7.1-0.9,10.6-3.3c3.7-2.5,9.7-4.2,10.5-6.6C562.2,661.5,563,656.5,563,656.5z"/>
		<polygon class="st19" points="586.1,500.1 591.5,533.2 555,540 552.3,519.9 		"/>
		<polygon class="st15" points="574.3,456.2 580.8,465.3 566.6,477.3 563.9,464.4 		"/>
		<path class="st15" d="M586.1,496.5c0,0,1.6,11,0,13.5c-1.6,2.5-14.9,11.1-22,11.9c-7.1,0.8-13.7-0.9-14.6-1.4
			c-0.9-0.6-1.7-1.1-5.1-0.3c-3.6,0.8-6.4-0.7-6.6,0c-0.6,1.7,2.3,2.8,2.7,2.9s-6.6-2.1-7.1-1.5c-0.5,0.6,0.4,2.4,3,3.6
			c2.7,1.2,5.9,6.1,6.6,6.7s1.5,2.4,7.7,1c6.2-1.4,9.9-2.1,17-2.2s27.3-3.1,29.6-6.6c2.2-3.5,4.9-10.9,3.1-18.2
			S586.1,496.5,586.1,496.5z"/>
		<path class="st19" d="M576,465.8c0,0,4.9-2.7,5.6-2c1.2,1.1,15.3,13.1,16.8,15.8c1.4,2.7,2.6,28.7,2.6,30.3s0.3,14.1-2.2,16.1
			c-2.7,2.3-7.4,3.4-10,4c-4.4,1.1-33.7,2.5-36.5,3c0,0,1.4-5.7,1.5-7.2c0.1-2-1.8-5.3-1.8-5.3s4.1-30.9,4.6-33.7
			c0.6-3.5,0.4-6.7,2.9-9.8c1.7-2.1,3.4-4.1,3.4-4.1L576,465.8z"/>
		<path class="st20" d="M554.6,537.3c0,0,31.3-2.6,35.2-5.1c3.9-2.5,1.4,5.1,1.4,5.1s5.3,9.7,3.3,17.7c-1.9,8-6.3,35.4-6.3,38
			s0.1,75-4.8,74c-4.9-1-8.3-0.9-9.1-0.9c-0.8,0-1.1-6.6-1.1-6.6s-11,2.7-11.1,0.2s-13.4-95.5-11.5-98.5c1.8-3,0.6-13.4,1.4-14.9
			S554.6,537.3,554.6,537.3z"/>
		<path class="st21" d="M584,488.1c0,0,0.7,13.4,4,16.3c0,0-1.6-0.4-1.2,1.8C586.8,506.2,583.4,497.2,584,488.1z"/>
		<path class="st22" d="M561.9,565.1c0,0,10.7,93.1,11.2,94.4l-1.8,0.4L561.9,565.1z"/>
		<path class="st18" d="M573.1,662.7c0,0,4.2,3,11.5,1.7c0,0-0.6,6.7,0.8,10.4s2.3,9,1.7,9.8s-9.3,2.3-12.6,3.3s-12.4,2.2-14.5,2.3
			c-2.8,0.1-8.6-1.5-9.5-3.2s0-4,1.4-4.4c3.4-0.9,7.2-2.1,10.2-4.4c1.1-0.9,6.1-5,7.6-7.5S573.1,662.7,573.1,662.7z"/>
		<path class="st22" d="M591.1,537.4l1.1,2.4c0,0-11,3.6-15,3.8C573.3,543.8,591.1,537.4,591.1,537.4z"/>
		<path class="st21" d="M581.1,512.6c0,0-22.9,7.4-28.9,6.6l0.2,2C552.4,521.2,579.3,516.7,581.1,512.6z"/>
		<path class="st21" d="M584.3,466.1c0,0-2.3-2-2.7-2.3s-0.6-0.2-2.1,0.3c-1.4,0.5-4.9,2.4-4.9,2.4l-10.3,5.6l1.8,4.6l0.7,1.7
			L584.3,466.1z"/>
		<polygon class="st21" points="564.4,472.1 559.9,478.9 558.7,478.1 562.8,472.8 		"/>
		<path class="st23" d="M563.5,473.5c0,0,3.2,2.5,0.1,8l-1.3,22.8l-5.4,8.5l-1-8.2l5.9-23.4C561.9,481.3,559.7,476.7,563.5,473.5z"
			/>
		<polygon class="st19" points="555.1,503 548.6,508.9 551.2,518.8 553.6,517.9 		"/>
	</g>
</g>
</svg>
