<?xml version="1.0" encoding="utf-8"?>
<!-- Generator: Adobe Illustrator 22.0.0, SVG Export Plug-In . SVG Version: 6.00 Build 0)  -->
<svg version="1.1" id="图层_1" xmlns="http://www.w3.org/2000/svg" xmlns:xlink="http://www.w3.org/1999/xlink" x="0px" y="0px"
	 viewBox="0 0 1024 1024" style="enable-background:new 0 0 1024 1024;" xml:space="preserve">
<style type="text/css">
	.st0{fill:#CCDAFE;}
	.st1{fill:#A8BEEF;}
	.st2{fill:url(#SVGID_1_);}
	.st3{fill:url(#SVGID_2_);}
	.st4{fill:#3B6CE4;}
	.st5{fill:url(#SVGID_3_);}
	.st6{fill:#FF7F2A;}
	.st7{fill:url(#SVGID_4_);}
	.st8{fill:#C5D4EF;}
	.st9{fill:#DFE7F7;}
	.st10{fill:#F8FAFF;}
	.st11{fill:#5D94FA;}
	.st12{fill:#9BB2D3;}
	.st13{fill:#FFFFFF;}
	.st14{fill:#FDCACA;}
	.st15{fill:#7D1C1C;}
	.st16{fill:#353535;}
	.st17{fill:#274DA0;}
	.st18{fill:#DBEEFE;}
	.st19{fill:#B9D8ED;}
</style>
<g>
	<g>
		<g>
			<polygon class="st0" points="162.8,716.1 162.8,510.3 245.3,510.3 245.3,362.1 385.9,362.1 385.9,716.1 			"/>
			<g>
				<rect x="259.2" y="386.6" class="st1" width="28.8" height="23"/>
				<rect x="302.4" y="386.6" class="st1" width="28.8" height="23"/>
				<rect x="345.6" y="386.6" class="st1" width="28.8" height="23"/>
				<rect x="259.2" y="422.6" class="st1" width="28.8" height="23"/>
				<rect x="302.4" y="422.6" class="st1" width="28.8" height="23"/>
				<rect x="345.6" y="422.6" class="st1" width="28.8" height="23"/>
				<rect x="259.2" y="458.5" class="st1" width="28.8" height="23"/>
				<rect x="302.4" y="458.5" class="st1" width="28.8" height="23"/>
				<rect x="345.6" y="458.5" class="st1" width="28.8" height="23"/>
				<rect x="259.2" y="494.5" class="st1" width="28.8" height="23"/>
				<rect x="302.4" y="494.5" class="st1" width="28.8" height="23"/>
				<rect x="345.6" y="494.5" class="st1" width="28.8" height="23"/>
				<rect x="259.2" y="530.5" class="st1" width="28.8" height="23"/>
				<rect x="216.1" y="530.5" class="st1" width="28.8" height="23"/>
				<rect x="172.9" y="530.5" class="st1" width="28.8" height="23"/>
				<rect x="302.4" y="530.5" class="st1" width="28.8" height="23"/>
				<rect x="345.6" y="530.5" class="st1" width="28.8" height="23"/>
				<rect x="259.2" y="566.5" class="st1" width="28.8" height="23"/>
				<rect x="216.1" y="566.5" class="st1" width="28.8" height="23"/>
				<rect x="172.9" y="566.5" class="st1" width="28.8" height="23"/>
				<rect x="302.4" y="566.5" class="st1" width="28.8" height="23"/>
				<rect x="345.6" y="566.5" class="st1" width="28.8" height="23"/>
				<rect x="259.2" y="602.4" class="st1" width="28.8" height="23"/>
				<rect x="216.1" y="602.4" class="st1" width="28.8" height="23"/>
				<rect x="172.9" y="602.4" class="st1" width="28.8" height="23"/>
				<rect x="302.4" y="602.4" class="st1" width="28.8" height="23"/>
				<rect x="345.6" y="602.4" class="st1" width="28.8" height="23"/>
				<rect x="259.2" y="638.4" class="st1" width="28.8" height="23"/>
				<rect x="216.1" y="638.4" class="st1" width="28.8" height="23"/>
				<rect x="172.9" y="638.4" class="st1" width="28.8" height="23"/>
				<rect x="302.4" y="638.4" class="st1" width="28.8" height="23"/>
				<rect x="345.6" y="638.4" class="st1" width="28.8" height="23"/>
			</g>
		</g>
		<g>
			<polygon class="st0" points="634.8,713.3 634.8,583.7 698.2,583.7 698.2,434.1 794.6,434.1 794.6,504.6 850.7,504.6 850.7,713.3 
							"/>
			<g>
				<rect x="712.6" y="452.8" class="st1" width="28.8" height="23"/>
				<rect x="752.8" y="452.8" class="st1" width="28.8" height="23"/>
				<rect x="712.6" y="596.7" class="st1" width="28.8" height="23"/>
				<rect x="672.3" y="596.7" class="st1" width="28.8" height="23"/>
				<rect x="672.3" y="632.7" class="st1" width="28.8" height="23"/>
				<rect x="752.8" y="596.7" class="st1" width="28.8" height="23"/>
				<rect x="712.6" y="488.8" class="st1" width="28.8" height="23"/>
				<rect x="752.8" y="488.8" class="st1" width="28.8" height="23"/>
				<rect x="712.6" y="524.7" class="st1" width="28.8" height="23"/>
				<rect x="752.8" y="524.7" class="st1" width="28.8" height="23"/>
				<rect x="793.1" y="524.7" class="st1" width="28.8" height="23"/>
				<rect x="793.1" y="560.7" class="st1" width="28.8" height="23"/>
				<rect x="793.1" y="596.7" class="st1" width="28.8" height="23"/>
				<rect x="793.1" y="632.7" class="st1" width="28.8" height="23"/>
				<rect x="712.6" y="560.7" class="st1" width="28.8" height="23"/>
				<rect x="752.8" y="560.7" class="st1" width="28.8" height="23"/>
				<rect x="712.6" y="632.7" class="st1" width="28.8" height="23"/>
				<rect x="752.8" y="632.7" class="st1" width="28.8" height="23"/>
			</g>
		</g>
		<g>
			<g>
				<linearGradient id="SVGID_1_" gradientUnits="userSpaceOnUse" x1="503.5854" y1="621.252" x2="511.9425" y2="752.951">
					<stop  offset="0" style="stop-color:#91B3FF"/>
					<stop  offset="0.4022" style="stop-color:#6791F2"/>
					<stop  offset="0.7939" style="stop-color:#3B6CE4"/>
				</linearGradient>
				<path class="st2" d="M92.3,750.7c0,0,164.1-131,411.6-131c233.1,0,427.4,131,427.4,131s-65.5-24.7-204.4-27.3
					c-76.3-1.4-132.4,24.5-225.9,24.5c-87.8,0-149.8-12.1-243.2-15.8C171.3,728.5,92.3,750.7,92.3,750.7z"/>
				<linearGradient id="SVGID_2_" gradientUnits="userSpaceOnUse" x1="519.2904" y1="618.2672" x2="523.2734" y2="681.0345">
					<stop  offset="0" style="stop-color:#91B3FF"/>
					<stop  offset="0.2484" style="stop-color:#6795EC"/>
					<stop  offset="0.7939" style="stop-color:#004CBF"/>
				</linearGradient>
				<path class="st3" d="M429,623.7c-5.5,3.8-8.6,8.1-8.6,12.5c0,17.1,44.8,30.9,100,30.9s100-13.9,100-30.9c0-2.2-0.8-4.4-2.3-6.6
					c-36.5-6.2-74.8-10-114.3-10C478,619.7,453,621.2,429,623.7z"/>
				
					<ellipse transform="matrix(0.9596 -0.2814 0.2814 0.9596 -180.3857 124.1015)" class="st4" cx="342" cy="690.2" rx="46.8" ry="15.8"/>
				
					<ellipse transform="matrix(0.2923 -0.9563 0.9563 0.2923 -284.7344 1037.4491)" class="st4" cx="558.6" cy="711.1" rx="12.2" ry="30.2"/>
			</g>
			<g>
				<g>
					<linearGradient id="SVGID_3_" gradientUnits="userSpaceOnUse" x1="743.7652" y1="649.0374" x2="706.8124" y2="598.7522">
						<stop  offset="0" style="stop-color:#EFBB81"/>
						<stop  offset="0.5011" style="stop-color:#F79E57"/>
						<stop  offset="1" style="stop-color:#FF7F2A"/>
					</linearGradient>
					<path class="st5" d="M749.6,627.7c4.9-5.1,7.4-11.8,6.4-18.6c-1.2-8.2-7.1-14.6-15.2-17.8c0.2-1.8,0.2-3.7-0.2-5.6
						c-1.9-9.1-10.8-15-19.8-13.1c-9,1.9-14.8,10.8-12.9,19.9c0.2,1.2,0.6,2.3,1.1,3.3c-6.9,5.4-10.9,13.4-9.7,21.6
						c0.6,3.8,2.1,7.2,4.5,10.1c-5.2,3.4-8.4,8-8.4,13c0,10.5,14,19,31.2,19c17.2,0,31.2-8.5,31.2-19
						C757.7,635.6,754.6,631.1,749.6,627.7z"/>
					<g>
						<g>
							<path class="st6" d="M725.9,686L725.9,686c-0.9-0.5-1.5-2.5-1.2-4.3c4.4-35.6,1.3-54.8-0.2-61.3c-0.4-1.6-0.1-3.4,0.6-4.4
								l0,0c0.9-1.3,2.1-0.7,2.6,1.4c1.8,8,5.1,28.9,0.4,66.1C727.8,685.4,726.8,686.6,725.9,686z"/>
						</g>
					</g>
				</g>
				<g>
					<linearGradient id="SVGID_4_" gradientUnits="userSpaceOnUse" x1="802.0955" y1="686.5665" x2="781.0126" y2="657.8769">
						<stop  offset="0" style="stop-color:#EFBB81"/>
						<stop  offset="0.5011" style="stop-color:#F79E57"/>
						<stop  offset="1" style="stop-color:#FF7F2A"/>
					</linearGradient>
					<path class="st7" d="M805.4,674.4c2.8-2.9,4.2-6.7,3.7-10.6c-0.7-4.7-4.1-8.3-8.7-10.2c0.1-1,0.1-2.1-0.1-3.2
						c-1.1-5.2-6.2-8.5-11.3-7.5c-5.2,1.1-8.4,6.2-7.3,11.4c0.1,0.7,0.3,1.3,0.6,1.9c-4,3.1-6.2,7.6-5.5,12.3
						c0.3,2.2,1.2,4.1,2.6,5.8c-3,1.9-4.8,4.5-4.8,7.4c0,6,8,10.8,17.8,10.8s17.8-4.9,17.8-10.8C810,678.9,808.3,676.3,805.4,674.4z
						"/>
					<g>
						<g>
							<path class="st6" d="M791.9,707.7L791.9,707.7c-0.5-0.3-0.8-1.4-0.7-2.5c2.5-20.3,0.8-31.2-0.1-35c-0.2-0.9-0.1-1.9,0.3-2.5
								h0c0.5-0.8,1.2-0.4,1.5,0.8c1,4.5,2.9,16.5,0.2,37.7C793,707.3,792.4,708,791.9,707.7z"/>
						</g>
					</g>
				</g>
			</g>
		</g>
	</g>
	<g>
		<path class="st4" d="M636.8,405.9H535.2c-3.1-15.2-16.6-26.6-32.7-26.6H400.2c-18.4,0-33.4,14.9-33.4,33.4v13.2v7.1V537
			c0,11,9,20,20,20h250c11,0,20-9,20-20V425.9C656.8,414.8,647.8,405.9,636.8,405.9z"/>
		<path class="st8" d="M620.8,598.6h-218c-5.5,0-10-4.5-10-10V283.8c0-5.5,4.5-10,10-10h218c5.5,0,10,4.5,10,10v304.8
			C630.8,594.1,626.3,598.6,620.8,598.6z"/>
		<rect x="384.5" y="424.1" class="st9" width="254.5" height="183"/>
		<rect x="376.5" y="437.3" class="st10" width="270.7" height="164.6"/>
		<path class="st11" d="M623.4,455.1H521.1c-16.1,0-29.6,11.4-32.7,26.6H386.8c-11,0-20,9-20,20v111.1c0,11,9,20,20,20h250
			c11,0,20-9,20-20V508.7v-7.1v-13.2C656.8,470,641.8,455.1,623.4,455.1z"/>
	</g>
	<g>
		<path class="st12" d="M432.8,329.6h-14.7c-1.5,0-2.7-1.2-2.7-2.7v-14.7c0-1.5,1.2-2.7,2.7-2.7h14.7c1.5,0,2.7,1.2,2.7,2.7V327
			C435.5,328.4,434.3,329.6,432.8,329.6z"/>
		<path class="st12" d="M604.1,329.6H454.8c-2.2,0-4-1.8-4-4v-12c0-2.2,1.8-4,4-4h149.3c2.2,0,4,1.8,4,4v12
			C608.1,327.8,606.3,329.6,604.1,329.6z"/>
	</g>
	<g>
		<path class="st12" d="M432.8,367h-14.7c-1.5,0-2.7-1.2-2.7-2.7v-14.7c0-1.5,1.2-2.7,2.7-2.7h14.7c1.5,0,2.7,1.2,2.7,2.7v14.7
			C435.5,365.8,434.3,367,432.8,367z"/>
		<path class="st12" d="M604.1,367H454.8c-2.2,0-4-1.8-4-4v-12c0-2.2,1.8-4,4-4h149.3c2.2,0,4,1.8,4,4v12
			C608.1,365.2,606.3,367,604.1,367z"/>
	</g>
	<g>
		<path class="st12" d="M432.8,404.5h-14.7c-1.5,0-2.7-1.2-2.7-2.7v-14.7c0-1.5,1.2-2.7,2.7-2.7h14.7c1.5,0,2.7,1.2,2.7,2.7v14.7
			C435.5,403.3,434.3,404.5,432.8,404.5z"/>
		<path class="st12" d="M604.1,404.5H454.8c-2.2,0-4-1.8-4-4v-12c0-2.2,1.8-4,4-4h149.3c2.2,0,4,1.8,4,4v12
			C608.1,402.7,606.3,404.5,604.1,404.5z"/>
	</g>
	<g>
		<path class="st13" d="M432.8,324.6h-14.7c-1.5,0-2.7-1.2-2.7-2.7v-14.7c0-1.5,1.2-2.7,2.7-2.7h14.7c1.5,0,2.7,1.2,2.7,2.7V322
			C435.5,323.4,434.3,324.6,432.8,324.6z"/>
		<path class="st13" d="M604.1,324.6H454.8c-2.2,0-4-1.8-4-4v-12c0-2.2,1.8-4,4-4h149.3c2.2,0,4,1.8,4,4v12
			C608.1,322.8,606.3,324.6,604.1,324.6z"/>
	</g>
	<g>
		<path class="st13" d="M432.8,362h-14.7c-1.5,0-2.7-1.2-2.7-2.7v-14.7c0-1.5,1.2-2.7,2.7-2.7h14.7c1.5,0,2.7,1.2,2.7,2.7v14.7
			C435.5,360.8,434.3,362,432.8,362z"/>
		<path class="st13" d="M604.1,362H454.8c-2.2,0-4-1.8-4-4v-12c0-2.2,1.8-4,4-4h149.3c2.2,0,4,1.8,4,4v12
			C608.1,360.2,606.3,362,604.1,362z"/>
	</g>
	<g>
		<path class="st13" d="M432.8,399.5h-14.7c-1.5,0-2.7-1.2-2.7-2.7v-14.7c0-1.5,1.2-2.7,2.7-2.7h14.7c1.5,0,2.7,1.2,2.7,2.7v14.7
			C435.5,398.3,434.3,399.5,432.8,399.5z"/>
		<path class="st13" d="M604.1,399.5H454.8c-2.2,0-4-1.8-4-4v-12c0-2.2,1.8-4,4-4h149.3c2.2,0,4,1.8,4,4v12
			C608.1,397.7,606.3,399.5,604.1,399.5z"/>
	</g>
	<g>
		<path class="st14" d="M382.9,502.2c4.2,9.1,1.8,19.2-5.4,22.5c-7.2,3.3-14.2-2.4-20.6-10.6c-6.2-7.9-1.8-19.2,5.4-22.5
			C369.5,488.4,378.7,493.1,382.9,502.2z"/>
		<path class="st15" d="M353.3,500.6c0,0-9.4-4.7-11.1,4.5c-1.5,8.3,4.8,9.1,7.8,9c2.2-0.1,4-1.7,4-1.7s2.5,10.9,12.1,10.8l-0.3-6.4
			c0-0.4-0.3-0.7-0.7-0.8c-0.6-0.2-1.3-0.5-1.9-1.3c-1.5-2.4-1.9-7.5,1.9-5.7c4.3,2.1,12-1.8,14.2-8.5c2.2-6.7-3.6-10.1-9.2-11
			C363.5,488.3,354,492.1,353.3,500.6z"/>
		<path class="st14" d="M376.8,633.7c0,0,0,14.1-1.7,19.9s0,14.9,0,17.4c0,2.5,0.8,36.4,0.8,36.4l7.4,7.4c0,0,7.2,1.2,3.3-2.5
			c-3.9-3.6-5.8-3.3-5.8-9.1c0-5.8,4.1-34.8,5-38.9c0.8-4.1,1.7-30.6,1.7-30.6H376.8z"/>
		<path class="st16" d="M375.8,706.2c-0.2,0.8-0.9,3.6-0.4,9c0,0.1,0.1,0.2,0.2,0.2h0.9c0.1,0,0.2-0.1,0.2-0.2l0-2.7
			c0-0.2,0-2.4,1.5,0.1l1.5,2.1c0.3,0.5,0.8,0.7,1.4,0.7h8.6c0.4,0,0.8-0.4,0.6-0.9c-0.2-0.6-1.5-1.2-2.7-1.9
			c-1.4-0.8-2.3-1.6-2.6-1.8c0,0-0.1,0-0.1,0c-0.1,0.4-0.8,2.2-2.4,1c-1.4-1-2.9-2.8-4-4.1c-0.3-0.4-1.9-1.4-2.5-1.8
			C376,706,375.9,706,375.8,706.2z"/>
		<path class="st14" d="M359.2,633.9c0,0,0,14.1-1.7,19.9s0,14.9,0,17.4c0,2.5,0.8,36.4,0.8,36.4l7.4,7.4c0,0,7.2,1.2,3.3-2.5
			c-3.9-3.6-5.8-3.3-5.8-9.1s4.1-34.8,5-38.9c0.8-4.1,1.7-30.6,1.7-30.6H359.2z"/>
		<polygon class="st14" points="368.5,522.5 377.5,521.4 377.5,534.2 369.7,534.2 		"/>
		<path class="st17" d="M359.3,589.5h29.4c0,0,7.4,29.5,0.5,51.5h-34l1.2-15.1c0.1-5.8-1.4-8.7-2.9-16.2c-0.3-1.6-0.4-3.2-0.3-4.7
			C353.6,601.2,355.9,593.6,359.3,589.5z"/>
		<path class="st16" d="M358.3,706.4c-0.2,0.8-0.9,3.6-0.4,9c0,0.1,0.1,0.2,0.2,0.2l0.9,0c0.1,0,0.2-0.1,0.2-0.2l0-2.7
			c0-0.2,0-2.4,1.5,0.1l1.5,2.1c0.3,0.5,0.8,0.7,1.4,0.7h8.6c0.4,0,0.8-0.4,0.6-0.9c-0.2-0.6-1.5-1.2-2.7-1.9
			c-1.4-0.8-2.3-1.6-2.6-1.8c0,0-0.1,0-0.1,0c-0.1,0.4-0.8,2.2-2.4,1c-1.4-1-2.9-2.8-4-4.1c-0.3-0.4-1.9-1.4-2.5-1.8
			C358.5,706.2,358.3,706.3,358.3,706.4z"/>
		<g>
			<path class="st18" d="M365.2,531.1c0,0-11.9,0.9-13,7c-1.8,10.1-0.8,30.6,1.1,34.1c1.9,3.5,6,3.9,6,3.9l-3.9,16.8l37,0.7
				c0,0-0.6-4.6-1.8-14.7s2.3-26.4,2.3-26.4s8.1,6.3,11,6.3s14.5-15.2,14.5-15.2l-3.9-3.2c0,0-8.9,8.5-10.9,9.6
				c-2.1,1.1-10.5-14.4-12.4-16.3c-1.9-1.9-10.9-2.5-10.9-2.5H365.2z"/>
			<path class="st19" d="M359.8,549.1c0,0-0.8,12.8,3.9,15.6c2.9,1.7,17.3,3.5,17.3,3.5l-0.3,0.9l-14.9-2.4c-2.4-0.4-4.4-2-5.3-4.2
				c-0.5-1.1-1-2.4-1.2-3.9C358.7,553.8,359.8,549.1,359.8,549.1z"/>
			<path class="st14" d="M413.8,542.2l1.9-2.5c0,0,0.4-3.1,2.8-5.2c2.4-2.1,2.8-1.6,3-1.8c0.1-0.1,2.1-2.2,2.5-2.4s0.9-1.5,1.4-1.9
				c0.4-0.2,0.8,0.3,0.7,0.9c0,0.1,1.9-2.9,2.1-3.1c1-0.9,1.4-0.2,1.4,0.5c0,0.7-4,6.7-4.1,7.2s-0.1,1.6-2.6,2.9
				c-2.5,1.3-5.7,6.7-5.7,6.7L413.8,542.2z"/>
			<path class="st14" d="M380.7,569.1l-1.4,3.9l3.8,0.5c0,0,5.5,2.4,6.5,2.5c1,0.1,2.2-0.1,2.2-0.1s2.4,0.6,3.7,0.1
				c1.3-0.5,2.2-0.1,3.3-0.9c1.1-0.8-2.8-1.4-3.7-1.1c-0.9,0.3,1.1-1.3-0.9-1.2c-2,0.1-4.3-1.3-4.6-1.5c-0.3-0.2-2.4-1.9-5.8-1.7
				C382.3,569.6,380.7,569.1,380.7,569.1z"/>
		</g>
		<polygon class="st19" points="359.3,576 378.9,574.1 378.5,575.5 		"/>
		<polygon class="st19" points="392.7,554 390.6,546.5 394.5,553.4 393,552.3 		"/>
	</g>
</g>
</svg>
