<?xml version="1.0" encoding="utf-8"?>
<!-- Generator: Adobe Illustrator 22.0.0, SVG Export Plug-In . SVG Version: 6.00 Build 0)  -->
<svg version="1.1" id="图层_1" xmlns="http://www.w3.org/2000/svg" xmlns:xlink="http://www.w3.org/1999/xlink" x="0px" y="0px"
	 viewBox="0 0 1024 1024" style="enable-background:new 0 0 1024 1024;" xml:space="preserve">
<style type="text/css">
	.st0{fill:#CCDAFE;}
	.st1{fill:#A8BEEF;}
	.st2{fill:url(#SVGID_1_);}
	.st3{fill:url(#SVGID_2_);}
	.st4{fill:#3B6CE4;}
	.st5{fill:url(#SVGID_3_);}
	.st6{fill:#FF7F2A;}
	.st7{fill:url(#SVGID_4_);}
	.st8{fill:url(#SVGID_5_);}
	.st9{fill:url(#SVGID_6_);}
	.st10{fill:url(#SVGID_7_);}
	.st11{fill:#353535;}
	.st12{fill:#FDCACA;}
	.st13{fill:#7D1C1C;}
	.st14{fill:#274DA0;}
	.st15{fill:#DBEEFE;}
</style>
<g>
	<g>
		<g>
			<polygon class="st0" points="162.7,716.1 162.7,510.3 245.1,510.3 245.1,362.1 385.8,362.1 385.8,716.1 			"/>
			<g>
				<rect x="259.1" y="386.6" class="st1" width="28.8" height="23"/>
				<rect x="302.3" y="386.6" class="st1" width="28.8" height="23"/>
				<rect x="345.5" y="386.6" class="st1" width="28.8" height="23"/>
				<rect x="259.1" y="422.6" class="st1" width="28.8" height="23"/>
				<rect x="302.3" y="422.6" class="st1" width="28.8" height="23"/>
				<rect x="345.5" y="422.6" class="st1" width="28.8" height="23"/>
				<rect x="259.1" y="458.5" class="st1" width="28.8" height="23"/>
				<rect x="302.3" y="458.5" class="st1" width="28.8" height="23"/>
				<rect x="345.5" y="458.5" class="st1" width="28.8" height="23"/>
				<rect x="259.1" y="494.5" class="st1" width="28.8" height="23"/>
				<rect x="302.3" y="494.5" class="st1" width="28.8" height="23"/>
				<rect x="345.5" y="494.5" class="st1" width="28.8" height="23"/>
				<rect x="259.1" y="530.5" class="st1" width="28.8" height="23"/>
				<rect x="216" y="530.5" class="st1" width="28.8" height="23"/>
				<rect x="172.8" y="530.5" class="st1" width="28.8" height="23"/>
				<rect x="302.3" y="530.5" class="st1" width="28.8" height="23"/>
				<rect x="345.5" y="530.5" class="st1" width="28.8" height="23"/>
				<rect x="259.1" y="566.5" class="st1" width="28.8" height="23"/>
				<rect x="216" y="566.5" class="st1" width="28.8" height="23"/>
				<rect x="172.8" y="566.5" class="st1" width="28.8" height="23"/>
				<rect x="302.3" y="566.5" class="st1" width="28.8" height="23"/>
				<rect x="345.5" y="566.5" class="st1" width="28.8" height="23"/>
				<rect x="259.1" y="602.4" class="st1" width="28.8" height="23"/>
				<rect x="216" y="602.4" class="st1" width="28.8" height="23"/>
				<rect x="172.8" y="602.4" class="st1" width="28.8" height="23"/>
				<rect x="302.3" y="602.4" class="st1" width="28.8" height="23"/>
				<rect x="345.5" y="602.4" class="st1" width="28.8" height="23"/>
				<rect x="259.1" y="638.4" class="st1" width="28.8" height="23"/>
				<rect x="216" y="638.4" class="st1" width="28.8" height="23"/>
				<rect x="172.8" y="638.4" class="st1" width="28.8" height="23"/>
				<rect x="302.3" y="638.4" class="st1" width="28.8" height="23"/>
				<rect x="345.5" y="638.4" class="st1" width="28.8" height="23"/>
			</g>
		</g>
		<g>
			<polygon class="st0" points="634.7,713.3 634.7,583.7 698.1,583.7 698.1,434.1 794.5,434.1 794.5,504.6 850.6,504.6 850.6,713.3 
							"/>
			<g>
				<rect x="712.4" y="452.8" class="st1" width="28.8" height="23"/>
				<rect x="752.7" y="452.8" class="st1" width="28.8" height="23"/>
				<rect x="712.4" y="596.7" class="st1" width="28.8" height="23"/>
				<rect x="672.2" y="596.7" class="st1" width="28.8" height="23"/>
				<rect x="672.2" y="632.7" class="st1" width="28.8" height="23"/>
				<rect x="752.7" y="596.7" class="st1" width="28.8" height="23"/>
				<rect x="712.4" y="488.8" class="st1" width="28.8" height="23"/>
				<rect x="752.7" y="488.8" class="st1" width="28.8" height="23"/>
				<rect x="712.4" y="524.7" class="st1" width="28.8" height="23"/>
				<rect x="752.7" y="524.7" class="st1" width="28.8" height="23"/>
				<rect x="793" y="524.7" class="st1" width="28.8" height="23"/>
				<rect x="793" y="560.7" class="st1" width="28.8" height="23"/>
				<rect x="793" y="596.7" class="st1" width="28.8" height="23"/>
				<rect x="793" y="632.7" class="st1" width="28.8" height="23"/>
				<rect x="712.4" y="560.7" class="st1" width="28.8" height="23"/>
				<rect x="752.7" y="560.7" class="st1" width="28.8" height="23"/>
				<rect x="712.4" y="632.7" class="st1" width="28.8" height="23"/>
				<rect x="752.7" y="632.7" class="st1" width="28.8" height="23"/>
			</g>
		</g>
		<g>
			<g>
				<linearGradient id="SVGID_1_" gradientUnits="userSpaceOnUse" x1="503.4795" y1="621.252" x2="511.8366" y2="752.951">
					<stop  offset="0" style="stop-color:#91B3FF"/>
					<stop  offset="0.4022" style="stop-color:#6791F2"/>
					<stop  offset="0.7939" style="stop-color:#3B6CE4"/>
				</linearGradient>
				<path class="st2" d="M92.2,750.7c0,0,164.1-131,411.6-131c233.1,0,427.4,131,427.4,131s-65.5-24.7-204.4-27.3
					c-76.3-1.4-132.4,24.5-225.9,24.5c-87.8,0-149.8-12.1-243.2-15.8C171.2,728.5,92.2,750.7,92.2,750.7z"/>
				<linearGradient id="SVGID_2_" gradientUnits="userSpaceOnUse" x1="519.1845" y1="618.2672" x2="523.1675" y2="681.0345">
					<stop  offset="0" style="stop-color:#91B3FF"/>
					<stop  offset="0.2484" style="stop-color:#6795EC"/>
					<stop  offset="0.7939" style="stop-color:#004CBF"/>
				</linearGradient>
				<path class="st3" d="M428.9,623.7c-5.5,3.8-8.6,8.1-8.6,12.5c0,17.1,44.8,30.9,100,30.9s100-13.9,100-30.9
					c0-2.2-0.8-4.4-2.3-6.6c-36.5-6.2-74.8-10-114.3-10C477.9,619.7,452.9,621.2,428.9,623.7z"/>
				
					<ellipse transform="matrix(0.9596 -0.2814 0.2814 0.9596 -180.39 124.0717)" class="st4" cx="341.9" cy="690.2" rx="46.8" ry="15.8"/>
				
					<ellipse transform="matrix(0.2923 -0.9563 0.9563 0.2923 -284.8093 1037.3479)" class="st4" cx="558.5" cy="711.1" rx="12.2" ry="30.2"/>
			</g>
			<g>
				<g>
					<linearGradient id="SVGID_3_" gradientUnits="userSpaceOnUse" x1="743.6594" y1="649.0374" x2="706.7065" y2="598.7522">
						<stop  offset="0" style="stop-color:#EFBB81"/>
						<stop  offset="0.5011" style="stop-color:#F79E57"/>
						<stop  offset="1" style="stop-color:#FF7F2A"/>
					</linearGradient>
					<path class="st5" d="M749.4,627.7c4.9-5.1,7.4-11.8,6.4-18.6c-1.2-8.2-7.1-14.6-15.2-17.8c0.2-1.8,0.2-3.7-0.2-5.6
						c-1.9-9.1-10.8-15-19.8-13.1c-9,1.9-14.8,10.8-12.9,19.9c0.2,1.2,0.6,2.3,1.1,3.3c-6.9,5.4-10.9,13.4-9.7,21.6
						c0.6,3.8,2.1,7.2,4.5,10.1c-5.2,3.4-8.4,8-8.4,13c0,10.5,14,19,31.2,19s31.2-8.5,31.2-19C757.6,635.6,754.5,631.1,749.4,627.7z
						"/>
					<g>
						<g>
							<path class="st6" d="M725.8,686L725.8,686c-0.9-0.5-1.5-2.5-1.2-4.3c4.4-35.6,1.3-54.8-0.2-61.3c-0.4-1.6-0.1-3.4,0.6-4.4
								l0,0c0.9-1.3,2.1-0.7,2.6,1.4c1.8,8,5.1,28.9,0.4,66.1C727.7,685.4,726.7,686.6,725.8,686z"/>
						</g>
					</g>
				</g>
				<g>
					<linearGradient id="SVGID_4_" gradientUnits="userSpaceOnUse" x1="801.9896" y1="686.5665" x2="780.9067" y2="657.8769">
						<stop  offset="0" style="stop-color:#EFBB81"/>
						<stop  offset="0.5011" style="stop-color:#F79E57"/>
						<stop  offset="1" style="stop-color:#FF7F2A"/>
					</linearGradient>
					<path class="st7" d="M805.3,674.4c2.8-2.9,4.2-6.7,3.7-10.6c-0.7-4.7-4.1-8.3-8.7-10.2c0.1-1,0.1-2.1-0.1-3.2
						c-1.1-5.2-6.2-8.5-11.3-7.5c-5.2,1.1-8.4,6.2-7.3,11.4c0.1,0.7,0.3,1.3,0.6,1.9c-4,3.1-6.2,7.6-5.5,12.3
						c0.3,2.2,1.2,4.1,2.6,5.8c-3,1.9-4.8,4.5-4.8,7.4c0,6,8,10.8,17.8,10.8s17.8-4.9,17.8-10.8
						C809.9,678.9,808.2,676.3,805.3,674.4z"/>
					<g>
						<g>
							<path class="st6" d="M791.8,707.7L791.8,707.7c-0.5-0.3-0.8-1.4-0.7-2.5c2.5-20.3,0.8-31.2-0.1-35c-0.2-0.9-0.1-1.9,0.3-2.5
								l0,0c0.5-0.8,1.2-0.4,1.5,0.8c1,4.5,2.9,16.5,0.2,37.7C792.9,707.3,792.3,708,791.8,707.7z"/>
						</g>
					</g>
				</g>
			</g>
		</g>
	</g>
	<path class="st4" d="M716.7,553.5h-410c-5.5,0-10-4.5-10-10v-260c0-5.5,4.5-10,10-10h410c5.5,0,10,4.5,10,10v260
		C726.7,549,722.2,553.5,716.7,553.5z"/>
	<linearGradient id="SVGID_5_" gradientUnits="userSpaceOnUse" x1="420.8103" y1="411.1501" x2="420.8103" y2="544.8124">
		<stop  offset="0" style="stop-color:#91B3FF"/>
		<stop  offset="0.5066" style="stop-color:#6791F2"/>
		<stop  offset="1" style="stop-color:#3B6CE4"/>
	</linearGradient>
	<path class="st8" d="M434.3,420.5c-15.6-15.6-40.9-15.6-56.6,0l-81,81v41.9c0,5.5,4.5,10,10,10h237.8c1.7-12-2-24.7-11.3-34
		L434.3,420.5z"/>
	<linearGradient id="SVGID_6_" gradientUnits="userSpaceOnUse" x1="385.7704" y1="312.1255" x2="385.7704" y2="354.0476">
		<stop  offset="0" style="stop-color:#91B3FF"/>
		<stop  offset="0.5066" style="stop-color:#6791F2"/>
		<stop  offset="1" style="stop-color:#3B6CE4"/>
	</linearGradient>
	<circle class="st9" cx="385.8" cy="330.7" r="20"/>
	<linearGradient id="SVGID_7_" gradientUnits="userSpaceOnUse" x1="424.2962" y1="459.6771" x2="726.6923" y2="459.6771">
		<stop  offset="0" style="stop-color:#91B3FF"/>
		<stop  offset="0.5066" style="stop-color:#6791F2"/>
		<stop  offset="1" style="stop-color:#3B6CE4"/>
	</linearGradient>
	<path class="st10" d="M579.4,382.4L440.2,521.5c-9,9-14.3,20.3-15.9,32h292.4c5.5,0,10-4.5,10-10v-93.3l-67.8-67.8
		C637,360.4,601.3,360.4,579.4,382.4z"/>
	<g>
		<g>
			<path class="st11" d="M424.8,685.5c0,0,1.4,4,3.6,5.7c2.1,1.7,6.5,4.5,7.6,6.4c0.7,1.1,0.1,3.4-2.8,3.5
				c-3.8,0.1-11.9-4.7-12.5-5.4s-0.3-4.1-0.8-9L424.8,685.5z"/>
			<path class="st12" d="M401.6,605.7l19.4,86c0.1,0.6,1.2,1.6,2.2,1.8c0,0,5-0.7,4.7-1.1c-1.3-1.7-1.9-1.4-2.8-5.7
				c-1.5-6.6-2.1-31.5-2.5-36.1c-0.4-4.6-3.1-9.6-3.1-13.3c0-3.8-0.4-34.8-0.4-34.8L401.6,605.7z"/>
		</g>
		<g>
			<path class="st11" d="M380.9,685.5c0,0-1.4,4-3.6,5.7c-2.1,1.7-6.5,4.5-7.6,6.4c-0.7,1.1-0.1,3.4,2.8,3.5
				c3.8,0.1,11.9-4.7,12.5-5.4s0.3-4.1,0.8-9L380.9,685.5z"/>
			<path class="st12" d="M404.2,605.7l-19.4,86c-0.1,0.6-1.2,1.6-2.2,1.8c0,0-5-0.7-4.7-1.1c1.3-1.7,1.9-1.4,2.8-5.7
				c1.5-6.6,2.1-31.5,2.5-36.1c0.4-4.6,3.1-9.6,3.1-13.3c0-3.8,0.4-34.8,0.4-34.8L404.2,605.7z"/>
		</g>
		<path class="st13" d="M402.8,478c-3.5,0.4-8,5.1-9.2,10.9c-1.2,5.8-0.3,12.6-0.8,15.4s-3.2,9.1-0.5,14.5c2.7,5.5,7.9,7.6,12.9,7.4
			c5-0.2,13.5-1.4,15.3-10.7c1.2-6.1-1-7.3-1.3-12c-0.4-4.6,0.9-17.1-2.3-21.4c-3.2-4.4-6.7-1.6-6.7-1.6S407.1,477.5,402.8,478z"/>
		<path class="st14" d="M387.7,573.4h30c0,0,4.1,7.4,4.3,13.9c0.2,6.6,0.2,27.9,0.8,31.3s-16.4,2.2-19.4,2.3c-2.9,0.1-20.6,2-20.6-4
			c0-6-0.1-25.4,0.3-29.3C383.6,583.9,387.7,573.4,387.7,573.4z"/>
		<path class="st12" d="M396.7,490.6v13.2c0,0,1.6,7.2,9.3,7.2c7.8,0,8.7-6.5,8.7-6.5v-15.8c0,0,0.6-3.8-4.5-4.7
			C410.2,484,405.8,490.7,396.7,490.6z"/>
		<path class="st12" d="M430.6,517.6v-2.7c0,0-4.5-2.4-4.7-7.5c-0.1-2.9,1.5-2.9,1.5-2.9l-1.3-8.4c0,0-0.5-1.4,0.9-1.7
			c1-0.2,1.3,1.7,1.3,1.7l1.5,7.5c0,0,0-3.5,0.4-3.9c0.5-0.6,1.9-0.9,2.2,0.4v1.1c0,0,0.4-1.6,1.9-1.2c1.5,0.4,0.9,2.3,0.9,2.3
			s0.8-1.2,1.6-0.7c0.7,0.5,0.8,4.8,0,5.9c0,0,0.3,4-1.7,5.6l0.2,4L430.6,517.6z"/>
		<path class="st12" d="M402.6,509.1c0,0,0.1,6.6-0.7,7.8c-0.8,1.2-4.4,1.9-6.3,1.9c-1.9,0-2.1,5.5-0.5,6.6s4.5,5,10.2,4.8
			c5.8-0.2,10.9-5.2,10.9-5.2s2.6-4.8,0-6c0,0-5.3-0.1-6.7-2.2l-0.9-7.6H402.6z"/>
		<path class="st15" d="M395.4,518.8c0,0,5.2,6.8,10.3,6.8s9-6.5,9-6.5s4-0.9,6.8,0.7c2.8,1.6,8,10.1,8,10.1l0.4-13.1l5.9-1.2
			c0,0,3.3,27.1,3.3,27.8s0.5,4.2-1.7,5.4c-2.2,1.1-5.1,0.3-8.2-2.5c-3.1-2.9-8.6-15.1-9.6-14.8s-1.8,12.1-1.5,16.7
			c0.3,4.6,3.1,28.1,3.8,30.9c0,0-5.1,1.5-19.5,1.5s-18.5-0.6-18.5-0.6s7.8-24.9,7.2-32.9c-0.6-8,0-16.1-1.5-16.1
			c-1.5,0-12.6,13.3-12.6,13.3s-1.3,1.3-1.3,2c0,0.7,8.2,17.2,8.2,17.2l-5.6,4.3l-13.7-19.2c0,0-1-0.9-0.7-3.3
			c0.3-2.4,21.2-24.5,21.2-24.5S389.6,518.3,395.4,518.8z"/>
		<path class="st12" d="M383.5,563.8c0,0,0.6,1.4,1.3,1.2c0.7-0.2,0.8-1.9,2.1-1.7s4.2,1.5,4.5,2.5s-1,1.4-1.3,1.3
			c0,0,0.8,1.4,0.1,1.9s-2,0.3-2,0c0-0.3,1.4,1.2,1.2,1.8c-0.3,0.6-1,1-1.7,0.9c0,0,0.7,1-0.3,1.4c-0.9,0.4-4.8-1.5-5.2-3.8
			c0,0-2.2-1.8-2.7-2.5L383.5,563.8z"/>
	</g>
</g>
</svg>
