<?xml version="1.0" encoding="utf-8"?>
<svg version="1.1" xmlns:xlink="http://www.w3.org/1999/xlink" width="374px" height="40px" xmlns="http://www.w3.org/2000/svg">
  <defs>
    <mask fill="white" id="clip12">
      <path d="M 0 35  L 0 5  C 0 2.2000000000000455  5.877142857142826 0  13.357142857142856 0  L 265.00571428571624 0  L 360.64285714285717 0  C 368.12285714285713 0  374 2.2000000000000455  374 5  L 374 35  C 374 37.799999999999955  368.12285714285713 40  360.64285714285717 40  L 200.8914285714305 40  L 13.357142857142856 40  C 5.877142857142826 40  0 37.799999999999955  0 35  Z " fill-rule="evenodd" />
    </mask>
  </defs>
  <g transform="matrix(1 0 0 1 -125 -825 )">
    <path d="M 0 35  L 0 5  C 0 2.2000000000000455  5.877142857142826 0  13.357142857142856 0  L 265.00571428571624 0  L 360.64285714285717 0  C 368.12285714285713 0  374 2.2000000000000455  374 5  L 374 35  C 374 37.799999999999955  368.12285714285713 40  360.64285714285717 40  L 200.8914285714305 40  L 13.357142857142856 40  C 5.877142857142826 40  0 37.799999999999955  0 35  Z " fill-rule="nonzero" fill="#3285ff" stroke="none" transform="matrix(1 0 0 1 125 825 )" />
    <path d="M 0 35  L 0 5  C 0 2.2000000000000455  5.877142857142826 0  13.357142857142856 0  L 265.00571428571624 0  L 360.64285714285717 0  C 368.12285714285713 0  374 2.2000000000000455  374 5  L 374 35  C 374 37.799999999999955  368.12285714285713 40  360.64285714285717 40  L 200.8914285714305 40  L 13.357142857142856 40  C 5.877142857142826 40  0 37.799999999999955  0 35  Z " stroke-width="2" stroke="#797979" fill="none" transform="matrix(1 0 0 1 125 825 )" mask="url(#clip12)" />
  </g>
</svg>