<?xml version="1.0" encoding="utf-8"?>
<!-- Generator: Adobe Illustrator 21.0.0, SVG Export Plug-In . SVG Version: 6.00 Build 0)  -->
<svg version="1.1" id="图层_1" xmlns="http://www.w3.org/2000/svg" xmlns:xlink="http://www.w3.org/1999/xlink" x="0px" y="0px"
	 viewBox="0 0 1024 1024" style="enable-background:new 0 0 1024 1024;" xml:space="preserve">
<style type="text/css">
	.st0{display:none;}
	.st1{display:inline;}
	.st2{opacity:0.25;}
	.st3{display:inline;opacity:0.25;}
	.st4{enable-background:new    ;}
	.st5{fill:url(#SVGID_1_);}
	.st6{fill:url(#SVGID_2_);}
	.st7{fill:url(#SVGID_3_);}
	.st8{fill:url(#SVGID_4_);}
	.st9{fill:url(#SVGID_5_);}
	.st10{fill:url(#SVGID_6_);}
	.st11{fill:url(#SVGID_7_);}
	.st12{fill:url(#SVGID_8_);}
	.st13{fill:url(#SVGID_9_);}
	.st14{fill:url(#SVGID_10_);}
	.st15{fill:url(#SVGID_11_);}
	.st16{fill:url(#SVGID_12_);}
</style>
<g id="图层_1_1_" class="st0">
	<g id="bg" class="st1">
		<g id="图层_2">
			<g id="图标参考线">
				<g id="图标尺寸" class="st2">
					<path d="M1018.2,5.8v1012.5H5.8V5.8H1018.2 M1024,0H0v1024h1024V0z"/>
					<path d="M512,28.8c266.9,0,483.2,216.4,483.2,483.2S778.9,995.2,512,995.2S28.8,778.9,28.8,512S245.1,28.8,512,28.8 M512,23
						C241.9,23,23,241.9,23,512s218.9,489,489,489s489-218.9,489-489C1000.7,242,782,23.3,512,23z"/>
					<path d="M949.2,74.8v874.4H74.8V74.8H949.2 M955,69H69v886h886V69z"/>
					<path d="M995.2,28.8v966.5H28.8V28.8H995.2 M1001,23H23v978h978V23z"/>
					<path d="M995.2,189.8v644.3H28.8V189.8H995.2 M1001,184.1H23v655.8h978V184.1z"/>
				</g>
			</g>
		</g>
	</g>
	<g id="图标尺寸_1_" class="st3">
		<g>
			<path d="M1017.1,4.6v1010.2H6.9V4.6H1017.1 M1021.7,0h-6.9H4.6H0v6.9v1010.2v6.9h6.9h1010.2h6.9v-6.9V6.9V0H1021.7z"/>
		</g>
		<g>
			<path d="M512,27.6c266.3,0,482.2,215.8,482.2,482.2S778.3,991.9,512,991.9S29.8,776.1,29.8,509.7S245.7,27.6,512,27.6 M512,23
				C243.4,23,23,241.1,23,509.7s218.1,486.7,489,486.7s489-218.1,489-486.7S780.6,23,512,23L512,23z"/>
		</g>
		<g>
			<path d="M948.2,73.5V946H75.8V73.5H948.2 M952.8,68.9h-6.9H73.5h-4.6v6.9v872.5v6.9h6.9h872.5h6.9v-6.9V75.8v-6.9H952.8z"/>
		</g>
		<g>
			<path d="M994.1,27.6v964.3H29.8V27.6H994.1 M998.7,23h-6.9H27.5h-4.6v6.9v964.3v6.9h6.9h964.3h6.9v-6.9V29.9V23H998.7z"/>
		</g>
		<g>
			<path d="M994.1,188.3v642.9H29.8V188.3H994.1 M998.7,183.7h-6.9H27.5h-4.6v4.6v642.9v6.9h6.9h964.3h6.9v-6.9V188.3v-4.6H998.7z"
				/>
		</g>
	</g>
</g>
<g>
	<g class="st4">
		<linearGradient id="SVGID_1_" gradientUnits="userSpaceOnUse" x1="110.6405" y1="857.8205" x2="826.2133" y2="857.8205">
			<stop  offset="0" style="stop-color:#D7D8D5"/>
			<stop  offset="1" style="stop-color:#F6F6F9"/>
		</linearGradient>
		<path class="st5" d="M825.9,713.4c-0.1,1.8-0.2,3.6-0.4,5.4c-0.2,1.6-0.4,3.1-0.6,4.7c-0.2,1.8-0.5,3.6-0.8,5.4
			c-0.3,1.6-0.6,3.2-1,4.7c-0.4,1.7-0.8,3.5-1.3,5.2c-0.4,1.6-0.9,3.2-1.4,4.7c-0.5,1.7-1.1,3.5-1.7,5.2c-0.5,1.5-1.1,3.1-1.7,4.6
			c-0.7,1.8-1.5,3.6-2.3,5.4c-0.7,1.5-1.4,3-2.1,4.5c-0.9,1.8-1.8,3.6-2.8,5.4c-1,1.9-2.1,3.8-3.2,5.7c-0.3,0.4-0.5,0.9-0.8,1.3
			c-1.7,2.7-3.4,5.4-5.3,8.1c-0.4,0.5-0.7,1-1.1,1.5c-1.9,2.7-3.9,5.3-6,8c-0.4,0.5-0.8,1-1.2,1.5c-1.9,2.3-3.8,4.6-5.8,6.8
			c-0.6,0.6-1.1,1.2-1.7,1.9c-2.4,2.6-4.9,5.2-7.5,7.8c-0.5,0.5-1,0.9-1.4,1.4c-2,1.9-4,3.8-6.1,5.7c-1.7,1.5-3.4,3-5.1,4.5
			c-1.6,1.4-3.3,2.8-4.9,4.1c-1.8,1.5-3.7,2.9-5.6,4.4c-1.8,1.3-3.5,2.7-5.3,4c-2,1.4-4,2.8-6,4.3c-1.9,1.3-3.8,2.6-5.7,3.9
			c-2.1,1.4-4.3,2.8-6.5,4.1c-2.7,1.7-5.4,3.4-8.3,5.1c-5.3,3.1-10.9,6.1-16.5,8.9c-1.6,0.8-3.2,1.6-4.9,2.4
			c-4.4,2.2-8.8,4.2-13.3,6.2c-1.5,0.7-3,1.4-4.5,2c-5.8,2.5-11.8,5-17.8,7.3c-1.1,0.4-2.2,0.8-3.2,1.2c-5.1,1.9-10.3,3.7-15.5,5.4
			c-2.2,0.7-4.3,1.4-6.5,2.1c-2.9,0.9-5.8,1.8-8.7,2.7c-2.5,0.7-4.9,1.4-7.4,2.1c-3,0.8-5.9,1.6-8.9,2.4c-2.5,0.6-5,1.3-7.5,1.9
			c-3,0.7-6.1,1.4-9.1,2.1c-2.5,0.6-5,1.1-7.6,1.7c-3.1,0.6-6.2,1.2-9.4,1.8c-2.4,0.5-4.8,0.9-7.2,1.3c-6.7,1.2-13.4,2.3-20.2,3.2
			c-1,0.1-1.9,0.2-2.9,0.4c-5.9,0.8-11.8,1.5-17.8,2.1c-2.3,0.2-4.5,0.5-6.8,0.7c-3.8,0.4-7.7,0.7-11.5,1c-2.4,0.2-4.8,0.4-7.3,0.5
			c-4,0.2-8,0.4-12,0.6c-2.3,0.1-4.5,0.2-6.8,0.3c-3.5,0.1-7,0.2-10.5,0.2c-2.4,0-4.9,0.1-7.3,0.1c-3.7,0-7.4-0.1-11.2-0.1
			c-2.2,0-4.4,0-6.6-0.1c-3.4-0.1-6.8-0.3-10.2-0.4c-2.4-0.1-4.8-0.2-7.2-0.3c-3.7-0.2-7.3-0.5-10.9-0.7c-2.1-0.2-4.3-0.3-6.4-0.4
			c-4.4-0.4-8.8-0.8-13.1-1.3c-1.4-0.1-2.7-0.2-4.1-0.4c-5.7-0.6-11.4-1.4-17.1-2.2c-0.9-0.1-1.8-0.3-2.8-0.4
			c-4.9-0.7-9.7-1.5-14.5-2.3c-2-0.3-4-0.8-6-1.1c-3.7-0.7-7.4-1.4-11.1-2.1c-1.9-0.4-3.8-0.8-5.7-1.2c-4-0.9-8.1-1.8-12-2.7
			c-2.2-0.5-4.4-1.1-6.6-1.7c-3.6-0.9-7.3-1.9-10.9-2.9c-2-0.6-4.1-1.2-6.1-1.7c-5.7-1.7-11.3-3.4-16.9-5.3c-1-0.3-2-0.6-3-1
			c-6.4-2.2-12.7-4.5-18.9-6.9c-2.5-1-5-2-7.5-3c-2-0.8-4-1.6-5.9-2.5c-2.8-1.2-5.6-2.5-8.4-3.7c-1.8-0.8-3.6-1.6-5.4-2.5
			c-3-1.4-6-2.9-8.9-4.4c-1.5-0.7-3-1.5-4.4-2.2c-4.4-2.3-8.7-4.6-12.9-7.1c-70.5-40.7-105.7-94.1-105.6-147.5l-0.3,97.3
			c-0.2,53.4,35.1,106.8,105.6,147.5c4.2,2.4,8.5,4.8,12.9,7.1c1.4,0.8,2.9,1.5,4.4,2.2c3,1.5,5.9,3,8.9,4.4
			c1.8,0.8,3.6,1.6,5.4,2.5c2.8,1.3,5.5,2.5,8.4,3.7c2,0.8,3.9,1.6,5.9,2.5c1.9,0.8,3.8,1.6,5.7,2.4c0.6,0.2,1.2,0.4,1.8,0.7
			c6.2,2.4,12.5,4.7,18.9,6.9c1,0.3,2,0.6,3,1c5.6,1.8,11.2,3.6,16.9,5.3c0.9,0.3,1.9,0.6,2.8,0.9c1.1,0.3,2.2,0.6,3.3,0.9
			c3.6,1,7.2,2,10.9,2.9c2.2,0.6,4.4,1.1,6.6,1.7c4,1,8,1.9,12.1,2.7c1.5,0.3,3,0.7,4.5,1c0.4,0.1,0.8,0.1,1.2,0.2
			c3.7,0.8,7.4,1.4,11.1,2.1c2,0.4,4,0.8,6,1.1c4.9,0.8,9.8,1.6,14.7,2.3c0.8,0.1,1.7,0.3,2.5,0.4c0,0,0.1,0,0.1,0
			c5.7,0.8,11.4,1.5,17.1,2.2c1.2,0.1,2.5,0.2,3.7,0.4c4.5,0.5,9,0.9,13.5,1.3c0.1,0,0.2,0,0.3,0c2,0.2,3.9,0.3,5.9,0.4
			c3.7,0.3,7.4,0.6,11.1,0.8c2.4,0.1,4.7,0.2,7.1,0.3c3.4,0.1,6.8,0.3,10.3,0.4c0.3,0,0.6,0,0.8,0c1.9,0,3.8,0,5.7,0.1
			c3.7,0.1,7.5,0.1,11.2,0.1c2.4,0,4.9-0.1,7.3-0.1c3.5,0,7-0.1,10.4-0.2c0.6,0,1.3,0,1.9,0c1.6-0.1,3.2-0.2,4.9-0.2
			c4-0.2,8-0.4,12-0.6c2.4-0.1,4.8-0.3,7.3-0.5c3.8-0.3,7.7-0.6,11.5-1c1.3-0.1,2.7-0.2,4-0.3c0.9-0.1,1.9-0.2,2.8-0.3
			c6-0.6,11.9-1.3,17.8-2.1c1-0.1,1.9-0.2,2.9-0.4c6.8-1,13.5-2,20.2-3.2c0.6-0.1,1.3-0.2,1.9-0.3c1.8-0.3,3.5-0.7,5.3-1
			c3.1-0.6,6.2-1.2,9.3-1.8c2.5-0.5,5.1-1.1,7.6-1.7c3-0.7,6.1-1.4,9.1-2.1c2.5-0.6,5-1.3,7.5-1.9c3-0.8,5.9-1.6,8.9-2.4
			c2.5-0.7,5-1.4,7.4-2.1c2.9-0.9,5.8-1.7,8.7-2.6c1.3-0.4,2.6-0.8,3.8-1.2c0.9-0.3,1.8-0.6,2.7-0.9c5.2-1.7,10.4-3.5,15.5-5.4
			c1.1-0.4,2.2-0.8,3.2-1.2c6-2.3,12-4.7,17.8-7.3c1.5-0.7,3-1.4,4.5-2c4.5-2,8.9-4.1,13.3-6.2c1.6-0.8,3.3-1.6,4.9-2.4
			c5.6-2.9,11.1-5.8,16.5-8.9c1.5-0.9,2.9-1.7,4.4-2.6c1.3-0.8,2.6-1.7,3.9-2.5c2.2-1.4,4.4-2.7,6.5-4.1c1.9-1.3,3.8-2.6,5.7-3.9
			c2-1.4,4.1-2.8,6-4.3c1.8-1.3,3.6-2.7,5.3-4c1.9-1.5,3.8-2.9,5.6-4.4c1.7-1.4,3.3-2.7,4.9-4.1c1.8-1.5,3.5-3,5.2-4.5
			c0.7-0.6,1.4-1.2,2.1-1.9c1.4-1.3,2.7-2.6,4-3.8c0.5-0.5,1-0.9,1.4-1.4c2.6-2.6,5.1-5.2,7.5-7.8c0.6-0.6,1.1-1.2,1.7-1.9
			c2-2.3,4-4.5,5.8-6.8c0.4-0.5,0.8-1,1.2-1.5c0.2-0.2,0.4-0.5,0.6-0.7c1.9-2.4,3.7-4.9,5.4-7.3c0.4-0.5,0.7-1,1.1-1.5
			c1.9-2.7,3.6-5.4,5.3-8.1c0.3-0.4,0.5-0.9,0.8-1.3c0.6-1,1.2-2.1,1.8-3.1c0.5-0.9,0.9-1.7,1.3-2.6c1-1.8,1.9-3.6,2.8-5.4
			c0.7-1.5,1.4-3,2.1-4.5c0.8-1.8,1.6-3.6,2.3-5.4c0.3-0.8,0.7-1.6,1-2.4c0.3-0.7,0.5-1.5,0.7-2.2c0.6-1.7,1.2-3.4,1.7-5.2
			c0.5-1.6,1-3.1,1.4-4.7c0.5-1.7,0.9-3.5,1.3-5.2c0.2-0.9,0.5-1.9,0.7-2.8c0.1-0.6,0.2-1.3,0.3-1.9c0.3-1.8,0.6-3.6,0.8-5.4
			c0.2-1.6,0.4-3.1,0.6-4.7c0.2-1.8,0.3-3.6,0.4-5.4c0.1-1.1,0.2-2.1,0.2-3.2c0-1,0-2.1,0-3.1l0.3-97.3
			C826.2,709.2,826.1,711.3,825.9,713.4z"/>
		<g>
			<linearGradient id="SVGID_2_" gradientUnits="userSpaceOnUse" x1="110.9164" y1="706.0803" x2="826.2139" y2="706.0803">
				<stop  offset="0" style="stop-color:#F6F6F9"/>
				<stop  offset="1" style="stop-color:#D7D8D5"/>
			</linearGradient>
			<path class="st6" d="M720.6,559.6c140.1,80.9,140.9,212.1,1.6,293s-365.7,80.9-505.8,0c-140.1-80.9-140.8-212.1-1.6-293
				S580.5,478.7,720.6,559.6z"/>
		</g>
	</g>
</g>
<g>
	<g class="st4">
		<linearGradient id="SVGID_3_" gradientUnits="userSpaceOnUse" x1="190.9404" y1="752.0212" x2="745.8983" y2="752.0212">
			<stop  offset="0" style="stop-color:#D7D8D5"/>
			<stop  offset="1" style="stop-color:#F6F6F9"/>
		</linearGradient>
		<path class="st7" d="M745.7,649.3c-0.1,1.4-0.2,2.8-0.3,4.2c-0.1,1.2-0.3,2.4-0.5,3.7c-0.2,1.4-0.4,2.8-0.7,4.1
			c-0.2,1.2-0.5,2.4-0.8,3.7c-0.3,1.4-0.6,2.7-1,4c-0.3,1.2-0.7,2.4-1.1,3.7c-0.4,1.3-0.9,2.7-1.3,4c-0.4,1.2-0.9,2.4-1.4,3.6
			c-0.6,1.4-1.1,2.8-1.8,4.2c-0.5,1.2-1.1,2.3-1.6,3.5c-0.7,1.4-1.4,2.8-2.1,4.2c-0.6,1.1-1.2,2.2-1.9,3.4c-1,1.6-2,3.3-3,4.9
			c-0.6,1-1.3,2-1.9,3c-1.2,1.8-2.6,3.6-3.9,5.4c-0.6,0.8-1.2,1.7-1.9,2.5c-0.3,0.4-0.6,0.8-0.9,1.2c-1.4,1.8-3,3.5-4.5,5.3
			c-0.4,0.5-0.8,1-1.3,1.4c-1.9,2-3.8,4-5.8,6c-0.4,0.4-0.7,0.7-1.1,1.1c-1.5,1.5-3.1,3-4.8,4.4c-1.3,1.2-2.6,2.3-4,3.5
			c-1.3,1.1-2.5,2.1-3.8,3.2c-1.4,1.1-2.9,2.3-4.3,3.4c-1.4,1-2.7,2.1-4.1,3.1c-1.5,1.1-3.1,2.2-4.7,3.3c-1.5,1-2.9,2-4.4,3
			c-1.6,1.1-3.3,2.1-5,3.2c-2.1,1.3-4.2,2.6-6.4,3.9c-4.1,2.4-8.4,4.7-12.8,6.9c-1.2,0.6-2.5,1.3-3.8,1.9c-3.4,1.7-6.8,3.3-10.3,4.8
			c-1.2,0.5-2.3,1.1-3.5,1.6c-4.5,2-9.1,3.9-13.8,5.6c-0.8,0.3-1.7,0.6-2.5,0.9c-4,1.5-8,2.9-12,4.2c-1.7,0.6-3.3,1.1-5,1.6
			c-2.2,0.7-4.5,1.4-6.8,2.1c-1.9,0.6-3.8,1.1-5.8,1.7c-2.3,0.6-4.6,1.2-6.9,1.8c-1.9,0.5-3.9,1-5.8,1.5c-2.3,0.6-4.7,1.1-7.1,1.6
			c-2,0.4-3.9,0.9-5.9,1.3c-2.4,0.5-4.8,1-7.2,1.4c-1.9,0.4-3.7,0.7-5.6,1c-5.2,0.9-10.4,1.8-15.7,2.5c-0.8,0.1-1.5,0.2-2.3,0.3
			c-4.6,0.6-9.2,1.2-13.8,1.6c-1.8,0.2-3.5,0.4-5.3,0.5c-3,0.3-5.9,0.5-8.9,0.7c-1.9,0.1-3.7,0.3-5.6,0.4c-3.1,0.2-6.2,0.3-9.3,0.5
			c-1.8,0.1-3.5,0.2-5.3,0.2c-2.7,0.1-5.4,0.1-8.1,0.2c-1.9,0-3.8,0.1-5.7,0.1c-2.9,0-5.7,0-8.6-0.1c-1.7,0-3.4,0-5.2-0.1
			c-2.7-0.1-5.3-0.2-7.9-0.3c-1.8-0.1-3.7-0.1-5.5-0.2c-2.9-0.2-5.7-0.4-8.6-0.6c-1.6-0.1-3.2-0.2-4.8-0.3c-3.4-0.3-6.9-0.6-10.3-1
			c-1-0.1-2.1-0.2-3.1-0.3c-4.4-0.5-8.9-1.1-13.2-1.7c-0.8-0.1-1.5-0.2-2.2-0.3c-3.7-0.5-7.5-1.1-11.2-1.8c-1.6-0.3-3.1-0.6-4.7-0.9
			c-2.9-0.5-5.7-1-8.5-1.6c-1.5-0.3-3-0.7-4.5-1c-3.1-0.7-6.2-1.4-9.3-2.1c-1.7-0.4-3.4-0.9-5.1-1.3c-2.8-0.7-5.6-1.5-8.4-2.2
			c-1.6-0.4-3.2-0.9-4.7-1.4c-4.4-1.3-8.8-2.6-13.1-4.1c-0.8-0.3-1.6-0.5-2.3-0.7c-5-1.7-9.8-3.5-14.7-5.4c-2-0.8-3.9-1.6-5.8-2.4
			c-1.5-0.6-3.1-1.3-4.6-1.9c-2.2-0.9-4.3-1.9-6.5-2.9c-1.4-0.6-2.8-1.3-4.2-1.9c-2.3-1.1-4.6-2.3-6.9-3.4c-1.1-0.6-2.3-1.1-3.4-1.7
			c-3.4-1.8-6.7-3.6-10-5.5c-54.7-31.6-82-73-81.9-114.4l-0.2,56.9c-0.1,41.4,27.2,82.8,81.9,114.4c3.3,1.9,6.6,3.7,10,5.5
			c1.1,0.6,2.3,1.1,3.4,1.7c2.3,1.2,4.6,2.3,6.9,3.4c1.4,0.7,2.8,1.3,4.2,1.9c2.1,1,4.3,2,6.5,2.9c1.5,0.7,3.1,1.3,4.6,1.9
			c1.5,0.6,2.9,1.2,4.4,1.8c0.5,0.2,1,0.3,1.4,0.5c4.8,1.9,9.7,3.7,14.7,5.4c0.8,0.3,1.5,0.5,2.3,0.7c4.3,1.4,8.7,2.8,13.1,4.1
			c0.7,0.2,1.4,0.5,2.2,0.7c0.8,0.2,1.7,0.4,2.6,0.7c2.8,0.8,5.6,1.5,8.4,2.2c1.7,0.4,3.4,0.9,5.1,1.3c3.1,0.7,6.2,1.4,9.3,2.1
			c1.2,0.3,2.3,0.5,3.5,0.8c0.3,0.1,0.6,0.1,1,0.2c2.8,0.6,5.7,1.1,8.5,1.6c1.6,0.3,3.1,0.6,4.7,0.9c3.7,0.6,7.4,1.2,11.2,1.8
			c0.7,0.1,1.4,0.2,2.1,0.3c0,0,0.1,0,0.1,0c4.4,0.6,8.8,1.2,13.3,1.7c0.9,0.1,1.8,0.2,2.8,0.3c3.5,0.4,7,0.7,10.6,1
			c0.1,0,0.2,0,0.3,0c1.5,0.1,3.1,0.2,4.6,0.3c2.9,0.2,5.7,0.4,8.6,0.6c1.8,0.1,3.7,0.1,5.5,0.2c2.7,0.1,5.3,0.2,8,0.3
			c0.2,0,0.4,0,0.6,0c1.5,0,3,0,4.4,0c2.9,0,5.8,0.1,8.7,0.1c1.9,0,3.8-0.1,5.7-0.1c2.7,0,5.4-0.1,8.1-0.2c0.5,0,1,0,1.5,0
			c1.3,0,2.5-0.1,3.8-0.2c3.1-0.1,6.2-0.3,9.3-0.5c1.9-0.1,3.8-0.3,5.6-0.4c3-0.2,6-0.5,8.9-0.7c1-0.1,2.1-0.2,3.1-0.3
			c0.7-0.1,1.4-0.2,2.2-0.3c4.6-0.5,9.2-1,13.8-1.6c0.7-0.1,1.5-0.2,2.3-0.3c5.3-0.7,10.5-1.6,15.7-2.5c0.5-0.1,1-0.1,1.5-0.2
			c1.4-0.2,2.8-0.6,4.1-0.8c2.4-0.5,4.8-0.9,7.2-1.4c2-0.4,3.9-0.8,5.9-1.3c2.4-0.5,4.7-1.1,7.1-1.6c2-0.5,3.9-1,5.8-1.5
			c2.3-0.6,4.6-1.2,6.9-1.8c1.9-0.5,3.8-1.1,5.8-1.7c2.3-0.7,4.5-1.4,6.8-2.1c1-0.3,2-0.6,2.9-0.9c0.7-0.2,1.4-0.5,2.1-0.7
			c4.1-1.3,8.1-2.8,12-4.2c0.8-0.3,1.7-0.6,2.5-0.9c4.7-1.8,9.3-3.7,13.8-5.6c1.2-0.5,2.3-1.1,3.5-1.6c3.5-1.6,6.9-3.2,10.3-4.8
			c1.3-0.6,2.5-1.2,3.8-1.9c4.3-2.2,8.6-4.5,12.8-6.9c1.1-0.7,2.3-1.3,3.4-2c1-0.6,2-1.3,3-1.9c1.7-1.1,3.4-2.1,5-3.2
			c1.5-1,3-2,4.4-3c1.6-1.1,3.2-2.2,4.7-3.3c1.4-1,2.8-2.1,4.1-3.1c1.5-1.1,2.9-2.3,4.3-3.4c1.3-1.1,2.6-2.1,3.8-3.2
			c1.4-1.2,2.7-2.3,4-3.5c0.5-0.5,1.1-1,1.6-1.4c1.1-1,2.1-2,3.1-3c0.4-0.4,0.7-0.7,1.1-1.1c2-2,3.9-4,5.8-6c0.4-0.5,0.9-1,1.3-1.4
			c1.6-1.8,3.1-3.5,4.5-5.3c0.3-0.4,0.6-0.8,1-1.2c0.1-0.2,0.3-0.4,0.4-0.5c0.5-0.7,0.9-1.3,1.4-2c1.4-1.8,2.7-3.6,3.9-5.4
			c0.7-1,1.3-2,1.9-3c1.1-1.6,2.1-3.3,3-4.9c0.3-0.5,0.6-0.9,0.8-1.3c0.4-0.7,0.7-1.3,1-2c0.7-1.4,1.5-2.8,2.2-4.2
			c0.6-1.2,1.1-2.3,1.6-3.5c0.6-1.4,1.2-2.8,1.8-4.2c0.2-0.6,0.6-1.2,0.8-1.9c0.2-0.6,0.4-1.1,0.6-1.7c0.5-1.3,0.9-2.7,1.3-4
			c0.4-1.2,0.7-2.4,1.1-3.7c0.4-1.3,0.7-2.7,1-4c0.2-0.7,0.4-1.5,0.5-2.2c0.1-0.5,0.1-1,0.2-1.5c0.3-1.4,0.5-2.8,0.7-4.1
			c0.2-1.2,0.3-2.4,0.5-3.7c0.1-1.4,0.2-2.8,0.3-4.2c0-0.8,0.2-1.6,0.2-2.5c0-0.8,0-1.6,0-2.4l0.2-56.9
			C745.9,646.1,745.8,647.7,745.7,649.3z"/>
		<g>
			<linearGradient id="SVGID_4_" gradientUnits="userSpaceOnUse" x1="191.1016" y1="643.6427" x2="745.8987" y2="643.6427">
				<stop  offset="0" style="stop-color:#F6F6F9"/>
				<stop  offset="1" style="stop-color:#D7D8D5"/>
			</linearGradient>
			<path class="st8" d="M664,530c108.7,62.8,109.3,164.5,1.3,227.2c-108,62.7-283.6,62.8-392.3,0c-108.7-62.7-109.2-164.5-1.3-227.2
				C379.7,467.3,555.3,467.3,664,530z"/>
		</g>
	</g>
</g>
<linearGradient id="SVGID_5_" gradientUnits="userSpaceOnUse" x1="757.7492" y1="477.2109" x2="1003.1599" y2="477.2109">
	<stop  offset="0" style="stop-color:#FFA21E"/>
	<stop  offset="1" style="stop-color:#FFCB27"/>
</linearGradient>
<path class="st9" d="M757.7,587.9c0,0,36.8-197.4,205.1-221.4c0,0,37.4-0.7,40.3,34.5c0,0-1.5,31.4-52.5,37.1
	C950.7,438.2,815.2,453.3,757.7,587.9z"/>
<linearGradient id="SVGID_6_" gradientUnits="userSpaceOnUse" x1="32.6946" y1="384.6188" x2="278.1052" y2="384.6188">
	<stop  offset="0" style="stop-color:#FFA21E"/>
	<stop  offset="1" style="stop-color:#FFCB27"/>
</linearGradient>
<path class="st10" d="M278.1,495.3c0,0-36.8-197.4-205.1-221.4c0,0-37.4-0.7-40.3,34.5c0,0,1.5,31.4,52.5,37.1
	C85.2,345.6,220.7,360.7,278.1,495.3z"/>
<linearGradient id="SVGID_7_" gradientUnits="userSpaceOnUse" x1="243.7647" y1="145.7683" x2="335.4695" y2="145.7683" gradientTransform="matrix(0.9993 -3.781059e-02 3.781059e-02 0.9993 -35.8774 6.6859)">
	<stop  offset="0" style="stop-color:#D5CBCA"/>
	<stop  offset="1" style="stop-color:#F8F4F1"/>
</linearGradient>
<path class="st11" d="M260.6,59.8c16,16.2,55.1,67.4,44.5,175.1c0,0,2.6-96-70.3-133.5c-9.8-4.5-14.7-9.2-14.7-9.2
	c-7-7.5-16.5-22.4-1.9-39.3c0,0,9-11.3,30.1-1.9C248.3,50.9,255.4,54.6,260.6,59.8z"/>
<linearGradient id="SVGID_8_" gradientUnits="userSpaceOnUse" x1="442.1831" y1="19.5498" x2="533.8879" y2="19.5498" gradientTransform="matrix(0.9073 0.4204 -0.4204 0.9073 435.9609 -22.5567)">
	<stop  offset="0" style="stop-color:#D5CBCA"/>
	<stop  offset="1" style="stop-color:#F8F4F1"/>
</linearGradient>
<path class="st12" d="M900.6,124.4c-21,8.7-76.8,41-108.6,144.4c0,0,34.7-89.6,116.4-96c10.8-0.3,17.1-2.9,17.1-2.9
	c9.3-4.2,23.8-14.3,16.9-35.5c0,0-3.9-13.9-27-13.4C915.4,121,907.4,121.7,900.6,124.4z"/>
<g>
	<g>
		<g>
			<linearGradient id="SVGID_9_" gradientUnits="userSpaceOnUse" x1="355.5772" y1="492.8703" x2="436.4793" y2="492.8703">
				<stop  offset="0" style="stop-color:#ED5838"/>
				<stop  offset="1" style="stop-color:#FE7A45"/>
			</linearGradient>
			<polygon class="st13" points="436.5,749.9 356.9,703.7 355.6,235.8 435.2,282.1 			"/>
		</g>
		<linearGradient id="SVGID_10_" gradientUnits="userSpaceOnUse" x1="355.5774" y1="150.2579" x2="812.4523" y2="150.2579">
			<stop  offset="0" style="stop-color:#ED5838"/>
			<stop  offset="1" style="stop-color:#FE7A45"/>
		</linearGradient>
		<polygon class="st14" points="812.5,64.7 732.9,18.5 441.4,186.7 441,186.5 355.6,235.8 435.2,282.1 480.3,256 480.7,256.3 		"/>
		<linearGradient id="SVGID_11_" gradientUnits="userSpaceOnUse" x1="435.153" y1="407.3124" x2="824.7479" y2="407.3124">
			<stop  offset="0" style="stop-color:#ED5838"/>
			<stop  offset="1" style="stop-color:#FE7A45"/>
		</linearGradient>
		<polygon class="st15" points="824.7,355.7 726.7,254 812.5,64.7 520.6,233.2 520.6,232.7 435.2,282.1 436.5,749.9 521.9,700.6 
			521.4,530.8 		"/>
		<g>
			<g>
				<g class="st4">
					<g>
						<linearGradient id="SVGID_12_" gradientUnits="userSpaceOnUse" x1="517.6515" y1="321.945" x2="740.8194" y2="321.945">
							<stop  offset="0" style="stop-color:#FFA21E"/>
							<stop  offset="1" style="stop-color:#FFCB27"/>
						</linearGradient>
						<polygon class="st16" points="677.2,286.1 740.8,352 518.2,480.6 517.7,287.6 732.8,163.3 						"/>
					</g>
				</g>
			</g>
		</g>
	</g>
</g>
</svg>
