<?xml version="1.0" encoding="utf-8"?>
<!-- Generator: Adobe Illustrator 22.1.0, SVG Export Plug-In . SVG Version: 6.00 Build 0)  -->
<svg version="1.1" id="图层_1" xmlns="http://www.w3.org/2000/svg" xmlns:xlink="http://www.w3.org/1999/xlink" x="0px" y="0px"
	 viewBox="0 0 65 65" style="enable-background:new 0 0 65 65;" xml:space="preserve">
<style type="text/css">
	.st0{fill:#FFFFFF;}
	.st1{fill:#94C1FF;}
	.st2{fill:#5C9EFF;}
	.st3{fill:#D7E9FF;}
	.st4{opacity:0.2;}
	.st5{fill:#5D9CEC;}
	.st6{fill:#116FFF;}
</style>
<g id="_x34__hairstyle_x2C__style_x2C__suit_x2C__man_x2C__people_x2C__businessman_x2C__male">
	<polygon class="st0" points="32.6,44 21.1,37 21.1,40 23.8,48.6 32.6,45 41.4,48.6 44.1,40 44.1,37 	"/>
	<path class="st1" d="M48.4,9.9c2.6,5.7,1.7,12,1.7,12s-0.4-5.7-4-8L48.4,9.9z"/>
	<path class="st1" d="M48.4,9.9l-2.3,4c-9-5.7-16.4,9.7-30.4,5.6c-0.6-0.2-1.1-0.4-1.7-0.6c0,0,1.1-18,18.6-18
		C41.8,0.9,46.3,5.2,48.4,9.9z"/>
	<g>
		<path class="st2" d="M48.4,9.9c-2.1-4.7-6.6-9-15.8-9c-0.3,0-0.6,0-1,0c8.6,0.3,12.8,4.4,14.8,9c0.9,2,1.4,4,1.6,5.9
			c1.8,2.6,2.1,6.1,2.1,6.1S51,15.6,48.4,9.9z"/>
	</g>
	<g>
		<path class="st3" d="M16,19.6c0,0,1.1-18,17.7-18.6c-0.3,0-0.7,0-1,0c-17.5,0-18.6,18-18.6,18C14.6,19.2,16,19.6,16,19.6z"/>
	</g>
	<path class="st4" d="M32.6,44.9c3.4,0,7.9-2.8,11.5-7V37l-11.5,7l-11.5-7v0.9C24.6,42.2,29.2,44.9,32.6,44.9z"/>
	<path class="st3" d="M50.1,21.9l-0.1,2c-1.1,10.6-11.1,20-17.4,20c-6.7,0-17.5-10.5-17.5-22v-2.6c14.7,4.6,22-11.1,31-5.4
		C49.7,16.2,50.1,21.9,50.1,21.9z"/>
	<g>
		<path class="st1" d="M46.1,13.9c-1.8-1.1-3.5-1.4-5.2-1.2c1.1,0.1,2.1,0.5,3.2,1.2c3.6,2.3,4,8,4,8l-0.1,2
			C46.9,34.1,37.8,43,31.5,43.9c0.4,0.1,0.7,0.1,1,0.1c6.3,0,16.3-9.4,17.4-20l0.1-2C50.1,21.9,49.7,16.2,46.1,13.9z"/>
	</g>
	<g>
		<path class="st0" d="M17.1,21.9v-2.1c-0.7-0.1-1.3-0.3-2-0.5v2.6c0,11.5,10.8,22,17.5,22c0.3,0,0.6,0,1-0.1
			C26.8,42.9,17.1,32.8,17.1,21.9z"/>
	</g>
	<path class="st1" d="M63.1,53.9c0,4,0,10,0,10H38.6l1.4-2l5.1-7l-1-3l5-7l-2.1-2.1c2.3,1,8.7,3.6,10.1,4.1
		C61.1,48.4,63.1,49.9,63.1,53.9z"/>
	<polygon class="st5" points="38.6,63.9 36.4,63.9 41.4,48.4 44.1,39.9 49.1,44.9 44.1,51.9 45.1,54.9 	"/>
	<polygon class="st3" points="38.6,63.9 36.4,63.9 41.4,48.4 44.1,39.9 49.1,44.9 44.1,51.9 45.1,54.9 	"/>
	<path class="st1" d="M2.1,53.9c0,4,0,10,0,10h24.5l-1.4-2l-5.1-7l1-3l-5-7l2.1-2.1c-2.3,1-8.7,3.6-10.1,4.1
		C4.1,48.4,2.1,49.9,2.1,53.9z"/>
	<polygon class="st5" points="26.6,63.9 28.7,63.9 23.7,48.4 21.1,39.9 16.1,44.9 21.1,51.9 20.1,54.9 	"/>
	<polygon class="st3" points="26.6,63.9 28.7,63.9 23.7,48.4 21.1,39.9 16.1,44.9 21.1,51.9 20.1,54.9 	"/>
	<path class="st2" d="M20.1,54.9l1-3l-5-7l2.1-2.1c-0.4,0.2-1,0.5-1.7,0.7l-1.4,1.4l5,7l-1,3l6.5,9h1l-1.4-2L20.1,54.9z"/>
	<path class="st3" d="M15.1,44.9l1.4-1.4c-2.8,1.2-7.2,3-8.4,3.4c-4,1.5-6,3-6,7s0,10,0,10h2c0-2.1,0-5.5,0-8c0-4,2-5.5,6-7
		c0.9-0.3,3.6-1.4,6.1-2.5L15.1,44.9z"/>
	<path class="st2" d="M45.1,54.9l-1-3l5-7l-2.1-2.1c0.4,0.2,1,0.5,1.7,0.7l1.4,1.4l-5,7l1,3l-6.5,9h-1l1.4-2L45.1,54.9z"/>
	<path class="st2" d="M50.1,44.9l-1.4-1.4c2.8,1.2,7.2,3,8.4,3.4c4,1.5,6,3,6,7s0,10,0,10h-2c0-2.1,0-5.5,0-8c0-4-2-5.5-6-7
		c-0.9-0.3-3.6-1.4-6.1-2.5L50.1,44.9z"/>
	<polygon class="st0" points="32.6,44.9 41.4,48.5 37.1,61.9 36.4,63.9 28.7,63.9 28.1,61.9 23.8,48.5 	"/>
	<polygon class="st1" points="35.1,49.9 30.1,49.9 28.4,46.6 32.6,44.9 36.7,46.6 	"/>
	<polygon class="st1" points="36.1,63.8 29.1,63.8 29.1,54.9 31.1,49.9 34.1,49.9 36.1,54.9 	"/>
	<g>
		<path class="st6" d="M63.1,64.4h-61c-0.3,0-0.5-0.2-0.5-0.5v-10c0-4.3,2.2-5.9,6.3-7.5c1.5-0.6,3.5-1.3,5.1-2l0.8-0.4
			c0.3-0.1,0.5,0,0.7,0.3c0.1,0.3,0,0.5-0.3,0.7l-0.8,0.4c-1.7,0.7-3.6,1.5-5.2,2c-3.8,1.4-5.7,2.8-5.7,6.5v9.5h60v-9.5
			c0-3.8-1.8-5.1-5.7-6.5c-1.2-0.4-3.6-1.4-6-2.4c-0.3-0.1-0.4-0.4-0.3-0.7c0.1-0.3,0.4-0.4,0.7-0.3c2.4,1.1,4.8,2,6,2.4
			c4.1,1.5,6.3,3.2,6.3,7.5v10C63.6,64.2,63.3,64.4,63.1,64.4z"/>
		<path class="st6" d="M32.6,44.4c-6.8,0-18-10.5-18-22.5c0-0.3,0.2-0.5,0.5-0.5s0.5,0.2,0.5,0.5c0,11.1,10.6,21.5,17,21.5
			c5.7,0,15.8-8.9,16.9-19.6c0-0.3,0.3-0.5,0.5-0.4c0.3,0,0.5,0.3,0.4,0.5C49.3,34.5,39.4,44.4,32.6,44.4z"/>
		<path class="st6" d="M50.1,22.4C50.1,22.4,50.1,22.4,50.1,22.4c-0.3,0-0.5-0.2-0.5-0.5c0-0.1-0.4-5.5-3.7-7.6
			c-4.1-2.6-8-0.5-12.5,2c-4.9,2.7-10.4,5.8-17.8,3.6c-0.6-0.2-1.2-0.4-1.8-0.6c-0.2-0.1-0.3-0.3-0.3-0.5c0-0.2,1.3-18.5,19.1-18.5
			c8.1,0,13.5,3.1,16.3,9.3c2.6,5.8,1.7,12,1.7,12.3C50.5,22.3,50.3,22.4,50.1,22.4z M14.5,18.6c0.4,0.2,0.9,0.3,1.3,0.5
			c6.9,2,12.3-0.9,17-3.6c4.6-2.5,8.9-4.9,13.5-2c1.7,1.1,2.7,2.9,3.3,4.5c-0.1-2.2-0.5-5.1-1.7-7.9v0c-2.6-5.8-7.8-8.7-15.4-8.7
			C17.1,1.4,14.8,16.1,14.5,18.6z"/>
		<path class="st6" d="M46.1,14.4c-0.1,0-0.2,0-0.3-0.1c-0.2-0.1-0.3-0.4-0.2-0.7l2.3-4c0.1-0.2,0.4-0.3,0.7-0.2
			c0.2,0.1,0.3,0.4,0.2,0.7l-2.3,4C46.4,14.4,46.3,14.4,46.1,14.4z"/>
		<path class="st6" d="M35.1,50.4h-5c-0.2,0-0.4-0.1-0.4-0.3l-1-2c-0.1-0.2,0-0.5,0.2-0.7c0.2-0.1,0.5,0,0.7,0.2l0.9,1.7h4.4
			l0.9-1.7c0.1-0.2,0.4-0.3,0.7-0.2c0.2,0.1,0.3,0.4,0.2,0.7l-1,2C35.4,50.3,35.3,50.4,35.1,50.4z"/>
		<path class="st6" d="M29.1,55.4c-0.1,0-0.1,0-0.2,0c-0.3-0.1-0.4-0.4-0.3-0.6l2-5c0.1-0.3,0.4-0.4,0.6-0.3
			c0.3,0.1,0.4,0.4,0.3,0.6l-2,5C29.4,55.3,29.3,55.4,29.1,55.4z"/>
		<path class="st6" d="M36.1,55.4c-0.2,0-0.4-0.1-0.5-0.3l-2-5c-0.1-0.3,0-0.5,0.3-0.6c0.3-0.1,0.5,0,0.6,0.3l2,5
			c0.1,0.3,0,0.5-0.3,0.6C36.2,55.4,36.1,55.4,36.1,55.4z"/>
		<path class="st6" d="M40,62.4c-0.1,0-0.2,0-0.3-0.1c-0.2-0.2-0.3-0.5-0.1-0.7l4.9-6.8l-0.9-2.8c-0.1-0.2,0-0.3,0.1-0.4l4.8-6.7
			l-4.7-4.7c-0.2-0.2-0.2-0.5,0-0.7s0.5-0.2,0.7,0l5,5c0.2,0.2,0.2,0.4,0.1,0.6L44.6,52l0.9,2.8c0.1,0.2,0,0.3-0.1,0.5l-5.1,7
			C40.3,62.4,40.1,62.4,40,62.4z"/>
		<path class="st6" d="M37.1,62.4c0,0-0.1,0-0.2,0c-0.3-0.1-0.4-0.4-0.3-0.6l7-22c0.1-0.3,0.4-0.4,0.6-0.3c0.3,0.1,0.4,0.4,0.3,0.6
			l-7,22C37.5,62.3,37.3,62.4,37.1,62.4z"/>
		<path class="st6" d="M40.1,48.4c-0.1,0-0.1,0-0.2,0l-7.5-3c-0.3-0.1-0.4-0.4-0.3-0.6s0.4-0.4,0.6-0.3l7.5,3
			c0.3,0.1,0.4,0.4,0.3,0.6C40.4,48.3,40.3,48.4,40.1,48.4z"/>
		<path class="st6" d="M25.1,62.4c-0.2,0-0.3-0.1-0.4-0.2l-5.1-7c-0.1-0.1-0.1-0.3-0.1-0.5l0.9-2.8l-4.9-6.8
			c-0.1-0.2-0.1-0.5,0.1-0.6l5-5c0.2-0.2,0.5-0.2,0.7,0s0.2,0.5,0,0.7L16.7,45l4.8,6.7c0.1,0.1,0.1,0.3,0.1,0.4l-0.9,2.8l4.9,6.8
			c0.2,0.2,0.1,0.5-0.1,0.7C25.3,62.4,25.2,62.4,25.1,62.4z"/>
		<path class="st6" d="M28.1,62.4c-0.2,0-0.4-0.1-0.5-0.3l-7-22c-0.1-0.3,0.1-0.5,0.3-0.6c0.3-0.1,0.5,0.1,0.6,0.3l7,22
			c0.1,0.3-0.1,0.5-0.3,0.6C28.2,62.4,28.1,62.4,28.1,62.4z"/>
		<path class="st6" d="M25.1,48.4c-0.2,0-0.4-0.1-0.5-0.3c-0.1-0.3,0-0.5,0.3-0.6l7.5-3c0.3-0.1,0.5,0,0.6,0.3
			c0.1,0.3,0,0.5-0.3,0.6l-7.5,3C25.2,48.4,25.1,48.4,25.1,48.4z"/>
		<path class="st6" d="M32.6,62.4c-0.3,0-0.5-0.2-0.5-0.5v-9c0-0.3,0.2-0.5,0.5-0.5s0.5,0.2,0.5,0.5v9
			C33.1,62.2,32.8,62.4,32.6,62.4z"/>
	</g>
</g>
</svg>
