<?xml version="1.0" encoding="utf-8"?>
<svg version="1.1" xmlns:xlink="http://www.w3.org/1999/xlink" width="520px" height="60px" viewBox="52 401  520 60" xmlns="http://www.w3.org/2000/svg">
  <path d="M 53 411  A 9 9 0 0 1 62 402 L 562 402  A 9 9 0 0 1 571 411 L 571 451  A 9 9 0 0 1 562 460 L 62 460  A 9 9 0 0 1 53 451 L 53 411  Z " fill-rule="nonzero" fill="#f0f0f0" stroke="none" />
  <path d="M 52.5 411  A 9.5 9.5 0 0 1 62 401.5 L 562 401.5  A 9.5 9.5 0 0 1 571.5 411 L 571.5 451  A 9.5 9.5 0 0 1 562 460.5 L 62 460.5  A 9.5 9.5 0 0 1 52.5 451 L 52.5 411  Z " stroke-width="1" stroke="#81d3f8" fill="none" stroke-opacity="0.996078431372549" />
</svg>