<?xml version="1.0" encoding="utf-8"?>
<svg version="1.1" xmlns:xlink="http://www.w3.org/1999/xlink" width="40px" height="40px" xmlns="http://www.w3.org/2000/svg">
  <g transform="matrix(1 0 0 1 -64 -311 )">
    <path d="M 39.3127147766323 2.404809619238475  C 39.77090492554411 2.6720106880427474  40 2.9792919171676635  40 3.3266533066132276  C 40 3.6740146960587827  39.77090492554411 3.981295925183699  39.3127147766323 4.248496993987976  L 12.302405498281788 20  L 39.3127147766323 35.75150300601202  C 39.77090492554411 36.0187040748163  40 36.32598530394121  40 36.673346693386776  C 40 37.02070808283233  39.77090492554411 37.327989311957246  39.3127147766323 37.59519038076152  L 35.876288659793815 39.59919839679359  C 35.41809851088202 39.866399465597866  34.89117983963345 40  34.29553264604811 40  C 33.69988545246278 40  33.172966781214214 39.866399465597866  32.7147766323024 39.59919839679359  L 0.6872852233676976 20.921843687374746  C 0.22909507445589936 20.65464261857047  0 20.347361389445556  0 20  C 0 19.65263861055444  0.22909507445589936 19.345357381429523  0.6872852233676976 19.078156312625254  L 32.7147766323024 0.4008016032064132  C 33.172966781214214 0.13360053440213626  33.69988545246278 0  34.29553264604811 0  C 34.89117983963345 0  35.41809851088202 0.13360053440213626  35.876288659793815 0.4008016032064132  L 39.3127147766323 2.404809619238475  Z " fill-rule="nonzero" fill="#ffffff" stroke="none" transform="matrix(1 0 0 1 64 311 )" />
  </g>
</svg>