<?xml version="1.0" encoding="utf-8"?>
<!-- Generator: Adobe Illustrator 21.0.0, SVG Export Plug-In . SVG Version: 6.00 Build 0)  -->
<svg version="1.1" id="图层_1" xmlns="http://www.w3.org/2000/svg" xmlns:xlink="http://www.w3.org/1999/xlink" x="0px" y="0px"
	 viewBox="0 0 1024 1024" style="enable-background:new 0 0 1024 1024;" xml:space="preserve">
<style type="text/css">
	.st0{display:none;}
	.st1{display:inline;}
	.st2{opacity:0.25;}
	.st3{display:inline;opacity:0.25;}
	.st4{fill:url(#SVGID_1_);}
	.st5{enable-background:new    ;}
	.st6{fill:url(#SVGID_2_);}
	.st7{fill:url(#SVGID_3_);}
	.st8{fill:url(#SVGID_4_);}
	.st9{fill:url(#SVGID_5_);}
	.st10{fill:url(#SVGID_6_);}
	.st11{fill:url(#SVGID_7_);}
	.st12{fill:url(#SVGID_8_);}
	.st13{fill:url(#SVGID_9_);}
	.st14{fill:url(#SVGID_10_);}
	.st15{fill:url(#SVGID_11_);}
	.st16{fill:url(#SVGID_12_);}
	.st17{fill:url(#SVGID_13_);}
	.st18{fill:url(#SVGID_14_);}
</style>
<g id="图层_1_1_" class="st0">
	<g id="bg" class="st1">
		<g id="图层_2">
			<g id="图标参考线">
				<g id="图标尺寸" class="st2">
					<path d="M1018.2,5.8v1012.5H5.8V5.8H1018.2 M1024,0H0v1024h1024V0z"/>
					<path d="M512,28.8c266.9,0,483.2,216.4,483.2,483.2S778.9,995.2,512,995.2S28.8,778.9,28.8,512S245.1,28.8,512,28.8 M512,23
						C241.9,23,23,241.9,23,512s218.9,489,489,489s489-218.9,489-489C1000.7,242,782,23.3,512,23z"/>
					<path d="M949.2,74.8v874.4H74.8V74.8H949.2 M955,69H69v886h886V69z"/>
					<path d="M995.2,28.8v966.5H28.8V28.8H995.2 M1001,23H23v978h978V23z"/>
					<path d="M995.2,189.8v644.3H28.8V189.8H995.2 M1001,184.1H23v655.8h978V184.1z"/>
				</g>
			</g>
		</g>
	</g>
	<g id="图标尺寸_1_" class="st3">
		<g>
			<path d="M1017.1,4.6v1010.2H6.9V4.6H1017.1 M1021.7,0h-6.9H4.6H0v6.9v1010.2v6.9h6.9h1010.2h6.9v-6.9V6.9V0H1021.7z"/>
		</g>
		<g>
			<path d="M512,27.6c266.3,0,482.2,215.8,482.2,482.2S778.3,991.9,512,991.9S29.8,776.1,29.8,509.7S245.7,27.6,512,27.6 M512,23
				C243.4,23,23,241.1,23,509.7s218.1,486.7,489,486.7s489-218.1,489-486.7S780.6,23,512,23L512,23z"/>
		</g>
		<g>
			<path d="M948.2,73.5V946H75.8V73.5H948.2 M952.8,68.9h-6.9H73.5h-4.6v6.9v872.5v6.9h6.9h872.5h6.9v-6.9V75.8v-6.9H952.8z"/>
		</g>
		<g>
			<path d="M994.1,27.6v964.3H29.8V27.6H994.1 M998.7,23h-6.9H27.5h-4.6v6.9v964.3v6.9h6.9h964.3h6.9v-6.9V29.9V23H998.7z"/>
		</g>
		<g>
			<path d="M994.1,188.3v642.9H29.8V188.3H994.1 M998.7,183.7h-6.9H27.5h-4.6v4.6v642.9v6.9h6.9h964.3h6.9v-6.9V188.3v-4.6H998.7z"
				/>
		</g>
	</g>
</g>
<linearGradient id="SVGID_1_" gradientUnits="userSpaceOnUse" x1="775.8885" y1="301.9987" x2="775.8885" y2="34.5597">
	<stop  offset="0" style="stop-color:#FFFFFF;stop-opacity:0"/>
	<stop  offset="1" style="stop-color:#FFBE24"/>
</linearGradient>
<path class="st4" d="M775.9,302L775.9,302c-12.5,0-22.8-10.2-22.8-22.8V57.3c0-12.5,10.2-22.8,22.8-22.8l0,0
	c12.5,0,22.8,10.2,22.8,22.8v221.9C798.7,291.8,788.4,302,775.9,302z"/>
<g>
	<g class="st5">
		<linearGradient id="SVGID_2_" gradientUnits="userSpaceOnUse" x1="102.1988" y1="823.1808" x2="910.2136" y2="823.1808">
			<stop  offset="0" style="stop-color:#F6F6F9"/>
			<stop  offset="1" style="stop-color:#D7D8D5"/>
		</linearGradient>
		<path class="st6" d="M909.9,660.1c-0.1,2-0.2,4.1-0.4,6.1c-0.2,1.8-0.4,3.5-0.7,5.3c-0.3,2-0.6,4-1,6c-0.3,1.8-0.7,3.6-1.1,5.3
			c-0.4,2-0.9,3.9-1.4,5.9c-0.5,1.8-1,3.6-1.6,5.3c-0.6,2-1.2,3.9-1.9,5.9c-0.6,1.7-1.3,3.5-2,5.2c-0.8,2-1.7,4.1-2.6,6.1
			c-0.8,1.7-1.6,3.4-2.4,5.1c-1,2-2,4-3.1,6c-1.2,2.2-2.3,4.3-3.6,6.4c-0.3,0.5-0.6,1-0.9,1.5c-1.9,3.1-3.9,6.1-6,9.2
			c-0.4,0.6-0.8,1.1-1.2,1.7c-2.1,3-4.4,6-6.8,9c-0.4,0.6-0.9,1.1-1.4,1.7c-2.1,2.6-4.3,5.2-6.6,7.7c-0.6,0.7-1.2,1.4-1.9,2.1
			c-2.7,3-5.5,5.9-8.4,8.8c-0.5,0.5-1.1,1-1.6,1.5c-2.2,2.2-4.6,4.3-6.9,6.4c-1.9,1.7-3.8,3.4-5.8,5.1c-1.8,1.6-3.7,3.1-5.6,4.6
			c-2.1,1.7-4.2,3.3-6.3,4.9c-2,1.5-4,3-6,4.5c-2.2,1.6-4.5,3.2-6.8,4.8c-2.1,1.5-4.3,2.9-6.5,4.4c-2.4,1.6-4.8,3.1-7.3,4.6
			c-3.1,1.9-6.1,3.9-9.4,5.7c-6,3.5-12.3,6.8-18.6,10.1c-1.8,0.9-3.7,1.8-5.5,2.7c-4.9,2.4-9.9,4.8-15,7.1c-1.7,0.8-3.4,1.6-5.1,2.3
			c-6.6,2.9-13.3,5.6-20.1,8.2c-1.2,0.5-2.4,0.9-3.7,1.3c-5.8,2.1-11.6,4.2-17.5,6.1c-2.4,0.8-4.9,1.6-7.3,2.4c-3.3,1-6.5,2-9.8,3
			c-2.8,0.8-5.6,1.6-8.4,2.4c-3.3,0.9-6.7,1.8-10.1,2.7c-2.8,0.7-5.6,1.5-8.5,2.1c-3.4,0.8-6.8,1.6-10.3,2.4
			c-2.8,0.6-5.7,1.3-8.6,1.9c-3.5,0.7-7,1.4-10.6,2.1c-2.7,0.5-5.4,1-8.1,1.5c-7.6,1.3-15.2,2.6-22.8,3.6c-1.1,0.2-2.2,0.3-3.3,0.4
			c-6.7,0.9-13.4,1.7-20.1,2.4c-2.6,0.3-5.1,0.5-7.7,0.8c-4.3,0.4-8.6,0.8-13,1.1c-2.7,0.2-5.5,0.4-8.2,0.6c-4.5,0.3-9,0.5-13.6,0.7
			c-2.6,0.1-5.1,0.2-7.7,0.3c-3.9,0.1-7.8,0.2-11.7,0.2c-2.8,0-5.5,0.1-8.3,0.1c-4.2,0-8.4-0.1-12.6-0.1c-2.5,0-5,0-7.5-0.1
			c-3.9-0.1-7.7-0.3-11.6-0.5c-2.7-0.1-5.4-0.2-8.1-0.3c-4.2-0.2-8.3-0.5-12.5-0.8c-2.4-0.2-4.8-0.3-7.1-0.5
			c-4.9-0.4-9.8-0.9-14.7-1.4c-1.6-0.2-3.2-0.3-4.7-0.5c-6.5-0.7-12.9-1.5-19.3-2.4c-1.1-0.2-2.2-0.4-3.3-0.5
			c-5.4-0.8-10.8-1.6-16.2-2.6c-2.3-0.4-4.6-0.9-6.9-1.3c-4.2-0.8-8.3-1.5-12.4-2.4c-2.2-0.4-4.3-0.9-6.5-1.4c-4.5-1-9.1-2-13.6-3.1
			c-2.5-0.6-5-1.2-7.5-1.9c-4.1-1-8.2-2.1-12.2-3.2c-2.3-0.6-4.6-1.3-6.9-2c-6.4-1.9-12.8-3.8-19.1-5.9c-1.1-0.4-2.2-0.7-3.4-1.1
			c-7.2-2.4-14.3-5.1-21.3-7.8c-2.9-1.1-5.7-2.3-8.5-3.4c-2.2-0.9-4.5-1.8-6.7-2.8c-3.2-1.4-6.3-2.8-9.4-4.2c-2-0.9-4.1-1.8-6.1-2.8
			c-3.4-1.6-6.7-3.3-10.1-5c-1.7-0.8-3.3-1.6-5-2.5c-4.9-2.6-9.8-5.2-14.5-8c-79.6-46-119.4-106.3-119.2-166.6l-0.3,109.9
			c-0.2,60.3,39.6,120.6,119.2,166.6c4.8,2.7,9.6,5.4,14.5,8c1.6,0.9,3.3,1.7,5,2.5c3.3,1.7,6.7,3.4,10.1,5c2,1,4.1,1.9,6.1,2.8
			c3.1,1.4,6.2,2.8,9.4,4.2c2.2,0.9,4.5,1.9,6.7,2.8c2.2,0.9,4.3,1.8,6.4,2.7c0.7,0.3,1.4,0.5,2.1,0.8c7,2.7,14.1,5.4,21.3,7.8
			c1.1,0.4,2.2,0.7,3.4,1.1c6.3,2.1,12.7,4.1,19.1,5.9c1.1,0.3,2.1,0.7,3.2,1c1.2,0.3,2.5,0.6,3.7,1c4.1,1.1,8.1,2.2,12.2,3.2
			c2.5,0.6,5,1.3,7.5,1.9c4.5,1.1,9,2.1,13.6,3.1c1.7,0.4,3.4,0.8,5.1,1.1c0.5,0.1,0.9,0.2,1.4,0.3c4.1,0.8,8.3,1.6,12.5,2.4
			c2.3,0.4,4.5,0.9,6.8,1.3c5.4,0.9,10.9,1.8,16.4,2.6c1,0.1,2,0.3,2.9,0.5c0.1,0,0.1,0,0.2,0c6.4,0.9,12.8,1.7,19.3,2.4
			c1.5,0.2,2.9,0.3,4.4,0.4c5,0.5,10,1,15,1.5c0.1,0,0.2,0,0.4,0c2.2,0.2,4.5,0.3,6.8,0.5c4.1,0.3,8.3,0.6,12.4,0.8
			c2.7,0.1,5.4,0.2,8.1,0.3c3.9,0.2,7.7,0.4,11.6,0.5c0.3,0,0.6,0,0.9,0c2.2,0.1,4.3,0,6.5,0.1c4.2,0.1,8.4,0.1,12.6,0.1
			c2.7,0,5.5-0.1,8.2-0.1c3.9-0.1,7.9-0.1,11.8-0.2c0.7,0,1.4,0,2.2,0c1.8-0.1,3.7-0.2,5.5-0.3c4.5-0.2,9.1-0.4,13.6-0.7
			c2.7-0.2,5.5-0.4,8.2-0.6c4.3-0.3,8.7-0.7,13-1.1c1.5-0.1,3-0.2,4.5-0.4c1.1-0.1,2.1-0.3,3.2-0.4c6.7-0.7,13.4-1.5,20.1-2.4
			c1.1-0.1,2.2-0.3,3.3-0.4c7.7-1.1,15.3-2.3,22.8-3.6c0.7-0.1,1.4-0.2,2.1-0.3c2-0.4,4-0.8,6-1.2c3.5-0.7,7-1.3,10.5-2.1
			c2.9-0.6,5.7-1.2,8.6-1.9c3.4-0.8,6.9-1.5,10.3-2.4c2.9-0.7,5.7-1.4,8.5-2.1c3.4-0.9,6.7-1.8,10-2.7c2.8-0.8,5.6-1.6,8.4-2.4
			c3.3-1,6.6-2,9.8-3c1.4-0.5,2.9-0.9,4.3-1.3c1-0.3,2-0.7,3-1.1c5.9-2,11.7-4,17.5-6.1c1.2-0.5,2.5-0.9,3.7-1.3
			c6.8-2.6,13.5-5.3,20.1-8.2c1.7-0.7,3.4-1.5,5.1-2.3c5.1-2.3,10.1-4.6,15-7.1c1.8-0.9,3.7-1.8,5.5-2.7c6.3-3.2,12.5-6.6,18.6-10.1
			c1.7-1,3.3-1.9,4.9-2.9c1.5-0.9,2.9-1.9,4.4-2.8c2.5-1.5,4.9-3.1,7.3-4.6c2.2-1.4,4.3-2.9,6.5-4.4c2.3-1.6,4.6-3.2,6.8-4.8
			c2-1.5,4-3,6-4.5c2.1-1.6,4.3-3.3,6.3-4.9c1.9-1.5,3.7-3.1,5.6-4.6c2-1.7,3.9-3.4,5.8-5.1c0.8-0.7,1.6-1.4,2.4-2.1
			c1.6-1.4,3-2.9,4.5-4.3c0.5-0.5,1.1-1,1.6-1.6c2.9-2.9,5.7-5.8,8.4-8.8c0.6-0.7,1.3-1.4,1.9-2.1c2.3-2.5,4.5-5.1,6.6-7.7
			c0.5-0.6,0.9-1.1,1.4-1.7c0.2-0.3,0.4-0.5,0.6-0.8c2.2-2.7,4.2-5.5,6.1-8.3c0.4-0.6,0.8-1.1,1.2-1.7c2.1-3,4.1-6.1,6-9.2
			c0.3-0.5,0.6-1,0.9-1.5c0.7-1.2,1.4-2.3,2.1-3.5c0.6-1,1-2,1.5-2.9c1.1-2,2.1-4,3.1-6.1c0.8-1.7,1.6-3.4,2.4-5.1
			c0.9-2,1.8-4.1,2.6-6.1c0.4-0.9,0.8-1.8,1.2-2.7c0.3-0.8,0.5-1.7,0.8-2.5c0.7-1.9,1.3-3.9,1.9-5.9c0.5-1.8,1.1-3.5,1.6-5.3
			c0.5-2,1-3.9,1.4-5.9c0.2-1.1,0.6-2.1,0.8-3.2c0.1-0.7,0.2-1.4,0.3-2.2c0.4-2,0.7-4,1-6c0.2-1.8,0.5-3.5,0.7-5.3
			c0.2-2,0.3-4.1,0.4-6.1c0.1-1.2,0.2-2.4,0.3-3.6c0-1.2,0.1-2.4,0.1-3.5l0.3-109.9C910.2,655.4,910,657.7,909.9,660.1z"/>
		<g>
			<linearGradient id="SVGID_3_" gradientUnits="userSpaceOnUse" x1="102.5105" y1="651.8445" x2="910.2143" y2="651.8445">
				<stop  offset="0" style="stop-color:#D7D8D5"/>
				<stop  offset="1" style="stop-color:#F6F6F9"/>
			</linearGradient>
			<path class="st7" d="M791,486.4c158.2,91.3,159,239.5,1.9,330.8c-157.2,91.4-412.9,91.4-571.1,0
				c-158.2-91.4-159.1-239.5-1.9-330.8C377.1,395.1,632.8,395.1,791,486.4z"/>
		</g>
	</g>
</g>
<g>
	<g class="st5">
		<linearGradient id="SVGID_4_" gradientUnits="userSpaceOnUse" x1="565.5203" y1="347.2088" x2="738.5497" y2="347.2088">
			<stop  offset="0" style="stop-color:#E97D08"/>
			<stop  offset="1" style="stop-color:#FFB438"/>
		</linearGradient>
		<path class="st8" d="M716.4,385.1c0.4,0.2,0.9,0.3,1.3,0.5c0.8,0.3,1.6,0.6,2.4,0.9c0.4,0.1,0.7,0.3,1.1,0.4
			c1.1,0.4,2.3,0.9,3.4,1.4c0.1,0,0.1,0.1,0.2,0.1c1.1,0.5,2.1,0.9,3.2,1.4c0.4,0.2,0.7,0.4,1.1,0.5c0.7,0.3,1.5,0.7,2.2,1.1
			c0.4,0.2,0.9,0.4,1.3,0.7c0.7,0.3,1.3,0.7,2,1c0.5,0.2,0.9,0.5,1.4,0.7c0.8,0.5,1.7,0.9,2.5,1.4l0,0c0,0,0,0,0,0l-144.3-83.9
			c-0.5-0.3-0.9-0.5-1.4-0.8c-0.4-0.2-0.8-0.4-1.2-0.6c-0.5-0.2-0.9-0.5-1.4-0.7c-0.7-0.4-1.3-0.7-2-1c-0.4-0.2-0.9-0.4-1.3-0.7
			c-0.7-0.4-1.5-0.7-2.2-1.1c-0.4-0.2-0.7-0.4-1.1-0.5c-1.1-0.5-2.1-0.9-3.2-1.4c-0.1,0-0.1-0.1-0.2-0.1c0,0,0,0,0,0
			c-1.1-0.5-2.3-0.9-3.4-1.4c-0.4-0.1-0.7-0.3-1.1-0.4c-0.8-0.3-1.6-0.6-2.4-0.9c-0.4-0.2-0.9-0.3-1.3-0.5c-0.7-0.2-1.5-0.5-2.2-0.7
			c-0.5-0.1-1-0.3-1.4-0.4c-0.4-0.1-0.7-0.2-1.1-0.3c-0.6-0.2-1.2-0.3-1.8-0.5l0,0l0,0l144.3,83.9c1,0.3,2,0.6,2.9,0.9
			c0.5,0.1,1,0.3,1.4,0.4C714.9,384.6,715.6,384.9,716.4,385.1z"/>
		<linearGradient id="SVGID_5_" gradientUnits="userSpaceOnUse" x1="296.3268" y1="421.1638" x2="709.811" y2="421.1638">
			<stop  offset="0" style="stop-color:#E97D08"/>
			<stop  offset="1" style="stop-color:#FFB438"/>
		</linearGradient>
		<path class="st9" d="M709,384.3c0.3-0.4,0.5-0.8,0.8-1.1l-144.3-83.9l0,0h0c-0.4,0.6-0.9,1.2-1.3,1.8c-4.8,6.9-9.8,13.6-14.9,20.2
			c-0.9,1.1-1.7,2.2-2.6,3.3c-1.9,2.4-3.8,4.8-5.7,7.2c-1.1,1.3-2.1,2.6-3.2,3.9c-1.9,2.3-3.8,4.6-5.8,6.8c-1,1.2-2,2.3-3,3.5
			c-3.5,4-7.1,8-10.7,11.9c-0.6,0.7-1.3,1.4-2,2.1c-3.2,3.4-6.4,6.7-9.6,9.9c-0.9,0.9-1.9,1.9-2.8,2.8c-1.6,1.5-3.1,3-4.7,4.5
			c-1.3,1.3-2.7,2.5-4,3.8c-1.6,1.5-3.2,2.9-4.8,4.4c-1.3,1.2-2.7,2.4-4,3.6c-1.6,1.4-3.3,2.8-4.9,4.2c-1.3,1.1-2.7,2.3-4,3.4
			c-1.7,1.4-3.4,2.7-5,4.1c-1.3,1.1-2.7,2.2-4,3.2c-1.7,1.3-3.5,2.6-5.3,4c-1.3,1-2.6,2-3.9,2.9c-1.8,1.3-3.7,2.6-5.6,3.9
			c-1.2,0.9-2.5,1.8-3.7,2.6c-2.1,1.4-4.2,2.8-6.3,4.1c-1,0.7-2,1.4-3.1,2c-3.1,2-6.3,3.9-9.5,5.7c-2.9,1.7-5.8,3.3-8.7,4.8
			c-0.9,0.5-1.8,1-2.8,1.4c-2,1-3.9,2-5.8,3c-1.1,0.5-2.1,1-3.2,1.5c-1.8,0.8-3.6,1.7-5.4,2.5c-1.1,0.5-2.2,0.9-3.2,1.4
			c-1.2,0.5-2.5,1-3.7,1.5c-3.2,1.3-6.5,2.5-9.7,3.7c-0.7,0.3-1.4,0.5-2.2,0.8c-3.8,1.3-7.5,2.4-11.2,3.4c-1.1,0.3-2.3,0.6-3.4,0.9
			c-2,0.5-3.9,1-5.8,1.4c-1.2,0.3-2.5,0.5-3.7,0.8c-1.9,0.4-3.8,0.7-5.6,1c-1.3,0.2-2.5,0.4-3.8,0.6c-1.5,0.2-2.9,0.4-4.4,0.6
			c-1.4,0.2-2.7,0.3-4,0.4c-1.4,0.1-2.9,0.2-4.3,0.3c-1.3,0.1-2.7,0.2-4,0.2c-1.2,0-2.5,0.1-3.7,0.1c-1.4,0-2.8,0-4.2,0
			c-1.2,0-2.4-0.1-3.6-0.1c-1.4-0.1-2.8-0.1-4.1-0.2c-1.1-0.1-2.2-0.2-3.4-0.3c-1.4-0.1-2.8-0.3-4.1-0.5c-1.1-0.1-2.2-0.3-3.3-0.5
			c-1-0.2-2-0.3-2.9-0.5c-3.5-0.6-7-1.4-10.4-2.3l144.3,83.9c3.4,0.9,6.9,1.7,10.4,2.3c0.4,0.1,0.8,0.2,1.3,0.3
			c0.6,0.1,1.1,0.2,1.7,0.2c1.1,0.2,2.2,0.3,3.3,0.5c1.4,0.2,2.7,0.3,4.1,0.5c1.1,0.1,2.2,0.2,3.3,0.3c0.6,0,1.2,0.1,1.8,0.2
			c0.8,0,1.5,0,2.3,0.1c1.2,0.1,2.4,0.1,3.6,0.1c1.4,0,2.8,0,4.2,0c1.2,0,2.5,0,3.7-0.1c0.5,0,1,0,1.5,0c0.8,0,1.7-0.1,2.5-0.2
			c1.4-0.1,2.9-0.2,4.3-0.3c1.3-0.1,2.7-0.3,4-0.4c1.5-0.2,2.9-0.3,4.4-0.6c0.6-0.1,1.1-0.1,1.7-0.2c0.7-0.1,1.4-0.3,2.1-0.4
			c1.9-0.3,3.7-0.7,5.6-1c1.2-0.2,2.5-0.5,3.7-0.8c1.9-0.4,3.9-0.9,5.8-1.4c0.8-0.2,1.6-0.4,2.4-0.6c0.3-0.1,0.6-0.2,0.9-0.3
			c3.7-1,7.5-2.2,11.2-3.4c0.7-0.2,1.4-0.5,2.2-0.8c3.2-1.1,6.4-2.3,9.7-3.7c0.6-0.2,1.2-0.4,1.8-0.7c0.7-0.3,1.3-0.6,2-0.9
			c1.1-0.5,2.1-0.9,3.2-1.4c1.8-0.8,3.6-1.6,5.4-2.5c1.1-0.5,2.1-1,3.2-1.5c2-1,3.9-2,5.9-3c0.9-0.5,1.8-0.9,2.7-1.4
			c2.9-1.5,5.8-3.1,8.7-4.8c0.1,0,0.1-0.1,0.2-0.1c3.1-1.8,6.2-3.7,9.3-5.6c1.1-0.7,2.1-1.4,3.2-2.1c2.1-1.3,4.1-2.6,6.2-4
			c1.3-0.9,2.5-1.8,3.8-2.6c1.8-1.3,3.7-2.5,5.5-3.9c1.3-1,2.7-2,4-3c1.7-1.3,3.5-2.6,5.2-3.9c1.4-1.1,2.7-2.2,4.1-3.2
			c1.7-1.3,3.3-2.7,5-4c1.4-1.1,2.7-2.3,4.1-3.4c1.6-1.4,3.3-2.8,4.9-4.2c1.4-1.2,2.7-2.4,4-3.6c1.6-1.4,3.2-2.9,4.8-4.3
			c1.4-1.3,2.7-2.5,4-3.8c1.5-1.5,3.1-2.9,4.6-4.5c0.4-0.4,0.8-0.8,1.3-1.2c0.5-0.5,1.1-1.1,1.6-1.6c3.2-3.2,6.4-6.5,9.6-9.8
			c0.7-0.7,1.3-1.4,2-2.1c3.6-3.9,7.2-7.8,10.7-11.9c0.3-0.4,0.6-0.7,1-1.1c0.7-0.8,1.4-1.6,2-2.4c1.9-2.2,3.8-4.5,5.7-6.8
			c1.1-1.3,2.2-2.6,3.2-4c1.9-2.4,3.8-4.8,5.7-7.2c0.7-0.9,1.4-1.7,2-2.6c0.2-0.2,0.4-0.5,0.6-0.8c5.1-6.6,10.1-13.3,14.9-20.2
			C708.7,384.7,708.8,384.5,709,384.3z"/>
		<linearGradient id="SVGID_6_" gradientUnits="userSpaceOnUse" x1="189.507" y1="644.7407" x2="440.6177" y2="644.7407">
			<stop  offset="0" style="stop-color:#E97D08"/>
			<stop  offset="1" style="stop-color:#FFB438"/>
		</linearGradient>
		<path class="st10" d="M335.2,816.7c0.1-1.2,0.2-2.4,0.4-3.5c0.2-1.9,0.4-3.7,0.6-5.6c0.1-1.3,0.3-2.5,0.5-3.8
			c0.2-1.7,0.4-3.4,0.6-5.1c0.2-1.9,0.5-3.7,0.8-5.6c0.2-1.5,0.4-2.9,0.7-4.4c0.3-1.9,0.6-3.8,0.9-5.7c0.2-1.4,0.5-2.9,0.7-4.3
			c0.3-2,0.7-3.9,1.1-5.9c0.3-1.4,0.5-2.8,0.8-4.2c0.4-2.1,0.8-4.1,1.3-6.2c0.3-1.3,0.5-2.6,0.8-3.9c0.2-0.9,0.4-1.9,0.6-2.8
			c0.5-2.1,0.9-4.2,1.4-6.2c0.3-1.1,0.5-2.3,0.8-3.4c0.5-1.9,0.9-3.8,1.4-5.7c0.3-1.2,0.6-2.4,0.9-3.5c0.5-1.9,1-3.8,1.5-5.7
			c0.3-1.1,0.6-2.3,0.9-3.4c0.7-2.5,1.4-4.9,2.1-7.4c0.1-0.4,0.2-0.8,0.3-1.1c0.8-2.9,1.7-5.8,2.6-8.6c0.2-0.8,0.5-1.6,0.8-2.4
			c0.7-2.1,1.4-4.3,2.1-6.4c0.3-0.9,0.6-1.8,0.9-2.7c0.9-2.8,1.9-5.6,2.8-8.4c0-0.1,0-0.1,0.1-0.2c1-2.8,1.9-5.5,2.9-8.3
			c0.3-0.7,0.5-1.5,0.8-2.2c0.9-2.5,1.9-5,2.8-7.5c0.1-0.3,0.3-0.7,0.4-1c1.1-2.8,2.2-5.5,3.3-8.3c0.3-0.7,0.5-1.3,0.8-2
			c1.1-2.7,2.2-5.4,3.3-8.1c0-0.1,0.1-0.2,0.1-0.3c1.2-2.8,2.4-5.5,3.6-8.3c0.3-0.6,0.5-1.2,0.8-1.8c1.2-2.7,2.4-5.4,3.6-8.1
			c0.2-0.3,0.3-0.7,0.5-1c1.1-2.5,2.3-5,3.5-7.4c0.3-0.5,0.5-1.1,0.8-1.6c0.5-1.1,1.1-2.2,1.6-3.3c1.2-2.5,2.4-4.9,3.6-7.4
			c0.6-1.2,1.2-2.4,1.8-3.6c1.2-2.3,2.3-4.5,3.5-6.8c0.6-1.2,1.2-2.4,1.9-3.5c1.3-2.5,2.7-4.9,4-7.4c0.5-0.9,0.9-1.7,1.4-2.6
			c1.8-3.3,3.7-6.6,5.6-9.8c0.4-0.7,0.8-1.4,1.2-2c1.5-2.6,3.1-5.2,4.7-7.8c0.7-1.1,1.3-2.2,2-3.3c1.4-2.2,2.7-4.4,4.1-6.6
			c0.7-1.1,1.4-2.3,2.2-3.4c1.4-2.1,2.8-4.3,4.2-6.4c0.7-1,1.3-2,2-3c2.1-3.1,4.1-6.1,6.2-9.1c0,0,0,0,0,0l0,0v0l-144.3-83.9
			c-2.1,3-4.2,6.1-6.2,9.1c-0.7,1-1.3,2-1.9,2.9c-1.4,2.1-2.8,4.3-4.2,6.4c-0.3,0.5-0.7,1-1,1.5c-0.4,0.6-0.8,1.3-1.2,1.9
			c-1.4,2.2-2.7,4.4-4.1,6.6c-0.7,1.1-1.3,2.2-2,3.3c-1.6,2.6-3.1,5.2-4.7,7.8c-0.3,0.6-0.7,1.1-1,1.7c-0.1,0.1-0.1,0.2-0.2,0.4
			c-1.9,3.3-3.8,6.5-5.6,9.8c-0.5,0.9-0.9,1.7-1.4,2.6c-1.4,2.5-2.7,4.9-4,7.4c-0.2,0.5-0.5,0.9-0.7,1.3c-0.4,0.7-0.7,1.5-1.1,2.2
			c-1.2,2.3-2.4,4.5-3.5,6.8c-0.6,1.2-1.2,2.4-1.8,3.6c-1.2,2.4-2.4,4.9-3.6,7.4c-0.4,0.8-0.8,1.5-1.1,2.3c-0.2,0.4-0.3,0.7-0.5,1.1
			c-0.3,0.5-0.5,1.1-0.8,1.6c-1.2,2.5-2.3,4.9-3.5,7.4c-0.2,0.3-0.3,0.7-0.5,1c-1.2,2.7-2.4,5.4-3.6,8.1c-0.3,0.6-0.5,1.2-0.8,1.8
			c-0.3,0.7-0.6,1.4-0.9,2.2c-0.9,2-1.8,4.1-2.6,6.2c0,0.1-0.1,0.2-0.1,0.3c-1.1,2.7-2.2,5.4-3.3,8.1c-0.3,0.7-0.5,1.3-0.8,2
			c-1.1,2.6-2.1,5.3-3.1,8c0,0.1-0.1,0.2-0.1,0.3c-0.1,0.3-0.3,0.7-0.4,1c-1,2.5-1.9,5-2.8,7.5c-0.3,0.7-0.5,1.5-0.8,2.2
			c-1,2.8-2,5.5-2.9,8.3c0,0.1,0,0.1-0.1,0.2c-0.8,2.2-1.5,4.4-2.3,6.6c-0.2,0.6-0.4,1.2-0.6,1.8c-0.3,0.9-0.6,1.8-0.9,2.7
			c-0.7,2.1-1.4,4.3-2.1,6.4c-0.3,0.8-0.5,1.6-0.8,2.4c-0.9,2.9-1.8,5.7-2.6,8.6c-0.1,0.4-0.2,0.8-0.3,1.1c-0.6,1.9-1.1,3.9-1.7,5.8
			c-0.1,0.5-0.3,1.1-0.4,1.6c-0.3,1.1-0.6,2.3-0.9,3.4c-0.5,1.9-1,3.8-1.5,5.7c-0.3,1.2-0.6,2.4-0.9,3.5c-0.5,1.9-0.9,3.8-1.4,5.7
			c-0.3,1.1-0.5,2.3-0.8,3.4c-0.5,2.1-0.9,4.2-1.4,6.2c-0.2,0.9-0.4,1.9-0.6,2.8c0,0.2-0.1,0.5-0.2,0.7c-0.2,1.1-0.4,2.2-0.7,3.2
			c-0.4,2.1-0.9,4.1-1.3,6.2c-0.3,1.4-0.5,2.8-0.8,4.2c-0.4,2-0.7,3.9-1.1,5.9c-0.3,1.4-0.5,2.9-0.7,4.3c-0.3,1.9-0.6,3.8-0.9,5.7
			c-0.2,1.5-0.4,2.9-0.7,4.4c-0.3,1.9-0.5,3.7-0.8,5.6c-0.1,0.7-0.2,1.3-0.3,2c-0.1,1-0.2,2.1-0.4,3.1c-0.2,1.3-0.3,2.5-0.5,3.8
			c-0.2,1.9-0.4,3.7-0.6,5.6c-0.1,1.2-0.2,2.4-0.4,3.5c-0.2,2-0.4,4.1-0.5,6.1c-0.1,1-0.2,2-0.2,3c-0.2,3-0.4,6-0.6,9l144.3,83.9
			c0.2-3,0.4-6,0.6-9c0.1-1,0.2-2,0.2-3C334.8,820.8,335,818.7,335.2,816.7z"/>
		<g>
			<linearGradient id="SVGID_7_" gradientUnits="userSpaceOnUse" x1="333.7978" y1="608.9576" x2="817.9654" y2="608.9576">
				<stop  offset="0" style="stop-color:#E97D08"/>
				<stop  offset="1" style="stop-color:#FFB438"/>
			</linearGradient>
			<path class="st11" d="M709.8,383.1c60.5,16.6,102,77.8,108.2,172.1L333.8,834.8c5.6-101.1,46.6-210,106.8-296.3
				c38.6,10.6,84.9,3.1,134.7-25.7C625.2,484.1,671.4,438.2,709.8,383.1z"/>
		</g>
	</g>
	<g class="st5">
		<linearGradient id="SVGID_8_" gradientUnits="userSpaceOnUse" x1="296.3314" y1="256.2699" x2="671.1146" y2="256.2699">
			<stop  offset="0" style="stop-color:#E97D08"/>
			<stop  offset="1" style="stop-color:#FFB438"/>
		</linearGradient>
		<path class="st12" d="M526.8,54.4c-0.2-0.1-0.5-0.3-0.7-0.4c-0.2-0.1-0.3-0.2-0.5-0.3c-0.8-0.4-1.6-0.8-2.4-1.2
			c-0.2-0.1-0.5-0.2-0.7-0.4c-1-0.5-2-0.9-3-1.4c0,0-0.1,0-0.1-0.1c-0.2-0.1-0.3-0.1-0.5-0.2c-0.9-0.3-1.7-0.7-2.6-1
			c-0.3-0.1-0.6-0.2-0.9-0.3c-1-0.3-2-0.7-3-1c-0.1,0-0.1,0-0.2-0.1c0,0,0,0,0,0c-1.1-0.3-2.2-0.6-3.3-0.9c-0.3-0.1-0.6-0.1-0.9-0.2
			c-0.9-0.2-1.8-0.4-2.7-0.6c-0.2,0-0.4-0.1-0.5-0.1c-0.1,0-0.2,0-0.2,0c-1.2-0.2-2.3-0.4-3.5-0.5c-0.3,0-0.5-0.1-0.8-0.1
			c-1-0.1-2-0.2-3-0.3c-0.2,0-0.4,0-0.6-0.1c-0.2,0-0.4,0-0.5,0c-0.3,0-0.5,0-0.8,0c-0.6,0-1.3-0.1-1.9-0.1c-0.3,0-0.5,0-0.8,0
			c-0.9,0-1.8,0-2.7,0c-0.1,0-0.2,0-0.3,0c-0.6,0-1.3,0-1.9,0.1c-0.2,0-0.3,0-0.5,0c-0.3,0-0.7,0-1,0.1c-0.6,0-1.2,0.1-1.9,0.1
			c-0.3,0-0.7,0.1-1,0.1c-0.6,0.1-1.3,0.1-1.9,0.2c-0.3,0-0.6,0.1-0.9,0.1c-0.9,0.1-1.8,0.2-2.7,0.4c-0.1,0-0.1,0-0.2,0c0,0,0,0,0,0
			c-1,0.2-2,0.3-3,0.5c-0.3,0.1-0.6,0.1-0.9,0.2c-0.7,0.1-1.4,0.3-2.2,0.4c-0.4,0.1-0.8,0.2-1.2,0.3c-0.6,0.1-1.3,0.3-1.9,0.4
			c-0.4,0.1-0.9,0.2-1.3,0.3c-0.5,0.1-0.9,0.2-1.4,0.4c-0.1,0-0.2,0.1-0.4,0.1c-1,0.3-2,0.6-3,0.9c-0.2,0.1-0.4,0.1-0.7,0.2
			c-1.2,0.4-2.4,0.8-3.7,1.2c-0.3,0.1-0.7,0.2-1,0.4c-0.9,0.3-1.8,0.6-2.7,1c-0.4,0.2-0.9,0.3-1.4,0.5c-0.8,0.3-1.6,0.6-2.4,1
			c-0.2,0.1-0.5,0.2-0.7,0.3c-0.2,0.1-0.4,0.2-0.6,0.3c-1.2,0.5-2.3,1-3.5,1.5c-0.2,0.1-0.5,0.2-0.7,0.3c-1.4,0.6-2.8,1.3-4.2,2
			c-0.4,0.2-0.7,0.4-1.1,0.6c-1.1,0.5-2.2,1.1-3.3,1.7c-0.4,0.2-0.8,0.4-1.2,0.7c-1.4,0.8-2.9,1.6-4.3,2.4c-1.1,0.6-2.2,1.3-3.2,1.9
			c-0.3,0.2-0.7,0.4-1,0.6c-0.7,0.4-1.5,0.9-2.2,1.4c-0.4,0.3-0.8,0.5-1.2,0.8c-0.7,0.4-1.4,0.9-2,1.3c-0.4,0.3-0.8,0.5-1.2,0.8
			c-0.7,0.5-1.4,0.9-2,1.4c-0.4,0.3-0.8,0.5-1.1,0.8c-0.8,0.5-1.5,1.1-2.3,1.6c-0.3,0.2-0.6,0.4-0.9,0.6c-1,0.8-2.1,1.5-3.1,2.3
			c-0.2,0.2-0.4,0.3-0.7,0.5c-0.8,0.6-1.6,1.3-2.5,1.9c-0.4,0.3-0.7,0.6-1.1,0.9c-0.7,0.5-1.3,1.1-2,1.6c-0.4,0.3-0.8,0.6-1.2,1
			c-0.6,0.5-1.3,1.1-1.9,1.6c-0.4,0.3-0.8,0.7-1.2,1c-0.7,0.6-1.3,1.1-2,1.7c-0.3,0.3-0.7,0.6-1,0.9c-0.8,0.7-1.7,1.5-2.5,2.3
			c-0.2,0.1-0.3,0.3-0.5,0.4c-1,0.9-2,1.8-3,2.7c-0.3,0.3-0.6,0.5-0.9,0.8c-0.7,0.7-1.4,1.3-2.1,2c-0.4,0.3-0.7,0.7-1.1,1
			c-0.4,0.4-0.7,0.7-1.1,1.1c-0.2,0.2-0.4,0.4-0.5,0.5c-0.8,0.8-1.6,1.6-2.4,2.4c-0.4,0.4-0.7,0.7-1.1,1.1c-1.1,1.2-2.3,2.4-3.4,3.6
			c-0.1,0.1-0.2,0.2-0.3,0.3c-1,1.1-2,2.2-3.1,3.3c-0.4,0.4-0.7,0.8-1.1,1.2c-0.8,0.8-1.5,1.7-2.3,2.5c-0.2,0.2-0.4,0.4-0.6,0.6
			c-0.1,0.2-0.3,0.3-0.4,0.5c-1.6,1.9-3.2,3.8-4.8,5.7c-0.2,0.3-0.5,0.6-0.7,0.9c-1.6,2-3.2,3.9-4.7,5.9c-0.1,0.1-0.2,0.2-0.3,0.3
			c-0.2,0.2-0.3,0.4-0.5,0.6c-1.4,1.8-2.7,3.5-4,5.3c0,0-0.1,0.1-0.1,0.1c-1.3,1.8-2.7,3.7-4,5.5c-0.1,0.2-0.3,0.4-0.4,0.6
			c-0.1,0.2-0.2,0.3-0.3,0.5c-1.2,1.7-2.3,3.3-3.5,5c-0.2,0.3-0.4,0.6-0.6,0.9c-1,1.5-2,3-3,4.5c-0.1,0.2-0.3,0.5-0.5,0.7
			c-0.1,0.1-0.2,0.3-0.2,0.4c-1.1,1.6-2.1,3.3-3.1,5c-0.2,0.3-0.4,0.7-0.6,1c-0.9,1.4-1.7,2.8-2.5,4.2c-0.2,0.3-0.3,0.5-0.5,0.8
			c-0.1,0.2-0.2,0.3-0.3,0.5c-1,1.7-1.9,3.3-2.9,5c-0.1,0.2-0.3,0.5-0.4,0.7c-0.8,1.5-1.6,2.9-2.4,4.4c-0.1,0.2-0.3,0.5-0.4,0.7
			c-0.1,0.2-0.2,0.5-0.4,0.7c-0.8,1.5-1.6,3-2.4,4.6c-0.1,0.2-0.2,0.4-0.3,0.6c-0.9,1.7-1.7,3.4-2.5,5.1c-0.1,0.2-0.2,0.4-0.3,0.5
			c-0.1,0.3-0.3,0.6-0.4,0.8c-0.7,1.4-1.3,2.8-2,4.2c-0.2,0.4-0.4,0.8-0.6,1.2c-0.8,1.7-1.6,3.5-2.3,5.2c0,0.1-0.1,0.2-0.1,0.3
			c-0.1,0.3-0.2,0.5-0.3,0.8c-0.6,1.5-1.3,3-1.9,4.4c-0.2,0.5-0.4,0.9-0.6,1.4c-0.7,1.8-1.4,3.6-2.1,5.4c0,0.1,0,0.1-0.1,0.2
			c-0.1,0.2-0.1,0.3-0.2,0.5c-0.6,1.7-1.3,3.4-1.9,5.1c-0.2,0.4-0.3,0.9-0.5,1.3c-0.7,1.9-1.3,3.7-1.9,5.6c0,0.1,0,0.1-0.1,0.2
			c-0.1,0.2-0.1,0.4-0.2,0.5c-0.6,1.9-1.2,3.8-1.8,5.7c-0.1,0.3-0.2,0.7-0.3,1c-0.6,2-1.2,4-1.7,6c-0.1,0.2-0.1,0.4-0.2,0.5
			c-0.1,0.5-0.3,1-0.4,1.4c-0.2,0.6-0.3,1.2-0.5,1.7c-0.2,0.8-0.4,1.6-0.6,2.4c-0.1,0.6-0.3,1.1-0.4,1.7c-0.2,0.8-0.4,1.7-0.6,2.5
			c-0.1,0.5-0.2,1-0.4,1.6c-0.2,0.9-0.4,1.9-0.6,2.8c-0.1,0.4-0.2,0.8-0.3,1.2c0,0,0,0.1,0,0.1c-0.1,0.3-0.1,0.7-0.2,1
			c-0.2,1.1-0.5,2.2-0.7,3.3c-0.1,0.6-0.2,1.1-0.3,1.7c-0.2,0.9-0.3,1.9-0.5,2.8c-0.1,0.6-0.2,1.2-0.3,1.8c-0.1,0.9-0.3,1.8-0.4,2.7
			c-0.1,0.6-0.2,1.2-0.3,1.9c-0.1,0.9-0.2,1.7-0.4,2.6c0,0.3-0.1,0.7-0.1,1c0,0.2,0,0.4-0.1,0.6c-0.2,2-0.5,3.9-0.7,5.8
			c0,0.3,0,0.6-0.1,0.8c-0.2,1.8-0.3,3.6-0.4,5.4c0,0.3-0.1,0.7-0.1,1c-0.1,1.9-0.2,3.8-0.3,5.7c0,0.4,0,0.8,0,1.2
			c-0.1,1.9-0.1,3.9-0.1,5.8c0,9.3,0.8,18,2.2,26.1c0.4,2.3,0.8,4.6,1.4,6.8c1.3,5.5,2.8,10.7,4.7,15.5c3.4,8.7,7.8,16.3,13,22.7
			c0.6,0.7,1.2,1.4,1.8,2.1c4.8,5.5,10.3,10,16.4,13.5L480,467.2c-24.2-14.1-39.2-44-39.4-86.5c0-1.9,0-3.9,0.1-5.8
			c0-0.4,0-0.8,0-1.2c0.1-1.9,0.2-3.8,0.3-5.7c0-0.3,0-0.7,0.1-1c0.1-1.8,0.3-3.6,0.4-5.4c0-0.3,0-0.6,0.1-0.8
			c0.2-1.9,0.4-3.9,0.7-5.8c0.1-0.5,0.1-1.1,0.2-1.6c0.1-0.9,0.2-1.7,0.4-2.6c0.1-0.6,0.2-1.2,0.3-1.9c0.1-0.9,0.3-1.8,0.4-2.7
			c0.1-0.6,0.2-1.2,0.3-1.8c0.2-0.9,0.3-1.9,0.5-2.8c0.1-0.6,0.2-1.1,0.3-1.7c0.2-1.1,0.4-2.2,0.7-3.3c0.1-0.4,0.2-0.8,0.2-1.2
			c0.1-0.4,0.2-0.8,0.3-1.2c0.2-0.9,0.4-1.9,0.6-2.8c0.1-0.5,0.2-1,0.4-1.6c0.2-0.8,0.4-1.7,0.6-2.5c0.1-0.6,0.3-1.1,0.4-1.7
			c0.2-0.8,0.4-1.6,0.6-2.4c0.2-0.6,0.3-1.2,0.5-1.7c0.2-0.7,0.4-1.3,0.5-2c0.6-2,1.1-4,1.7-6c0.1-0.3,0.2-0.7,0.3-1
			c0.6-1.9,1.2-3.8,1.8-5.6c0.1-0.3,0.2-0.5,0.2-0.8c0.6-1.9,1.3-3.7,1.9-5.6c0.2-0.4,0.3-0.9,0.5-1.3c0.6-1.7,1.2-3.4,1.9-5.1
			c0.1-0.2,0.2-0.5,0.3-0.7c0.7-1.8,1.4-3.6,2.1-5.4c0.2-0.5,0.4-0.9,0.6-1.4c0.6-1.5,1.2-3,1.9-4.4c0.2-0.4,0.3-0.7,0.5-1.1
			c0.8-1.7,1.5-3.5,2.3-5.2c0.2-0.4,0.4-0.8,0.6-1.2c0.6-1.4,1.3-2.8,2-4.2c0.2-0.5,0.4-0.9,0.7-1.4c0.8-1.7,1.7-3.4,2.5-5.1
			c0.1-0.2,0.2-0.4,0.3-0.6c0.8-1.5,1.6-3.1,2.4-4.6c0.3-0.5,0.5-0.9,0.8-1.4c0.8-1.5,1.6-2.9,2.4-4.4c0.1-0.2,0.3-0.5,0.4-0.7
			c0.9-1.7,1.9-3.3,2.9-5c0.2-0.4,0.5-0.8,0.7-1.3c0.8-1.4,1.7-2.8,2.5-4.2c0.2-0.3,0.4-0.7,0.6-1c1-1.7,2.1-3.3,3.1-5
			c0.2-0.4,0.5-0.7,0.7-1.1c1-1.5,2-3,3-4.5c0.2-0.3,0.4-0.6,0.6-0.9c1.1-1.7,2.3-3.4,3.5-5c0.3-0.4,0.5-0.7,0.8-1.1
			c1.3-1.9,2.6-3.7,4-5.5c0,0,0.1-0.1,0.1-0.1c1.3-1.8,2.7-3.6,4-5.3c0.2-0.3,0.5-0.6,0.7-0.9c1.6-2,3.1-4,4.7-5.9
			c0.2-0.3,0.5-0.6,0.7-0.9c1.6-1.9,3.2-3.8,4.8-5.7c0.3-0.4,0.6-0.7,1-1.1c0.8-0.9,1.5-1.7,2.3-2.6c0.4-0.4,0.7-0.8,1.1-1.2
			c1-1.1,2-2.2,3.1-3.3c0.1-0.1,0.2-0.2,0.3-0.3c1.1-1.2,2.3-2.4,3.4-3.6c0.4-0.4,0.7-0.7,1.1-1.1c0.8-0.8,1.6-1.6,2.4-2.4
			c0.6-0.5,1.1-1.1,1.7-1.6c0.4-0.3,0.7-0.7,1.1-1c0.7-0.7,1.4-1.3,2.1-2c0.3-0.3,0.6-0.5,0.9-0.8c1-0.9,2-1.8,3-2.7
			c0.2-0.1,0.3-0.3,0.5-0.4c0.8-0.8,1.7-1.5,2.5-2.3c0.3-0.3,0.7-0.6,1-0.9c0.7-0.6,1.3-1.2,2-1.7c0.4-0.3,0.8-0.7,1.2-1
			c0.6-0.5,1.3-1.1,1.9-1.6c0.4-0.3,0.8-0.6,1.2-1c0.7-0.5,1.3-1.1,2-1.6c0.4-0.3,0.7-0.6,1.1-0.9c0.8-0.6,1.6-1.3,2.5-1.9
			c0.2-0.2,0.4-0.3,0.7-0.5c1-0.8,2.1-1.6,3.1-2.3c0.3-0.2,0.6-0.4,0.9-0.6c0.8-0.6,1.5-1.1,2.3-1.6c0.4-0.3,0.8-0.5,1.1-0.8
			c0.7-0.5,1.4-0.9,2-1.4c0.4-0.3,0.8-0.5,1.2-0.8c0.7-0.4,1.3-0.9,2-1.3c0.4-0.3,0.8-0.5,1.2-0.8c0.7-0.5,1.5-0.9,2.2-1.4
			c0.3-0.2,0.7-0.4,1-0.6c1.1-0.7,2.2-1.3,3.2-1.9c1.4-0.8,2.9-1.6,4.3-2.4c0.4-0.2,0.8-0.4,1.2-0.7c1.1-0.6,2.2-1.1,3.3-1.7
			c0.4-0.2,0.7-0.4,1.1-0.6c1.4-0.7,2.8-1.4,4.2-2c0.2-0.1,0.5-0.2,0.7-0.3c1.2-0.5,2.3-1,3.5-1.5c0.4-0.2,0.9-0.4,1.3-0.6
			c0.8-0.3,1.6-0.7,2.4-1c0.5-0.2,0.9-0.4,1.4-0.5c0.9-0.3,1.8-0.7,2.7-1c0.3-0.1,0.7-0.3,1-0.4c1.2-0.4,2.4-0.8,3.7-1.2
			c0.2-0.1,0.4-0.1,0.7-0.2c1-0.3,2-0.6,3-0.9c0.6-0.2,1.2-0.3,1.8-0.5c0.4-0.1,0.9-0.2,1.3-0.3c0.6-0.2,1.3-0.3,1.9-0.4
			c0.4-0.1,0.8-0.2,1.2-0.3c0.7-0.2,1.4-0.3,2.2-0.4c0.3-0.1,0.6-0.1,0.9-0.2c1-0.2,2-0.4,3-0.5c0.1,0,0.1,0,0.2,0
			c0.9-0.1,1.8-0.3,2.7-0.4c0.3,0,0.6-0.1,0.9-0.1c0.6-0.1,1.3-0.1,1.9-0.2c0.3,0,0.7-0.1,1-0.1c0.6-0.1,1.2-0.1,1.9-0.1
			c0.3,0,0.7,0,1-0.1c0.8,0,1.6-0.1,2.4-0.1c0.1,0,0.2,0,0.3,0c0.9,0,1.8,0,2.7,0c0.3,0,0.5,0,0.8,0c0.6,0,1.3,0,1.9,0.1
			c0.3,0,0.6,0,0.8,0c0.4,0,0.7,0.1,1.1,0.1c1,0.1,2,0.2,3,0.3c0.3,0,0.5,0.1,0.8,0.1c1.2,0.1,2.4,0.3,3.5,0.5
			c0.3,0,0.5,0.1,0.8,0.1c0.9,0.2,1.8,0.4,2.7,0.6c0.3,0.1,0.6,0.1,0.9,0.2c1.1,0.3,2.2,0.5,3.3,0.9c0.1,0,0.2,0.1,0.3,0.1
			c1,0.3,2,0.6,3,1c0.3,0.1,0.6,0.2,0.9,0.3c0.9,0.3,1.7,0.6,2.6,1c0.2,0.1,0.4,0.2,0.6,0.2c1,0.4,2,0.9,3,1.4
			c0.2,0.1,0.5,0.2,0.7,0.4c0.8,0.4,1.6,0.8,2.4,1.2c0.4,0.2,0.8,0.4,1.2,0.7L526.8,54.4z"/>
		<g>
			<linearGradient id="SVGID_9_" gradientUnits="userSpaceOnUse" x1="440.6222" y1="302.7478" x2="710.4771" y2="302.7478">
				<stop  offset="0" style="stop-color:#E97D08"/>
				<stop  offset="1" style="stop-color:#FFB438"/>
			</linearGradient>
			<path class="st13" d="M575.1,147.7c74.5-43,135.1-8.5,135.4,77.1c0.2,85.6-60,189.9-134.5,232.9c-74.5,43-135.1,8.5-135.4-77.1
				C440.4,295,500.6,190.7,575.1,147.7z"/>
		</g>
	</g>
	<g>
		<linearGradient id="SVGID_10_" gradientUnits="userSpaceOnUse" x1="540.6627" y1="581.0447" x2="688.496" y2="581.0447">
			<stop  offset="0" style="stop-color:#F6F6F9"/>
			<stop  offset="1" style="stop-color:#D7D8D5"/>
		</linearGradient>
		<path class="st14" d="M676.5,549c0.3-0.1,0.6-0.3,0.9-0.4c0.1,0,0.2-0.1,0.3-0.1c0.3-0.1,0.6-0.2,0.8-0.3c0.1,0,0.1-0.1,0.2-0.1
			c0.3-0.1,0.7-0.2,1-0.3c0,0,0.1,0,0.1,0c0.5-0.1,1.1-0.3,1.6-0.3c0,0,0,0,0,0c0.4-0.1,0.9-0.1,1.3-0.1c0.1,0,0.2,0,0.3,0
			c0.4,0,0.7,0,1.1,0c0.1,0,0.1,0,0.2,0c0.3,0,0.6,0.1,0.9,0.1c0.1,0,0.2,0,0.3,0c0.3,0.1,0.6,0.1,0.9,0.2c0,0,0,0,0,0
			c0.3,0.1,0.6,0.2,0.9,0.3c0.1,0,0.2,0.1,0.2,0.1c0.2,0.1,0.5,0.2,0.7,0.3c0.1,0,0.2,0.1,0.2,0.1l-40.2-23.3c0,0-0.1,0-0.1-0.1
			c0,0-0.1,0-0.1-0.1c-0.2-0.1-0.5-0.2-0.7-0.3c0,0-0.1,0-0.1-0.1c0,0-0.1,0-0.1,0c-0.3-0.1-0.6-0.2-0.9-0.3c0,0,0,0,0,0
			c0,0,0,0,0,0c-0.3-0.1-0.6-0.2-0.9-0.2c0,0-0.1,0-0.1,0c0,0-0.1,0-0.2,0c-0.3,0-0.6-0.1-0.9-0.1c0,0-0.1,0-0.1,0c0,0,0,0,0,0
			c-0.4,0-0.7,0-1.1,0c0,0-0.1,0-0.1,0c0,0-0.1,0-0.1,0c-0.4,0-0.8,0.1-1.3,0.1l0,0c0,0,0,0,0,0c-0.5,0.1-1,0.2-1.6,0.3
			c0,0-0.1,0-0.1,0c0,0,0,0-0.1,0c-0.3,0.1-0.7,0.2-1,0.3c-0.1,0-0.1,0.1-0.2,0.1c-0.3,0.1-0.6,0.2-0.8,0.3c0,0-0.1,0-0.1,0
			c-0.1,0-0.1,0.1-0.2,0.1c-0.3,0.1-0.6,0.3-0.9,0.4c-0.1,0.1-0.2,0.1-0.3,0.2c-0.4,0.2-0.8,0.4-1.2,0.6l-75.2,43.4
			c-0.6,0.4-1.2,0.7-1.8,1.2c-0.2,0.1-0.4,0.3-0.6,0.4c-0.4,0.3-0.8,0.6-1.2,0.9c-0.2,0.2-0.4,0.4-0.6,0.5c-0.4,0.3-0.7,0.6-1.1,0.9
			c-0.2,0.2-0.4,0.4-0.6,0.6c-0.1,0.1-0.3,0.2-0.4,0.4c-0.1,0.1-0.3,0.3-0.4,0.4c-0.4,0.4-0.9,0.9-1.3,1.3c-0.1,0.1-0.3,0.3-0.4,0.4
			c-0.1,0.1-0.2,0.3-0.3,0.4c-0.3,0.3-0.5,0.6-0.7,0.9c-0.2,0.2-0.3,0.4-0.5,0.6c-0.1,0.2-0.2,0.3-0.4,0.5c-0.2,0.2-0.4,0.5-0.5,0.7
			c-0.1,0.2-0.2,0.3-0.4,0.5c-0.2,0.3-0.4,0.6-0.6,0.9c-0.1,0.2-0.2,0.4-0.4,0.5c0,0.1-0.1,0.1-0.2,0.2c-0.3,0.5-0.7,1.1-1,1.6
			c0,0,0,0.1-0.1,0.1c-0.1,0.1-0.1,0.2-0.2,0.3c-0.2,0.4-0.4,0.8-0.6,1.1c-0.1,0.2-0.2,0.4-0.3,0.6c-0.1,0.2-0.2,0.4-0.3,0.6
			c-0.1,0.2-0.2,0.3-0.2,0.5c-0.2,0.4-0.4,0.9-0.6,1.4c0,0.1-0.1,0.2-0.1,0.2c0,0,0,0,0,0.1c-0.2,0.6-0.5,1.1-0.7,1.7
			c0,0.1-0.1,0.2-0.1,0.3c-0.1,0.2-0.1,0.4-0.2,0.6c-0.1,0.3-0.2,0.6-0.3,0.9c-0.1,0.2-0.1,0.4-0.2,0.7c-0.1,0.3-0.2,0.5-0.2,0.8
			c0,0.2-0.1,0.3-0.1,0.5c-0.1,0.3-0.1,0.6-0.2,0.9c-0.1,0.3-0.2,0.6-0.2,1c0,0.1-0.1,0.2-0.1,0.3c0,0.2-0.1,0.5-0.1,0.7
			c-0.1,0.5-0.2,1-0.3,1.5c0,0.1-0.1,0.3-0.1,0.4c0,0.3-0.1,0.6-0.1,0.9c0,0.2,0,0.4-0.1,0.7c-0.1,0.7-0.1,1.4-0.1,2.1
			c0,3.7,0.8,6.8,2.3,9c0.9,1.3,2,2.4,3.2,3.1l40.2,23.3c-3.4-2-5.5-6.2-5.5-12.2c0-0.7,0-1.4,0.1-2.1c0-0.2,0-0.4,0.1-0.7
			c0-0.5,0.1-0.9,0.2-1.4c0.1-0.5,0.2-1,0.3-1.5c0.1-0.3,0.1-0.7,0.2-1c0.1-0.3,0.2-0.6,0.2-1c0.1-0.5,0.2-0.9,0.4-1.4
			c0.1-0.3,0.2-0.5,0.2-0.8c0.2-0.5,0.3-1,0.5-1.5c0.1-0.2,0.1-0.4,0.2-0.6c0.3-0.7,0.5-1.4,0.8-2.1c0-0.1,0.1-0.2,0.1-0.2
			c0.3-0.6,0.6-1.2,0.9-1.8c0.1-0.2,0.2-0.4,0.3-0.6c0.3-0.6,0.6-1.1,0.9-1.7c0.1-0.1,0.1-0.2,0.2-0.3c0.4-0.7,0.8-1.3,1.2-1.9
			c0.1-0.2,0.2-0.4,0.4-0.5c0.3-0.5,0.6-0.9,0.9-1.4c0.2-0.2,0.4-0.5,0.5-0.7c0.3-0.4,0.6-0.7,0.9-1.1c0.2-0.3,0.5-0.6,0.7-0.9
			c0.2-0.3,0.5-0.5,0.7-0.8c0.4-0.5,0.8-0.9,1.3-1.3c0.3-0.3,0.5-0.5,0.8-0.8c0.2-0.2,0.4-0.4,0.6-0.6c0.4-0.3,0.7-0.6,1.1-0.9
			c0.2-0.2,0.4-0.4,0.6-0.5c0.4-0.3,0.8-0.6,1.2-0.9c0.2-0.1,0.4-0.3,0.6-0.4c0.6-0.4,1.2-0.8,1.8-1.2l75.2-43.4
			c0.4-0.2,0.8-0.4,1.2-0.6C676.3,549.1,676.4,549,676.5,549z"/>
		<g>
			<linearGradient id="SVGID_11_" gradientUnits="userSpaceOnUse" x1="580.8311" y1="593.3555" x2="694.0417" y2="593.3555">
				<stop  offset="0" style="stop-color:#D7D8D5"/>
				<stop  offset="1" style="stop-color:#F6F6F9"/>
			</linearGradient>
			<path class="st15" d="M675,549.8c10.5-6.1,19-1.2,19.1,10.9c0,12.1-8.4,26.7-18.9,32.8l-75.2,43.4c-10.5,6.1-19,1.2-19.1-10.9
				s8.4-26.8,18.9-32.8L675,549.8z"/>
		</g>
	</g>
</g>
<linearGradient id="SVGID_12_" gradientUnits="userSpaceOnUse" x1="252.4669" y1="300.3556" x2="252.4669" y2="32.9165">
	<stop  offset="0" style="stop-color:#FFFFFF;stop-opacity:0"/>
	<stop  offset="1" style="stop-color:#FFBE24"/>
</linearGradient>
<path class="st16" d="M252.5,300.4L252.5,300.4c-12.5,0-22.8-10.2-22.8-22.8V55.7c0-12.5,10.2-22.8,22.8-22.8h0
	c12.5,0,22.8,10.2,22.8,22.8v221.9C275.2,290.1,265,300.4,252.5,300.4z"/>
<linearGradient id="SVGID_13_" gradientUnits="userSpaceOnUse" x1="111.9893" y1="560.7455" x2="111.9893" y2="293.3065">
	<stop  offset="0" style="stop-color:#FFFFFF;stop-opacity:0"/>
	<stop  offset="1" style="stop-color:#FFBE24"/>
</linearGradient>
<path class="st17" d="M112,560.7L112,560.7c-12.5,0-22.8-10.2-22.8-22.8V316.1c0-12.5,10.2-22.8,22.8-22.8h0
	c12.5,0,22.8,10.2,22.8,22.8V538C134.8,550.5,124.5,560.7,112,560.7z"/>
<linearGradient id="SVGID_14_" gradientUnits="userSpaceOnUse" x1="862.7141" y1="602.2591" x2="862.7141" y2="334.82">
	<stop  offset="0" style="stop-color:#FFFFFF;stop-opacity:0"/>
	<stop  offset="1" style="stop-color:#FFBE24"/>
</linearGradient>
<path class="st18" d="M862.7,602.3L862.7,602.3c-12.5,0-22.8-10.2-22.8-22.8V357.6c0-12.5,10.2-22.8,22.8-22.8h0
	c12.5,0,22.8,10.2,22.8,22.8v221.9C885.5,592,875.2,602.3,862.7,602.3z"/>
</svg>
