<?xml version="1.0" encoding="utf-8"?>
<!-- Generator: Adobe Illustrator 21.0.0, SVG Export Plug-In . SVG Version: 6.00 Build 0)  -->
<svg version="1.1" xmlns="http://www.w3.org/2000/svg" xmlns:xlink="http://www.w3.org/1999/xlink" x="0px" y="0px"
	 viewBox="0 0 1024 1024" style="enable-background:new 0 0 1024 1024;" xml:space="preserve">
<style type="text/css">
	.st0{display:none;}
	.st1{display:inline;}
	.st2{opacity:0.25;}
	.st3{display:inline;opacity:0.25;}
	.st4{fill:#E5AD65;}
	.st5{enable-background:new    ;}
	.st6{fill:url(#SVGID_1_);}
	.st7{fill:url(#SVGID_2_);}
	.st8{fill:url(#SVGID_3_);}
	.st9{fill:url(#SVGID_4_);}
	.st10{fill:url(#SVGID_5_);}
	.st11{fill:#FDFDFD;}
	.st12{fill:url(#SVGID_6_);}
	.st13{fill:url(#SVGID_7_);}
	.st14{fill:url(#SVGID_8_);}
	.st15{fill:url(#SVGID_9_);}
	.st16{fill:url(#SVGID_10_);}
	.st17{fill:#FFFFFF;}
	.st18{fill:url(#SVGID_11_);}
	.st19{fill:url(#SVGID_12_);}
	.st20{fill:url(#SVGID_13_);}
	.st21{fill:url(#SVGID_14_);}
	.st22{fill:url(#SVGID_15_);}
	.st23{fill:url(#SVGID_16_);}
	.st24{fill:url(#SVGID_17_);}
	.st25{fill:url(#SVGID_18_);}
	.st26{fill:url(#SVGID_19_);}
</style>
<g id="图层_1" class="st0">
	<g id="bg">
		<g id="图层_2" class="st1">
			<g id="图标参考线">
				<g id="图标尺寸" class="st2">
					<path d="M1018.2,5.8v1012.5H5.8V5.8H1018.2 M1024,0H0v1024h1024V0z"/>
					<path d="M512,28.8c266.9,0,483.2,216.4,483.2,483.2S778.9,995.2,512,995.2S28.8,778.9,28.8,512S245.1,28.8,512,28.8 M512,23
						C241.9,23,23,241.9,23,512s218.9,489,489,489s489-218.9,489-489C1000.7,242,782,23.3,512,23z"/>
					<path d="M949.2,74.8v874.4H74.8V74.8H949.2 M955,69H69v886h886V69z"/>
					<path d="M995.2,28.8v966.5H28.8V28.8H995.2 M1001,23H23v978h978V23z"/>
					<path d="M995.2,189.8v644.3H28.8V189.8H995.2 M1001,184.1H23v655.8h978V184.1z"/>
				</g>
			</g>
		</g>
	</g>
	<g id="图标尺寸_1_" class="st3">
		<g>
			<path d="M1017.1,4.6v1010.2H6.9V4.6L1017.1,4.6 M1021.7,0h-6.9H4.6H0v6.9v1010.2v6.9h6.9h1010.2h6.9v-6.9V6.9V0H1021.7z"/>
		</g>
		<g>
			<path d="M512,27.6c266.3,0,482.2,215.8,482.2,482.2S778.3,991.9,512,991.9S29.8,776.1,29.8,509.7S245.7,27.6,512,27.6 M512,23
				c-268.6,0-489,218.1-489,486.7s218.1,486.7,489,486.7s489-218.1,489-486.7S780.6,23,512,23L512,23z"/>
		</g>
		<g>
			<path d="M948.2,73.5V946H75.8V73.5L948.2,73.5 M952.8,68.9h-6.9H73.5h-4.6v6.9v872.5v6.9h6.9h872.5h6.9v-6.9V75.8v-6.9H952.8z"/>
		</g>
		<g>
			<path d="M994.1,27.6v964.3H29.8V27.6L994.1,27.6 M998.7,23h-6.9H27.5h-4.6v6.9v964.3v6.9h6.9h964.3h6.9v-6.9V29.9V23H998.7z"/>
		</g>
		<g>
			<path d="M994.1,188.3v642.9H29.8V188.3L994.1,188.3 M998.7,183.7h-6.9H27.5h-4.6v4.6v642.9v6.9h6.9h964.3h6.9v-6.9V188.3v-4.6
				H998.7z"/>
		</g>
	</g>
</g>
<g id="图层_2_1_">
	<g>
		<line class="st4" x1="844.5" y1="861.6" x2="849.4" y2="861.9"/>
		<g>
			<g class="st5">
				<linearGradient id="SVGID_1_" gradientUnits="userSpaceOnUse" x1="302.6895" y1="893.3763" x2="673.2862" y2="893.3763">
					<stop  offset="0" style="stop-color:#D7D8D5"/>
					<stop  offset="1" style="stop-color:#EDEDEE"/>
				</linearGradient>
				<path class="st6" d="M672.9,809.7c0,0.1,0,0.2-0.1,0.2c-0.2,0.7-0.6,1.3-1,2c-0.1,0.1-0.2,0.2-0.2,0.3c-0.5,0.6-1,1.3-1.7,1.9
					c-0.4,0.4-1,0.7-1.5,1.1c-0.4,0.3-0.8,0.6-1.3,0.9L474.3,928.2c-1.3,0.7-2.7,1.3-4.2,1.9c-0.5,0.2-1.1,0.3-1.6,0.5
					c-0.7,0.2-1.4,0.4-2.1,0.5c-0.8,0.2-1.7,0.3-2.6,0.4c-0.2,0-0.4,0.1-0.6,0.1c-1.2,0.1-2.4,0.2-3.6,0.2c-0.2,0-0.4,0-0.6,0
					c-1.2,0-2.4-0.1-3.6-0.2c-0.2,0-0.4,0-0.5-0.1c-1.2-0.1-2.3-0.3-3.4-0.6c-0.2,0-0.4-0.1-0.6-0.1c-1-0.3-2-0.6-3-0.9
					c-0.2-0.1-0.4-0.1-0.5-0.2c-1.1-0.4-2.2-0.9-3.3-1.5l-134.9-77.9c-4.2-2.4-6.3-5.6-6.3-8.8l-0.1,47.5c0,3.2,2.1,6.4,6.3,8.8
					l134.9,77.9c1,0.6,2,1,3.1,1.5c0.1,0,0.1,0,0.2,0.1c0.2,0.1,0.4,0.1,0.5,0.2c0.6,0.2,1.2,0.4,1.9,0.6c0.4,0.1,0.7,0.2,1.1,0.3
					c0.2,0.1,0.4,0.1,0.6,0.1c0.2,0,0.4,0.1,0.5,0.1c0.7,0.1,1.4,0.3,2.1,0.4c0.3,0,0.5,0.1,0.8,0.1c0.2,0,0.3,0,0.5,0.1
					c0.3,0,0.5,0.1,0.8,0.1c0.7,0.1,1.4,0.1,2.1,0.1c0.2,0,0.5,0,0.7,0c0.2,0,0.4,0,0.6,0c0.3,0,0.6,0,0.9,0c0.8,0,1.6-0.1,2.4-0.2
					c0.1,0,0.2,0,0.3,0c0.2,0,0.4-0.1,0.7-0.1c0.6-0.1,1.2-0.1,1.8-0.2c0.3,0,0.5-0.1,0.8-0.2c0.7-0.2,1.4-0.3,2.2-0.5
					c0.4-0.1,0.8-0.2,1.1-0.3c0.2-0.1,0.3-0.2,0.5-0.2c1.5-0.5,2.9-1.1,4.2-1.9l192.8-112.1c0.1-0.1,0.2-0.1,0.3-0.2
					c0.4-0.2,0.7-0.5,1.1-0.8c0.5-0.4,1.1-0.7,1.5-1.1c0,0,0.1-0.1,0.1-0.1c0.5-0.5,0.9-0.9,1.3-1.4c0.1-0.1,0.1-0.2,0.2-0.3
					c0.1-0.1,0.2-0.2,0.2-0.3c0.1-0.2,0.3-0.4,0.4-0.6c0.2-0.4,0.4-0.8,0.6-1.2c0-0.1,0-0.1,0.1-0.2c0-0.1,0-0.2,0.1-0.2
					c0.1-0.3,0.2-0.5,0.2-0.8c0.1-0.4,0.1-0.8,0.1-1.2c0-0.1,0-0.1,0-0.2l0.1-47.5C673.3,808.2,673.1,808.9,672.9,809.7z"/>
				<g>
					<g>
						<linearGradient id="SVGID_2_" gradientUnits="userSpaceOnUse" x1="302.8239" y1="824.4838" x2="673.2863" y2="824.4838">
							<stop  offset="0" style="stop-color:#F1EDEC"/>
							<stop  offset="1" style="stop-color:#ECECEA"/>
						</linearGradient>
						<path class="st7" d="M667,798.7c8.4,4.8,8.4,12.7,0.1,17.5L474.3,928.2c-8.3,4.8-21.8,4.8-30.2,0l-134.9-77.9
							c-8.4-4.8-8.4-12.7-0.1-17.5l192.8-112.1c8.3-4.8,21.8-4.8,30.2,0L667,798.7z"/>
					</g>
				</g>
			</g>
		</g>
		<g>
			<g class="st5">
				<linearGradient id="SVGID_3_" gradientUnits="userSpaceOnUse" x1="383.91" y1="721.4228" x2="577.0787" y2="721.4228">
					<stop  offset="0" style="stop-color:#D7D8D5"/>
					<stop  offset="1" style="stop-color:#F6F6F9"/>
				</linearGradient>
				<path class="st8" d="M570.4,579.1c0.8-0.2,1.5-0.4,2.2-0.5c0.1,0,0.1,0,0.2,0c0.8-0.1,1.5,0,2.2,0.1c0,0,0.1,0,0.1,0
					c0.7,0.2,1.4,0.4,2,0.7l-41-23.8c0,0-0.1,0-0.1,0c-0.2-0.1-0.5-0.2-0.7-0.3c-0.2-0.1-0.5-0.2-0.7-0.3c-0.2,0-0.3-0.1-0.5-0.1
					c0,0-0.1,0-0.1,0c-0.1,0-0.1,0-0.2,0c-0.3,0-0.5-0.1-0.8-0.1c-0.3,0-0.6,0-0.9,0c-0.1,0-0.2,0-0.3,0c-0.1,0-0.1,0-0.2,0
					c-0.2,0-0.4,0-0.5,0.1c-0.4,0.1-0.8,0.1-1.2,0.3c-0.2,0-0.3,0.1-0.5,0.2c-0.2,0-0.3,0.1-0.5,0.2c-0.2,0.1-0.4,0.1-0.6,0.2
					c-0.6,0.3-1.2,0.6-1.9,0.9L397.5,631c-0.9,0.5-1.7,1.1-2.5,1.8c-0.3,0.2-0.5,0.5-0.8,0.7c-0.4,0.3-0.8,0.7-1.2,1
					c-0.2,0.2-0.4,0.4-0.5,0.6c-0.2,0.2-0.3,0.3-0.5,0.5c-0.2,0.2-0.3,0.3-0.5,0.5c-0.4,0.4-0.8,0.9-1.1,1.4
					c-0.1,0.2-0.3,0.3-0.4,0.5c-0.1,0.1-0.1,0.2-0.2,0.3c-0.1,0.2-0.2,0.3-0.3,0.5c-0.3,0.4-0.5,0.8-0.8,1.2
					c-0.2,0.4-0.5,0.8-0.7,1.2c0,0,0,0.1-0.1,0.1c0,0,0,0.1-0.1,0.1c-0.2,0.3-0.4,0.6-0.5,1c-0.2,0.4-0.4,0.8-0.6,1.2
					c-0.2,0.3-0.3,0.7-0.5,1c0,0,0,0,0,0.1c0,0,0,0.1,0,0.1c-0.2,0.4-0.3,0.8-0.5,1.2c-0.2,0.4-0.3,0.9-0.5,1.3
					c-0.1,0.2-0.1,0.4-0.2,0.6c0,0.1-0.1,0.2-0.1,0.3c0,0.2-0.1,0.3-0.2,0.5c-0.1,0.5-0.3,1-0.4,1.6c-0.1,0.3-0.1,0.6-0.2,0.9
					c0,0.2-0.1,0.3-0.1,0.5c0,0.2-0.1,0.3-0.1,0.5c-0.1,0.9-0.2,1.8-0.2,2.6l0.6,201c0,4.3,1.5,7.3,4,8.7l41,23.8
					c-2.4-1.4-4-4.4-4-8.7l-0.6-201c0-1,0.1-2.1,0.3-3.1c0-0.2,0.1-0.3,0.1-0.5c0.2-1,0.4-2,0.7-3c0-0.1,0.1-0.2,0.1-0.3
					c0.3-1.1,0.7-2.1,1.2-3.2c0,0,0,0,0-0.1c0.5-1.1,1-2.1,1.6-3.2c0,0,0-0.1,0.1-0.1c0.6-1,1.2-2,1.9-2.9c0.1-0.1,0.1-0.2,0.2-0.3
					c0.6-0.8,1.3-1.6,2-2.4c0.1-0.2,0.3-0.3,0.5-0.5c0.6-0.6,1.1-1.1,1.7-1.6c0.3-0.2,0.5-0.5,0.8-0.7c0.8-0.7,1.7-1.3,2.5-1.8
					l128.9-74.4c0.9-0.5,1.7-0.9,2.5-1.1C570.1,579.3,570.2,579.2,570.4,579.1z"/>
				<g>
					<g>
						<linearGradient id="SVGID_4_" gradientUnits="userSpaceOnUse" x1="424.9489" y1="733.809" x2="581.6315" y2="733.809">
							<stop  offset="0" style="stop-color:#FBFBFB"/>
							<stop  offset="1" style="stop-color:#FBFBFB"/>
						</linearGradient>
						<path class="st9" d="M567.4,580.5c7.5-4.3,13.6-0.8,13.7,7.8l0.6,201c0,8.6-6.1,19.2-13.6,23.5l-128.9,74.4
							c-7.5,4.3-13.6,0.8-13.7-7.8l-0.6-201c0-8.6,6.1-19.2,13.6-23.5L567.4,580.5z"/>
					</g>
				</g>
			</g>
		</g>
		<g>
			<g>
				<linearGradient id="SVGID_5_" gradientUnits="userSpaceOnUse" x1="135.863" y1="459.0637" x2="740.8298" y2="459.0637">
					<stop  offset="0" style="stop-color:#D7D8D5"/>
					<stop  offset="1" style="stop-color:#F6F6F9"/>
				</linearGradient>
				<path class="st10" d="M720.1,80.3c0.9-0.3,1.8-0.7,2.7-0.9c0.6-0.2,1.1-0.3,1.7-0.5c0.5-0.1,1-0.2,1.5-0.3
					c0.7-0.1,1.4-0.2,2-0.3c0.4,0,0.8-0.1,1.1-0.1c0.8-0.1,1.7-0.1,2.5,0c0.2,0,0.3,0,0.5,0c1,0.1,1.9,0.2,2.8,0.4
					c0.2,0,0.5,0.1,0.7,0.2c0.7,0.2,1.4,0.4,2.1,0.6c0.2,0.1,0.4,0.1,0.6,0.2c0.9,0.3,1.7,0.7,2.5,1.2l-41-23.8
					c-0.1,0-0.1-0.1-0.2-0.1c-0.6-0.3-1.3-0.7-1.9-0.9c-0.1,0-0.2-0.1-0.4-0.1c-0.2-0.1-0.4-0.2-0.6-0.2c-0.3-0.1-0.7-0.3-1-0.4
					c-0.3-0.1-0.7-0.2-1.1-0.2c-0.2-0.1-0.5-0.1-0.7-0.2c-0.1,0-0.3-0.1-0.4-0.1c-0.8-0.1-1.5-0.2-2.3-0.3c0,0-0.1,0-0.1,0
					c-0.2,0-0.3,0-0.5,0c-0.6,0-1.3,0-1.9,0c-0.2,0-0.4,0-0.6,0.1c-0.4,0-0.8,0.1-1.1,0.1c-0.4,0-0.7,0.1-1.1,0.1
					c-0.3,0-0.6,0.1-0.9,0.2c-0.5,0.1-1,0.2-1.6,0.3c-0.3,0.1-0.6,0.1-0.9,0.2c-0.3,0.1-0.6,0.2-0.8,0.3c-0.9,0.3-1.8,0.6-2.7,0.9
					c-0.3,0.1-0.6,0.2-1,0.3c-0.2,0.1-0.4,0.2-0.5,0.3c-1.6,0.7-3.1,1.4-4.7,2.4L173.7,347.5c-1.2,0.7-2.4,1.5-3.6,2.3
					c-0.4,0.3-0.8,0.6-1.1,0.8c-0.8,0.6-1.6,1.2-2.4,1.8c-0.4,0.3-0.9,0.7-1.3,1.1c-0.7,0.6-1.4,1.2-2.1,1.9
					c-0.4,0.4-0.9,0.8-1.3,1.2c-0.3,0.2-0.5,0.5-0.8,0.7c-0.3,0.3-0.5,0.6-0.8,0.9c-0.9,0.9-1.7,1.8-2.5,2.7
					c-0.3,0.3-0.5,0.5-0.8,0.8c-0.2,0.3-0.4,0.5-0.7,0.8c-0.5,0.6-1,1.2-1.5,1.8c-0.3,0.4-0.6,0.8-0.9,1.1c-0.3,0.3-0.5,0.7-0.8,1
					c-0.4,0.5-0.7,1-1.1,1.5c-0.2,0.3-0.5,0.6-0.7,1c-0.4,0.6-0.8,1.2-1.2,1.7c-0.2,0.4-0.5,0.7-0.7,1.1c-0.1,0.2-0.2,0.3-0.3,0.5
					c-0.7,1.1-1.3,2.1-2,3.2c0,0.1-0.1,0.1-0.1,0.2c-0.1,0.2-0.2,0.4-0.4,0.6c-0.4,0.8-0.9,1.6-1.3,2.4c-0.2,0.4-0.4,0.7-0.5,1.1
					c-0.2,0.4-0.4,0.8-0.6,1.2c-0.2,0.3-0.4,0.7-0.5,1c-0.4,0.8-0.8,1.7-1.2,2.6c-0.1,0.2-0.2,0.4-0.3,0.6c0,0.1-0.1,0.1-0.1,0.2
					c-0.5,1.1-1,2.3-1.4,3.4c-0.1,0.2-0.1,0.4-0.2,0.6c-0.2,0.4-0.3,0.8-0.4,1.2c-0.2,0.6-0.4,1.2-0.6,1.8c-0.1,0.4-0.3,0.8-0.4,1.3
					c-0.2,0.5-0.3,1.1-0.5,1.6c-0.1,0.3-0.2,0.7-0.3,1c-0.2,0.6-0.3,1.1-0.4,1.7c-0.2,0.6-0.3,1.3-0.5,1.9c-0.1,0.2-0.1,0.5-0.2,0.7
					c-0.1,0.5-0.1,0.9-0.2,1.4c-0.2,1-0.4,2-0.5,3c0,0.3-0.1,0.6-0.1,0.9c0,0.3,0,0.5-0.1,0.8c-0.3,2.2-0.4,4.4-0.4,6.6l1.1,402.8
					c0,11.9,4.3,20.3,11.1,24.2l41,23.8c-6.8-4-11.1-12.4-11.1-24.2l-1.1-402.8c0-2.1,0.2-4.3,0.4-6.6c0.1-0.5,0.1-1.1,0.2-1.6
					c0.1-1,0.3-2,0.5-3c0.1-0.7,0.3-1.4,0.4-2.1c0.1-0.6,0.3-1.3,0.5-1.9c0.2-0.9,0.5-1.8,0.7-2.7c0.2-0.5,0.3-1,0.5-1.6
					c0.3-1,0.7-2,1-3.1c0.1-0.4,0.3-0.8,0.4-1.2c0.5-1.4,1.1-2.8,1.7-4.2c0.1-0.2,0.2-0.4,0.3-0.6c0.5-1.2,1.1-2.4,1.7-3.6
					c0.2-0.4,0.4-0.8,0.6-1.1c0.6-1.2,1.2-2.3,1.9-3.4c0.1-0.2,0.2-0.4,0.4-0.7c0.8-1.3,1.6-2.6,2.4-3.9c0.2-0.4,0.5-0.7,0.7-1.1
					c0.6-0.9,1.2-1.8,1.9-2.7c0.3-0.5,0.7-1,1.1-1.4c0.6-0.7,1.1-1.5,1.7-2.2c0.5-0.6,1-1.2,1.5-1.8c0.5-0.6,1-1.1,1.5-1.7
					c0.8-0.9,1.7-1.8,2.5-2.7c0.5-0.5,1.1-1.1,1.6-1.6c0.4-0.4,0.8-0.8,1.3-1.2c0.7-0.6,1.4-1.3,2.2-1.9c0.4-0.4,0.9-0.7,1.3-1.1
					c0.8-0.6,1.6-1.2,2.4-1.8c0.4-0.3,0.8-0.6,1.1-0.8c1.2-0.8,2.4-1.6,3.6-2.3L713.9,83.2c1.6-0.9,3.2-1.7,4.7-2.3
					C719.1,80.6,719.6,80.5,720.1,80.3z"/>
				<g>
					<path class="st11" d="M713.9,83.2c20.9-12,38-2.3,38.1,21.7l1.1,402.8c0.1,23.9-16.9,53.4-37.8,65.5L216.1,861.3
						c-20.9,12-38,2.3-38.1-21.7l-1.1-402.8c-0.1-23.9,16.9-53.4,37.8-65.5L713.9,83.2z"/>
				</g>
			</g>
		</g>
		<linearGradient id="SVGID_6_" gradientUnits="userSpaceOnUse" x1="215.6607" y1="473.4665" x2="730.7393" y2="473.4665">
			<stop  offset="0" style="stop-color:#00AB7E"/>
			<stop  offset="1" style="stop-color:#00C692"/>
		</linearGradient>
		<path class="st12" d="M729.8,161.2c-0.1-19.5-14-27.5-31-17.7l-45.5,26.2c-0.3,0.1-0.5,0.2-0.8,0.4L246.4,404.7
			c-17,9.8-30.8,33.8-30.8,53.3l0.9,327.8c0.1,19.5,14,27.5,31,17.7l45.5-26.2c0.3-0.1,0.5-0.2,0.8-0.4L700,542.3
			c17-9.8,30.8-33.8,30.8-53.3L729.8,161.2z"/>
		<g>
			<g class="st5">
				<linearGradient id="SVGID_7_" gradientUnits="userSpaceOnUse" x1="590.9256" y1="761.6968" x2="950.7311" y2="761.6968">
					<stop  offset="0" style="stop-color:#D7D8D5"/>
					<stop  offset="1" style="stop-color:#F6F6F9"/>
				</linearGradient>
				<path class="st13" d="M950.3,733.4c0,0.1,0,0.2-0.1,0.3c-0.3,0.7-0.6,1.5-1.1,2.2c-0.1,0.1-0.2,0.3-0.3,0.4
					c-0.5,0.7-1.1,1.4-1.8,2c-0.5,0.4-1,0.8-1.6,1.2c-0.5,0.4-0.9,0.7-1.5,1.1l-111.3,64.7c-1.4,0.8-2.9,1.4-4.5,2
					c-0.6,0.2-1.2,0.4-1.8,0.5c-0.8,0.2-1.5,0.4-2.3,0.6c-0.9,0.2-1.9,0.4-2.9,0.5c-0.2,0-0.4,0.1-0.7,0.1c-1.3,0.1-2.6,0.2-3.9,0.2
					c-0.2,0-0.4,0-0.6,0c-1.3,0-2.6-0.1-3.9-0.2c-0.2,0-0.4,0-0.6-0.1c-1.3-0.2-2.5-0.4-3.8-0.6c-0.2,0-0.4-0.1-0.7-0.2
					c-1.1-0.3-2.2-0.6-3.2-1c-0.2-0.1-0.4-0.1-0.6-0.2c-1.2-0.5-2.4-1-3.5-1.7L597.9,688.6c-4.6-2.6-6.8-6.1-6.8-9.6l-0.1,35.2
					c0,3.5,2.3,7,6.8,9.6l201.9,116.6c1,0.6,2.1,1.1,3.3,1.6v0l0,0v0c0.1,0,0.1,0,0.2,0.1c0.2,0.1,0.4,0.1,0.6,0.2
					c0.7,0.2,1.3,0.5,2,0.7c0.4,0.1,0.8,0.2,1.2,0.3c0.2,0.1,0.4,0.1,0.7,0.2c0.2,0,0.4,0.1,0.6,0.1c0.8,0.2,1.5,0.3,2.3,0.4
					c0.3,0,0.6,0.1,0.9,0.1c0.2,0,0.4,0,0.6,0.1c0.3,0,0.5,0.1,0.8,0.1c0.8,0.1,1.5,0.1,2.3,0.1c0.2,0,0.5,0,0.7,0
					c0.2,0,0.4,0,0.6,0c0.4,0,0.7,0,1.1,0c0.9,0,1.7-0.1,2.6-0.2c0.1,0,0.2,0,0.3,0c0.2,0,0.4-0.1,0.7-0.1c0.7-0.1,1.4-0.2,2-0.3
					c0.3-0.1,0.5-0.1,0.8-0.2c0.8-0.2,1.6-0.4,2.3-0.6c0.4-0.1,0.8-0.2,1.2-0.3c0.2-0.1,0.3-0.2,0.5-0.2c1.6-0.6,3.2-1.2,4.5-2
					l111.3-64.7c0.1-0.1,0.2-0.1,0.3-0.2c0.5-0.3,0.8-0.6,1.2-0.9c0.5-0.4,1.1-0.7,1.6-1.2c0,0,0.1-0.1,0.1-0.1c0.5-0.5,1-1,1.4-1.5
					c0.1-0.1,0.2-0.3,0.3-0.4c0.1-0.1,0.2-0.3,0.3-0.4c0.1-0.2,0.3-0.4,0.4-0.6c0.2-0.4,0.5-0.9,0.6-1.3c0-0.1,0-0.1,0.1-0.2
					c0-0.1,0-0.2,0.1-0.3c0.1-0.3,0.2-0.6,0.2-0.8c0.1-0.4,0.1-0.9,0.2-1.3c0-0.1,0-0.1,0-0.2l0.1-35.2
					C950.7,731.9,950.6,732.7,950.3,733.4z"/>
				<g>
					<linearGradient id="SVGID_8_" gradientUnits="userSpaceOnUse" x1="591.0255" y1="705.0513" x2="950.731" y2="705.0513">
						<stop  offset="0" style="stop-color:#F6F6F9"/>
						<stop  offset="1" style="stop-color:#D7D8D5"/>
					</linearGradient>
					<path class="st14" d="M943.9,721.5c9.1,5.2,9.1,13.8,0.1,19.1l-111.3,64.7c-9,5.2-23.9,5.2-32.9,0L597.9,688.6
						c-9.1-5.2-9.1-13.8-0.1-19.1l111.3-64.7c9-5.2,23.9-5.2,32.9,0L943.9,721.5z"/>
				</g>
			</g>
		</g>
		<g>
			<linearGradient id="SVGID_9_" gradientUnits="userSpaceOnUse" x1="612.9874" y1="692.5856" x2="891.3904" y2="692.5856">
				<stop  offset="0" style="stop-color:#00AB7E"/>
				<stop  offset="1" style="stop-color:#00C692"/>
			</linearGradient>
			<path class="st15" d="M886,700c7.1,4.1,7.2,10.8,0.1,15l-94.8,55.1c-7.1,4.1-18.7,4.1-25.8,0l-147-84.9c-7.1-4.1-7.2-10.8-0.1-15
				l94.8-55.1c7.1-4.1,18.7-4.1,25.8,0L886,700z"/>
		</g>
		<g>
			<g class="st5">
				<linearGradient id="SVGID_10_" gradientUnits="userSpaceOnUse" x1="840.9923" y1="761.3978" x2="888.9417" y2="761.3978">
					<stop  offset="0" style="stop-color:#D7D8D5"/>
					<stop  offset="1" style="stop-color:#F6F6F9"/>
				</linearGradient>
				<path class="st16" d="M888.5,755.3c0,0.1,0,0.2-0.1,0.3c-0.3,0.8-0.7,1.5-1.1,2.2c-0.1,0.1-0.2,0.3-0.3,0.4
					c-0.5,0.7-1.2,1.4-1.9,2.1c-0.5,0.4-1.1,0.8-1.7,1.2c-0.5,0.4-0.9,0.7-1.5,1.1c-1.4,0.8-3,1.5-4.7,2.1c-0.6,0.2-1.2,0.4-1.8,0.5
					c-0.8,0.2-1.6,0.4-2.4,0.6c-1,0.2-1.9,0.4-2.9,0.5c-0.2,0-0.5,0.1-0.7,0.1c-1.3,0.1-2.7,0.2-4,0.2c-0.2,0-0.4,0-0.6,0
					c-1.3,0-2.7-0.1-4-0.2c-0.2,0-0.4,0-0.6-0.1c-1.3-0.2-2.6-0.4-3.9-0.7c-0.2-0.1-0.5-0.1-0.7-0.2c-1.1-0.3-2.2-0.6-3.3-1
					c-0.2-0.1-0.4-0.1-0.6-0.2c-1.3-0.5-2.5-1.1-3.6-1.7c-3.5-2-5.8-4.6-6.6-7.2c-0.3-0.9-0.4-1.8-0.4-2.7v0l0,0l0,3.5
					c0,3.6,2.3,7.2,7.1,9.9c1.1,0.6,2.2,1.2,3.4,1.7c0.1,0,0.1,0,0.2,0.1c0.2,0.1,0.4,0.1,0.6,0.2c0.7,0.3,1.4,0.5,2.1,0.7
					c0.4,0.1,0.8,0.2,1.2,0.3c0.2,0.1,0.5,0.1,0.7,0.2c0.2,0,0.4,0.1,0.6,0.1c0.8,0.2,1.6,0.3,2.4,0.4c0.3,0,0.6,0.1,0.9,0.1
					c0.2,0,0.4,0,0.6,0.1c0.3,0,0.6,0.1,0.9,0.1c0.8,0.1,1.6,0.1,2.4,0.1c0.2,0,0.5,0,0.7,0c0.2,0,0.4,0,0.6,0c0.4,0,0.7,0,1.1,0
					c0.9,0,1.8-0.1,2.7-0.2c0.1,0,0.2,0,0.3,0c0.2,0,0.5-0.1,0.7-0.1c0.7-0.1,1.4-0.2,2.1-0.3c0.3-0.1,0.6-0.2,0.9-0.2
					c0.8-0.2,1.6-0.4,2.4-0.6c0.4-0.1,0.9-0.2,1.3-0.3c0.2-0.1,0.3-0.2,0.5-0.2c1.7-0.6,3.3-1.2,4.7-2.1c0.1-0.1,0.2-0.1,0.3-0.2
					c0.5-0.3,0.8-0.6,1.2-0.9c0.6-0.4,1.2-0.8,1.7-1.2c0,0,0.1-0.1,0.2-0.1c0.6-0.5,1.1-1.1,1.5-1.6c0.1-0.1,0.2-0.3,0.3-0.4
					c0.1-0.1,0.2-0.3,0.3-0.4c0.1-0.2,0.3-0.4,0.4-0.7c0.3-0.4,0.5-0.9,0.6-1.4c0-0.1,0-0.1,0.1-0.2c0-0.1,0-0.2,0.1-0.3
					c0.1-0.3,0.2-0.6,0.3-0.9c0.1-0.5,0.1-0.9,0.2-1.4c0-0.1,0-0.1,0-0.2l0-3.5C888.9,753.6,888.8,754.5,888.5,755.3z"/>
				<g>
					<path class="st17" d="M881.9,742.9c9.4,5.4,9.5,14.2,0.1,19.6c-9.3,5.4-24.5,5.4-33.9,0c-9.4-5.4-9.4-14.2-0.1-19.6
						C857.3,737.5,872.5,737.5,881.9,742.9z"/>
				</g>
			</g>
		</g>
		<g>
			<linearGradient id="SVGID_11_" gradientUnits="userSpaceOnUse" x1="366.7908" y1="459.9807" x2="611.0059" y2="459.9807">
				<stop  offset="0" style="stop-color:#D6D9E4"/>
				<stop  offset="1" style="stop-color:#F9F9FB"/>
			</linearGradient>
			<path class="st18" d="M399.8,538.7c0.1-1.7,0.1-3.5,0.3-5.2c0-0.3,0-0.6,0.1-0.9c0.1-1.6,0.2-3.3,0.4-4.9c0-0.3,0-0.5,0.1-0.8
				c0.2-1.8,0.4-3.6,0.6-5.4c0.1-0.5,0.1-1,0.2-1.5c0.1-0.8,0.2-1.6,0.3-2.4c0.1-0.6,0.2-1.1,0.3-1.7c0.1-0.8,0.3-1.6,0.4-2.4
				c0.1-0.6,0.2-1.1,0.3-1.7c0.1-0.9,0.3-1.7,0.5-2.6c0.1-0.5,0.2-1,0.3-1.5c0.2-1,0.4-2,0.6-3c0.1-0.4,0.1-0.7,0.2-1.1
				c0.1-0.4,0.2-0.8,0.3-1.1c0.2-0.9,0.4-1.7,0.6-2.6c0.1-0.5,0.2-1,0.3-1.5c0.2-0.8,0.4-1.5,0.5-2.3c0.1-0.5,0.3-1,0.4-1.6
				c0.2-0.7,0.4-1.4,0.6-2.2c0.1-0.5,0.3-1.1,0.4-1.6c0.2-0.6,0.3-1.2,0.5-1.8c0.5-1.8,1-3.7,1.6-5.5c0.1-0.3,0.2-0.6,0.3-1
				c0.5-1.7,1.1-3.5,1.7-5.2c0.1-0.2,0.1-0.5,0.2-0.7c0.6-1.7,1.2-3.4,1.8-5.1c0.1-0.4,0.3-0.8,0.4-1.2c0.6-1.6,1.1-3.1,1.7-4.6
				c0.1-0.2,0.2-0.4,0.2-0.6c0.6-1.6,1.3-3.3,1.9-4.9c0.2-0.4,0.3-0.8,0.5-1.3c0.6-1.4,1.1-2.7,1.7-4.1c0.1-0.3,0.3-0.7,0.4-1
				c0.7-1.6,1.4-3.2,2.1-4.8c0.2-0.4,0.3-0.7,0.5-1.1c0.6-1.3,1.2-2.6,1.8-3.8c0.2-0.4,0.4-0.8,0.6-1.3c0.8-1.6,1.5-3.1,2.3-4.7
				c0.1-0.2,0.2-0.3,0.3-0.5c0.7-1.4,1.4-2.8,2.2-4.2c0.2-0.4,0.5-0.9,0.7-1.3c0.7-1.4,1.5-2.7,2.2-4.1c0.1-0.2,0.2-0.4,0.4-0.7
				c0.9-1.5,1.7-3.1,2.6-4.6c0.2-0.4,0.5-0.8,0.7-1.2c0.8-1.3,1.5-2.6,2.3-3.9c0.2-0.3,0.4-0.6,0.6-1c0.9-1.5,1.9-3.1,2.9-4.6
				c0.2-0.3,0.4-0.7,0.6-1c0.9-1.4,1.8-2.8,2.7-4.2c0.2-0.3,0.4-0.6,0.6-0.8c1-1.6,2.1-3.1,3.2-4.6c0.2-0.3,0.5-0.7,0.7-1
				c1.2-1.7,2.4-3.4,3.6-5.1c0,0,0-0.1,0.1-0.1c1.2-1.7,2.5-3.3,3.7-4.9c0.2-0.3,0.4-0.6,0.7-0.9c1.4-1.8,2.9-3.7,4.3-5.5
				c0.2-0.3,0.4-0.5,0.6-0.8c1.5-1.8,2.9-3.5,4.4-5.3c0.3-0.3,0.6-0.7,0.9-1c0.7-0.8,1.4-1.6,2.1-2.3c0.3-0.4,0.7-0.7,1-1.1
				c0.9-1,1.9-2,2.8-3c0.1-0.1,0.2-0.2,0.3-0.3c1-1.1,2.1-2.2,3.1-3.3c0.3-0.3,0.6-0.7,1-1c0.7-0.8,1.5-1.5,2.2-2.2
				c0.5-0.5,1-1,1.5-1.5c0.3-0.3,0.7-0.6,1-1c0.6-0.6,1.3-1.2,1.9-1.8c0.3-0.2,0.5-0.5,0.8-0.7c0.9-0.8,1.8-1.7,2.7-2.5
				c0.1-0.1,0.3-0.3,0.4-0.4c0.8-0.7,1.5-1.4,2.3-2c0.3-0.3,0.6-0.6,1-0.8c0.6-0.5,1.2-1.1,1.8-1.6c0.4-0.3,0.7-0.6,1.1-0.9
				c0.6-0.5,1.2-1,1.8-1.5c0.4-0.3,0.7-0.6,1.1-0.9c0.6-0.5,1.2-1,1.8-1.5c0.3-0.3,0.7-0.5,1-0.8c0.8-0.6,1.5-1.2,2.3-1.7
				c0.2-0.2,0.4-0.3,0.6-0.5c1-0.7,1.9-1.4,2.9-2.1c0.3-0.2,0.5-0.4,0.8-0.6c0.7-0.5,1.4-1,2.1-1.5c0.4-0.2,0.7-0.5,1.1-0.7
				c0.6-0.4,1.2-0.9,1.9-1.3c0.4-0.3,0.8-0.5,1.1-0.7c0.6-0.4,1.2-0.8,1.9-1.2c0.4-0.2,0.7-0.5,1.1-0.7c0.7-0.4,1.3-0.8,2-1.3
				c0.3-0.2,0.6-0.4,1-0.6c1-0.6,2-1.2,3-1.8c1.3-0.8,2.6-1.5,3.9-2.2c0.4-0.2,0.8-0.4,1.1-0.6c1-0.5,2-1,3-1.5
				c0.3-0.2,0.7-0.3,1-0.5c1.3-0.6,2.6-1.2,3.8-1.8c0.2-0.1,0.4-0.2,0.6-0.3c1.1-0.5,2.2-1,3.2-1.4c0.4-0.2,0.8-0.3,1.2-0.5
				c0.7-0.3,1.5-0.6,2.2-0.9c0.4-0.2,0.8-0.3,1.2-0.5c0.8-0.3,1.6-0.6,2.5-0.9c0.3-0.1,0.6-0.2,0.9-0.3c1.1-0.4,2.2-0.8,3.4-1.1
				c0.2-0.1,0.4-0.1,0.6-0.2c0.9-0.3,1.8-0.5,2.7-0.8c0.5-0.1,1.1-0.3,1.6-0.4c0.4-0.1,0.8-0.2,1.2-0.3c0.6-0.1,1.2-0.3,1.7-0.4
				c0.4-0.1,0.7-0.2,1.1-0.3c0.7-0.1,1.3-0.3,2-0.4c0.3-0.1,0.6-0.1,0.9-0.2c0.9-0.2,1.9-0.3,2.8-0.5c0.1,0,0.1,0,0.2,0
				c0.8-0.1,1.6-0.2,2.4-0.3c0.3,0,0.6-0.1,0.8-0.1c0.6-0.1,1.2-0.1,1.8-0.2c0.3,0,0.6-0.1,0.9-0.1c0.6,0,1.1-0.1,1.7-0.1
				c0.3,0,0.6,0,0.9-0.1c0.7,0,1.5-0.1,2.2-0.1c0.1,0,0.2,0,0.2,0c0.8,0,1.6,0,2.4,0c0.2,0,0.5,0,0.7,0c0.6,0,1.2,0,1.8,0.1
				c0.3,0,0.5,0,0.8,0c0.3,0,0.7,0,1,0.1c0.9,0.1,1.8,0.1,2.7,0.2c0.2,0,0.5,0,0.7,0.1c1.1,0.1,2.2,0.3,3.2,0.5
				c0.2,0,0.5,0.1,0.7,0.1c0.8,0.2,1.7,0.3,2.5,0.5c0.3,0.1,0.6,0.1,0.8,0.2c1,0.2,2,0.5,3,0.8c0.1,0,0.2,0.1,0.2,0.1
				c0.9,0.3,1.8,0.6,2.7,0.9c0.3,0.1,0.6,0.2,0.8,0.3c0.8,0.3,1.6,0.6,2.4,0.9c0.2,0.1,0.4,0.1,0.6,0.2c0.9,0.4,1.9,0.8,2.8,1.3
				c0.2,0.1,0.5,0.2,0.7,0.3c0.7,0.4,1.5,0.7,2.2,1.1c0.4,0.2,0.8,0.4,1.1,0.6l-32.9-19.1c-0.2-0.1-0.5-0.3-0.7-0.4
				c-0.1-0.1-0.3-0.2-0.4-0.2c-0.7-0.4-1.4-0.8-2.2-1.1c-0.2-0.1-0.4-0.2-0.7-0.3c-0.9-0.4-1.8-0.9-2.8-1.3c0,0-0.1,0-0.1-0.1
				c-0.1-0.1-0.3-0.1-0.4-0.2c-0.8-0.3-1.6-0.6-2.4-0.9c-0.3-0.1-0.5-0.2-0.8-0.3c-0.9-0.3-1.8-0.6-2.7-0.9c-0.1,0-0.1,0-0.2-0.1
				c0,0,0,0,0,0c-1-0.3-2-0.6-3-0.8c-0.3-0.1-0.6-0.1-0.8-0.2c-0.8-0.2-1.7-0.4-2.5-0.5c-0.2,0-0.3-0.1-0.5-0.1c-0.1,0-0.1,0-0.2,0
				c-1.1-0.2-2.2-0.3-3.3-0.5c-0.2,0-0.5-0.1-0.7-0.1c-0.9-0.1-1.8-0.2-2.8-0.2c-0.2,0-0.3,0-0.5,0c-0.2,0-0.3,0-0.5,0
				c-0.3,0-0.5,0-0.8,0c-0.6,0-1.2,0-1.8-0.1c-0.2,0-0.5,0-0.7,0c-0.8,0-1.6,0-2.4,0c-0.1,0-0.2,0-0.2,0c-0.6,0-1.2,0-1.8,0.1
				c-0.1,0-0.3,0-0.4,0c-0.3,0-0.6,0-0.9,0.1c-0.6,0-1.1,0.1-1.7,0.1c-0.3,0-0.6,0.1-0.9,0.1c-0.6,0.1-1.2,0.1-1.8,0.2
				c-0.3,0-0.6,0.1-0.8,0.1c-0.8,0.1-1.6,0.2-2.4,0.3c-0.1,0-0.1,0-0.2,0c0,0,0,0,0,0c-0.9,0.1-1.8,0.3-2.8,0.5
				c-0.3,0.1-0.6,0.1-0.9,0.2c-0.7,0.1-1.3,0.3-2,0.4c-0.4,0.1-0.7,0.2-1.1,0.3c-0.6,0.1-1.2,0.3-1.7,0.4c-0.4,0.1-0.8,0.2-1.2,0.3
				c-0.4,0.1-0.8,0.2-1.3,0.3c-0.1,0-0.2,0.1-0.3,0.1c-0.9,0.2-1.8,0.5-2.7,0.8c-0.2,0.1-0.4,0.1-0.6,0.2c-1.1,0.3-2.2,0.7-3.4,1.1
				c-0.3,0.1-0.6,0.2-1,0.3c-0.8,0.3-1.6,0.6-2.5,0.9c-0.4,0.2-0.8,0.3-1.2,0.5c-0.7,0.3-1.5,0.6-2.2,0.9c-0.2,0.1-0.5,0.2-0.7,0.3
				c-0.2,0.1-0.4,0.2-0.5,0.2c-1.1,0.5-2.1,0.9-3.2,1.4c-0.2,0.1-0.4,0.2-0.6,0.3c-1.3,0.6-2.6,1.2-3.8,1.8c-0.3,0.2-0.7,0.3-1,0.5
				c-1,0.5-2,1-3,1.5c-0.4,0.2-0.8,0.4-1.1,0.6c-1.3,0.7-2.6,1.4-3.9,2.2c-1,0.6-2,1.2-3,1.8c-0.3,0.2-0.6,0.4-1,0.6
				c-0.7,0.4-1.3,0.8-2,1.3c-0.4,0.2-0.7,0.5-1.1,0.7c-0.6,0.4-1.2,0.8-1.9,1.2c-0.4,0.2-0.8,0.5-1.1,0.8c-0.6,0.4-1.2,0.8-1.9,1.3
				c-0.4,0.2-0.7,0.5-1.1,0.7c-0.7,0.5-1.4,1-2.1,1.5c-0.3,0.2-0.5,0.4-0.8,0.6c-1,0.7-1.9,1.4-2.9,2.1c-0.2,0.2-0.4,0.3-0.6,0.5
				c-0.8,0.6-1.5,1.1-2.3,1.7c-0.3,0.3-0.7,0.5-1,0.8c-0.6,0.5-1.2,1-1.8,1.5c-0.4,0.3-0.7,0.6-1.1,0.9c-0.6,0.5-1.2,1-1.8,1.5
				c-0.4,0.3-0.7,0.6-1.1,0.9c-0.6,0.5-1.2,1-1.8,1.6c-0.3,0.3-0.6,0.5-1,0.8c-0.8,0.7-1.5,1.4-2.3,2c-0.1,0.1-0.3,0.3-0.4,0.4
				c-0.9,0.8-1.8,1.7-2.7,2.5c-0.3,0.2-0.5,0.5-0.8,0.7c-0.6,0.6-1.3,1.2-1.9,1.8c-0.3,0.3-0.7,0.6-1,1c-0.3,0.3-0.7,0.7-1,1
				c-0.2,0.2-0.3,0.3-0.5,0.5c-0.7,0.7-1.5,1.5-2.2,2.2c-0.3,0.3-0.6,0.6-1,1c-1.1,1.1-2.1,2.2-3.1,3.3c-0.1,0.1-0.2,0.2-0.3,0.3
				c-0.9,1-1.9,2-2.8,3c-0.3,0.4-0.7,0.7-1,1.1c-0.7,0.8-1.4,1.6-2.1,2.3c-0.2,0.2-0.3,0.4-0.5,0.6c-0.1,0.1-0.2,0.3-0.4,0.4
				c-1.5,1.7-3,3.5-4.4,5.3c-0.2,0.3-0.4,0.5-0.6,0.8c-1.5,1.8-2.9,3.6-4.3,5.5c-0.1,0.1-0.2,0.2-0.2,0.3c-0.1,0.2-0.3,0.4-0.4,0.5
				c-1.2,1.6-2.5,3.3-3.7,4.9c0,0,0,0.1-0.1,0.1c-1.2,1.7-2.4,3.4-3.6,5.1c-0.1,0.2-0.3,0.4-0.4,0.6c-0.1,0.1-0.2,0.3-0.3,0.4
				c-1.1,1.5-2.1,3.1-3.2,4.6c-0.2,0.3-0.4,0.6-0.6,0.9c-0.9,1.4-1.8,2.8-2.7,4.2c-0.1,0.2-0.3,0.4-0.4,0.6
				c-0.1,0.1-0.1,0.2-0.2,0.4c-1,1.5-1.9,3-2.8,4.6c-0.2,0.3-0.4,0.6-0.6,1c-0.8,1.3-1.6,2.6-2.3,3.9c-0.1,0.2-0.3,0.5-0.4,0.7
				c-0.1,0.2-0.2,0.3-0.3,0.5c-0.9,1.5-1.8,3-2.6,4.6c-0.1,0.2-0.2,0.4-0.4,0.7c-0.7,1.3-1.5,2.7-2.2,4c-0.1,0.2-0.2,0.4-0.4,0.7
				c-0.1,0.2-0.2,0.4-0.3,0.6c-0.7,1.4-1.5,2.8-2.2,4.2c-0.1,0.2-0.2,0.3-0.3,0.5c-0.8,1.6-1.6,3.1-2.3,4.7
				c-0.1,0.2-0.2,0.3-0.2,0.5c-0.1,0.3-0.2,0.5-0.4,0.8c-0.6,1.3-1.2,2.5-1.8,3.8c-0.2,0.4-0.3,0.7-0.5,1.1
				c-0.7,1.6-1.4,3.2-2.1,4.8c0,0.1-0.1,0.2-0.1,0.3c-0.1,0.2-0.2,0.5-0.3,0.7c-0.6,1.4-1.2,2.7-1.7,4.1c-0.2,0.4-0.3,0.8-0.5,1.3
				c-0.7,1.6-1.3,3.3-1.9,4.9c0,0.1,0,0.1-0.1,0.2c-0.1,0.2-0.1,0.3-0.2,0.5c-0.6,1.5-1.2,3.1-1.7,4.6c-0.1,0.4-0.3,0.8-0.4,1.2
				c-0.6,1.7-1.2,3.4-1.8,5.1c0,0.1,0,0.1-0.1,0.2c-0.1,0.2-0.1,0.3-0.2,0.5c-0.6,1.7-1.1,3.4-1.7,5.2c-0.1,0.3-0.2,0.6-0.3,1
				c-0.6,1.8-1.1,3.7-1.6,5.5c0,0.2-0.1,0.3-0.1,0.5c-0.1,0.4-0.2,0.9-0.4,1.3c-0.1,0.5-0.3,1.1-0.4,1.6c-0.2,0.7-0.4,1.5-0.6,2.2
				c-0.1,0.5-0.3,1-0.4,1.5c-0.2,0.8-0.4,1.5-0.5,2.3c-0.1,0.5-0.2,1-0.3,1.4c-0.2,0.9-0.4,1.7-0.6,2.6c-0.1,0.4-0.2,0.8-0.2,1.1
				c0,0,0,0.1,0,0.1c-0.1,0.3-0.1,0.6-0.2,1c-0.2,1-0.4,2-0.6,3c-0.1,0.5-0.2,1-0.3,1.5c-0.2,0.9-0.3,1.7-0.5,2.6
				c-0.1,0.6-0.2,1.1-0.3,1.7c-0.1,0.8-0.3,1.6-0.4,2.4c-0.1,0.6-0.2,1.1-0.3,1.7c-0.1,0.8-0.2,1.6-0.3,2.4c0,0.3-0.1,0.6-0.1,0.9
				c0,0.2,0,0.4-0.1,0.6c-0.2,1.8-0.4,3.6-0.6,5.4c0,0.3,0,0.5-0.1,0.8c-0.2,1.6-0.3,3.3-0.4,4.9c0,0.3,0,0.6-0.1,0.9
				c-0.1,1.8-0.2,3.5-0.3,5.2c0,0.4,0,0.7,0,1.1c-0.1,1.8-0.1,3.6-0.1,5.3c0.1,39,13.9,66.4,36.1,79.4l32.9,19.1
				c-22.2-12.9-36-40.3-36.1-79.4c0-1.8,0-3.6,0.1-5.3C399.7,539.4,399.8,539,399.8,538.7z"/>
			<g>
				<linearGradient id="SVGID_12_" gradientUnits="userSpaceOnUse" x1="399.6556" y1="473.7039" x2="647.0974" y2="473.7039">
					<stop  offset="4.950495e-03" style="stop-color:#EFF0F4"/>
					<stop  offset="1" style="stop-color:#FEFFFF"/>
				</linearGradient>
				<path class="st19" d="M523,331.5c68.3-39.4,123.9-7.8,124.1,70.7c0.2,78.5-55,174.1-123.3,213.6s-123.9,7.8-124.1-70.7
					S454.6,371,523,331.5z"/>
			</g>
		</g>
		<g>
			<linearGradient id="SVGID_13_" gradientUnits="userSpaceOnUse" x1="506.7927" y1="437.8754" x2="644.6648" y2="437.8754">
				<stop  offset="0" style="stop-color:#FFA21E"/>
				<stop  offset="1" style="stop-color:#FFCB27"/>
			</linearGradient>
			<path class="st20" d="M617,388.5c0.3-0.5,0.7-1.1,1.1-1.6c0,0,0,0,0,0c0.4-0.6,0.8-1.1,1.2-1.6c0.1-0.1,0.2-0.2,0.2-0.3
				c0.5-0.6,0.9-1.2,1.4-1.7c0.1-0.1,0.2-0.2,0.3-0.4c0.2-0.3,0.4-0.5,0.7-0.7c0.1-0.1,0.2-0.3,0.4-0.4c0.3-0.3,0.5-0.5,0.8-0.8
				c0.1-0.1,0.2-0.2,0.3-0.3c0.5-0.5,1-1,1.5-1.4c0.1-0.1,0.2-0.1,0.2-0.2c0.5-0.4,1-0.8,1.5-1.2c0.1-0.1,0.2-0.1,0.3-0.2
				c0.5-0.4,1-0.8,1.5-1.1c0.1,0,0.1-0.1,0.2-0.1c0.5-0.4,1.1-0.7,1.6-1c0.4-0.2,0.9-0.5,1.3-0.7c0.1-0.1,0.2-0.1,0.3-0.2
				c0.4-0.2,0.8-0.4,1.2-0.5c0,0,0.1,0,0.1,0c0.4-0.2,0.7-0.3,1.1-0.4c0.1,0,0.2-0.1,0.3-0.1c0.3-0.1,0.5-0.2,0.8-0.2
				c0.2,0,0.3-0.1,0.5-0.1c0.1,0,0.3-0.1,0.4-0.1c0.2,0,0.3-0.1,0.5-0.1c0.1,0,0.3-0.1,0.4-0.1c0.1,0,0.2,0,0.3,0
				c0.5-0.1,0.9-0.1,1.4-0.1l0,0c0.4,0,0.8,0,1.2,0c0.1,0,0.2,0,0.3,0c0.3,0,0.6,0.1,0.9,0.1c0.1,0,0.1,0,0.2,0
				c0.3,0.1,0.7,0.1,1,0.2c0.1,0,0.2,0.1,0.3,0.1c0.2,0.1,0.5,0.2,0.7,0.3c0.1,0,0.2,0.1,0.3,0.1c0.3,0.1,0.6,0.3,0.8,0.4
				c0,0,0.1,0,0.1,0.1l-32.9-19.1c0,0,0,0,0,0c0,0-0.1,0-0.1,0c-0.3-0.2-0.6-0.3-0.8-0.4c0,0-0.1,0-0.1-0.1c-0.1,0-0.1,0-0.2-0.1
				c-0.2-0.1-0.5-0.2-0.7-0.3c-0.1,0-0.1,0-0.2-0.1c0,0-0.1,0-0.1,0c-0.3-0.1-0.7-0.2-1-0.2c0,0,0,0,0,0c0,0-0.1,0-0.1,0
				c-0.3-0.1-0.6-0.1-0.9-0.1c-0.1,0-0.1,0-0.2,0c0,0-0.1,0-0.1,0c-0.4,0-0.8,0-1.2,0h0l0,0c-0.4,0-0.9,0.1-1.4,0.1
				c-0.1,0-0.1,0-0.2,0c-0.1,0-0.1,0-0.2,0c-0.1,0-0.3,0.1-0.4,0.1c-0.2,0-0.3,0.1-0.5,0.1c-0.1,0-0.3,0.1-0.4,0.1
				c-0.1,0-0.2,0-0.3,0.1c-0.1,0-0.1,0-0.2,0.1c-0.3,0.1-0.5,0.2-0.8,0.2c-0.1,0-0.2,0.1-0.3,0.1c-0.4,0.1-0.7,0.3-1.1,0.4
				c0,0,0,0,0,0c0,0-0.1,0-0.1,0c-0.4,0.2-0.8,0.3-1.2,0.5c-0.1,0.1-0.2,0.1-0.3,0.2c-0.4,0.2-0.9,0.4-1.3,0.7
				c-0.5,0.3-1.1,0.7-1.6,1c-0.1,0-0.1,0.1-0.2,0.1c-0.5,0.3-1,0.7-1.5,1.1c-0.1,0.1-0.2,0.1-0.3,0.2c-0.5,0.4-1,0.8-1.5,1.2
				c-0.1,0.1-0.2,0.1-0.2,0.2c-0.5,0.4-1,0.9-1.5,1.4c0,0,0,0,0,0c-0.1,0.1-0.1,0.2-0.2,0.2c-0.3,0.3-0.5,0.5-0.8,0.8
				c-0.1,0.1-0.2,0.3-0.4,0.4c-0.2,0.2-0.4,0.5-0.7,0.7c-0.1,0.1-0.1,0.1-0.2,0.2c0,0-0.1,0.1-0.1,0.1c-0.5,0.6-1,1.1-1.4,1.7
				c0,0-0.1,0.1-0.1,0.1c0,0.1-0.1,0.1-0.1,0.2c-0.4,0.5-0.8,1.1-1.2,1.6c0,0,0,0,0,0l0,0c-0.4,0.5-0.7,1-1.1,1.6
				c0,0.1-0.1,0.1-0.1,0.2c-0.1,0.1-0.1,0.2-0.1,0.2c-0.3,0.4-0.5,0.8-0.8,1.3c0,0.1-0.1,0.2-0.1,0.2c0,0.1-0.1,0.1-0.1,0.2
				l-76,131.6l32.9,19.1l76-131.6c0.1-0.2,0.2-0.3,0.3-0.4c0.3-0.4,0.5-0.9,0.8-1.3C616.8,388.8,616.9,388.6,617,388.5z"/>
			<g>
				<linearGradient id="SVGID_14_" gradientUnits="userSpaceOnUse" x1="462.6703" y1="500.1734" x2="539.6575" y2="500.1734">
					<stop  offset="0" style="stop-color:#FFA21E"/>
					<stop  offset="1" style="stop-color:#FFCB27"/>
				</linearGradient>
				<polygon class="st21" points="495.5,497.2 462.7,478.1 506.8,503.2 539.7,522.3 				"/>
			</g>
			<linearGradient id="SVGID_15_" gradientUnits="userSpaceOnUse" x1="427.9033" y1="511.9919" x2="495.5351" y2="511.9919">
				<stop  offset="0" style="stop-color:#FFA21E"/>
				<stop  offset="1" style="stop-color:#FFCB27"/>
			</linearGradient>
			<path class="st22" d="M462.7,478.1C462.7,478,462.6,478,462.7,478.1c-0.1,0-0.1,0-0.1-0.1c-0.3-0.1-0.5-0.3-0.8-0.4
				c0,0-0.1,0-0.1-0.1c-0.1,0-0.1,0-0.2-0.1c-0.2-0.1-0.5-0.2-0.7-0.2c-0.1,0-0.1,0-0.2-0.1c0,0-0.1,0-0.1,0c-0.3-0.1-0.7-0.2-1-0.2
				c0,0,0,0,0,0c0,0-0.1,0-0.1,0c-0.3,0-0.6-0.1-0.9-0.1c-0.1,0-0.1,0-0.1,0c0,0-0.1,0-0.1,0c-0.4,0-0.8,0-1.2,0h0l0,0
				c-0.4,0-0.9,0.1-1.3,0.1c-0.1,0-0.1,0-0.2,0c-0.1,0-0.1,0-0.2,0c-0.1,0-0.3,0-0.4,0.1c-0.2,0-0.3,0.1-0.5,0.1
				c-0.1,0-0.3,0.1-0.4,0.1c-0.1,0-0.2,0-0.3,0.1c-0.1,0-0.1,0-0.2,0.1c-0.3,0.1-0.5,0.1-0.8,0.2c-0.1,0-0.2,0.1-0.3,0.1
				c-0.4,0.1-0.7,0.3-1.1,0.4c0,0,0,0,0,0c0,0,0,0-0.1,0c-0.4,0.2-0.8,0.3-1.2,0.5c-0.1,0.1-0.2,0.1-0.3,0.2
				c-0.4,0.2-0.8,0.4-1.3,0.7c-0.6,0.3-1.2,0.7-1.8,1.1c-0.2,0.1-0.4,0.3-0.6,0.4c-0.4,0.3-0.8,0.6-1.2,0.9
				c-0.2,0.2-0.5,0.4-0.7,0.6c-0.4,0.3-0.7,0.6-1.1,0.9c-0.2,0.2-0.5,0.4-0.7,0.7c-0.2,0.2-0.4,0.4-0.6,0.6
				c-0.2,0.2-0.4,0.4-0.6,0.6c-0.1,0.1-0.2,0.2-0.3,0.3c-0.4,0.4-0.8,0.9-1.3,1.4c-0.1,0.1-0.1,0.2-0.2,0.2
				c-0.2,0.3-0.5,0.6-0.7,0.8c-0.2,0.3-0.5,0.5-0.7,0.8c-0.1,0.1-0.2,0.3-0.3,0.4c-0.2,0.2-0.3,0.5-0.5,0.7
				c-0.2,0.2-0.3,0.5-0.5,0.7c-0.2,0.3-0.4,0.5-0.5,0.8c-0.1,0.2-0.3,0.4-0.4,0.6c-0.1,0.1-0.1,0.2-0.2,0.3c-0.4,0.6-0.7,1.1-1,1.7
				c0,0.1-0.1,0.1-0.1,0.2l-0.9,1.6c-0.3,0.5-0.5,0.9-0.8,1.4c0,0,0,0.1-0.1,0.1c0,0.1-0.1,0.2-0.1,0.3c-0.2,0.4-0.4,0.8-0.6,1.2
				c0,0.1-0.1,0.2-0.1,0.2c0,0.1-0.1,0.1-0.1,0.2c-0.2,0.4-0.4,0.8-0.6,1.3c0,0.1-0.1,0.1-0.1,0.2c0,0,0,0,0,0.1
				c-0.2,0.5-0.4,1-0.6,1.6c0,0,0,0.1-0.1,0.1c0,0.1-0.1,0.2-0.1,0.2c-0.2,0.5-0.3,0.9-0.5,1.4c0,0.1-0.1,0.2-0.1,0.2
				c0,0,0,0.1,0,0.1c-0.2,0.6-0.4,1.2-0.5,1.8c0,0.1,0,0.1,0,0.2c0,0.1,0,0.1,0,0.2c-0.2,0.7-0.4,1.3-0.5,2c0,0,0,0.1,0,0.1
				c0,0.1,0,0.2-0.1,0.3c-0.1,0.3-0.1,0.6-0.2,0.8c0,0.2-0.1,0.3-0.1,0.5c0,0.3-0.1,0.5-0.1,0.8c0,0.1,0,0.2,0,0.3
				c0,0.1,0,0.1,0,0.2c0,0.3-0.1,0.6-0.1,0.9c0,0.1,0,0.3,0,0.4c0,0.4-0.1,0.8-0.1,1.3c0,0,0,0.1,0,0.1c0,0.4,0,0.7,0,1.1
				c0,0.1,0,0.3,0,0.4c0,0.3,0,0.5,0,0.8c0,0.1,0,0.3,0,0.4c0,0.3,0,0.5,0.1,0.8c0,0.1,0,0.3,0,0.4c0,0.3,0.1,0.6,0.1,0.8
				c0,0.1,0,0.2,0,0.3c0.1,0.4,0.1,0.7,0.2,1.1c0,0.1,0,0.2,0.1,0.2c0.1,0.3,0.1,0.5,0.2,0.8c0,0.1,0.1,0.2,0.1,0.3
				c0.1,0.2,0.2,0.4,0.2,0.6c0,0.1,0.1,0.2,0.1,0.3c0.1,0.2,0.2,0.4,0.3,0.6c0,0.1,0.1,0.2,0.1,0.3c0.1,0.2,0.3,0.5,0.4,0.7
				c0,0,0.1,0.1,0.1,0.2c0.2,0.3,0.3,0.5,0.5,0.8c0.1,0.1,0.1,0.1,0.2,0.2c0.1,0.2,0.3,0.4,0.4,0.5c0.1,0.1,0.2,0.2,0.2,0.2
				c0.1,0.1,0.3,0.3,0.4,0.4c0.1,0.1,0.2,0.2,0.3,0.2c0.2,0.1,0.3,0.3,0.5,0.4c0.1,0.1,0.2,0.1,0.2,0.2c0.3,0.2,0.5,0.3,0.8,0.5
				l32.9,19.1c-0.3-0.2-0.5-0.3-0.8-0.5c-0.1-0.1-0.2-0.1-0.2-0.2c-0.2-0.1-0.3-0.3-0.5-0.4c-0.1-0.1-0.2-0.2-0.3-0.2
				c-0.1-0.1-0.3-0.3-0.4-0.4c-0.1-0.1-0.2-0.2-0.2-0.2c-0.2-0.2-0.3-0.3-0.4-0.5c-0.1-0.1-0.1-0.1-0.2-0.2
				c-0.2-0.3-0.4-0.5-0.5-0.8c0,0-0.1-0.1-0.1-0.2c-0.1-0.2-0.3-0.5-0.4-0.7c-0.1-0.1-0.1-0.2-0.1-0.3c-0.1-0.2-0.2-0.4-0.3-0.6
				c0-0.1-0.1-0.2-0.1-0.3c-0.1-0.2-0.2-0.4-0.2-0.6c0-0.1-0.1-0.2-0.1-0.3c-0.1-0.3-0.2-0.5-0.2-0.8c0-0.1,0-0.2-0.1-0.2
				c-0.1-0.3-0.2-0.7-0.2-1.1c0-0.1,0-0.2,0-0.3c0-0.3-0.1-0.5-0.1-0.8c0-0.1,0-0.3,0-0.4c0-0.3-0.1-0.5-0.1-0.8c0-0.1,0-0.3,0-0.4
				c0-0.3,0-0.5,0-0.8c0-0.1,0-0.3,0-0.4c0-0.4,0-0.7,0-1.1c0,0,0-0.1,0-0.1c0-0.4,0-0.8,0.1-1.3c0-0.1,0-0.3,0-0.4
				c0-0.3,0.1-0.6,0.1-0.9c0-0.2,0-0.3,0.1-0.5c0-0.3,0.1-0.5,0.1-0.8c0-0.2,0.1-0.3,0.1-0.5c0-0.3,0.1-0.6,0.2-0.8
				c0-0.1,0.1-0.3,0.1-0.4c0.1-0.7,0.3-1.3,0.5-2c0-0.1,0.1-0.2,0.1-0.3c0.2-0.6,0.3-1.2,0.5-1.8c0-0.1,0.1-0.2,0.1-0.3
				c0.2-0.5,0.3-0.9,0.5-1.4c0-0.1,0.1-0.3,0.1-0.4c0.2-0.5,0.4-1,0.6-1.6c0-0.1,0.1-0.2,0.1-0.3c0.2-0.4,0.4-0.9,0.6-1.3
				c0.1-0.2,0.1-0.3,0.2-0.5c0.2-0.4,0.4-0.8,0.6-1.2c0.1-0.1,0.1-0.3,0.2-0.4c0.2-0.5,0.5-0.9,0.8-1.4l0.9-1.6
				c0.4-0.8,0.9-1.5,1.4-2.2c0.1-0.2,0.3-0.4,0.4-0.6c0.3-0.5,0.7-1,1-1.5c0.2-0.2,0.3-0.5,0.5-0.7c0.3-0.4,0.6-0.8,1-1.2
				c0.2-0.3,0.5-0.6,0.7-0.8c0.5-0.6,1-1.1,1.5-1.6c0.1-0.1,0.2-0.2,0.3-0.3c0.4-0.4,0.8-0.8,1.2-1.2c0.2-0.2,0.5-0.5,0.7-0.7
				c0.4-0.3,0.7-0.6,1.1-0.9c0.2-0.2,0.5-0.4,0.7-0.6c0.4-0.3,0.8-0.6,1.2-0.9c0.2-0.1,0.4-0.3,0.6-0.4c0.6-0.4,1.2-0.8,1.8-1.1
				c0.4-0.2,0.8-0.5,1.2-0.7c0.1-0.1,0.2-0.1,0.3-0.2c0.4-0.2,0.8-0.4,1.2-0.5c0,0,0.1,0,0.1,0c0.4-0.1,0.7-0.3,1.1-0.4
				c0.1,0,0.2-0.1,0.3-0.1c0.3-0.1,0.5-0.2,0.8-0.2c0.1,0,0.3-0.1,0.4-0.1c0.1,0,0.3-0.1,0.4-0.1c0.2,0,0.3-0.1,0.5-0.1
				c0.1,0,0.3-0.1,0.4-0.1c0.1,0,0.2,0,0.3,0c0.4-0.1,0.9-0.1,1.3-0.1l0,0c0.4,0,0.8,0,1.2,0c0.1,0,0.2,0,0.3,0
				c0.3,0,0.6,0.1,0.9,0.1c0.1,0,0.1,0,0.2,0c0.3,0.1,0.7,0.1,1,0.2c0.1,0,0.2,0.1,0.3,0.1c0.2,0.1,0.5,0.2,0.7,0.2
				c0.1,0,0.2,0.1,0.3,0.1c0.3,0.1,0.5,0.2,0.8,0.4c0,0,0.1,0,0.1,0.1L462.7,478.1z"/>
			<g>
				<g>
					<linearGradient id="SVGID_16_" gradientUnits="userSpaceOnUse" x1="460.7656" y1="477.3906" x2="650.7186" y2="477.3906">
						<stop  offset="0" style="stop-color:#FFA21E"/>
						<stop  offset="1" style="stop-color:#FFCB27"/>
					</linearGradient>
					<path class="st23" d="M630.1,375.4c5.2-3,10.5-3.8,14.5-1.5c8,4.6,8.1,19.5,0.1,33.3l-90,155.9l-0.5,0.8l-0.5,0.8
						c-3.9,6.7-8.9,11.9-14,14.8c-5.1,2.9-10.2,3.6-14.1,1.4l-0.5-0.3l-58.7-33.4c-7.8-4.4-7.8-18.9-0.1-32.3l0.9-1.6
						c3.9-6.7,8.9-11.9,14-14.8c5.1-2.9,10.2-3.6,14.1-1.4l44.1,25.1l76-131.6C619.7,383.7,624.9,378.4,630.1,375.4z"/>
				</g>
			</g>
		</g>
		<g>
			<g>
				<linearGradient id="SVGID_17_" gradientUnits="userSpaceOnUse" x1="713.8217" y1="694.1749" x2="801.3343" y2="694.1749">
					<stop  offset="4.950495e-03" style="stop-color:#EFF0F4"/>
					<stop  offset="1" style="stop-color:#FEFFFF"/>
				</linearGradient>
				<polygon class="st24" points="801.3,707.4 780.5,719.5 713.8,681 734.6,668.9 				"/>
			</g>
			<g>
				<linearGradient id="SVGID_18_" gradientUnits="userSpaceOnUse" x1="758.9423" y1="683.9653" x2="828.0669" y2="683.9653">
					<stop  offset="4.950495e-03" style="stop-color:#EFF0F4"/>
					<stop  offset="1" style="stop-color:#FEFFFF"/>
				</linearGradient>
				<polygon class="st25" points="828.1,691.9 807.2,704 758.9,676.1 779.8,664 				"/>
			</g>
			<g>
				<linearGradient id="SVGID_19_" gradientUnits="userSpaceOnUse" x1="671.9498" y1="705.331" x2="774.6321" y2="705.331">
					<stop  offset="4.950495e-03" style="stop-color:#EFF0F4"/>
					<stop  offset="1" style="stop-color:#FEFFFF"/>
				</linearGradient>
				<polygon class="st26" points="774.6,722.9 753.8,735 671.9,687.8 692.8,675.6 				"/>
			</g>
		</g>
	</g>
</g>
</svg>
