<?xml version="1.0" encoding="utf-8"?>
<!-- Generator: Adobe Illustrator 21.0.0, SVG Export Plug-In . SVG Version: 6.00 Build 0)  -->
<svg version="1.1" xmlns="http://www.w3.org/2000/svg" xmlns:xlink="http://www.w3.org/1999/xlink" x="0px" y="0px"
	 viewBox="0 0 1024 1024" style="enable-background:new 0 0 1024 1024;" xml:space="preserve">
<style type="text/css">
	.st0{display:none;}
	.st1{display:inline;}
	.st2{opacity:0.25;}
	.st3{display:inline;opacity:0.25;}
	.st4{enable-background:new    ;}
	.st5{fill:url(#SVGID_1_);}
	.st6{fill:url(#SVGID_2_);}
	.st7{fill:url(#SVGID_3_);}
	.st8{fill:url(#SVGID_4_);}
	.st9{fill:url(#SVGID_5_);}
	.st10{fill:#FDFDFD;}
	.st11{fill:url(#SVGID_6_);}
	.st12{fill:url(#SVGID_7_);}
	.st13{fill:url(#SVGID_8_);}
	.st14{fill:url(#SVGID_9_);}
	.st15{fill:url(#SVGID_10_);}
	.st16{fill:url(#SVGID_11_);}
	.st17{clip-path:url(#SVGID_14_);fill:url(#SVGID_15_);}
	.st18{fill:url(#SVGID_16_);}
	.st19{fill:url(#SVGID_17_);}
	.st20{fill:url(#SVGID_18_);}
	.st21{fill:url(#SVGID_19_);}
	.st22{fill:url(#SVGID_20_);}
	.st23{fill:url(#SVGID_21_);}
</style>
<g id="图层_1" class="st0">
	<g id="bg">
		<g id="图层_2" class="st1">
			<g id="图标参考线">
				<g id="图标尺寸" class="st2">
					<path d="M1018.2,5.8v1012.5H5.8V5.8H1018.2 M1024,0H0v1024h1024V0z"/>
					<path d="M512,28.8c266.9,0,483.2,216.4,483.2,483.2S778.9,995.2,512,995.2S28.8,778.9,28.8,512S245.1,28.8,512,28.8 M512,23
						C241.9,23,23,241.9,23,512s218.9,489,489,489s489-218.9,489-489C1000.7,242,782,23.3,512,23z"/>
					<path d="M949.2,74.8v874.4H74.8V74.8H949.2 M955,69H69v886h886V69z"/>
					<path d="M995.2,28.8v966.5H28.8V28.8H995.2 M1001,23H23v978h978V23z"/>
					<path d="M995.2,189.8v644.3H28.8V189.8H995.2 M1001,184.1H23v655.8h978V184.1z"/>
				</g>
			</g>
		</g>
	</g>
	<g id="图标尺寸_1_" class="st3">
		<g>
			<path d="M1017.1,4.6v1010.2H6.9V4.6L1017.1,4.6 M1021.7,0h-6.9H4.6H0v6.9v1010.2v6.9h6.9h1010.2h6.9v-6.9V6.9V0H1021.7z"/>
		</g>
		<g>
			<path d="M512,27.6c266.3,0,482.2,215.8,482.2,482.2S778.3,991.9,512,991.9S29.8,776.1,29.8,509.7S245.7,27.6,512,27.6 M512,23
				c-268.6,0-489,218.1-489,486.7s218.1,486.7,489,486.7s489-218.1,489-486.7S780.6,23,512,23L512,23z"/>
		</g>
		<g>
			<path d="M948.2,73.5V946H75.8V73.5L948.2,73.5 M952.8,68.9h-6.9H73.5h-4.6v6.9v872.5v6.9h6.9h872.5h6.9v-6.9V75.8v-6.9H952.8z"/>
		</g>
		<g>
			<path d="M994.1,27.6v964.3H29.8V27.6L994.1,27.6 M998.7,23h-6.9H27.5h-4.6v6.9v964.3v6.9h6.9h964.3h6.9v-6.9V29.9V23H998.7z"/>
		</g>
		<g>
			<path d="M994.1,188.3v642.9H29.8V188.3L994.1,188.3 M998.7,183.7h-6.9H27.5h-4.6v4.6v642.9v6.9h6.9h964.3h6.9v-6.9V188.3v-4.6
				H998.7z"/>
		</g>
	</g>
</g>
<g id="图层_2_1_">
	<g>
		<g class="st4">
			<g>
				<linearGradient id="SVGID_1_" gradientUnits="userSpaceOnUse" x1="40.0631" y1="593.7326" x2="61.1552" y2="593.7326">
					<stop  offset="0" style="stop-color:#AA6300"/>
					<stop  offset="1" style="stop-color:#D09539"/>
				</linearGradient>
				<polygon class="st5" points="61.2,690.7 40.6,678.7 40.1,496.8 60.6,508.7 				"/>
			</g>
			<g>
				<linearGradient id="SVGID_2_" gradientUnits="userSpaceOnUse" x1="40.0631" y1="349.7574" x2="590.6375" y2="349.7574">
					<stop  offset="0" style="stop-color:#AA6300"/>
					<stop  offset="1" style="stop-color:#D09539"/>
				</linearGradient>
				<polygon class="st6" points="60.6,508.7 40.1,496.8 570.1,190.8 590.6,202.7 				"/>
			</g>
			<g>
				<linearGradient id="SVGID_3_" gradientUnits="userSpaceOnUse" x1="60.6394" y1="446.7142" x2="591.1534" y2="446.7142">
					<stop  offset="0" style="stop-color:#AA6300"/>
					<stop  offset="1" style="stop-color:#D09539"/>
				</linearGradient>
				<polygon class="st7" points="61.2,690.7 60.6,508.7 590.6,202.7 591.2,384.7 				"/>
			</g>
		</g>
	</g>
	<g>
		<g class="st4">
			<linearGradient id="SVGID_4_" gradientUnits="userSpaceOnUse" x1="61.6764" y1="762.2422" x2="993.4922" y2="762.2422">
				<stop  offset="0" style="stop-color:#AA6300"/>
				<stop  offset="1" style="stop-color:#D09539"/>
			</linearGradient>
			<path class="st8" d="M993.3,607.2c-0.1,0.6-0.1,1.2-0.2,1.8c-0.1,0.5-0.2,1-0.4,1.5c-0.1,0.6-0.3,1.1-0.5,1.7
				c-0.2,0.5-0.4,0.9-0.6,1.4c-0.3,0.6-0.5,1.2-0.8,1.8c-0.2,0.4-0.5,0.8-0.8,1.3c-0.4,0.7-0.9,1.4-1.4,2c-0.3,0.4-0.6,0.8-0.9,1.1
				c-0.7,0.9-1.5,1.8-2.4,2.6c-0.3,0.3-0.6,0.6-1,1c-0.6,0.5-1.2,1-1.8,1.5c-0.5,0.4-1,0.8-1.6,1.3c-0.7,0.5-1.4,0.9-2.1,1.4
				c-0.7,0.5-1.4,0.9-2.2,1.4L520.9,893.7c-1.7,1-3.6,1.9-5.4,2.8c-0.5,0.2-1.1,0.5-1.6,0.7c-1.5,0.6-3.1,1.2-4.7,1.8
				c-0.5,0.2-1,0.3-1.5,0.5c-1,0.3-2.1,0.6-3.1,0.9c-0.7,0.2-1.4,0.4-2.1,0.6c-1.2,0.3-2.4,0.5-3.6,0.8c-0.6,0.1-1.2,0.3-1.8,0.4
				c-2.1,0.4-4.3,0.7-6.5,0.9c-0.7,0.1-1.4,0.1-2.1,0.2c-1.2,0.1-2.5,0.2-3.7,0.2c-0.8,0-1.6,0.1-2.4,0.1c-1,0-2.1,0-3.1,0
				c-0.9,0-1.7,0-2.6-0.1c-1,0-1.9-0.1-2.8-0.2c-0.9-0.1-1.7-0.1-2.6-0.2c-0.9-0.1-1.9-0.2-2.8-0.3c-0.8-0.1-1.7-0.2-2.5-0.3
				c-1-0.2-2-0.3-2.9-0.5c-0.8-0.1-1.6-0.3-2.3-0.5c-1.2-0.3-2.3-0.5-3.5-0.8c-0.6-0.2-1.3-0.3-1.9-0.5c-2-0.6-4-1.3-5.9-2
				c-0.3-0.1-0.6-0.3-0.9-0.4c-2.6-1-5.1-2.2-7.4-3.5L206.3,758.5l-104.9-60.6L61.7,675l0,15.5l39.6,22.9L206.2,774l234.9,135.6
				c2.3,1.3,4.8,2.5,7.4,3.5c0.2,0.1,0.4,0.2,0.5,0.3c0.1,0,0.2,0.1,0.4,0.1c1.9,0.7,3.9,1.4,5.9,2c0.1,0,0.3,0.1,0.4,0.1
				c0.5,0.1,1,0.2,1.5,0.4c1.1,0.3,2.3,0.6,3.5,0.8c0.3,0.1,0.5,0.1,0.8,0.2c0.5,0.1,1,0.2,1.6,0.3c1,0.2,1.9,0.4,2.9,0.5
				c0.3,0.1,0.7,0.1,1,0.2c0.5,0.1,1,0.1,1.5,0.2c0.9,0.1,1.8,0.2,2.8,0.3c0.4,0,0.7,0.1,1.1,0.1c0.5,0,1,0,1.5,0.1
				c0.9,0.1,1.9,0.1,2.8,0.2c0.4,0,0.8,0.1,1.2,0.1c0.5,0,0.9,0,1.4,0c1,0,2.1,0,3.1,0c0.4,0,0.9,0,1.3,0c0.4,0,0.7-0.1,1.1-0.1
				c1.2-0.1,2.5-0.1,3.7-0.2c0.5,0,1,0,1.5-0.1c0.2,0,0.4-0.1,0.6-0.1c2.2-0.2,4.4-0.5,6.5-0.9c0.1,0,0.1,0,0.2,0
				c0.5-0.1,1.1-0.2,1.6-0.3c1.2-0.2,2.4-0.5,3.6-0.8c0.7-0.2,1.4-0.4,2.1-0.6c1-0.3,2.1-0.6,3.1-0.9c0.2-0.1,0.3-0.1,0.5-0.1
				c0.3-0.1,0.6-0.2,0.9-0.4c1.6-0.5,3.1-1.1,4.7-1.8c0.5-0.2,1.1-0.5,1.6-0.7c1.9-0.8,3.7-1.7,5.4-2.8l455.9-264.9
				c0.2-0.1,0.5-0.3,0.7-0.4c0.5-0.3,1-0.7,1.5-1c0.7-0.5,1.4-0.9,2.1-1.4c0.6-0.4,1.1-0.8,1.6-1.3c0.6-0.5,1.2-1,1.8-1.5
				c0.1-0.1,0.3-0.2,0.4-0.3c0.2-0.2,0.4-0.4,0.6-0.6c0.9-0.9,1.7-1.7,2.4-2.6c0.2-0.2,0.4-0.4,0.5-0.6c0.1-0.2,0.2-0.4,0.4-0.6
				c0.5-0.7,0.9-1.3,1.4-2c0.2-0.3,0.4-0.6,0.6-0.8c0.1-0.1,0.1-0.3,0.2-0.4c0.3-0.6,0.6-1.2,0.8-1.8c0.2-0.4,0.4-0.7,0.5-1.1
				c0-0.1,0.1-0.2,0.1-0.3c0.2-0.6,0.3-1.1,0.5-1.7c0.1-0.4,0.3-0.8,0.3-1.2c0-0.1,0-0.2,0-0.3c0.1-0.6,0.1-1.2,0.2-1.8
				c0-0.4,0.1-0.8,0.1-1.2c0-0.2,0-0.3,0-0.5l0-15.5C993.5,606.1,993.4,606.6,993.3,607.2z"/>
			<g>
				<linearGradient id="SVGID_5_" gradientUnits="userSpaceOnUse" x1="61.7203" y1="633.518" x2="993.4921" y2="633.518">
					<stop  offset="0" style="stop-color:#D09539"/>
					<stop  offset="1" style="stop-color:#AA6300"/>
				</linearGradient>
				<path class="st9" d="M977.2,582.6c21.9,12.6,21.7,33.3-0.4,46.2L520.9,893.7c-22.1,12.9-57.8,13-79.7,0.4L206.3,758.5
					l-104.9-60.6L61.7,675l40.1-23.3l455.9-264.9l40.1-23.3l39.6,22.9L742.3,447L977.2,582.6z"/>
			</g>
		</g>
	</g>
	<g>
		<g class="st4">
			<path class="st10" d="M966.9,468c0,0.6-0.1,1.2-0.2,1.7c-0.1,0.4-0.2,0.9-0.3,1.3c-0.1,0.5-0.3,1.1-0.5,1.6
				c-0.2,0.4-0.3,0.9-0.5,1.3c-0.2,0.5-0.5,1.1-0.8,1.6c-0.2,0.4-0.5,0.8-0.7,1.2c-0.4,0.6-0.8,1.2-1.2,1.8
				c-0.3,0.4-0.6,0.7-0.8,1.1c-0.7,0.8-1.4,1.6-2.2,2.4c-0.3,0.3-0.5,0.5-0.8,0.8c-0.5,0.4-1,0.8-1.5,1.3c-0.5,0.4-1,0.8-1.5,1.2
				c-0.6,0.4-1.2,0.8-1.8,1.2c-0.7,0.4-1.3,0.9-2,1.3L527,734.8c-1.5,0.9-3.2,1.7-4.9,2.5c-0.5,0.2-1,0.4-1.5,0.6
				c-1.3,0.5-2.6,1-3.9,1.5c-0.6,0.2-1.2,0.4-1.8,0.6c-0.8,0.3-1.6,0.5-2.5,0.7c-0.8,0.2-1.5,0.4-2.3,0.6c-0.8,0.2-1.7,0.4-2.6,0.6
				c-0.7,0.1-1.5,0.3-2.2,0.4c-2,0.3-4,0.6-6,0.8c-0.2,0-0.5,0-0.7,0c-1.6,0.1-3.2,0.3-4.9,0.3c-0.7,0-1.5,0-2.2,0c-1,0-2.1,0-3.1,0
				c-0.8,0-1.6-0.1-2.4-0.1c-0.9,0-1.9-0.1-2.8-0.2c-0.8-0.1-1.6-0.1-2.4-0.2c-0.9-0.1-1.9-0.2-2.8-0.3c-0.8-0.1-1.5-0.2-2.3-0.3
				c-1-0.2-2-0.3-3.1-0.5c-0.7-0.1-1.4-0.3-2.1-0.5c-1.2-0.3-2.4-0.6-3.5-0.9c-0.6-0.2-1.2-0.3-1.9-0.5c-2.1-0.6-4.1-1.3-6.1-2.1
				c-0.2-0.1-0.3-0.1-0.5-0.2c-2.8-1.1-5.4-2.4-7.9-3.8L218.9,600.2l-103.5-59.8l-39.1-22.6l-0.4,135.7l39.1,22.6l103.5,59.8
				l231.7,133.8c2.5,1.4,5.1,2.7,7.9,3.8c0.1,0,0.2,0.1,0.3,0.1c0.1,0,0.1,0,0.2,0.1c2,0.8,4,1.4,6.1,2.1c0.2,0.1,0.4,0.2,0.6,0.2
				c0.4,0.1,0.8,0.2,1.2,0.3c1.2,0.3,2.3,0.6,3.5,0.9c0.4,0.1,0.8,0.2,1.1,0.3c0.3,0.1,0.7,0.1,1,0.2c1,0.2,2,0.4,3.1,0.5
				c0.5,0.1,1,0.2,1.5,0.3c0.3,0,0.5,0.1,0.8,0.1c0.9,0.1,1.9,0.2,2.8,0.3c0.6,0.1,1.1,0.1,1.7,0.2c0.2,0,0.5,0,0.7,0
				c0.9,0.1,1.9,0.1,2.8,0.2c0.6,0,1.2,0.1,1.8,0.1c0.2,0,0.4,0,0.6,0c1,0,2.1,0,3.1,0c0.6,0,1.2,0,1.8,0c0.1,0,0.3,0,0.4,0
				c1.6-0.1,3.2-0.2,4.8-0.3c0.2,0,0.4,0,0.7,0c0,0,0,0,0.1,0c2-0.2,4-0.5,6-0.8c0.2,0,0.4-0.1,0.6-0.1c0.5-0.1,1.1-0.2,1.6-0.3
				c0.9-0.2,1.7-0.3,2.6-0.6c0.8-0.2,1.5-0.4,2.3-0.6c0.8-0.2,1.7-0.5,2.5-0.7c0.3-0.1,0.6-0.1,0.8-0.2c0.3-0.1,0.6-0.3,1-0.4
				c1.3-0.5,2.6-0.9,3.9-1.5c0.5-0.2,1-0.4,1.5-0.6c1.7-0.8,3.3-1.6,4.9-2.5l425.1-247c0.2-0.1,0.4-0.2,0.6-0.4
				c0.5-0.3,0.9-0.6,1.4-0.9c0.6-0.4,1.2-0.8,1.8-1.2c0.5-0.4,1-0.8,1.5-1.2c0.5-0.4,1.1-0.8,1.5-1.3c0.1-0.1,0.2-0.2,0.3-0.2
				c0.2-0.2,0.3-0.4,0.5-0.6c0.8-0.8,1.5-1.6,2.2-2.4c0.1-0.2,0.3-0.3,0.5-0.5c0.1-0.2,0.2-0.4,0.4-0.6c0.4-0.6,0.8-1.2,1.2-1.8
				c0.2-0.2,0.4-0.5,0.5-0.7c0.1-0.1,0.1-0.3,0.2-0.4c0.3-0.5,0.5-1.1,0.8-1.6c0.1-0.3,0.3-0.6,0.4-0.9c0-0.1,0.1-0.2,0.1-0.4
				c0.2-0.5,0.3-1.1,0.5-1.6c0.1-0.3,0.2-0.7,0.3-1c0-0.1,0-0.2,0-0.3c0.1-0.6,0.1-1.2,0.2-1.7c0-0.3,0.1-0.7,0.1-1
				c0-0.2,0-0.3,0-0.5l0.4-135.7C967,467,967,467.5,966.9,468z"/>
			<g>
				<path class="st10" d="M950.3,443.5c21.6,12.5,22.4,32.3,1.7,44.3L527,734.8c-20.6,12-54.9,11.6-76.4-0.8L218.9,600.2
					l-103.5-59.8l-39.1-22.6l37.4-21.7l425.1-247l37.4-21.7l39.1,22.6l103.5,59.8L950.3,443.5z"/>
			</g>
		</g>
	</g>
	<g>
		<g class="st4">
			<linearGradient id="SVGID_6_" gradientUnits="userSpaceOnUse" x1="61.6559" y1="597.7064" x2="993.4978" y2="597.7064">
				<stop  offset="0" style="stop-color:#D09539"/>
				<stop  offset="1" style="stop-color:#AA6300"/>
			</linearGradient>
			<path class="st11" d="M993.4,440.7c-0.1,0.6-0.1,1.2-0.2,1.7c-0.1,0.5-0.2,1-0.4,1.5c-0.1,0.6-0.3,1.1-0.5,1.7
				c-0.2,0.5-0.4,0.9-0.6,1.4c-0.3,0.6-0.5,1.2-0.8,1.8c-0.2,0.4-0.5,0.8-0.8,1.3c-0.4,0.7-0.9,1.4-1.4,2c-0.3,0.4-0.6,0.8-0.9,1.1
				c-0.7,0.9-1.6,1.8-2.4,2.6c-0.3,0.3-0.6,0.6-1,1c-0.6,0.5-1.2,1-1.8,1.5c-0.5,0.4-1,0.8-1.6,1.3c-0.7,0.5-1.4,0.9-2.1,1.4
				c-0.7,0.5-1.4,0.9-2.2,1.4L520.9,727.2c-1.7,1-3.6,1.9-5.4,2.8c-0.5,0.2-1.1,0.5-1.6,0.7c-1.5,0.6-3.1,1.2-4.7,1.8
				c-0.5,0.2-1,0.3-1.5,0.5c-1,0.3-2.1,0.6-3.1,0.9c-0.7,0.2-1.4,0.4-2.1,0.6c-1.2,0.3-2.4,0.5-3.6,0.8c-0.6,0.1-1.1,0.3-1.7,0.4
				c-2.1,0.4-4.3,0.7-6.5,0.9c-0.7,0.1-1.4,0.1-2.1,0.2c-1.2,0.1-2.5,0.2-3.7,0.2c-0.8,0-1.6,0.1-2.4,0.1c-1,0-2.1,0-3.1,0
				c-0.9,0-1.7,0-2.6-0.1c-0.9,0-1.9-0.1-2.8-0.2c-0.9-0.1-1.7-0.1-2.6-0.2c-0.9-0.1-1.9-0.2-2.8-0.3c-0.9-0.1-1.7-0.2-2.5-0.3
				c-1-0.2-2-0.3-2.9-0.5c-0.8-0.1-1.6-0.3-2.4-0.5c-1.2-0.3-2.3-0.5-3.5-0.8c-0.6-0.2-1.3-0.3-1.9-0.5c-2-0.6-4-1.3-5.9-2
				c-0.3-0.1-0.6-0.3-0.9-0.4c-2.6-1-5.1-2.2-7.4-3.5L206.3,592l-104.9-60.6l-39.6-22.9L61.7,528l39.6,22.9l104.9,60.6l234.9,135.6
				c2.3,1.3,4.8,2.5,7.4,3.5c0.2,0.1,0.4,0.2,0.6,0.3c0.1,0,0.3,0.1,0.4,0.1c1.9,0.7,3.9,1.4,5.9,2c0.1,0,0.3,0.1,0.4,0.1
				c0.5,0.1,1,0.2,1.5,0.4c1.1,0.3,2.3,0.6,3.5,0.8c0.3,0.1,0.5,0.1,0.8,0.2c0.5,0.1,1.1,0.2,1.6,0.3c1,0.2,1.9,0.4,2.9,0.5
				c0.3,0.1,0.7,0.1,1,0.2c0.5,0.1,1,0.1,1.6,0.2c0.9,0.1,1.8,0.2,2.8,0.3c0.4,0,0.7,0.1,1.1,0.1c0.5,0,1,0,1.5,0.1
				c0.9,0.1,1.9,0.1,2.8,0.2c0.4,0,0.8,0.1,1.2,0.1c0.5,0,0.9,0,1.4,0c1,0,2.1,0,3.1,0c0.4,0,0.9,0,1.3,0c0.4,0,0.7-0.1,1.1-0.1
				c1.2-0.1,2.5-0.1,3.7-0.2c0.5,0,1,0,1.5-0.1c0.2,0,0.4-0.1,0.6-0.1c2.2-0.2,4.4-0.5,6.5-0.9c0,0,0.1,0,0.2,0
				c0.5-0.1,1-0.2,1.6-0.3c1.2-0.2,2.4-0.5,3.6-0.8c0.7-0.2,1.4-0.4,2.1-0.6c1.1-0.3,2.1-0.6,3.1-0.9c0.2-0.1,0.3-0.1,0.5-0.1
				c0.3-0.1,0.6-0.2,0.9-0.4c1.6-0.5,3.2-1.1,4.7-1.8c0.5-0.2,1.1-0.4,1.6-0.7c1.9-0.8,3.7-1.7,5.4-2.8l455.8-264.9
				c0.2-0.1,0.5-0.3,0.7-0.4c0.5-0.3,1-0.7,1.5-1c0.7-0.5,1.4-0.9,2.1-1.4c0.6-0.4,1.1-0.8,1.6-1.3c0.6-0.5,1.2-1,1.8-1.5
				c0.1-0.1,0.3-0.2,0.4-0.3c0.2-0.2,0.4-0.4,0.6-0.6c0.9-0.9,1.7-1.7,2.4-2.6c0.2-0.2,0.4-0.4,0.5-0.6c0.1-0.2,0.2-0.4,0.4-0.6
				c0.5-0.7,0.9-1.3,1.4-2c0.2-0.3,0.4-0.6,0.6-0.8c0.1-0.1,0.1-0.3,0.2-0.4c0.3-0.6,0.6-1.2,0.8-1.8c0.2-0.4,0.4-0.7,0.5-1.1
				c0-0.1,0.1-0.2,0.1-0.3c0.2-0.6,0.3-1.1,0.5-1.7c0.1-0.4,0.3-0.8,0.3-1.2c0-0.1,0-0.2,0-0.3c0.1-0.6,0.1-1.2,0.2-1.7
				c0-0.4,0.1-0.8,0.1-1.2c0-0.2,0-0.3,0-0.5l0.1-19.4C993.5,439.6,993.4,440.2,993.4,440.7z"/>
			<g>
				<linearGradient id="SVGID_7_" gradientUnits="userSpaceOnUse" x1="61.7109" y1="467.0483" x2="993.4978" y2="467.0483">
					<stop  offset="0" style="stop-color:#AA6300"/>
					<stop  offset="1" style="stop-color:#D09539"/>
				</linearGradient>
				<path class="st12" d="M977.2,416.2c21.9,12.6,21.7,33.3-0.5,46.2L520.9,727.2c-22.1,12.9-57.8,13.1-79.7,0.4L206.3,592
					l-104.9-60.6l-39.6-22.9l40.1-23.3l455.8-264.9l40.1-23.3l39.6,22.9l104.9,60.6L977.2,416.2z"/>
			</g>
		</g>
	</g>
	<g>
		<linearGradient id="SVGID_8_" gradientUnits="userSpaceOnUse" x1="414.3611" y1="508.957" x2="639.4656" y2="508.957">
			<stop  offset="0" style="stop-color:#AA6300"/>
			<stop  offset="1" style="stop-color:#D09539"/>
		</linearGradient>
		<path class="st13" d="M639,456.1c0,0.3-0.1,0.5-0.1,0.8c-0.3,1.8-0.8,3.7-1.4,5.5c-0.1,0.3-0.2,0.5-0.3,0.8
			c-0.6,1.8-1.4,3.6-2.3,5.4c-0.1,0.3-0.3,0.6-0.4,0.8c-0.9,1.8-2,3.5-3.2,5.3c-0.2,0.3-0.4,0.5-0.6,0.8c-1.1,1.6-2.4,3.2-3.8,4.7
			c-0.2,0.3-0.5,0.5-0.7,0.8c-1.6,1.7-3.3,3.4-5.2,5c-0.3,0.2-0.6,0.5-0.8,0.7c-1.8,1.6-3.8,3.1-5.9,4.7c-0.3,0.2-0.6,0.4-1,0.7
			c-2.3,1.6-4.7,3.2-7.3,4.7c-2.5,1.4-5,2.8-7.7,4c-0.7,0.3-1.4,0.7-2.1,1c-2.3,1-4.5,2-6.9,3c-0.5,0.2-0.9,0.4-1.4,0.6
			c-2.7,1-5.4,2-8.2,2.8c-2,0.6-4.1,1.2-6.2,1.8c-1.4,0.4-2.7,0.8-4.1,1.1c-2.3,0.6-4.7,1-7.1,1.5c-1.2,0.2-2.4,0.5-3.7,0.8
			c-0.4,0.1-0.9,0.1-1.3,0.2c-2.7,0.5-5.4,0.9-8.2,1.2c-0.8,0.1-1.7,0.2-2.5,0.3c-1.7,0.2-3.4,0.3-5.1,0.4c-2.4,0.2-4.9,0.4-7.4,0.5
			c-1.6,0.1-3.2,0.1-4.9,0.2c-2.1,0-4.1,0.1-6.2,0c-1.7,0-3.4-0.1-5.1-0.1c-1.9-0.1-3.8-0.2-5.7-0.3c-1.7-0.1-3.5-0.2-5.2-0.4
			c-1.8-0.2-3.7-0.4-5.5-0.6c-1.7-0.2-3.4-0.4-5.1-0.7c-2-0.3-3.9-0.6-5.8-1c-1.6-0.3-3.2-0.6-4.7-0.9c-2.3-0.5-4.6-1.1-6.9-1.7
			c-1.4-0.4-2.9-0.7-4.3-1.1c-0.7-0.2-1.4-0.4-2.2-0.7c-2.3-0.7-4.6-1.5-6.8-2.3c-0.7-0.2-1.4-0.5-2-0.7c-2-0.8-4-1.6-5.9-2.5
			c-0.9-0.4-1.9-0.8-2.8-1.2c-2.8-1.3-5.5-2.7-8.1-4.2c-21.7-12.5-32.5-29-32.5-45.6l-0.1,51.4c0,16.6,10.8,33.1,32.5,45.6
			c2.6,1.5,5.3,2.9,8.1,4.2c0.9,0.4,1.9,0.8,2.9,1.2c1.6,0.7,3.2,1.5,4.8,2.1c0.4,0.1,0.7,0.3,1.1,0.4c0.7,0.3,1.3,0.5,2,0.7
			c2.2,0.8,4.5,1.6,6.8,2.3c0.7,0.2,1.4,0.5,2.2,0.7c0.4,0.1,0.8,0.3,1.3,0.4c1,0.3,2,0.5,3,0.7c2.3,0.6,4.6,1.2,6.9,1.7
			c0.5,0.1,1.1,0.3,1.6,0.4c1,0.2,2.1,0.3,3.1,0.5c1.9,0.4,3.9,0.7,5.8,1c0.7,0.1,1.3,0.3,2,0.4c1,0.1,2,0.2,3.1,0.3
			c1.8,0.2,3.7,0.4,5.5,0.6c0.8,0.1,1.5,0.2,2.2,0.3c1,0.1,2,0.1,3,0.2c1.9,0.1,3.8,0.2,5.7,0.3c0.8,0,1.6,0.1,2.4,0.1
			c0.9,0,1.8,0,2.7,0c2.1,0,4.1,0,6.2,0c0.9,0,1.8,0,2.7,0c0.7,0,1.5-0.1,2.2-0.1c2.5-0.1,4.9-0.3,7.4-0.5c1-0.1,2-0.1,2.9-0.2
			c0.7-0.1,1.4-0.2,2.1-0.3c0.8-0.1,1.7-0.2,2.5-0.3c2.7-0.3,5.5-0.7,8.2-1.2c0.4-0.1,0.9-0.1,1.3-0.2c0.2,0,0.3,0,0.5-0.1
			c1.1-0.2,2.1-0.5,3.2-0.7c2.4-0.5,4.8-1,7.1-1.5c1.4-0.3,2.7-0.8,4.1-1.1c2.1-0.6,4.2-1.1,6.2-1.8c0.3-0.1,0.7-0.2,1-0.3
			c2.4-0.8,4.8-1.6,7.2-2.5c0.5-0.2,0.9-0.4,1.4-0.6c2.3-0.9,4.6-1.9,6.9-3c0.7-0.3,1.4-0.7,2.2-1c2.6-1.3,5.2-2.6,7.7-4
			c0.5-0.3,0.9-0.6,1.4-0.8c2.1-1.2,4-2.5,5.8-3.8c0.3-0.2,0.6-0.4,1-0.7c2.1-1.5,4.1-3.1,5.9-4.7c0.3-0.2,0.6-0.5,0.8-0.7
			c0.4-0.3,0.7-0.6,1.1-0.9c1.5-1.3,2.8-2.7,4.1-4.1c0.2-0.3,0.5-0.5,0.7-0.8c0.8-0.9,1.6-1.8,2.3-2.7c0.5-0.7,1-1.3,1.4-2
			c0.2-0.3,0.4-0.5,0.6-0.8c0.9-1.3,1.8-2.7,2.6-4.1c0.2-0.4,0.4-0.8,0.6-1.2c0.1-0.3,0.3-0.6,0.4-0.8c0.7-1.5,1.4-2.9,2-4.4
			c0.1-0.3,0.2-0.7,0.3-1c0.1-0.3,0.2-0.5,0.3-0.8c0.5-1.5,0.9-3.1,1.2-4.6c0.1-0.3,0.1-0.6,0.1-0.8c0-0.3,0.1-0.5,0.1-0.8
			c0.3-1.6,0.4-3.2,0.5-4.8c0-0.3,0-0.7,0-1l0.1-51.4C639.5,452.2,639.3,454.2,639,456.1z"/>
		<g>
			<linearGradient id="SVGID_9_" gradientUnits="userSpaceOnUse" x1="414.5069" y1="451.1157" x2="639.4656" y2="451.1157">
				<stop  offset="0" style="stop-color:#D09539"/>
				<stop  offset="1" style="stop-color:#AA6300"/>
			</linearGradient>
			<path class="st14" d="M607,404.6c43.7,25.2,43.3,66.5-0.9,92.1c-44.2,25.7-115.4,26-159.1,0.8c-43.7-25.2-43.3-66.5,0.9-92.1
				C492.1,379.8,563.3,379.4,607,404.6z"/>
		</g>
	</g>
	<g>
		<g class="st4">
			<linearGradient id="SVGID_10_" gradientUnits="userSpaceOnUse" x1="441.2815" y1="441.2414" x2="612.1269" y2="441.2414">
				<stop  offset="0" style="stop-color:#FFA21E"/>
				<stop  offset="1" style="stop-color:#FFCB27"/>
			</linearGradient>
			<path class="st15" d="M611.9,395.5c-0.1,0.9-0.1,1.8-0.3,2.6c-0.1,0.7-0.4,1.5-0.6,2.2c-0.2,0.9-0.4,1.7-0.7,2.6
				c-0.3,0.7-0.6,1.4-0.9,2.1c-0.4,0.9-0.8,1.8-1.3,2.7c-0.3,0.6-0.8,1.3-1.2,1.9c-0.6,1-1.3,2.1-2.1,3.1c-0.7,1-1.5,2-2.4,2.9
				c-0.2,0.2-0.3,0.4-0.5,0.6c-1.1,1.2-2.4,2.4-3.7,3.6c-0.8,0.8-1.8,1.5-2.7,2.2c-0.8,0.6-1.6,1.3-2.4,1.9c-1,0.7-2.1,1.4-3.2,2.1
				c-1.1,0.7-2.1,1.4-3.3,2.1c-2.6,1.5-5.4,2.9-8.3,4.2c-0.8,0.4-1.6,0.7-2.4,1c-2.3,1-4.7,1.9-7.1,2.7c-0.7,0.2-1.4,0.5-2.2,0.8
				c-1.6,0.5-3.2,0.9-4.8,1.4c-1,0.3-2,0.6-3.1,0.8c-1.8,0.4-3.7,0.8-5.6,1.2c-0.8,0.2-1.7,0.4-2.5,0.5c-3.3,0.6-6.6,1-9.9,1.4
				c-1.1,0.1-2.1,0.2-3.2,0.3c-1.9,0.2-3.7,0.3-5.6,0.4c-1.2,0.1-2.5,0.1-3.7,0.1c-1.6,0-3.1,0-4.7,0c-1.3,0-2.6,0-3.9-0.1
				c-1.4-0.1-2.9-0.1-4.3-0.2c-1.3-0.1-2.6-0.2-3.9-0.3c-1.4-0.1-2.8-0.3-4.2-0.5c-1.3-0.2-2.6-0.3-3.9-0.5
				c-1.5-0.2-2.9-0.5-4.4-0.8c-1.2-0.2-2.4-0.4-3.6-0.7c-1.8-0.4-3.5-0.8-5.2-1.3c-1-0.3-1.9-0.5-2.8-0.8c-3.1-0.9-6-1.9-8.9-3
				c-1.4-0.6-2.8-1.2-4.2-1.8c-0.7-0.3-1.5-0.6-2.2-0.9c-2.1-1-4.2-2.1-6.1-3.2c-16.4-9.4-24.5-21.9-24.5-34.5l-0.1,46.4
				c0,12.6,8.1,25,24.5,34.5c2,1.1,4,2.2,6.1,3.2c0.7,0.3,1.5,0.6,2.2,0.9c1.2,0.5,2.4,1.1,3.6,1.6c0.2,0.1,0.4,0.1,0.6,0.2
				c2.9,1.1,5.9,2.1,8.9,3c0.2,0.1,0.4,0.1,0.6,0.2c0.7,0.2,1.5,0.4,2.3,0.6c1.7,0.5,3.5,0.9,5.2,1.3c0.4,0.1,0.8,0.2,1.2,0.3
				c0.8,0.2,1.6,0.3,2.4,0.4c1.5,0.3,2.9,0.5,4.4,0.8c0.5,0.1,1,0.2,1.5,0.3c0.8,0.1,1.6,0.2,2.4,0.3c1.4,0.2,2.8,0.3,4.2,0.5
				c0.6,0.1,1.1,0.1,1.6,0.2c0.8,0.1,1.5,0.1,2.3,0.1c1.4,0.1,2.9,0.2,4.3,0.2c0.6,0,1.2,0.1,1.8,0.1c0.7,0,1.4,0,2.1,0
				c1.6,0,3.1,0,4.7,0c0.7,0,1.3,0,2,0c0.6,0,1.1-0.1,1.7-0.1c1.9-0.1,3.7-0.2,5.6-0.4c0.7-0.1,1.5-0.1,2.2-0.1c0.3,0,0.7-0.1,1-0.1
				c3.3-0.4,6.6-0.8,9.9-1.4c0.1,0,0.1,0,0.2,0c0.8-0.1,1.5-0.3,2.3-0.5c1.9-0.4,3.8-0.8,5.6-1.2c1-0.3,2-0.6,3.1-0.8
				c1.6-0.4,3.2-0.9,4.8-1.4c0.2-0.1,0.5-0.1,0.8-0.2c0.5-0.2,0.9-0.4,1.4-0.5c2.4-0.8,4.8-1.7,7.1-2.7c0.8-0.3,1.6-0.7,2.4-1
				c2.9-1.3,5.7-2.7,8.3-4.2c0.4-0.2,0.7-0.4,1.1-0.6c0.8-0.5,1.5-1,2.2-1.5c1.1-0.7,2.2-1.4,3.2-2.1c0.9-0.6,1.6-1.3,2.4-1.9
				c0.9-0.7,1.9-1.5,2.7-2.2c0.2-0.2,0.4-0.3,0.6-0.5c1.1-1,2.1-2.1,3.1-3.1c0.2-0.2,0.4-0.4,0.5-0.6c0.6-0.7,1.2-1.4,1.8-2.1
				c0.2-0.3,0.4-0.6,0.6-0.9c0.8-1,1.4-2,2.1-3.1c0.3-0.4,0.6-0.9,0.9-1.3c0.1-0.2,0.2-0.4,0.3-0.6c0.5-0.9,0.9-1.8,1.3-2.7
				c0.2-0.5,0.6-1.1,0.8-1.6c0.1-0.2,0.1-0.3,0.1-0.5c0.3-0.9,0.5-1.7,0.7-2.6c0.2-0.6,0.4-1.2,0.5-1.8c0-0.1,0-0.3,0.1-0.4
				c0.2-0.9,0.2-1.8,0.3-2.6c0.1-0.6,0.2-1.2,0.2-1.8c0-0.3,0-0.5,0-0.8l0.1-46.4C612.1,393.8,612,394.7,611.9,395.5z"/>
			<linearGradient id="SVGID_11_" gradientUnits="userSpaceOnUse" x1="422.4208" y1="398.6606" x2="631.3052" y2="398.6606">
				<stop  offset="0" style="stop-color:#FFA21E"/>
				<stop  offset="1" style="stop-color:#FFCB27"/>
			</linearGradient>
			<path class="st16" d="M607.9,408.3c0.6-1.1,1.2-2.3,1.7-3.5l21.7-50.8c-0.6,1.5-1.4,2.9-2.2,4.4c-0.3,0.5-0.6,0.9-0.8,1.4
				c-0.6,1-1.2,2-1.9,2.9c-0.4,0.6-0.8,1.1-1.3,1.7c-0.6,0.8-1.2,1.5-1.8,2.3c-0.5,0.6-1,1.2-1.5,1.7c-0.7,0.7-1.4,1.5-2.1,2.2
				c-0.6,0.6-1.2,1.1-1.8,1.7c-0.8,0.7-1.6,1.4-2.4,2.1c-0.6,0.5-1.3,1.1-2,1.6c-0.9,0.7-1.8,1.4-2.7,2c-0.7,0.5-1.3,1-2,1.4
				c-2,1.4-4.1,2.7-6.3,4c-2.5,1.5-5.1,2.8-7.8,4.1c-0.9,0.4-1.8,0.8-2.7,1.2c-1.8,0.8-3.7,1.6-5.6,2.4c-1.1,0.4-2.3,0.8-3.4,1.2
				c-1.8,0.6-3.5,1.3-5.3,1.8c-1.2,0.4-2.5,0.8-3.7,1.1c-1.9,0.5-3.8,1.1-5.7,1.5c-0.9,0.2-1.9,0.5-2.8,0.7c-2.3,0.5-4.6,1-7,1.4
				c-0.7,0.1-1.3,0.3-2,0.4c-3,0.5-6,1-9.1,1.3c-0.7,0.1-1.5,0.1-2.2,0.2c-2.1,0.2-4.3,0.4-6.4,0.6c-2.8,0.2-5.6,0.3-8.5,0.4
				c-1,0-2.1,0.1-3.1,0.1c-3.9,0-7.7,0-11.6-0.2c-3.2-0.2-6.4-0.4-9.5-0.7c-0.7-0.1-1.5-0.2-2.2-0.3c-2.4-0.3-4.9-0.6-7.3-1
				c-1.1-0.2-2.2-0.4-3.3-0.6c-2-0.4-4-0.7-5.9-1.2c-1.2-0.3-2.4-0.6-3.6-0.8c-1.9-0.5-3.7-0.9-5.5-1.5c-1.2-0.3-2.4-0.7-3.5-1
				c-1.8-0.6-3.6-1.2-5.3-1.8c-1.1-0.4-2.2-0.8-3.2-1.2c-1.9-0.7-3.7-1.5-5.5-2.3c-0.9-0.4-1.8-0.8-2.6-1.2c-2.6-1.2-5.2-2.6-7.6-4
				c-14.2-8.2-23.6-18.2-28-28.8c7.1,17,14.3,33.9,21.4,50.9c0.2,0.6,0.5,1.1,0.8,1.7c0.2,0.5,0.4,0.9,0.7,1.4
				c0.3,0.6,0.7,1.1,1,1.7c0.3,0.4,0.5,0.9,0.8,1.3c0.4,0.6,0.8,1.1,1.2,1.6c0.3,0.5,0.6,0.9,1,1.4c0.4,0.5,1,1.1,1.4,1.6
				c0.4,0.4,0.7,0.9,1.2,1.3c0.6,0.6,1.3,1.2,1.9,1.8c0.4,0.3,0.7,0.7,1,1c0.7,0.6,1.5,1.2,2.2,1.8c0.4,0.3,0.7,0.6,1.1,0.9
				c0.8,0.6,1.6,1.1,2.4,1.7c0.4,0.3,0.8,0.6,1.3,0.9c1.3,0.9,2.6,1.7,4,2.5c1.9,1.1,4,2.2,6,3.1c0.7,0.3,1.4,0.6,2.1,0.9
				c1.4,0.6,2.9,1.3,4.3,1.8c0.8,0.3,1.7,0.6,2.6,0.9c1.4,0.5,2.8,1,4.2,1.4c0.9,0.3,1.8,0.6,2.8,0.8c1.4,0.4,2.9,0.8,4.4,1.1
				c0.9,0.2,1.9,0.5,2.8,0.7c1.6,0.3,3.1,0.6,4.7,0.9c0.9,0.2,1.8,0.3,2.6,0.5c1.9,0.3,3.8,0.6,5.7,0.8c0.6,0.1,1.2,0.2,1.7,0.2
				c2.4,0.3,4.8,0.4,7.3,0.6c0.1,0,0.2,0,0.3,0c3,0.2,6.1,0.2,9.2,0.2c0.8,0,1.7-0.1,2.5-0.1c2.2-0.1,4.5-0.2,6.7-0.3
				c0.4,0,0.9,0,1.3-0.1c0.5,0,1-0.1,1.5-0.2c3.3-0.3,6.6-0.7,9.8-1.2c0.5-0.1,0.9-0.1,1.4-0.2c3.6-0.6,7-1.4,10.5-2.3
				c0.4-0.1,0.8-0.1,1.1-0.2c0.8-0.2,1.6-0.5,2.5-0.7c1-0.3,2-0.6,3-0.9c1.4-0.5,2.8-1,4.2-1.5c0.9-0.3,1.8-0.6,2.7-1
				c1.5-0.6,3-1.2,4.4-1.9c0.7-0.3,1.5-0.6,2.2-1c2.1-1,4.2-2.1,6.2-3.3c1.8-1,3.4-2.1,5-3.2c0.2-0.1,0.4-0.2,0.6-0.4
				c0.4-0.3,0.7-0.5,1.1-0.8c0.7-0.5,1.4-1.1,2.1-1.6c0.5-0.4,1.1-0.9,1.6-1.3c0.6-0.5,1.3-1.1,1.9-1.7c0.5-0.5,1-0.9,1.4-1.4
				c0.6-0.6,1.1-1.1,1.6-1.7c0.4-0.5,0.8-0.9,1.2-1.4c0.5-0.6,1-1.2,1.4-1.8c0.2-0.3,0.5-0.6,0.7-0.9c0.1-0.2,0.2-0.3,0.3-0.5
				c0.5-0.8,1-1.5,1.5-2.3C607.4,409.1,607.6,408.7,607.9,408.3z"/>
			<g class="st4">
				<defs>
					<path id="SVGID_12_" class="st4" d="M609.9,274.4c0.6,1.5,1.5,3.5,2.1,5c0.3,0.7,0.7,1.7,1.1,2.5c0.6,1.5,1.5,3.5,2.1,5
						c0.3,0.7,0.7,1.7,1.1,2.5c0.6,1.5,1.5,3.5,2.1,5c0.3,0.7,0.7,1.7,1.1,2.5c0.6,1.5,1.5,3.5,2.1,5c0.6,1.5,1.5,3.5,2.1,5
						c0.3,0.7,0.7,1.7,1.1,2.5c0.6,1.5,1.5,3.5,2.1,5c0.6,1.5,1.5,3.5,2.1,5c0.3,0.7,0.7,1.7,1.1,2.5c0.3,0.7,0.7,1.7,1.1,2.5
						c8.9,20.6-0.7,43.4-28.7,59.6c-42.2,24.5-110.3,24.9-152.1,0.8c-27.5-15.9-36.7-38.4-27.7-59c0,0,0,0,0,0
						c0.6-1.5,1.5-3.5,2.2-4.9c0.3-0.7,0.8-1.7,1.1-2.5c0.6-1.5,1.5-3.5,2.2-4.9c0.3-0.7,0.8-1.7,1.1-2.5c0.6-1.5,1.5-3.5,2.2-4.9
						c0.3-0.7,0.8-1.7,1.1-2.5c0.6-1.5,1.5-3.5,2.2-4.9c0.6-1.5,1.5-3.5,2.2-4.9c0.3-0.7,0.8-1.7,1.1-2.5c0.6-1.5,1.5-3.5,2.2-4.9
						c0.6-1.5,1.5-3.5,2.2-4.9c0.3-0.7,0.8-1.7,1.1-2.5c0.3-0.7,0.8-1.7,1.1-2.5c-7.2,16.3,0.1,34.2,21.8,46.7
						c33,19,87,18.8,120.7-0.8C609.3,308.9,616.9,290.7,609.9,274.4z"/>
				</defs>
				<linearGradient id="SVGID_13_" gradientUnits="userSpaceOnUse" x1="419.3765" y1="338.3106" x2="634.4689" y2="338.3106">
					<stop  offset="0" style="stop-color:#FFA21E"/>
					<stop  offset="1" style="stop-color:#FFCB27"/>
				</linearGradient>
				<use xlink:href="#SVGID_12_"  style="overflow:visible;fill:url(#SVGID_13_);"/>
				<clipPath id="SVGID_14_">
					<use xlink:href="#SVGID_12_"  style="overflow:visible;"/>
				</clipPath>
				<linearGradient id="SVGID_15_" gradientUnits="userSpaceOnUse" x1="419.3764" y1="338.3106" x2="634.4688" y2="338.3106">
					<stop  offset="0" style="stop-color:#FFA21E"/>
					<stop  offset="1" style="stop-color:#FFCB27"/>
				</linearGradient>
				<path class="st17" d="M634.4,336.4c-0.1-1.4-0.3-2.8-0.6-4.2c-0.3-1.4-0.6-2.9-1.1-4.3c-0.4-1.3-0.9-2.7-1.5-4l-21.4-49.5
					c0.5,1.1,0.8,2.1,1.2,3.2c0.3,1.1,0.6,2.3,0.8,3.4c0.2,1.1,0.4,2.2,0.4,3.4c0.1,1.1,0.1,2.2,0,3.4c-0.1,1.1-0.2,2.3-0.4,3.4
					c-0.2,1.1-0.4,2.3-0.8,3.4c-0.3,1.2-0.7,2.3-1.2,3.5c-0.5,1.2-1.1,2.4-1.8,3.6c-0.7,1.3-1.5,2.6-2.4,3.8c-1,1.4-2.2,2.8-3.4,4.2
					c-1.5,1.6-3.2,3.3-5,4.8c-2.5,2.2-5.4,4.2-8.6,6.2c-0.6,0.4-1.3,0.8-1.9,1.2c-10.2,5.9-22.3,10.1-35.1,12.5
					c-2.5,0.5-5,0.9-7.6,1.2c-2,0.3-4.1,0.5-6.2,0.7c-1.9,0.2-3.7,0.3-5.6,0.4c-1.8,0.1-3.6,0.1-5.3,0.2c-1.8,0-3.5,0-5.3,0
					c-1.8,0-3.6-0.1-5.3-0.2c-1.8-0.1-3.6-0.2-5.4-0.4c-1.8-0.2-3.6-0.4-5.4-0.6c-1.8-0.2-3.6-0.5-5.3-0.8c-1.8-0.3-3.6-0.7-5.3-1.1
					c-1.8-0.4-3.6-0.8-5.3-1.3c-1.8-0.5-3.6-1-5.3-1.6c-1.8-0.6-3.6-1.2-5.4-1.9c-1.9-0.7-3.7-1.5-5.5-2.3c-2-0.9-3.9-1.9-5.8-2.9
					c-0.6-0.3-1.2-0.6-1.7-1c-1.5-0.9-3-1.8-4.4-2.7c-2.5-1.7-4.8-3.5-6.9-5.3c-12.8-11.5-16.4-25.6-10.6-38.7l-21.7,49.4
					c-7.2,16.5-2.7,34.2,13.5,48.8c2.6,2.3,5.5,4.6,8.7,6.7c1.8,1.2,3.6,2.3,5.5,3.4c0.7,0.4,1.5,0.8,2.2,1.2
					c2.4,1.3,4.8,2.5,7.3,3.6c2.3,1,4.6,2,6.9,2.9c2.2,0.8,4.5,1.6,6.8,2.4c2.2,0.7,4.4,1.4,6.7,2c2.2,0.6,4.4,1.1,6.7,1.6
					c2.2,0.5,4.5,0.9,6.7,1.3c2.2,0.4,4.5,0.8,6.7,1.1c2.2,0.3,4.5,0.6,6.8,0.8c2.2,0.2,4.5,0.4,6.8,0.5c2.2,0.1,4.5,0.2,6.7,0.3
					c2.2,0.1,4.5,0.1,6.7,0c2.2,0,4.5-0.1,6.7-0.2c2.3-0.1,4.7-0.3,7-0.5c2.6-0.2,5.2-0.5,7.8-0.8c3.2-0.4,6.4-0.9,9.5-1.5
					c16.1-3,31.3-8.2,44.1-15.6c0.8-0.5,1.6-1,2.4-1.5c4-2.5,7.6-5.1,10.7-7.8c2.3-2,4.4-4,6.3-6.1c1.6-1.7,3-3.5,4.3-5.3
					c1.1-1.6,2.1-3.2,3-4.8c0.8-1.5,1.6-3,2.2-4.6c0.6-1.5,1.1-2.9,1.5-4.4c0.4-1.4,0.7-2.9,1-4.3c0.2-1.4,0.4-2.8,0.4-4.3
					C634.5,339.2,634.5,337.8,634.4,336.4z"/>
			</g>
			<linearGradient id="SVGID_16_" gradientUnits="userSpaceOnUse" x1="441.7148" y1="288.4034" x2="612.5602" y2="288.4034">
				<stop  offset="0" style="stop-color:#FFA21E"/>
				<stop  offset="1" style="stop-color:#FFCB27"/>
			</linearGradient>
			<path class="st18" d="M612.6,240.1c0,0.9-0.1,1.7-0.2,2.6c-0.1,0.9-0.1,1.8-0.3,2.6c-0.1,0.7-0.4,1.5-0.6,2.2
				c-0.2,0.9-0.4,1.7-0.7,2.6c-0.3,0.7-0.6,1.4-0.9,2.1c-0.4,0.9-0.8,1.8-1.3,2.7c-0.3,0.6-0.8,1.3-1.2,1.9c-0.6,1-1.3,2.1-2.1,3.1
				c-0.7,1-1.5,2-2.4,2.9c-0.2,0.2-0.3,0.4-0.5,0.6c-1.1,1.2-2.4,2.4-3.7,3.6c-0.8,0.8-1.8,1.5-2.7,2.2c-0.8,0.6-1.6,1.3-2.4,1.9
				c-1,0.7-2.1,1.4-3.2,2.1c-1.1,0.7-2.1,1.4-3.3,2.1c-2.6,1.5-5.4,2.9-8.3,4.2c-0.8,0.4-1.6,0.7-2.4,1c-2.3,1-4.7,1.9-7.1,2.7
				c-0.7,0.2-1.4,0.5-2.2,0.8c-1.6,0.5-3.2,0.9-4.8,1.4c-1,0.3-2,0.6-3.1,0.8c-1.8,0.4-3.7,0.8-5.6,1.2c-0.8,0.2-1.7,0.4-2.5,0.5
				c-3.3,0.6-6.6,1-9.9,1.4c-1.1,0.1-2.1,0.2-3.2,0.3c-1.9,0.2-3.7,0.3-5.6,0.4c-1.2,0.1-2.5,0.1-3.7,0.1c-1.6,0-3.1,0-4.7,0
				c-1.3,0-2.6,0-3.9-0.1c-1.4-0.1-2.9-0.1-4.3-0.2c-1.3-0.1-2.6-0.2-4-0.3c-1.4-0.1-2.8-0.3-4.2-0.5c-1.3-0.2-2.6-0.3-3.9-0.5
				c-1.5-0.2-2.9-0.5-4.4-0.8c-1.2-0.2-2.4-0.4-3.6-0.7c-1.8-0.4-3.5-0.8-5.2-1.3c-1-0.3-1.9-0.5-2.8-0.8c-3.1-0.9-6-1.9-8.9-3
				c-1.4-0.6-2.8-1.2-4.2-1.8c-0.7-0.3-1.5-0.6-2.2-0.9c-2.1-1-4.2-2.1-6.1-3.2c-16.4-9.4-24.5-21.9-24.5-34.5l-0.1,46.4
				c0,12.6,8.1,25,24.5,34.5c2,1.1,4,2.2,6.1,3.2c0.7,0.3,1.5,0.6,2.2,0.9c1.2,0.5,2.4,1.1,3.6,1.6c0.2,0.1,0.4,0.1,0.6,0.2
				c2.9,1.1,5.9,2.1,8.9,3c0.2,0.1,0.4,0.1,0.6,0.2c0.7,0.2,1.5,0.4,2.3,0.6c1.7,0.5,3.5,0.9,5.2,1.3c0.4,0.1,0.8,0.2,1.2,0.3
				c0.8,0.2,1.6,0.3,2.4,0.4c1.5,0.3,2.9,0.5,4.4,0.8c0.5,0.1,1,0.2,1.5,0.3c0.8,0.1,1.6,0.2,2.4,0.3c1.4,0.2,2.8,0.3,4.2,0.5
				c0.6,0.1,1.1,0.1,1.6,0.2c0.8,0.1,1.5,0.1,2.3,0.1c1.4,0.1,2.9,0.2,4.3,0.2c0.6,0,1.2,0.1,1.8,0.1c0.7,0,1.4,0,2.1,0
				c1.6,0,3.1,0,4.7,0c0.7,0,1.3,0,2,0c0.6,0,1.1-0.1,1.7-0.1c1.9-0.1,3.7-0.2,5.6-0.4c0.7-0.1,1.5-0.1,2.2-0.1c0.3,0,0.7-0.1,1-0.1
				c3.3-0.4,6.6-0.8,9.9-1.4c0.1,0,0.1,0,0.2,0c0.8-0.1,1.5-0.3,2.3-0.5c1.9-0.4,3.8-0.8,5.6-1.2c1-0.3,2-0.6,3.1-0.8
				c1.6-0.4,3.2-0.9,4.8-1.4c0.2-0.1,0.5-0.1,0.8-0.2c0.5-0.2,0.9-0.4,1.4-0.5c2.4-0.8,4.8-1.7,7.1-2.7c0.8-0.3,1.6-0.7,2.4-1
				c2.9-1.3,5.7-2.7,8.3-4.2c0.4-0.2,0.7-0.4,1.1-0.6c0.8-0.5,1.5-1,2.2-1.5c1.1-0.7,2.2-1.4,3.2-2.1c0.9-0.6,1.6-1.3,2.4-1.9
				c0.9-0.7,1.9-1.5,2.7-2.2c0.2-0.2,0.4-0.3,0.6-0.5c1.1-1,2.1-2.1,3.1-3.1c0.2-0.2,0.4-0.4,0.5-0.6c0.6-0.7,1.2-1.4,1.8-2.1
				c0.2-0.3,0.4-0.6,0.6-0.9c0.8-1,1.4-2,2.1-3.1c0.3-0.4,0.6-0.9,0.9-1.3c0.1-0.2,0.2-0.4,0.3-0.6c0.5-0.9,0.9-1.8,1.3-2.7
				c0.2-0.5,0.6-1.1,0.8-1.6c0.1-0.2,0.1-0.3,0.1-0.5c0.3-0.9,0.5-1.7,0.7-2.6c0.2-0.6,0.4-1.2,0.5-1.8c0-0.1,0-0.3,0.1-0.4
				c0.2-0.9,0.2-1.8,0.3-2.6c0.1-0.6,0.2-1.2,0.2-1.8c0-0.3,0-0.5,0-0.8l0,0L612.6,240.1z"/>
			<g>
				<linearGradient id="SVGID_17_" gradientUnits="userSpaceOnUse" x1="441.8463" y1="240.9544" x2="612.5602" y2="240.9544">
					<stop  offset="0" style="stop-color:#FFA21E"/>
					<stop  offset="1" style="stop-color:#FFCB27"/>
				</linearGradient>
				<path class="st19" d="M588,205.6c33,19,32.8,50.3-0.9,69.9c-33.7,19.6-87.8,19.8-120.7,0.8c-33-19-32.7-50.3,1-69.9
					C501.1,186.8,555.1,186.6,588,205.6z"/>
			</g>
		</g>
	</g>
	<g>
		<g class="st4">
			<linearGradient id="SVGID_18_" gradientUnits="userSpaceOnUse" x1="414.3763" y1="252.2442" x2="639.4541" y2="252.2442">
				<stop  offset="0" style="stop-color:#AA6300"/>
				<stop  offset="1" style="stop-color:#D09539"/>
			</linearGradient>
			<path class="st20" d="M639,199.4c0,0.3-0.1,0.5-0.1,0.8c-0.3,1.8-0.8,3.6-1.4,5.5c-0.1,0.3-0.2,0.5-0.3,0.8
				c-0.6,1.8-1.4,3.6-2.3,5.4c-0.1,0.3-0.3,0.6-0.4,0.8c-0.9,1.8-2,3.5-3.2,5.3c-0.2,0.3-0.4,0.5-0.6,0.8c-1.1,1.6-2.4,3.2-3.8,4.7
				c-0.2,0.3-0.5,0.5-0.7,0.8c-1.6,1.7-3.3,3.4-5.2,5c-0.3,0.2-0.6,0.5-0.8,0.7c-1.8,1.6-3.8,3.1-5.9,4.7c-0.3,0.2-0.6,0.4-0.9,0.7
				c-2.3,1.6-4.7,3.2-7.3,4.7c-2.5,1.4-5,2.8-7.7,4c-0.7,0.3-1.4,0.7-2.1,1c-2.3,1-4.6,2-6.9,3c-0.5,0.2-0.9,0.4-1.4,0.6
				c-2.7,1-5.4,2-8.2,2.8c-2,0.6-4.1,1.2-6.2,1.8c-1.4,0.4-2.7,0.8-4.1,1.1c-2.3,0.6-4.7,1-7.1,1.5c-1.2,0.2-2.4,0.5-3.7,0.8
				c-0.4,0.1-0.9,0.1-1.3,0.2c-2.7,0.5-5.4,0.9-8.2,1.2c-0.8,0.1-1.7,0.2-2.5,0.3c-1.7,0.2-3.4,0.3-5.1,0.4
				c-2.4,0.2-4.9,0.4-7.4,0.5c-1.6,0.1-3.2,0.1-4.9,0.2c-2.1,0-4.1,0.1-6.2,0c-1.7,0-3.4-0.1-5.1-0.1c-1.9-0.1-3.8-0.2-5.7-0.3
				c-1.7-0.1-3.5-0.2-5.2-0.4c-1.8-0.2-3.7-0.4-5.5-0.6c-1.7-0.2-3.4-0.4-5.1-0.7c-2-0.3-3.9-0.6-5.8-1c-1.6-0.3-3.2-0.6-4.7-0.9
				c-2.3-0.5-4.6-1.1-6.9-1.7c-1.4-0.4-2.9-0.7-4.3-1.1c-0.7-0.2-1.4-0.4-2.2-0.7c-2.3-0.7-4.6-1.5-6.8-2.3c-0.7-0.2-1.4-0.5-2-0.7
				c-2-0.8-4-1.6-5.9-2.5c-1-0.4-1.9-0.8-2.9-1.2c-2.8-1.3-5.5-2.7-8.1-4.2c-21.7-12.5-32.5-29-32.5-45.6l-0.1,51.4
				c0,16.6,10.8,33.1,32.5,45.6c2.6,1.5,5.3,2.9,8.1,4.2c0.9,0.4,1.9,0.8,2.9,1.2c1.6,0.7,3.2,1.5,4.8,2.1c0.4,0.1,0.7,0.3,1.1,0.4
				c0.7,0.3,1.3,0.5,2,0.7c2.2,0.8,4.5,1.6,6.8,2.3c0.7,0.2,1.4,0.5,2.2,0.7c0.4,0.1,0.8,0.3,1.3,0.4c1,0.3,2,0.5,3,0.7
				c2.3,0.6,4.6,1.2,6.9,1.7c0.5,0.1,1.1,0.3,1.6,0.4c1,0.2,2.1,0.3,3.1,0.5c1.9,0.4,3.9,0.7,5.8,1c0.7,0.1,1.3,0.3,2,0.4
				c1,0.1,2,0.2,3.1,0.3c1.8,0.2,3.7,0.4,5.5,0.6c0.8,0.1,1.5,0.2,2.2,0.3c1,0.1,2,0.1,3,0.2c1.9,0.1,3.8,0.2,5.7,0.3
				c0.8,0,1.6,0.1,2.4,0.1c0.9,0,1.8,0,2.7,0c2.1,0,4.1,0,6.2,0c0.9,0,1.8,0,2.7,0c0.7,0,1.5-0.1,2.2-0.1c2.5-0.1,4.9-0.3,7.4-0.5
				c1-0.1,2-0.1,2.9-0.2c0.7-0.1,1.4-0.2,2.1-0.3c0.8-0.1,1.7-0.2,2.5-0.3c2.7-0.3,5.5-0.7,8.2-1.2c0.4-0.1,0.9-0.1,1.3-0.2
				c0.2,0,0.3,0,0.5-0.1c1.1-0.2,2.1-0.5,3.2-0.7c2.4-0.5,4.8-0.9,7.1-1.5c1.4-0.3,2.8-0.8,4.1-1.1c2.1-0.6,4.2-1.1,6.2-1.8
				c0.3-0.1,0.7-0.2,1-0.3c2.4-0.8,4.8-1.6,7.2-2.6c0.5-0.2,0.9-0.4,1.4-0.6c2.4-0.9,4.6-1.9,6.9-3c0.7-0.3,1.4-0.7,2.1-1
				c2.6-1.3,5.2-2.6,7.7-4c0.5-0.3,0.9-0.6,1.4-0.8c2.1-1.2,4-2.5,5.8-3.8c0.3-0.2,0.6-0.4,0.9-0.7c2.1-1.5,4.1-3.1,5.9-4.7
				c0.3-0.2,0.6-0.5,0.8-0.7c0.4-0.3,0.7-0.6,1.1-0.9c1.5-1.3,2.8-2.7,4.1-4.1c0.2-0.3,0.5-0.5,0.7-0.8c0.8-0.9,1.6-1.8,2.3-2.7
				c0.5-0.7,1-1.3,1.4-2c0.2-0.3,0.4-0.5,0.6-0.8c0.9-1.3,1.8-2.7,2.6-4.1c0.2-0.4,0.4-0.8,0.6-1.2c0.1-0.3,0.3-0.6,0.4-0.8
				c0.7-1.5,1.4-2.9,2-4.4c0.1-0.3,0.2-0.7,0.3-1c0.1-0.3,0.2-0.5,0.3-0.8c0.5-1.5,0.9-3.1,1.2-4.6c0.1-0.3,0.1-0.6,0.1-0.9
				c0-0.3,0.1-0.5,0.1-0.8c0.3-1.6,0.4-3.2,0.5-4.8c0-0.3,0-0.7,0-1l0.1-51.4C639.4,195.5,639.3,197.5,639,199.4z"/>
			<g>
				<linearGradient id="SVGID_19_" gradientUnits="userSpaceOnUse" x1="414.5222" y1="194.3987" x2="639.4542" y2="194.3987">
					<stop  offset="0" style="stop-color:#D09539"/>
					<stop  offset="1" style="stop-color:#AA6300"/>
				</linearGradient>
				<path class="st21" d="M606.9,147.9c43.7,25.2,43.3,66.5-0.9,92.1c-44.2,25.7-115.4,26-159.1,0.8s-43.3-66.5,0.9-92.1
					C492.1,123.1,563.3,122.7,606.9,147.9z"/>
			</g>
		</g>
	</g>
	<g>
		<g class="st4">
			<linearGradient id="SVGID_20_" gradientUnits="userSpaceOnUse" x1="580.9915" y1="455.2265" x2="853.2961" y2="455.2265">
				<stop  offset="0" style="stop-color:#D09539"/>
				<stop  offset="1" style="stop-color:#AA6300"/>
			</linearGradient>
			<path class="st22" d="M811,531.7c0.1-0.7,0.2-1.4,0.4-2.2c0.1-0.4,0.2-0.9,0.2-1.3c0.1-0.4,0.2-0.9,0.3-1.3
				c0.1-0.6,0.3-1.2,0.5-1.8c0.1-0.4,0.2-0.7,0.3-1.1c0.2-0.7,0.4-1.3,0.7-2c0.1-0.3,0.2-0.6,0.3-0.9c0.3-0.8,0.6-1.7,1-2.5
				c0-0.1,0.1-0.2,0.1-0.3c0.4-0.9,0.8-1.8,1.3-2.8c0.1-0.2,0.2-0.5,0.4-0.7c0.4-0.7,0.7-1.4,1.1-2.1c0.1-0.2,0.2-0.4,0.4-0.7
				c0.5-0.9,1-1.8,1.6-2.6c0.1-0.2,0.2-0.3,0.3-0.5c0.5-0.7,0.9-1.4,1.4-2c0.2-0.3,0.5-0.6,0.7-0.9c0.4-0.5,0.8-1,1.2-1.5
				c0.3-0.4,0.6-0.8,1-1.2c0.3-0.4,0.7-0.8,1-1.2c0.5-0.6,1.1-1.2,1.6-1.7c0.3-0.3,0.6-0.6,0.8-0.9c1.1-1.1,2.3-2.1,3.5-3.1
				c0.2-0.2,0.5-0.3,0.7-0.5c1.3-0.9,2.5-1.8,3.8-2.6c1-0.6,2.1-1.1,3.1-1.5c0.3-0.1,0.7-0.3,1-0.4c0.6-0.2,1.2-0.4,1.7-0.6
				c0.4-0.1,0.7-0.2,1.1-0.3c0.3-0.1,0.7-0.2,1-0.2c0.4-0.1,0.9-0.2,1.3-0.2c0.2,0,0.5-0.1,0.7-0.1c0.6,0,1.1,0,1.7,0
				c0.1,0,0.2,0,0.3,0c0.6,0,1.2,0.1,1.8,0.2c0.2,0,0.3,0.1,0.5,0.1c0.5,0.1,0.9,0.2,1.4,0.4c0.1,0.1,0.3,0.1,0.4,0.1
				c0.6,0.2,1.1,0.5,1.6,0.8L623.7,358.3c0,0-0.1-0.1-0.1-0.1c-0.4-0.2-0.8-0.4-1.3-0.6c-0.1,0-0.2-0.1-0.2-0.1
				c-0.1-0.1-0.3-0.1-0.4-0.1c-0.2-0.1-0.4-0.2-0.7-0.2c-0.2-0.1-0.5-0.1-0.7-0.2c-0.2,0-0.3-0.1-0.5-0.1c-0.1,0-0.2,0-0.3-0.1
				c-0.5-0.1-1-0.1-1.5-0.2c0,0,0,0-0.1,0c-0.1,0-0.2,0-0.3,0c-0.4,0-0.8,0-1.3,0c-0.1,0-0.3,0-0.4,0c-0.2,0-0.5,0-0.7,0.1
				c-0.2,0-0.5,0-0.7,0.1c-0.2,0-0.4,0.1-0.6,0.1c-0.3,0.1-0.7,0.1-1,0.2c-0.2,0-0.4,0.1-0.6,0.1c-0.2,0-0.4,0.1-0.5,0.2
				c-0.6,0.2-1.2,0.4-1.7,0.6c-0.2,0.1-0.4,0.1-0.6,0.2c-0.1,0-0.2,0.1-0.3,0.2c-1,0.4-2,0.9-3.1,1.5c-1.3,0.8-2.6,1.6-3.8,2.6
				c-0.2,0.2-0.5,0.3-0.7,0.5c-1.2,0.9-2.4,2-3.5,3.1c-0.1,0.1-0.2,0.1-0.3,0.2c-0.2,0.2-0.4,0.4-0.6,0.6c-0.6,0.6-1.1,1.1-1.6,1.7
				c-0.2,0.2-0.3,0.3-0.5,0.5c-0.2,0.2-0.3,0.4-0.5,0.6c-0.3,0.4-0.6,0.8-1,1.2c-0.2,0.2-0.4,0.4-0.5,0.7c-0.2,0.3-0.4,0.6-0.6,0.8
				c-0.2,0.3-0.5,0.6-0.7,0.9c-0.1,0.2-0.2,0.3-0.4,0.5c-0.4,0.5-0.7,1-1,1.5c-0.1,0.2-0.2,0.3-0.3,0.5c0,0-0.1,0.1-0.1,0.1
				c-0.4,0.7-0.9,1.4-1.3,2.1c-0.1,0.1-0.1,0.2-0.2,0.3c-0.1,0.2-0.3,0.4-0.4,0.7c-0.2,0.4-0.4,0.8-0.6,1.1c-0.2,0.3-0.3,0.7-0.5,1
				c-0.1,0.2-0.2,0.5-0.4,0.7c-0.1,0.2-0.2,0.3-0.2,0.5c-0.4,0.7-0.7,1.5-1,2.2c0,0,0,0.1,0,0.1c0,0.1-0.1,0.2-0.1,0.3
				c-0.3,0.6-0.5,1.3-0.8,1.9c-0.1,0.2-0.1,0.4-0.2,0.6c-0.1,0.3-0.2,0.6-0.3,0.9c-0.1,0.3-0.2,0.6-0.3,0.9
				c-0.1,0.4-0.2,0.7-0.3,1.1c-0.1,0.4-0.2,0.7-0.3,1.1c0,0.2-0.1,0.3-0.2,0.5c-0.1,0.4-0.2,0.9-0.3,1.3c-0.1,0.4-0.2,0.9-0.3,1.3
				c0,0.1-0.1,0.2-0.1,0.4c-0.1,0.3-0.1,0.6-0.2,0.9c-0.1,0.7-0.3,1.5-0.4,2.2c0,0.2-0.1,0.3-0.1,0.5c0,0.2,0,0.3,0,0.5
				c-0.2,1.5-0.3,3.1-0.3,4.6c0,8.1,2.9,13.9,7.5,16.5l229.6,133.4c-4.6-2.7-7.4-8.4-7.5-16.5c0-1.5,0.1-3,0.3-4.6
				C811,532.4,811,532,811,531.7z"/>
			<g>
				<linearGradient id="SVGID_21_" gradientUnits="userSpaceOnUse" x1="810.6186" y1="522.7942" x2="860.787" y2="522.7942">
					<stop  offset="0" style="stop-color:#D09539"/>
					<stop  offset="1" style="stop-color:#AA6300"/>
				</linearGradient>
				<path class="st23" d="M835.6,493.4c13.9-8,25.1-1.3,25.2,14.9c0,16.2-11.1,35.8-25,43.8c-13.9,8-25.1,1.4-25.2-14.8
					C810.6,521.1,821.8,501.4,835.6,493.4z"/>
			</g>
		</g>
	</g>
</g>
</svg>
