<?xml version="1.0" encoding="utf-8"?>
<svg version="1.1" xmlns:xlink="http://www.w3.org/1999/xlink" width="40px" height="33px" xmlns="http://www.w3.org/2000/svg">
  <g transform="matrix(1 0 0 1 -527 -757 )">
    <path d="M 15.760416666666666 15.002704326923077  C 16.93402777777778 13.885516826923075  18.347222222222225 13.326923076923073  20 13.326923076923077  C 21.652777777777782 13.326923076923073  23.065972222222225 13.885516826923075  24.239583333333332 15.002704326923077  C 25.41319444444445 16.119891826923077  26 17.46514423076923  26 19.038461538461537  C 26 20.611778846153843  25.41319444444445 21.957031249999996  24.239583333333332 23.07421875  C 23.065972222222225 24.19140625  21.652777777777782 24.75  20 24.75  C 18.347222222222225 24.75  16.93402777777778 24.19140625  15.760416666666666 23.07421875  C 14.586805555555557 21.957031249999996  14 20.611778846153843  14 19.038461538461537  C 14 17.46514423076923  14.586805555555557 16.119891826923077  15.760416666666666 15.002704326923077  Z M 30 5.0769230769230775  L 34.66666666666667 5.0769230769230775  C 36.13888888888889 5.0769230769230775  37.39583333333334 5.572716346153846  38.4375 6.564302884615386  C 39.47916666666667 7.5558894230769225  40.00000000000001 8.752403846153845  40 10.153846153846155  L 40 27.923076923076923  C 40.00000000000001 29.324519230769234  39.47916666666667 30.521033653846153  38.4375 31.51262019230769  C 37.39583333333334 32.50420673076923  36.13888888888889 33  34.66666666666667 33  L 5.333333333333333 33  C 3.861111111111111 33  2.604166666666667 32.50420673076923  1.5625 31.51262019230769  C 0.5208333333333334 30.521033653846153  0 29.324519230769234  0 27.923076923076923  L 0 10.153846153846155  C 0 8.752403846153845  0.5208333333333334 7.5558894230769225  1.5625 6.564302884615386  C 2.604166666666667 5.572716346153846  3.861111111111111 5.0769230769230775  5.333333333333333 5.0769230769230775  L 10 5.0769230769230775  L 11.0625 2.379807692307691  C 11.32638888888889 1.7319711538461533  11.809027777777779 1.173377403846152  12.510416666666666 0.7040264423076912  C 13.211805555555557 0.23467548076923406  13.930555555555557 0  14.666666666666666 0  L 25.333333333333332 0  C 26.069444444444446 0  26.788194444444446 0.23467548076923406  27.489583333333336 0.7040264423076912  C 28.190972222222225 1.173377403846152  28.673611111111114 1.7319711538461533  28.9375 2.379807692307691  L 30 5.0769230769230775  Z M 13.40625 25.315204326923077  C 15.23263888888889 27.05378605769231  17.430555555555557 27.923076923076923  20 27.923076923076923  C 22.569444444444446 27.923076923076923  24.767361111111114 27.05378605769231  26.59375 25.315204326923077  C 28.42013888888889 23.576622596153843  29.333333333333332 21.484375  29.333333333333332 19.038461538461537  C 29.333333333333332 16.59254807692308  28.42013888888889 14.50030048076923  26.59375 12.76171875  C 24.767361111111114 11.023137019230766  22.569444444444446 10.153846153846155  20 10.153846153846155  C 17.430555555555557 10.153846153846155  15.23263888888889 11.023137019230766  13.40625 12.76171875  C 11.57986111111111 14.50030048076923  10.666666666666666 16.59254807692308  10.666666666666666 19.038461538461537  C 10.666666666666666 21.484375  11.57986111111111 23.576622596153843  13.40625 25.315204326923077  Z " fill-rule="nonzero" fill="#d7d7d7" stroke="none" fill-opacity="0.8117647058823529" transform="matrix(1 0 0 1 527 757 )" />
  </g>
</svg>