<?xml version="1.0" encoding="utf-8"?>
<svg version="1.1" xmlns:xlink="http://www.w3.org/1999/xlink" width="34px" height="36px" xmlns="http://www.w3.org/2000/svg">
  <g transform="matrix(1 0 0 1 -37 -30 )">
    <path d="M 33.579427083333336 29.334374999999998  C 33.85980902777778 29.690625000000004  34 30.112500000000004  34 30.599999999999998  L 34 34.199999999999996  C 34 34.6875  33.85980902777778 35.109375  33.579427083333336 35.465624999999996  C 33.29904513888889 35.821875000000006  32.96701388888889 36  32.583333333333336 36  L 1.4166666666666665 36  C 1.0329861111111112 36  0.700954861111111 35.821875000000006  0.42057291666666663 35.465624999999996  C 0.14019097222222224 35.109375  0 34.6875  0 34.199999999999996  L 0 30.599999999999998  C 0 30.112500000000004  0.14019097222222224 29.690625000000004  0.42057291666666663 29.334374999999998  C 0.700954861111111 28.978125  1.0329861111111112 28.8  1.4166666666666665 28.8  L 32.583333333333336 28.8  C 32.96701388888889 28.8  33.29904513888889 28.978125  33.579427083333336 29.334374999999998  Z M 33.579427083333336 14.934375  C 33.85980902777778 15.290624999999999  34 15.712499999999999  34 16.2  L 34 19.8  C 34 20.287499999999998  33.85980902777778 20.709374999999998  33.579427083333336 21.065625  C 33.29904513888889 21.421874999999996  32.96701388888889 21.599999999999998  32.583333333333336 21  L 1.4166666666666665 21  C 1.0329861111111112 21.599999999999998  0.700954861111111 21.421874999999996  0.42057291666666663 21.065625  C 0.14019097222222224 20.709374999999998  0 20.287499999999998  0 19.8  L 0 16.2  C 0 15.712499999999999  0.14019097222222224 15.290624999999999  0.42057291666666663 14.934375  C 0.700954861111111 14.578125000000004  1.0329861111111112 14.4  1.4166666666666665 15  L 32.583333333333336 15  C 32.96701388888889 14.4  33.29904513888889 14.578125000000004  33.579427083333336 14.934375  Z M 33.579427083333336 0.5343750000000016  C 33.85980902777778 0.8906249999999973  34 1.3124999999999973  34 1.8000000000000016  L 34 5.4  C 34 5.8874999999999975  33.85980902777778 6.3093749999999975  33.579427083333336 6.665625  C 33.29904513888889 7.021874999999996  32.96701388888889 7.199999999999998  32.583333333333336 7.199999999999998  L 1.4166666666666665 7.199999999999998  C 1.0329861111111112 7.199999999999998  0.700954861111111 7.021874999999996  0.42057291666666663 6.665625  C 0.14019097222222224 6.3093749999999975  0 5.8874999999999975  0 5.4  L 0 1.8000000000000016  C 0 1.3124999999999973  0.14019097222222224 0.8906249999999973  0.42057291666666663 0.5343750000000016  C 0.700954861111111 0.17812499999999787  1.0329861111111112 0  1.4166666666666665 0  L 32.583333333333336 0  C 32.96701388888889 0  33.29904513888889 0.17812499999999787  33.579427083333336 0.5343750000000016  Z " fill-rule="nonzero" fill="#000000" stroke="none" transform="matrix(1 0 0 1 37 30 )" />
  </g>
</svg>