<?xml version="1.0" encoding="utf-8"?>
<svg version="1.1" xmlns:xlink="http://www.w3.org/1999/xlink" width="36px" height="41px" xmlns="http://www.w3.org/2000/svg">
  <g transform="matrix(1 0 0 1 -524 -283 )">
    <path d="M 30 11.714285714285714  C 30 13.956473214285714  29.3828125 16.030877976190474  28.1484375 17.9375  C 28.882812500000004 18.151041666666664  29.58203125 18.440848214285715  30.24609375 18.806919642857142  C 30.910156250000004 19.172991071428573  31.60546875 19.72972470238095  32.33203125 20.477120535714285  C 33.05859375 21.224516369047617  33.6796875 22.105375744047617  34.1953125 23.119698660714285  C 34.7109375 24.13402157738095  35.140625 25.4457775297619  35.484375 27.054966517857146  C 35.82812499999999 28.664155505952383  36 30.46781994047619  36 32.46595982142857  C 36 34.81491815476191  35.21875 36.82449776785714  33.65625 38.494698660714285  C 32.09375000000001 40.16489955357143  30.2109375 41  28.0078125 41  L 7.9921875 41  C 5.7890625 41  3.9062500000000004 40.16489955357143  2.34375 38.494698660714285  C 0.7812499999999999 36.82449776785714  0 34.81491815476191  0 32.46595982142857  C 0 30.46781994047619  0.17187499999999997 28.664155505952383  0.515625 27.054966517857146  C 0.8593750000000001 25.4457775297619  1.2890625 24.13402157738095  1.8046875 23.119698660714285  C 2.3203125 22.105375744047617  2.94140625 21.224516369047617  3.66796875 20.477120535714285  C 4.39453125 19.72972470238095  5.089843750000001 19.172991071428573  5.75390625 18.806919642857142  C 6.417968750000001 18.440848214285715  7.1171875 18.151041666666664  7.8515625 17.9375  C 6.617187500000001 16.030877976190474  6 13.956473214285714  6 11.714285714285714  C 6 10.127976190476186  6.31640625 8.614118303571427  6.94921875 7.172712053571427  C 7.58203125 5.731305803571427  8.4375 4.484375  9.515625 3.431919642857141  C 10.59375 2.3794642857142865  11.87109375 1.5443638392857135  13.34765625 0.9266183035714273  C 14.82421875 0.3088727678571409  16.375 0  18 0  C 19.625000000000004 0  21.17578125 0.3088727678571409  22.65234375 0.9266183035714273  C 24.12890625 1.5443638392857135  25.40625 2.3794642857142865  26.484375 3.431919642857141  C 27.5625 4.484375  28.41796875 5.731305803571427  29.05078125 7.172712053571427  C 29.68359375 8.614118303571427  30 10.127976190476186  30 11.714285714285714  Z M 24.36328125 5.5025111607142865  C 22.605468750000004 3.7865513392857135  20.484375000000004 2.928571428571427  18 2.928571428571427  C 15.515625 2.928571428571427  13.39453125 3.7865513392857135  11.63671875 5.5025111607142865  C 9.87890625 7.218470982142859  9 9.2890625  9 11.714285714285714  C 9 14.139508928571427  9.87890625 16.210100446428573  11.63671875 17.926060267857142  C 13.39453125 19.642020089285715  15.515625 20.5  18 20.5  C 20.484375000000004 20.5  22.605468750000004 19.642020089285715  24.36328125 17.926060267857142  C 26.12109375 16.210100446428573  27 14.139508928571427  27 11.714285714285714  C 27 9.2890625  26.12109375 7.218470982142859  24.36328125 5.5025111607142865  Z M 7.9921875 38  L 28.0078125 38  C 29.3828125 38.07142857142857  30.558593750000004 37.52613467261905  31.53515625 36.435546875  C 32.51171875 35.34495907738095  33 34.021763392857146  33 32.46595982142857  C 33 28.82049851190476  32.38671875 25.9453125  31.16015625 23.840401785714285  C 29.93359375 21.735491071428573  28.171875 20.629650297619044  25.875 20.522879464285715  C 23.609375 22.46000744047619  20.984375 23.428571428571427  18 23.428571428571427  C 15.015625000000002 23.428571428571427  12.390625000000002 22.46000744047619  10.125 20.522879464285715  C 7.828125 20.629650297619044  6.066406250000001 21.735491071428573  4.83984375 23.840401785714285  C 3.6132812500000004 25.9453125  3 28.82049851190476  3 32.46595982142857  C 3 34.021763392857146  3.48828125 35.34495907738095  4.46484375 36.435546875  C 5.441406250000001 37.52613467261905  6.617187500000001 38.07142857142857  7.9921875 38  Z " fill-rule="nonzero" fill="#ffffff" stroke="none" transform="matrix(1 0 0 1 524 283 )" />
  </g>
</svg>