<?xml version="1.0" encoding="utf-8"?>
<svg version="1.1" xmlns:xlink="http://www.w3.org/1999/xlink" width="36px" height="50px" xmlns="http://www.w3.org/2000/svg">
  <g transform="matrix(1 0 0 1 -93 -46 )">
    <path d="M 32.15461346633416 11.944110576923078  C 32.76309226932669 12.91566506410256  33.12718204488778 14.0625  33.246882793017456 15.384615384615385  C 33.605985037406484 19.030448717948715  32.2992518703242 21.614583333333332  29.326683291770575 23.13701923076923  C 31.66084788029925 23.697916666666664  33.406483790523694 24.729567307692307  34.563591022443894 26.231971153846157  C 35.720698254364095 27.734375  36.16957605985038 29.877804487179482  35.910224438902745 32.66225961538461  C 35.77057356608479 34.084535256410255  35.44638403990025 35.33653846153846  34.93765586034913 36.418269230769226  C 34.428927680798004 37.5  33.785536159601 38.391426282051285  33.0074812967581 39.09254807692308  C 32.22942643391521 39.79366987179487  31.26184538653367 40.37960737179487  30.104738154613464 40.85036057692308  C 28.947630922693268 41.321113782051285  27.7356608478803 41.66666666666667  26.468827930174562 41.887019230769226  C 25.20199501246883 42.107371794871796  23.750623441396513 42.25761217948718  22.114713216957608 42.33774038461539  L 22.114713216957608 50  L 17.50623441396509 50  L 17.50623441396509 42.45793269230769  C 15.910224438902747 42.45793269230769  14.693266832917706 42.44791666666667  13.855361596009974 42.42788461538461  L 13.855361596009974 50  L 9.246882793017456 50  L 9.246882793017456 42.33774038461539  C 8.88778054862843 42.33774038461539  8.349127182044887 42.33273237179487  7.630922693266833 42.32271634615385  C 6.912718204488778 42.31270032051282  6.364089775561097 42.30769230769231  5.985037406483791 42.30769230769231  L 0 42.30769230769231  L 0.9276807980049875 36.808894230769226  L 4.249376558603491 36.808894230769226  C 5.246882793017456 36.808894230769226  5.8254364089775565 36.29807692307692  6 35.27644230769231  L 6 23.197115384615387  L 6.4638403990024935 23.197115384615387  C 6.344139650872818 23.177083333333332  6.184538653366584 23.167067307692307  5.985037406483791 23.167067307692307  L 5.985037406483791 14.54326923076923  C 5.72568578553616 13.181089743589741  4.837905236907731 12.5  3.321695760598504 12.5  L 0 12.5  L 0 7.572115384615385  L 6.344139650872818 7.6021634615384635  C 7.620947630922694 7.6021634615384635  8.58852867830424 7.592147435897434  9.246882793017456 7.572115384615385  L 9.246882793017456 0  L 13.855361596009974 0  L 13.855361596009974 7.421875  C 15.49127182044888 7.3818108974358925  16.708229426433917 7.361778846153843  17.50623441396509 7.361778846153843  L 17.50623441396509 0  L 22.114713216957608 0  L 22.114713216957608 7.572115384615385  C 23.690773067331673 7.712339743589741  25.087281795511224 7.937700320512814  26.30423940149626 8.248197115384615  C 27.5211970074813 8.558693910256409  28.64837905236908 9.00941506410256  29.6857855361596 9.600360576923078  C 30.723192019950126 10.191306089743584  31.546134663341647 10.972556089743584  32.15461346633416 11.944110576923078  Z M 26.528678304239403 33.293269230769226  C 26.718204488778056 32.83253205128205  26.812967581047385 32.32171474358974  26.812967581047385 31.760817307692307  C 26.812967581047385 31.03966346153846  26.66334164588529 30.398637820512818  26.364089775561098 29.837740384615387  C 26.06483790523691 29.276842948717945  25.695760598503743 28.81610576923077  25.256857855361595 28.455528846153843  C 24.817955112219455 28.094951923076923  24.244389027431424 27.78946314102564  23.536159600997507 27.5390625  C 22.827930174563594 27.28866185897436  22.174563591022444 27.103365384615387  21.576059850374065 26.983173076923077  C 20.977556109725686 26.86298076923077  20.23940149625935 26.77283653846154  19.36159600997506 26.712740384615387  C 18.483790523690775 26.65264423076923  17.79551122194514 26.622596153846157  17.296758104738153 26.622596153846157  C 16.798004987531172 26.622596153846157  16.154613466334165 26.632612179487182  15.366583541147131 26.65264423076923  C 14.578553615960104 26.672676282051277  14.104738154613468 26.682692307692307  14 26.682692307692307  L 14 36.83894230769231  C 14.104738154613468 36.83894230769231  14.473815461346636 36.84395032051282  15.052369077306732 36.85396634615385  C 15.630922693266834 36.86398237179487  16.109725685785538 36.86899038461539  16.48877805486284 36.86899038461539  C 16.867830423940152 36.86899038461539  17.39650872817955 36.85396634615385  18.074812967581046 36.823918269230774  C 18.753117206982544 36.79387019230769  19.336658354114714 36.75380608974359  19.825436408977556 36.70372596153846  C 20.314214463840397 36.65364583333333  20.88279301745636 36.56850961538461  21.531172069825434 36.44831730769231  C 22.179551122194518 36.328125  22.73316708229427 36.187900641025635  23.19201995012469 36.027644230769226  C 23.650872817955115 35.86738782051282  24.124688279301747 35.657051282051285  24.61346633416459 35.39663461538461  C 25.102244389027433 35.13621794871795  25.49625935162095 34.83573717948718  25.795511221945137 34.49519230769231  C 26.09476309226933 34.15464743589743  26.33915211970075 33.75400641025641  26.528678304239403 33.293269230769226  Z M 24.41895261845387 18.990384615384613  C 24.59850374064838 18.529647435897434  24.688279301745638 18.01883012820512  24.688279301745638 17.457932692307693  C 24.688279301745638 16.796875  24.56359102244389 16.2109375  24.3142144638404 15.700120192307693  C 24.06483790523691 15.189302884615385  23.76059850374065 14.768629807692307  23.40149625935162 14.438100961538463  C 23.042394014962596 14.107572115384615  22.56359102244389 13.827123397435892  21.965087281795512 13.596754807692307  C 21.366583541147133 13.366386217948717  20.817955112219455 13.201121794871796  20.31920199501247 13.100961538461537  C 19.820448877805486 13.000801282051277  19.206982543640898 12.920673076923078  18.478802992518705 12.860576923076922  C 17.75062344139651 12.80048076923077  17.17206982543641 12.775440705128199  16.743142144638405 12.78545673076923  C 16.3142144638404 12.795472756410254  15.775561097256862 12.805488782051277  15.12718204488778 12.815504807692307  C 14.478802992518704 12.825520833333332  14.084788029925189 12.830528846153843  13.945137157107231 12.830528846153843  L 13.945137157107231 22.055288461538463  C 14.04488778054863 22.055288461538463  14.389027431421447 22.060296474358974  14.977556109725684 22.0703125  C 15.566084788029926 22.080328525641026  16.029925187032422 22.080328525641026  16.369077306733168 22.0703125  C 16.708229426433917 22.060296474358974  17.206982543640898 22.040264423076923  17.865336658354114 22.010216346153843  C 18.523690773067333 21.98016826923077  19.07231920199501 21.925080128205128  19.511221945137155 21.844951923076923  C 19.950124688279303 21.764823717948715  20.463840399002493 21.654647435897434  21.052369077306736 21.514423076923077  C 21.640897755610975 21.374198717948715  22.12468827930175 21.18890224358974  22.50374064837905 20.958533653846157  C 22.88279301745636 20.728165064102562  23.251870324189525 20.45773237179487  23.610972568578553 20.147235576923077  C 23.97007481296758 19.836738782051285  24.239401496259354 19.451121794871796  24.41895261845387 18.990384615384613  Z " fill-rule="nonzero" fill="#555555" stroke="none" transform="matrix(1 0 0 1 93 46 )" />
  </g>
</svg>