<?xml version="1.0" encoding="utf-8"?>
<svg version="1.1" xmlns:xlink="http://www.w3.org/1999/xlink" width="50px" height="46px" xmlns="http://www.w3.org/2000/svg">
  <g transform="matrix(1 0 0 1 -403 -46 )">
    <path d="M 28.29899777282851 38.66045673076923  C 28.475315515961398 38.4853766025641  28.563474387527837 38.268830128205124  28.563474387527837 38.01081730769231  L 28.563474387527837 32.75841346153847  C 28.563474387527837 32.50040064102564  28.475315515961398 32.283854166666664  28.29899777282851 32.10877403846153  C 28.122680029695623 31.933693910256412  27.91388270230141 31.846153846153847  27.672605790645882 31.846153846153847  L 22.32739420935412 31.846153846153847  C 22.08611729769859 31.846153846153847  21.87731997030438 31.933693910256412  21.701002227171493 32.10877403846153  C 21.524684484038602 32.283854166666664  21.43652561247216 32.50040064102564  21.43652561247216 32.75841346153847  L 21.43652561247216 38.01081730769231  C 21.43652561247216 38.268830128205124  21.524684484038602 38.4853766025641  21.701002227171493 38.66045673076923  C 21.87731997030438 38.83553685897436  22.08611729769859 38.92307692307692  22.32739420935412 38.92307692307692  L 27.672605790645882 38.92307692307692  C 27.91388270230141 38.92307692307692  28.122680029695623 38.83553685897436  28.29899777282851 38.66045673076923  Z M 28.215478841870823 28.12800480769231  C 28.391796585003714 28.00821314102564  28.489235337787676 27.856169871794872  28.507795100222715 27.671875  L 29.00890868596882 14.983173076923077  C 29.00890868596882 14.762019230769232  28.916109873793616 14.586939102564099  28.73051224944321 14.45793269230769  C 28.489235337787683 14.25520833333333  28.26651818856719 14.153846153846155  28.06236080178174 14.153846153846155  L 21.93763919821826 14.153846153846155  C 21.733481811432817 14.153846153846155  21.510764662212324 14.25520833333333  21.26948775055679 14.45793269230769  C 21.083890126206388 14.586939102564099  20.99109131403118 14.780448717948712  20.99109131403118 15.038461538461537  L 21.464365256124722 27.671875  C 21.464365256124722 27.856169871794872  21.557164068299926 28.00821314102564  21.742761692650333 28.12800480769231  C 21.928359317000744 28.24779647435897  22.151076466221234 28.30769230769231  22.410913140311802 28.30769230769231  L 27.561247216035632 28.30769230769231  C 27.821083890126207 28.30769230769231  28.039161098737935 28.24779647435897  28.215478841870823 28.12800480769231  Z M 26.809576837416483 0.49759615384615463  C 27.36636971046771 0.8293269230769227  27.802524127691168 1.2808493589743557  28.11804008908686 1.852163461538464  L 49.498886414253896 40.77524038461539  C 50.14847809948033 41.93629807692308  50.12991833704529 43.09735576923077  49.44320712694877 44.25841346153847  C 49.12769116555308 44.79286858974359  48.69617668893839 45.216746794871796  48.14866369710467 45.53004807692308  C 47.60115070527098 45.84334935897436  47.011878247958435 46  46.380846325167035 46  L 3.6191536748329622 46  C 2.988121752041574 46  2.3988492947290276 45.84334935897436  1.851336302895323 45.53004807692308  C 1.3038233110616184 45.216746794871796  0.8723088344469191 44.79286858974359  0.5567928730512249 44.25841346153847  C -0.12991833704528585 43.09735576923077  -0.1484780994803267 41.93629807692308  0.5011135857461024 40.77524038461539  L 21.88195991091314 1.852163461538464  C 22.19747587230884 1.2808493589743557  22.6336302895323 0.8293269230769227  23.190423162583517 0.49759615384615463  C 23.747216035634747 0.16586538461538658  24.35040831477357 0  25 0  C 25.64959168522643 0  26.252783964365257 0.16586538461538658  26.809576837416483 0.49759615384615463  Z " fill-rule="nonzero" fill="#555555" stroke="none" transform="matrix(1 0 0 1 403 46 )" />
  </g>
</svg>