<?xml version="1.0" encoding="utf-8"?>
<svg version="1.1" xmlns:xlink="http://www.w3.org/1999/xlink" width="90px" height="90px" xmlns="http://www.w3.org/2000/svg">
  <g transform="matrix(1 0 0 1 -30 -123 )">
    <path d="M 75 123  C 100.2 123  120 142.8  120 168  C 120 193.2  100.2 213  75 213  C 49.8 213  30 193.2  30 168  C 30 142.8  49.8 123  75 123  Z " fill-rule="nonzero" fill="#ffffff" stroke="none" />
    <path d="M 75 123.5  C 99.92 123.5  119.5 143.07999999999998  119.5 168  C 119.5 192.92000000000002  99.92 212.5  75 212.5  C 50.08 212.5  30.5 192.92000000000002  30.5 168  C 30.5 143.07999999999998  50.08 123.5  75 123.5  Z " stroke-width="1" stroke="#797979" fill="none" />
  </g>
</svg>