<?xml version="1.0" encoding="utf-8"?>
<svg version="1.1" xmlns:xlink="http://www.w3.org/1999/xlink" width="186px" height="167px" xmlns="http://www.w3.org/2000/svg">
  <defs>
    <mask fill="white" id="clip7">
      <path d="M 153.22901142573278 147  C 153.22901142573278 147  186.32297364746626 118.06086192675271  184.7531639441682 83.08516264130313  C 182.5832908864059 34.73992219816588  143.44112495910272 -0.23263308281465347  91.45298487947478 0.0011652564546697163  C 39.98212685797754 0.23263730195889173  0.12931998942545492 36.443843370235506  0.0003341130917309698 83.08516264130313  C -0.1293047782121345 129.96261225915882  37.50329477467774 152.22377450980395  49.27968206659912 157.95416666666665  C 61.056069358521235 163.68455882352941  82.3894684550422 167  82.3894684550422 167  L 184 167  L 184 147  L 153.22901142573278 147  Z " fill-rule="evenodd" />
    </mask>
  </defs>
  <g transform="matrix(1 0 0 1 -104 -439 )">
    <path d="M 153.22901142573278 147  C 153.22901142573278 147  186.32297364746626 118.06086192675271  184.7531639441682 83.08516264130313  C 182.5832908864059 34.73992219816588  143.44112495910272 -0.23263308281465347  91.45298487947478 0.0011652564546697163  C 39.98212685797754 0.23263730195889173  0.12931998942545492 36.443843370235506  0.0003341130917309698 83.08516264130313  C -0.1293047782121345 129.96261225915882  37.50329477467774 152.22377450980395  49.27968206659912 157.95416666666665  C 61.056069358521235 163.68455882352941  82.3894684550422 167  82.3894684550422 167  L 184 167  L 184 147  L 153.22901142573278 147  Z " fill-rule="nonzero" fill="#ffffff" stroke="none" transform="matrix(1 0 0 1 104 439 )" />
    <path d="M 153.22901142573278 147  C 153.22901142573278 147  186.32297364746626 118.06086192675271  184.7531639441682 83.08516264130313  C 182.5832908864059 34.73992219816588  143.44112495910272 -0.23263308281465347  91.45298487947478 0.0011652564546697163  C 39.98212685797754 0.23263730195889173  0.12931998942545492 36.443843370235506  0.0003341130917309698 83.08516264130313  C -0.1293047782121345 129.96261225915882  37.50329477467774 152.22377450980395  49.27968206659912 157.95416666666665  C 61.056069358521235 163.68455882352941  82.3894684550422 167  82.3894684550422 167  L 184 167  L 184 147  L 153.22901142573278 147  Z " stroke-width="2" stroke="#797979" fill="none" transform="matrix(1 0 0 1 104 439 )" mask="url(#clip7)" />
  </g>
</svg>