<?xml version="1.0" encoding="utf-8"?>
<svg version="1.1" xmlns:xlink="http://www.w3.org/1999/xlink" width="50px" height="50px" xmlns="http://www.w3.org/2000/svg">
  <g transform="matrix(1 0 0 1 -288 -517 )">
    <path d="M 40.58948863636363 23.046875  C 40.80255681818182 23.259943181818183  40.909090909090914 23.532196969696965  40.909090909090914 23.863636363636363  L 40.909090909090914 26.136363636363637  C 40.909090909090914 26.467803030303028  40.80255681818182 26.740056818181817  40.58948863636363 26.953125  C 40.37642045454545 27.166193181818183  40.10416666666667 27.27272727272727  39.77272727272727 27  L 27 27  L 27 39.77272727272727  C 27.27272727272727 40.104166666666664  27.166193181818183 40.37642045454545  26.953125 40.58948863636363  C 26.740056818181817 40.80255681818182  26.467803030303035 40.90909090909091  26.136363636363637 40.90909090909091  L 23.863636363636363 40.90909090909091  C 23.532196969696972 40.90909090909091  23.259943181818183 40.80255681818182  23.046875 40.58948863636363  C 22.833806818181817 40.37642045454545  22.727272727272727 40.104166666666664  23 39.77272727272727  L 23 27  L 10.227272727272728 27  C 9.895833333333334 27.27272727272727  9.623579545454545 27.166193181818183  9.410511363636363 26.953125  C 9.197443181818182 26.740056818181817  9.090909090909092 26.467803030303028  9.090909090909092 26.136363636363637  L 9.090909090909092 23.863636363636363  C 9.090909090909092 23.532196969696965  9.197443181818182 23.259943181818183  9.410511363636363 23.046875  C 9.623579545454545 22.833806818181817  9.895833333333334 22.72727272727273  10.227272727272728 23  L 23 23  L 23 10.22727272727273  C 22.727272727272727 9.895833333333325  22.833806818181817 9.623579545454547  23.046875 9.410511363636365  C 23.259943181818183 9.197443181818182  23.532196969696972 9.090909090909088  23.863636363636363 9.090909090909088  L 26.136363636363637 9.090909090909088  C 26.467803030303035 9.090909090909088  26.740056818181817 9.197443181818182  26.953125 9.410511363636365  C 27.166193181818183 9.623579545454547  27.27272727272727 9.895833333333325  27 10.22727272727273  L 27 23  L 39.77272727272727 23  C 40.10416666666667 22.72727272727273  40.37642045454545 22.833806818181817  40.58948863636363 23.046875  Z M 43.78551136363637 43.78551136363637  C 44.898200757575765 42.67282196969696  45.45454545454545 41.33522727272727  45 39.77272727272727  L 45 10.22727272727273  C 45.45454545454545 8.66477272727273  44.898200757575765 7.327178030303028  43.78551136363637 6.214488636363635  C 42.67282196969697 5.101799242424238  41.33522727272727 4.545454545454547  39.77272727272727 5  L 10.227272727272728 5  C 8.664772727272728 4.545454545454547  7.327178030303032 5.101799242424238  6.214488636363636 6.214488636363635  C 5.101799242424243 7.327178030303028  4.545454545454546 8.66477272727273  5 10.22727272727273  L 5 39.77272727272727  C 4.545454545454546 41.33522727272727  5.101799242424243 42.67282196969696  6.214488636363636 43.78551136363637  C 7.327178030303032 44.89820075757576  8.664772727272728 45.45454545454545  10.227272727272728 45  L 39.77272727272727 45  C 41.33522727272727 45.45454545454545  42.67282196969697 44.89820075757576  43.78551136363637 43.78551136363637  Z M 46.99928977272727 3.0007102272727293  C 48.999763257575765 5.00118371212121  50 7.410037878787873  50 10.22727272727273  L 50 39.77272727272727  C 50 42.589962121212125  48.999763257575765 44.99881628787879  46.99928977272727 46.99928977272727  C 44.99881628787879 48.99976325757576  42.589962121212125 50  39.77272727272727 50  L 10.227272727272728 50  C 7.41003787878788 50  5.001183712121213 48.99976325757576  3.000710227272727 46.99928977272727  C 1.0002367424242424 44.99881628787879  0 42.589962121212125  0 39.77272727272727  L 0 10.22727272727273  C 0 7.410037878787873  1.0002367424242424 5.00118371212121  3.000710227272727 3.0007102272727293  C 5.001183712121213 1.0002367424242375  7.41003787878788 0  10.227272727272728 0  L 39.77272727272727 0  C 42.589962121212125 0  44.99881628787879 1.0002367424242375  46.99928977272727 3.0007102272727293  Z " fill-rule="nonzero" fill="#286acc" stroke="none" transform="matrix(1 0 0 1 288 517 )" />
  </g>
</svg>