<?xml version="1.0" encoding="utf-8"?>
<svg version="1.1" xmlns:xlink="http://www.w3.org/1999/xlink" width="20px" height="30px" xmlns="http://www.w3.org/2000/svg">
  <g transform="matrix(1 0 0 1 -68 -342 )">
    <path d="M 19.65635738831615 1.8036072144288562  C 19.885452462772054 2.004008016032061  20 2.2344689378757474  20 2.4949899799599207  C 20 2.755511022044087  19.885452462772054 2.9859719438877743  19.65635738831615 3.186372745490982  L 6.151202749140894 15  L 19.65635738831615 26.81362725450902  C 19.885452462772054 27.014028056112227  20 27.24448897795591  20 27.50501002004008  C 20 27.76553106212425  19.885452462772054 27.995991983967933  19.65635738831615 28.196392785571145  L 17.938144329896907 29.69939879759519  C 17.70904925544101 29.8997995991984  17.445589919816726 30  17.147766323024054 30  C 16.84994272623139 30  16.586483390607107 29.8997995991984  16.3573883161512 29.69939879759519  L 0.3436426116838488 15.691382765531062  C 0.11454753722794968 15.490981963927853  0 15.260521042084166  0 15  C 0 14.73947895791583  0.11454753722794968 14.509018036072144  0.3436426116838488 14.308617234468938  L 16.3573883161512 0.3006012024048099  C 16.586483390607107 0.1002004008016022  16.84994272623139 0  17.147766323024054 0  C 17.445589919816726 0  17.70904925544101 0.1002004008016022  17.938144329896907 0.3006012024048099  L 19.65635738831615 1.8036072144288562  Z " fill-rule="nonzero" fill="#333333" stroke="none" transform="matrix(1 0 0 1 68 342 )" />
  </g>
</svg>