<?xml version="1.0" encoding="utf-8"?>
<svg version="1.1" xmlns:xlink="http://www.w3.org/1999/xlink" width="30px" height="40px" xmlns="http://www.w3.org/2000/svg">
  <g transform="matrix(1 0 0 1 -64 -311 )">
    <path d="M 29.484536082474225 2.404809619238475  C 29.82817869415808 2.6720106880427474  30 2.9792919171676635  30 3.3266533066132276  C 30 3.6740146960587827  29.82817869415808 3.981295925183699  29.484536082474225 4.248496993987976  L 9.226804123711341 20  L 29.484536082474225 35.75150300601202  C 29.82817869415808 36.0187040748163  30 36.32598530394121  30 36.673346693386776  C 30 37.02070808283233  29.82817869415808 37.327989311957246  29.484536082474225 37.59519038076152  L 26.90721649484536 39.59919839679359  C 26.563573883161514 39.866399465597866  26.16838487972509 40  25.72164948453608 40  C 25.27491408934708 40  24.879725085910657 39.866399465597866  24.536082474226802 39.59919839679359  L 0.5154639175257733 20.921843687374746  C 0.1718213058419245 20.65464261857047  0 20.347361389445556  0 20  C 0 19.65263861055444  0.1718213058419245 19.345357381429523  0.5154639175257733 19.078156312625254  L 24.536082474226802 0.4008016032064132  C 24.879725085910657 0.13360053440213626  25.27491408934708 0  25.72164948453608 0  C 26.16838487972509 0  26.563573883161514 0.13360053440213626  26.90721649484536 0.4008016032064132  L 29.484536082474225 2.404809619238475  Z " fill-rule="nonzero" fill="#ffffff" stroke="none" transform="matrix(1 0 0 1 64 311 )" />
  </g>
</svg>