<?xml version="1.0" encoding="utf-8"?>
<svg version="1.1" xmlns:xlink="http://www.w3.org/1999/xlink" width="15px" height="20px" xmlns="http://www.w3.org/2000/svg">
  <g transform="matrix(1 0 0 1 -69 -326 )">
    <path d="M 14.742268041237113 1.2024048096192375  C 14.91408934707904 1.3360053440213737  15 1.4896459585838318  15 1.6633266533066138  C 15 1.8370073480293914  14.91408934707904 1.9906479625918494  14.742268041237113 2.124248496993988  L 4.613402061855671 10  L 14.742268041237113 17.87575150300601  C 14.91408934707904 18.00935203740815  15 18.162992651970605  15 18.336673346693388  C 15 18.510354041416164  14.91408934707904 18.663994655978623  14.742268041237113 18.79759519038076  L 13.45360824742268 19.799599198396795  C 13.281786941580757 19.933199732798933  13.084192439862544 20  12.86082474226804 20  C 12.63745704467354 20  12.439862542955328 19.933199732798933  12.268041237113401 19.799599198396795  L 0.2577319587628866 10.460921843687373  C 0.08591065292096225 10.327321309285235  0 10.173680694722778  0 10  C 0 9.82631930527722  0.08591065292096225 9.672678690714761  0.2577319587628866 9.539078156312627  L 12.268041237113401 0.2004008016032066  C 12.439862542955328 0.06680026720106813  12.63745704467354 0  12.86082474226804 0  C 13.084192439862544 0  13.281786941580757 0.06680026720106813  13.45360824742268 0.2004008016032066  L 14.742268041237113 1.2024048096192375  Z " fill-rule="nonzero" fill="#ffffff" stroke="none" transform="matrix(1 0 0 1 69 326 )" />
  </g>
</svg>