<?xml version="1.0" encoding="utf-8"?>
<svg version="1.1" xmlns:xlink="http://www.w3.org/1999/xlink" width="15px" height="8px" xmlns="http://www.w3.org/2000/svg">
  <g transform="matrix(1 0 0 1 -185 -664 )">
    <path d="M 14.849699398797595 0.8247422680412368  C 14.9498997995992 0.9163802978235944  15 1.0217640320733095  15 1.1408934707903784  C 15 1.2600229095074447  14.9498997995992 1.365406643757158  14.849699398797595 1.457044673539519  L 7.845691382765531 7.86254295532646  C 7.745490981963928 7.954180985108818  7.630260521042085 8  7.5 8  C 7.369739478957917 8  7.254509018036074 7.954180985108818  7.154308617234468 7.86254295532646  L 0.1503006012024048 1.457044673539519  C 0.05010020040080175 1.365406643757158  0 1.2600229095074447  0 1.1408934707903784  C 0 1.0217640320733095  0.05010020040080175 0.9163802978235944  0.1503006012024048 0.8247422680412368  L 0.9018036072144289 0.13745704467353992  C 1.0020040080160324 0.04581901489117879  1.117234468937876 0  1.24749498997996 0  C 1.3777555110220443 0  1.4929859719438878 0.04581901489117879  1.593186372745491 0.13745704467353992  L 7.5 5.5395189003436425  L 13.40681362725451 0.13745704467353992  C 13.507014028056114 0.04581901489117879  13.622244488977957 0  13.75250501002004 0  C 13.882765531062127 0  13.99799599198397 0.04581901489117879  14.098196392785573 0.13745704467353992  L 14.849699398797595 0.8247422680412368  Z " fill-rule="nonzero" fill="#7f7f7f" stroke="none" transform="matrix(1 0 0 1 185 664 )" />
  </g>
</svg>