<?xml version="1.0" encoding="utf-8"?>
<svg version="1.1" xmlns:xlink="http://www.w3.org/1999/xlink" width="10px" height="10px" xmlns="http://www.w3.org/2000/svg">
  <g transform="matrix(1 0 0 1 -487 -64 )">
    <path d="M 9.828178694158074 4.769539078156313  C 9.942726231386027 4.836339345357381  10 4.91315965263861  10 5  C 10 5.086840347361389  9.942726231386027 5.163660654642618  9.828178694158074 5.230460921843687  L 1.8213058419243986 9.899799599198397  C 1.7067583046964492 9.966599866399466  1.575028636884307 10  1.4261168384879723 10  C 1.2772050400916382 10  1.1454753722794961 9.966599866399466  1.0309278350515463 9.899799599198397  L 0.1718213058419244 9.39879759519038  C 0.05727376861397484 9.331997327989312  0 9.255177020708082  0 9.168336673346694  C 0 9.081496325985302  0.05727376861397484 9.004676018704075  0.1718213058419244 8.937875751503006  L 6.9243986254295535 5  L 0.1718213058419244 1.062124248496994  C 0.05727376861397484 0.9953239812959247  0 0.9185036740146957  0 0.8316633266533069  C 0 0.7448229792919159  0.05727376861397484 0.6680026720106869  0.1718213058419244 0.6012024048096187  L 1.0309278350515463 0.1002004008016033  C 1.1454753722794961 0.033400133600534065  1.2772050400916382 0  1.4261168384879723 0  C 1.575028636884307 0  1.7067583046964492 0.033400133600534065  1.8213058419243986 0.1002004008016033  L 9.828178694158074 4.769539078156313  Z " fill-rule="nonzero" fill="#aaaaaa" stroke="none" transform="matrix(1 0 0 1 487 64 )" />
  </g>
</svg>