<?xml version="1.0" encoding="utf-8"?>
<!-- Generator: Adobe Illustrator 21.0.0, SVG Export Plug-In . SVG Version: 6.00 Build 0)  -->
<svg version="1.1" xmlns="http://www.w3.org/2000/svg" xmlns:xlink="http://www.w3.org/1999/xlink" x="0px" y="0px"
	 viewBox="0 0 1024 1024" style="enable-background:new 0 0 1024 1024;" xml:space="preserve">
<style type="text/css">
	.st0{display:none;}
	.st1{display:inline;}
	.st2{opacity:0.25;}
	.st3{display:inline;opacity:0.25;}
	.st4{enable-background:new    ;}
	.st5{fill:url(#SVGID_1_);}
	.st6{fill:url(#SVGID_2_);}
	.st7{fill:url(#SVGID_3_);}
	.st8{fill:url(#SVGID_4_);}
	.st9{fill:url(#SVGID_5_);}
	.st10{fill:#FBFBFB;}
	.st11{fill:#392356;}
	.st12{fill:#242100;}
	.st13{fill:#F7AEB0;}
	.st14{fill:#536FFF;}
	.st15{fill:#BE5982;}
	.st16{fill:#8C5222;}
	.st17{fill:#E89394;}
	.st18{fill:#482A00;}
	.st19{fill:#E5AD65;}
	.st20{fill:#FFFFFF;}
	.st21{fill:#993F68;}
</style>
<g id="图层_1" class="st0">
	<g id="bg">
		<g id="图层_2" class="st1">
			<g id="图标参考线">
				<g id="图标尺寸" class="st2">
					<path d="M1018.2,5.8v1012.5H5.8V5.8H1018.2 M1024,0H0v1024h1024V0z"/>
					<path d="M512,28.8c266.9,0,483.2,216.4,483.2,483.2S778.9,995.2,512,995.2S28.8,778.9,28.8,512S245.1,28.8,512,28.8 M512,23
						C241.9,23,23,241.9,23,512s218.9,489,489,489s489-218.9,489-489C1000.7,242,782,23.3,512,23z"/>
					<path d="M949.2,74.8v874.4H74.8V74.8H949.2 M955,69H69v886h886V69z"/>
					<path d="M995.2,28.8v966.5H28.8V28.8H995.2 M1001,23H23v978h978V23z"/>
					<path d="M995.2,189.8v644.3H28.8V189.8H995.2 M1001,184.1H23v655.8h978V184.1z"/>
				</g>
			</g>
		</g>
	</g>
	<g id="图标尺寸_1_" class="st3">
		<g>
			<path d="M1017.1,4.6v1010.2H6.9V4.6L1017.1,4.6 M1021.7,0h-6.9H4.6H0v6.9v1010.2v6.9h6.9h1010.2h6.9v-6.9V6.9V0H1021.7z"/>
		</g>
		<g>
			<path d="M512,27.6c266.3,0,482.2,215.8,482.2,482.2S778.3,991.9,512,991.9S29.8,776.1,29.8,509.7S245.7,27.6,512,27.6 M512,23
				c-268.6,0-489,218.1-489,486.7s218.1,486.7,489,486.7s489-218.1,489-486.7S780.6,23,512,23L512,23z"/>
		</g>
		<g>
			<path d="M948.2,73.5V946H75.8V73.5L948.2,73.5 M952.8,68.9h-6.9H73.5h-4.6v6.9v872.5v6.9h6.9h872.5h6.9v-6.9V75.8v-6.9H952.8z"/>
		</g>
		<g>
			<path d="M994.1,27.6v964.3H29.8V27.6L994.1,27.6 M998.7,23h-6.9H27.5h-4.6v6.9v964.3v6.9h6.9h964.3h6.9v-6.9V29.9V23H998.7z"/>
		</g>
		<g>
			<path d="M994.1,188.3v642.9H29.8V188.3L994.1,188.3 M998.7,183.7h-6.9H27.5h-4.6v4.6v642.9v6.9h6.9h964.3h6.9v-6.9V188.3v-4.6
				H998.7z"/>
		</g>
	</g>
</g>
<g id="图层_2_1_">
	<g>
		<g class="st4">
			<linearGradient id="SVGID_1_" gradientUnits="userSpaceOnUse" x1="39.7184" y1="837.8369" x2="990.8669" y2="837.8369">
				<stop  offset="0" style="stop-color:#D7D8D5"/>
				<stop  offset="1" style="stop-color:#F6F6F9"/>
			</linearGradient>
			<path class="st5" d="M990.9,669.3c0,0.6-0.1,1.3-0.2,1.9c-0.1,0.7-0.1,1.4-0.2,2c-0.1,0.6-0.3,1.1-0.4,1.6
				c-0.2,0.6-0.3,1.3-0.6,1.9c-0.2,0.5-0.4,1-0.7,1.6c-0.3,0.7-0.6,1.3-0.9,2c-0.3,0.5-0.6,1-0.9,1.4c-0.5,0.8-1,1.5-1.5,2.3
				c-0.3,0.4-0.7,0.9-1,1.3c-0.8,1-1.7,2-2.7,2.9c-0.4,0.3-0.7,0.7-1.1,1c-0.6,0.6-1.3,1.1-2,1.6c-0.6,0.5-1.2,1-1.8,1.4
				c-0.7,0.5-1.5,1-2.3,1.6c-0.8,0.5-1.6,1.1-2.4,1.6l-409.5,238c-1.9,1.1-4,2.1-6.1,3.1c-0.6,0.3-1.2,0.5-1.8,0.8
				c-1.6,0.7-3.3,1.3-5.1,1.9c-0.6,0.2-1.2,0.4-1.9,0.6c-1.1,0.3-2.2,0.6-3.3,0.9c-0.8,0.2-1.7,0.5-2.5,0.7
				c-1.2,0.3-2.4,0.5-3.6,0.8c-0.8,0.2-1.6,0.3-2.4,0.5c-2.4,0.4-4.9,0.8-7.4,1c-0.8,0.1-1.5,0.1-2.3,0.2c-1.5,0.1-2.9,0.2-4.4,0.3
				c-0.9,0-1.9,0.1-2.8,0.1c-1.2,0-2.4,0-3.6,0c-1,0-2,0-3-0.1c-1.1,0-2.2-0.1-3.3-0.2c-1-0.1-2-0.2-3-0.2c-1.1-0.1-2.2-0.2-3.2-0.4
				c-1-0.1-1.9-0.3-2.9-0.4c-1.2-0.2-2.3-0.4-3.4-0.6c-0.9-0.2-1.8-0.3-2.7-0.5c-1.4-0.3-2.7-0.6-4-1c-0.7-0.2-1.5-0.4-2.2-0.6
				c-2.4-0.7-4.7-1.5-6.9-2.3c-1.1-0.4-2.2-0.9-3.2-1.4c-0.6-0.2-1.1-0.5-1.7-0.7c-1.6-0.8-3.2-1.6-4.7-2.5L59,695.6
				c-12.7-7.4-19.1-17-19.1-26.7l-0.2,62.3c0,9.6,6.3,19.3,19.1,26.7l412.2,238c1.5,0.9,3.1,1.7,4.7,2.5c0.5,0.3,1.1,0.5,1.7,0.7
				c1,0.4,1.9,0.9,2.9,1.3c0.1,0,0.2,0.1,0.4,0.1c2.2,0.9,4.6,1.6,6.9,2.3c0.2,0.1,0.4,0.1,0.6,0.2c0.5,0.2,1.1,0.3,1.7,0.4
				c1.3,0.4,2.7,0.7,4,1c0.4,0.1,0.7,0.2,1.1,0.3c0.5,0.1,1.1,0.2,1.6,0.3c1.1,0.2,2.3,0.4,3.4,0.6c0.5,0.1,0.9,0.2,1.4,0.2
				c0.5,0.1,1,0.1,1.5,0.2c1.1,0.1,2.1,0.3,3.2,0.4c0.5,0.1,1,0.1,1.6,0.2c0.5,0,1,0,1.4,0.1c1.1,0.1,2.2,0.1,3.3,0.2
				c0.6,0,1.1,0.1,1.7,0.1c0.4,0,0.9,0,1.3,0c1.2,0,2.4,0,3.5,0c0.6,0,1.2,0,1.8,0c0.3,0,0.7-0.1,1-0.1c1.5-0.1,2.9-0.2,4.4-0.3
				c0.6,0,1.2-0.1,1.8-0.1c0.2,0,0.3-0.1,0.5-0.1c2.5-0.3,4.9-0.6,7.3-1c0.1,0,0.2,0,0.4-0.1c0.7-0.1,1.4-0.3,2.1-0.4
				c1.2-0.2,2.4-0.5,3.6-0.8c0.9-0.2,1.7-0.5,2.5-0.7c1.1-0.3,2.2-0.6,3.3-0.9c0.2-0.1,0.5-0.1,0.7-0.2c0.4-0.1,0.8-0.3,1.1-0.4
				c1.7-0.6,3.4-1.2,5.1-1.9c0.6-0.3,1.2-0.5,1.8-0.8c2.1-1,4.2-2,6.1-3.1l409.5-238c0.3-0.2,0.5-0.3,0.8-0.5
				c0.6-0.4,1.1-0.7,1.7-1.1c0.8-0.5,1.6-1,2.3-1.5c0.6-0.5,1.2-1,1.8-1.4c0.7-0.5,1.4-1.1,2-1.6c0.1-0.1,0.3-0.2,0.4-0.3
				c0.3-0.2,0.4-0.5,0.7-0.7c1-1,1.9-1.9,2.7-2.9c0.2-0.2,0.4-0.4,0.6-0.6c0.2-0.2,0.3-0.4,0.4-0.7c0.6-0.7,1-1.5,1.5-2.2
				c0.2-0.3,0.5-0.6,0.6-0.9c0.1-0.2,0.1-0.3,0.2-0.5c0.4-0.7,0.7-1.3,0.9-2c0.2-0.4,0.4-0.8,0.5-1.2c0.1-0.1,0.1-0.3,0.1-0.4
				c0.2-0.6,0.4-1.3,0.6-1.9c0.1-0.4,0.3-0.9,0.4-1.3c0-0.1,0-0.2,0-0.4c0.1-0.7,0.2-1.4,0.2-2c0-0.4,0.1-0.9,0.2-1.3
				c0-0.2,0-0.4,0-0.6l0,0L990.9,669.3z"/>
			<g>
				<linearGradient id="SVGID_2_" gradientUnits="userSpaceOnUse" x1="39.8949" y1="669.1068" x2="990.8671" y2="669.1068">
					<stop  offset="0" style="stop-color:#F6F6F9"/>
					<stop  offset="1" style="stop-color:#D7D8D5"/>
				</linearGradient>
				<path class="st6" d="M971.8,642.6c25.3,14.6,25.5,38.3,0.3,52.9l-409.5,238c-25.2,14.6-66.1,14.6-91.4,0L59,695.6
					c-25.3-14.6-25.5-38.3-0.3-52.9l409.5-238c25.2-14.6,66.1-14.6,91.4,0L971.8,642.6z"/>
			</g>
		</g>
	</g>
	<g>
		<g class="st4">
			<linearGradient id="SVGID_3_" gradientUnits="userSpaceOnUse" x1="117.7565" y1="377.335" x2="623.5793" y2="377.335">
				<stop  offset="0" style="stop-color:#6386DB"/>
				<stop  offset="1" style="stop-color:#8EB0EC"/>
			</linearGradient>
			<path class="st7" d="M605.4,40.7c0.8-0.3,1.6-0.6,2.3-0.8c0.5-0.2,1-0.3,1.5-0.4c0.5-0.1,0.9-0.2,1.4-0.3
				c0.6-0.1,1.2-0.2,1.8-0.3c0.3,0,0.7-0.1,1-0.1c0.7-0.1,1.5-0.1,2.2,0c0.1,0,0.3,0,0.4,0c0.8,0,1.7,0.2,2.5,0.3
				c0.2,0,0.4,0.1,0.6,0.1c0.6,0.1,1.2,0.3,1.8,0.5c0.2,0.1,0.4,0.1,0.6,0.2c0.8,0.3,1.5,0.6,2.2,1l-36-20.9c-0.1,0-0.1-0.1-0.2-0.1
				c-0.5-0.3-1.1-0.6-1.7-0.8c-0.1,0-0.2-0.1-0.3-0.1c-0.2-0.1-0.4-0.1-0.6-0.2c-0.3-0.1-0.6-0.2-0.9-0.3c-0.3-0.1-0.6-0.1-0.9-0.2
				c-0.2,0-0.4-0.1-0.6-0.1c-0.1,0-0.2-0.1-0.3-0.1c-0.7-0.1-1.3-0.2-2-0.2c0,0-0.1,0-0.1,0c-0.1,0-0.3,0-0.5,0c-0.5,0-1.1,0-1.6,0
				c-0.2,0-0.4,0-0.5,0.1c-0.3,0-0.7,0.1-1,0.1c-0.3,0-0.6,0-1,0.1c-0.3,0-0.5,0.1-0.8,0.2c-0.5,0.1-0.9,0.2-1.4,0.3
				c-0.3,0.1-0.5,0.1-0.8,0.2c-0.2,0.1-0.5,0.2-0.7,0.3c-0.8,0.2-1.5,0.5-2.3,0.8c-0.3,0.1-0.6,0.2-0.8,0.3
				c-0.2,0.1-0.3,0.2-0.5,0.2c-1.4,0.6-2.7,1.3-4.1,2.1l-413,238.4c-1.8,1-3.5,2.2-5.1,3.5c-0.3,0.2-0.6,0.4-0.9,0.7
				c-1.6,1.3-3.1,2.6-4.7,4.1c-0.1,0.1-0.3,0.2-0.4,0.3c-0.2,0.2-0.5,0.5-0.7,0.8c-0.8,0.8-1.5,1.6-2.2,2.4
				c-0.2,0.3-0.5,0.5-0.7,0.7c-0.2,0.2-0.4,0.5-0.6,0.7c-0.4,0.5-0.9,1.1-1.3,1.6c-0.3,0.3-0.6,0.7-0.8,1c-0.2,0.3-0.4,0.6-0.7,0.9
				c-0.3,0.4-0.6,0.9-0.9,1.3c-0.2,0.3-0.4,0.6-0.6,0.8c-0.3,0.5-0.7,1-1,1.5c-0.2,0.3-0.4,0.6-0.7,1c-0.1,0.1-0.2,0.3-0.3,0.4
				c-0.6,0.9-1.2,1.9-1.7,2.8c0,0.1-0.1,0.1-0.1,0.2c-0.1,0.2-0.2,0.4-0.3,0.6c-0.4,0.7-0.8,1.4-1.1,2.1c-0.2,0.3-0.3,0.6-0.5,0.9
				c-0.2,0.3-0.3,0.7-0.5,1c-0.1,0.3-0.3,0.6-0.5,0.9c-0.4,0.7-0.7,1.5-1,2.2c-0.1,0.2-0.2,0.3-0.2,0.5c0,0,0,0.1-0.1,0.1
				c-0.4,1-0.8,2-1.2,3c-0.1,0.2-0.1,0.3-0.2,0.5c-0.1,0.4-0.3,0.7-0.4,1.1c-0.2,0.5-0.4,1-0.6,1.6c-0.1,0.4-0.2,0.7-0.3,1.1
				c-0.1,0.5-0.3,0.9-0.4,1.4c-0.1,0.3-0.2,0.6-0.3,0.9c-0.1,0.5-0.2,1-0.4,1.5c-0.1,0.6-0.3,1.1-0.4,1.7c0,0.2-0.1,0.4-0.2,0.6
				c-0.1,0.4-0.1,0.8-0.2,1.2c-0.2,0.9-0.3,1.7-0.5,2.6c0,0.3-0.1,0.5-0.1,0.8c0,0.2,0,0.4,0,0.7c-0.2,2-0.4,3.9-0.4,5.8l1.1,376.3
				c0,10.5,3.8,17.8,9.8,21.3l36,20.9c-6-3.5-9.7-10.9-9.8-21.3l-1.1-376.3c0-1.9,0.2-3.8,0.4-5.8c0.1-0.5,0.1-1,0.2-1.4
				c0.1-0.9,0.3-1.7,0.5-2.6c0.1-0.6,0.2-1.2,0.4-1.8c0.1-0.6,0.3-1.1,0.4-1.7c0.2-0.8,0.4-1.6,0.6-2.4c0.1-0.5,0.3-0.9,0.4-1.4
				c0.3-0.9,0.6-1.8,0.9-2.7c0.1-0.4,0.3-0.7,0.4-1.1c0.5-1.2,0.9-2.4,1.5-3.7c0.1-0.2,0.2-0.3,0.2-0.5c0.5-1.1,1-2.1,1.5-3.1
				c0.2-0.3,0.3-0.7,0.5-1c0.5-1,1.1-2,1.6-3c0.1-0.2,0.2-0.4,0.3-0.6c0.7-1.2,1.4-2.3,2.1-3.4c0.2-0.3,0.4-0.7,0.7-1
				c0.5-0.8,1.1-1.6,1.6-2.4c0.3-0.4,0.6-0.9,0.9-1.3c0.5-0.6,1-1.3,1.5-1.9c0.4-0.5,0.9-1.1,1.3-1.6c0.4-0.5,0.8-1,1.3-1.4
				c0.7-0.8,1.5-1.6,2.2-2.4c0.4-0.4,0.7-0.7,1.1-1.1c1.5-1.5,3.1-2.8,4.7-4.1c0.3-0.2,0.6-0.4,0.9-0.7c1.7-1.3,3.4-2.5,5.1-3.5
				l413-238.4c1.4-0.8,2.8-1.5,4.1-2.1C604.5,41,604.9,40.9,605.4,40.7z"/>
			<g>
				<linearGradient id="SVGID_4_" gradientUnits="userSpaceOnUse" x1="153.7875" y1="388.932" x2="634.3801" y2="388.932">
					<stop  offset="0" style="stop-color:#6386DB"/>
					<stop  offset="1" style="stop-color:#8EB0EC"/>
				</linearGradient>
				<path class="st8" d="M599.9,43.3c18.3-10.6,33.3-2,33.4,19l1.1,376.3c0.1,21-14.9,46.9-33.2,57.5l-413,238.4
					c-18.3,10.6-33.3,2-33.4-19.1l-1.1-376.3c-0.1-21,14.9-46.9,33.2-57.5L599.9,43.3z"/>
			</g>
		</g>
	</g>
	<g>
		<linearGradient id="SVGID_5_" gradientUnits="userSpaceOnUse" x1="179.1097" y1="396.0864" x2="611.0613" y2="396.0864">
			<stop  offset="0" style="stop-color:#8EB0EC"/>
			<stop  offset="1" style="stop-color:#6386DB"/>
		</linearGradient>
		<path class="st9" d="M581.6,103.5c15.7-9.1,28.6-1.7,28.6,16.3l0.9,303.7c0.1,18-12.7,40.2-28.4,49.2l-374.1,216
			c-15.7,9-28.5,1.7-28.6-16.3l-0.9-303.7c-0.1-18,12.7-40.2,28.4-49.2L581.6,103.5z"/>
	</g>
	<g>
		<g>
			<polygon class="st10" points="470.1,238.9 470.2,282.2 210,432.4 209.9,389.1 			"/>
		</g>
	</g>
	<g>
		<g>
			<polygon class="st10" points="576.6,177.2 576.7,220.5 508.5,259.9 508.3,216.6 			"/>
		</g>
	</g>
	<g>
		<g>
			<polygon class="st10" points="581,265.5 581.1,308.8 512.9,348.2 512.8,304.9 			"/>
		</g>
	</g>
	<g>
		<g>
			<polygon class="st10" points="584.3,364.1 584.4,407.4 516.2,446.8 516.1,403.5 			"/>
		</g>
	</g>
	<g>
		<g>
			<polygon class="st10" points="470.1,328.2 470.2,371.5 210,521.7 209.9,478.5 			"/>
		</g>
	</g>
	<g>
		<g>
			<polygon class="st10" points="470.1,426.4 470.2,469.7 210,619.9 209.9,576.6 			"/>
		</g>
	</g>
	<g>
		<path class="st11" d="M670.6,744.1c0,0-7.9,17.3-22.3,14.8c0,0-25.6,0.1-23.1,13.7c0,0-2.6,9.4,36,11.5c0,0,12.3-1.9,13.4,2.1
			c0,0,20.5,3.7,22.3-4.6c0,0,1.8-25.6-4.3-40.4L670.6,744.1z"/>
		<path class="st11" d="M717.8,705.9c0,0-16.5-0.9-15.5,9.7c0,0-2.5,17.4,15.5,21.7c0,0,7.6,0,10.5,7.2c0,0,7.2,10.8,16.2,8.7
			c0,0,9.7-2.2,7.6-11.9c0,0-2.2-22.3-8.7-31L717.8,705.9z"/>
		<path class="st12" d="M658.7,513c0,0-0.4,196.5,6.1,230.4c0,0,2.9,9.4,15.5,9.7c0,0,15.5,0,19.1-7.2c0,0,4.7-217.4,2.2-230.7
			C701.6,515.2,658.7,509.7,658.7,513z"/>
		<path class="st12" d="M741.7,721.9c3.8-1.1,6.1-2.3,6.1-2.3c-0.4-3.6-13.5-117.5-13.5-117.5c1.6-38.9-4.5-101.7-4.5-101.7
			L684,515.6l1.8,20.9c4.1,31.5,21,135.9,27,173.1C712.8,709.6,714.3,728.2,741.7,721.9z"/>
		<path class="st13" d="M746.4,476.9c0,0-3.7,25.8-10.7,36c0,0-11.1-7.5-11.5-9.9c-0.4-2.3-2.2-14.6-2.2-14.6s11.2-17.8,11.6-18.8
			C733.6,469.7,746.2,474.7,746.4,476.9z"/>
		<path class="st13" d="M673,331c0,0-16.4,34.2-4.3,46.3c0,0,8.7,3.1,8.8,6.1c0,0,4.1,11.5,0,16.9c0,0,16.6,7.9,28.3-8.7
			c0,0-4-7.3-2.7-25.1c0,0,8.8-26.1-0.7-30.1C702.3,336.6,682.7,326.9,673,331z"/>
		<path class="st14" d="M681.7,318.1c0,0-14.3-1.8-13,9.9c0,0-0.8,7.8,13,12.2c0,0,1.1,1.9,0,4.9c0,0-8.4,10-1.1,20
			c0,0,3.2,1.6,5.4-2.4c0,0,4.3-1.8,5.9,2.8c0,0,1.6,2.7-4.1,5.1c0,0-3.4,4.6,4.3,9.5c0,0,5.2,3.5,12,0c0,0,0.8-1.6,2.2-4.6
			c0,0,2.4-3.2,6.2-5.7c0,0,12.7-5.4,10.3-24.1C722.8,345.5,717.4,315.2,681.7,318.1z"/>
		<path class="st14" d="M679,397c0,0-0.7,0.4-1.8,1.1c-4.8,3-17.8,11.8-23.9,22.7c0,0-12.9,4.3-18.9,58.8c0,0-2.6,4.3-8.7,0
			c0,0-14.1-6.6-24-11c0,0-4.2-0.9-6.8,3.7c0,0-3.4,3.4-0.6,11.7c0,0,20.8,23.7,35.8,29.5c0,0,12.6,6,17.3-1.2l9-18
			c0,0,0.3,9.7-1.1,18.7c0,0,0.6,9.4,11.4,10.5c0,0,38.3,9.4,64.5-14.1c0,0,3.1-6.5,0-11.8c0,0-4.9-55.1-0.9-70.3
			c0,0,3.4-2.5,9.2,8.1c0,0-5.4,29.8-7.6,36c0,0-1.8,0.4-0.2,1.8c0,0,9-2,14.8,9.2c0,0,0.7,0.5,1.3-3.1c0,0,18.2-42.5,19.7-55.9
			c0,0-0.6-6.5-9.8-15.5c0,0-22-31.3-53.5-21.2"/>
		<path class="st13" d="M595.1,483c0,0-0.7-0.7-1.8-1.9c-3.2-3.2-9.7-9.8-12.1-11.8c0,0-2.3-0.9-5.5-1.1c0,0-21.2-7.2-20.6-14.5
			c0,0,2.6-1.2,7.9-1.1c0,0,18.9,2,19.9,2.3c0,0,3.8,0.8,3.8-2.3c0,0-1.6-8.8,3.1-10.5c0,0,2.5-0.9,3.6,2.6c0,0,0.1,13.4,3.2,16.8
			c0,0,6.5,9.2,7.2,10.4C603.6,471.9,600.1,485.3,595.1,483z"/>
	</g>
	<g>
		<path class="st15" d="M501.4,424.4c0,0,11.2,4.5,15,10.1c0,0,12.8,29.6,10.8,111.1C527.2,545.6,499.1,451.2,501.4,424.4z"/>
		<path class="st13" d="M447,771.8c0,0-1.6,10.4,0,15.9c0,0,8.2,7.1,12.7,5.2l4.6-6.9l0.7-17.1l-15.8,0.9L447,771.8z"/>
		<path class="st13" d="M488.5,768.8c0,0-1.6,10.4,0,15.9c0,0,8.2,7.1,12.7,5.2l4.6-6.9l0.7-17.1l-15.8,0.9L488.5,768.8z"/>
		<path class="st16" d="M443.8,777.4c0,0-2.2,3.1-1.6,14.8c0,0-0.1,1.3,7.1,2c0,0,5-0.3,10.6,3.7c0,0,10.3,9,26.4,3.3
			c0,0,5.4-3.9,0.9-8.8c0,0-19.2-16.2-26.8-13.2c0,0-5.4,2.2-4.8,7.1c0,0-4.3,1.2-4.2-3.1C451.4,783,451.2,775.5,443.8,777.4z"/>
		<path class="st16" d="M486,776.4c0,0-2.2,3.1-1.6,14.8c0,0-0.1,1.3,7.1,2c0,0,5-0.3,10.6,3.7c0,0,10.3,9,26.4,3.3
			c0,0,5.4-3.9,0.9-8.8c0,0-19.2-16.2-26.8-13.2c0,0-5.4,2.2-4.8,7.1c0,0-4.3,1.2-4.2-3.1C493.6,782,493.3,774.6,486,776.4z"/>
		<path class="st12" d="M444.1,565.6c0,0,0.7,49.5,1.7,73.1c0,0-0.3,120.2-1.7,133.4c0,0,12.2,8,27.9,2.4c0,0,15.7-127.5,13.6-184.3
			l-2.4-34.1L444.1,565.6z"/>
		<path class="st12" d="M481.4,591.8l0.8-14.1c0,0,2,27.5,3.6,61.7c2.1,45.1,3.5,101.8-1.3,122.6l-0.9,10.8c0,0,16.7,6.5,25.7,1.4
			c0,0,21.2-174.2,10.8-220.9l-38.8,7.3l-7.8,3.1"/>
		<path class="st15" d="M529.2,564.9c-0.3,2.4-0.4,3.7-0.4,3.7c1.4,12.2-4.8,15.7-4.8,15.7c-34.4,19.5-77.2,8.4-77.2,8.4
			c-12-2.4-11.3-9.1-11.3-9.1c0.7-9.8,3.6-27.2,3.6-27.2c-21.1,1-21.7-5.9-21.7-5.9c-4.5-73.1,17.4-104.1,17.4-104.1
			c13.9-14.6,25.7-19.4,25.7-19.4c18.8-5,32.4-4.3,41-2.6C501.4,424.4,527,548.3,529.2,564.9z"/>
		<path class="st17" d="M462,416.4l-1.6,14.5c0,0,4.5,12.4,12,12.8c0,0,12.7,0.8,16.5-7l-2.4-26.4L462,416.4z"/>
		<path class="st13" d="M497.4,372c0,0,2.6,34.5-8.5,45.8c0,0-7.3,8.4-25.9,1.7c0,0-15.7-15-18.5-33.6c0,0-0.2-16,11.7-20.4
			C456.1,365.5,482.9,354.9,497.4,372z"/>
		<path class="st18" d="M469.7,375.8c0,0,20,9.7,30.4,0c0,0,5.5-7.9-6.3-13.5c0,0-12.2-6.3-16.2-8.9c0,0-11.2-4-19.4,2.5
			c0,0-11.8,1.5-14.2,13.5c0,0-6,19.8,4.9,30.6c0,0,3,0.8,2.3-1.9c0,0-5.1-8.7-0.2-10.6c0,0,4.2-2,6.5,4.8c0,0-0.8,5.6,3,5.1
			c0,0,2.8-3.7,0.7-8c0,0,6.1-5.3,3.6-11.2C464.8,378.3,464.6,374.5,469.7,375.8z"/>
		<path class="st19" d="M487.2,419.3c0,0-1.9,14-5.1,20.3c0,0,0.5,4.5,9.3,6.8c0,0,6.6,0.5,4.9-23.9
			C496.4,422.4,490,417.3,487.2,419.3z"/>
		<path class="st19" d="M461.5,418.8c0,0-6.1,8.8-5.1,11.6c0,0,4.7,13.1,17.2,18c0,0,8.6,1,8.4-9.4
			C482.1,439.1,466.8,429.5,461.5,418.8z"/>
		<path class="st13" d="M517.1,532.7c-1.9-2.9-10.6-3-10.6-3c0,0,0,0-0.1,0c-1.7-2.4-6.9-2-7.7-1.8c-2.6,0.2-5.3,3-6.9,5
			c-1.9,0.9-4,1-4,1h-18.8l-0.9,12.8c5.3-1.1,24.2-1.1,24.2-1.1c5.1,1.8,10.4,0.9,10.4,0.9C522.3,542.7,517.1,532.7,517.1,532.7z"/>
		<path class="st20" d="M465,525c0,0,3.4,10.5,0.8,29l14.5-0.4c0,0,5.7-20.7-0.8-31.2l-14.5,0.4L465,525z"/>
		<path class="st21" d="M446.6,459.5c0,0-0.3,53-4.2,62.9h20.5c0,0-7.2-0.8-16.7-1.7C446.2,520.7,447.3,523.1,446.6,459.5z"/>
		<path class="st15" d="M501.4,424.4c0,0,18.3,13.2,27.8,140.5"/>
		<path class="st21" d="M538,512.3c0,0.2,0,0.4,0.1,0.6"/>
		<g>
			<path class="st21" d="M526.9,507.8L526.9,507.8C526.9,507.8,526.9,507.8,526.9,507.8L526.9,507.8z"/>
			<path class="st21" d="M526.9,507.8c-0.1-7.5-0.3-14.7-0.6-16.4c0,0-7.3-29.6-15.7-46.1c0,0,13,35.5,16.2,61.9L526.9,507.8z"/>
		</g>
		<path class="st21" d="M535.6,511C535.6,511,535.6,511,535.6,511"/>
	</g>
</g>
</svg>
