<?xml version="1.0" encoding="utf-8"?>
<!-- Generator: Adobe Illustrator 21.0.0, SVG Export Plug-In . SVG Version: 6.00 Build 0)  -->
<svg version="1.1" id="图层_1" xmlns="http://www.w3.org/2000/svg" xmlns:xlink="http://www.w3.org/1999/xlink" x="0px" y="0px"
	 viewBox="0 0 1024 1024" style="enable-background:new 0 0 1024 1024;" xml:space="preserve">
<style type="text/css">
	.st0{display:none;}
	.st1{display:inline;}
	.st2{opacity:0.25;}
	.st3{display:inline;opacity:0.25;}
	.st4{enable-background:new    ;}
	.st5{fill:url(#SVGID_1_);}
	.st6{fill:url(#SVGID_2_);}
	.st7{opacity:0.51;fill:url(#SVGID_3_);}
	.st8{opacity:0.57;fill:url(#SVGID_4_);}
	.st9{opacity:0.67;fill:url(#SVGID_5_);}
	.st10{opacity:0.54;fill:url(#SVGID_6_);}
	.st11{opacity:0.46;}
	.st12{fill:#FFFFFF;}
	.st13{fill:url(#SVGID_7_);}
	.st14{fill:url(#SVGID_8_);}
	.st15{fill:url(#SVGID_9_);}
	.st16{fill:url(#SVGID_10_);}
	.st17{opacity:0.12;fill:url(#SVGID_11_);}
	.st18{fill:url(#SVGID_12_);}
	.st19{fill:url(#SVGID_13_);}
	.st20{fill:url(#SVGID_14_);}
	.st21{fill:url(#SVGID_15_);}
</style>
<g id="图层_1_1_" class="st0">
	<g id="bg" class="st1">
		<g id="图层_2">
			<g id="图标参考线">
				<g id="图标尺寸" class="st2">
					<path d="M1018.2,5.8v1012.5H5.8V5.8H1018.2 M1024,0H0v1024h1024V0z"/>
					<path d="M512,28.8c266.9,0,483.2,216.4,483.2,483.2S778.9,995.2,512,995.2S28.8,778.9,28.8,512S245.1,28.8,512,28.8 M512,23
						C241.9,23,23,241.9,23,512s218.9,489,489,489s489-218.9,489-489C1000.7,242,782,23.3,512,23z"/>
					<path d="M949.2,74.8v874.4H74.8V74.8H949.2 M955,69H69v886h886V69z"/>
					<path d="M995.2,28.8v966.5H28.8V28.8H995.2 M1001,23H23v978h978V23z"/>
					<path d="M995.2,189.8v644.3H28.8V189.8H995.2 M1001,184.1H23v655.8h978V184.1z"/>
				</g>
			</g>
		</g>
	</g>
	<g id="图标尺寸_1_" class="st3">
		<g>
			<path d="M1017.1,4.6v1010.2H6.9V4.6H1017.1 M1021.7,0h-6.9H4.6H0v6.9v1010.2v6.9h6.9h1010.2h6.9v-6.9V6.9V0H1021.7z"/>
		</g>
		<g>
			<path d="M512,27.6c266.3,0,482.2,215.8,482.2,482.2S778.3,991.9,512,991.9S29.8,776.1,29.8,509.7S245.7,27.6,512,27.6 M512,23
				C243.4,23,23,241.1,23,509.7s218.1,486.7,489,486.7s489-218.1,489-486.7S780.6,23,512,23L512,23z"/>
		</g>
		<g>
			<path d="M948.2,73.5V946H75.8V73.5H948.2 M952.8,68.9h-6.9H73.5h-4.6v6.9v872.5v6.9h6.9h872.5h6.9v-6.9V75.8v-6.9H952.8z"/>
		</g>
		<g>
			<path d="M994.1,27.6v964.3H29.8V27.6H994.1 M998.7,23h-6.9H27.5h-4.6v6.9v964.3v6.9h6.9h964.3h6.9v-6.9V29.9V23H998.7z"/>
		</g>
		<g>
			<path d="M994.1,188.3v642.9H29.8V188.3H994.1 M998.7,183.7h-6.9H27.5h-4.6v4.6v642.9v6.9h6.9h964.3h6.9v-6.9V188.3v-4.6H998.7z"
				/>
		</g>
	</g>
</g>
<g>
	<g class="st4">
		<linearGradient id="SVGID_1_" gradientUnits="userSpaceOnUse" x1="37.444" y1="830.6942" x2="983.2216" y2="830.6942">
			<stop  offset="0" style="stop-color:#6386DB"/>
			<stop  offset="1" style="stop-color:#8EB0EC"/>
		</linearGradient>
		<path class="st5" d="M983.1,665c-0.1,0.7-0.1,1.4-0.2,2c-0.1,0.5-0.3,1.1-0.4,1.6c-0.2,0.6-0.3,1.3-0.6,1.9
			c-0.2,0.5-0.4,1-0.7,1.6c-0.3,0.7-0.6,1.3-0.9,2c-0.3,0.5-0.6,1-0.9,1.4c-0.5,0.8-1,1.5-1.5,2.2c-0.3,0.4-0.7,0.9-1,1.3
			c-0.8,1-1.7,2-2.7,2.9c-0.4,0.3-0.7,0.7-1.1,1c-0.6,0.6-1.3,1.1-2,1.6c-0.6,0.5-1.2,1-1.8,1.4c-0.7,0.5-1.5,1-2.3,1.5
			c-0.8,0.5-1.6,1.1-2.4,1.6L557.3,925.9c-1.9,1.1-4,2.1-6.1,3.1c-0.6,0.3-1.2,0.5-1.8,0.8c-1.6,0.7-3.3,1.3-5.1,1.9
			c-0.6,0.2-1.2,0.4-1.8,0.6c-1.1,0.3-2.2,0.6-3.3,0.9c-0.8,0.2-1.7,0.5-2.5,0.7c-1.2,0.3-2.4,0.5-3.5,0.8c-0.8,0.2-1.6,0.3-2.4,0.5
			c-2.4,0.4-4.8,0.8-7.3,1c-0.8,0.1-1.5,0.1-2.3,0.2c-1.4,0.1-2.9,0.2-4.3,0.3c-0.9,0-1.8,0.1-2.8,0.1c-1.2,0-2.4,0-3.5,0
			c-1,0-2,0-2.9-0.1c-1.1,0-2.2-0.1-3.3-0.2c-1-0.1-2-0.2-3-0.2c-1.1-0.1-2.1-0.2-3.2-0.4c-1-0.1-1.9-0.3-2.9-0.4
			c-1.1-0.2-2.3-0.4-3.4-0.6c-0.9-0.2-1.8-0.3-2.7-0.5c-1.3-0.3-2.7-0.6-4-1c-0.7-0.2-1.5-0.4-2.2-0.6c-2.4-0.7-4.7-1.5-6.9-2.3
			c-1.1-0.4-2.2-0.9-3.2-1.4c-0.6-0.2-1.1-0.5-1.7-0.7c-1.6-0.8-3.2-1.6-4.7-2.5L56.6,689.2c-12.7-7.3-19-16.9-19-26.5l-0.2,61.9
			c0,9.6,6.3,19.2,19,26.5l409.9,236.6c1.5,0.9,3.1,1.7,4.7,2.5c0.5,0.3,1.1,0.5,1.6,0.7c1,0.4,1.9,0.9,2.9,1.3
			c0.1,0,0.2,0.1,0.4,0.1c2.2,0.9,4.5,1.6,6.9,2.3c0.2,0.1,0.4,0.1,0.6,0.2c0.5,0.2,1.1,0.3,1.6,0.4c1.3,0.3,2.6,0.7,4,1
			c0.4,0.1,0.7,0.2,1.1,0.3c0.5,0.1,1.1,0.2,1.6,0.3c1.1,0.2,2.3,0.4,3.4,0.6c0.5,0.1,0.9,0.2,1.4,0.2c0.5,0.1,1,0.1,1.5,0.2
			c1.1,0.1,2.1,0.3,3.2,0.4c0.5,0,1,0.1,1.5,0.2c0.5,0,1,0,1.4,0.1c1.1,0.1,2.2,0.1,3.2,0.2c0.5,0,1.1,0.1,1.6,0.1
			c0.4,0,0.9,0,1.3,0c1.2,0,2.3,0,3.5,0c0.6,0,1.2,0,1.8,0c0.3,0,0.7-0.1,1-0.1c1.5-0.1,2.9-0.2,4.3-0.3c0.6,0,1.2-0.1,1.7-0.1
			c0.2,0,0.4-0.1,0.5-0.1c2.5-0.3,4.9-0.6,7.3-1c0.1,0,0.2,0,0.4,0c0.7-0.1,1.4-0.3,2.1-0.4c1.2-0.2,2.4-0.5,3.6-0.8
			c0.9-0.2,1.7-0.4,2.5-0.7c1.1-0.3,2.2-0.6,3.3-0.9c0.2-0.1,0.5-0.1,0.7-0.2c0.4-0.1,0.7-0.3,1.1-0.4c1.7-0.6,3.4-1.2,5.1-1.9
			c0.6-0.3,1.2-0.5,1.8-0.8c2.1-0.9,4.1-1.9,6.1-3.1l407.2-236.6c0.3-0.2,0.5-0.3,0.8-0.5c0.6-0.4,1.1-0.7,1.7-1.1
			c0.8-0.5,1.6-1,2.3-1.5c0.6-0.5,1.2-0.9,1.8-1.4c0.7-0.5,1.4-1.1,2-1.6c0.1-0.1,0.3-0.2,0.4-0.3c0.3-0.2,0.4-0.5,0.7-0.7
			c1-1,1.9-1.9,2.7-2.9c0.2-0.2,0.4-0.4,0.6-0.6c0.2-0.2,0.3-0.4,0.4-0.7c0.6-0.7,1-1.5,1.5-2.2c0.2-0.3,0.5-0.6,0.6-0.9
			c0.1-0.2,0.1-0.3,0.2-0.5c0.4-0.7,0.6-1.3,0.9-2c0.2-0.4,0.4-0.8,0.5-1.2c0-0.1,0.1-0.3,0.1-0.4c0.2-0.6,0.4-1.3,0.5-1.9
			c0.1-0.4,0.3-0.9,0.4-1.3c0-0.1,0-0.2,0-0.3c0.1-0.7,0.2-1.3,0.2-2c0-0.4,0.1-0.9,0.2-1.3c0-0.2,0-0.4,0-0.6l0.2-61.9
			C983.2,663.7,983.1,664.3,983.1,665z"/>
		<g>
			<linearGradient id="SVGID_2_" gradientUnits="userSpaceOnUse" x1="37.6194" y1="662.9142" x2="983.2217" y2="662.9142">
				<stop  offset="0" style="stop-color:#8EB0EC"/>
				<stop  offset="1" style="stop-color:#6386DB"/>
			</linearGradient>
			<path class="st6" d="M964.3,636.6c25.2,14.5,25.3,38.1,0.3,52.6L557.3,925.9c-25,14.5-65.7,14.5-90.9,0L56.6,689.2
				c-25.2-14.5-25.3-38.1-0.3-52.6L463.5,400c25-14.5,65.7-14.5,90.9,0L964.3,636.6z"/>
		</g>
	</g>
</g>
<linearGradient id="SVGID_3_" gradientUnits="userSpaceOnUse" x1="860.2264" y1="657.004" x2="860.2264" y2="254.7478">
	<stop  offset="0" style="stop-color:#7590FF;stop-opacity:0"/>
	<stop  offset="1" style="stop-color:#67B4FA"/>
</linearGradient>
<path class="st7" d="M860.2,657L860.2,657c-10.4,0-18.9-8.5-18.9-18.9V273.6c0-10.4,8.5-18.9,18.9-18.9l0,0
	c10.4,0,18.9,8.5,18.9,18.9v364.5C879.1,648.5,870.6,657,860.2,657z"/>
<linearGradient id="SVGID_4_" gradientUnits="userSpaceOnUse" x1="350.1303" y1="428.6029" x2="350.1303" y2="26.3467">
	<stop  offset="0" style="stop-color:#7590FF;stop-opacity:0"/>
	<stop  offset="1" style="stop-color:#67B4FA"/>
</linearGradient>
<path class="st8" d="M350.1,428.6L350.1,428.6c-10.4,0-18.9-8.5-18.9-18.9V45.2c0-10.4,8.5-18.9,18.9-18.9h0
	c10.4,0,18.9,8.5,18.9,18.9v364.5C369,420.1,360.5,428.6,350.1,428.6z"/>
<linearGradient id="SVGID_5_" gradientUnits="userSpaceOnUse" x1="740.4986" y1="434.5638" x2="740.4986" y2="32.3076">
	<stop  offset="0" style="stop-color:#7590FF;stop-opacity:0"/>
	<stop  offset="1" style="stop-color:#67B4FA"/>
</linearGradient>
<path class="st9" d="M740.5,434.6L740.5,434.6c-10.4,0-18.9-8.5-18.9-18.9V51.2c0-10.4,8.5-18.9,18.9-18.9l0,0
	c10.4,0,18.9,8.5,18.9,18.9v364.5C759.4,426.1,750.9,434.6,740.5,434.6z"/>
<linearGradient id="SVGID_6_" gradientUnits="userSpaceOnUse" x1="204.465" y1="616.8586" x2="204.465" y2="315.2607">
	<stop  offset="0" style="stop-color:#7590FF;stop-opacity:0"/>
	<stop  offset="1" style="stop-color:#18E7DF"/>
</linearGradient>
<path class="st10" d="M204.5,616.9L204.5,616.9c-10.4,0-18.9-8.5-18.9-18.9V334.1c0-10.4,8.5-18.9,18.9-18.9h0
	c10.4,0,18.9,8.5,18.9,18.9V598C223.3,608.4,214.8,616.9,204.5,616.9z"/>
<g>
	<g class="st11">
		<path class="st12" d="M619.3,617.5c50.7,29.3,50.9,76.7,0.6,106c-50.3,29.3-132.2,29.3-182.9,0c-50.7-29.3-51-76.7-0.6-106
			C486.7,588.2,568.6,588.2,619.3,617.5z"/>
	</g>
	<g class="st11">
		<path class="st12" d="M591.1,629.1c35,20.2,35.2,53,0.4,73.2c-34.8,20.2-91.3,20.2-126.3,0c-35-20.2-35.2-53-0.4-73.2
			C499.5,608.9,556.1,608.9,591.1,629.1z"/>
	</g>
	
		<linearGradient id="SVGID_7_" gradientUnits="userSpaceOnUse" x1="651.7975" y1="532.3446" x2="789.4912" y2="532.3446" gradientTransform="matrix(1 0 0 1 -47.2681 0)">
		<stop  offset="0" style="stop-color:#6386DB"/>
		<stop  offset="1" style="stop-color:#8EB0EC"/>
	</linearGradient>
	<path class="st13" d="M742.2,657.7c0,0-1.9-180-47.6-258.2c0,0-24.8-32.4-61-12.4c0,0-47.6,29.5-21,110.5c0,0,34.3,95.3,83.8,169.6
		c0,0,14.9,23.8,32.4,14.9C728.9,682.1,742.9,680.2,742.2,657.7z"/>
	
		<linearGradient id="SVGID_8_" gradientUnits="userSpaceOnUse" x1="401.3489" y1="506.9278" x2="746.8831" y2="506.9278" gradientTransform="matrix(1 0 0 1 -47.2681 0)">
		<stop  offset="0" style="stop-color:#6386DB"/>
		<stop  offset="1" style="stop-color:#8EB0EC"/>
	</linearGradient>
	<path class="st14" d="M692.9,389.2C651,317.8,531,312.1,531,312.1h-4.2h-4.2c0,0-120,5.7-161.9,77.2c0,0-24.8,45.7,21,127.6
		l69.5,136.2c0,0,19.5,47.5,75.6,48.7c56.1-1.3,75.6-48.7,75.6-48.7L672,516.9C717.7,434.9,692.9,389.2,692.9,389.2z"/>
	
		<linearGradient id="SVGID_9_" gradientUnits="userSpaceOnUse" x1="339.9676" y1="545.046" x2="477.6612" y2="545.046" gradientTransform="matrix(1 0 0 1 -47.2681 0)">
		<stop  offset="0" style="stop-color:#6386DB"/>
		<stop  offset="1" style="stop-color:#8EB0EC"/>
	</linearGradient>
	<path class="st15" d="M292.7,670.4c0,0,1.9-180,47.6-258.2c0,0,24.8-32.4,61-12.4c0,0,47.6,29.5,21,110.5c0,0-34.3,95.3-83.8,169.6
		c0,0-14.9,23.8-32.4,14.9C306.1,694.8,292,692.9,292.7,670.4z"/>
	
		<linearGradient id="SVGID_10_" gradientUnits="userSpaceOnUse" x1="501.751" y1="504.5211" x2="678.1599" y2="504.5211" gradientTransform="matrix(0.9992 -3.942076e-02 3.942076e-02 0.9992 -33.7349 25.5186)">
		<stop  offset="0" style="stop-color:#D7D8D5"/>
		<stop  offset="1" style="stop-color:#EDEDEE"/>
	</linearGradient>
	<path class="st16" d="M632.2,546c-12.2,7.3-28.6,15.2-44.7,17c0,0-65.2,2.2-85.1-12.7c0,0-13.5-28.4-15.7-60.7
		c0,0-0.6-9.5,9.8-14.3c0,0,77.5-41.2,155.3-21.9c0,0,11.7,2.3,10.7,21.4C662.5,474.8,645.8,536.7,632.2,546z"/>
	
		<linearGradient id="SVGID_11_" gradientUnits="userSpaceOnUse" x1="425.4252" y1="368.4967" x2="706.6303" y2="368.4967" gradientTransform="matrix(1 0 0 1 -47.2681 0)">
		<stop  offset="0" style="stop-color:#000296"/>
		<stop  offset="1" style="stop-color:#0200E3"/>
	</linearGradient>
	<path class="st17" d="M531,312h-4.2h-4.2c0,0-93.8,4.5-144.5,55c33.1,35.6,81.2,58,134.9,58c60.2,0,113.5-28.3,146.3-71.7
		C607.2,315.7,531,312,531,312z"/>
</g>
<g>
	
		<linearGradient id="SVGID_12_" gradientUnits="userSpaceOnUse" x1="379.7567" y1="228.617" x2="740.8433" y2="228.617" gradientTransform="matrix(1 0 0 1 -47.2681 0)">
		<stop  offset="0" style="stop-color:#6386DB"/>
		<stop  offset="1" style="stop-color:#8EB0EC"/>
	</linearGradient>
	<path class="st18" d="M513,55.7c99.7,0,180.5,77.4,180.5,172.9S612.7,401.5,513,401.5s-180.5-77.4-180.5-172.9S413.3,55.7,513,55.7
		"/>
	
		<linearGradient id="SVGID_13_" gradientUnits="userSpaceOnUse" x1="450.3262" y1="90.3005" x2="640.4254" y2="90.3005" gradientTransform="matrix(1 0 0 1 -47.2681 0)">
		<stop  offset="0" style="stop-color:#D7D8D5"/>
		<stop  offset="1" style="stop-color:#EDEDEE"/>
	</linearGradient>
	<path class="st19" d="M521.5,55.9c-2.4-0.1-4.8-0.2-7.2-0.2c-0.6,0-1.1,0-1.7,0c-41.3,0.1-79.3,13.5-109.6,35.9
		c7,3,14.6,4.8,14.6,4.8s38.6-14.6,64.8,12.2c0,0,7.3,7.4,8.6,9.7c0,0,3.2,5.7,14.8,6.5c0,0,61.4,0.3,84.5-16.2
		c0,0,7.2-3.4-1.5-16.8c0,0-18.2-23.4-29.2-30.3c-11.8-3-24-4.9-36.6-5.6C522.6,56,522.1,55.9,521.5,55.9z"/>
	
		<linearGradient id="SVGID_14_" gradientUnits="userSpaceOnUse" x1="455.212" y1="238.8889" x2="741.2345" y2="238.8889" gradientTransform="matrix(1 0 0 1 -47.2681 0)">
		<stop  offset="0" style="stop-color:#D7D8D5"/>
		<stop  offset="1" style="stop-color:#EDEDEE"/>
	</linearGradient>
	<path class="st20" d="M467.5,204.1c0,0-61,0-59.5,53.6c0,0-4.7,67.7,101.4,66.3c0,0,103.6,0.9,179.1-51.2
		c3.6-13.6,5.5-27.9,5.5-42.6c0-27.5-6.7-53.4-18.6-76.5C649.6,180.1,590.7,217.2,467.5,204.1z"/>
	<g>
		<g class="st4">
			<linearGradient id="SVGID_15_" gradientUnits="userSpaceOnUse" x1="349.0591" y1="255.4158" x2="385.1107" y2="255.4158">
				<stop  offset="0" style="stop-color:#D7D8D5"/>
				<stop  offset="1" style="stop-color:#E2E3DA"/>
			</linearGradient>
			<path class="st21" d="M385.1,259.5c0-0.3,0-0.5,0-0.8c0-0.3,0-0.5,0-0.8c0-0.3,0-0.5,0-0.8c0-0.7-0.1-1.3-0.2-2
				c0-0.1,0-0.2,0-0.2c0,0,0,0,0-0.1c-0.1-0.8-0.2-1.5-0.3-2.3c0-0.2-0.1-0.4-0.1-0.6c0-0.2-0.1-0.5-0.1-0.7c0-0.3-0.1-0.6-0.1-0.9
				c-0.1-0.6-0.2-1.2-0.3-1.8c0-0.1,0-0.2-0.1-0.3c0,0,0-0.1,0-0.1c-0.1-0.7-0.3-1.4-0.4-2.1c0-0.2-0.1-0.4-0.1-0.6
				c0-0.2-0.1-0.4-0.2-0.7c-0.1-0.2-0.1-0.5-0.2-0.7c-0.2-0.6-0.3-1.3-0.5-1.9c0,0,0-0.1,0-0.1c0-0.1,0-0.1-0.1-0.2
				c-0.1-0.5-0.3-1-0.4-1.5c-0.1-0.4-0.3-0.8-0.4-1.2c0-0.1-0.1-0.2-0.1-0.3c0-0.1,0-0.1-0.1-0.2c-0.2-0.5-0.3-1-0.5-1.5
				c-0.1-0.4-0.3-0.7-0.4-1c0-0.1,0-0.1-0.1-0.2c0,0,0-0.1-0.1-0.1c-0.2-0.4-0.3-0.8-0.5-1.2c-0.2-0.4-0.3-0.8-0.5-1.2
				c0,0,0-0.1-0.1-0.1c0,0,0-0.1-0.1-0.1c-0.1-0.3-0.3-0.6-0.4-0.8c-0.2-0.4-0.4-0.7-0.5-1.1c-0.1-0.1-0.2-0.3-0.2-0.4
				c0-0.1-0.1-0.2-0.1-0.3c-0.1-0.1-0.2-0.3-0.2-0.5c-0.3-0.6-0.6-1.2-1-1.7c0,0,0,0,0-0.1c0-0.1-0.1-0.1-0.1-0.2
				c-0.3-0.4-0.5-0.8-0.8-1.2c-0.1-0.2-0.3-0.4-0.4-0.5c-0.1-0.2-0.2-0.3-0.3-0.5c-0.1-0.1-0.2-0.3-0.3-0.4
				c-0.2-0.3-0.4-0.5-0.6-0.8c-0.2-0.2-0.3-0.4-0.5-0.6c-0.1-0.2-0.3-0.3-0.4-0.5c-0.1-0.2-0.3-0.3-0.4-0.5
				c-0.1-0.2-0.3-0.3-0.4-0.5c-0.1-0.1-0.1-0.1-0.2-0.2c0,0,0,0-0.1-0.1c-0.1-0.1-0.1-0.1-0.2-0.2c-0.1-0.1-0.3-0.3-0.4-0.4
				c-0.1-0.1-0.3-0.3-0.4-0.4c-0.1-0.1-0.3-0.2-0.4-0.4c0,0,0,0-0.1,0c0,0,0,0,0,0c-0.1-0.1-0.2-0.2-0.3-0.3
				c-0.1-0.1-0.3-0.2-0.4-0.3c-0.1-0.1-0.3-0.2-0.4-0.3c-0.1-0.1-0.3-0.2-0.4-0.2c0,0-0.1,0-0.1-0.1c-0.1-0.1-0.2-0.1-0.3-0.2
				c-0.1-0.1-0.3-0.1-0.4-0.2c-0.1-0.1-0.3-0.1-0.4-0.2c-0.1-0.1-0.3-0.1-0.4-0.2c-0.1-0.1-0.3-0.1-0.4-0.1c-0.1,0-0.2-0.1-0.3-0.1
				c0,0,0,0,0,0c0,0,0,0-0.1,0c-0.1,0-0.3-0.1-0.4-0.1c-0.2,0-0.3-0.1-0.5-0.1c-0.1,0-0.3-0.1-0.4-0.1c-0.2,0-0.3,0-0.5,0
				c-0.1,0-0.2,0-0.2,0c0,0-0.1,0-0.1,0c-0.1,0-0.2,0-0.3,0c-0.2,0-0.4,0-0.6,0c-0.3,0-0.5,0.1-0.8,0.1c-0.1,0-0.2,0-0.2,0.1
				c-0.1,0-0.2,0-0.2,0.1c-0.2,0-0.3,0.1-0.5,0.1c-0.4,0.2-0.8,0.3-1.2,0.6l-11.9,6.9c0.6-0.3,1.1-0.5,1.7-0.7c0.1,0,0.2,0,0.2-0.1
				c0.6-0.1,1.2-0.2,1.8-0.2c0,0,0.1,0,0.1,0c0.7,0,1.3,0.1,2,0.4c0,0,0,0,0,0c0.7,0.2,1.4,0.5,2.2,1c0.5,0.3,1.1,0.7,1.6,1.1
				c0,0,0,0,0,0c0.5,0.4,1,0.9,1.5,1.4c0,0,0,0,0.1,0.1c1,1,1.9,2.1,2.8,3.4c0.1,0.2,0.2,0.3,0.3,0.5c0.4,0.6,0.8,1.2,1.1,1.8
				c0,0.1,0.1,0.1,0.1,0.2c0.4,0.7,0.8,1.5,1.2,2.2c0,0.1,0.1,0.2,0.1,0.3c0.4,0.8,0.8,1.6,1.1,2.4c0,0,0,0.1,0.1,0.1
				c0.4,0.9,0.7,1.7,1.1,2.6c0,0.1,0,0.1,0.1,0.2c0.3,0.9,0.7,1.8,1,2.7c0,0.1,0.1,0.2,0.1,0.3c0.3,0.9,0.6,1.8,0.8,2.7
				c0,0.1,0,0.1,0.1,0.2c0.3,0.9,0.5,1.8,0.7,2.7c0.1,0.2,0.1,0.4,0.1,0.6c0.2,0.9,0.4,1.9,0.6,2.9c0,0.1,0,0.2,0,0.3
				c0.2,0.9,0.3,1.8,0.4,2.7c0,0.2,0.1,0.5,0.1,0.7c0.1,1,0.3,2,0.3,2.9c0,0.1,0,0.2,0,0.3c0.1,0.9,0.1,1.8,0.2,2.7
				c0,0.3,0,0.5,0,0.8c0,1,0.1,2,0.1,3c0,1.4-0.1,2.7-0.2,4c0,0.1,0,0.3,0,0.4c-0.1,1.2-0.2,2.4-0.4,3.5c0,0.2-0.1,0.4-0.1,0.6
				c-0.2,1.1-0.4,2.1-0.6,3.1c0,0.2-0.1,0.4-0.1,0.6c-0.2,0.9-0.5,1.7-0.8,2.5c0,0.1-0.1,0.3-0.1,0.4c-0.3,0.9-0.7,1.7-1,2.4
				c-0.1,0.3-0.3,0.5-0.4,0.8c-0.3,0.5-0.5,0.9-0.8,1.3c-0.4,0.5-0.7,1-1.1,1.4c-0.2,0.2-0.4,0.5-0.6,0.6c-0.6,0.6-1.2,1.1-1.9,1.5
				l11.9-6.9c0.7-0.4,1.3-0.9,1.9-1.5c0.2-0.2,0.4-0.4,0.6-0.7c0.4-0.4,0.8-0.9,1.1-1.4c0.1-0.1,0.2-0.2,0.2-0.3
				c0.2-0.3,0.4-0.7,0.6-1.1c0.1-0.3,0.3-0.5,0.4-0.8c0-0.1,0.1-0.2,0.1-0.2c0.3-0.6,0.6-1.3,0.8-2c0-0.1,0-0.1,0.1-0.2
				c0.1-0.1,0.1-0.3,0.1-0.4c0.2-0.5,0.3-0.9,0.5-1.4c0.1-0.4,0.2-0.8,0.3-1.1c0-0.2,0.1-0.4,0.1-0.6c0-0.1,0.1-0.3,0.1-0.4
				c0.2-0.7,0.3-1.4,0.4-2.1c0-0.2,0.1-0.4,0.1-0.6c0-0.2,0.1-0.4,0.1-0.6c0-0.3,0.1-0.6,0.1-1c0.1-0.7,0.2-1.5,0.2-2.2
				c0-0.1,0-0.2,0-0.3c0-0.1,0-0.3,0-0.4c0-0.5,0.1-1,0.1-1.6c0-0.8,0.1-1.5,0.1-2.3c0,0,0-0.1,0-0.1
				C385.1,261,385.1,260.3,385.1,259.5z"/>
			<g>
				<path class="st12" d="M356.5,227c9,5,16.5,23.5,16.8,41.4c0.3,17.9-6.8,28.4-15.8,23.4c-9-5-16.5-23.5-16.8-41.4
					C340.5,232.5,347.5,222,356.5,227z"/>
			</g>
		</g>
	</g>
</g>
</svg>
