<?xml version="1.0" encoding="utf-8"?>
<!-- Generator: Adobe Illustrator 23.0.0, SVG Export Plug-In . SVG Version: 6.00 Build 0)  -->
<svg version="1.1" id="图层_1" xmlns="http://www.w3.org/2000/svg" xmlns:xlink="http://www.w3.org/1999/xlink" x="0px" y="0px"
	 viewBox="0 0 300 300" style="enable-background:new 0 0 300 300;" xml:space="preserve">
<style type="text/css">
	.st0{clip-path:url(#SVGID_2_);fill:url(#SVGID_3_);}
	.st1{clip-path:url(#SVGID_2_);fill:#E4ECF9;}
	.st2{fill:#1B4885;}
	.st3{fill:url(#SVGID_4_);}
	.st4{fill:#C68620;}
	.st5{fill:#FFCD2E;}
	.st6{fill:#E8CFAC;}
	.st7{fill:#8D929A;}
	.st8{fill:#FFFFFF;}
	.st9{opacity:0.3;fill:url(#SVGID_5_);}
	.st10{fill:url(#SVGID_6_);}
	.st11{fill:url(#SVGID_7_);}
	.st12{fill:url(#SVGID_8_);}
	.st13{opacity:0.5;fill:url(#SVGID_9_);}
	.st14{opacity:0.5;fill:url(#SVGID_10_);}
</style>
<g>
	<g>
		<defs>
			<rect id="SVGID_1_" x="16" y="35" width="261.93" height="213"/>
		</defs>
		<clipPath id="SVGID_2_">
			<use xlink:href="#SVGID_1_"  style="overflow:visible;"/>
		</clipPath>
		<linearGradient id="SVGID_3_" gradientUnits="userSpaceOnUse" x1="15.9498" y1="204.2023" x2="277.4989" y2="204.2023">
			<stop  offset="0" style="stop-color:#3282ED"/>
			<stop  offset="1" style="stop-color:#60A2F0"/>
		</linearGradient>
		<path class="st0" d="M277.49,161.47c-0.36,3.65-3.71,5.47-6.57,7.13c-2.65,1.53-5.3,3.08-7.92,4.61
			c-4.25,2.45-8.46,4.91-12.7,7.36c-5.31,3.08-10.58,6.17-15.89,9.22c-5.84,3.38-11.67,6.8-17.54,10.18
			c-5.87,3.42-11.74,6.83-17.64,10.25c-5.41,3.15-10.78,6.27-16.18,9.42c-4.41,2.55-8.79,5.11-13.2,7.66
			c-2.88,1.66-5.77,3.35-8.65,5.01c-2.19,1.26-4.24,2.52-6.73,3.25c-6.47,1.86-13.63,1.23-19.47-2.16c-2.09-1.23-4.21-2.42-6.3-3.65
			c-3.85-2.22-7.66-4.41-11.51-6.63c-5.04-2.92-10.08-5.84-15.12-8.72c-5.74-3.32-11.51-6.63-17.24-9.95
			c-5.94-3.42-11.87-6.86-17.81-10.28c-5.6-3.25-11.21-6.47-16.85-9.72l-14.33-8.26c-3.42-1.99-6.87-3.95-10.28-5.94
			c-1.56-0.9-3.12-1.79-4.68-2.72c-2.45-1.43-4.87-3.68-4.87-6.73c0,2.79,0,5.57-0.03,8.39c0,0.99-0.07,2.02,0,3.05
			c0.2,2.69,2.32,4.78,4.54,6.1c1.36,0.83,2.75,1.59,4.15,2.39c3.58,2.05,7.16,4.15,10.74,6.2c5.17,2.99,10.31,5.97,15.49,8.95
			c6.13,3.55,12.3,7.1,18.44,10.64c6.4,3.71,12.8,7.4,19.23,11.11c6.1,3.52,12.17,7.03,18.27,10.55c5.07,2.92,10.12,5.84,15.19,8.75
			c3.42,1.99,6.87,3.95,10.28,5.94c1.99,1.13,3.95,2.42,6.1,3.22c6.73,2.45,14.62,1.92,20.83-1.69c2.35-1.36,4.71-2.75,7.06-4.11
			c4.34-2.52,8.69-5.04,13-7.56c5.67-3.28,11.31-6.57,16.98-9.88c6.33-3.68,12.67-7.36,18.97-11.04l19-11.04
			c5.67-3.32,11.34-6.6,17.04-9.92c4.41-2.55,8.82-5.11,13.23-7.69c2.42-1.43,4.87-2.82,7.29-4.25c0.73-0.43,1.49-0.86,2.19-1.36
			c1.86-1.39,3.32-3.32,3.35-5.74c0.03-1.23,0-2.42,0-3.65c0-2.42,0-4.88,0.03-7.3C277.53,161.13,277.49,161.3,277.49,161.47
			C277.49,161.57,277.49,161.4,277.49,161.47L277.49,161.47z M277.49,161.47"/>
		<path class="st1" d="M272.79,154.34c6.3,3.65,6.33,9.58,0.07,13.23l-114.21,66.36c-6.27,3.65-16.51,3.65-22.82,0L20.85,167.57
			c-6.3-3.65-6.33-9.58-0.07-13.23L135,87.95c6.27-3.65,16.51-3.65,22.82,0L272.79,154.34z M272.79,154.34"/>
	</g>
	<path class="st2" d="M142.73,81.91c0.27-0.13,0.53-0.27,0.8-0.36c0.17-0.07,0.3-0.13,0.43-0.2c0.26-0.1,0.5-0.2,0.76-0.3
		c0.17-0.07,0.3-0.1,0.46-0.17c0.23-0.07,0.46-0.16,0.7-0.23c0.17-0.07,0.33-0.1,0.5-0.13c0.13-0.03,0.26-0.07,0.43-0.1
		c0.2-0.03,0.4-0.1,0.56-0.13c0.13-0.03,0.27-0.07,0.4-0.07l0.7-0.1c0.07,0,0.13-0.03,0.2-0.03c0.3-0.03,0.6-0.07,0.9-0.07h1.13
		c0.23,0,0.43,0.03,0.66,0.03c0.07,0,0.13,0,0.2,0.03c0.27,0.03,0.53,0.07,0.83,0.13c0.07,0,0.13,0.03,0.2,0.03
		c0.2,0.03,0.43,0.1,0.63,0.13c0.1,0.03,0.17,0.03,0.27,0.07c0.2,0.07,0.37,0.1,0.56,0.17c0.1,0.03,0.17,0.07,0.27,0.1
		c0.23,0.07,0.43,0.16,0.66,0.23c0.03,0,0.07,0.03,0.1,0.03c0.27,0.1,0.53,0.23,0.8,0.36l0.2,0.1c0.2,0.1,0.43,0.23,0.63,0.33
		l-4.91-2.85c-0.03-0.03-0.07-0.03-0.1-0.07c-0.17-0.1-0.33-0.2-0.53-0.27l-0.2-0.1c-0.27-0.13-0.5-0.23-0.76-0.36h-0.03
		c-0.03,0-0.07-0.03-0.1-0.03c-0.23-0.1-0.43-0.16-0.66-0.27c-0.1-0.03-0.16-0.07-0.27-0.1l-0.3-0.1c-0.07-0.03-0.17-0.03-0.23-0.07
		c-0.1-0.03-0.17-0.03-0.27-0.07c-0.2-0.06-0.4-0.1-0.63-0.13c-0.07,0-0.13-0.03-0.2-0.03h-0.07c-0.27-0.03-0.5-0.07-0.76-0.1
		c-0.07,0-0.13,0-0.2-0.03c-0.13,0-0.3-0.03-0.43-0.03h-1.43c-0.27,0-0.56,0.03-0.83,0.07c-0.07,0-0.13,0.03-0.23,0.03
		c-0.17,0.03-0.33,0.03-0.5,0.07c-0.07,0-0.13,0.03-0.17,0.03c-0.13,0.03-0.27,0.03-0.4,0.07c-0.2,0.03-0.4,0.06-0.6,0.13l-0.4,0.1
		c-0.1,0.03-0.16,0.03-0.27,0.07c-0.07,0.03-0.16,0.07-0.27,0.07c-0.23,0.07-0.46,0.13-0.7,0.23c-0.16,0.07-0.3,0.1-0.46,0.17
		c-0.23,0.1-0.5,0.2-0.76,0.3c-0.1,0.03-0.2,0.07-0.33,0.13c-0.03,0.03-0.1,0.03-0.13,0.07c-0.27,0.13-0.53,0.23-0.8,0.36l-0.4,0.2
		c-0.4,0.2-0.83,0.43-1.23,0.66l-23.98,13.83c-0.53,0.3-1.03,0.63-1.53,0.96c-0.13,0.1-0.27,0.2-0.43,0.3
		c-0.4,0.27-0.8,0.56-1.19,0.86c-0.1,0.07-0.23,0.17-0.33,0.23c-0.46,0.36-0.96,0.76-1.43,1.16c-0.1,0.1-0.2,0.2-0.3,0.26
		c-0.36,0.33-0.73,0.66-1.09,1.03c-0.06,0.07-0.13,0.13-0.23,0.2l-0.2,0.2c-0.23,0.23-0.46,0.46-0.66,0.7l-0.46,0.46
		c-0.23,0.27-0.46,0.5-0.7,0.76c-0.1,0.13-0.2,0.23-0.33,0.36l-0.1,0.1l-0.4,0.5c-0.2,0.23-0.36,0.43-0.56,0.66
		c-0.13,0.17-0.27,0.33-0.43,0.53c-0.13,0.16-0.26,0.3-0.36,0.46c-0.03,0.03-0.07,0.1-0.1,0.13c-0.46,0.6-0.93,1.23-1.36,1.82
		c-0.03,0.07-0.07,0.1-0.1,0.13c-0.07,0.07-0.1,0.16-0.17,0.23c-0.46,0.66-0.9,1.33-1.36,2.02v0.03c-0.46,0.73-0.93,1.49-1.36,2.26
		c-0.03,0.07-0.1,0.13-0.13,0.2c-0.03,0.03-0.03,0.07-0.07,0.13c-0.46,0.76-0.9,1.56-1.33,2.35c-0.03,0.07-0.07,0.13-0.13,0.2
		c-0.03,0.07-0.07,0.1-0.1,0.16c-0.46,0.9-0.93,1.82-1.39,2.75l-0.1,0.2c-0.03,0.03-0.03,0.1-0.07,0.13
		c-0.56,1.19-1.13,2.39-1.63,3.58c0,0.03-0.03,0.07-0.03,0.07c-0.27,0.63-0.53,1.26-0.8,1.92c-0.07,0.2-0.17,0.37-0.23,0.56
		c-0.23,0.57-0.43,1.09-0.66,1.66c-0.03,0.1-0.07,0.2-0.13,0.3c0,0.03-0.03,0.07-0.03,0.1c-0.33,0.86-0.63,1.69-0.93,2.55
		c-0.07,0.17-0.1,0.3-0.17,0.46c-0.3,0.83-0.6,1.69-0.86,2.52c-0.03,0.07-0.03,0.13-0.07,0.2c-0.03,0.07-0.03,0.13-0.07,0.2
		c-0.4,1.19-0.76,2.39-1.13,3.55c-0.03,0.1-0.07,0.2-0.1,0.27c-0.36,1.26-0.73,2.49-1.09,3.71v0.03c0,0.03-0.03,0.1-0.03,0.13
		c-0.27,0.96-0.53,1.92-0.76,2.89v0.03c-0.27,0.96-0.5,1.92-0.73,2.85c-0.03,0.07-0.03,0.13-0.07,0.23
		c-0.23,0.9-0.43,1.79-0.63,2.69c-0.03,0.1-0.07,0.23-0.07,0.33c-0.2,0.86-0.36,1.69-0.56,2.52c0,0.07-0.03,0.13-0.03,0.2
		c-0.03,0.1-0.03,0.2-0.07,0.3c-0.03,0.23-0.1,0.43-0.13,0.66c-0.06,0.27-0.1,0.53-0.16,0.76c-0.03,0.23-0.1,0.43-0.13,0.63
		c-0.07,0.27-0.1,0.53-0.16,0.76c-0.03,0.2-0.07,0.43-0.13,0.63c-0.07,0.26-0.1,0.5-0.13,0.76l-0.1,0.6
		c-0.03,0.27-0.1,0.5-0.13,0.73l-0.1,0.6c-0.03,0.23-0.1,0.5-0.13,0.73c-0.03,0.2-0.07,0.36-0.1,0.56c-0.03,0.23-0.1,0.5-0.13,0.73
		c-0.03,0.16-0.07,0.36-0.1,0.53c-0.03,0.23-0.1,0.5-0.13,0.73c-0.03,0.16-0.06,0.33-0.06,0.5c-0.03,0.27-0.1,0.5-0.13,0.76
		c-0.03,0.13-0.03,0.27-0.07,0.43c-0.03,0.3-0.1,0.6-0.13,0.86c0,0.1-0.03,0.16-0.03,0.27c-0.07,0.36-0.1,0.73-0.16,1.09
		c0,0.1-0.03,0.17-0.03,0.26c-0.03,0.27-0.07,0.53-0.13,0.8c-0.03,0.13-0.03,0.27-0.07,0.4l-0.1,0.6c-0.03,0.13-0.03,0.27-0.07,0.43
		c-0.03,0.17-0.03,0.33-0.07,0.5c-0.03,0.13-0.03,0.27-0.07,0.4c-0.03,0.17-0.03,0.33-0.07,0.5c-0.03,0.13-0.03,0.23-0.03,0.36
		c0,0.1-0.03,0.2-0.03,0.3v0.13c-0.03,0.2-0.07,0.4-0.07,0.6c0,0.1-0.03,0.16-0.03,0.27c-0.07,0.56-0.13,1.06-0.17,1.49
		c0,0.07,0,0.13-0.03,0.2c-0.03,0.13-0.03,0.3-0.03,0.43c0,0.06,0,0.13-0.03,0.2c0,0.1-0.03,0.23-0.03,0.33c0,0.07,0,0.13-0.03,0.2
		c0,0.1-0.03,0.16-0.03,0.27v0.13c0,0.1-0.03,0.17-0.03,0.23v0.07c0,0.1,0,0.17-0.03,0.2c0,4.28,1.66,7.63,4.28,9.15l4.91,2.85
		c-2.62-1.53-4.28-4.88-4.28-9.15c0-0.07,0-0.13,0.03-0.2v-0.1c0-0.07,0-0.13,0.03-0.23v-0.17c0-0.07,0.03-0.17,0.03-0.27
		c0-0.07,0-0.13,0.03-0.2c0-0.1,0.03-0.2,0.03-0.33c0-0.07,0-0.13,0.03-0.2c0-0.13,0.03-0.27,0.03-0.43c0-0.07,0-0.13,0.03-0.2
		c0.07-0.43,0.1-0.93,0.17-1.49c0-0.1,0.03-0.16,0.03-0.27c0.03-0.2,0.03-0.4,0.07-0.6c0.03-0.13,0.03-0.3,0.07-0.43
		c0-0.13,0.03-0.23,0.03-0.36c0.03-0.16,0.03-0.33,0.07-0.5c0.03-0.13,0.03-0.27,0.07-0.4c0.03-0.16,0.03-0.33,0.07-0.5
		c0.03-0.13,0.03-0.27,0.07-0.43l0.1-0.6c0.03-0.13,0.03-0.27,0.07-0.4c0.03-0.27,0.07-0.53,0.13-0.8c0-0.1,0.03-0.17,0.03-0.27
		c0.07-0.36,0.1-0.73,0.17-1.09c0-0.1,0.03-0.16,0.03-0.27c0.03-0.3,0.1-0.56,0.13-0.86c0.03-0.13,0.03-0.27,0.07-0.43
		c0.03-0.27,0.07-0.5,0.13-0.76c0.03-0.17,0.07-0.33,0.07-0.5c0.03-0.23,0.07-0.5,0.13-0.73c0.03-0.17,0.07-0.37,0.1-0.53
		c0.03-0.23,0.1-0.47,0.13-0.73c0.03-0.2,0.07-0.37,0.1-0.57c0.03-0.23,0.1-0.5,0.13-0.73l0.1-0.6c0.03-0.23,0.1-0.5,0.13-0.76
		l0.1-0.6c0.03-0.26,0.1-0.5,0.13-0.76c0.03-0.2,0.07-0.43,0.13-0.63c0.07-0.27,0.1-0.5,0.17-0.76c0.03-0.2,0.1-0.43,0.13-0.63
		c0.07-0.27,0.1-0.53,0.16-0.8c0.03-0.23,0.1-0.43,0.13-0.66l0.1-0.5c0.17-0.83,0.37-1.66,0.57-2.52c0.03-0.1,0.06-0.23,0.06-0.33
		c0.2-0.9,0.4-1.76,0.63-2.69c0.03-0.07,0.03-0.13,0.07-0.23c0.23-0.93,0.46-1.89,0.73-2.85v-0.03c0.23-0.96,0.5-1.92,0.76-2.89
		c0.03-0.07,0.03-0.13,0.07-0.2c0.33-1.23,0.7-2.49,1.09-3.71c0.03-0.1,0.07-0.2,0.1-0.27c0.37-1.19,0.73-2.39,1.13-3.55
		c0.03-0.13,0.07-0.27,0.13-0.36c0.26-0.83,0.56-1.69,0.86-2.52c0.07-0.16,0.1-0.3,0.17-0.46c0.3-0.86,0.63-1.69,0.93-2.55
		c0.07-0.13,0.1-0.27,0.17-0.4c0.2-0.56,0.43-1.09,0.66-1.66c0.07-0.2,0.17-0.37,0.23-0.56c0.27-0.63,0.53-1.29,0.8-1.92
		c0-0.03,0.03-0.07,0.03-0.1c0.53-1.23,1.06-2.42,1.63-3.58c0.07-0.1,0.1-0.23,0.16-0.33c0.46-0.93,0.9-1.86,1.39-2.75
		c0.07-0.13,0.13-0.27,0.2-0.36c0.43-0.8,0.86-1.59,1.33-2.36c0.07-0.1,0.13-0.2,0.2-0.33c0.43-0.76,0.9-1.49,1.36-2.22v-0.03
		c0.43-0.7,0.9-1.36,1.36-2.02c0.1-0.13,0.17-0.27,0.27-0.37c0.43-0.63,0.9-1.23,1.36-1.82c0.17-0.2,0.33-0.4,0.46-0.6
		c0.13-0.16,0.27-0.36,0.43-0.53c0.2-0.23,0.36-0.46,0.56-0.66l0.4-0.5c0.13-0.16,0.27-0.3,0.4-0.46c0.23-0.27,0.46-0.5,0.7-0.76
		l0.46-0.46c0.23-0.23,0.46-0.46,0.66-0.7c0.13-0.13,0.27-0.26,0.43-0.4c0.36-0.33,0.73-0.7,1.09-1.03c0.1-0.1,0.2-0.2,0.3-0.27
		c0.46-0.4,0.93-0.8,1.43-1.16c0.1-0.1,0.23-0.16,0.33-0.23c0.4-0.3,0.8-0.56,1.16-0.86c0.13-0.1,0.27-0.2,0.43-0.3
		c0.5-0.33,1-0.66,1.53-0.96l23.98-13.83c0.43-0.23,0.83-0.46,1.23-0.66C142.46,82.04,142.59,81.98,142.73,81.91L142.73,81.91z
		 M144.95,39.1c0.2-0.1,0.43-0.2,0.63-0.27c0.03,0,0.07-0.03,0.07-0.03c0.23-0.1,0.43-0.17,0.63-0.23c0.07-0.03,0.1-0.03,0.17-0.07
		c0.16-0.07,0.33-0.1,0.5-0.17c0.03,0,0.07-0.03,0.1-0.03c0.27-0.07,0.5-0.13,0.76-0.16h0.07c0.17-0.03,0.36-0.03,0.53-0.07h0.6
		c0.13,0,0.27,0.03,0.37,0.03c0.03,0,0.07,0,0.1,0.03c0.1,0,0.17,0.03,0.23,0.07c0.03,0,0.07,0.03,0.1,0.03
		c0.07,0.03,0.13,0.03,0.2,0.07c0.03,0,0.07,0.03,0.1,0.03l0.2,0.1c0.03,0,0.07,0.03,0.1,0.03l-4.91-2.85c0,0-0.03,0-0.03-0.03
		c-0.03,0-0.03-0.03-0.07-0.03l-0.2-0.1c0,0-0.03,0-0.03-0.03c-0.03,0-0.03,0-0.07-0.03c-0.07-0.03-0.13-0.03-0.2-0.07
		c-0.03,0-0.03,0-0.07-0.03h-0.03c-0.07-0.03-0.17-0.03-0.23-0.07h-0.1c-0.13-0.03-0.23-0.03-0.37-0.03h-0.56
		c-0.16,0-0.33,0.03-0.53,0.07h-0.07c-0.23,0.03-0.5,0.1-0.76,0.16h-0.03c-0.03,0-0.07,0.03-0.07,0.03c-0.16,0.03-0.33,0.1-0.5,0.17
		c-0.07,0.03-0.1,0.03-0.16,0.07c-0.2,0.07-0.4,0.17-0.63,0.23c-0.03,0-0.03,0.03-0.07,0.03c-0.2,0.1-0.4,0.16-0.63,0.27l-0.2,0.1
		c-0.23,0.13-0.5,0.23-0.73,0.37c-0.16,0.1-0.33,0.17-0.5,0.26c-0.43,0.27-0.86,0.53-1.26,0.8l-0.4,0.3
		c-0.27,0.2-0.53,0.37-0.76,0.56c-0.13,0.13-0.3,0.23-0.43,0.37c-0.23,0.16-0.43,0.36-0.63,0.56c-0.13,0.13-0.3,0.27-0.43,0.4
		c-0.13,0.1-0.23,0.23-0.36,0.33l-0.53,0.53c-0.2,0.23-0.43,0.46-0.63,0.7c-0.07,0.1-0.17,0.17-0.23,0.27l-0.1,0.1
		c-0.16,0.2-0.36,0.4-0.53,0.63c-0.07,0.1-0.17,0.2-0.23,0.3l-0.8,0.99c-0.43,0.53-0.83,1.09-1.23,1.63
		c-0.4,0.53-0.8,1.03-1.16,1.56l-0.7,0.9c0,0.03-0.03,0.03-0.03,0.07c-0.2,0.27-0.43,0.53-0.66,0.76c-0.33,0.37-0.63,0.73-0.99,1.06
		c-0.23,0.23-0.5,0.46-0.73,0.7c-0.07,0.03-0.1,0.1-0.16,0.13c-0.2,0.2-0.43,0.36-0.66,0.53c-0.07,0.07-0.17,0.13-0.23,0.17
		c-0.3,0.2-0.57,0.4-0.9,0.56c-0.23,0.13-0.46,0.27-0.7,0.36c-0.07,0.03-0.13,0.07-0.17,0.1c-0.2,0.1-0.36,0.17-0.56,0.27
		c-0.03,0-0.07,0.03-0.1,0.03c-0.2,0.07-0.4,0.16-0.6,0.23c-0.07,0.03-0.1,0.03-0.16,0.07c-0.13,0.03-0.3,0.1-0.43,0.13
		c-0.07,0-0.13,0.03-0.16,0.03l-0.4,0.1c-0.03,0-0.1,0.03-0.13,0.03l-0.5,0.1h-0.07c-0.17,0.03-0.36,0.03-0.53,0.07h-0.13
		c-0.2,0-0.36,0.03-0.56,0.03c-0.36,0-0.76,0.03-1.13,0h-0.07c-0.4,0-0.76-0.03-1.16-0.03c-0.4,0-0.76-0.03-1.16-0.03h-1.29
		c-0.23,0-0.5,0.03-0.76,0.07h-0.13c-0.27,0.03-0.5,0.06-0.76,0.1h-0.07c-0.03,0-0.07,0-0.1,0.03c-0.2,0.03-0.43,0.07-0.66,0.13
		c-0.03,0-0.07,0-0.1,0.03c-0.23,0.07-0.5,0.1-0.76,0.17c-0.03,0-0.07,0-0.07,0.03c-0.03,0-0.07,0.03-0.1,0.03
		c-0.3,0.07-0.6,0.17-0.93,0.3c-0.03,0-0.07,0.03-0.1,0.03c-0.3,0.1-0.63,0.23-0.96,0.36c-0.03,0-0.07,0.03-0.07,0.03
		c-0.03,0-0.07,0.03-0.1,0.03c-0.6,0.23-1.13,0.53-1.66,0.83c-0.3,0.17-0.6,0.37-0.9,0.56c-0.07,0.07-0.17,0.1-0.23,0.17
		c-0.23,0.16-0.46,0.36-0.7,0.53c-0.03,0.03-0.07,0.07-0.13,0.1c-0.2,0.17-0.4,0.36-0.6,0.56l-0.1,0.1c-0.1,0.1-0.16,0.2-0.27,0.26
		l-0.3,0.3c-0.07,0.07-0.1,0.13-0.17,0.2c-0.03,0.07-0.1,0.13-0.13,0.16c-0.03,0.07-0.1,0.1-0.13,0.16
		c-0.13,0.17-0.23,0.33-0.36,0.5c0,0.03-0.03,0.03-0.03,0.07c-0.03,0.03-0.03,0.06-0.07,0.1l-0.2,0.3c-0.1,0.13-0.2,0.3-0.27,0.43
		l-0.03,0.03c0,0.03-0.03,0.03-0.03,0.07c-0.07,0.1-0.13,0.23-0.2,0.33c-0.1,0.16-0.17,0.33-0.23,0.46v0.03c0,0,0,0.03-0.03,0.03
		c-0.07,0.13-0.13,0.3-0.2,0.43c-0.07,0.13-0.1,0.23-0.13,0.36c-0.03,0.03-0.03,0.1-0.07,0.13c0,0.03-0.03,0.03-0.03,0.07
		c-0.07,0.2-0.16,0.43-0.23,0.63c0,0.03-0.03,0.07-0.03,0.1c-0.03,0.1-0.07,0.2-0.1,0.27c-0.03,0.13-0.07,0.27-0.1,0.37
		c0,0.06-0.03,0.1-0.03,0.16c-0.03,0.17-0.1,0.36-0.13,0.53c-0.03,0.1-0.03,0.2-0.07,0.26c0,0.03,0,0.07-0.03,0.1
		c-0.1,0.43-0.17,0.83-0.2,1.23v0.07c0,0.13-0.03,0.26-0.03,0.36c0,0.13-0.03,0.23-0.03,0.36c0,0.17-0.03,0.33-0.03,0.5
		c0,0.1,0,0.23-0.03,0.33v1.56c0.1,3.02,2.42,8.36,6.03,10.45l4.91,2.85c-3.61-2.09-5.93-7.43-6.03-10.45V70.1
		c0-0.1,0-0.23,0.03-0.33c0-0.17,0.03-0.33,0.03-0.5c0-0.13,0.03-0.23,0.03-0.36c0-0.16,0.03-0.3,0.07-0.46
		c0.06-0.4,0.13-0.83,0.2-1.23l0.1-0.4c0.03-0.16,0.1-0.36,0.13-0.53c0.03-0.17,0.1-0.36,0.16-0.53c0.03-0.1,0.07-0.2,0.1-0.27
		c0.1-0.27,0.16-0.53,0.3-0.8c0-0.03,0.03-0.1,0.07-0.13c0.1-0.27,0.23-0.53,0.33-0.8c0,0,0-0.03,0.03-0.03
		c0.13-0.27,0.27-0.56,0.43-0.83c0-0.03,0.03-0.03,0.03-0.07l0.5-0.8c0.03-0.03,0.03-0.07,0.07-0.1c0.16-0.23,0.36-0.5,0.53-0.73
		c0.03-0.07,0.1-0.13,0.13-0.17c0.13-0.16,0.3-0.33,0.46-0.5c0.1-0.1,0.17-0.2,0.27-0.27c0.23-0.23,0.46-0.43,0.7-0.66
		c0.03-0.03,0.07-0.07,0.13-0.1c0.23-0.2,0.46-0.36,0.7-0.53c0.07-0.07,0.17-0.1,0.23-0.17c0.3-0.2,0.6-0.4,0.9-0.56
		c0.5-0.3,1.06-0.56,1.66-0.83c0.07-0.03,0.1-0.03,0.16-0.07c0.33-0.13,0.66-0.27,0.96-0.36c0.03,0,0.07-0.03,0.1-0.03
		c0.33-0.1,0.63-0.2,0.93-0.3c0.07,0,0.1-0.03,0.16-0.03c0.27-0.07,0.5-0.13,0.76-0.17c0.03,0,0.07,0,0.1-0.03
		c0.23-0.03,0.43-0.1,0.66-0.13c0.07,0,0.1-0.03,0.17-0.03c0.27-0.03,0.53-0.07,0.76-0.1h0.13c0.26-0.03,0.5-0.03,0.76-0.07h0.03
		c0.43-0.03,0.83-0.03,1.23,0h0.07c0.4,0,0.8,0.03,1.16,0.03c0.4,0,0.76,0.03,1.16,0.03h1.2c0.2,0,0.36-0.03,0.56-0.03h0.13
		c0.16-0.03,0.33-0.03,0.53-0.07h0.06l0.5-0.1c0.03,0,0.1-0.03,0.13-0.03l0.4-0.1c0.03,0,0.07,0,0.07-0.03
		c0.03,0,0.07-0.03,0.1-0.03c0.13-0.03,0.3-0.1,0.43-0.13c0.07-0.03,0.1-0.03,0.17-0.07c0.2-0.07,0.4-0.13,0.6-0.23h0.03
		c0.03,0,0.03-0.03,0.06-0.03c0.2-0.07,0.37-0.16,0.56-0.26c0.07-0.03,0.13-0.07,0.17-0.1c0.23-0.1,0.46-0.23,0.7-0.36
		c0.3-0.17,0.6-0.36,0.9-0.56c0.07-0.07,0.17-0.1,0.23-0.17c0.23-0.17,0.43-0.33,0.66-0.53c0.07-0.03,0.1-0.1,0.16-0.13
		c0.23-0.2,0.46-0.4,0.7-0.63l0.06-0.07c0.33-0.33,0.66-0.7,1-1.06l0.07-0.07l0.6-0.7l0.07-0.07c0.23-0.27,0.43-0.53,0.63-0.8
		c0.03-0.03,0.03-0.07,0.07-0.07c0.4-0.5,0.76-1.03,1.16-1.56c0.4-0.53,0.8-1.09,1.23-1.62l0.8-1c0.07-0.1,0.16-0.2,0.23-0.27
		c0.2-0.23,0.4-0.5,0.6-0.73c0.07-0.1,0.16-0.17,0.23-0.27c0.2-0.23,0.4-0.46,0.63-0.7l0.3-0.3c0.2-0.2,0.4-0.4,0.6-0.57
		c0.13-0.13,0.27-0.26,0.43-0.4c0.2-0.2,0.43-0.37,0.63-0.56c0.13-0.13,0.3-0.23,0.43-0.37c0.23-0.2,0.5-0.4,0.76-0.56l0.4-0.3
		c0.4-0.27,0.83-0.53,1.26-0.8c0.17-0.1,0.33-0.2,0.5-0.27c0.27-0.13,0.5-0.26,0.73-0.36C144.81,39.16,144.88,39.13,144.95,39.1
		L144.95,39.1z M144.95,39.1"/>
	<linearGradient id="SVGID_4_" gradientUnits="userSpaceOnUse" x1="84.2272" y1="111.8844" x2="174.296" y2="111.8844">
		<stop  offset="0" style="stop-color:#3282ED"/>
		<stop  offset="1" style="stop-color:#60A2F0"/>
	</linearGradient>
	<path class="st3" d="M111.35,58.3c0.5-0.3,1.06-0.57,1.66-0.83c7.1-2.99,9.98,0.53,15.72-2.79c5.51-3.18,7.4-10.54,14.79-14.82
		c0.17-0.1,0.33-0.2,0.5-0.27c7.83-4.25,8.29,1.56,8.29,4.71c0,3.18-5.3,20.63-12.34,24.67l-22.72,13.13
		c-7.03,4.05-12.3-5.8-12.44-10.38C104.66,67.58,105.72,61.55,111.35,58.3L111.35,58.3z M141.07,82.77
		c26.53-15.32,32.9,38.04,33.23,40.82c0.03,7.86-5.51,18.97-12.34,22.91l-65.3,37.74c-6.83,3.95-12.4-0.76-12.44-8.62
		c0.33-3.18,6.33-63.67,32.9-78.99L141.07,82.77z M141.07,82.77"/>
	<g>
		<path class="st4" d="M209.36,116.89c-0.07-0.03-0.1-0.07-0.17-0.1l-0.79-0.39l-0.2-0.1c-0.17-0.07-0.3-0.13-0.46-0.2
			c-0.1-0.03-0.2-0.07-0.3-0.13c-0.1-0.03-0.17-0.07-0.26-0.1c-0.3-0.1-0.63-0.23-0.96-0.33h-0.07c-0.3-0.1-0.63-0.16-0.96-0.23
			c-0.1-0.03-0.2-0.03-0.3-0.07c-0.1-0.03-0.2-0.03-0.3-0.07c-0.17-0.03-0.36-0.07-0.56-0.07c-0.07,0-0.13-0.03-0.23-0.03
			c-0.3-0.03-0.63-0.07-0.96-0.1h-1.88c-0.17,0-0.36,0.03-0.53,0.03c-0.13,0-0.26,0-0.36,0.03c-0.4,0.03-0.76,0.07-1.15,0.13h-0.03
			c-0.43,0.07-0.86,0.13-1.28,0.23l-0.4,0.1l-0.79,0.2c-0.03,0-0.06,0.03-0.06,0.03c-0.5,0.13-1.02,0.3-1.52,0.46l-0.3,0.1
			c-0.43,0.13-0.82,0.3-1.25,0.46c-0.07,0.03-0.1,0.03-0.17,0.07c-0.33,0.13-0.69,0.3-1.02,0.46c-0.03,0.03-0.1,0.03-0.13,0.06
			c-0.4,0.17-0.76,0.36-1.15,0.56c-0.1,0.07-0.23,0.13-0.33,0.16c-0.43,0.23-0.86,0.46-1.32,0.73c-0.46,0.26-0.92,0.53-1.35,0.82
			c-0.13,0.1-0.3,0.2-0.43,0.3c-0.3,0.2-0.59,0.4-0.92,0.59c-0.17,0.13-0.33,0.23-0.5,0.36c-0.26,0.2-0.56,0.4-0.82,0.59l-0.49,0.4
			c-0.26,0.2-0.56,0.43-0.82,0.66c-0.16,0.13-0.33,0.26-0.46,0.4c-0.3,0.26-0.63,0.53-0.92,0.79c-0.1,0.1-0.23,0.2-0.36,0.3
			c-0.43,0.36-0.82,0.76-1.25,1.12c-0.1,0.07-0.16,0.16-0.26,0.26c-0.26,0.26-0.56,0.53-0.82,0.79l-0.13,0.13
			c-0.5,0.49-0.96,0.99-1.45,1.48c-0.03,0.03-0.03,0.07-0.07,0.07c-0.46,0.49-0.89,0.99-1.32,1.48l-0.13,0.13l-0.49,0.59
			c-0.16,0.2-0.36,0.43-0.53,0.63c-0.23,0.26-0.43,0.53-0.66,0.82c-0.16,0.2-0.33,0.43-0.49,0.63c-0.03,0.03-0.07,0.07-0.1,0.13
			c-0.07,0.07-0.1,0.13-0.16,0.2c-0.53,0.69-1.05,1.42-1.58,2.14c-0.07,0.07-0.1,0.13-0.16,0.23c-0.03,0.03-0.03,0.07-0.07,0.1
			c-0.5,0.69-0.96,1.42-1.45,2.14c-0.03,0.07-0.1,0.13-0.13,0.2c-0.07,0.1-0.13,0.2-0.2,0.33c-0.36,0.59-0.73,1.19-1.09,1.81
			c-0.07,0.1-0.13,0.2-0.17,0.3c-0.03,0.03-0.03,0.07-0.07,0.1c-0.39,0.69-0.79,1.38-1.19,2.11c-0.03,0.07-0.07,0.1-0.1,0.16
			c-0.07,0.13-0.13,0.23-0.17,0.36c-0.3,0.56-0.59,1.12-0.86,1.71c-0.07,0.13-0.13,0.23-0.17,0.36c-0.03,0.07-0.07,0.13-0.1,0.23
			c-0.33,0.72-0.69,1.45-0.99,2.18c0,0.03-0.03,0.03-0.03,0.06c-0.03,0.07-0.07,0.17-0.1,0.23c-0.3,0.66-0.56,1.32-0.82,1.98
			c-0.03,0.1-0.1,0.2-0.13,0.33c-0.03,0.1-0.07,0.17-0.1,0.26c-0.3,0.79-0.59,1.58-0.86,2.37v0.03c-0.17,0.53-0.33,1.06-0.49,1.55
			c-0.03,0.13-0.1,0.3-0.13,0.43c-0.1,0.3-0.17,0.59-0.26,0.89c-0.03,0.1-0.03,0.2-0.07,0.3c-0.07,0.23-0.13,0.5-0.2,0.73
			c-0.1,0.33-0.16,0.66-0.23,0.99c-0.07,0.26-0.1,0.5-0.17,0.76c-0.03,0.17-0.07,0.33-0.13,0.53c-0.03,0.13-0.03,0.23-0.07,0.36
			c-0.07,0.36-0.13,0.76-0.2,1.12c-0.03,0.26-0.1,0.53-0.13,0.76c-0.07,0.39-0.13,0.76-0.17,1.15c-0.03,0.16-0.07,0.36-0.07,0.53
			c0,0.07-0.03,0.17-0.03,0.23c-0.03,0.16-0.03,0.36-0.07,0.53l-0.1,1.09c-0.03,0.2-0.03,0.36-0.03,0.56
			c-0.03,0.36-0.03,0.73-0.07,1.09c0,0.16-0.03,0.33-0.03,0.49c-0.03,0.53-0.03,1.06-0.03,1.55c0.03,8.93,3.2,15.23,8.27,18.2
			l4.88,2.83c-5.11-2.97-8.24-9.26-8.27-18.2c0-0.53,0-1.02,0.03-1.55c0-0.17,0-0.33,0.03-0.5c0.03-0.36,0.03-0.72,0.07-1.09
			c0-0.2,0.03-0.36,0.03-0.56l0.1-1.09c0.03-0.17,0.03-0.36,0.07-0.53c0.03-0.26,0.07-0.53,0.1-0.76c0.07-0.4,0.1-0.76,0.17-1.15
			c0.03-0.26,0.1-0.53,0.13-0.76c0.07-0.36,0.13-0.73,0.2-1.12l0.2-0.89c0.07-0.26,0.1-0.5,0.17-0.76c0.07-0.33,0.16-0.66,0.23-0.99
			c0.07-0.23,0.13-0.49,0.2-0.72c0.1-0.4,0.23-0.79,0.33-1.19c0.03-0.13,0.1-0.3,0.13-0.43c0.16-0.53,0.33-1.09,0.53-1.61
			c0.26-0.79,0.56-1.58,0.86-2.37c0.07-0.2,0.16-0.4,0.23-0.59c0.26-0.66,0.53-1.32,0.82-1.98c0.03-0.1,0.07-0.2,0.13-0.3l0.99-2.18
			c0.1-0.2,0.2-0.36,0.26-0.56c0.26-0.56,0.56-1.15,0.86-1.71c0.1-0.17,0.16-0.36,0.26-0.53c0.39-0.73,0.76-1.42,1.19-2.11
			c0.07-0.13,0.16-0.26,0.23-0.4c0.36-0.59,0.73-1.22,1.09-1.81c0.1-0.16,0.23-0.36,0.33-0.53c0.46-0.72,0.96-1.45,1.45-2.14
			c0.07-0.1,0.16-0.2,0.23-0.33c0.53-0.72,1.06-1.45,1.58-2.14c0.07-0.1,0.17-0.23,0.23-0.33c0.16-0.23,0.33-0.43,0.53-0.66
			c0.23-0.26,0.43-0.53,0.66-0.79c0.17-0.23,0.36-0.43,0.53-0.63c0.2-0.26,0.43-0.49,0.63-0.73c0.43-0.49,0.89-0.99,1.35-1.48
			c0.03-0.03,0.03-0.07,0.07-0.07c0.46-0.49,0.95-0.99,1.45-1.48c0.3-0.3,0.63-0.59,0.92-0.92c0.1-0.07,0.17-0.17,0.26-0.26
			c0.43-0.4,0.82-0.76,1.25-1.12c0.1-0.1,0.23-0.2,0.33-0.3c0.3-0.26,0.63-0.53,0.92-0.79c0.17-0.13,0.33-0.26,0.46-0.4
			c0.26-0.23,0.56-0.43,0.82-0.66l0.49-0.4c0.26-0.2,0.56-0.4,0.82-0.59c0.17-0.13,0.33-0.23,0.5-0.36c0.3-0.2,0.59-0.4,0.92-0.59
			c0.13-0.1,0.3-0.2,0.43-0.3c0.46-0.3,0.89-0.56,1.35-0.82c0.43-0.26,0.89-0.49,1.32-0.73c0.1-0.07,0.23-0.13,0.33-0.16
			c0.4-0.2,0.76-0.4,1.15-0.56c0.03-0.03,0.1-0.03,0.13-0.07c0.39-0.2,0.79-0.36,1.19-0.53c0.43-0.16,0.82-0.33,1.25-0.49l0.3-0.1
			c0.53-0.16,1.02-0.33,1.52-0.46c0.3-0.07,0.59-0.17,0.89-0.23c0.13-0.03,0.26-0.07,0.43-0.1c0.43-0.1,0.86-0.16,1.28-0.23h0.03
			c0.4-0.07,0.76-0.1,1.15-0.13c0.13,0,0.26-0.03,0.36-0.03c0.26-0.03,0.56-0.03,0.82-0.03h1.48c0.36,0.03,0.72,0.07,1.05,0.1
			c0.07,0,0.13,0.03,0.23,0.03c0.3,0.03,0.56,0.1,0.86,0.13c0.1,0.03,0.2,0.03,0.3,0.07c0.33,0.06,0.63,0.13,0.96,0.23h0.07
			c0.33,0.1,0.66,0.2,0.96,0.33c0.1,0.03,0.16,0.07,0.26,0.1c0.26,0.1,0.49,0.2,0.76,0.33l0.2,0.1c0.33,0.17,0.63,0.33,0.92,0.5
			L209.36,116.89z M209.36,116.89"/>
		<path class="st5" d="M194.06,121.71c15.66-9.03,28.42-1.78,28.49,16.22c0.07,18-12.63,39.96-28.29,48.99
			c-15.66,9.03-28.42,1.78-28.45-16.22C165.74,152.7,178.4,130.77,194.06,121.71L194.06,121.71z M194.06,121.71"/>
		<path class="st4" d="M196.96,138.49c0.46-0.26,0.92-0.33,1.29-0.13c0.69,0.4,0.72,1.71,0,2.93l-4.19,7.29l3.89-2.24
			c0.99-0.59,1.81-0.13,1.81,1.02s-0.79,2.54-1.81,3.13l-4.65,2.7v2.77l4.65-2.67c0.99-0.59,1.81-0.1,1.81,1.02
			c0,1.15-0.79,2.54-1.81,3.13l-4.65,2.7v3.69c0,1.15-0.79,2.54-1.81,3.13c-0.99,0.56-1.81,0.1-1.81-1.02v-3.69l-4.65,2.67
			c-0.99,0.59-1.81,0.1-1.81-1.02c0-1.15,0.79-2.54,1.81-3.13l4.65-2.67v-2.77l-4.65,2.67c-0.99,0.59-1.81,0.13-1.81-1.02
			c0-1.15,0.79-2.54,1.81-3.13l3.89-2.24l-4.22-2.41c-0.73-0.4-0.73-1.71,0-2.93c0.36-0.63,0.82-1.09,1.28-1.35
			c0.46-0.26,0.92-0.33,1.29-0.13l4.22,2.41l4.19-7.29C196.04,139.25,196.5,138.75,196.96,138.49L196.96,138.49z M196.96,138.49"/>
		<path class="st6" d="M193.93,169.12v-3.69l-3.56-2.08v3.69c0,0.56,0.2,0.99,0.53,1.15l3.56,2.08
			C194.13,170.07,193.93,169.68,193.93,169.12L193.93,169.12z M202.57,156.32c0.1-0.03,0.2-0.07,0.3-0.07h0.33
			c0.1,0.03,0.16,0.07,0.26,0.1l-3.56-2.08c-0.03,0-0.07-0.03-0.1-0.03c-0.03,0-0.07-0.03-0.1-0.03h-0.46
			c-0.07,0-0.1,0.03-0.16,0.03c-0.03,0-0.03,0.03-0.07,0.03c-0.03,0-0.03,0-0.07,0.03c-0.03,0-0.07,0-0.07,0.03
			c-0.1,0.03-0.16,0.07-0.26,0.13l-4.65,2.67l3.56,2.08l4.65-2.67c0.1-0.07,0.23-0.1,0.33-0.16
			C202.53,156.32,202.57,156.32,202.57,156.32L202.57,156.32z M202.57,149.37c0.1-0.03,0.2-0.07,0.3-0.07h0.33
			c0.1,0.03,0.2,0.07,0.26,0.1l-3.56-2.08c-0.03-0.03-0.07-0.03-0.1-0.03c-0.03,0-0.07-0.03-0.1-0.03h-0.46
			c-0.07,0-0.1,0.03-0.16,0.03c-0.03,0-0.03,0.03-0.07,0.03c-0.03,0-0.03,0-0.07,0.03c-0.03,0-0.07,0-0.07,0.03
			c-0.1,0.03-0.16,0.07-0.26,0.13l-3.89,2.24l3.56,2.08l3.89-2.24c0.1-0.07,0.23-0.1,0.33-0.16
			C202.5,149.4,202.53,149.4,202.57,149.37L202.57,149.37z M193.93,161.27l-3.56-2.08v-2.77l3.53,2.08L193.93,161.27z
			 M193.93,161.27"/>
		<path class="st6" d="M187.5,166.58l0.1-0.4v-0.03c0.03-0.13,0.1-0.3,0.16-0.43c0.07-0.13,0.13-0.3,0.2-0.43
			c0.07-0.13,0.17-0.26,0.26-0.39l0.03-0.03c0.1-0.1,0.17-0.23,0.26-0.33l0.07-0.07c0.07-0.07,0.17-0.13,0.23-0.2l0.1-0.1
			c0.1-0.1,0.23-0.16,0.33-0.23l4.65-2.67l-3.56-2.08l-4.65,2.67c-0.13,0.07-0.23,0.13-0.33,0.23l-0.1,0.1
			c-0.07,0.03-0.1,0.1-0.17,0.13c-0.03,0.03-0.03,0.07-0.07,0.07l-0.13,0.13c-0.06,0.07-0.1,0.13-0.13,0.16
			c-0.03,0.03-0.03,0.03-0.03,0.07l-0.03,0.03c0,0.03-0.03,0.03-0.03,0.07c-0.03,0.07-0.07,0.1-0.1,0.16
			c-0.03,0.07-0.07,0.1-0.1,0.17c-0.03,0.03-0.03,0.1-0.07,0.13c-0.03,0.07-0.07,0.1-0.07,0.16c-0.03,0.03-0.03,0.1-0.07,0.13
			c-0.03,0.07-0.03,0.1-0.07,0.16c-0.03,0.07-0.03,0.1-0.07,0.17c0,0.03-0.03,0.07-0.03,0.1v0.03c0,0.03,0,0.03-0.03,0.07
			c-0.03,0.07-0.03,0.13-0.06,0.2c0,0.03,0,0.1-0.03,0.13v0.13c0,0.13-0.03,0.23-0.03,0.36c0,0.56,0.2,0.96,0.53,1.15l3.56,2.08
			c-0.33-0.2-0.53-0.59-0.53-1.15c0-0.13,0-0.26,0.03-0.43C187.5,166.64,187.5,166.61,187.5,166.58L187.5,166.58z M200.46,142.31
			l0.07-0.07c0.07-0.07,0.13-0.13,0.23-0.2l0.1-0.1c0.1-0.1,0.23-0.17,0.33-0.23c0.1-0.07,0.2-0.1,0.33-0.13
			c0.03,0,0.03,0,0.07-0.03c0.1-0.03,0.2-0.07,0.3-0.07h0.33l0.3,0.1l-3.56-2.08c-0.03,0-0.07-0.03-0.1-0.03
			c-0.03,0-0.07-0.03-0.1-0.03c-0.03,0-0.07,0-0.1-0.03h-0.36c-0.07,0-0.1,0.03-0.16,0.03c-0.03,0-0.07,0.03-0.1,0.03
			c-0.03,0-0.03,0-0.07,0.03c-0.03,0-0.03,0-0.07,0.03c-0.1,0.03-0.17,0.06-0.26,0.13c-0.1,0.07-0.23,0.13-0.33,0.23l-0.1,0.1
			c-0.07,0.07-0.13,0.1-0.17,0.17c0,0-0.03,0.03-0.03,0.07l-0.07,0.07l-0.1,0.1c-0.03,0.07-0.1,0.1-0.13,0.16l-0.03,0.03
			c0,0,0,0.03-0.03,0.03c-0.03,0.03-0.03,0.07-0.07,0.1c-0.03,0.07-0.07,0.1-0.1,0.16c-0.03,0.07-0.07,0.1-0.1,0.17v0.03l-4.19,7.29
			l3.56,2.08l4.19-7.29c0.1-0.13,0.17-0.3,0.26-0.43c0,0,0-0.03,0.03-0.03C200.26,142.51,200.36,142.41,200.46,142.31L200.46,142.31
			z M200.46,142.31"/>
		<path class="st6" d="M187.47,159.65l0.1-0.39v-0.03c0.03-0.13,0.1-0.3,0.17-0.43c0.07-0.13,0.13-0.3,0.2-0.43
			c0.07-0.13,0.16-0.26,0.26-0.4c0,0,0-0.03,0.03-0.03c0.1-0.1,0.16-0.23,0.26-0.33l0.07-0.07c0.07-0.07,0.16-0.13,0.23-0.2l0.1-0.1
			c0.1-0.1,0.23-0.16,0.33-0.23l3.89-2.24l-3.56-2.08l-3.89,2.24c-0.13,0.07-0.23,0.13-0.33,0.23l-0.1,0.1
			c-0.07,0.03-0.1,0.1-0.16,0.13l-0.2,0.2c-0.07,0.07-0.1,0.13-0.13,0.17c0,0.03-0.03,0.03-0.03,0.07l-0.03,0.03
			c0,0.03-0.03,0.03-0.03,0.07c-0.03,0.07-0.07,0.1-0.1,0.16c-0.03,0.07-0.07,0.1-0.1,0.17c-0.03,0.03-0.03,0.1-0.07,0.13
			c-0.03,0.07-0.07,0.1-0.07,0.16c-0.03,0.03-0.03,0.1-0.07,0.13c-0.03,0.07-0.03,0.1-0.07,0.17c-0.03,0.06-0.03,0.1-0.07,0.16
			c0,0.03-0.03,0.07-0.03,0.1v0.03c0,0.03,0,0.03-0.03,0.07c-0.03,0.07-0.03,0.13-0.07,0.2c0,0.03,0,0.1-0.03,0.13v0.13
			c0,0.13-0.03,0.23-0.03,0.36c0,0.56,0.2,0.96,0.53,1.15l3.56,2.08c-0.33-0.2-0.53-0.59-0.53-1.15c0-0.13,0-0.26,0.03-0.43
			C187.47,159.72,187.47,159.69,187.47,159.65L187.47,159.65z M187.47,159.65"/>
		<path class="st7" d="M191.46,147.95l-3.56-2.08l4.25,2.41l3.56,2.08L191.46,147.95z M191.46,147.95"/>
		<path class="st8" d="M201.18,141.72c0.46-0.26,0.92-0.33,1.28-0.13c0.69,0.4,0.73,1.71,0,2.93l-4.19,7.29l3.89-2.24
			c0.99-0.59,1.81-0.13,1.81,1.02c0,1.15-0.79,2.54-1.81,3.13l-4.65,2.7v2.77l4.65-2.67c0.99-0.59,1.81-0.1,1.81,1.02
			c0,1.15-0.79,2.54-1.81,3.13l-4.65,2.7v3.69c0,1.15-0.79,2.54-1.81,3.13c-0.99,0.56-1.81,0.1-1.81-1.02v-3.69l-4.65,2.67
			c-0.99,0.59-1.81,0.1-1.81-1.02c0-1.15,0.79-2.54,1.81-3.13l4.65-2.67v-2.77l-4.65,2.67c-0.99,0.59-1.81,0.13-1.81-1.02
			c0-1.15,0.79-2.54,1.81-3.13l3.89-2.24l-4.22-2.41c-0.73-0.4-0.73-1.71,0-2.93c0.36-0.63,0.82-1.09,1.29-1.35
			c0.46-0.26,0.92-0.33,1.28-0.13l4.22,2.41l4.19-7.29C200.26,142.48,200.72,141.98,201.18,141.72L201.18,141.72z M201.18,141.72"/>
		<path class="st6" d="M188.92,152.37l-3.56-2.08c-0.43-0.23-0.59-0.82-0.53-1.52l3.56,2.08
			C188.32,151.54,188.49,152.1,188.92,152.37"/>
		<path class="st6" d="M188.39,150.85l-3.56-2.08c0-0.1,0.03-0.16,0.03-0.26l3.56,2.08C188.42,150.69,188.42,150.75,188.39,150.85
			 M188.45,150.59l-3.56-2.08c0-0.07,0.03-0.13,0.07-0.2l3.56,2.08C188.49,150.46,188.45,150.52,188.45,150.59"/>
		<path class="st6" d="M188.49,150.39l-3.56-2.08c0.03-0.07,0.03-0.13,0.07-0.2l3.56,2.08
			C188.52,150.26,188.52,150.32,188.49,150.39"/>
		<path class="st6" d="M188.55,150.19l-3.56-2.08c0.03-0.07,0.03-0.1,0.07-0.16l3.56,2.08
			C188.59,150.09,188.55,150.13,188.55,150.19"/>
		<path class="st6" d="M188.62,150.03l-3.56-2.08c0.03-0.07,0.03-0.1,0.07-0.16l3.56,2.08
			C188.65,149.93,188.62,149.96,188.62,150.03"/>
		<path class="st6" d="M188.69,149.86l-3.56-2.08c0.03-0.07,0.03-0.1,0.07-0.17l3.56,2.08
			C188.72,149.76,188.69,149.83,188.69,149.86"/>
		<path class="st6" d="M188.75,149.7l-3.56-2.08c0.03-0.07,0.07-0.1,0.07-0.16l3.56,2.08C188.79,149.6,188.79,149.66,188.75,149.7"
			/>
		<path class="st6" d="M188.82,149.57l-3.53-2.08c0.03-0.03,0.07-0.1,0.07-0.13v-0.03l3.56,2.08v0.03
			C188.88,149.47,188.85,149.5,188.82,149.57"/>
		<path class="st6" d="M188.92,149.4l-3.56-2.08c0.03-0.07,0.07-0.1,0.1-0.17l3.56,2.08C188.98,149.3,188.95,149.34,188.92,149.4
			 M189.01,149.24l-3.56-2.08c0.03-0.07,0.07-0.1,0.1-0.16l3.56,2.08C189.08,149.14,189.05,149.2,189.01,149.24"/>
		<path class="st6" d="M189.11,149.1l-3.56-2.08c0.03-0.06,0.07-0.1,0.13-0.16l3.56,2.08C189.18,148.97,189.15,149.04,189.11,149.1"
			/>
		<path class="st6" d="M189.25,148.94l-3.56-2.08c0.03-0.07,0.1-0.13,0.13-0.16l3.56,2.08
			C189.31,148.81,189.28,148.87,189.25,148.94 M189.38,148.74l-3.56-2.08l0.2-0.2l3.56,2.08L189.38,148.74"/>
		<path class="st6" d="M189.58,148.54l-3.56-2.08c0.2-0.2,0.4-0.36,0.59-0.46c0.1-0.03,0.17-0.1,0.26-0.13l3.56,2.08
			c-0.1,0.03-0.16,0.07-0.26,0.13C189.97,148.18,189.77,148.35,189.58,148.54 M190.43,147.95l-3.56-2.08
			c0.07-0.03,0.13-0.07,0.2-0.07l3.56,2.08C190.57,147.88,190.5,147.92,190.43,147.95 M190.66,147.88l-3.56-2.08
			c0.07,0,0.1-0.03,0.16-0.03l3.56,2.08C190.76,147.85,190.7,147.85,190.66,147.88"/>
		<path class="st6" d="M190.8,147.85l-3.56-2.08h0.13l3.56,2.08C190.9,147.82,190.86,147.82,190.8,147.85 M190.93,147.82l-3.56-2.08
			h0.13l3.56,2.08H190.93"/>
		<polyline class="st6" points="191.06,147.82 187.5,145.74 187.6,145.74 191.16,147.82 191.06,147.82 		"/>
		<path class="st6" d="M191.16,147.85l-3.56-2.08c0.03,0,0.07,0,0.1,0.03l3.56,2.08C191.23,147.85,191.19,147.85,191.16,147.85
			 M191.26,147.85l-3.56-2.08c0.03,0,0.07,0.03,0.1,0.03l3.56,2.08C191.32,147.88,191.29,147.88,191.26,147.85"/>
		<path class="st6" d="M191.36,147.88l-3.56-2.08c0.03,0,0.07,0.03,0.1,0.03l3.56,2.08C191.42,147.92,191.39,147.92,191.36,147.88
			 M191.46,147.95l-3.56-2.08L191.46,147.95"/>
	</g>
	<g id="data_cube_10_">
		<g>
			<linearGradient id="SVGID_5_" gradientUnits="userSpaceOnUse" x1="243.4538" y1="168.7544" x2="234.8756" y2="172.6403">
				<stop  offset="5.025130e-03" style="stop-color:#5298EF"/>
				<stop  offset="1" style="stop-color:#73B0F1;stop-opacity:0"/>
			</linearGradient>
			<polygon class="st9" points="230.91,171.24 239.09,166.92 247.03,170.52 238.73,174.71 			"/>
			<linearGradient id="SVGID_6_" gradientUnits="userSpaceOnUse" x1="238.899" y1="163.2599" x2="254.8011" y2="163.2599">
				<stop  offset="0" style="stop-color:#6DACEF"/>
				<stop  offset="1" style="stop-color:#97C9FE"/>
			</linearGradient>
			<polygon class="st10" points="254.8,160.85 247.05,170.54 238.98,167.01 238.9,155.98 254.8,157.92 			"/>
			<linearGradient id="SVGID_7_" gradientUnits="userSpaceOnUse" x1="246.9822" y1="166.6474" x2="254.5723" y2="160.3365">
				<stop  offset="3.378380e-03" style="stop-color:#8EBEF4"/>
				<stop  offset="1" style="stop-color:#B4D8FA"/>
			</linearGradient>
			<polygon class="st11" points="247.05,170.54 247.05,160.03 254.48,156.18 254.98,156.22 255,166.54 			"/>
			<linearGradient id="SVGID_8_" gradientUnits="userSpaceOnUse" x1="238.8662" y1="156.115" x2="254.9843" y2="156.115">
				<stop  offset="0" style="stop-color:#97C3F4"/>
				<stop  offset="1" style="stop-color:#E8F1FA"/>
			</linearGradient>
			<polygon class="st12" points="238.87,155.96 246.74,152 254.98,156.22 247.05,160.23 			"/>
		</g>
		
			<linearGradient id="SVGID_9_" gradientUnits="userSpaceOnUse" x1="-1346.7712" y1="571.2291" x2="-1346.7712" y2="590.7087" gradientTransform="matrix(0.5 0.866 -0.866 0.5 1402.085 1041.4088)">
			<stop  offset="3.378380e-03" style="stop-color:#75B2FF"/>
			<stop  offset="1" style="stop-color:#75B2FF;stop-opacity:0"/>
		</linearGradient>
		<path class="st13" d="M215.42,171.46L215.42,171.46c-0.19-0.34-0.08-0.77,0.26-0.96l19.56-11.29c0.34-0.19,0.77-0.08,0.96,0.26
			l0,0c0.19,0.34,0.08,0.77-0.26,0.96l-19.56,11.29C216.05,171.91,215.61,171.79,215.42,171.46z"/>
		
			<linearGradient id="SVGID_10_" gradientUnits="userSpaceOnUse" x1="-1394.6305" y1="327.7075" x2="-1394.6305" y2="336.1294" gradientTransform="matrix(0.4772 0.8265 -0.7164 0.4136 1135.6169 1183.2845)">
			<stop  offset="3.378380e-03" style="stop-color:#75B2FF"/>
			<stop  offset="1" style="stop-color:#75B2FF;stop-opacity:0"/>
		</linearGradient>
		<path class="st14" d="M228.77,170.16l-0.09-0.16c-0.16-0.28-0.07-0.64,0.21-0.8l6.33-3.87c0.28-0.16,0.64-0.07,0.8,0.21l0.09,0.16
			c0.16,0.28,0.07,0.64-0.21,0.8l-6.33,3.87C229.29,170.53,228.93,170.44,228.77,170.16z"/>
	</g>
</g>
</svg>
