<?xml version="1.0" encoding="utf-8"?>
<svg version="1.1" xmlns:xlink="http://www.w3.org/1999/xlink" width="10px" height="13px" xmlns="http://www.w3.org/2000/svg">
  <g transform="matrix(1 0 0 1 -77 -426 )">
    <path d="M 9.93359375 9.398763020833332  C 9.977864583333334 9.824761284722221  10 10.27756076388889  10 10.757161458333334  C 10 11.372178819444445  9.837239583333334 11.899739583333334  9.51171875 12.33984375  C 9.186197916666668 12.779947916666666  8.794270833333334 13  8.3359375 13  L 1.6640625 13  C 1.2057291666666667 13  0.8138020833333335 12.779947916666666  0.48828125000000006 12.33984375  C 0.1627604166666667 11.899739583333334  0 11.372178819444445  0 10.757161458333334  C 0 10.27756076388889  0.02213541666666672 9.824761284722221  0.06640625000000006 9.398763020833332  C 0.1106770833333334 8.972764756944443  0.19270833333333337 8.5439453125  0.31250000000000006 8.1123046875  C 0.4322916666666668 7.6806640625  0.5846354166666667 7.311089409722222  0.76953125 7.003580729166668  C 0.9544270833333335 6.69607204861111  1.19921875 6.444986979166666  1.50390625 6.250325520833334  C 1.80859375 6.0556640625  2.158854166666667 5.958333333333334  2.5546875 5.958333333333334  C 3.236979166666667 6.680555555555555  4.052083333333334 7.041666666666668  5 7.041666666666668  C 5.947916666666668 7.041666666666668  6.763020833333334 6.680555555555555  7.4453125 5.958333333333334  C 7.841145833333334 5.958333333333334  8.19140625 6.0556640625  8.49609375 6.250325520833334  C 8.80078125 6.444986979166666  9.045572916666668 6.69607204861111  9.23046875 7.003580729166668  C 9.415364583333334 7.311089409722222  9.567708333333334 7.6806640625  9.6875 8.1123046875  C 9.807291666666668 8.5439453125  9.889322916666668 8.972764756944443  9.93359375 9.398763020833332  Z M 7.12109375 0.9521484375  C 7.70703125 1.5869140625  8 2.352864583333334  8 3.25  C 8 4.147135416666666  7.70703125 4.9130859375  7.12109375 5.5478515625  C 6.53515625 6.1826171875  5.828125 6.5  5 6.5  C 4.171875 6.5  3.46484375 6.1826171875  2.87890625 5.5478515625  C 2.29296875 4.9130859375  2 4.147135416666666  2 3.25  C 2 2.352864583333334  2.29296875 1.5869140625  2.87890625 0.9521484375  C 3.46484375 0.3173828125  4.171875 0  5 0  C 5.828125 0  6.53515625 0.3173828125  7.12109375 0.9521484375  Z " fill-rule="nonzero" fill="#ffffff" stroke="none" transform="matrix(1 0 0 1 77 426 )" />
  </g>
</svg>