<?xml version="1.0" encoding="utf-8"?>
<svg version="1.1" xmlns:xlink="http://www.w3.org/1999/xlink" width="15px" height="13px" xmlns="http://www.w3.org/2000/svg">
  <g transform="matrix(1 0 0 1 -139 -148 )">
    <path d="M 2.5346534653465347 11.901650165016502  L 3.5940594059405937 11.901650165016502  L 4.4950495049504955 11.12079207920792  L 2.168316831683168 9.104290429042905  L 1.2673267326732673 9.885148514851485  L 1.2673267326732673 10.803300330033004  L 2.5346534653465347 10.803300330033004  L 2.5346534653465347 11.901650165016502  Z M 8.702970297029703 4.084488448844884  C 8.74917491749175 4.044444444444444  8.772277227722773 3.9958195819581954  8.772277227722773 3.9386138613861394  C 8.772277227722773 3.8127612761276124  8.6996699669967 3.7498349834983493  8.554455445544553 3.7498349834983493  C 8.48844884488449 3.7498349834983493  8.432343234323433 3.7698569856985693  8.386138613861386 3.8099009900990106  L 3.01980198019802 8.460726072607262  C 2.9735973597359737 8.500770077007699  2.9504950495049505 8.549394939493947  2.9504950495049505 8.606600660066007  C 2.9504950495049505 8.73245324532453  3.0231023102310237 8.795379537953796  3.1683168316831685 8.795379537953796  C 3.234323432343235 8.795379537953796  3.290429042904291 8.775357535753574  3.3366336633663365 8.735313531353135  L 8.702970297029703 4.084488448844884  Z M 0 9.430363036303632  L 8.237623762376238 2.291089108910892  L 12.356435643564355 5.86072607260726  L 4.118811881188119 13  L 0 13  L 0 9.430363036303632  Z M 14.633663366336634 2.3339933993399335  C 14.877887788778878 2.5570957095709574  15 2.8173817381738173  15 3.114851485148515  C 15 3.418041804180418  14.877887788778878 3.6754675467546742  14.633663366336634 3.887128712871288  L 12.99009900990099 5.311551155115511  L 8.871287128712872 1.7419141914191425  L 10.514851485148514 0.3260726072607254  C 10.752475247524751 0.1086908690869075  11.049504950495049 0  11.405940594059405 0  C 11.755775577557758 0  12.056105610561058 0.1086908690869075  12.306930693069308 0.3260726072607254  L 14.633663366336634 2.3339933993399335  Z " fill-rule="nonzero" fill="#ffffff" stroke="none" transform="matrix(1 0 0 1 139 148 )" />
  </g>
</svg>