<?xml version="1.0" encoding="utf-8"?>
<svg version="1.1" xmlns:xlink="http://www.w3.org/1999/xlink" width="15px" height="20px" xmlns="http://www.w3.org/2000/svg">
  <defs>
    <linearGradient gradientUnits="userSpaceOnUse" x1="13.027582417582451" y1="-0.02799999999993226" x2="0.6059340659340678" y2="-0.19199999999953546" id="LinearGradient91">
      <stop id="Stop92" stop-color="#ffffff" offset="0" />
      <stop id="Stop93" stop-color="#00e0ff" stop-opacity="0.996078431372549" offset="1" />
    </linearGradient>
  </defs>
  <g transform="matrix(1 0 0 1 -80 -250 )">
    <path d="M 13.397755610972569 4.777644230769232  C 13.651288445552787 5.166266025641024  13.802992518703242 5.625  13.85286783042394 6.153846153846154  C 14.002493765586035 7.612179487179487  13.458021612635081 8.645833333333332  12.219451371571072 9.254807692307692  C 13.192019950124688 9.479166666666664  13.919368246051539 9.891826923076923  14.401496259351621 10.492788461538463  C 14.883624272651705 11.09375  15.070656691604324 11.951121794871792  14.962593516209477 13.064903846153847  C 14.90440565253533 13.633814102564102  14.76932668329177 14.134615384615383  14.557356608478804 14.567307692307692  C 14.345386533665835 15  14.077306733167083 15.356570512820513  13.753117206982544 15.637019230769232  C 13.428927680798004 15.917467948717947  13.025768911055696 16.15184294871795  12.54364089775561 16.34014423076923  C 12.061512884455528 16.528445512820515  11.556525353283458 16.666666666666668  11.028678304239401 16.754807692307693  C 10.500831255195347 16.84294871794872  9.89609310058188 16.903044871794872  9.214463840399002 16.935096153846153  L 9.214463840399002 20  L 7.29426433915212 20  L 7.29426433915212 16.983173076923077  C 6.629260182876144 16.983173076923077  6.12219451371571 16.979166666666668  5.7730673316708225 16.971153846153847  L 5.7730673316708225 20  L 3.85286783042394 20  L 3.85286783042394 16.935096153846153  C 3.7032418952618453 16.935096153846153  3.478802992518703 16.93309294871795  3.179551122194514 16.929086538461537  C 2.880299251870324 16.925080128205128  2.6517040731504573 16.923076923076923  2.493765586034913 16.923076923076923  L 0 16.923076923076923  L 0.38653366583541143 14.723557692307692  L 1.7705735660847879 14.723557692307692  C 2.1862011637572736 14.723557692307692  2.427265170407315 14.519230769230768  2.493765586034913 14.110576923076923  L 2.493765586034913 9.278846153846153  L 2.693266832917706 9.278846153846153  C 2.6433915211970076 9.270833333333332  2.57689110556941 9.266826923076923  2.493765586034913 9.266826923076923  L 2.493765586034913 5.817307692307692  C 2.3857024106400666 5.272435897435896  2.0157938487115548 5  1.3840399002493766 5  L 0 5  L 0 3.028846153846154  L 2.6433915211970076 3.0408653846153855  C 3.175394846217789 3.0408653846153855  3.5785536159600997 3.0368589743589736  3.85286783042394 3.028846153846154  L 3.85286783042394 0  L 5.7730673316708225 0  L 5.7730673316708225 2.96875  C 6.4546965918537 2.952724358974357  6.961762261014131 2.9447115384615374  7.29426433915212 2.9447115384615374  L 7.29426433915212 0  L 9.214463840399002 0  L 9.214463840399002 3.028846153846154  C 9.87115544472153 3.0849358974358965  10.45303408146301 3.1750801282051255  10.960099750623442 3.299278846153846  C 11.467165419783875 3.423477564102564  11.936824605153785 3.603766025641024  12.369077306733166 3.8401442307692313  C 12.801330008312553 4.076522435897434  13.144222776392352 4.389022435897434  13.397755610972569 4.777644230769232  Z M 11.053615960099751 13.317307692307692  C 11.132585203657523 13.13301282051282  11.17206982543641 12.928685897435894  11.17206982543641 12.704326923076923  C 11.17206982543641 12.415865384615383  11.109725685785538 12.159455128205128  10.98503740648379 11.935096153846153  C 10.860349127182046 11.710737179487179  10.706566916043226 11.526442307692308  10.523690773067331 11.382211538461537  C 10.340814630091439 11.237980769230768  10.10182876142976 11.115785256410255  9.806733167082294 11.015625  C 9.51163757273483 10.915464743589745  9.239401496259353 10.841346153846153  8.99002493765586 10.793269230769232  C 8.74064837905237 10.745192307692308  8.43308395677473 10.709134615384617  8.067331670822941 10.685096153846153  C 7.701579384871156 10.661057692307692  7.414796342477142 10.649038461538463  7.206982543640898 10.649038461538463  C 6.999168744804655 10.649038461538463  6.7310889443059025 10.653044871794872  6.402743142144638 10.661057692307692  C 6.074397339983376 10.669070512820511  5.876974231088945 10.673076923076923  5.8104738154613464 10.673076923076923  L 5.8104738154613464 14.735576923076923  C 5.876974231088945 14.735576923076923  6.030756442227765 14.737580128205128  6.271820448877805 14.741586538461537  C 6.512884455527848 14.745592948717947  6.71238570241064 14.747596153846153  6.870324189526184 14.747596153846153  C 7.02826267664173 14.747596153846153  7.248545303408147 14.741586538461537  7.531172069825437 14.729567307692308  C 7.813798836242727 14.717548076923077  8.056940980881132 14.701522435897436  8.260598503740649 14.681490384615383  C 8.464256026600166 14.661458333333332  8.701163757273484 14.627403846153847  8.971321695760597 14.579326923076923  C 9.241479634247716 14.53125  9.472152950955945 14.475160256410255  9.663341645885287 14.411057692307692  C 9.85453034081463 14.346955128205128  10.051953449709062 14.262820512820513  10.25561097256858 14.158653846153847  C 10.459268495428098 14.054487179487179  10.62344139650873 13.934294871794872  10.748129675810473 13.798076923076923  C 10.87281795511222 13.661858974358974  10.97464671654198 13.501602564102564  11.053615960099751 13.317307692307692  Z M 10.174563591022444 7.596153846153846  C 10.24937655860349 7.411858974358974  10.286783042394015 7.207532051282048  10.286783042394015 6.983173076923077  C 10.286783042394015 6.71875  10.234829592684955 6.484375  10.130922693266834 6.280048076923077  C 10.027015793848712 6.075721153846154  9.900249376558603 5.907451923076923  9.750623441396508 5.775240384615385  C 9.600997506234414 5.643028846153846  9.401496259351621 5.530849358974357  9.15211970074813 5.438701923076923  C 8.902743142144638 5.346554487179487  8.674147963424772 5.280448717948718  8.46633416458853 5.240384615384615  C 8.258520365752286 5.200320512820511  8.002909393183709 5.168269230769232  7.699501246882793 5.144230769230768  C 7.396093100581879 5.120192307692308  7.155029093931837 5.110176282051279  6.976309226932669 5.114182692307692  C 6.7975893599335 5.118189102564101  6.5731504571903585 5.122195512820511  6.302992518703242 5.126201923076923  C 6.032834580216127 5.130208333333332  5.868661679135496 5.132211538461537  5.8104738154613464 5.132211538461537  L 5.8104738154613464 8.822115384615385  C 5.852036575228595 8.822115384615385  5.995428096425603 8.824118589743591  6.240648379052368 8.828125  C 6.485868661679136 8.832131410256409  6.679135494596842 8.832131410256409  6.820448877805487 8.828125  C 6.961762261014131 8.824118589743591  7.169576059850375 8.816105769230768  7.443890274314215 8.804086538461537  C 7.7182044887780545 8.792067307692308  7.946799667497922 8.770032051282051  8.129675810473815 8.737980769230768  C 8.31255195344971 8.705929487179487  8.526600166251038 8.661858974358974  8.771820448877806 8.605769230769232  C 9.017040731504574 8.549679487179487  9.21862011637573 8.475560897435896  9.37655860349127 8.383413461538463  C 9.534497090606818 8.291266025641024  9.688279301745636 8.183092948717947  9.83790523690773 8.058894230769232  C 9.987531172069826 7.934695512820513  10.099750623441397 7.780448717948718  10.174563591022444 7.596153846153846  Z " fill-rule="nonzero" fill="url(#LinearGradient91)" stroke="none" transform="matrix(1 0 0 1 80 250 )" />
  </g>
</svg>