<?xml version="1.0" encoding="utf-8"?>
<svg version="1.1" xmlns:xlink="http://www.w3.org/1999/xlink" width="3px" height="3px" xmlns="http://www.w3.org/2000/svg">
  <g transform="matrix(1 0 0 1 -370 -483 )">
    <path d="M 2.969939879759519 0.3092783505154638  C 2.9899799599198396 0.3436426116838479  3 0.38316151202749105  3 0.4278350515463919  C 3 0.47250859106529175  2.9899799599198396 0.5120274914089342  2.969939879759519 0.5463917525773196  L 1.5691382765531061 2.9484536082474224  C 1.5490981963927857 2.9828178694158067  1.526052104208417 3  1.5 3  C 1.4739478957915835 3  1.4509018036072145 2.9828178694158067  1.4308617234468937 2.9484536082474224  L 0.03006012024048096 0.5463917525773196  C 0.01002004008016035 0.5120274914089342  0 0.47250859106529175  0 0.4278350515463919  C 0 0.38316151202749105  0.01002004008016035 0.3436426116838479  0.03006012024048096 0.3092783505154638  L 0.18036072144288576 0.05154639175257747  C 0.20040080160320647 0.017182130584192046  0.22344689378757518 0  0.24949899799599198 0  C 0.27555110220440887 0  0.2985971943887776 0.017182130584192046  0.3186372745490982 0.05154639175257747  L 1.5 2.0773195876288657  L 2.681362725450902 0.05154639175257747  C 2.7014028056112225 0.017182130584192046  2.7244488977955914 0  2.750501002004008 0  C 2.7765531062124253 0  2.799599198396794 0.017182130584192046  2.8196392785571143 0.05154639175257747  L 2.969939879759519 0.3092783505154638  Z " fill-rule="nonzero" fill="#63a103" stroke="none" transform="matrix(1 0 0 1 370 483 )" />
  </g>
</svg>