
<svg xmlns="http://www.w3.org/2000/svg" version="1.1" xmlns:xlink="http://www.w3.org/1999/xlink" preserveAspectRatio="none" x="0px" y="0px" width="1024px" height="1024px" viewBox="0 0 1024 1024">
<defs>
<g id="Layer0_0_MEMBER_0_MEMBER_0_FILL">
<path fill="#FD81B7" stroke="none" d="
M 349.7 247.05
L 349.2 246.3 339.25 252.3 335.95 240.1 327.5 262.15 322.3 262.15 318.15 267.15 310.45 264.3 306.6 271.15 295.8 253.35 291.7 280.25 285.85 277.75 282.1 287.05 276.35 279.95 271.05 294.85 271.9 295.15 276.7 281.8 282.35 288.85 286.35 278.9 292.45 281.5 296.35 255.95 306.65 272.95 310.85 265.4 318.45 268.25 322.75 263.05 328.1 263.05 335.8 243.05 338.7 253.7 349.7 247.05 Z"/>
</g>

<g id="Layer0_0_MEMBER_1_MEMBER_0_FILL">
<path fill="#000000" fill-opacity="0.09803921568627451" stroke="none" d="
M 30.1 8.35
Q 30.05 5.1 25.65 2.55 21.25 0 15 0 8.8 0 4.4 2.55 0 5.1 0 8.35 0.05 11.6 4.45 14.15 8.9 16.7 15.1 16.7 21.3 16.7 25.7 14.15 30.1 11.6 30.1 8.35 Z"/>
</g>

<g id="Layer0_0_MEMBER_1_MEMBER_1_MEMBER_0_FILL">
<path fill="#FED831" stroke="none" d="
M 345.25 314.15
L 345.2 314.55 344.9 315.5 344.4 316.45 344.3 316.5 343.9 317.05 343.85 317.15 342.6 318.25 340.15 319.6 336.5 320.65 334.65 320.85
Q 334.4 320.9 333.8 320.9
L 332.6 320.95 330.85 320.85 327.7 320.3 327.3 320.15
Q 326.65 320 325.95 319.7
L 325.3 319.45 324.1 318.85
Q 320.4677734375 316.690234375 320.4 313.8
L 320.4 317.15
Q 320.4 320.2 324.1 322.3
L 325.85 323.15 325.95 323.15
Q 326.55 323.45 327.25 323.6
L 329.9 324.2 330.2 324.2 331.1 324.35 333.6 324.4 333.8 324.35
Q 334.4 324.35 334.65 324.3
L 335.1 324.3 336.5 324.1 336.6 324.05 337.65 323.85 338.95 323.5 339.15 323.4 340.5 322.9 342.15 322 343.3 321.1 343.9 320.5 344.3 320 344.35 319.9 344.65 319.45 344.85 319 345 318.75 345 318.7 345.1 318.3 345.2 318.05 345.2 318 345.25 317.6 345.25 314.15 Z"/>
</g>

<g id="Layer0_0_MEMBER_1_MEMBER_1_MEMBER_1_FILL">
<path fill="#FED764" stroke="none" d="
M 345.25 314.15
L 345.2 314.55 344.9 315.5 344.4 316.45 344.3 316.5 343.9 317.05 343.85 317.15 342.6 318.25 340.15 319.6 336.5 320.65 334.65 320.85
Q 334.4 320.9 333.8 320.9
L 332.6 320.95 330.85 320.85 327.7 320.3 327.3 320.15
Q 326.65 320 325.95 319.7
L 325.3 319.45 324.1 318.85
Q 320.4904296875 316.70390625 320.4 313.85
L 320.4 316
Q 320.5 318.95 324.1 321.1
L 325.85 321.95 325.95 321.95
Q 326.55 322.25 327.25 322.4
L 327.4 322.45 327.7 322.5 328.7 322.75 329.9 323 330.2 323 330.8 323.1 331.1 323.1 331.4 323.15 332 323.15 332.35 323.2 333.3 323.2 333.6 323.15 333.8 323.15
Q 334.4 323.15 334.65 323.1
L 335 323.1 335.1 323.05 336.5 322.85 336.6 322.85 337.65 322.65 338.8 322.3 338.95 322.3 339.15 322.2 340.5 321.65 341.65 321.1 342.55 320.5 343.3 319.9 343.35 319.85
Q 343.65 319.6 343.8 319.35
L 343.9 319.3 344.15 319 344.3 318.75 344.35 318.7 344.65 318.25 344.7 318.15 344.85 317.75 345 317.55 345 317.45 345.2 316.85 345.2 316.8 345.25 316.4 345.25 314.15 Z"/>
</g>

<g id="Layer0_0_MEMBER_1_MEMBER_1_MEMBER_2_FILL">
<path fill="#FD9D28" stroke="none" d="
M 345.25 314.15
L 345.2 314.55 344.9 315.5 344.4 316.45 344.3 316.5 343.9 317.05 343.85 317.15 342.6 318.25 340.15 319.6 336.5 320.65 334.65 320.85
Q 334.4 320.9 333.8 320.9
L 332.6 320.95 330.85 320.85 327.7 320.3 327.3 320.15
Q 326.65 320 325.95 319.7
L 325.3 319.45 324.1 318.85
Q 320.4904296875 316.70390625 320.4 313.85
L 320.4 316
Q 320.5 318.95 324.1 321.1
L 325.85 321.95 325.95 321.95
Q 326.55 322.25 327.25 322.4
L 327.4 322.45 327.7 322.5 328.7 322.75 329.9 323 330.2 323 330.8 323.1 331.1 323.1 331.4 323.15 332 323.15 332.35 323.2 333.3 323.2 333.6 323.15 333.8 323.15
Q 334.4 323.15 334.65 323.1
L 335 323.1 335.1 323.05 336.5 322.85 336.6 322.85 337.65 322.65 338.8 322.3 338.95 322.3 339.15 322.2 340.5 321.65 341.65 321.1 342.55 320.5 343.3 319.9 343.35 319.85
Q 343.65 319.6 343.8 319.35
L 343.9 319.3 344.15 319 344.3 318.75 344.35 318.7 344.65 318.25 344.7 318.15 344.85 317.75 345 317.55 345 317.45 345.2 316.85 345.2 316.8 345.25 316.4 345.25 314.15 Z"/>
</g>

<g id="Layer0_0_MEMBER_1_MEMBER_1_MEMBER_3_MEMBER_0_FILL">
<path fill="#F0B33C" stroke="none" d="
M 341.6 308.65
Q 337.95 306.55 332.8 306.55 327.65 306.55 324.05 308.65 320.4 310.75 320.4 313.75 320.45 316.7 324.1 318.85 327.75 320.95 332.9 320.95 338 320.95 341.65 318.85 345.3 316.7 345.25 313.75 345.25 310.75 341.6 308.65 Z"/>
</g>

<g id="Layer0_0_MEMBER_1_MEMBER_1_MEMBER_4_MEMBER_0_FILL">
<path fill="#FED764" stroke="none" d="
M 341.6 308.65
Q 337.95 306.55 332.8 306.55 327.65 306.55 324.05 308.65 320.4 310.75 320.4 313.75 320.45 316.7 324.1 318.85 327.75 320.95 332.9 320.95 338 320.95 341.65 318.85 345.3 316.7 345.25 313.75 345.25 310.75 341.6 308.65 Z"/>
</g>

<g id="Layer0_0_MEMBER_1_MEMBER_1_MEMBER_5_MEMBER_0_FILL">
<path fill="#FED831" stroke="none" d="
M 341.6 309.25
Q 337.95 307.15 332.8 307.15 327.65 307.15 324.05 309.25 320.4 311.35 320.4 314.05 320.45 316.7 324.1 318.85 327.75 320.95 332.9 320.95 338 320.95 341.65 318.85 345.3 316.7 345.25 314.05 345.25 311.35 341.6 309.25 Z"/>
</g>

<g id="Layer0_0_MEMBER_1_MEMBER_1_MEMBER_6_FILL">
<path fill="#FEEC99" stroke="none" d="
M 332.8 306.55
Q 327.65 306.55 324.05 308.65 320.2 310.9 320.45 313.7 320.7 311.2 324.05 309.25 327.65 307.15 332.8 307.15 337.95 307.15 341.6 309.25 345 311.25 345.25 313.75 345.5 310.9 341.6 308.65 337.95 306.55 332.8 306.55 Z"/>
</g>

<g id="Layer0_0_MEMBER_1_MEMBER_1_MEMBER_7_MEMBER_0_FILL">
<path fill="#DC822E" stroke="none" d="
M 339.75 309.7
Q 336.85 308.05 332.8 308.05 328.75 308.05 325.85 309.7 323 311.4 323 313.75 323 316.1 325.9 317.75 328.8 319.45 332.85 319.45 336.95 319.45 339.8 317.75 342.7 316.1 342.65 313.75 342.65 311.4 339.75 309.7 Z"/>
</g>

<g id="Layer0_0_MEMBER_1_MEMBER_1_MEMBER_8_MEMBER_0_FILL">
<path fill="#FDB02B" stroke="none" d="
M 339.5 310.1
Q 336.75 308.45 332.8 308.45 328.9 308.45 326.15 310.1 323.4 311.75 323.4 314.1 323.4 316.45 326.2 318.1 329 319.75 332.9 319.75 336.8 319.75 339.55 318.1 342.3 316.45 342.3 314.1 342.25 311.75 339.5 310.1 Z"/>
</g>

<g id="Layer0_0_MEMBER_1_MEMBER_1_MEMBER_9_MEMBER_0_FILL">
<path fill="#FED764" stroke="none" d="
M 332.45 311.05
Q 330.95 311.9 332.35 313.8 333.35 315.1 332.3 315.7 330.9 316.5 329.25 315.5 328.1 314.8 327.85 314
L 326.6 314.35
Q 326.75 315.1 328.1 315.95
L 326.7 316.75 327.6 317.25 329 316.4
Q 330.2 316.9 331.55 316.85 332.75 316.85 333.6 316.35 335.3 315.35 333.95 313.6 333.4 312.8 333.4 312.4 333.3 311.95 333.85 311.65 335.1 311 336.5 311.85 337.55 312.45 337.8 313.15
L 339.05 312.8
Q 338.8 312.1 337.75 311.45
L 339.1 310.65 338.2 310.15 336.8 310.95
Q 335.7 310.5 334.5 310.55 333.3 310.55 332.45 311.05 Z"/>
</g>

<g id="Layer0_0_MEMBER_1_MEMBER_2_MEMBER_0_FILL">
<path fill="#FED831" stroke="none" d="
M 347.9 308
L 347.8 308.75 347.5 309.75 347 310.65 346.95 310.75 346.5 311.25 346.45 311.35 345.2 312.45 344.75 312.75 343.1 313.65 341.4 314.3 337.7 315.05 337.25 315.05 336.45 315.15 334.65 315.15 332.8 315 329.9 314.4 328.55 313.95 326.7 313.05
Q 323.0607421875 310.9634765625 323.05 308.05
L 323 311.4
Q 323 314.4 326.7 316.5
L 327.6 317 328.5 317.35 328.55 317.4 329.9 317.85 330 317.9 333.75 318.55 336.4 318.6 337.6 318.5 337.7 318.5 339.1 318.3 339.2 318.3 340.75 317.95 341.55 317.7 341.75 317.6 343.1 317.1 345.55 315.65 345.9 315.3 346 315.25 346.45 314.8 346.5 314.7 346.9 314.2 347 314.1 347.6 313 347.6 312.9 347.8 312.25 347.8 312.2 347.85 311.8 347.9 308 Z"/>
</g>

<g id="Layer0_0_MEMBER_1_MEMBER_2_MEMBER_1_FILL">
<path fill="#FED764" stroke="none" d="
M 347.85 308.35
L 347.8 308.75 347.5 309.75 346.95 310.75 346.5 311.25 346.45 311.35 345.2 312.45 343.1 313.65 341.4 314.3 337.7 315.05 337.25 315.05 336.45 315.15 334.65 315.15 332.8 315 329.9 314.4 328.55 313.95 326.7 313.05
Q 323.0619140625 310.9642578125 323.05 308.05
L 323 310.2
Q 323.1 313.25 326.7 315.3
L 328.5 316.15 328.55 316.2 329.9 316.65 330 316.65 331.3 317 333.75 317.35 336.4 317.4 337.25 317.3 337.7 317.3 339.1 317.1 339.2 317.1 341.4 316.55 341.55 316.5 341.75 316.4 342.75 316.05 344.25 315.3 345.55 314.4 345.9 314.1 346 314.05 346.45 313.6 346.5 313.5 346.9 313 347 312.9 347.25 312.45 347.3 312.4 347.6 311.75 347.6 311.7 347.7 311.3 347.8 311.05 347.8 311 347.85 310.6 347.85 308.35 Z"/>
</g>

<g id="Layer0_0_MEMBER_1_MEMBER_2_MEMBER_2_FILL">
<path fill="#FD9D28" stroke="none" d="
M 347.85 308.35
L 347.8 308.75 347.5 309.75 346.95 310.75 346.5 311.25 346.45 311.35 345.2 312.45 343.1 313.65 341.4 314.3 337.7 315.05 337.25 315.05 336.45 315.15 334.65 315.15 332.8 315 329.9 314.4 328.55 313.95 326.7 313.05
Q 323.0619140625 310.9642578125 323.05 308.05
L 323 310.2
Q 323.1 313.25 326.7 315.3
L 328.5 316.15 328.55 316.2 329.9 316.65 330 316.65 331.3 317 333.75 317.35 336.4 317.4 337.25 317.3 337.7 317.3 339.1 317.1 339.2 317.1 341.4 316.55 341.55 316.5 341.75 316.4 342.75 316.05 344.25 315.3 345.55 314.4 345.9 314.1 346 314.05 346.45 313.6 346.5 313.5 346.9 313 347 312.9 347.25 312.45 347.3 312.4 347.6 311.75 347.6 311.7 347.7 311.3 347.8 311.05 347.8 311 347.85 310.6 347.85 308.35 Z"/>
</g>

<g id="Layer0_0_MEMBER_1_MEMBER_2_MEMBER_3_MEMBER_0_FILL">
<path fill="#F0B33C" stroke="none" d="
M 344.2 302.85
Q 340.55 300.75 335.45 300.75 330.3 300.75 326.65 302.85 323 305 323.05 307.95 323.05 310.95 326.7 313.05 330.35 315.15 335.5 315.15 340.65 315.15 344.25 313.05 347.9 310.95 347.9 307.95 347.85 305 344.2 302.85 Z"/>
</g>

<g id="Layer0_0_MEMBER_1_MEMBER_2_MEMBER_4_MEMBER_0_FILL">
<path fill="#FED764" stroke="none" d="
M 344.2 302.85
Q 340.55 300.75 335.45 300.75 330.3 300.75 326.65 302.85 323 305 323.05 307.95 323.05 310.95 326.7 313.05 330.35 315.15 335.5 315.15 340.65 315.15 344.25 313.05 347.9 310.95 347.9 307.95 347.85 305 344.2 302.85 Z"/>
</g>

<g id="Layer0_0_MEMBER_1_MEMBER_2_MEMBER_5_MEMBER_0_FILL">
<path fill="#FED831" stroke="none" d="
M 344.2 303.45
Q 340.55 301.35 335.45 301.35 330.3 301.35 326.65 303.5 323 305.6 323 308.3 323.05 310.95 326.7 313.05 330.35 315.15 335.5 315.15 340.65 315.15 344.25 313.05 347.9 310.95 347.9 308.25 347.85 305.6 344.2 303.45 Z"/>
</g>

<g id="Layer0_0_MEMBER_1_MEMBER_2_MEMBER_6_FILL">
<path fill="#FEEC99" stroke="none" d="
M 335.45 300.75
Q 330.3 300.75 326.65 302.85 322.8 305.1 323.05 307.95 323.3 305.4 326.65 303.5 330.3 301.35 335.45 301.35 340.55 301.35 344.2 303.45 347.6 305.45 347.85 308 348.1 305.1 344.2 302.85 340.55 300.75 335.45 300.75 Z"/>
</g>

<g id="Layer0_0_MEMBER_1_MEMBER_2_MEMBER_7_MEMBER_0_FILL">
<path fill="#DC822E" stroke="none" d="
M 342.35 303.95
Q 339.45 302.25 335.4 302.25 331.35 302.25 328.5 303.95 325.6 305.6 325.6 307.95 325.6 310.3 328.5 312 331.4 313.65 335.45 313.65 339.55 313.65 342.4 312 345.3 310.3 345.25 307.95 345.25 305.6 342.35 303.95 Z"/>
</g>

<g id="Layer0_0_MEMBER_1_MEMBER_2_MEMBER_8_MEMBER_0_FILL">
<path fill="#FDB02B" stroke="none" d="
M 342.1 304.3
Q 339.35 302.65 335.45 302.65 331.55 302.65 328.75 304.3 326 305.95 326 308.3 326.05 310.65 328.8 312.3 331.6 313.95 335.5 313.95 339.4 313.95 342.15 312.3 344.9 310.65 344.9 308.3 344.85 305.95 342.1 304.3 Z"/>
</g>

<g id="Layer0_0_MEMBER_1_MEMBER_2_MEMBER_9_MEMBER_0_FILL">
<path fill="#FED764" stroke="none" d="
M 337.1 304.75
Q 335.9 304.8 335.05 305.3 334.2 305.8 334.25 306.5 334.25 307.05 335 308 335.95 309.3 334.9 309.9 333.5 310.7 331.85 309.7 330.7 309 330.45 308.2
L 329.2 308.55
Q 329.35 309.4 330.7 310.15
L 329.3 310.95 330.2 311.45 331.65 310.65
Q 332.85 311.15 334.15 311.1 335.35 311.05 336.25 310.55 337.9 309.6 336.6 307.8 336.05 307 336 306.65 335.9 306.2 336.45 305.9 337.65 305.15 339.15 306.05 340.15 306.65 340.4 307.35
L 341.65 307
Q 341.35 306.25 340.35 305.65
L 341.7 304.9 340.85 304.35 339.45 305.2
Q 338.3 304.75 337.1 304.75 Z"/>
</g>

<g id="Layer0_0_MEMBER_1_MEMBER_3_MEMBER_0_FILL">
<path fill="#FED831" stroke="none" d="
M 344.4 305.75
L 344.35 305.8 343.9 306.35 342.6 307.55 340.5 308.7 337.7 309.7 337 309.85 334.65 310.15
Q 334.4 310.2 333.85 310.2
L 333.3 310.25 329.65 310 327.7 309.6 327.3 309.45
Q 326.65 309.3 325.95 309
L 324.1 308.15
Q 320.4677734375 305.990234375 320.4 303.1
L 320.4 306.45
Q 320.4 309.4 324.1 311.6
L 325.9 312.45 325.95 312.45
Q 326.7 312.8 327.3 312.9
L 327.4 312.95 327.7 313.05 328.5 313.2 329 313.35 329.9 313.5 330.2 313.5 330.85 313.6 331.1 313.6 331.4 313.65 332.05 313.65 332.35 313.7 333.6 313.7 333.8 313.65
Q 334.4 313.65 334.65 313.6
L 335.1 313.6 336.5 313.4 336.6 313.35 337 313.3 338.8 312.8 338.95 312.8 339.15 312.7 340.5 312.2 342.55 311 343.3 310.4 343.4 310.35 343.85 309.9 343.9 309.8 344.15 309.5 344.3 309.25 344.4 309.2 345 308.05 345 308 345.1 307.6 345.2 307.35 345.2 307.3 345.25 306.9 345.25 303.45 345.2 303.85 344.9 304.8 344.4 305.75 Z"/>
</g>

<g id="Layer0_0_MEMBER_1_MEMBER_3_MEMBER_1_FILL">
<path fill="#FED764" stroke="none" d="
M 345.25 303.45
L 345.2 303.85 344.9 304.8 344.4 305.75 344.35 305.8 343.3 306.95 342.6 307.55 341.65 308.15 340.5 308.7 337.7 309.7 337 309.85 334.65 310.15
Q 334.4 310.2 333.85 310.2
L 333.3 310.25 329.65 310 327.7 309.6 327.3 309.45
Q 326.65 309.3 325.95 309
L 324.1 308.15
Q 320.4904296875 306.00390625 320.4 303.15
L 320.4 305.3
Q 320.5 308.3 324.1 310.35
L 325.3 311 325.9 311.25 325.95 311.25 327.3 311.7 327.4 311.75 329.65 312.25 329.9 312.25 330.85 312.4 331.1 312.4 331.4 312.45 332.05 312.45 332.35 312.5 335 312.4 335.1 312.35 336.5 312.15 336.6 312.15 337.65 311.95 339.15 311.5 340.5 310.95
Q 341.15 310.7 341.65 310.35
L 341.8 310.3 342.15 310.05
Q 342.5 309.8 342.55 309.75 342.7 309.7 342.9 309.5
L 343.3 309.2 343.9 308.6 344.15 308.3 344.3 308.05 344.4 308 344.7 307.45 344.85 307.05 345 306.85 345 306.75 345.2 306.15 345.2 306.1 345.25 305.7 345.25 303.45 Z"/>
</g>

<g id="Layer0_0_MEMBER_1_MEMBER_3_MEMBER_2_FILL">
<path fill="#FD9D28" stroke="none" d="
M 345.25 303.45
L 345.2 303.85 344.9 304.8 344.4 305.75 344.35 305.8 343.3 306.95 342.6 307.55 341.65 308.15 340.5 308.7 337.7 309.7 337 309.85 334.65 310.15
Q 334.4 310.2 333.85 310.2
L 333.3 310.25 329.65 310 327.7 309.6 327.3 309.45
Q 326.65 309.3 325.95 309
L 324.1 308.15
Q 320.4904296875 306.00390625 320.4 303.15
L 320.4 305.3
Q 320.5 308.3 324.1 310.35
L 325.3 311 325.9 311.25 325.95 311.25 327.3 311.7 327.4 311.75 329.65 312.25 329.9 312.25 330.85 312.4 331.1 312.4 331.4 312.45 332.05 312.45 332.35 312.5 335 312.4 335.1 312.35 336.5 312.15 336.6 312.15 337.65 311.95 339.15 311.5 340.5 310.95
Q 341.15 310.7 341.65 310.35
L 341.8 310.3 342.15 310.05
Q 342.5 309.8 342.55 309.75 342.7 309.7 342.9 309.5
L 343.3 309.2 343.9 308.6 344.15 308.3 344.3 308.05 344.4 308 344.7 307.45 344.85 307.05 345 306.85 345 306.75 345.2 306.15 345.2 306.1 345.25 305.7 345.25 303.45 Z"/>
</g>

<g id="Layer0_0_MEMBER_1_MEMBER_3_MEMBER_3_MEMBER_0_FILL">
<path fill="#F0B33C" stroke="none" d="
M 324.1 308.15
Q 327.75 310.25 332.9 310.25 338.05 310.25 341.65 308.15 345.3 306 345.3 303.05 345.25 300.05 341.6 297.95 337.95 295.85 332.8 295.85 327.65 295.85 324.05 297.95 320.4 300.05 320.45 303.05 320.45 306 324.1 308.15 Z"/>
</g>

<g id="Layer0_0_MEMBER_1_MEMBER_3_MEMBER_4_MEMBER_0_FILL">
<path fill="#FED764" stroke="none" d="
M 324.1 308.15
Q 327.75 310.25 332.9 310.25 338.05 310.25 341.65 308.15 345.3 306 345.3 303.05 345.25 300.05 341.6 297.95 337.95 295.85 332.8 295.85 327.65 295.85 324.05 297.95 320.4 300.05 320.45 303.05 320.45 306 324.1 308.15 Z"/>
</g>

<g id="Layer0_0_MEMBER_1_MEMBER_3_MEMBER_5_MEMBER_0_FILL">
<path fill="#FED831" stroke="none" d="
M 324.1 308.15
Q 327.75 310.25 332.9 310.25 338.05 310.25 341.65 308.15 345.3 306 345.3 303.35 345.25 300.65 341.6 298.55 337.95 296.45 332.8 296.45 327.65 296.45 324.05 298.55 320.4 300.65 320.45 303.35 320.45 306 324.1 308.15 Z"/>
</g>

<g id="Layer0_0_MEMBER_1_MEMBER_3_MEMBER_6_FILL">
<path fill="#FEEC99" stroke="none" d="
M 345.25 303.05
Q 345.5 300.2 341.6 297.95 337.95 295.85 332.8 295.85 327.65 295.85 324.05 297.95 320.2 300.2 320.45 303 320.7 300.45 324.05 298.55 327.65 296.45 332.8 296.45 337.95 296.45 341.6 298.55 345 300.55 345.25 303.05 Z"/>
</g>

<g id="Layer0_0_MEMBER_1_MEMBER_3_MEMBER_7_MEMBER_0_FILL">
<path fill="#DC822E" stroke="none" d="
M 339.75 299
Q 336.85 297.35 332.8 297.35 328.75 297.35 325.9 299 323 300.7 323 303.05 323 305.4 325.9 307.05 328.8 308.75 332.85 308.75 336.95 308.75 339.8 307.05 342.7 305.4 342.65 303.05 342.65 300.7 339.75 299 Z"/>
</g>

<g id="Layer0_0_MEMBER_1_MEMBER_3_MEMBER_8_MEMBER_0_FILL">
<path fill="#FDB02B" stroke="none" d="
M 339.5 299.4
Q 336.75 297.75 332.8 297.75 328.9 297.75 326.15 299.4 323.4 301.05 323.4 303.4 323.45 305.75 326.2 307.4 329 309.05 332.9 309.05 336.8 309.05 339.55 307.4 342.3 305.75 342.3 303.4 342.25 301.05 339.5 299.4 Z"/>
</g>

<g id="Layer0_0_MEMBER_1_MEMBER_3_MEMBER_9_MEMBER_0_FILL">
<path fill="#FED764" stroke="none" d="
M 339.1 299.95
L 338.25 299.45 336.85 300.25
Q 335.75 299.8 334.5 299.85 333.3 299.85 332.45 300.35 330.95 301.25 332.4 303.1 333.35 304.4 332.3 305 330.9 305.8 329.25 304.8 328.1 304.1 327.85 303.3
L 326.6 303.65
Q 326.75 304.4 328.1 305.25
L 326.7 306.05 327.6 306.55 329.05 305.7
Q 330.25 306.2 331.55 306.15 332.75 306.1 333.65 305.6 335.3 304.65 334 302.9 333.45 302.1 333.4 301.7 333.3 301.25 333.85 300.95 335.1 300.3 336.55 301.15 337.55 301.75 337.8 302.45
L 339.05 302.1
Q 338.8 301.4 337.75 300.75
L 339.1 299.95 Z"/>
</g>

<g id="Layer0_0_MEMBER_2_MEMBER_0_FILL">
<path fill="#000000" fill-opacity="0.09803921568627451" stroke="none" d="
M 30.1 8.35
Q 30.05 5.1 25.65 2.55 21.25 0 15 0 8.8 0 4.4 2.55 0 5.1 0 8.35 0.05 11.55 4.45 14.1 8.9 16.65 15.1 16.65 21.35 16.7 25.7 14.1 30.1 11.55 30.1 8.35 Z"/>
</g>

<g id="Layer0_0_MEMBER_2_MEMBER_1_MEMBER_0_FILL">
<path fill="#FED831" stroke="none" d="
M 296.35 333.8
L 294.35 333.1 293.15 332.45
Q 289.5166015625 330.387890625 289.45 327.45
L 289.45 330.8
Q 289.45 333.8 293.15 335.9 293.3 336.05 294.05 336.4
L 294.9 336.8 295 336.8
Q 295.1 336.85 296.3 337.25
L 296.45 337.3 296.75 337.35 298.7 337.8 298.95 337.8 299.85 337.95 300.15 337.95 300.45 338 301.05 338 301.4 338.05 301.65 338
Q 301.95 338.1 302.35 338
L 304.05 337.95 304.15 337.9 305.55 337.7 305.65 337.7 306 337.6 306.7 337.5 308.2 337.05 310.7 335.95 311.6 335.35 312.35 334.75 312.4 334.65 313.2 333.85 313.35 333.6 313.4 333.55 313.7 333.1 313.75 333 313.9 332.6 314.05 332.4 314.05 332.3 314.25 331.7 314.25 331.65 314.3 331.25 314.3 327.75 314.25 328.15 313.95 329.15 313.45 330.05 313.35 330.15 312.95 330.65 312.9 330.75 312 331.6 310.7 332.45
Q 310.2 332.8 309.55 333.05
L 308.2 333.6 305.55 334.25 303.7 334.5 301.1 334.55 298.05 334.2 296.35 333.8 Z"/>
</g>

<g id="Layer0_0_MEMBER_2_MEMBER_1_MEMBER_1_FILL">
<path fill="#FED764" stroke="none" d="
M 296.35 333.8
L 294.35 333.1 293.15 332.45
Q 289.5390625 330.4005859375 289.45 327.5
L 289.45 329.65
Q 289.55 332.65 293.15 334.7 293.3 334.85 294.05 335.2
L 294.35 335.3 295 335.6 296.45 336.1 296.75 336.15 297.75 336.4 301.05 336.8 302.85 336.8 304.05 336.7 304.15 336.7 305.55 336.5 305.65 336.5 308.2 335.85 309.55 335.3
Q 310.6 334.8 310.7 334.7
L 311.2 334.4 311.95 333.85
Q 312.25 333.65 312.35 333.5
L 313.2 332.65 313.4 332.3 313.7 331.9 313.75 331.8 313.9 331.4 314.05 331.2 314.05 331.1 314.25 330.5 314.25 330.4 314.3 330 314.3 327.75 314.25 328.15 313.95 329.15 313.45 330.05 313.35 330.15 312.95 330.65 312.9 330.75 312 331.6 310.7 332.45
Q 310.2 332.8 309.55 333.05
L 308.2 333.6 305.55 334.25 303.7 334.5 301.1 334.55 299.25 334.4 296.35 333.8 Z"/>
</g>

<g id="Layer0_0_MEMBER_2_MEMBER_1_MEMBER_2_FILL">
<path fill="#FD9D28" stroke="none" d="
M 296.35 333.8
L 294.35 333.1 293.15 332.45
Q 289.5390625 330.4005859375 289.45 327.5
L 289.45 329.65
Q 289.55 332.65 293.15 334.7 293.3 334.85 294.05 335.2
L 294.35 335.3 295 335.6 296.45 336.1 296.75 336.15 297.75 336.4 301.05 336.8 302.85 336.8 304.05 336.7 304.15 336.7 305.55 336.5 305.65 336.5 308.2 335.85 309.55 335.3
Q 310.6 334.8 310.7 334.7
L 311.2 334.4 311.95 333.85
Q 312.25 333.65 312.35 333.5
L 313.2 332.65 313.4 332.3 313.7 331.9 313.75 331.8 313.9 331.4 314.05 331.2 314.05 331.1 314.25 330.5 314.25 330.4 314.3 330 314.3 327.75 314.25 328.15 313.95 329.15 313.45 330.05 313.35 330.15 312.95 330.65 312.9 330.75 312 331.6 310.7 332.45
Q 310.2 332.8 309.55 333.05
L 308.2 333.6 305.55 334.25 303.7 334.5 301.1 334.55 299.25 334.4 296.35 333.8 Z"/>
</g>

<g id="Layer0_0_MEMBER_2_MEMBER_1_MEMBER_3_MEMBER_0_FILL">
<path fill="#F0B33C" stroke="none" d="
M 310.65 322.3
Q 307 320.2 301.85 320.2 296.7 320.2 293.1 322.3 289.45 324.4 289.45 327.4 289.5 330.35 293.15 332.45 296.8 334.55 301.95 334.55 307.1 334.6 310.7 332.45 314.35 330.35 314.3 327.4 314.3 324.4 310.65 322.3 Z"/>
</g>

<g id="Layer0_0_MEMBER_2_MEMBER_1_MEMBER_4_MEMBER_0_FILL">
<path fill="#FED764" stroke="none" d="
M 310.65 322.3
Q 307 320.2 301.85 320.2 296.7 320.2 293.1 322.3 289.45 324.4 289.45 327.4 289.5 330.35 293.15 332.45 296.8 334.55 301.95 334.55 307.1 334.6 310.7 332.45 314.35 330.35 314.3 327.4 314.3 324.4 310.65 322.3 Z"/>
</g>

<g id="Layer0_0_MEMBER_2_MEMBER_1_MEMBER_5_MEMBER_0_FILL">
<path fill="#FED831" stroke="none" d="
M 310.65 322.9
Q 307 320.8 301.85 320.8 296.7 320.8 293.1 322.9 289.45 325 289.45 327.7 289.5 330.35 293.15 332.45 296.8 334.55 301.95 334.55 307.1 334.6 310.7 332.45 314.35 330.35 314.3 327.7 314.3 325 310.65 322.9 Z"/>
</g>

<g id="Layer0_0_MEMBER_2_MEMBER_1_MEMBER_6_FILL">
<path fill="#FEEC99" stroke="none" d="
M 289.5 327.35
Q 289.75 324.8 293.1 322.9 296.7 320.8 301.85 320.8 307 320.8 310.65 322.9 314.05 324.85 314.3 327.4 314.55 324.55 310.65 322.3 307 320.2 301.85 320.2 296.7 320.2 293.1 322.3 289.25 324.5 289.5 327.35 Z"/>
</g>

<g id="Layer0_0_MEMBER_2_MEMBER_1_MEMBER_7_MEMBER_0_FILL">
<path fill="#DC822E" stroke="none" d="
M 308.8 323.35
Q 305.9 321.7 301.85 321.7 297.8 321.7 294.9 323.35 292.05 325.05 292.05 327.4 292.05 329.75 294.95 331.4 297.85 333.05 301.9 333.05 306 333.05 308.85 331.4 311.75 329.75 311.7 327.4 311.7 325 308.8 323.35 Z"/>
</g>

<g id="Layer0_0_MEMBER_2_MEMBER_1_MEMBER_8_MEMBER_0_FILL">
<path fill="#FDB02B" stroke="none" d="
M 308.55 323.75
Q 305.8 322.1 301.85 322.1 297.95 322.1 295.2 323.75 292.45 325.4 292.45 327.75 292.45 330.05 295.25 331.7 298.05 333.35 301.95 333.35 305.85 333.35 308.6 331.7 311.35 330.05 311.35 327.75 311.3 325.4 308.55 323.75 Z"/>
</g>

<g id="Layer0_0_MEMBER_2_MEMBER_1_MEMBER_9_MEMBER_0_FILL">
<path fill="#FED764" stroke="none" d="
M 303.55 324.15
Q 302.35 324.2 301.5 324.7 300 325.55 301.4 327.45 302.35 328.7 301.35 329.35 300.75 329.7 299.9 329.65 299.05 329.55 298.3 329.15 297.15 328.45 296.9 327.6
L 295.65 328
Q 295.85 328.8 297.15 329.55
L 295.75 330.4 296.65 330.9 298.05 330.05
Q 299.3 330.55 300.6 330.5 301.8 330.45 302.65 329.95 304.35 329 303 327.25 302.45 326.45 302.45 326.05 302.35 325.6 302.9 325.3 304.1 324.65 305.55 325.45 306.55 326 306.85 326.75
L 308.1 326.45
Q 307.85 325.75 306.8 325.1
L 308.15 324.3 307.25 323.8 305.85 324.6
Q 304.75 324.15 303.55 324.15 Z"/>
</g>

<g id="Layer0_0_MEMBER_2_MEMBER_2_MEMBER_0_FILL">
<path fill="#FED831" stroke="none" d="
M 297.6 327.55
L 295.75 326.7
Q 292.1109375 324.5650390625 292.1 321.7
L 292.05 325
Q 292.05 327.95 295.75 330.15
L 297.55 331 297.6 331
Q 298.35 331.35 298.95 331.45
L 299.05 331.5 300.35 331.85 301.55 332.05 301.85 332.05 302.75 332.2 305.25 332.25 305.45 332.2
Q 306.05 332.2 306.3 332.15
L 306.75 332.15 308.15 331.95 308.25 331.9 308.65 331.85 310.45 331.4 310.6 331.35 310.8 331.25 312.15 330.75 313.8 329.85 314.95 328.95 315.05 328.9 315.5 328.45 315.55 328.35 315.95 327.85 316.05 327.75 316.55 326.85 316.65 326.6 316.65 326.55 316.75 326.15 316.85 325.9 316.85 325.85 316.9 325.45 316.95 321.65 316.85 322.4 316.55 323.35 316.05 324.3 316 324.35 315.55 324.9 315.5 325 314.25 326.1 311.8 327.45 309.35 328.25 308.65 328.4 306.3 328.7
Q 306.05 328.75 305.5 328.75
L 303.05 328.75 301.3 328.55 299.35 328.15 298.95 328
Q 298.3 327.85 297.6 327.55 Z"/>
</g>

<g id="Layer0_0_MEMBER_2_MEMBER_2_MEMBER_1_FILL">
<path fill="#FED764" stroke="none" d="
M 297.6 327.55
L 295.75 326.7
Q 292.113671875 324.566796875 292.1 321.7
L 292.05 323.85
Q 292.15 326.8 295.75 328.95
L 297.55 329.8 297.6 329.8
Q 298.35 330.15 298.95 330.25
L 299.05 330.3 301.55 330.85 301.85 330.85 302.5 330.95 302.75 330.95 303.05 331 303.7 331 304 331.05 305.45 331
Q 306.05 331 306.3 330.95
L 306.65 330.95 306.75 330.9 308.15 330.7 308.25 330.7 308.65 330.65 310.45 330.15 310.6 330.15 313.3 328.95 314.6 328.05 315.55 327.15 315.8 326.85 315.95 326.6 316.05 326.55 316.65 325.4 316.65 325.3 316.85 324.7 316.85 324.65 316.9 324.25 316.9 322 316.85 322.4 316.55 323.35 316.05 324.3 316 324.35 315.55 324.9 315.5 325 314.25 326.1 311.8 327.45 309.35 328.25 308.65 328.4 306.3 328.7
Q 306.05 328.75 305.5 328.75
L 302.5 328.7 301.3 328.55 299.35 328.15 298.95 328
Q 298.3 327.85 297.6 327.55 Z"/>
</g>

<g id="Layer0_0_MEMBER_2_MEMBER_2_MEMBER_2_FILL">
<path fill="#FD9D28" stroke="none" d="
M 297.6 327.55
L 295.75 326.7
Q 292.113671875 324.566796875 292.1 321.7
L 292.05 323.85
Q 292.15 326.8 295.75 328.95
L 297.55 329.8 297.6 329.8
Q 298.35 330.15 298.95 330.25
L 299.05 330.3 301.55 330.85 301.85 330.85 302.5 330.95 302.75 330.95 303.05 331 303.7 331 304 331.05 305.45 331
Q 306.05 331 306.3 330.95
L 306.65 330.95 306.75 330.9 308.15 330.7 308.25 330.7 308.65 330.65 310.45 330.15 310.6 330.15 313.3 328.95 314.6 328.05 315.55 327.15 315.8 326.85 315.95 326.6 316.05 326.55 316.65 325.4 316.65 325.3 316.85 324.7 316.85 324.65 316.9 324.25 316.9 322 316.85 322.4 316.55 323.35 316.05 324.3 316 324.35 315.55 324.9 315.5 325 314.25 326.1 311.8 327.45 309.35 328.25 308.65 328.4 306.3 328.7
Q 306.05 328.75 305.5 328.75
L 302.5 328.7 301.3 328.55 299.35 328.15 298.95 328
Q 298.3 327.85 297.6 327.55 Z"/>
</g>

<g id="Layer0_0_MEMBER_2_MEMBER_2_MEMBER_3_MEMBER_0_FILL">
<path fill="#F0B33C" stroke="none" d="
M 313.25 316.5
Q 309.6 314.4 304.45 314.4 299.3 314.4 295.7 316.5 292.05 318.6 292.1 321.6 292.1 324.55 295.75 326.7 299.4 328.8 304.55 328.8 309.7 328.8 313.3 326.7 316.95 324.55 316.95 321.6 316.9 318.6 313.25 316.5 Z"/>
</g>

<g id="Layer0_0_MEMBER_2_MEMBER_2_MEMBER_4_MEMBER_0_FILL">
<path fill="#FED764" stroke="none" d="
M 313.25 316.5
Q 309.6 314.4 304.45 314.4 299.3 314.4 295.7 316.5 292.05 318.6 292.1 321.6 292.1 324.55 295.75 326.7 299.4 328.8 304.55 328.8 309.7 328.8 313.3 326.7 316.95 324.55 316.95 321.6 316.9 318.6 313.25 316.5 Z"/>
</g>

<g id="Layer0_0_MEMBER_2_MEMBER_2_MEMBER_5_MEMBER_0_FILL">
<path fill="#FED831" stroke="none" d="
M 313.25 317.1
Q 309.6 315 304.45 315 299.3 315 295.7 317.1 292.05 319.2 292.05 321.9 292.1 324.55 295.75 326.7 299.4 328.8 304.55 328.8 309.7 328.8 313.3 326.7 316.95 324.55 316.95 321.9 316.9 319.2 313.25 317.1 Z"/>
</g>

<g id="Layer0_0_MEMBER_2_MEMBER_2_MEMBER_6_FILL">
<path fill="#FEEC99" stroke="none" d="
M 292.1 321.55
Q 292.35 319.05 295.7 317.1 299.3 315 304.45 315 309.6 315 313.25 317.1 316.65 319.1 316.9 321.6 317.15 318.75 313.25 316.5 309.6 314.4 304.45 314.4 299.3 314.4 295.7 316.5 291.85 318.75 292.1 321.55 Z"/>
</g>

<g id="Layer0_0_MEMBER_2_MEMBER_2_MEMBER_7_MEMBER_0_FILL">
<path fill="#DC822E" stroke="none" d="
M 311.4 317.55
Q 308.5 315.9 304.45 315.9 300.4 315.9 297.55 317.55 294.65 319.25 294.65 321.6 294.65 323.95 297.55 325.6 300.45 327.3 304.5 327.3 308.6 327.3 311.45 325.6 314.35 323.95 314.3 321.6 314.3 319.25 311.4 317.55 Z"/>
</g>

<g id="Layer0_0_MEMBER_2_MEMBER_2_MEMBER_8_MEMBER_0_FILL">
<path fill="#FDB02B" stroke="none" d="
M 311.15 317.95
Q 308.4 316.3 304.5 316.3 300.6 316.3 297.8 317.95 295.05 319.6 295.05 321.95 295.1 324.3 297.85 325.95 300.65 327.6 304.55 327.6 308.45 327.6 311.2 325.95 313.95 324.3 313.95 321.95 313.9 319.6 311.15 317.95 Z"/>
</g>

<g id="Layer0_0_MEMBER_2_MEMBER_2_MEMBER_9_MEMBER_0_FILL">
<path fill="#FED764" stroke="none" d="
M 308.5 318.8
Q 307.4 318.35 306.15 318.4 304.95 318.4 304.1 318.9 302.6 319.8 304.05 321.65 305 322.95 303.95 323.55 302.55 324.35 300.9 323.35 299.75 322.65 299.5 321.85
L 298.25 322.2
Q 298.4 322.95 299.75 323.8
L 298.35 324.6 299.25 325.1 300.7 324.25
Q 301.9 324.75 303.2 324.7 304.4 324.7 305.3 324.2 306.95 323.2 305.65 321.45 305.1 320.65 305.05 320.25 304.95 319.8 305.5 319.5 306.75 318.85 308.2 319.7 309.2 320.3 309.45 321
L 310.7 320.65
Q 310.45 319.95 309.4 319.3
L 310.75 318.5 309.9 318 308.5 318.8 Z"/>
</g>

<g id="Layer0_0_MEMBER_2_MEMBER_3_MEMBER_0_FILL">
<path fill="#FED831" stroke="none" d="
M 312.9 320.05
L 312 320.9 310.7 321.75
Q 310.6 321.85 309.55 322.35
L 308.2 322.9 304.15 323.75 303.7 323.8 301.1 323.85 298.05 323.5 295 322.65 293.15 321.75
Q 289.5166015625 319.687890625 289.45 316.75
L 289.45 320.1
Q 289.45 323.1 293.15 325.2
L 294.35 325.85 294.95 326.1 295 326.1 296.35 326.55 296.45 326.6 298.7 327.1 298.95 327.1 299.9 327.2 300.15 327.25 304.05 327.25 304.15 327.2 305.55 327 305.65 327 306.05 326.9
Q 306.25 326.85 306.7 326.75
L 307.2 326.65 308.2 326.35 309.55 325.8
Q 310.2 325.55 310.7 325.2
L 310.85 325.15 312.35 324.05 312.9 323.5 312.95 323.4 313.2 323.15 313.35 322.9 313.45 322.85 313.75 322.3 313.9 321.9 314.05 321.7 314.05 321.6 314.25 321 314.25 320.9 314.3 320.55 314.3 317.05 314.25 317.45 313.95 318.45 313.4 319.45 312.95 319.95 312.9 320.05 Z"/>
</g>

<g id="Layer0_0_MEMBER_2_MEMBER_3_MEMBER_1_FILL">
<path fill="#FED764" stroke="none" d="
M 312.9 320.05
L 312 320.9 310.7 321.75
Q 310.6 321.85 309.55 322.35
L 308.2 322.9 304.15 323.75 303.7 323.8 301.1 323.85 298.05 323.5 295 322.65 293.15 321.75
Q 289.5390625 319.7005859375 289.45 316.8
L 289.45 318.95
Q 289.55 321.95 293.15 324
L 294.05 324.5 294.95 324.85 295 324.9 296.35 325.35 296.45 325.4 296.75 325.45 297.75 325.7 298.95 325.9 299.9 326 300.15 326.05 302.85 326.1 304.05 326 304.15 326 305.55 325.8 305.65 325.8 307.2 325.45 308 325.2 308.2 325.1 309.55 324.6
Q 310.6 324.1 310.7 324
L 311.2 323.7 312.35 322.8 312.45 322.75 312.9 322.3 312.95 322.2 313.2 321.95 313.35 321.7 313.45 321.6 313.7 321.2 313.75 321.1 313.9 320.7 314.05 320.5 314.05 320.4 314.25 319.8 314.25 319.7 314.3 319.3 314.3 317.05 314.25 317.45 313.95 318.45 313.4 319.45 312.95 319.95 312.9 320.05 Z"/>
</g>

<g id="Layer0_0_MEMBER_2_MEMBER_3_MEMBER_2_FILL">
<path fill="#FD9D28" stroke="none" d="
M 312.9 320.05
L 312 320.9 310.7 321.75
Q 310.6 321.85 309.55 322.35
L 308.2 322.9 304.15 323.75 303.7 323.8 301.1 323.85 298.05 323.5 295 322.65 293.15 321.75
Q 289.5390625 319.7005859375 289.45 316.8
L 289.45 318.95
Q 289.55 321.95 293.15 324
L 294.05 324.5 294.95 324.85 295 324.9 296.35 325.35 296.45 325.4 296.75 325.45 297.75 325.7 298.95 325.9 299.9 326 300.15 326.05 302.85 326.1 304.05 326 304.15 326 305.55 325.8 305.65 325.8 307.2 325.45 308 325.2 308.2 325.1 309.55 324.6
Q 310.6 324.1 310.7 324
L 311.2 323.7 312.35 322.8 312.45 322.75 312.9 322.3 312.95 322.2 313.2 321.95 313.35 321.7 313.45 321.6 313.7 321.2 313.75 321.1 313.9 320.7 314.05 320.5 314.05 320.4 314.25 319.8 314.25 319.7 314.3 319.3 314.3 317.05 314.25 317.45 313.95 318.45 313.4 319.45 312.95 319.95 312.9 320.05 Z"/>
</g>

<g id="Layer0_0_MEMBER_2_MEMBER_3_MEMBER_3_MEMBER_0_FILL">
<path fill="#F0B33C" stroke="none" d="
M 310.65 311.6
Q 307 309.45 301.85 309.45 296.7 309.45 293.1 311.6 289.45 313.7 289.45 316.7 289.5 319.65 293.15 321.75 296.8 323.85 301.95 323.85 307.1 323.85 310.7 321.75 314.35 319.65 314.3 316.7 314.3 313.7 310.65 311.6 Z"/>
</g>

<g id="Layer0_0_MEMBER_2_MEMBER_3_MEMBER_4_MEMBER_0_FILL">
<path fill="#FED764" stroke="none" d="
M 310.65 311.6
Q 307 309.45 301.85 309.45 296.7 309.45 293.1 311.6 289.45 313.7 289.45 316.7 289.5 319.65 293.15 321.75 296.8 323.85 301.95 323.85 307.1 323.85 310.7 321.75 314.35 319.65 314.3 316.7 314.3 313.7 310.65 311.6 Z"/>
</g>

<g id="Layer0_0_MEMBER_2_MEMBER_3_MEMBER_5_MEMBER_0_FILL">
<path fill="#FED831" stroke="none" d="
M 310.65 312.2
Q 307 310.1 301.85 310.1 296.7 310.1 293.1 312.2 289.45 314.3 289.45 317 289.5 319.65 293.15 321.75 296.8 323.85 301.95 323.85 307.1 323.85 310.7 321.75 314.35 319.65 314.3 317 314.3 314.3 310.65 312.2 Z"/>
</g>

<g id="Layer0_0_MEMBER_2_MEMBER_3_MEMBER_6_FILL">
<path fill="#FEEC99" stroke="none" d="
M 289.5 316.65
Q 289.75 314.1 293.1 312.2 296.7 310.1 301.85 310.1 307 310.1 310.65 312.2 314.05 314.15 314.3 316.7 314.55 313.85 310.65 311.6 307 309.45 301.85 309.45 296.7 309.45 293.1 311.6 289.25 313.8 289.5 316.65 Z"/>
</g>

<g id="Layer0_0_MEMBER_2_MEMBER_3_MEMBER_7_MEMBER_0_FILL">
<path fill="#DC822E" stroke="none" d="
M 308.8 312.65
Q 305.9 311 301.85 311 297.8 311 294.95 312.65 292.05 314.3 292.05 316.65 292.05 319 294.95 320.7 297.85 322.35 301.9 322.35 306 322.35 308.85 320.7 311.75 319.05 311.7 316.7 311.7 314.3 308.8 312.65 Z"/>
</g>

<g id="Layer0_0_MEMBER_2_MEMBER_3_MEMBER_8_MEMBER_0_FILL">
<path fill="#FDB02B" stroke="none" d="
M 308.55 313.05
Q 305.8 311.4 301.85 311.4 297.95 311.4 295.2 313.05 292.45 314.7 292.45 317.05 292.5 319.35 295.25 321 298.05 322.65 301.95 322.65 305.85 322.65 308.6 321 311.35 319.35 311.35 317.05 311.3 314.7 308.55 313.05 Z"/>
</g>

<g id="Layer0_0_MEMBER_2_MEMBER_3_MEMBER_9_MEMBER_0_FILL">
<path fill="#FED764" stroke="none" d="
M 308.15 313.6
L 307.3 313.1 305.9 313.9
Q 304.75 313.45 303.55 313.45 302.35 313.5 301.5 314 300 314.9 301.45 316.75 302.4 318 301.35 318.6 300.05 319.4 298.3 318.45 297.15 317.75 296.9 316.9
L 295.65 317.25
Q 295.8 318.1 297.15 318.85
L 295.75 319.7 296.65 320.2 298.1 319.35
Q 299.3 319.85 300.6 319.8 301.8 319.75 302.7 319.25 304.35 318.3 303.05 316.55 302.5 315.7 302.45 315.35 302.35 314.9 302.9 314.6 304 313.9 305.6 314.75 306.55 315.3 306.85 316.05
L 308.1 315.7
Q 307.8 315.05 306.8 314.4
L 308.15 313.6 Z"/>
</g>

<g id="Layer0_0_MEMBER_3_MEMBER_0_MEMBER_0_MEMBER_0_FILL">
<path fill="#000000" fill-opacity="0.09803921568627451" stroke="none" d="
M 2.55 1.45
Q 0 2.9 0 5 0 7.05 2.5 8.5 5 9.95 8.55 9.95 12.1 9.95 14.65 8.5 17.15 7.05 17.15 5 17.2 2.9 14.7 1.45 12.2 0 8.65 0 5.05 0 2.55 1.45 Z"/>
</g>

<g id="Layer0_0_MEMBER_3_MEMBER_0_MEMBER_1_FILL">
<path fill="#6D482A" stroke="none" d="
M 334.15 303.45
Q 333.65 303.6 333.05 303.95 331.85 304.6 331.3 305.55 330.1 307.65 330.6 308.55 330.85 309.05 331.95 308.35 333.05 307.7 333.4 306.9 333.7 306.25 334.2 305.75 334.45 305.45 334.95 304.95 335.45 304.45 334.15 303.45 Z"/>
</g>

<g id="Layer0_0_MEMBER_3_MEMBER_0_MEMBER_2_MEMBER_0_FILL">
<path fill="#0B141A" stroke="none" d="
M 329.95 296.75
Q 329.9 296.7 330.55 291.2 331.2 286.05 329.45 286.25 327.4 286.5 325.9 285.25 324.85 284.45 324.75 284.85 324.35 286.4 325.1 291.6 325.8 296.45 326.55 298.7 327.25 300.8 331.05 305.8 331.45 306 332.3 305.9 333.1 305.75 333.5 305.4 333.95 305.1 334.25 304.55 334.6 304 334.55 303.65 330.9 297.7 329.95 296.75 Z"/>
</g>

<g id="Layer0_0_MEMBER_3_MEMBER_0_MEMBER_3_FILL">
<path fill="#0B141A" stroke="none" d="
M 329.45 286.25
Q 328.05 286.45 326.9 285.9
L 326.2 286.05 326.4 289.95
Q 327.05 294.7 329.4 298.9 332.25 304 333.4 305.5
L 333.5 305.4
Q 333.95 305.1 334.25 304.55 334.6 304 334.55 303.65 330.9 297.7 329.95 296.75 329.9 296.7 330.55 291.2 331.2 286.05 329.45 286.25 Z"/>
</g>

<g id="Layer0_0_MEMBER_3_MEMBER_0_MEMBER_4_FILL">
<path fill="#6D482A" stroke="none" d="
M 328.2 308.65
Q 326.15 308.2 324.7 309.1 322.65 310.35 322.65 311.4 322.65 311.95 323.95 311.9 325.2 311.85 325.9 311.3 326.5 310.85 327.15 310.65 327.55 310.55 328.2 310.4 328.9 310.15 328.2 308.65 Z"/>
</g>

<g id="Layer0_0_MEMBER_3_MEMBER_0_MEMBER_5_MEMBER_0_FILL">
<path fill="#1D2A35" stroke="none" d="
M 328.5 289.2
Q 328.6 290.45 327.45 293.55 326.2 297 326.1 297.7 325.85 301 324.9 308.7 326.05 309.65 327 309.7 328.6 309.7 329.1 309.5
L 329.8 298.2
Q 331.4 294.9 332.55 292.4 334.8 287.5 332.95 285.85 331.55 284.55 328.85 284.75
L 326.4 285.2 327.4 286.75
Q 328.45 288.5 328.5 289.2 Z"/>
</g>

<g id="Layer0_0_MEMBER_3_MEMBER_0_MEMBER_6_FILL">
<path fill="#273743" stroke="none" d="
M 329.7 292.8
Q 330.4 291.25 330 288.45
L 329.5 285.95 326.95 286.05
Q 328.45 288.4 328.5 289.2 328.6 290.45 327.45 293.55 326.2 297 326.1 297.7 325.85 301 324.9 308.7 326 309.5 326.65 309.65 326.1 306 327.45 300 328.55 295.25 329.7 292.8 Z"/>
</g>

<g id="Layer0_0_MEMBER_3_MEMBER_0_MEMBER_7_FILL">
<path fill="#E5A37A" stroke="none" d="
M 321.5 285
Q 321.85 284.9 320.45 283.75 320.1 284.05 319.75 284.5 319.05 285.4 318.9 286.15 318.65 287.4 319.25 287.6
L 319.75 286.75
Q 320.1 286.15 320.7 285.6 321.25 285.05 321.5 285 Z"/>
</g>

<g id="Layer0_0_MEMBER_3_MEMBER_0_MEMBER_8_FILL">
<path fill="#E5A37A" stroke="none" d="
M 320.6 284.95
L 320.15 285.3 320.1 285.8
Q 320.1 286.4 320.2 286.8 320.4 287.3 320.55 287.25 320.5 286.6 320.8 285.45 321 284.75 320.6 284.95 Z"/>
</g>

<g id="Layer0_0_MEMBER_3_MEMBER_0_MEMBER_9_FILL">
<path fill="#A8E6FE" stroke="none" d="
M 324.4 281.25
Q 325.75 279.35 326.9 275.9 328.25 271.75 326.8 271.1 325.2 270.4 323.65 274.95 322.85 277.25 322.4 279.7 323.55 281.15 324.4 281.25 Z"/>
</g>

<g id="Layer0_0_MEMBER_3_MEMBER_0_MEMBER_10_FILL">
<path fill="#A8E6FE" stroke="none" d="
M 322.55 279.45
L 319.75 284.25
Q 320.35 285.4 321.3 285.45
L 324.4 281.25 322.55 279.45 Z"/>
</g>

<g id="Layer0_0_MEMBER_3_MEMBER_0_MEMBER_11_FILL">
<path fill="#EAEAEA" stroke="none" d="
M 330.85 272
Q 328.95 271.2 327.65 271.15
L 326.75 271.3
Q 325.5 271.65 325.1 274.3 324.7 276.55 325.1 278.9 325.65 282 325.2 285.15 325.2 286 327.5 287 330 288 331.9 286.9 332.85 286.35 333.3 285.6
L 332.7 283.95
Q 332 282.05 332.8 279.7
L 333.7 277.75
Q 334.95 275.15 334.25 274.2 333.55 273.5 332.3 272.8 331.25 272.15 330.85 272 Z"/>
</g>

<g id="Layer0_0_MEMBER_3_MEMBER_0_MEMBER_12_FILL">
<path fill="#D8D8D8" stroke="none" d="
M 332.8 273.1
Q 331.35 273.7 331.15 275.55 331.05 276.65 330.55 280.8 330.25 284.9 331.1 287.25 332.6 286.8 333.3 285.6
L 332.7 283.95
Q 332 282.05 332.8 279.7
L 333.7 277.75
Q 334.95 275.15 334.25 274.2 333.8 273.75 332.8 273.1 Z"/>
</g>

<g id="Layer0_0_MEMBER_3_MEMBER_0_MEMBER_13_FILL">
<path fill="#0D2936" stroke="none" d="
M 334.55 275.45
Q 335 274.1 332.15 272.7
L 330.5 271.75 328.85 274
Q 327.3 279 327.7 284.35 327.9 287 328.4 288.65 330.75 289.65 332.55 288.85 333.45 288.4 333.85 287.8 333.15 284.2 332.7 282.65 332.4 281.7 333.25 279.05 334.3 276.25 334.55 275.45 Z"/>
</g>

<g id="Layer0_0_MEMBER_3_MEMBER_0_MEMBER_14_FILL">
<path fill="#7BD3FD" stroke="none" d="
M 334.55 275.45
Q 335 274.1 332.15 272.7
L 330.5 271.75 328.85 274
Q 327.3 279 327.7 284.35 327.9 287 328.4 288.65 330.75 289.65 332.6 288.8 333.55 288.35 334 287.7 333.3 285.2 332.7 282.65 332.5 281.7 333.3 279.05 333.45 278.6 334.55 275.45 Z"/>
</g>

<g id="Layer0_0_MEMBER_3_MEMBER_0_MEMBER_15_FILL">
<path fill="#7BD3FD" stroke="none" d="
M 326.9 273.45
L 328.25 272.1
Q 329.2 270.7 327.3 270.7 325.35 270.65 324.75 274 324.35 276.35 324.6 278.65 324.75 280.35 324.45 286.2 325.3 287.2 326.45 287.4 326 286 326.4 279.6
L 326.9 273.45 Z"/>
</g>

<g id="Layer0_0_MEMBER_3_MEMBER_0_MEMBER_16_FILL">
<path fill="#A8E6FE" stroke="none" d="
M 330.4 271.7
L 328.95 273.8 328.05 276.8
Q 327.25 280.6 327.7 284.45
L 329.9 277 329.3 276.25 330.35 274.55
Q 331.55 272.8 332.15 272.7
L 330.4 271.7 Z"/>
</g>

<g id="Layer0_0_MEMBER_3_MEMBER_0_MEMBER_17_FILL">
<path fill="#A8E6FE" stroke="none" d="
M 326.25 283.55
Q 326 280.95 327.1 275.35 328.05 270.45 327.9 270.45 327.65 270.4 327.25 270.6
L 326.85 270.8 326 275.7 325.35 276.65 326.25 283.55 Z"/>
</g>

<g id="Layer0_0_MEMBER_3_MEMBER_0_MEMBER_18_MEMBER_0_FILL">
<path fill="#E5A37A" stroke="none" d="
M 331 270.25
L 331.55 269.4
Q 330.5 269.75 329.45 270.15 327.35 270.95 327.5 271.3 327.85 272.3 327.65 272.9 327.55 273.1 327.9 273.3 328.1 273.45 328.3 273.5 329.55 273.75 330.45 273.1 331.3 272.5 331 271.95 330.55 271.25 331 270.25 Z"/>
</g>

<g id="Layer0_0_MEMBER_3_MEMBER_0_MEMBER_18_MEMBER_1_FILL">
<path fill="#DB956D" stroke="none" d="
M 331 271.95
Q 330.45 271 331.35 269.65
L 331.35 269.5 331.15 269.55 329.15 271.2 329.9 271.45
Q 330.7 271.75 331.05 272.25
L 331 271.95 Z"/>
</g>

<g id="Layer0_0_MEMBER_3_MEMBER_0_MEMBER_18_MEMBER_2_MEMBER_0_FILL">
<path fill="#EEB188" stroke="none" d="
M 332.05 268.6
Q 332.65 267.25 332.05 266.15
L 331.3 265.3
Q 330.4 264.85 329.55 265.15 328.5 265.7 327.75 266 326.7 266.45 326.85 270.8 326.9 272.65 329.8 271.3 331.3 270.6 332.05 268.6 Z"/>
</g>

<g id="Layer0_0_MEMBER_3_MEMBER_0_MEMBER_18_MEMBER_2_MEMBER_1_FILL">
<path fill="#E5A37A" stroke="none" d="
M 328.45 265.4
L 327.75 266 327.65 266.1 327.45 266.4
Q 327.4 266.5 327.3 266.5 327.25 266.45 327.2 266.55 327.15 267.05 327.4 267.3 327.8 267.7 329.05 267.95 329.5 268 329.9 268.25 330.55 268.6 330.3 268.9 329.7 269.7 329.9 270.15 330.1 270.55 329.9 270.75 329.25 271.4 328.5 271.8 329.3 271.6 329.8 271.35 331.65 270.35 332.05 268.6 332.4 267.85 332.3 267.1
L 331.65 265.95 328.45 265.4 Z"/>
</g>

<g id="Layer0_0_MEMBER_3_MEMBER_0_MEMBER_18_MEMBER_2_MEMBER_2_FILL">
<path fill="#6F482A" stroke="none" d="
M 331.6 268.95
Q 331.8517578125 269.327734375 331.2 270.2
L 332.25 268.9
Q 333.3 267 331.95 265.85 331.1 266 330.5 267 330.3 267.35 329.8 267.5 329.25 267.65 329.05 267.7 330.3 267.85 330.45 268 330.85 268.45 330.45 269.2 330.35 269.45 330.3 269.75 330.25 270.05 330.35 269.95 330.4 269.95 330.9 269.25 331.4 268.65 331.6 268.95 Z"/>
</g>

<g id="Layer0_0_MEMBER_3_MEMBER_0_MEMBER_18_MEMBER_3_FILL">
<path fill="#704B2C" stroke="none" d="
M 327.5 267.05
Q 328.1 267.65 329.05 267.7
L 329.8 267.55
Q 330.65 267.25 331.1 266.55 331.45 265.95 332 265.95 331.95 265.6 331.65 265.3 331.05 264.7 329.75 264.8 328.7 264.95 327.65 265.7 326.85 266.4 327.5 267.05 Z"/>
</g>

<g id="Layer0_0_MEMBER_3_MEMBER_0_MEMBER_19_FILL">
<path fill="#F9F8F8" stroke="none" d="
M 331.6 272.35
L 330.8 271.55
Q 330.8 271.95 330.45 272.35 329.7 273.15 327.9 273.25
L 328.25 274.55 329.55 274.45
Q 331 274 331.6 272.35 Z"/>
</g>

<g id="Layer0_0_MEMBER_3_MEMBER_0_MEMBER_20_FILL">
<path fill="#F9F8F8" stroke="none" d="
M 326.7 273.95
L 327.9 273.25
Q 327.75 273 327.8 272.4 327.85 272.25 327.75 271.95
L 327.75 271.85 327.45 271.8
Q 327.2 272.1 326.95 272.5 326.5 273.35 326.7 273.95 Z"/>
</g>

<g id="Layer0_0_MEMBER_3_MEMBER_0_MEMBER_21_FILL">
<path fill="#D12775" stroke="none" d="
M 327.95 274.35
L 327.5 274.25 327 277 326.55 284.55 327.75 277.15
Q 327.7 276.1 327.8 275.1
L 327.95 274.35 Z"/>
</g>

<g id="Layer0_0_MEMBER_3_MEMBER_0_MEMBER_22_FILL">
<path fill="#D12775" stroke="none" d="
M 327.95 273.2
L 327.45 273.6 327.5 274.25 327.95 274.35 328.15 274 327.95 273.2 Z"/>
</g>

<g id="Layer0_0_MEMBER_3_MEMBER_0_MEMBER_23_MEMBER_0_MEMBER_0_FILL">
<path fill="#E5A37A" stroke="none" d="
M 336.35 284.5
Q 336.35 281.65 335.9 279.7 334.55 273.4 333.1 273.45 332.7 273.4 332.3 273.65 331.6 274.25 331.95 275.95 332.5 278.7 333.9 281.55
L 334.45 284.4
Q 335.05 287.4 335 288 335 288.45 334.7 288.9 334.5 289.2 334.55 289.95 334.55 290.55 334.35 290.8 334.25 290.95 334.35 291.05 334.5 291.2 334.6 291.1 335.05 290.8 335.05 290.1
L 335.3 290.55
Q 335.55 291.15 335.35 291.95 335.3 292.2 335.55 292.05 335.85 291.9 336.25 291.35 336.8 290.55 336.45 289.3 336.25 288.45 336.3 287.45 336.4 285.95 336.35 284.5 Z"/>
</g>

<g id="Layer0_0_MEMBER_3_MEMBER_0_MEMBER_23_MEMBER_0_MEMBER_1_FILL">
<path fill="#A8E6FE" stroke="none" d="
M 332.75 273.3
Q 331.05 273.6 332.4 278.25 333.1 280.6 334.1 282.85 335.85 283.4 336.6 283 336.65 280.75 335.6 277.2 334.3 273 332.75 273.3 Z"/>
</g>

<g id="Layer0_0_MEMBER_3_MEMBER_0_MEMBER_23_MEMBER_1_FILL">
<path fill="#A8E6FE" stroke="none" d="
M 336.6 283
L 334.05 282.6 334.55 288.1
Q 335.65 288.7 336.5 288.2
L 336.6 283 Z"/>
</g>

<g id="Layer0_0_MEMBER_3_MEMBER_1_MEMBER_0_MEMBER_0_MEMBER_0_FILL">
<path fill="#E5A37A" stroke="none" d="
M 298.55 281.6
Q 298.25 282.45 300.3 284 301.05 284.55 303.5 286.05 305.25 287 307.8 287.85 309.15 288.3 310.55 288.65 311.6 288.95 312.25 289.35 312.85 289.75 313.65 289.85 314.3 289.95 314.5 289.9 315.1 289.65 315.15 289.35 315.2 289.05 314.8 288.9 314 288.7 313.6 288.45
L 313.35 288.3
Q 313.95 288.45 314.45 288.15 314.55 288.05 314.45 287.95 314.35 287.8 314.2 287.85 313.9 287.9 313.4 287.75 312.8 287.5 312.35 287.6 312.05 287.7 311.7 287.65
L 311.45 287.6
Q 310.9 287.5 308.25 286.1
L 305.75 284.7
Q 303.55 282.55 301.15 281.25 299.65 280.4 298.95 280.9
L 298.55 281.6 Z"/>
</g>

<g id="Layer0_0_MEMBER_3_MEMBER_1_MEMBER_0_MEMBER_0_MEMBER_1_FILL">
<path fill="#1D2A35" stroke="none" d="
M 303.2 282.35
Q 299.3 279.7 298.5 281.2 297.8 282.6 301.3 285 304.25 287.05 306.35 287.65 306.95 287.05 306.95 285.25 305.15 283.65 303.2 282.35 Z"/>
</g>

<g id="Layer0_0_MEMBER_3_MEMBER_1_MEMBER_0_MEMBER_1_FILL">
<path fill="#29252D" stroke="none" d="
M 306.7 285.15
L 306.35 287.65 311.2 289.1
Q 311.9 288.45 311.65 287.2
L 306.7 285.15 Z"/>
</g>

<g id="Layer0_0_MEMBER_3_MEMBER_1_MEMBER_1_MEMBER_0_FILL">
<path fill="#000000" fill-opacity="0.09803921568627451" stroke="none" d="
M 15.5 4.5
Q 15.5 2.65 13.25 1.35 10.95 0.05 7.75 0.05 4.55 0.05 2.25 1.35 0 2.65 0 4.5 0 6.35 2.3 7.7 4.6 9 7.8 9 11 9 13.25 7.7 15.55 6.35 15.5 4.5 Z"/>
</g>

<g id="Layer0_0_MEMBER_3_MEMBER_1_MEMBER_2_FILL">
<path fill="#111114" stroke="none" d="
M 302.25 314.4
Q 301.35 314.35 300.5 315.05 299.55 315.8 299.5 316.75 299.45 317.6 299.8 317.85 300 317.95 300.4 318 300.55 318.05 301.05 317.5 301.45 317 301.6 316.65 301.65 316.5 302.2 315.9 302.85 315.3 302.95 315.05 303.1 314.75 302.7 314.55
L 302.25 314.4 Z"/>
</g>

<g id="Layer0_0_MEMBER_3_MEMBER_1_MEMBER_3_FILL">
<path fill="#52527A" stroke="none" d="
M 303.7 294.7
Q 300.75 294.5 299.85 293.7
L 299 295.25
Q 298.2 297.25 298.7 299.6 299.45 303.35 299.2 308.6
L 298.95 312.15
Q 298.75 315.8 299.05 316.55
L 300 316.9
Q 301.2 317.1 302.15 316.3
L 303.7 294.7 Z"/>
</g>

<g id="Layer0_0_MEMBER_3_MEMBER_1_MEMBER_4_FILL">
<path fill="#404162" stroke="none" d="
M 303.6 296.7
L 300.75 296.7 300.6 299.25
Q 300.45 302 300.75 302.95 301.2 304.75 301.2 316.8 301.8 316.6 302.15 316.3
L 303.6 296.7 Z"/>
</g>

<g id="Layer0_0_MEMBER_3_MEMBER_1_MEMBER_5_FILL">
<path fill="#111114" stroke="none" d="
M 304.4 320.65
Q 304.8 320.75 305.5 320.6 306.15 320.5 307.45 320.85 308.95 321.2 309.55 320.7 309.95 320.45 309.95 319.95 309.95 319.6 309.1 319.35 308.15 319.2 307.9 319.1
L 306.4 318.45 303.7 318.75 303.8 319.1 303.7 319.75
Q 303.75 320.45 304.4 320.65 Z"/>
</g>

<g id="Layer0_0_MEMBER_3_MEMBER_1_MEMBER_6_FILL">
<path fill="#404162" stroke="none" d="
M 306.55 295.7
Q 302.95 295 301.8 294.05
L 301.35 295.5
Q 301.15 297.8 302.45 302
L 303.55 319.15 304.6 319.5
Q 305.9 319.6 307.2 318.65 307.6 305.15 307.4 302.45 307.2 299.6 307.1 298.35 306.9 296.2 306.55 295.7 Z"/>
</g>

<g id="Layer0_0_MEMBER_3_MEMBER_1_MEMBER_7_FILL">
<path fill="#52527A" stroke="none" d="
M 304 319.4
Q 304.55 319.6 305.25 319.55 304.55 311.55 304.55 307.25 304.6 304.55 304.15 300.85
L 303.7 297.65 301.45 297.65
Q 301.1 298.55 301.5 299.7 301.75 300.4 302.45 302
L 303.55 319.15 304 319.4 Z"/>
</g>

<g id="Layer0_0_MEMBER_3_MEMBER_1_MEMBER_8_FILL">
<path fill="#29252D" stroke="none" d="
M 301.8 281.2
Q 300.5 280.65 299.15 280.6 298.75 280.65 298.45 281.05 297.8 281.85 298.25 283.7 298.8 285.8 299.05 288 299.25 290.05 299.15 290.9 298.7 294.05 298.1 295.5
L 298.6 296.85
Q 299.75 298.45 303 299.55
L 305.1 299.4
Q 307.15 298.9 306.85 297 306.55 294.95 306.5 291.85 306.5 289.1 306.65 288.1 306.95 286.35 306.9 285.8 306.75 284.15 305.05 283.05 303 281.7 301.8 281.2 Z"/>
</g>

<g id="Layer0_0_MEMBER_3_MEMBER_1_MEMBER_9_FILL">
<path fill="#1E1B21" stroke="none" d="
M 306.65 288.1
Q 306.95 286.5 306.95 286.1 306.9 284.7 305.8 283.65 305.15 283.8 304.95 283.9 304.4 284.2 304.1 284.95 303.3 286.75 303.1 288.1 302.75 290.2 303.35 292.65 303.75 294.35 303.85 296.75 303.9 299.15 304 299.6 305.2 299.6 306.05 299.05 307.1 298.35 306.85 297 306.55 294.95 306.5 291.85 306.5 289.1 306.65 288.1 Z"/>
</g>

<g id="Layer0_0_MEMBER_3_MEMBER_1_MEMBER_10_MEMBER_0_MEMBER_0_FILL">
<path fill="#EEB188" stroke="none" d="
M 303.55 279.5
Q 303.95 278.7 300.65 279.3 300.9 280.75 300.45 281.7 300.15 282.35 301.8 282.65 303.45 282.95 303.5 282.35 303.35 282 303.25 281.5 303.1 280.45 303.55 279.5 Z"/>
</g>

<g id="Layer0_0_MEMBER_3_MEMBER_1_MEMBER_10_MEMBER_0_MEMBER_1_FILL">
<path fill="#DB956D" stroke="none" d="
M 300.45 281.75
Q 300.25 282.15 301.2 282.5 301.4 281.7 302.3 281.15 302.95 280.75 303.25 280.75
L 300.7 279.6
Q 300.85 280.95 300.45 281.75 Z"/>
</g>

<g id="Layer0_0_MEMBER_3_MEMBER_1_MEMBER_10_MEMBER_0_MEMBER_2_FILL">
<path fill="#EEB188" stroke="none" d="
M 300.5 279.35
Q 301.2 280.4 302.25 280.75 303.7 281.25 304.4 280.55 304.65 280.3 304.65 279.7 304.5 278.95 304.6 277.7 304.65 277 304.35 276.05
L 304.05 275.25
Q 302.7 274.4 301.5 275.1 300.45 275.65 300.05 277 299.7 278.15 300.5 279.35 Z"/>
</g>

<g id="Layer0_0_MEMBER_3_MEMBER_1_MEMBER_10_MEMBER_0_MEMBER_3_FILL">
<path fill="#E5A37A" stroke="none" d="
M 301.75 275.45
L 301.15 276.6
Q 300.4 277.9 300.15 278.75 300.8 280.35 302.25 280.75
L 303.2 280.95
Q 303.25 280.9 303.2 280.9 303.15 280.7 303.4 280.1 303.7 279.55 303.6 279.3 303.05 278.35 303.4 277.15 303.45 276.95 303.8 276.65 304.3 276.15 304.35 276.1
L 304.05 275.25
Q 303.4 274.8 302.6 274.8 301.75 275.35 301.75 275.45 Z"/>
</g>

<g id="Layer0_0_MEMBER_3_MEMBER_1_MEMBER_10_MEMBER_0_MEMBER_4_FILL">
<path fill="#221102" stroke="none" d="
M 302.7 274.55
Q 301.5 274.25 300.55 274.85 299.3 275.6 299.2 276.9 299.05 278 299.75 279.25 300.35 280.3 300.85 280.7 301.4 281.1 302.25 280.9 303.05 280.7 302.55 280.25 301.4 279.1 302.3 278.9 302.4 278.9 302.8 279.15 303.15 279.4 303.25 279.3 303.35 279.2 303.05 278.05 302.95 277.75 303.05 277.3 303.15 276.65 303.55 276.4 304.65 275.8 304.4 274.7 304 274.85 302.7 274.55 Z"/>
</g>

<g id="Layer0_0_MEMBER_3_MEMBER_1_MEMBER_10_MEMBER_0_MEMBER_5_FILL">
<path fill="#331C0B" stroke="none" d="
M 300.55 274.85
Q 299.3 275.6 299.2 276.9 299.05 278 299.75 279.25 300.35 280.3 300.85 280.7 301.8 281.35 302.6 280.7 301.55 280.4 301.25 279.55 301.2 279.4 301.05 277.95 301 277.35 301.35 277.05 301.85 276.55 302 276.3 302.45 275.5 304.4 275.15
L 304.4 274.7
Q 304 274.85 302.7 274.55 301.5 274.25 300.55 274.85 Z"/>
</g>

<g id="Layer0_0_MEMBER_3_MEMBER_1_MEMBER_10_MEMBER_1_FILL">
<path fill="#DFF0F8" stroke="none" d="
M 303.35 281.8
Q 301.75 282.15 301.05 281.6
L 300.65 280.95
Q 300.25 281.1 300.05 281.55 299.9 282 300.05 282.2 300.75 283.25 302.75 283.05 303.8 283 304.65 282.7
L 303.35 281.8 Z"/>
</g>

<g id="Layer0_0_MEMBER_3_MEMBER_1_MEMBER_11_MEMBER_0_FILL">
<path fill="#E5A37A" stroke="none" d="
M 309.15 300.05
Q 309.45 299.2 308.85 298.15 308.45 297.45 308.35 297.05
L 307.2 297.25 307.25 297.35 307.2 298.2
Q 307.15 298.45 307.5 299.4 307.95 300.5 308.55 300.8 308.7 300.9 308.8 300.8 308.95 300.65 309.15 300.05 Z"/>
</g>

<g id="Layer0_0_MEMBER_3_MEMBER_1_MEMBER_11_MEMBER_1_FILL">
<path fill="#2E2B33" stroke="none" d="
M 307.4 287.7
Q 307.1 283.4 305.55 283.65 304.15 283.9 304.45 287.9 304.7 291.25 305.45 293.25
L 306.95 297.95
Q 307.85 298.15 308.6 297.2
L 307.35 292.45
Q 307.55 290.15 307.4 287.7 Z"/>
</g>

<g id="Layer0_0_MEMBER_4_MEMBER_0_FILL">
<path fill="#000000" fill-opacity="0.09803921568627451" stroke="none" d="
M 0 3.25
L 5.55 6.45 11.1 3.25 5.55 0 0 3.25 Z"/>
</g>

<g id="Layer0_0_MEMBER_4_MEMBER_1_FILL">
<path fill="#000000" fill-opacity="0.09803921568627451" stroke="none" d="
M 0 2.4
L 4.2 4.85 8.45 2.4 4.25 0 0 2.4 Z"/>
</g>

<g id="Layer0_0_MEMBER_4_MEMBER_2_FILL">
<path fill="#000000" fill-opacity="0.09803921568627451" stroke="none" d="
M 0 2.75
L 4.8 5.55 9.65 2.75 4.85 0 0 2.75 Z"/>
</g>

<g id="Layer0_0_MEMBER_4_MEMBER_3_FILL">
<path fill="#FEDE7C" fill-opacity="0.2" stroke="none" d="
M 4.1 0
L 0 2.35 4.1 4.7 8.15 2.35 4.1 0 Z"/>
</g>

<g id="Layer0_0_MEMBER_4_MEMBER_4_FILL">
<path fill="#FEDE7C" fill-opacity="0.4" stroke="none" d="
M 3.35 0
L 0 1.95 3.35 3.85 6.65 1.95 3.35 0 Z"/>
</g>

<g id="Layer0_0_MEMBER_4_MEMBER_5_FILL">
<path fill="#FEDE7C" fill-opacity="0.6" stroke="none" d="
M 2.6 0
L 0 1.5 2.6 3 5.15 1.5 2.6 0 Z"/>
</g>

<g id="Layer0_0_MEMBER_4_MEMBER_6_FILL">
<path fill="#FEDE7C" fill-opacity="0.8" stroke="none" d="
M 0 1.05
L 1.85 2.1 3.65 1.05 1.85 0 0 1.05 Z"/>
</g>

<g id="Layer0_0_MEMBER_4_MEMBER_7_FILL">
<path fill="#FEDE7C" stroke="none" d="
M 0 0.6
L 1.1 1.25 2.2 0.6 1.1 0 0 0.6 Z"/>
</g>

<g id="Layer0_0_MEMBER_4_MEMBER_8_FILL">
<path fill="#FEDE7C" stroke="none" d="
M 330.9 326.85
L 330.55 327.05 330.9 327.25 331.25 327.05 330.9 326.85 Z"/>
</g>

<g id="Layer0_0_MEMBER_4_MEMBER_9_FILL">
<path fill="#FCCEE7" fill-opacity="0.2" stroke="none" d="
M 0 2.7
L 4.7 5.45 9.4 2.7 4.7 0 0 2.7 Z"/>
</g>

<g id="Layer0_0_MEMBER_4_MEMBER_10_FILL">
<path fill="#FCCEE7" fill-opacity="0.4" stroke="none" d="
M 0 2.2
L 3.85 4.45 7.7 2.2 3.85 0 0 2.2 Z"/>
</g>

<g id="Layer0_0_MEMBER_4_MEMBER_11_FILL">
<path fill="#FCCEE7" fill-opacity="0.6" stroke="none" d="
M 0 1.7
L 2.95 3.45 5.9 1.7 2.95 0 0 1.7 Z"/>
</g>

<g id="Layer0_0_MEMBER_4_MEMBER_12_FILL">
<path fill="#FCCEE7" fill-opacity="0.8" stroke="none" d="
M 0 1.2
L 2.1 2.45 4.2 1.2 2.1 0 0 1.2 Z"/>
</g>

<g id="Layer0_0_MEMBER_4_MEMBER_13_FILL">
<path fill="#FCCEE7" stroke="none" d="
M 0 0.7
L 1.25 1.45 2.5 0.7 1.25 0 0 0.7 Z"/>
</g>

<g id="Layer0_0_MEMBER_4_MEMBER_14_FILL">
<path fill="#FCCEE7" stroke="none" d="
M 341.4 317.6
L 341 317.8 341.4 318.05 341.8 317.8 341.4 317.6 Z"/>
</g>

<g id="Layer0_0_MEMBER_4_MEMBER_15_FILL">
<path fill="#A4F7F5" fill-opacity="0.2" stroke="none" d="
M 0 1.85
L 3.2 3.7 6.45 1.85 3.25 0 0 1.85 Z"/>
</g>

<g id="Layer0_0_MEMBER_4_MEMBER_16_FILL">
<path fill="#A4F7F5" fill-opacity="0.4" stroke="none" d="
M 0 1.55
L 2.6 3.05 5.25 1.55 2.65 0 0 1.55 Z"/>
</g>

<g id="Layer0_0_MEMBER_4_MEMBER_17_FILL">
<path fill="#A4F7F5" fill-opacity="0.6" stroke="none" d="
M 0 1.15
L 2 2.35 4.05 1.15 2.05 0 0 1.15 Z"/>
</g>

<g id="Layer0_0_MEMBER_4_MEMBER_18_FILL">
<path fill="#A4F7F5" fill-opacity="0.8" stroke="none" d="
M 0 0.85
L 1.45 1.7 2.95 0.85 1.5 0 0 0.85 Z"/>
</g>

<g id="Layer0_0_MEMBER_4_MEMBER_19_FILL">
<path fill="#A4F7F5" stroke="none" d="
M 0 0.5
L 0.85 1 1.75 0.5 0.9 0 0 0.5 Z"/>
</g>

<g id="Layer0_0_MEMBER_4_MEMBER_20_FILL">
<path fill="#A4F7F5" stroke="none" d="
M 1187.8 549.4
L 1188.05 549.55 1188.35 549.4 1188.1 549.25 1187.8 549.4 Z"/>
</g>
</defs>

<g transform="matrix( 8.099945068359375, 0, 0, 8.099945068359375, -2002,-1891.65) ">
<use xlink:href="#Layer0_0_MEMBER_0_MEMBER_0_FILL"/>
</g>

<g transform="matrix( 8.099945068359375, 0, 0, 8.099945068359375, 572.15,620.1) ">
<use xlink:href="#Layer0_0_MEMBER_1_MEMBER_0_FILL"/>
</g>

<g transform="matrix( 8.099945068359375, 0, 0, 8.099945068359375, -2002,-1891.65) ">
<use xlink:href="#Layer0_0_MEMBER_1_MEMBER_1_MEMBER_0_FILL"/>
</g>

<g transform="matrix( 8.099945068359375, 0, 0, 8.099945068359375, -2002,-1891.65) ">
<use xlink:href="#Layer0_0_MEMBER_1_MEMBER_1_MEMBER_1_FILL"/>
</g>

<g transform="matrix( 8.099945068359375, 0, 0, 8.099945068359375, -2002,-1891.65) ">
<use xlink:href="#Layer0_0_MEMBER_1_MEMBER_1_MEMBER_2_FILL"/>
</g>

<g transform="matrix( 8.099945068359375, 0, 0, 8.099945068359375, -2002,-1891.65) ">
<use xlink:href="#Layer0_0_MEMBER_1_MEMBER_1_MEMBER_3_MEMBER_0_FILL"/>
</g>

<g transform="matrix( 8.099945068359375, 0, 0, 8.099945068359375, -2002,-1891.65) ">
<use xlink:href="#Layer0_0_MEMBER_1_MEMBER_1_MEMBER_4_MEMBER_0_FILL"/>
</g>

<g transform="matrix( 8.099945068359375, 0, 0, 8.099945068359375, -2002,-1891.65) ">
<use xlink:href="#Layer0_0_MEMBER_1_MEMBER_1_MEMBER_5_MEMBER_0_FILL"/>
</g>

<g transform="matrix( 8.099945068359375, 0, 0, 8.099945068359375, -2002,-1891.65) ">
<use xlink:href="#Layer0_0_MEMBER_1_MEMBER_1_MEMBER_6_FILL"/>
</g>

<g transform="matrix( 8.099945068359375, 0, 0, 8.099945068359375, -2002,-1891.65) ">
<use xlink:href="#Layer0_0_MEMBER_1_MEMBER_1_MEMBER_7_MEMBER_0_FILL"/>
</g>

<g transform="matrix( 8.099945068359375, 0, 0, 8.099945068359375, -2002,-1891.65) ">
<use xlink:href="#Layer0_0_MEMBER_1_MEMBER_1_MEMBER_8_MEMBER_0_FILL"/>
</g>

<g transform="matrix( 8.099945068359375, 0, 0, 8.099945068359375, -2002,-1891.65) ">
<use xlink:href="#Layer0_0_MEMBER_1_MEMBER_1_MEMBER_9_MEMBER_0_FILL"/>
</g>

<g transform="matrix( 8.099945068359375, 0, 0, 8.099945068359375, -2002,-1891.65) ">
<use xlink:href="#Layer0_0_MEMBER_1_MEMBER_2_MEMBER_0_FILL"/>
</g>

<g transform="matrix( 8.099945068359375, 0, 0, 8.099945068359375, -2002,-1891.65) ">
<use xlink:href="#Layer0_0_MEMBER_1_MEMBER_2_MEMBER_1_FILL"/>
</g>

<g transform="matrix( 8.099945068359375, 0, 0, 8.099945068359375, -2002,-1891.65) ">
<use xlink:href="#Layer0_0_MEMBER_1_MEMBER_2_MEMBER_2_FILL"/>
</g>

<g transform="matrix( 8.099945068359375, 0, 0, 8.099945068359375, -2002,-1891.65) ">
<use xlink:href="#Layer0_0_MEMBER_1_MEMBER_2_MEMBER_3_MEMBER_0_FILL"/>
</g>

<g transform="matrix( 8.099945068359375, 0, 0, 8.099945068359375, -2002,-1891.65) ">
<use xlink:href="#Layer0_0_MEMBER_1_MEMBER_2_MEMBER_4_MEMBER_0_FILL"/>
</g>

<g transform="matrix( 8.099945068359375, 0, 0, 8.099945068359375, -2002,-1891.65) ">
<use xlink:href="#Layer0_0_MEMBER_1_MEMBER_2_MEMBER_5_MEMBER_0_FILL"/>
</g>

<g transform="matrix( 8.099945068359375, 0, 0, 8.099945068359375, -2002,-1891.65) ">
<use xlink:href="#Layer0_0_MEMBER_1_MEMBER_2_MEMBER_6_FILL"/>
</g>

<g transform="matrix( 8.099945068359375, 0, 0, 8.099945068359375, -2002,-1891.65) ">
<use xlink:href="#Layer0_0_MEMBER_1_MEMBER_2_MEMBER_7_MEMBER_0_FILL"/>
</g>

<g transform="matrix( 8.099945068359375, 0, 0, 8.099945068359375, -2002,-1891.65) ">
<use xlink:href="#Layer0_0_MEMBER_1_MEMBER_2_MEMBER_8_MEMBER_0_FILL"/>
</g>

<g transform="matrix( 8.099945068359375, 0, 0, 8.099945068359375, -2002,-1891.65) ">
<use xlink:href="#Layer0_0_MEMBER_1_MEMBER_2_MEMBER_9_MEMBER_0_FILL"/>
</g>

<g transform="matrix( 8.099945068359375, 0, 0, 8.099945068359375, -2002,-1891.65) ">
<use xlink:href="#Layer0_0_MEMBER_1_MEMBER_3_MEMBER_0_FILL"/>
</g>

<g transform="matrix( 8.099945068359375, 0, 0, 8.099945068359375, -2002,-1891.65) ">
<use xlink:href="#Layer0_0_MEMBER_1_MEMBER_3_MEMBER_1_FILL"/>
</g>

<g transform="matrix( 8.099945068359375, 0, 0, 8.099945068359375, -2002,-1891.65) ">
<use xlink:href="#Layer0_0_MEMBER_1_MEMBER_3_MEMBER_2_FILL"/>
</g>

<g transform="matrix( 8.099945068359375, 0, 0, 8.099945068359375, -2002,-1891.65) ">
<use xlink:href="#Layer0_0_MEMBER_1_MEMBER_3_MEMBER_3_MEMBER_0_FILL"/>
</g>

<g transform="matrix( 8.099945068359375, 0, 0, 8.099945068359375, -2002,-1891.65) ">
<use xlink:href="#Layer0_0_MEMBER_1_MEMBER_3_MEMBER_4_MEMBER_0_FILL"/>
</g>

<g transform="matrix( 8.099945068359375, 0, 0, 8.099945068359375, -2002,-1891.65) ">
<use xlink:href="#Layer0_0_MEMBER_1_MEMBER_3_MEMBER_5_MEMBER_0_FILL"/>
</g>

<g transform="matrix( 8.099945068359375, 0, 0, 8.099945068359375, -2002,-1891.65) ">
<use xlink:href="#Layer0_0_MEMBER_1_MEMBER_3_MEMBER_6_FILL"/>
</g>

<g transform="matrix( 8.099945068359375, 0, 0, 8.099945068359375, -2002,-1891.65) ">
<use xlink:href="#Layer0_0_MEMBER_1_MEMBER_3_MEMBER_7_MEMBER_0_FILL"/>
</g>

<g transform="matrix( 8.099945068359375, 0, 0, 8.099945068359375, -2002,-1891.65) ">
<use xlink:href="#Layer0_0_MEMBER_1_MEMBER_3_MEMBER_8_MEMBER_0_FILL"/>
</g>

<g transform="matrix( 8.099945068359375, 0, 0, 8.099945068359375, -2002,-1891.65) ">
<use xlink:href="#Layer0_0_MEMBER_1_MEMBER_3_MEMBER_9_MEMBER_0_FILL"/>
</g>

<g transform="matrix( 8.099945068359375, 0, 0, 8.099945068359375, 321.45,730.65) ">
<use xlink:href="#Layer0_0_MEMBER_2_MEMBER_0_FILL"/>
</g>

<g transform="matrix( 8.099945068359375, 0, 0, 8.099945068359375, -2002,-1891.65) ">
<use xlink:href="#Layer0_0_MEMBER_2_MEMBER_1_MEMBER_0_FILL"/>
</g>

<g transform="matrix( 8.099945068359375, 0, 0, 8.099945068359375, -2002,-1891.65) ">
<use xlink:href="#Layer0_0_MEMBER_2_MEMBER_1_MEMBER_1_FILL"/>
</g>

<g transform="matrix( 8.099945068359375, 0, 0, 8.099945068359375, -2002,-1891.65) ">
<use xlink:href="#Layer0_0_MEMBER_2_MEMBER_1_MEMBER_2_FILL"/>
</g>

<g transform="matrix( 8.099945068359375, 0, 0, 8.099945068359375, -2002,-1891.65) ">
<use xlink:href="#Layer0_0_MEMBER_2_MEMBER_1_MEMBER_3_MEMBER_0_FILL"/>
</g>

<g transform="matrix( 8.099945068359375, 0, 0, 8.099945068359375, -2002,-1891.65) ">
<use xlink:href="#Layer0_0_MEMBER_2_MEMBER_1_MEMBER_4_MEMBER_0_FILL"/>
</g>

<g transform="matrix( 8.099945068359375, 0, 0, 8.099945068359375, -2002,-1891.65) ">
<use xlink:href="#Layer0_0_MEMBER_2_MEMBER_1_MEMBER_5_MEMBER_0_FILL"/>
</g>

<g transform="matrix( 8.099945068359375, 0, 0, 8.099945068359375, -2002,-1891.65) ">
<use xlink:href="#Layer0_0_MEMBER_2_MEMBER_1_MEMBER_6_FILL"/>
</g>

<g transform="matrix( 8.099945068359375, 0, 0, 8.099945068359375, -2002,-1891.65) ">
<use xlink:href="#Layer0_0_MEMBER_2_MEMBER_1_MEMBER_7_MEMBER_0_FILL"/>
</g>

<g transform="matrix( 8.099945068359375, 0, 0, 8.099945068359375, -2002,-1891.65) ">
<use xlink:href="#Layer0_0_MEMBER_2_MEMBER_1_MEMBER_8_MEMBER_0_FILL"/>
</g>

<g transform="matrix( 8.099945068359375, 0, 0, 8.099945068359375, -2002,-1891.65) ">
<use xlink:href="#Layer0_0_MEMBER_2_MEMBER_1_MEMBER_9_MEMBER_0_FILL"/>
</g>

<g transform="matrix( 8.099945068359375, 0, 0, 8.099945068359375, -2002,-1891.65) ">
<use xlink:href="#Layer0_0_MEMBER_2_MEMBER_2_MEMBER_0_FILL"/>
</g>

<g transform="matrix( 8.099945068359375, 0, 0, 8.099945068359375, -2002,-1891.65) ">
<use xlink:href="#Layer0_0_MEMBER_2_MEMBER_2_MEMBER_1_FILL"/>
</g>

<g transform="matrix( 8.099945068359375, 0, 0, 8.099945068359375, -2002,-1891.65) ">
<use xlink:href="#Layer0_0_MEMBER_2_MEMBER_2_MEMBER_2_FILL"/>
</g>

<g transform="matrix( 8.099945068359375, 0, 0, 8.099945068359375, -2002,-1891.65) ">
<use xlink:href="#Layer0_0_MEMBER_2_MEMBER_2_MEMBER_3_MEMBER_0_FILL"/>
</g>

<g transform="matrix( 8.099945068359375, 0, 0, 8.099945068359375, -2002,-1891.65) ">
<use xlink:href="#Layer0_0_MEMBER_2_MEMBER_2_MEMBER_4_MEMBER_0_FILL"/>
</g>

<g transform="matrix( 8.099945068359375, 0, 0, 8.099945068359375, -2002,-1891.65) ">
<use xlink:href="#Layer0_0_MEMBER_2_MEMBER_2_MEMBER_5_MEMBER_0_FILL"/>
</g>

<g transform="matrix( 8.099945068359375, 0, 0, 8.099945068359375, -2002,-1891.65) ">
<use xlink:href="#Layer0_0_MEMBER_2_MEMBER_2_MEMBER_6_FILL"/>
</g>

<g transform="matrix( 8.099945068359375, 0, 0, 8.099945068359375, -2002,-1891.65) ">
<use xlink:href="#Layer0_0_MEMBER_2_MEMBER_2_MEMBER_7_MEMBER_0_FILL"/>
</g>

<g transform="matrix( 8.099945068359375, 0, 0, 8.099945068359375, -2002,-1891.65) ">
<use xlink:href="#Layer0_0_MEMBER_2_MEMBER_2_MEMBER_8_MEMBER_0_FILL"/>
</g>

<g transform="matrix( 8.099945068359375, 0, 0, 8.099945068359375, -2002,-1891.65) ">
<use xlink:href="#Layer0_0_MEMBER_2_MEMBER_2_MEMBER_9_MEMBER_0_FILL"/>
</g>

<g transform="matrix( 8.099945068359375, 0, 0, 8.099945068359375, -2002,-1891.65) ">
<use xlink:href="#Layer0_0_MEMBER_2_MEMBER_3_MEMBER_0_FILL"/>
</g>

<g transform="matrix( 8.099945068359375, 0, 0, 8.099945068359375, -2002,-1891.65) ">
<use xlink:href="#Layer0_0_MEMBER_2_MEMBER_3_MEMBER_1_FILL"/>
</g>

<g transform="matrix( 8.099945068359375, 0, 0, 8.099945068359375, -2002,-1891.65) ">
<use xlink:href="#Layer0_0_MEMBER_2_MEMBER_3_MEMBER_2_FILL"/>
</g>

<g transform="matrix( 8.099945068359375, 0, 0, 8.099945068359375, -2002,-1891.65) ">
<use xlink:href="#Layer0_0_MEMBER_2_MEMBER_3_MEMBER_3_MEMBER_0_FILL"/>
</g>

<g transform="matrix( 8.099945068359375, 0, 0, 8.099945068359375, -2002,-1891.65) ">
<use xlink:href="#Layer0_0_MEMBER_2_MEMBER_3_MEMBER_4_MEMBER_0_FILL"/>
</g>

<g transform="matrix( 8.099945068359375, 0, 0, 8.099945068359375, -2002,-1891.65) ">
<use xlink:href="#Layer0_0_MEMBER_2_MEMBER_3_MEMBER_5_MEMBER_0_FILL"/>
</g>

<g transform="matrix( 8.099945068359375, 0, 0, 8.099945068359375, -2002,-1891.65) ">
<use xlink:href="#Layer0_0_MEMBER_2_MEMBER_3_MEMBER_6_FILL"/>
</g>

<g transform="matrix( 8.099945068359375, 0, 0, 8.099945068359375, -2002,-1891.65) ">
<use xlink:href="#Layer0_0_MEMBER_2_MEMBER_3_MEMBER_7_MEMBER_0_FILL"/>
</g>

<g transform="matrix( 8.099945068359375, 0, 0, 8.099945068359375, -2002,-1891.65) ">
<use xlink:href="#Layer0_0_MEMBER_2_MEMBER_3_MEMBER_8_MEMBER_0_FILL"/>
</g>

<g transform="matrix( 8.099945068359375, 0, 0, 8.099945068359375, -2002,-1891.65) ">
<use xlink:href="#Layer0_0_MEMBER_2_MEMBER_3_MEMBER_9_MEMBER_0_FILL"/>
</g>

<g transform="matrix( 8.099945068359375, 0, 0, 8.099945068359375, 598.85,561) ">
<use xlink:href="#Layer0_0_MEMBER_3_MEMBER_0_MEMBER_0_MEMBER_0_FILL"/>
</g>

<g transform="matrix( 8.099945068359375, 0, 0, 8.099945068359375, -2002,-1891.65) ">
<use xlink:href="#Layer0_0_MEMBER_3_MEMBER_0_MEMBER_1_FILL"/>
</g>

<g transform="matrix( 8.099945068359375, 0, 0, 8.099945068359375, -2002,-1891.65) ">
<use xlink:href="#Layer0_0_MEMBER_3_MEMBER_0_MEMBER_2_MEMBER_0_FILL"/>
</g>

<g transform="matrix( 8.099945068359375, 0, 0, 8.099945068359375, -2002,-1891.65) ">
<use xlink:href="#Layer0_0_MEMBER_3_MEMBER_0_MEMBER_3_FILL"/>
</g>

<g transform="matrix( 8.099945068359375, 0, 0, 8.099945068359375, -2002,-1891.65) ">
<use xlink:href="#Layer0_0_MEMBER_3_MEMBER_0_MEMBER_4_FILL"/>
</g>

<g transform="matrix( 8.099945068359375, 0, 0, 8.099945068359375, -2002,-1891.65) ">
<use xlink:href="#Layer0_0_MEMBER_3_MEMBER_0_MEMBER_5_MEMBER_0_FILL"/>
</g>

<g transform="matrix( 8.099945068359375, 0, 0, 8.099945068359375, -2002,-1891.65) ">
<use xlink:href="#Layer0_0_MEMBER_3_MEMBER_0_MEMBER_6_FILL"/>
</g>

<g transform="matrix( 8.099945068359375, 0, 0, 8.099945068359375, -2002,-1891.65) ">
<use xlink:href="#Layer0_0_MEMBER_3_MEMBER_0_MEMBER_7_FILL"/>
</g>

<g transform="matrix( 8.099945068359375, 0, 0, 8.099945068359375, -2002,-1891.65) ">
<use xlink:href="#Layer0_0_MEMBER_3_MEMBER_0_MEMBER_8_FILL"/>
</g>

<g transform="matrix( 8.099945068359375, 0, 0, 8.099945068359375, -2002,-1891.65) ">
<use xlink:href="#Layer0_0_MEMBER_3_MEMBER_0_MEMBER_9_FILL"/>
</g>

<g transform="matrix( 8.099945068359375, 0, 0, 8.099945068359375, -2002,-1891.65) ">
<use xlink:href="#Layer0_0_MEMBER_3_MEMBER_0_MEMBER_10_FILL"/>
</g>

<g transform="matrix( 8.099945068359375, 0, 0, 8.099945068359375, -2002,-1891.65) ">
<use xlink:href="#Layer0_0_MEMBER_3_MEMBER_0_MEMBER_11_FILL"/>
</g>

<g transform="matrix( 8.099945068359375, 0, 0, 8.099945068359375, -2002,-1891.65) ">
<use xlink:href="#Layer0_0_MEMBER_3_MEMBER_0_MEMBER_12_FILL"/>
</g>

<g transform="matrix( 8.099945068359375, 0, 0, 8.099945068359375, -2002,-1891.65) ">
<use xlink:href="#Layer0_0_MEMBER_3_MEMBER_0_MEMBER_13_FILL"/>
</g>

<g transform="matrix( 8.099945068359375, 0, 0, 8.099945068359375, -2002,-1891.65) ">
<use xlink:href="#Layer0_0_MEMBER_3_MEMBER_0_MEMBER_14_FILL"/>
</g>

<g transform="matrix( 8.099945068359375, 0, 0, 8.099945068359375, -2002,-1891.65) ">
<use xlink:href="#Layer0_0_MEMBER_3_MEMBER_0_MEMBER_15_FILL"/>
</g>

<g transform="matrix( 8.099945068359375, 0, 0, 8.099945068359375, -2002,-1891.65) ">
<use xlink:href="#Layer0_0_MEMBER_3_MEMBER_0_MEMBER_16_FILL"/>
</g>

<g transform="matrix( 8.099945068359375, 0, 0, 8.099945068359375, -2002,-1891.65) ">
<use xlink:href="#Layer0_0_MEMBER_3_MEMBER_0_MEMBER_17_FILL"/>
</g>

<g transform="matrix( 8.099945068359375, 0, 0, 8.099945068359375, -2002,-1891.65) ">
<use xlink:href="#Layer0_0_MEMBER_3_MEMBER_0_MEMBER_18_MEMBER_0_FILL"/>
</g>

<g transform="matrix( 8.099945068359375, 0, 0, 8.099945068359375, -2002,-1891.65) ">
<use xlink:href="#Layer0_0_MEMBER_3_MEMBER_0_MEMBER_18_MEMBER_1_FILL"/>
</g>

<g transform="matrix( 8.099945068359375, 0, 0, 8.099945068359375, -2002,-1891.65) ">
<use xlink:href="#Layer0_0_MEMBER_3_MEMBER_0_MEMBER_18_MEMBER_2_MEMBER_0_FILL"/>
</g>

<g transform="matrix( 8.099945068359375, 0, 0, 8.099945068359375, -2002,-1891.65) ">
<use xlink:href="#Layer0_0_MEMBER_3_MEMBER_0_MEMBER_18_MEMBER_2_MEMBER_1_FILL"/>
</g>

<g transform="matrix( 8.099945068359375, 0, 0, 8.099945068359375, -2002,-1891.65) ">
<use xlink:href="#Layer0_0_MEMBER_3_MEMBER_0_MEMBER_18_MEMBER_2_MEMBER_2_FILL"/>
</g>

<g transform="matrix( 8.099945068359375, 0, 0, 8.099945068359375, -2002,-1891.65) ">
<use xlink:href="#Layer0_0_MEMBER_3_MEMBER_0_MEMBER_18_MEMBER_3_FILL"/>
</g>

<g transform="matrix( 8.099945068359375, 0, 0, 8.099945068359375, -2002,-1891.65) ">
<use xlink:href="#Layer0_0_MEMBER_3_MEMBER_0_MEMBER_19_FILL"/>
</g>

<g transform="matrix( 8.099945068359375, 0, 0, 8.099945068359375, -2002,-1891.65) ">
<use xlink:href="#Layer0_0_MEMBER_3_MEMBER_0_MEMBER_20_FILL"/>
</g>

<g transform="matrix( 8.099945068359375, 0, 0, 8.099945068359375, -2002,-1891.65) ">
<use xlink:href="#Layer0_0_MEMBER_3_MEMBER_0_MEMBER_21_FILL"/>
</g>

<g transform="matrix( 8.099945068359375, 0, 0, 8.099945068359375, -2002,-1891.65) ">
<use xlink:href="#Layer0_0_MEMBER_3_MEMBER_0_MEMBER_22_FILL"/>
</g>

<g transform="matrix( 8.099945068359375, 0, 0, 8.099945068359375, -2002,-1891.65) ">
<use xlink:href="#Layer0_0_MEMBER_3_MEMBER_0_MEMBER_23_MEMBER_0_MEMBER_0_FILL"/>
</g>

<g transform="matrix( 8.099945068359375, 0, 0, 8.099945068359375, -2002,-1891.65) ">
<use xlink:href="#Layer0_0_MEMBER_3_MEMBER_0_MEMBER_23_MEMBER_0_MEMBER_1_FILL"/>
</g>

<g transform="matrix( 8.099945068359375, 0, 0, 8.099945068359375, -2002,-1891.65) ">
<use xlink:href="#Layer0_0_MEMBER_3_MEMBER_0_MEMBER_23_MEMBER_1_FILL"/>
</g>

<g transform="matrix( 8.099945068359375, 0, 0, 8.099945068359375, -2002,-1891.65) ">
<use xlink:href="#Layer0_0_MEMBER_3_MEMBER_1_MEMBER_0_MEMBER_0_MEMBER_0_FILL"/>
</g>

<g transform="matrix( 8.099945068359375, 0, 0, 8.099945068359375, -2002,-1891.65) ">
<use xlink:href="#Layer0_0_MEMBER_3_MEMBER_1_MEMBER_0_MEMBER_0_MEMBER_1_FILL"/>
</g>

<g transform="matrix( 8.099945068359375, 0, 0, 8.099945068359375, -2002,-1891.65) ">
<use xlink:href="#Layer0_0_MEMBER_3_MEMBER_1_MEMBER_0_MEMBER_1_FILL"/>
</g>

<g transform="matrix( 8.099945068359375, 0, 0, 8.099945068359375, 404.45,646.85) ">
<use xlink:href="#Layer0_0_MEMBER_3_MEMBER_1_MEMBER_1_MEMBER_0_FILL"/>
</g>

<g transform="matrix( 8.099945068359375, 0, 0, 8.099945068359375, -2002,-1891.65) ">
<use xlink:href="#Layer0_0_MEMBER_3_MEMBER_1_MEMBER_2_FILL"/>
</g>

<g transform="matrix( 8.099945068359375, 0, 0, 8.099945068359375, -2002,-1891.65) ">
<use xlink:href="#Layer0_0_MEMBER_3_MEMBER_1_MEMBER_3_FILL"/>
</g>

<g transform="matrix( 8.099945068359375, 0, 0, 8.099945068359375, -2002,-1891.65) ">
<use xlink:href="#Layer0_0_MEMBER_3_MEMBER_1_MEMBER_4_FILL"/>
</g>

<g transform="matrix( 8.099945068359375, 0, 0, 8.099945068359375, -2002,-1891.65) ">
<use xlink:href="#Layer0_0_MEMBER_3_MEMBER_1_MEMBER_5_FILL"/>
</g>

<g transform="matrix( 8.099945068359375, 0, 0, 8.099945068359375, -2002,-1891.65) ">
<use xlink:href="#Layer0_0_MEMBER_3_MEMBER_1_MEMBER_6_FILL"/>
</g>

<g transform="matrix( 8.099945068359375, 0, 0, 8.099945068359375, -2002,-1891.65) ">
<use xlink:href="#Layer0_0_MEMBER_3_MEMBER_1_MEMBER_7_FILL"/>
</g>

<g transform="matrix( 8.099945068359375, 0, 0, 8.099945068359375, -2002,-1891.65) ">
<use xlink:href="#Layer0_0_MEMBER_3_MEMBER_1_MEMBER_8_FILL"/>
</g>

<g transform="matrix( 8.099945068359375, 0, 0, 8.099945068359375, -2002,-1891.65) ">
<use xlink:href="#Layer0_0_MEMBER_3_MEMBER_1_MEMBER_9_FILL"/>
</g>

<g transform="matrix( 8.099945068359375, 0, 0, 8.099945068359375, -2002,-1891.65) ">
<use xlink:href="#Layer0_0_MEMBER_3_MEMBER_1_MEMBER_10_MEMBER_0_MEMBER_0_FILL"/>
</g>

<g transform="matrix( 8.099945068359375, 0, 0, 8.099945068359375, -2002,-1891.65) ">
<use xlink:href="#Layer0_0_MEMBER_3_MEMBER_1_MEMBER_10_MEMBER_0_MEMBER_1_FILL"/>
</g>

<g transform="matrix( 8.099945068359375, 0, 0, 8.099945068359375, -2002,-1891.65) ">
<use xlink:href="#Layer0_0_MEMBER_3_MEMBER_1_MEMBER_10_MEMBER_0_MEMBER_2_FILL"/>
</g>

<g transform="matrix( 8.099945068359375, 0, 0, 8.099945068359375, -2002,-1891.65) ">
<use xlink:href="#Layer0_0_MEMBER_3_MEMBER_1_MEMBER_10_MEMBER_0_MEMBER_3_FILL"/>
</g>

<g transform="matrix( 8.099945068359375, 0, 0, 8.099945068359375, -2002,-1891.65) ">
<use xlink:href="#Layer0_0_MEMBER_3_MEMBER_1_MEMBER_10_MEMBER_0_MEMBER_4_FILL"/>
</g>

<g transform="matrix( 8.099945068359375, 0, 0, 8.099945068359375, -2002,-1891.65) ">
<use xlink:href="#Layer0_0_MEMBER_3_MEMBER_1_MEMBER_10_MEMBER_0_MEMBER_5_FILL"/>
</g>

<g transform="matrix( 8.099945068359375, 0, 0, 8.099945068359375, -2002,-1891.65) ">
<use xlink:href="#Layer0_0_MEMBER_3_MEMBER_1_MEMBER_10_MEMBER_1_FILL"/>
</g>

<g transform="matrix( 8.099945068359375, 0, 0, 8.099945068359375, -2002,-1891.65) ">
<use xlink:href="#Layer0_0_MEMBER_3_MEMBER_1_MEMBER_11_MEMBER_0_FILL"/>
</g>

<g transform="matrix( 8.099945068359375, 0, 0, 8.099945068359375, -2002,-1891.65) ">
<use xlink:href="#Layer0_0_MEMBER_3_MEMBER_1_MEMBER_11_MEMBER_1_FILL"/>
</g>

<g transform="matrix( 8.099945068359375, 0, 0, 8.099945068359375, 718.35,835.55) ">
<use xlink:href="#Layer0_0_MEMBER_4_MEMBER_0_FILL"/>
</g>

<g transform="matrix( 8.099945068359375, 0, 0, 8.099945068359375, 578.6,931.55) ">
<use xlink:href="#Layer0_0_MEMBER_4_MEMBER_1_FILL"/>
</g>

<g transform="matrix( 8.099945068359375, 0, 0, 8.099945068359375, 638.95,890.65) ">
<use xlink:href="#Layer0_0_MEMBER_4_MEMBER_2_FILL"/>
</g>

<g transform="matrix( 8.099945068359375, 0, 0, 8.099945068359375, 645.05,866.75) ">
<use xlink:href="#Layer0_0_MEMBER_4_MEMBER_3_FILL"/>
</g>

<g transform="matrix( 8.099945068359375, 0, 0, 8.099945068359375, 651.1,844.45) ">
<use xlink:href="#Layer0_0_MEMBER_4_MEMBER_4_FILL"/>
</g>

<g transform="matrix( 8.099945068359375, 0, 0, 8.099945068359375, 657.2,822.2) ">
<use xlink:href="#Layer0_0_MEMBER_4_MEMBER_5_FILL"/>
</g>

<g transform="matrix( 8.099945068359375, 0, 0, 8.099945068359375, 663.25,800.35) ">
<use xlink:href="#Layer0_0_MEMBER_4_MEMBER_6_FILL"/>
</g>

<g transform="matrix( 8.099945068359375, 0, 0, 8.099945068359375, 669.35,778.05) ">
<use xlink:href="#Layer0_0_MEMBER_4_MEMBER_7_FILL"/>
</g>

<g transform="matrix( 8.099945068359375, 0, 0, 8.099945068359375, -2002,-1891.65) ">
<use xlink:href="#Layer0_0_MEMBER_4_MEMBER_8_FILL"/>
</g>

<g transform="matrix( 8.099945068359375, 0, 0, 8.099945068359375, 725.25,808.45) ">
<use xlink:href="#Layer0_0_MEMBER_4_MEMBER_9_FILL"/>
</g>

<g transform="matrix( 8.099945068359375, 0, 0, 8.099945068359375, 732.1,782.9) ">
<use xlink:href="#Layer0_0_MEMBER_4_MEMBER_10_FILL"/>
</g>

<g transform="matrix( 8.099945068359375, 0, 0, 8.099945068359375, 739.4,757.4) ">
<use xlink:href="#Layer0_0_MEMBER_4_MEMBER_11_FILL"/>
</g>

<g transform="matrix( 8.099945068359375, 0, 0, 8.099945068359375, 746.3,731.9) ">
<use xlink:href="#Layer0_0_MEMBER_4_MEMBER_12_FILL"/>
</g>

<g transform="matrix( 8.099945068359375, 0, 0, 8.099945068359375, 753.15,706.35) ">
<use xlink:href="#Layer0_0_MEMBER_4_MEMBER_13_FILL"/>
</g>

<g transform="matrix( 8.099945068359375, 0, 0, 8.099945068359375, -2002,-1891.65) ">
<use xlink:href="#Layer0_0_MEMBER_4_MEMBER_14_FILL"/>
</g>

<g transform="matrix( 8.099945068359375, 0, 0, 8.099945068359375, 586.7,917.8) ">
<use xlink:href="#Layer0_0_MEMBER_4_MEMBER_15_FILL"/>
</g>

<g transform="matrix( 8.099945068359375, 0, 0, 8.099945068359375, 591.6,899.95) ">
<use xlink:href="#Layer0_0_MEMBER_4_MEMBER_16_FILL"/>
</g>

<g transform="matrix( 8.099945068359375, 0, 0, 8.099945068359375, 596.45,882.55) ">
<use xlink:href="#Layer0_0_MEMBER_4_MEMBER_17_FILL"/>
</g>

<g transform="matrix( 8.099945068359375, 0, 0, 8.099945068359375, 600.9,864.7) ">
<use xlink:href="#Layer0_0_MEMBER_4_MEMBER_18_FILL"/>
</g>

<g transform="matrix( 8.099945068359375, 0, 0, 8.099945068359375, 605.75,847.3) ">
<use xlink:href="#Layer0_0_MEMBER_4_MEMBER_19_FILL"/>
</g>

<g transform="matrix( 8.099945068359375, 0, 0, 8.099945068359375, -9010.45,-3618.95) ">
<use xlink:href="#Layer0_0_MEMBER_4_MEMBER_20_FILL"/>
</g>
</svg>
