<?xml version="1.0" encoding="utf-8"?>
<svg version="1.1" xmlns:xlink="http://www.w3.org/1999/xlink" width="30px" height="19px" xmlns="http://www.w3.org/2000/svg">
  <g transform="matrix(1 0 0 1 -143 -964 )">
    <path d="M 1.7708333333333333 11.274725274725276  C 1.9097222222222223 11.553113553113555  2.1527777777777777 11.692307692307693  2.5 11.692307692307693  C 2.8472222222222223 11.692307692307693  3.0902777777777777 11.553113553113555  3.229166666666667 11.274725274725276  C 3.368055555555556 10.996336996336995  3.368055555555556 10.717948717948717  3.229166666666667 10.43956043956044  C 3.0902777777777777 10.16117216117216  2.8472222222222223 10.021978021978022  2.5 10.021978021978022  C 2.1527777777777777 10.021978021978022  1.9097222222222223 10.16117216117216  1.7708333333333333 10.43956043956044  C 1.6319444444444446 10.717948717948717  1.6319444444444446 10.996336996336995  1.7708333333333333 11.274725274725276  Z M 22.076822916666668 11.894574175824175  C 22.04644097222223 11.550938644688644  21.914062500000004 11.231227106227104  21.6796875 10.93543956043956  C 21.592881944444446 10.822344322344321  21.42578125 10.604853479853478  21.178385416666668 10.282967032967035  C 20.930989583333332 9.961080586080584  20.750868055555557 9.726190476190474  20.638020833333332 9.578296703296703  C 20.52517361111111 9.43040293040293  20.360243055555557 9.217261904761903  20.143229166666668 8.938873626373626  C 19.926215277777782 8.660485347985347  19.74175347222222 8.429945054945055  19.58984375 8.247252747252748  C 19.43793402777778 8.06456043956044  19.26215277777778 7.8601190476190474  19.0625 7.633928571428572  C 18.86284722222222 7.407738095238094  18.66753472222222 7.194597069597069  18.4765625 6.9945054945054945  L 16.848958333333332 8.821428571428571  C 16.128472222222225 9.639194139194139  15.223524305555557 10.039377289377288  14.134114583333334 10.021978021978022  C 13.044704861111114 10.004578754578752  12.15277777777778 9.578296703296703  11.458333333333332 8.743131868131869  C 10.963541666666666 8.142857142857144  10.718315972222223 7.455586080586079  10.72265625 6.681318681318681  C 10.726996527777779 5.907051282051282  10.980902777777779 5.224130036630035  11.484375 4.632554945054945  L 13.7890625 1.9443681318681314  C 13.59809027777778 1.8486721611721588  13.376736111111112 1.7769001831501812  13.125 1.729052197802198  C 12.87326388888889 1.6812042124542108  12.667100694444445 1.6551053113553098  12.506510416666668 1.650755494505495  C 12.34592013888889 1.6464056776556761  12.100694444444446 1.6485805860805844  11.770833333333334 1.6572802197802203  C 11.440972222222223 1.6659798534798518  11.228298611111112 1.6703296703296706  11.1328125 1.6703296703296706  C 10.33420138888889 1.6703296703296706  9.6484375 1.9574175824175817  9.075520833333334 2.531593406593406  L 7.018229166666666 4.593406593406594  L 5 4.593406593406594  L 5 11.692307692307693  C 5.043402777777778 11.692307692307693  5.134548611111112 11.690132783882786  5.2734375 11.685782967032965  C 5.412326388888889 11.68143315018315  5.5078125 11.68143315018315  5.559895833333333 11.685782967032965  C 5.611979166666666 11.690132783882786  5.696614583333334 11.698832417582416  5.813802083333334 11.711881868131867  C 5.930989583333334 11.724931318681318  6.019965277777779 11.744505494505495  6.080729166666666 11.770604395604396  C 6.141493055555557 11.796703296703297  6.217447916666668 11.833676739926737  6.30859375 11.881524725274724  C 6.399739583333334 11.929372710622708  6.480034722222223 11.988095238095237  6.549479166666666 12.057692307692307  L 10.416666666666666 15.868131868131869  C 11.414930555555557 16.833791208791208  12.400173611111114 17.31662087912088  13.372395833333334 17.31662087912088  C 14.049479166666666 17.31662087912088  14.592013888888891 17.112179487179485  15 16.703296703296704  C 15.494791666666668 16.877289377289376  15.983072916666666 16.842490842490843  16.46484375 16.5989010989011  C 16.946614583333332 16.355311355311354  17.26128472222222 15.985576923076923  17.408854166666664 15.489697802197803  C 18.051215277777782 15.541895604395604  18.602430555555557 15.350503663003664  19.0625 14.915521978021978  C 19.23611111111111 14.758928571428571  19.392361111111114 14.561011904761903  19.53125 14.321771978021978  C 19.67013888888889 14.08253205128205  19.73090277777778 13.8628663003663  19.713541666666668 13.662774725274724  C 19.80034722222222 13.749771062271064  19.986979166666664 13.79326923076923  20.2734375 13.79326923076923  C 20.64670138888889 13.79326923076923  20.980902777777782 13.701923076923077  21.276041666666664 13.51923076923077  C 21.57118055555556 13.33653846153846  21.78602430555556 13.105998168498168  21.920572916666664 12.82760989010989  C 22.05512152777778 12.54922161172161  22.10720486111111 12.238209706959706  22.076822916666668 11.894574175824175  Z M 22.96875 9.865384615384613  C 23.42013888888889 10.43956043956044  23.680555555555557 11.048534798534797  23.75 11.692307692307693  L 25 11.692307692307693  L 25 5.01098901098901  L 23.7890625 5.01098901098901  L 21.744791666666664 2.662087912087911  C 21.171875 2.00091575091575  20.438368055555557 1.6703296703296706  19.544270833333332 1.6703296703296706  L 17.369791666666668 1.6703296703296706  C 16.597222222222225 1.6703296703296706  15.963541666666668 1.9617673992673987  15.46875 2.5446428571428568  L 12.747395833333332 5.715659340659341  C 12.50434027777778 6.002747252747253  12.382812500000002 6.328983516483517  12.3828125 6.694368131868131  C 12.382812500000002 7.059752747252747  12.500000000000002 7.38598901098901  12.734375 7.673076923076923  C 13.10763888888889 8.116758241758243  13.585069444444446 8.342948717948717  14.166666666666666 8.351648351648352  C 14.74826388888889 8.360347985347985  15.230034722222221 8.147206959706958  15.611979166666668 7.712225274725275  L 18.125 4.867445054945055  C 18.34201388888889 4.667353479853478  18.57421875 4.573832417582418  18.821614583333332 4.586881868131869  C 19.069010416666668 4.599931318681319  19.27300347222222 4.717376373626374  19.43359375 4.939217032967032  C 19.59418402777778 5.161057692307693  19.63107638888889 5.406822344322344  19.544270833333332 5.67651098901099  C 19.68315972222222 5.841804029304029  19.926215277777782 6.11584249084249  20.2734375 6.498626373626374  C 20.62065972222222 6.8814102564102555  20.88107638888889 7.177197802197802  21.0546875 7.38598901098901  C 21.306423611111114 7.699175824175824  21.66449652777778 8.158081501831502  22.12890625 8.762706043956044  C 22.59331597222222 9.367330586080584  22.87326388888889 9.73489010989011  22.96875 9.865384615384613  Z M 26.770833333333336 11.274725274725276  C 26.90972222222223 11.553113553113555  27.15277777777778 11.692307692307693  27.5 11.692307692307693  C 27.84722222222223 11.692307692307693  28.09027777777778 11.553113553113555  28.229166666666668 11.274725274725276  C 28.36805555555556 10.996336996336995  28.36805555555556 10.717948717948717  28.229166666666668 10.43956043956044  C 28.09027777777778 10.16117216117216  27.84722222222223 10.021978021978022  27.5 10.021978021978022  C 27.15277777777778 10.021978021978022  26.90972222222223 10.16117216117216  26.770833333333336 10.43956043956044  C 26.631944444444446 10.717948717948717  26.631944444444446 10.996336996336995  26.770833333333336 11.274725274725276  Z M 29.752604166666668 3.588598901098901  C 29.917534722222225 3.7538919413919385  30 3.949633699633698  30 4.175824175824176  L 30 12.527472527472527  C 30 12.753663003663002  29.917534722222225 12.949404761904763  29.752604166666668 13.114697802197803  C 29.587673611111114 13.279990842490841  29.392361111111114 13.362637362637361  29.166666666666668 13.362637362637361  L 23.515625 13.362637362637361  C 23.281250000000004 13.928113553113553  22.92534722222223 14.391369047619047  22.447916666666664 14.752403846153847  C 21.970486111111114 15.113438644688646  21.42795138888889 15.33745421245421  20.8203125 15.42445054945055  C 20.53385416666667 15.842032967032967  20.184461805555557 16.19654304029304  19.772135416666668 16.48798076923077  C 19.35980902777778 16.779418498168496  18.914930555555557 16.977335164835164  18.4375 17.08173076923077  C 18.072916666666668 17.542811355311354  17.61935763888889 17.897321428571427  17.076822916666668 18.14526098901099  C 16.534288194444446 18.39320054945055  15.976562500000002 18.499771062271066  15.403645833333336 18.464972527472526  C 14.8828125 18.760760073260073  14.3359375 18.932577838827836  13.763020833333334 18.980425824175825  C 13.190104166666666 19.02827380952381  12.63671875 18.967376373626372  12.102864583333332 18.797733516483518  C 11.569010416666668 18.628090659340657  11.061197916666666 18.395375457875456  10.579427083333332 18.099587912087912  C 10.09765625 17.803800366300365  9.6484375 17.4514652014652  9.231770833333332 17.04258241758242  L 5.494791666666666 13.362637362637361  L 0.8333333333333333 13.362637362637361  C 0.607638888888889 13.362637362637361  0.4123263888888889 13.279990842490841  0.24739583333333334 13.114697802197803  C 0.08246527777777778 12.949404761904763  0 12.753663003663002  0 12.527472527472527  L 0 3.7582417582417573  C 0 3.53205128205128  0.08246527777777778 3.3363095238095224  0.24739583333333334 3.1710164835164827  C 0.4123263888888889 3.005723443223443  0.607638888888889 2.9230769230769234  0.8333333333333333 2.9230769230769234  L 6.315104166666666 2.9230769230769234  C 6.436631944444445 2.8012820512820498  6.640625 2.5924908424908395  6.927083333333334 2.296703296703297  C 7.213541666666667 2.00091575091575  7.419704861111112 1.792124542124542  7.545572916666666 1.6703296703296706  C 7.671440972222224 1.5485347985347973  7.862413194444445 1.3745421245421239  8.118489583333332 1.1483516483516485  C 8.374565972222223 0.922161172161171  8.59375 0.7590430402930376  8.776041666666666 0.6589972527472525  C 8.958333333333334 0.5589514652014632  9.1796875 0.44803113553113394  9.440104166666666 0.3262362637362647  C 9.700520833333332 0.2044413919413891  9.969618055555555 0.11961996336996084  10.247395833333334 0.07177197802197777  C 10.525173611111114 0.02392399267399259  10.820312500000002 0  11.1328125 0  L 12.65625 0  C 13.515625 0  14.30121527777778 0.24358974358974061  15.013020833333334 0.7307692307692303  C 15.72482638888889 0.24358974358974061  16.510416666666668 0  17.369791666666668 0  L 19.544270833333332 0  C 19.848090277777775 0  20.13888888888889 0.026098901098901006  20.416666666666668 0.07829670329670302  C 20.694444444444446 0.13049450549450503  20.93967013888889 0.19356684981684913  21.15234375 0.2675137362637353  C 21.365017361111114 0.3414606227106215  21.588541666666668 0.4567307692307697  21.822916666666668 0.6133241758241758  C 22.057291666666668 0.7699175824175818  22.25043402777778 0.9047619047619037  22.40234375 1.0178571428571435  C 22.55425347222222 1.1309523809523792  22.740885416666664 1.302770146520146  22.962239583333336 1.5333104395604404  C 23.18359375 1.7638507326007304  23.352864583333332 1.9465430402930375  23.470052083333332 2.0813873626373636  C 23.587239583333332 2.2162316849816834  23.76519097222222 2.4250228937728937  24.00390625 2.70776098901099  C 24.24262152777778 2.990499084249082  24.422743055555557 3.2014652014652007  24.544270833333336 3.3406593406593412  L 29.166666666666668 3.3406593406593412  C 29.392361111111114 3.3406593406593412  29.587673611111114 3.423305860805859  29.752604166666668 3.588598901098901  Z " fill-rule="nonzero" fill="#ffffff" stroke="none" transform="matrix(1 0 0 1 143 964 )" />
  </g>
</svg>