<?xml version="1.0" encoding="utf-8"?>
<!-- Generator: Adobe Illustrator 21.0.0, SVG Export Plug-In . SVG Version: 6.00 Build 0)  -->
<svg version="1.1" xmlns="http://www.w3.org/2000/svg" xmlns:xlink="http://www.w3.org/1999/xlink" x="0px" y="0px"
	 viewBox="0 0 1024 1024" style="enable-background:new 0 0 1024 1024;" xml:space="preserve">
<style type="text/css">
	.st0{display:none;}
	.st1{display:inline;}
	.st2{opacity:0.25;}
	.st3{display:inline;opacity:0.25;}
	.st4{enable-background:new    ;}
	.st5{fill:url(#SVGID_1_);}
	.st6{fill:url(#SVGID_2_);}
	.st7{fill:url(#SVGID_3_);}
	.st8{clip-path:url(#SVGID_6_);enable-background:new    ;}
	.st9{fill:url(#SVGID_7_);}
	.st10{fill:url(#SVGID_8_);}
	.st11{fill:url(#SVGID_9_);}
	.st12{fill:url(#SVGID_10_);}
	.st13{fill:url(#SVGID_11_);}
	.st14{fill:url(#SVGID_12_);}
	.st15{fill:url(#SVGID_13_);}
	.st16{fill:url(#SVGID_14_);}
	.st17{fill:url(#SVGID_15_);}
	.st18{fill:url(#SVGID_16_);}
	.st19{fill:url(#SVGID_17_);}
	.st20{fill:url(#SVGID_18_);}
	.st21{fill:#FFE6A1;}
	.st22{fill:#858A84;}
	.st23{fill:#242100;}
	.st24{fill:#3F2F20;}
	.st25{fill:#E5AD65;}
	.st26{fill:url(#SVGID_19_);}
	.st27{fill:url(#SVGID_20_);}
	.st28{fill:url(#SVGID_21_);}
	.st29{fill:url(#SVGID_22_);}
	.st30{fill:url(#SVGID_23_);}
	.st31{fill:url(#SVGID_24_);}
	.st32{fill:url(#SVGID_25_);}
	.st33{fill:url(#SVGID_26_);}
	.st34{fill:url(#SVGID_27_);}
	.st35{fill:url(#SVGID_28_);}
	.st36{fill:url(#SVGID_29_);}
	.st37{fill:url(#SVGID_30_);}
	.st38{fill:#FFFFFF;}
	.st39{fill:url(#SVGID_33_);}
	.st40{fill:url(#SVGID_34_);}
	.st41{fill:url(#SVGID_35_);}
	.st42{fill:url(#SVGID_36_);}
</style>
<g id="图层_1" class="st0">
	<g id="bg">
		<g id="图层_2" class="st1">
			<g id="图标参考线">
				<g id="图标尺寸" class="st2">
					<path d="M1018.2,5.8v1012.5H5.8V5.8H1018.2 M1024,0H0v1024h1024V0z"/>
					<path d="M512,28.8c266.9,0,483.2,216.4,483.2,483.2S778.9,995.2,512,995.2S28.8,778.9,28.8,512S245.1,28.8,512,28.8 M512,23
						C241.9,23,23,241.9,23,512s218.9,489,489,489s489-218.9,489-489C1000.7,242,782,23.3,512,23z"/>
					<path d="M949.2,74.8v874.4H74.8V74.8H949.2 M955,69H69v886h886V69z"/>
					<path d="M995.2,28.8v966.5H28.8V28.8H995.2 M1001,23H23v978h978V23z"/>
					<path d="M995.2,189.8v644.3H28.8V189.8H995.2 M1001,184.1H23v655.8h978V184.1z"/>
				</g>
			</g>
		</g>
	</g>
	<g id="图标尺寸_1_" class="st3">
		<g>
			<path d="M1017.1,4.6v1010.2H6.9V4.6L1017.1,4.6 M1021.7,0h-6.9H4.6H0v6.9v1010.2v6.9h6.9h1010.2h6.9v-6.9V6.9V0H1021.7z"/>
		</g>
		<g>
			<path d="M512,27.6c266.3,0,482.2,215.8,482.2,482.2S778.3,991.9,512,991.9S29.8,776.1,29.8,509.7S245.7,27.6,512,27.6 M512,23
				c-268.6,0-489,218.1-489,486.7s218.1,486.7,489,486.7s489-218.1,489-486.7S780.6,23,512,23L512,23z"/>
		</g>
		<g>
			<path d="M948.2,73.5V946H75.8V73.5L948.2,73.5 M952.8,68.9h-6.9H73.5h-4.6v6.9v872.5v6.9h6.9h872.5h6.9v-6.9V75.8v-6.9H952.8z"/>
		</g>
		<g>
			<path d="M994.1,27.6v964.3H29.8V27.6L994.1,27.6 M998.7,23h-6.9H27.5h-4.6v6.9v964.3v6.9h6.9h964.3h6.9v-6.9V29.9V23H998.7z"/>
		</g>
		<g>
			<path d="M994.1,188.3v642.9H29.8V188.3L994.1,188.3 M998.7,183.7h-6.9H27.5h-4.6v4.6v642.9v6.9h6.9h964.3h6.9v-6.9V188.3v-4.6
				H998.7z"/>
		</g>
	</g>
</g>
<g id="图层_2_1_">
	<g>
		<g class="st4">
			<linearGradient id="SVGID_1_" gradientUnits="userSpaceOnUse" x1="102.6409" y1="781.9824" x2="941.4648" y2="781.9824">
				<stop  offset="0" style="stop-color:#7365E0"/>
				<stop  offset="1" style="stop-color:#9180F2"/>
			</linearGradient>
			<path class="st5" d="M657.1,736.6l-17.2,10c-4.1,2-8.2,4-12.4,5.9c-1.4,0.6-2.8,1.2-4.2,1.8c-2.8,1.2-5.7,2.5-8.5,3.6
				c-1.7,0.7-3.5,1.3-5.2,2c-2.6,1-5.2,2.1-7.9,3c-1.9,0.7-3.8,1.3-5.7,2c-2.6,0.9-5.1,1.8-7.7,2.6c-1.8,0.6-3.6,1.1-5.3,1.7
				c-3,0.9-5.9,1.8-8.9,2.7c-2,0.6-3.9,1.1-5.9,1.6c-2.9,0.8-5.7,1.6-8.6,2.3c-2.1,0.5-4.1,1-6.2,1.5c-2.9,0.7-5.7,1.4-8.6,2
				c-2.1,0.5-4.2,0.9-6.3,1.4c-2.9,0.6-5.8,1.2-8.7,1.7c-1.9,0.4-3.9,0.7-5.8,1.1c-6.1,1.1-12.3,2.1-18.5,3
				c-0.5,0.1-0.9,0.1-1.4,0.2c-5.8,0.8-11.6,1.5-17.5,2.1c-1.8,0.2-3.7,0.4-5.5,0.5c-3.7,0.3-7.4,0.6-11.1,0.9
				c-1.9,0.1-3.8,0.3-5.6,0.4c-4.5,0.3-9,0.5-13.6,0.7c-1,0-2.1,0.1-3.1,0.1c-5.3,0.2-10.5,0.3-15.8,0.3c-1.2,0-2.5,0-3.7,0
				c-4.1,0-8.1,0-12.2-0.1c-2.1,0-4.1-0.1-6.2-0.2c-3.1-0.1-6.1-0.2-9.2-0.4c-2.2-0.1-4.4-0.3-6.5-0.4c-3-0.2-5.9-0.4-8.9-0.6
				c-2.2-0.2-4.5-0.4-6.7-0.6c-2.9-0.3-5.7-0.5-8.6-0.8c-2.3-0.2-4.5-0.5-6.8-0.8c-2.8-0.3-5.7-0.7-8.5-1.1
				c-2.2-0.3-4.4-0.6-6.6-0.9c-3-0.4-6-0.9-9-1.4c-2.1-0.4-4.2-0.7-6.4-1.1c-3.1-0.5-6.1-1.1-9.1-1.7c-2-0.4-4-0.8-5.9-1.2
				c-4.6-1-9.1-2-13.6-3.1c-0.7-0.2-1.4-0.3-2.2-0.5c-5.2-1.3-10.4-2.7-15.5-4.1c-1.1-0.3-2.3-0.7-3.4-1c-5.1-1.5-10-3-15-4.7
				c-1.4-0.5-2.8-0.9-4.2-1.4c-5.7-2-11.4-4-16.9-6.2c-2.3-0.9-4.6-1.9-6.9-2.8c-1.8-0.7-3.6-1.5-5.3-2.2c-2.4-1.1-4.8-2.2-7.2-3.3
				c-1.6-0.7-3.3-1.5-4.9-2.2c-2.7-1.3-5.2-2.6-7.8-3.9c-1.3-0.7-2.6-1.3-3.9-1.9c-3.8-2-7.6-4.1-11.4-6.2
				c-64.1-37-96.1-85.4-95.9-133.8L102.6,804c-0.1,48.3,31.8,96.8,95.9,133.8c3.7,2.1,7.5,4.2,11.4,6.2c1.3,0.7,2.6,1.3,3.9,1.9
				c2.6,1.3,5.2,2.7,7.8,3.9c1.6,0.8,3.3,1.5,4.9,2.2c2.4,1.1,4.8,2.2,7.2,3.3c1.8,0.8,3.6,1.5,5.3,2.2c2,0.8,4.1,1.7,6.1,2.5
				c0.2,0.1,0.5,0.2,0.7,0.3c5.6,2.2,11.2,4.2,16.9,6.2c1.4,0.5,2.8,0.9,4.2,1.4c4.9,1.6,9.9,3.2,15,4.7c0.8,0.2,1.5,0.5,2.3,0.7
				c0.4,0.1,0.7,0.2,1.1,0.3c5.1,1.4,10.3,2.8,15.5,4.1c0.7,0.2,1.4,0.3,2.2,0.5c4.5,1.1,9.1,2.1,13.6,3.1c0.5,0.1,1.1,0.3,1.6,0.4
				c1.4,0.3,2.9,0.5,4.3,0.8c3,0.6,6.1,1.2,9.1,1.7c2.1,0.4,4.2,0.7,6.4,1.1c3,0.5,6,1,9,1.4c1.1,0.2,2.2,0.4,3.2,0.5
				c1.1,0.2,2.2,0.3,3.4,0.4c2.8,0.4,5.6,0.7,8.5,1.1c2.2,0.3,4.5,0.5,6.8,0.8c2.9,0.3,5.7,0.6,8.6,0.8c1.4,0.1,2.9,0.3,4.3,0.4
				c0.8,0.1,1.6,0.1,2.4,0.2c2.9,0.2,5.9,0.4,8.9,0.6c2.2,0.1,4.4,0.3,6.5,0.4c3.1,0.2,6.1,0.3,9.2,0.4c1.7,0.1,3.3,0.2,5,0.2
				c0.4,0,0.8,0,1.2,0c4.1,0.1,8.1,0.1,12.2,0.1c1.2,0,2.5,0,3.7,0c5.3,0,10.6-0.1,15.8-0.3c0.2,0,0.3,0,0.5,0
				c0.9,0,1.7-0.1,2.6-0.1c4.5-0.2,9.1-0.4,13.6-0.7c1.9-0.1,3.8-0.3,5.6-0.4c3.7-0.3,7.4-0.6,11.1-0.9c1-0.1,2-0.2,3.1-0.3
				c0.8-0.1,1.6-0.2,2.5-0.3c5.9-0.6,11.7-1.3,17.5-2.1c0.5-0.1,0.9-0.1,1.4-0.2c6.2-0.9,12.3-1.9,18.5-3c0.7-0.1,1.4-0.2,2.1-0.3
				c1.2-0.2,2.5-0.5,3.7-0.7c2.9-0.6,5.8-1.1,8.7-1.7c2.1-0.4,4.2-0.9,6.3-1.4c2.9-0.6,5.8-1.3,8.6-2c2.1-0.5,4.1-1,6.2-1.5
				c2.9-0.7,5.8-1.5,8.6-2.3c2-0.5,3.9-1.1,5.9-1.6c3-0.9,6-1.8,8.9-2.7c1.4-0.4,2.8-0.8,4.2-1.3c0.4-0.1,0.7-0.3,1.1-0.4
				c2.6-0.9,5.2-1.8,7.7-2.6c1.9-0.7,3.8-1.3,5.7-2c2.7-1,5.3-2,7.9-3c1.7-0.7,3.5-1.3,5.2-2c2.9-1.2,5.7-2.4,8.5-3.6
				c1.4-0.6,2.8-1.2,4.2-1.8c4.2-1.9,8.3-3.8,12.4-5.9l17.2-10l284.3-165.2l0.6-200.9L657.1,736.6z"/>
			<g>
				<g>
					<linearGradient id="SVGID_2_" gradientUnits="userSpaceOnUse" x1="103.2105" y1="548.9005" x2="941.4648" y2="548.9005">
						<stop  offset="0" style="stop-color:#9180F2"/>
						<stop  offset="1" style="stop-color:#7365E0"/>
					</linearGradient>
					<path class="st6" d="M941.5,571.3L657.1,736.6l-17.2,10c-127.4,63.3-319.7,60.2-440.8-9.7C77.5,666.6,71.6,555.3,181.1,481.7
						l16-10.1L482,306L941.5,571.3z"/>
				</g>
			</g>
		</g>
	</g>
	<g>
		<g class="st4">
			<g>
				<linearGradient id="SVGID_3_" gradientUnits="userSpaceOnUse" x1="479.0954" y1="435.4494" x2="479.7868" y2="435.4494">
					<stop  offset="0" style="stop-color:#FFCB27"/>
					<stop  offset="1" style="stop-color:#FFA21E"/>
				</linearGradient>
				<polygon class="st7" points="479.8,418.2 479.5,522.8 479.1,452.7 479.4,348.1 				"/>
			</g>
			<g class="st4">
				<defs>
					<path id="SVGID_4_" class="st4" d="M579.6,435.6l-0.3,104.7c0,2.4-0.5,4.6-1.5,6.8l0.3-104.7
						C579.1,440.2,579.6,437.9,579.6,435.6z"/>
				</defs>
				<linearGradient id="SVGID_5_" gradientUnits="userSpaceOnUse" x1="577.895" y1="491.2779" x2="579.6498" y2="491.2779">
					<stop  offset="0" style="stop-color:#FFCB27"/>
					<stop  offset="1" style="stop-color:#FFA21E"/>
				</linearGradient>
				<use xlink:href="#SVGID_4_"  style="overflow:visible;fill:url(#SVGID_5_);"/>
				<clipPath id="SVGID_6_">
					<use xlink:href="#SVGID_4_"  style="overflow:visible;"/>
				</clipPath>
				<g class="st8">
					<linearGradient id="SVGID_7_" gradientUnits="userSpaceOnUse" x1="579.3464" y1="488.0944" x2="579.6498" y2="488.0944">
						<stop  offset="0" style="stop-color:#FFCB27"/>
						<stop  offset="1" style="stop-color:#FFA21E"/>
					</linearGradient>
					<path class="st9" d="M579.6,435.6l-0.3,104.7c0,0.1,0,0.3,0,0.4l0.3-104.7C579.6,435.8,579.6,435.7,579.6,435.6"/>
					<linearGradient id="SVGID_8_" gradientUnits="userSpaceOnUse" x1="579.0328" y1="489.666" x2="579.6432" y2="489.666">
						<stop  offset="0" style="stop-color:#FFCB27"/>
						<stop  offset="1" style="stop-color:#FFA21E"/>
					</linearGradient>
					<path class="st10" d="M579.6,436l-0.3,104.7c0,0.9-0.1,1.8-0.3,2.7l0.3-104.7C579.5,437.8,579.6,436.9,579.6,436"/>
					<linearGradient id="SVGID_9_" gradientUnits="userSpaceOnUse" x1="578.2121" y1="492.4519" x2="579.3295" y2="492.4519">
						<stop  offset="0" style="stop-color:#FFCB27"/>
						<stop  offset="1" style="stop-color:#FFA21E"/>
					</linearGradient>
					<path class="st11" d="M579.3,438.7L579,543.4c-0.2,1-0.5,1.9-0.8,2.8l0.3-104.7C578.9,440.6,579.1,439.7,579.3,438.7"/>
					<linearGradient id="SVGID_10_" gradientUnits="userSpaceOnUse" x1="577.895" y1="494.2727" x2="578.5088" y2="494.2727">
						<stop  offset="0" style="stop-color:#FFCB27"/>
						<stop  offset="1" style="stop-color:#FFA21E"/>
					</linearGradient>
					<path class="st12" d="M578.5,441.5l-0.3,104.7c-0.1,0.3-0.2,0.5-0.3,0.8l0.3-104.7C578.3,442.1,578.4,441.8,578.5,441.5"/>
				</g>
			</g>
			<linearGradient id="SVGID_11_" gradientUnits="userSpaceOnUse" x1="340.1812" y1="495.4756" x2="444.2069" y2="495.4756">
				<stop  offset="0" style="stop-color:#FFCB27"/>
				<stop  offset="1" style="stop-color:#FFA21E"/>
			</linearGradient>
			<path class="st13" d="M355.2,427.7c-9.8-5.7-14.8-13.1-14.7-20.6l-0.3,104.7c0,7.4,4.9,14.9,14.7,20.6l89,51.4l0.3-104.7
				L355.2,427.7z"/>
			<linearGradient id="SVGID_12_" gradientUnits="userSpaceOnUse" x1="619.9117" y1="537.1612" x2="791.0468" y2="537.1612">
				<stop  offset="0" style="stop-color:#FFCB27"/>
				<stop  offset="1" style="stop-color:#FFA21E"/>
			</linearGradient>
			<path class="st14" d="M790.9,472.2c0,0.5-0.1,0.9-0.2,1.4c-0.1,0.5-0.3,1-0.4,1.5c-0.1,0.4-0.2,0.9-0.4,1.3
				c-0.2,0.4-0.4,0.9-0.6,1.3c-0.2,0.5-0.4,1-0.7,1.5c-0.2,0.3-0.4,0.7-0.6,1c-0.4,0.6-0.8,1.2-1.2,1.8c-0.2,0.3-0.5,0.6-0.8,0.9
				c-0.6,0.8-1.3,1.5-2.1,2.2c-0.3,0.3-0.6,0.6-0.9,0.9c-0.5,0.5-1.1,0.9-1.6,1.4c-0.4,0.3-0.8,0.7-1.3,1c-0.6,0.4-1.3,0.9-1.9,1.3
				c-0.4,0.3-0.8,0.6-1.3,0.8c-1.5,0.9-3.1,1.7-4.8,2.5c-0.4,0.2-0.8,0.3-1.2,0.5c-1.5,0.7-3.2,1.3-4.8,1.9
				c-0.3,0.1-0.5,0.2-0.8,0.3c-0.9,0.3-1.9,0.6-2.9,0.8c-0.5,0.1-1,0.3-1.6,0.4c-1.4,0.3-2.8,0.6-4.2,0.9c-0.2,0-0.3,0.1-0.5,0.1
				c-1.9,0.3-3.8,0.6-5.7,0.8c-0.7,0.1-1.4,0.1-2.1,0.2c-1,0.1-2,0.2-3.1,0.2c-1.3,0.1-2.6,0.1-4,0.1l-121.1,0l-0.3,104.7l121.1,0
				c1,0,2,0,3-0.1c0.3,0,0.6,0,1-0.1c1,0,2.1-0.1,3.1-0.2c0.5,0,1,0,1.5-0.1c0.2,0,0.4-0.1,0.6-0.1c2-0.2,3.9-0.5,5.7-0.8
				c0,0,0,0,0,0c0.2,0,0.4-0.1,0.6-0.1c1.4-0.3,2.7-0.5,4.1-0.9c0.5-0.1,1-0.3,1.6-0.4c1-0.3,2-0.5,2.9-0.8c0.1,0,0.2,0,0.3-0.1
				c0.2-0.1,0.4-0.1,0.6-0.2c1.7-0.6,3.3-1.2,4.8-1.8c0.4-0.2,0.8-0.3,1.2-0.5c1.7-0.8,3.3-1.6,4.8-2.5c0.1,0,0.2-0.1,0.2-0.1
				c0.4-0.2,0.7-0.5,1.1-0.7c0.7-0.4,1.3-0.8,1.9-1.3c0.4-0.3,0.8-0.7,1.3-1c0.6-0.4,1.1-0.9,1.6-1.4c0.1-0.1,0.3-0.2,0.4-0.4
				c0.2-0.2,0.3-0.4,0.5-0.5c0.8-0.7,1.4-1.5,2.1-2.2c0.2-0.2,0.4-0.4,0.5-0.5c0.1-0.1,0.2-0.3,0.2-0.4c0.5-0.6,0.8-1.2,1.2-1.8
				c0.2-0.3,0.4-0.5,0.5-0.8c0-0.1,0.1-0.2,0.1-0.2c0.3-0.5,0.5-1,0.7-1.5c0.2-0.4,0.4-0.7,0.5-1.1c0-0.1,0-0.1,0.1-0.2
				c0.2-0.4,0.3-0.9,0.4-1.3c0.1-0.4,0.3-0.8,0.4-1.3c0-0.1,0-0.2,0-0.3c0.1-0.4,0.1-0.9,0.2-1.4c0-0.4,0.1-0.8,0.1-1.3
				c0-0.2,0-0.4,0-0.6l0.3-104.7C791.1,471,791,471.6,790.9,472.2z"/>
			<g>
				<linearGradient id="SVGID_13_" gradientUnits="userSpaceOnUse" x1="488.062" y1="580.0698" x2="515" y2="580.0698">
					<stop  offset="0" style="stop-color:#FFCB27"/>
					<stop  offset="1" style="stop-color:#FFA21E"/>
				</linearGradient>
				<polygon class="st15" points="515,520 514.7,624.7 488.1,640.1 488.4,535.5 				"/>
			</g>
			<linearGradient id="SVGID_14_" gradientUnits="userSpaceOnUse" x1="243.2068" y1="551.831" x2="347.2325" y2="551.831">
				<stop  offset="0" style="stop-color:#FFCB27"/>
				<stop  offset="1" style="stop-color:#FFA21E"/>
			</linearGradient>
			<path class="st16" d="M258.2,484.1c-9.8-5.7-14.8-13.1-14.7-20.6l-0.3,104.7c0,7.4,4.9,14.9,14.7,20.6l89,51.4l0.3-104.7
				L258.2,484.1z"/>
			<linearGradient id="SVGID_15_" gradientUnits="userSpaceOnUse" x1="514.7034" y1="602.2419" x2="689.0655" y2="602.2419">
				<stop  offset="0" style="stop-color:#FFCB27"/>
				<stop  offset="1" style="stop-color:#FFA21E"/>
			</linearGradient>
			<path class="st17" d="M688.9,552.5c0,0.5-0.1,1-0.2,1.6c-0.1,0.4-0.2,0.9-0.3,1.3c-0.1,0.5-0.3,1-0.4,1.5
				c-0.1,0.4-0.3,0.8-0.5,1.2c-0.2,0.5-0.5,1-0.7,1.6c-0.2,0.4-0.4,0.7-0.7,1.1c-0.4,0.6-0.7,1.2-1.2,1.7c-0.3,0.3-0.5,0.7-0.8,1
				c-0.6,0.8-1.3,1.5-2.1,2.3c-0.3,0.3-0.5,0.5-0.8,0.8c-0.5,0.4-1,0.8-1.5,1.3c-0.5,0.4-0.9,0.7-1.4,1.1c-0.6,0.4-1.2,0.8-1.8,1.2
				c-0.6,0.4-1.2,0.8-1.9,1.2c-1.5,0.9-3.1,1.6-4.7,2.4c-0.5,0.2-0.9,0.4-1.4,0.6c-1.3,0.5-2.6,1-3.9,1.5c-0.5,0.2-0.9,0.3-1.4,0.5
				c-0.8,0.3-1.7,0.5-2.6,0.7c-0.6,0.2-1.3,0.4-1.9,0.5c-0.9,0.2-1.8,0.4-2.8,0.6c-0.6,0.1-1.2,0.3-1.9,0.4
				c-1.9,0.3-3.8,0.6-5.7,0.8c-0.6,0.1-1.2,0.1-1.8,0.1c-1.1,0.1-2.2,0.2-3.4,0.2c-0.7,0-1.4,0-2.2,0.1c-0.9,0-1.8,0-2.7,0
				c-0.8,0-1.5,0-2.3-0.1c-0.8,0-1.7-0.1-2.5-0.1c-0.8-0.1-1.5-0.1-2.3-0.2c-0.8-0.1-1.7-0.2-2.5-0.3c-0.7-0.1-1.5-0.2-2.2-0.3
				c-0.9-0.1-1.8-0.3-2.7-0.5c-0.7-0.1-1.4-0.3-2.1-0.4c-1-0.2-2.1-0.5-3.1-0.8c-0.6-0.2-1.1-0.3-1.7-0.5c-1.8-0.5-3.6-1.1-5.3-1.8
				c-0.2-0.1-0.5-0.2-0.7-0.3c-2.4-1-4.6-2-6.7-3.2L515,520l-0.3,104.7l89,51.4c2.1,1.2,4.4,2.3,6.7,3.2c0.2,0.1,0.3,0.1,0.4,0.2
				c0.1,0,0.2,0.1,0.3,0.1c1.7,0.7,3.5,1.3,5.3,1.8c0.1,0,0.3,0.1,0.4,0.1c0.4,0.1,0.9,0.2,1.3,0.3c1,0.3,2.1,0.5,3.1,0.8
				c0.3,0.1,0.5,0.1,0.8,0.2c0.4,0.1,0.8,0.1,1.2,0.2c0.9,0.2,1.8,0.3,2.6,0.5c0.4,0.1,0.7,0.1,1.1,0.2c0.4,0.1,0.8,0.1,1.2,0.1
				c0.8,0.1,1.7,0.2,2.5,0.3c0.4,0,0.8,0.1,1.2,0.1c0.4,0,0.8,0,1.1,0.1c0.8,0.1,1.7,0.1,2.5,0.1c0.4,0,0.8,0.1,1.3,0.1
				c0.3,0,0.7,0,1,0c0.9,0,1.8,0,2.7,0c0.5,0,0.9,0,1.4,0c0.3,0,0.5,0,0.8-0.1c1.1,0,2.2-0.1,3.4-0.2c0.5,0,0.9,0,1.4-0.1
				c0.1,0,0.3,0,0.4-0.1c1.9-0.2,3.8-0.5,5.7-0.8c0.1,0,0.2,0,0.3,0c0.5-0.1,1.1-0.2,1.6-0.3c0.9-0.2,1.9-0.4,2.8-0.6
				c0.7-0.2,1.3-0.4,2-0.5c0.9-0.2,1.7-0.5,2.6-0.7c0.2-0.1,0.4-0.1,0.6-0.2c0.3-0.1,0.6-0.2,0.9-0.3c1.3-0.5,2.6-1,3.9-1.5
				c0.5-0.2,1-0.4,1.4-0.6c1.6-0.7,3.2-1.5,4.7-2.4c0.2-0.1,0.4-0.2,0.6-0.4c0.5-0.3,0.9-0.6,1.3-0.9c0.6-0.4,1.2-0.8,1.8-1.2
				c0.5-0.4,0.9-0.7,1.4-1.1c0.5-0.4,1.1-0.8,1.5-1.3c0.1-0.1,0.2-0.2,0.3-0.3c0.2-0.2,0.3-0.4,0.5-0.6c0.8-0.7,1.5-1.5,2.1-2.3
				c0.1-0.2,0.3-0.3,0.5-0.5c0.1-0.2,0.2-0.3,0.3-0.5c0.4-0.6,0.8-1.2,1.2-1.7c0.2-0.2,0.4-0.5,0.5-0.7c0.1-0.1,0.1-0.3,0.2-0.4
				c0.3-0.5,0.5-1,0.7-1.6c0.1-0.3,0.3-0.6,0.4-0.9c0-0.1,0.1-0.2,0.1-0.3c0.2-0.5,0.3-1,0.4-1.5c0.1-0.3,0.2-0.7,0.3-1
				c0-0.1,0-0.2,0-0.3c0.1-0.5,0.1-1,0.2-1.6c0-0.3,0.1-0.7,0.1-1c0-0.1,0-0.3,0-0.4l0.3-104.7C689.1,551.6,689,552.1,688.9,552.5z"
				/>
			<linearGradient id="SVGID_16_" gradientUnits="userSpaceOnUse" x1="257.8687" y1="654.5711" x2="418.0257" y2="654.5711">
				<stop  offset="0" style="stop-color:#FFCB27"/>
				<stop  offset="1" style="stop-color:#FFA21E"/>
			</linearGradient>
			<path class="st18" d="M343.5,619.7c-1.5,0.9-3.1,1.6-4.7,2.4c-0.5,0.2-0.9,0.4-1.4,0.6c-1.3,0.5-2.6,1-3.9,1.5
				c-0.5,0.2-0.9,0.3-1.4,0.5c-0.8,0.3-1.7,0.5-2.6,0.7c-0.7,0.2-1.3,0.4-2,0.5c-0.9,0.2-1.8,0.4-2.8,0.6c-0.6,0.1-1.3,0.3-1.9,0.4
				c-1.9,0.3-3.8,0.6-5.7,0.8c-0.6,0.1-1.2,0.1-1.8,0.1c-1.1,0.1-2.2,0.2-3.4,0.2c-0.7,0-1.4,0-2.2,0.1c-0.9,0-1.8,0-2.7,0
				c-0.8,0-1.5,0-2.3-0.1c-0.8,0-1.7-0.1-2.5-0.1c-0.8-0.1-1.5-0.1-2.3-0.2c-0.8-0.1-1.7-0.2-2.5-0.3c-0.7-0.1-1.5-0.2-2.2-0.3
				c-0.9-0.1-1.8-0.3-2.6-0.5c-0.7-0.1-1.4-0.3-2.1-0.4c-1-0.2-2.1-0.5-3.1-0.8c-0.6-0.2-1.2-0.3-1.7-0.5c-1.8-0.5-3.6-1.1-5.4-1.8
				c-0.2-0.1-0.5-0.2-0.7-0.3c-2.4-1-4.6-2-6.8-3.2c-9.8-5.7-14.8-13.1-14.7-20.6l-0.3,104.7c0,7.4,4.9,14.9,14.7,20.6
				c2.1,1.2,4.4,2.3,6.8,3.2c0.2,0.1,0.3,0.2,0.4,0.2c0.1,0,0.2,0.1,0.3,0.1c1.7,0.7,3.5,1.3,5.3,1.8c0.1,0,0.3,0.1,0.4,0.1
				c0.4,0.1,0.9,0.2,1.3,0.3c1,0.3,2,0.5,3.1,0.8c0.3,0.1,0.5,0.1,0.8,0.2c0.4,0.1,0.8,0.1,1.2,0.2c0.9,0.2,1.8,0.3,2.6,0.5
				c0.4,0.1,0.7,0.1,1.1,0.2c0.4,0.1,0.8,0.1,1.2,0.1c0.8,0.1,1.6,0.2,2.5,0.3c0.4,0,0.8,0.1,1.2,0.1c0.4,0,0.7,0,1.1,0.1
				c0.8,0.1,1.7,0.1,2.5,0.1c0.4,0,0.8,0.1,1.3,0.1c0.3,0,0.7,0,1,0c0.9,0,1.8,0,2.7,0c0.5,0,0.9,0,1.4,0c0.3,0,0.5,0,0.8-0.1
				c1.1,0,2.2-0.1,3.4-0.2c0.5,0,0.9,0,1.4-0.1c0.1,0,0.3,0,0.4-0.1c1.9-0.2,3.8-0.5,5.7-0.8c0.1,0,0.2,0,0.3,0
				c0.5-0.1,1.1-0.2,1.6-0.3c0.9-0.2,1.8-0.4,2.7-0.6c0.7-0.2,1.3-0.4,2-0.5c0.9-0.2,1.7-0.5,2.5-0.7c0.2-0.1,0.4-0.1,0.6-0.2
				c0.3-0.1,0.6-0.2,0.9-0.3c1.3-0.5,2.6-0.9,3.9-1.5c0.5-0.2,1-0.4,1.4-0.6c1.6-0.7,3.2-1.5,4.7-2.4l74.6-43.3l0.3-104.7
				L343.5,619.7z"/>
			<linearGradient id="SVGID_17_" gradientUnits="userSpaceOnUse" x1="417.729" y1="658.5971" x2="592.0914" y2="658.5971">
				<stop  offset="0" style="stop-color:#FFCB27"/>
				<stop  offset="1" style="stop-color:#FFA21E"/>
			</linearGradient>
			<path class="st19" d="M592,608.9c0,0.5-0.1,1.1-0.2,1.6c-0.1,0.4-0.2,0.8-0.3,1.3c-0.1,0.5-0.3,1-0.4,1.5
				c-0.1,0.4-0.3,0.8-0.5,1.2c-0.2,0.5-0.5,1-0.7,1.6c-0.2,0.4-0.4,0.7-0.7,1.1c-0.4,0.6-0.7,1.2-1.2,1.7c-0.3,0.3-0.5,0.7-0.8,1
				c-0.6,0.8-1.3,1.5-2.1,2.3c-0.3,0.3-0.5,0.5-0.8,0.8c-0.5,0.4-1,0.8-1.5,1.3c-0.5,0.4-0.9,0.7-1.4,1.1c-0.6,0.4-1.2,0.8-1.8,1.2
				c-0.6,0.4-1.2,0.8-1.9,1.2c-1.5,0.9-3.1,1.6-4.7,2.4c-0.5,0.2-0.9,0.4-1.4,0.6c-1.3,0.5-2.6,1-3.9,1.5c-0.5,0.2-0.9,0.3-1.4,0.5
				c-0.8,0.3-1.7,0.5-2.6,0.7c-0.7,0.2-1.3,0.4-2,0.5c-0.9,0.2-1.8,0.4-2.8,0.6c-0.6,0.1-1.2,0.3-1.9,0.4c-1.9,0.3-3.8,0.6-5.7,0.8
				c-0.6,0.1-1.2,0.1-1.8,0.1c-1.1,0.1-2.2,0.2-3.4,0.2c-0.7,0-1.4,0-2.1,0.1c-0.9,0-1.8,0-2.8,0c-0.8,0-1.5,0-2.3-0.1
				c-0.8,0-1.7-0.1-2.5-0.1c-0.8-0.1-1.5-0.1-2.3-0.2c-0.8-0.1-1.7-0.2-2.5-0.3c-0.7-0.1-1.5-0.2-2.2-0.3c-0.9-0.1-1.8-0.3-2.6-0.5
				c-0.7-0.1-1.4-0.3-2.1-0.4c-1-0.2-2.1-0.5-3.1-0.8c-0.6-0.2-1.2-0.3-1.7-0.5c-1.8-0.5-3.6-1.1-5.3-1.8c-0.2-0.1-0.5-0.2-0.7-0.3
				c-2.4-1-4.6-2-6.7-3.2l-89-51.4L417.7,681l89,51.4c2.1,1.2,4.4,2.3,6.7,3.2c0.2,0.1,0.3,0.1,0.4,0.2c0.1,0,0.2,0.1,0.3,0.1
				c1.7,0.7,3.5,1.3,5.3,1.8c0.1,0,0.3,0.1,0.4,0.1c0.4,0.1,0.9,0.2,1.3,0.3c1,0.3,2.1,0.5,3.1,0.8c0.3,0.1,0.5,0.1,0.8,0.2
				c0.4,0.1,0.8,0.1,1.2,0.2c0.9,0.2,1.8,0.3,2.6,0.5c0.4,0.1,0.7,0.1,1.1,0.2c0.4,0.1,0.8,0.1,1.2,0.1c0.8,0.1,1.7,0.2,2.5,0.3
				c0.4,0,0.8,0.1,1.2,0.1c0.4,0,0.7,0,1.1,0.1c0.8,0.1,1.7,0.1,2.5,0.1c0.4,0,0.8,0.1,1.3,0.1c0.3,0,0.7,0,1,0c0.9,0,1.8,0,2.7,0
				c0.5,0,0.9,0,1.4,0c0.3,0,0.5,0,0.8-0.1c1.1,0,2.2-0.1,3.4-0.2c0.5,0,0.9,0,1.4-0.1c0.1,0,0.3,0,0.4-0.1c1.9-0.2,3.8-0.5,5.7-0.8
				c0.1,0,0.2,0,0.3,0c0.5-0.1,1.1-0.2,1.6-0.3c0.9-0.2,1.9-0.4,2.8-0.6c0.7-0.2,1.3-0.3,2-0.5c0.9-0.2,1.7-0.5,2.6-0.7
				c0.2-0.1,0.4-0.1,0.5-0.2c0.3-0.1,0.6-0.2,0.9-0.3c1.3-0.5,2.7-1,3.9-1.5c0.5-0.2,1-0.4,1.4-0.6c1.6-0.7,3.2-1.5,4.7-2.4
				c0.2-0.1,0.4-0.2,0.6-0.4c0.5-0.3,0.8-0.6,1.3-0.9c0.6-0.4,1.2-0.8,1.8-1.2c0.5-0.4,0.9-0.7,1.4-1.1c0.5-0.4,1.1-0.8,1.5-1.3
				c0.1-0.1,0.2-0.2,0.3-0.3c0.2-0.2,0.3-0.4,0.5-0.6c0.8-0.7,1.5-1.5,2.1-2.3c0.1-0.2,0.3-0.3,0.5-0.5c0.1-0.2,0.2-0.3,0.3-0.5
				c0.4-0.6,0.8-1.2,1.2-1.7c0.2-0.2,0.4-0.5,0.5-0.7c0.1-0.1,0.1-0.3,0.2-0.4c0.3-0.5,0.5-1,0.7-1.6c0.1-0.3,0.3-0.6,0.4-0.9
				c0-0.1,0.1-0.2,0.1-0.3c0.2-0.5,0.3-1,0.4-1.5c0.1-0.3,0.2-0.7,0.3-1c0-0.1,0-0.2,0-0.3c0.1-0.5,0.1-1.1,0.2-1.6
				c0-0.3,0.1-0.7,0.1-1c0-0.1,0-0.3,0-0.4l0.3-104.7C592.1,607.9,592,608.4,592,608.9z"/>
			<g>
				<linearGradient id="SVGID_18_" gradientUnits="userSpaceOnUse" x1="243.5037" y1="477.6819" x2="791.0469" y2="477.6819">
					<stop  offset="0" style="stop-color:#FFCB27"/>
					<stop  offset="1" style="stop-color:#FFA21E"/>
				</linearGradient>
				<path class="st20" d="M776.3,449.9c9.1,5.2,14.7,12.5,14.7,20.4c0.1,16-22.2,28.9-49.7,28.9l-121.1,0l54.2,31.3
					c19.5,11.3,19.6,29.6,0.2,40.9c-19.4,11.3-51,11.3-70.5,0L515,520l-26.6,15.5l89,51.4c19.5,11.3,19.6,29.6,0.2,40.9
					s-51,11.3-70.5,0l-89-51.4l-74.6,43.3c-19.4,11.3-51,11.3-70.6,0s-19.7-29.6-0.2-40.9l74.6-43.3l-89-51.4
					c-19.6-11.3-19.7-29.6-0.2-40.9s51-11.3,70.6,0l89,51.4l26.6-15.5l-89-51.4c-19.6-11.3-19.7-29.6-0.2-40.9
					c19.4-11.3,51-11.3,70.6,0l54.2,31.3l-0.4-70.1c-0.1-16,22.2-28.9,49.7-28.9c13.8,0,26.3,3.2,35.3,8.5
					c9.1,5.2,14.7,12.5,14.7,20.4l0.5,87.4c0,2.4-0.5,4.7-1.5,6.9c3.8-0.5,7.8-0.9,11.9-0.9l150.8,0
					C754.7,441.5,767.2,444.7,776.3,449.9z"/>
			</g>
		</g>
	</g>
	<g>
		<path id="XMLID_90_" class="st21" d="M587.6,269.8c0,0,6.5-11.5,8.4-11.5c1.9,0,3.2-10.1,6.5-7.8l-3.3,9.4c0,0,7.6,3.7,2,9.8
			s-13.5,8-13.5,8V269.8z"/>
		<path id="XMLID_84_" class="st22" d="M528.6,487.7c-2.3,0.9-3.3,6.5-3.3,6.5c-0.5,2.7,0.2,4.5,0.6,5.2c0,0,0.6,1,1.8,1.4
			c5.4,1.8,23.8,2.3,30.9-2.8c8.4-6-20-10.3-20-10.3H528.6"/>
		<path id="XMLID_78_" class="st22" d="M486.4,461.9l5.8,1.1c0,0,27.2,9.4,17.8,13.7s-32.4-1.8-32.3-4c0,0-0.7-3.9,1.3-7.5
			C479.1,465.2,482,461.1,486.4,461.9z"/>
		<line id="XMLID_68_" class="st23" x1="543.6" y1="491.4" x2="528.9" y2="491.4"/>
		<path id="XMLID_54_" class="st23" d="M543.6,490.3l3-139.7l-25.9,3.2l2.6,59.6l5.5,77.2c0.2,1,1.4,1.3,1.4,1.3
			c2.1,0.5,6.7,1.3,12.6-0.2C542.8,491.6,543.6,491.2,543.6,490.3z"/>
		<path class="st21" d="M505.6,247.8l3.6-4.2c-0.8-0.5-1.3-1.3-1.3-2.2c0-1,0.6-1.9,1.5-2.4c-2.2-0.5-4.5-1.7-3.9-4.7
			c1.1-5.4,5.7-7.6,5.7-7.6l-1.6-8.7l9.7-5.8c0,0,21.6,33.2,0,35.9c-1.9,4.9-1.9,4.9-1.9,4.9l-12,1.6L505.6,247.8z"/>
		<path id="XMLID_36_" class="st24" d="M513.2,224.6c-1.8-1.2-4.6-4.4,4.1-9.3c8.3-4.6,2.8-8.4-0.8-10.1c0,0-2-0.9-6.8-0.4
			c-4.8,0.5-12.1,3.2-17.1,9.2c-7.7,9.3-7.7,26.4,6.5,32.5c10.1,4.3,12.8-1.1,13.5-4.5c0,0,0.7-2.5-1.9-3.3c-1.1-0.3-2.4-1.4-4-3.1
			c-1.3-1.3,0.5-2.2,0.5-2.2c4.1-2.6,5.7-5.1,6.4-6.6C513.7,226.7,514.3,225.4,513.2,224.6z"/>
		<line class="st25" x1="564.6" y1="300.9" x2="559.6" y2="301.2"/>
		<path d="M482,465.2"/>
		<path d="M500.2,468.2l23.5-55l-2.6-59.6l-20.4,2.5l1.6,57.6l-19.5,48.3c-0.4,1.2,0.2,1.7,0.2,1.7c5.2,4.4,12,5.5,15,5.8
			C498,469.6,499.6,469.5,500.2,468.2z"/>
		<path class="st25" d="M494.3,269.4c2.4-11.9,9.5-18.1,10.3-18.4c0.8-0.3,14-0.9,15.9,0c0.4,0.2,1.3,0.9,2.4,1.8l0,0l35.2,25.5
			l1.4,0.9c0,0,2.9,2,8.7-1.6l18.3-11.5c0.7-0.3,1.1,0.2,1.1,0.2c4,4.3,7.3,12,7.3,12c0,0,0,0-0.1,0c0.4,0.9-0.4,1.5-0.4,1.5
			l-29.8,21.1c-2.6,1.3-5,0.3-5,0.3l-22.4-10.3c0,0,0.6,1.5,1.2,3.4c0,0,9.1,24.9,8.3,59.8c-0.1,5.1-46.3,3.2-46.3,2.4
			S491.8,281.3,494.3,269.4z"/>
	</g>
	<g>
		<g class="st4">
			<linearGradient id="SVGID_19_" gradientUnits="userSpaceOnUse" x1="717.933" y1="896.8561" x2="911.5073" y2="896.8561">
				<stop  offset="0" style="stop-color:#FFA21E"/>
				<stop  offset="1" style="stop-color:#FFCB27"/>
			</linearGradient>
			<path class="st26" d="M911.3,854.1c-0.1,1-0.2,2-0.3,3c-0.2,0.8-0.4,1.7-0.6,2.5c-0.3,1-0.5,1.9-0.8,2.9c-0.3,0.8-0.7,1.6-1,2.4
				c-0.4,1-0.9,2-1.4,3c-0.7,1.4-1.5,2.7-2.5,4.1c-0.1,0.2-0.3,0.4-0.5,0.6c-1,1.3-2,2.7-3.2,4c-0.2,0.2-0.4,0.5-0.6,0.7
				c-1.2,1.4-2.6,2.7-4.1,4c-0.9,0.8-2,1.6-3,2.5c-0.9,0.7-1.7,1.4-2.7,2.1c-1.1,0.8-2.3,1.6-3.5,2.3c-1.2,0.8-2.4,1.6-3.7,2.4
				c-2.9,1.7-6,3.2-9.1,4.6c-0.9,0.4-1.8,0.8-2.8,1.2c-2.5,1-5,2-7.6,2.9c-0.9,0.3-1.8,0.7-2.8,0.9c-1.6,0.5-3.3,1-5,1.4
				c-1.3,0.3-2.5,0.7-3.8,1c-1.8,0.4-3.6,0.8-5.4,1.1c-1.2,0.2-2.4,0.5-3.6,0.7c-3.6,0.6-7.3,1.1-11,1.5c-1.1,0.1-2.3,0.2-3.5,0.3
				c-2.2,0.2-4.3,0.3-6.5,0.4c-1.4,0.1-2.8,0.1-4.2,0.1c-1.8,0-3.5,0-5.3,0c-1.5,0-3-0.1-4.4-0.1c-1.6-0.1-3.3-0.2-4.9-0.3
				c-1.5-0.1-3-0.2-4.5-0.4c-1.6-0.2-3.2-0.3-4.8-0.5c-1.4-0.2-2.9-0.4-4.3-0.6c-1.7-0.3-3.4-0.6-5.1-0.9c-1.3-0.3-2.7-0.5-4-0.8
				c-2-0.4-4-0.9-6-1.5c-1.1-0.3-2.2-0.6-3.3-0.9c-3.6-1-7-2.2-10.4-3.5c-1.7-0.6-3.3-1.4-4.9-2.1c-0.8-0.4-1.7-0.7-2.5-1.1
				c-2.4-1.2-4.8-2.4-7.1-3.7c-19.1-11-28.6-25.5-28.5-39.9l-0.1,36c0,14.4,9.5,28.9,28.5,39.9c2.3,1.3,4.7,2.5,7.1,3.7
				c0.8,0.4,1.7,0.7,2.5,1.1c1.4,0.6,2.9,1.3,4.3,1.9c0.2,0.1,0.4,0.1,0.5,0.2c3.4,1.3,6.8,2.5,10.4,3.5c0.3,0.1,0.5,0.2,0.8,0.3
				c0.8,0.2,1.7,0.4,2.5,0.6c2,0.5,4,1,6,1.5c0.5,0.1,1.1,0.3,1.6,0.4c0.8,0.2,1.6,0.3,2.4,0.4c1.7,0.3,3.4,0.6,5.1,0.9
				c0.7,0.1,1.4,0.3,2,0.4c0.8,0.1,1.5,0.2,2.3,0.3c1.6,0.2,3.2,0.4,4.8,0.5c0.8,0.1,1.5,0.2,2.3,0.3c0.7,0.1,1.5,0.1,2.2,0.1
				c1.6,0.1,3.3,0.2,4.9,0.3c0.8,0,1.6,0.1,2.4,0.1c0.7,0,1.3,0,2,0c1.8,0,3.5,0,5.3,0c0.9,0,1.7,0,2.6,0c0.5,0,1-0.1,1.6-0.1
				c2.2-0.1,4.4-0.3,6.5-0.4c0.9-0.1,1.8-0.1,2.6-0.2c0.3,0,0.5-0.1,0.8-0.1c3.7-0.4,7.4-0.9,11-1.5c0.2,0,0.4,0,0.5-0.1
				c1.1-0.2,2.1-0.5,3.1-0.7c1.8-0.4,3.6-0.7,5.4-1.1c1.3-0.3,2.5-0.7,3.8-1c1.7-0.5,3.4-0.9,5-1.4c0.3-0.1,0.7-0.2,1.1-0.3
				c0.6-0.2,1.1-0.4,1.7-0.6c2.6-0.9,5.1-1.8,7.6-2.9c0.9-0.4,1.8-0.8,2.8-1.2c3.2-1.4,6.2-2.9,9.1-4.6c0.4-0.2,0.8-0.5,1.2-0.7
				c0.9-0.5,1.7-1.1,2.5-1.7c1.2-0.8,2.4-1.5,3.5-2.3c1-0.7,1.8-1.4,2.7-2.1c1-0.8,2-1.6,3-2.4c0.2-0.2,0.4-0.3,0.6-0.5
				c1.2-1.1,2.4-2.3,3.5-3.5c0.2-0.2,0.4-0.5,0.6-0.7c0.6-0.7,1.3-1.5,1.9-2.2c0.5-0.6,0.9-1.2,1.3-1.8c0.2-0.2,0.3-0.4,0.5-0.6
				c0.8-1.1,1.5-2.2,2.1-3.4c0.1-0.2,0.2-0.5,0.3-0.7c0.5-1,1-2,1.4-3c0.3-0.6,0.6-1.2,0.8-1.8c0.1-0.2,0.1-0.4,0.2-0.6
				c0.3-1,0.6-1.9,0.8-2.9c0.2-0.7,0.4-1.3,0.6-2c0-0.2,0-0.3,0.1-0.5c0.2-1,0.3-2,0.3-3c0.1-0.7,0.2-1.3,0.2-2c0-0.3,0-0.6,0-0.9
				l0.1-36C911.5,852.2,911.4,853.1,911.3,854.1z"/>
			<g>
				<linearGradient id="SVGID_20_" gradientUnits="userSpaceOnUse" x1="718.035" y1="850.9736" x2="911.5075" y2="850.9736">
					<stop  offset="0" style="stop-color:#FFCB27"/>
					<stop  offset="1" style="stop-color:#FFA21E"/>
				</linearGradient>
				<path class="st27" d="M883,811.3c37.9,21.9,38.1,57.4,0.4,79.2c-37.7,21.9-98.9,21.9-136.8,0c-37.9-21.9-38.1-57.4-0.4-79.3
					C783.8,789.5,845,789.5,883,811.3z"/>
			</g>
		</g>
	</g>
	<g>
		<g class="st4">
			<linearGradient id="SVGID_21_" gradientUnits="userSpaceOnUse" x1="717.9327" y1="855.397" x2="911.5038" y2="855.397">
				<stop  offset="0" style="stop-color:#FFA21E"/>
				<stop  offset="1" style="stop-color:#FFCB27"/>
			</linearGradient>
			<path class="st28" d="M911.3,812.6c-0.1,1-0.2,2-0.3,3c-0.2,0.8-0.4,1.6-0.6,2.5c-0.3,1-0.5,1.9-0.8,2.9c-0.3,0.8-0.7,1.6-1,2.4
				c-0.4,1-0.9,2-1.4,3c-0.7,1.4-1.5,2.7-2.5,4.1c-0.2,0.2-0.3,0.4-0.5,0.7c-1,1.3-2,2.7-3.2,4c-0.2,0.2-0.4,0.5-0.6,0.8
				c-1.2,1.4-2.6,2.7-4.1,4c-0.9,0.8-2,1.6-3,2.5c-0.9,0.7-1.7,1.4-2.7,2.1c-1.1,0.8-2.3,1.6-3.5,2.3c-1.2,0.8-2.4,1.6-3.7,2.4
				c-2.9,1.7-6,3.2-9.1,4.6c-0.9,0.4-1.8,0.8-2.8,1.2c-2.5,1-5,2-7.6,2.9c-0.9,0.3-1.8,0.7-2.8,1c-1.6,0.5-3.3,1-5,1.4
				c-1.3,0.3-2.5,0.7-3.8,1c-1.8,0.4-3.6,0.8-5.3,1.1c-1.2,0.2-2.4,0.5-3.7,0.7c-3.6,0.6-7.3,1.1-11,1.5c-1.1,0.1-2.3,0.2-3.4,0.3
				c-2.2,0.2-4.3,0.3-6.5,0.4c-1.4,0.1-2.8,0.1-4.2,0.1c-1.8,0-3.5,0-5.3,0c-1.5,0-3-0.1-4.4-0.1c-1.6-0.1-3.3-0.1-4.9-0.3
				c-1.5-0.1-3-0.2-4.5-0.4c-1.6-0.2-3.2-0.3-4.8-0.5c-1.4-0.2-2.9-0.4-4.3-0.6c-1.7-0.3-3.4-0.6-5.1-0.9c-1.3-0.3-2.7-0.5-4-0.8
				c-2-0.4-4-0.9-6-1.5c-1.1-0.3-2.2-0.6-3.3-0.9c-3.6-1-7-2.2-10.4-3.5c-1.7-0.6-3.3-1.4-4.9-2.1c-0.8-0.4-1.7-0.7-2.5-1.1
				c-2.4-1.2-4.8-2.4-7.1-3.7c-11.9-6.9-20.1-15.1-24.6-23.8c-2.7-5.2-4-10.6-4-16.1l-0.1,36c0,14.4,9.5,28.9,28.6,39.9
				c2.3,1.3,4.7,2.5,7.1,3.7c0.8,0.4,1.7,0.7,2.5,1.1c1.5,0.6,2.9,1.3,4.4,1.9c0.2,0.1,0.4,0.1,0.5,0.2c3.4,1.3,6.8,2.5,10.4,3.5
				c0.3,0.1,0.6,0.2,0.8,0.3c0.8,0.2,1.7,0.4,2.5,0.6c2,0.5,4,1,6,1.5c0.5,0.1,1.1,0.3,1.6,0.4c0.8,0.2,1.6,0.3,2.4,0.4
				c1.7,0.3,3.4,0.6,5.1,0.9c0.7,0.1,1.4,0.3,2.1,0.4c0.7,0.1,1.5,0.2,2.3,0.3c1.6,0.2,3.2,0.4,4.8,0.5c0.8,0.1,1.5,0.2,2.3,0.3
				c0.7,0.1,1.4,0.1,2.2,0.1c1.6,0.1,3.3,0.2,4.9,0.3c0.8,0,1.6,0.1,2.5,0.1c0.7,0,1.3,0,2,0c1.8,0,3.5,0,5.3,0c0.9,0,1.8,0,2.6,0
				c0.5,0,1-0.1,1.6-0.1c2.2-0.1,4.4-0.3,6.5-0.4c0.9-0.1,1.8-0.1,2.6-0.2c0.3,0,0.5-0.1,0.8-0.1c3.7-0.4,7.4-0.9,11-1.5
				c0.2,0,0.4,0,0.5-0.1c1.1-0.2,2.1-0.5,3.1-0.7c1.8-0.4,3.6-0.7,5.3-1.1c1.3-0.3,2.5-0.7,3.8-1c1.7-0.5,3.3-0.9,5-1.4
				c0.4-0.1,0.7-0.2,1.1-0.3c0.6-0.2,1.1-0.5,1.7-0.6c2.6-0.9,5.1-1.8,7.6-2.9c0.9-0.4,1.9-0.8,2.8-1.2c3.2-1.4,6.2-2.9,9.1-4.6
				c0.4-0.2,0.8-0.5,1.2-0.7c0.9-0.5,1.6-1.1,2.5-1.7c1.2-0.8,2.4-1.5,3.5-2.3c1-0.7,1.8-1.4,2.7-2.1c1-0.8,2-1.6,3-2.5
				c0.2-0.2,0.4-0.3,0.6-0.5c1.2-1.1,2.4-2.3,3.5-3.5c0.2-0.2,0.4-0.5,0.6-0.7c0.6-0.7,1.3-1.5,1.9-2.2c0.5-0.6,0.9-1.2,1.3-1.8
				c0.2-0.2,0.3-0.4,0.5-0.6c0.8-1.1,1.5-2.2,2.1-3.4c0.1-0.2,0.2-0.5,0.3-0.7c0.5-1,1-2,1.4-3c0.3-0.6,0.6-1.2,0.8-1.8
				c0.1-0.2,0.1-0.4,0.2-0.6c0.3-1,0.6-1.9,0.8-2.9c0.2-0.7,0.4-1.3,0.6-2c0-0.2,0-0.3,0.1-0.5c0.2-1,0.3-2,0.3-3
				c0.1-0.7,0.2-1.3,0.2-2c0-0.3,0-0.6,0-0.8l0.1-36C911.5,810.7,911.3,811.7,911.3,812.6z"/>
			<g>
				<linearGradient id="SVGID_22_" gradientUnits="userSpaceOnUse" x1="718.0348" y1="809.524" x2="911.5038" y2="809.524">
					<stop  offset="0" style="stop-color:#FFCB27"/>
					<stop  offset="1" style="stop-color:#FFA21E"/>
				</linearGradient>
				<path class="st29" d="M882.9,769.9c37.9,21.9,38.1,57.3,0.4,79.2c-37.7,21.9-98.9,21.9-136.8,0c-37.9-21.9-38.1-57.3-0.4-79.2
					C783.8,748,845,748,882.9,769.9z"/>
			</g>
		</g>
	</g>
	<g>
		<g class="st4">
			<linearGradient id="SVGID_23_" gradientUnits="userSpaceOnUse" x1="717.929" y1="813.9097" x2="911.5035" y2="813.9097">
				<stop  offset="0" style="stop-color:#FFA21E"/>
				<stop  offset="1" style="stop-color:#FFCB27"/>
			</linearGradient>
			<path class="st30" d="M911.3,771.1c-0.1,1-0.2,2-0.3,3c-0.2,0.8-0.4,1.7-0.6,2.5c-0.3,1-0.5,1.9-0.8,2.9c-0.3,0.8-0.7,1.6-1,2.4
				c-0.4,1-0.9,2-1.4,3c-0.7,1.4-1.5,2.7-2.5,4.1c-0.2,0.2-0.3,0.4-0.5,0.7c-1,1.3-2,2.7-3.2,4c-0.2,0.2-0.4,0.5-0.6,0.8
				c-1.2,1.4-2.6,2.7-4.1,4c-0.9,0.8-2,1.6-3,2.5c-0.9,0.7-1.7,1.4-2.7,2.1c-1.1,0.8-2.3,1.6-3.5,2.3c-1.2,0.8-2.4,1.6-3.7,2.4
				c-2.9,1.7-6,3.2-9.1,4.6c-0.9,0.4-1.8,0.8-2.8,1.2c-2.5,1-5,2-7.6,2.9c-0.9,0.3-1.8,0.7-2.8,1c-1.6,0.5-3.3,1-5,1.4
				c-1.3,0.3-2.5,0.7-3.8,1c-1.8,0.4-3.6,0.8-5.4,1.1c-1.2,0.2-2.4,0.5-3.6,0.7c-3.6,0.6-7.3,1.1-11,1.5c-1.1,0.1-2.3,0.2-3.4,0.3
				c-2.2,0.2-4.4,0.3-6.5,0.4c-1.4,0.1-2.8,0.1-4.2,0.1c-1.8,0-3.5,0-5.3,0c-1.5,0-2.9-0.1-4.4-0.1c-1.6-0.1-3.3-0.1-4.9-0.3
				c-1.5-0.1-3-0.2-4.5-0.4c-1.6-0.2-3.2-0.3-4.8-0.5c-1.4-0.2-2.9-0.4-4.3-0.6c-1.7-0.3-3.4-0.6-5.1-0.9c-1.3-0.3-2.7-0.5-4-0.8
				c-2-0.4-4-0.9-6-1.5c-1.1-0.3-2.2-0.6-3.3-0.9c-3.6-1-7-2.2-10.4-3.5c-1.7-0.6-3.3-1.4-4.9-2.1c-0.8-0.4-1.7-0.7-2.5-1.1
				c-2.4-1.2-4.8-2.4-7.1-3.7c-19.1-11-28.6-25.5-28.6-39.9l-0.1,36c0,14.4,9.5,28.9,28.6,39.9c2.3,1.3,4.7,2.5,7.1,3.7
				c0.8,0.4,1.7,0.7,2.5,1.1c1.4,0.6,2.9,1.3,4.4,1.9c0.2,0.1,0.4,0.1,0.5,0.2c3.4,1.3,6.8,2.5,10.4,3.5c0.3,0.1,0.5,0.2,0.8,0.3
				c0.8,0.2,1.7,0.4,2.5,0.6c2,0.5,4,1,6,1.5c0.5,0.1,1.1,0.3,1.6,0.4c0.8,0.2,1.6,0.3,2.4,0.4c1.7,0.3,3.4,0.6,5.1,0.9
				c0.7,0.1,1.4,0.3,2.1,0.4c0.8,0.1,1.5,0.2,2.3,0.3c1.6,0.2,3.2,0.4,4.8,0.5c0.8,0.1,1.5,0.2,2.3,0.3c0.7,0.1,1.4,0.1,2.2,0.1
				c1.6,0.1,3.3,0.2,4.9,0.3c0.8,0,1.6,0.1,2.5,0.1c0.7,0,1.3,0,2,0c1.8,0,3.5,0,5.3,0c0.9,0,1.8,0,2.6,0c0.5,0,1-0.1,1.6-0.1
				c2.2-0.1,4.4-0.3,6.5-0.4c0.9-0.1,1.8-0.1,2.6-0.2c0.3,0,0.5-0.1,0.8-0.1c3.7-0.4,7.4-0.9,11-1.5c0.2,0,0.4,0,0.5-0.1
				c1.1-0.2,2.1-0.5,3.1-0.7c1.8-0.4,3.6-0.7,5.3-1.1c1.3-0.3,2.5-0.7,3.8-1c1.7-0.5,3.4-0.9,5-1.4c0.3-0.1,0.7-0.2,1.1-0.3
				c0.6-0.2,1.1-0.4,1.7-0.6c2.6-0.9,5.1-1.8,7.6-2.9c0.9-0.4,1.9-0.8,2.8-1.2c3.2-1.4,6.2-2.9,9.1-4.6c0.4-0.2,0.8-0.5,1.2-0.7
				c0.9-0.5,1.6-1.1,2.5-1.7c1.2-0.8,2.4-1.5,3.5-2.3c1-0.7,1.8-1.4,2.7-2.1c1-0.8,2-1.6,3-2.5c0.2-0.2,0.4-0.3,0.6-0.5
				c1.2-1.1,2.4-2.3,3.5-3.5c0.2-0.2,0.4-0.5,0.6-0.7c0.6-0.7,1.3-1.5,1.9-2.2c0.5-0.6,0.9-1.2,1.3-1.8c0.2-0.2,0.3-0.4,0.5-0.7
				c0.8-1.1,1.5-2.2,2.1-3.4c0.1-0.2,0.2-0.5,0.3-0.7c0.5-1,1-2,1.4-3c0.3-0.6,0.6-1.2,0.8-1.8c0.1-0.2,0.1-0.4,0.2-0.6
				c0.3-1,0.6-1.9,0.8-2.9c0.2-0.7,0.4-1.3,0.6-2c0-0.2,0-0.3,0.1-0.5c0.2-1,0.3-2,0.3-3c0.1-0.7,0.2-1.3,0.2-2c0-0.3,0-0.6,0-0.8
				l0.1-36C911.5,769.2,911.3,770.2,911.3,771.1z"/>
			<g>
				<linearGradient id="SVGID_24_" gradientUnits="userSpaceOnUse" x1="718.0312" y1="768.0316" x2="911.5036" y2="768.0316">
					<stop  offset="0" style="stop-color:#FFCB27"/>
					<stop  offset="1" style="stop-color:#FFA21E"/>
				</linearGradient>
				<path class="st31" d="M883,728.4c37.9,21.9,38.1,57.4,0.4,79.3c-37.6,21.9-98.9,21.9-136.8,0s-38.1-57.4-0.4-79.2
					C783.8,706.5,845,706.5,883,728.4z"/>
			</g>
		</g>
	</g>
	<g>
		<g class="st4">
			<linearGradient id="SVGID_25_" gradientUnits="userSpaceOnUse" x1="589.0546" y1="966.9468" x2="725.0333" y2="966.9468">
				<stop  offset="0" style="stop-color:#FFA21E"/>
				<stop  offset="1" style="stop-color:#FFCB27"/>
			</linearGradient>
			<path class="st32" d="M724.9,936.9c-0.1,0.7-0.1,1.4-0.2,2.1c-0.1,0.6-0.3,1.2-0.4,1.7c-0.2,0.7-0.3,1.4-0.6,2
				c-0.2,0.6-0.5,1.1-0.7,1.7c-0.3,0.7-0.6,1.4-1,2.1c-0.3,0.5-0.6,1-0.9,1.5c-0.5,0.8-1,1.6-1.6,2.4c-0.6,0.8-1.1,1.5-1.8,2.2
				c-0.2,0.2-0.3,0.4-0.5,0.5c-0.9,1-1.8,1.9-2.9,2.8c-0.7,0.6-1.4,1.2-2.1,1.7c-0.6,0.5-1.2,1-1.9,1.5c-0.8,0.6-1.6,1.1-2.5,1.6
				c-0.9,0.6-1.7,1.1-2.6,1.7c-2,1.2-4.2,2.2-6.4,3.2c-0.6,0.3-1.3,0.6-1.9,0.8c-1.7,0.7-3.5,1.4-5.3,2c-0.7,0.2-1.3,0.5-2,0.7
				c-1.1,0.4-2.3,0.7-3.5,1c-0.9,0.2-1.8,0.5-2.7,0.7c-1.2,0.3-2.5,0.5-3.8,0.8c-0.9,0.2-1.7,0.4-2.6,0.5c-2.5,0.4-5.1,0.8-7.7,1.1
				c-0.8,0.1-1.6,0.1-2.4,0.2c-1.5,0.1-3.1,0.2-4.6,0.3c-1,0-2,0.1-2.9,0.1c-1.2,0-2.5,0-3.7,0c-1,0-2.1,0-3.1-0.1
				c-1.2,0-2.3-0.1-3.4-0.2c-1-0.1-2.1-0.2-3.1-0.3c-1.1-0.1-2.3-0.2-3.4-0.4c-1-0.1-2-0.3-3-0.4c-1.2-0.2-2.4-0.4-3.6-0.6
				c-0.9-0.2-1.9-0.4-2.8-0.6c-1.4-0.3-2.8-0.7-4.2-1c-0.8-0.2-1.6-0.4-2.3-0.6c-2.5-0.7-4.9-1.5-7.3-2.5c-1.2-0.5-2.3-1-3.4-1.5
				c-0.6-0.3-1.2-0.5-1.8-0.8c-1.7-0.8-3.4-1.7-5-2.6c-13.4-7.7-20.1-17.9-20.1-28l-0.1,25.3c0,10.1,6.7,20.3,20.1,28
				c1.6,0.9,3.3,1.8,5,2.6c0.6,0.3,1.2,0.5,1.8,0.8c1,0.4,2,0.9,3.1,1.3c0.1,0,0.3,0.1,0.4,0.1c2.4,0.9,4.8,1.7,7.3,2.5
				c0.2,0.1,0.4,0.1,0.6,0.2c0.6,0.2,1.2,0.3,1.7,0.4c1.4,0.4,2.8,0.7,4.2,1c0.4,0.1,0.7,0.2,1.1,0.3c0.6,0.1,1.1,0.2,1.7,0.3
				c1.2,0.2,2.4,0.4,3.6,0.6c0.5,0.1,1,0.2,1.4,0.3c0.5,0.1,1.1,0.1,1.6,0.2c1.1,0.1,2.3,0.3,3.4,0.4c0.5,0.1,1.1,0.1,1.6,0.2
				c0.5,0,1,0,1.5,0.1c1.2,0.1,2.3,0.1,3.5,0.2c0.6,0,1.1,0.1,1.7,0.1c0.5,0,0.9,0,1.4,0c1.2,0,2.5,0,3.7,0c0.6,0,1.2,0,1.8,0
				c0.4,0,0.7-0.1,1.1-0.1c1.5-0.1,3.1-0.2,4.6-0.3c0.6-0.1,1.2-0.1,1.9-0.1c0.2,0,0.4-0.1,0.6-0.1c2.6-0.3,5.2-0.6,7.7-1.1
				c0.1,0,0.3,0,0.4-0.1c0.7-0.1,1.5-0.3,2.2-0.5c1.3-0.3,2.5-0.5,3.8-0.8c0.9-0.2,1.8-0.5,2.7-0.7c1.2-0.3,2.4-0.6,3.5-1
				c0.2-0.1,0.5-0.1,0.7-0.2c0.4-0.1,0.8-0.3,1.2-0.5c1.8-0.6,3.6-1.3,5.4-2c0.6-0.3,1.3-0.5,1.9-0.8c2.2-1,4.4-2.1,6.4-3.2
				c0.3-0.2,0.6-0.3,0.8-0.5c0.6-0.4,1.2-0.8,1.7-1.2c0.8-0.5,1.7-1.1,2.5-1.6c0.7-0.5,1.3-1,1.9-1.5c0.7-0.6,1.4-1.1,2.1-1.7
				c0.1-0.1,0.3-0.2,0.4-0.3c0.9-0.8,1.7-1.6,2.4-2.5c0.2-0.2,0.3-0.4,0.5-0.5c0.5-0.5,0.9-1,1.3-1.5c0.2-0.2,0.3-0.5,0.5-0.7
				c0.6-0.8,1.1-1.6,1.6-2.4c0.2-0.3,0.5-0.7,0.7-1c0.1-0.2,0.1-0.3,0.2-0.5c0.4-0.7,0.7-1.4,1-2.1c0.2-0.4,0.4-0.8,0.6-1.2
				c0.1-0.1,0.1-0.3,0.1-0.4c0.2-0.7,0.4-1.3,0.6-2c0.1-0.5,0.3-0.9,0.4-1.4c0-0.1,0-0.2,0-0.4c0.1-0.7,0.2-1.4,0.2-2.1
				c0-0.5,0.1-0.9,0.2-1.4c0-0.2,0-0.4,0-0.6l0.1-25.3C725,935.6,724.9,936.2,724.9,936.9z"/>
			<g>
				<linearGradient id="SVGID_26_" gradientUnits="userSpaceOnUse" x1="589.1265" y1="934.7262" x2="725.0334" y2="934.7262">
					<stop  offset="0" style="stop-color:#FFCB27"/>
					<stop  offset="1" style="stop-color:#FFA21E"/>
				</linearGradient>
				<path class="st33" d="M705,906.9c26.6,15.4,26.8,40.3,0.3,55.7c-26.5,15.4-69.5,15.4-96.1,0c-26.6-15.4-26.8-40.3-0.3-55.7
					C635.3,891.5,678.4,891.5,705,906.9z"/>
			</g>
		</g>
	</g>
	<g>
		<g class="st4">
			<linearGradient id="SVGID_27_" gradientUnits="userSpaceOnUse" x1="589.0546" y1="937.83" x2="725.0333" y2="937.83">
				<stop  offset="0" style="stop-color:#FFA21E"/>
				<stop  offset="1" style="stop-color:#FFCB27"/>
			</linearGradient>
			<path class="st34" d="M724.9,907.8c-0.1,0.7-0.1,1.4-0.2,2.1c-0.1,0.6-0.3,1.2-0.4,1.7c-0.2,0.7-0.3,1.4-0.6,2
				c-0.2,0.6-0.5,1.1-0.7,1.7c-0.3,0.7-0.6,1.4-1,2.1c-0.3,0.5-0.6,1-0.9,1.5c-0.5,0.8-1,1.6-1.6,2.4c-0.6,0.8-1.1,1.5-1.8,2.2
				c-0.2,0.2-0.3,0.4-0.5,0.5c-0.9,1-1.8,1.9-2.9,2.8c-0.7,0.6-1.4,1.2-2.1,1.7c-0.6,0.5-1.2,1-1.9,1.5c-0.8,0.6-1.6,1.1-2.5,1.6
				c-0.9,0.6-1.7,1.1-2.6,1.7c-2,1.2-4.2,2.2-6.4,3.2c-0.6,0.3-1.3,0.6-1.9,0.8c-1.7,0.7-3.5,1.4-5.4,2c-0.6,0.2-1.3,0.5-1.9,0.7
				c-1.2,0.4-2.3,0.7-3.5,1c-0.9,0.2-1.8,0.5-2.7,0.7c-1.2,0.3-2.5,0.5-3.8,0.8c-0.9,0.2-1.7,0.4-2.6,0.5c-2.5,0.4-5.1,0.8-7.7,1.1
				c-0.8,0.1-1.6,0.1-2.4,0.2c-1.5,0.1-3.1,0.2-4.6,0.3c-1,0-2,0.1-3,0.1c-1.2,0-2.5,0-3.7,0c-1,0-2.1,0-3.1-0.1
				c-1.1,0-2.3-0.1-3.4-0.2c-1.1-0.1-2.1-0.2-3.1-0.3c-1.1-0.1-2.3-0.2-3.4-0.4c-1-0.1-2-0.3-3-0.4c-1.2-0.2-2.4-0.4-3.6-0.6
				c-0.9-0.2-1.9-0.4-2.8-0.6c-1.4-0.3-2.8-0.7-4.2-1c-0.8-0.2-1.6-0.4-2.3-0.6c-2.5-0.7-4.9-1.5-7.3-2.5c-1.2-0.5-2.3-1-3.4-1.5
				c-0.6-0.3-1.2-0.5-1.8-0.8c-1.7-0.8-3.4-1.7-5-2.6c-13.4-7.7-20.1-17.9-20.1-28l-0.1,25.3c0,10.1,6.7,20.3,20.1,28
				c1.6,0.9,3.3,1.8,5,2.6c0.6,0.3,1.2,0.5,1.8,0.8c1,0.4,2,0.9,3.1,1.3c0.1,0,0.3,0.1,0.4,0.1c2.4,0.9,4.8,1.7,7.3,2.5
				c0.2,0.1,0.4,0.1,0.6,0.2c0.6,0.2,1.2,0.3,1.7,0.4c1.4,0.4,2.8,0.7,4.2,1c0.4,0.1,0.7,0.2,1.1,0.3c0.6,0.1,1.1,0.2,1.7,0.3
				c1.2,0.2,2.4,0.4,3.6,0.6c0.5,0.1,1,0.2,1.4,0.3c0.5,0.1,1.1,0.1,1.6,0.2c1.1,0.1,2.3,0.3,3.4,0.4c0.5,0.1,1.1,0.1,1.6,0.2
				c0.5,0,1,0,1.5,0.1c1.1,0.1,2.3,0.1,3.4,0.2c0.6,0,1.1,0.1,1.7,0.1c0.5,0,0.9,0,1.4,0c1.2,0,2.5,0,3.7,0c0.6,0,1.2,0,1.8,0
				c0.4,0,0.7-0.1,1.1-0.1c1.5-0.1,3.1-0.2,4.6-0.3c0.6-0.1,1.2-0.1,1.9-0.1c0.2,0,0.4-0.1,0.6-0.1c2.6-0.3,5.2-0.6,7.7-1.1
				c0.1,0,0.3,0,0.4-0.1c0.7-0.1,1.5-0.3,2.2-0.5c1.3-0.3,2.5-0.5,3.8-0.8c0.9-0.2,1.8-0.5,2.7-0.7c1.2-0.3,2.3-0.6,3.5-1
				c0.2-0.1,0.5-0.1,0.7-0.2c0.4-0.1,0.8-0.3,1.2-0.5c1.8-0.6,3.6-1.3,5.3-2c0.7-0.3,1.3-0.5,1.9-0.8c2.2-1,4.4-2.1,6.4-3.2
				c0.3-0.2,0.6-0.3,0.8-0.5c0.6-0.4,1.2-0.8,1.8-1.2c0.8-0.5,1.7-1.1,2.4-1.6c0.7-0.5,1.3-1,1.9-1.5c0.7-0.6,1.4-1.1,2.1-1.7
				c0.1-0.1,0.3-0.2,0.4-0.3c0.9-0.8,1.7-1.6,2.4-2.5c0.2-0.2,0.3-0.3,0.4-0.5c0.5-0.5,0.9-1,1.3-1.6c0.2-0.2,0.3-0.5,0.5-0.7
				c0.6-0.8,1.1-1.6,1.6-2.4c0.2-0.3,0.5-0.7,0.7-1c0.1-0.2,0.1-0.3,0.2-0.5c0.4-0.7,0.7-1.4,1-2.1c0.2-0.4,0.4-0.8,0.6-1.2
				c0.1-0.1,0.1-0.3,0.1-0.4c0.2-0.7,0.4-1.4,0.6-2c0.1-0.5,0.3-0.9,0.4-1.4c0-0.1,0-0.2,0-0.4c0.1-0.7,0.2-1.4,0.2-2.1
				c0-0.5,0.1-0.9,0.2-1.4c0-0.2,0-0.4,0-0.6l0.1-25.3C725,906.5,724.9,907.1,724.9,907.8z"/>
			<g>
				<linearGradient id="SVGID_28_" gradientUnits="userSpaceOnUse" x1="589.1263" y1="905.6093" x2="725.0333" y2="905.6093">
					<stop  offset="0" style="stop-color:#FFCB27"/>
					<stop  offset="1" style="stop-color:#FFA21E"/>
				</linearGradient>
				<path class="st35" d="M705,877.8c26.6,15.4,26.8,40.3,0.3,55.7c-26.5,15.4-69.5,15.4-96.1,0c-26.6-15.4-26.8-40.3-0.3-55.7
					C635.3,862.4,678.4,862.4,705,877.8z"/>
			</g>
		</g>
	</g>
	<g>
		<g class="st4">
			<linearGradient id="SVGID_29_" gradientUnits="userSpaceOnUse" x1="589.0661" y1="908.7107" x2="725.0333" y2="908.7107">
				<stop  offset="0" style="stop-color:#FFA21E"/>
				<stop  offset="1" style="stop-color:#FFCB27"/>
			</linearGradient>
			<path class="st36" d="M724.9,878.7c-0.1,0.7-0.1,1.4-0.2,2.1c-0.1,0.6-0.3,1.2-0.4,1.7c-0.2,0.7-0.3,1.4-0.6,2
				c-0.2,0.6-0.5,1.1-0.7,1.7c-0.3,0.7-0.6,1.4-1,2.1c-0.3,0.5-0.6,1-0.9,1.5c-0.5,0.8-1,1.6-1.6,2.4c-0.6,0.8-1.1,1.5-1.8,2.2
				c-0.2,0.2-0.3,0.4-0.5,0.5c-0.9,1-1.8,1.9-2.9,2.8c-0.7,0.6-1.4,1.2-2.1,1.7c-0.6,0.5-1.2,1-1.9,1.5c-0.8,0.6-1.6,1.1-2.5,1.6
				c-0.9,0.6-1.7,1.1-2.6,1.7c-2,1.2-4.2,2.2-6.4,3.2c-0.6,0.3-1.3,0.6-1.9,0.8c-1.7,0.7-3.5,1.4-5.3,2c-0.7,0.2-1.3,0.5-2,0.7
				c-1.1,0.4-2.3,0.7-3.5,1c-0.9,0.2-1.8,0.5-2.7,0.7c-1.2,0.3-2.5,0.5-3.8,0.8c-0.9,0.2-1.7,0.4-2.6,0.5c-2.5,0.4-5.1,0.8-7.7,1.1
				c-0.8,0.1-1.6,0.1-2.4,0.2c-1.5,0.1-3.1,0.2-4.6,0.3c-1,0-2,0.1-2.9,0.1c-1.2,0-2.5,0-3.7,0c-1,0-2.1,0-3.1-0.1
				c-1.2,0-2.3-0.1-3.5-0.2c-1-0.1-2.1-0.2-3.1-0.3c-1.1-0.1-2.3-0.2-3.4-0.4c-1-0.1-2-0.3-3-0.4c-1.2-0.2-2.4-0.4-3.6-0.6
				c-0.9-0.2-1.9-0.4-2.8-0.6c-1.4-0.3-2.8-0.7-4.2-1c-0.8-0.2-1.6-0.4-2.3-0.6c-2.5-0.7-4.9-1.5-7.3-2.5c-1.2-0.5-2.3-0.9-3.4-1.4
				c-0.6-0.3-1.2-0.5-1.8-0.8c-1.7-0.8-3.4-1.7-5-2.6c-13.4-7.7-20.1-17.9-20-28l-0.1,25.3c0,10.1,6.7,20.3,20,28
				c1.6,0.9,3.3,1.8,5,2.6c0.6,0.3,1.2,0.5,1.7,0.8c1,0.5,2,0.9,3.1,1.3c0.1,0,0.3,0.1,0.4,0.1c2.4,0.9,4.8,1.7,7.3,2.5
				c0.2,0.1,0.4,0.1,0.6,0.2c0.6,0.2,1.2,0.3,1.8,0.4c1.4,0.4,2.8,0.7,4.2,1c0.4,0.1,0.7,0.2,1.1,0.3c0.6,0.1,1.1,0.2,1.7,0.3
				c1.2,0.2,2.4,0.4,3.6,0.6c0.5,0.1,1,0.2,1.4,0.3c0.5,0.1,1.1,0.1,1.6,0.2c1.1,0.1,2.3,0.3,3.4,0.4c0.5,0.1,1.1,0.1,1.6,0.2
				c0.5,0,1,0,1.5,0.1c1.1,0.1,2.3,0.1,3.4,0.2c0.6,0,1.1,0.1,1.7,0.1c0.5,0,0.9,0,1.4,0c1.2,0,2.5,0,3.7,0c0.6,0,1.2,0,1.8,0
				c0.4,0,0.7-0.1,1.1-0.1c1.5-0.1,3.1-0.2,4.6-0.3c0.6-0.1,1.2-0.1,1.8-0.1c0.2,0,0.4-0.1,0.6-0.1c2.6-0.3,5.2-0.6,7.7-1.1
				c0.1,0,0.3,0,0.4-0.1c0.7-0.1,1.5-0.3,2.2-0.5c1.3-0.3,2.5-0.5,3.8-0.8c0.9-0.2,1.8-0.5,2.7-0.7c1.2-0.3,2.4-0.6,3.5-1
				c0.2-0.1,0.5-0.1,0.7-0.2c0.4-0.1,0.8-0.3,1.2-0.5c1.8-0.6,3.6-1.3,5.3-2c0.7-0.3,1.3-0.5,1.9-0.8c2.2-1,4.4-2.1,6.4-3.2
				c0.3-0.2,0.6-0.3,0.8-0.5c0.6-0.4,1.2-0.8,1.8-1.2c0.8-0.5,1.7-1.1,2.4-1.6c0.7-0.5,1.3-1,1.9-1.5c0.7-0.6,1.4-1.1,2.1-1.7
				c0.1-0.1,0.3-0.2,0.4-0.3c0.9-0.8,1.7-1.6,2.4-2.5c0.2-0.2,0.3-0.4,0.5-0.5c0.5-0.5,0.9-1,1.3-1.5c0.2-0.2,0.3-0.5,0.5-0.7
				c0.6-0.8,1.1-1.6,1.6-2.4c0.2-0.3,0.5-0.7,0.7-1c0.1-0.2,0.1-0.3,0.2-0.5c0.4-0.7,0.7-1.4,1-2.1c0.2-0.4,0.4-0.8,0.6-1.2
				c0.1-0.1,0.1-0.3,0.1-0.4c0.2-0.7,0.4-1.4,0.6-2c0.1-0.5,0.3-0.9,0.4-1.4c0-0.1,0-0.2,0-0.4c0.1-0.7,0.2-1.4,0.2-2.1
				c0-0.5,0.1-0.9,0.2-1.4c0-0.2,0-0.4,0-0.6l0.1-25.3C725,877.3,724.9,878,724.9,878.7z"/>
			<g>
				<linearGradient id="SVGID_30_" gradientUnits="userSpaceOnUse" x1="589.1378" y1="876.4893" x2="725.0334" y2="876.4893">
					<stop  offset="0" style="stop-color:#FFCB27"/>
					<stop  offset="1" style="stop-color:#FFA21E"/>
				</linearGradient>
				<path class="st37" d="M705,848.7c26.6,15.4,26.8,40.3,0.3,55.7c-26.4,15.4-69.5,15.4-96.1,0c-26.6-15.4-26.7-40.3-0.3-55.7
					C635.3,833.3,678.4,833.3,705,848.7z"/>
			</g>
		</g>
	</g>
	<g>
		<path class="st38" d="M836.7,783.9l-18.1-10.4l-5.4,3.1l18.1,10.4c4,2.3,4,6,0,8.3c-4,2.3-10.4,2.3-14.3,0l-18.1-10.4l-15.1,8.8
			c-4,2.3-10.4,2.3-14.4,0s-4-6,0-8.3l15.1-8.8l-18.1-10.4c-4-2.3-4-6,0-8.3c4-2.3,10.4-2.3,14.3,0l18.1,10.4l5.4-3.1l-18.1-10.4
			c-4-2.3-4-6,0-8.3c3.9-2.3,10.4-2.3,14.3,0l11,6.4l-0.1-14.2c0-3.2,4.5-5.9,10.1-5.9c1.8,0,3.4,0.3,4.8,0.7
			c0.3,0.1,0.6,0.2,0.9,0.3c0.5,0.2,1,0.4,1.4,0.7c0.5,0.3,0.9,0.6,1.2,0.9c1.1,0.9,1.7,2.1,1.7,3.3l0.1,17.8c0,0.5-0.1,0.9-0.3,1.4
			c0.8-0.1,1.6-0.2,2.4-0.2l30.7,0c2.1,0,4,0.4,5.7,1c0.5,0.2,1,0.5,1.5,0.7c0.5,0.3,0.9,0.6,1.2,0.9c0.7,0.6,1.3,1.3,1.5,2.1
			c0.1,0.4,0.2,0.8,0.2,1.2c0,3.2-4.5,5.9-10.1,5.9l-24.6,0l11,6.4c4,2.3,3.9,6,0,8.3C847.1,786.2,840.6,786.2,836.7,783.9z"/>
		<g class="st4">
			<defs>
				<path id="SVGID_31_" class="st4" d="M836.7,783.9l-18.1-10.4l-5.4,3.1l18.1,10.4c4,2.3,4,6,0,8.3c-4,2.3-10.4,2.3-14.3,0
					l-18.1-10.4l-15.1,8.8c-4,2.3-10.4,2.3-14.4,0s-4-6,0-8.3l15.1-8.8l-18.1-10.4c-4-2.3-4-6,0-8.3c4-2.3,10.4-2.3,14.3,0
					l18.1,10.4l5.4-3.1l-18.1-10.4c-4-2.3-4-6,0-8.3c3.9-2.3,10.4-2.3,14.3,0l11,6.4l-0.1-14.2c0-3.2,4.5-5.9,10.1-5.9
					c1.8,0,3.4,0.3,4.8,0.7c0.3,0.1,0.6,0.2,0.9,0.3c0.5,0.2,1,0.4,1.4,0.7c0.5,0.3,0.9,0.6,1.2,0.9c1.1,0.9,1.7,2.1,1.7,3.3
					l0.1,17.8c0,0.5-0.1,0.9-0.3,1.4c0.8-0.1,1.6-0.2,2.4-0.2l30.7,0c2.1,0,4,0.4,5.7,1c0.5,0.2,1,0.5,1.5,0.7
					c0.5,0.3,0.9,0.6,1.2,0.9c0.7,0.6,1.3,1.3,1.5,2.1c0.1,0.4,0.2,0.8,0.2,1.2c0,3.2-4.5,5.9-10.1,5.9l-24.6,0l11,6.4
					c4,2.3,3.9,6,0,8.3C847.1,786.2,840.6,786.2,836.7,783.9z"/>
			</defs>
			<use xlink:href="#SVGID_31_"  style="overflow:visible;fill:#FFFFFF;"/>
			<clipPath id="SVGID_32_">
				<use xlink:href="#SVGID_31_"  style="overflow:visible;"/>
			</clipPath>
		</g>
	</g>
	<g>
		<path class="st38" d="M670.6,884.6l-12.2-7l-3.7,2.1l12.2,7c2.7,1.6,2.7,4.1,0,5.6c-2.7,1.6-7,1.6-9.7,0l-12.2-7l-10.2,5.9
			c-2.6,1.5-7,1.5-9.7,0c-2.7-1.6-2.7-4.1,0-5.6l10.2-5.9l-12.2-7c-2.7-1.5-2.7-4,0-5.6c2.6-1.5,7-1.5,9.7,0l12.2,7l3.7-2.1l-12.2-7
			c-2.7-1.5-2.7-4,0-5.6c2.6-1.5,7-1.5,9.7,0l7.4,4.3l-0.1-9.6c0-2.2,3-4,6.8-4c1.9,0,3.6,0.4,4.8,1.2c0.3,0.2,0.6,0.4,0.8,0.6
			c0.6,0.5,1,1.1,1.1,1.8c0,0.1,0,0.3,0,0.4l0.1,12c0,0.3-0.1,0.6-0.2,0.9c0.5-0.1,1-0.1,1.6-0.1l20.6,0c1.7,0,3.2,0.3,4.4,0.9
			c0.2,0.1,0.3,0.2,0.5,0.3c0.3,0.2,0.6,0.4,0.8,0.6c0.7,0.6,1.2,1.4,1.2,2.2c0,2.2-3,4-6.8,4l-16.6,0l7.4,4.3
			c2.7,1.6,2.7,4.1,0,5.6C677.5,886.2,673.3,886.2,670.6,884.6z"/>
	</g>
	<linearGradient id="SVGID_33_" gradientUnits="userSpaceOnUse" x1="260.4451" y1="420.9552" x2="260.4451" y2="164.2137">
		<stop  offset="0" style="stop-color:#FFFFFF;stop-opacity:0"/>
		<stop  offset="1" style="stop-color:#FFC927"/>
	</linearGradient>
	<path class="st39" d="M260.4,421L260.4,421c-12,0-21.9-9.8-21.9-21.9v-213c0-12,9.8-21.9,21.9-21.9h0c12,0,21.9,9.8,21.9,21.9v213
		C282.3,411.1,272.5,421,260.4,421z"/>
	<linearGradient id="SVGID_34_" gradientUnits="userSpaceOnUse" x1="436.2622" y1="287.7845" x2="436.2622" y2="31.0429">
		<stop  offset="0" style="stop-color:#FFFFFF;stop-opacity:0"/>
		<stop  offset="1" style="stop-color:#FFC927"/>
	</linearGradient>
	<path class="st40" d="M436.3,287.8L436.3,287.8c-12,0-21.9-9.8-21.9-21.9v-213c0-12,9.8-21.9,21.9-21.9h0c12,0,21.9,9.8,21.9,21.9
		v213C458.1,277.9,448.3,287.8,436.3,287.8z"/>
	<linearGradient id="SVGID_35_" gradientUnits="userSpaceOnUse" x1="674.1121" y1="340.5601" x2="674.1121" y2="83.8186">
		<stop  offset="0" style="stop-color:#FFFFFF;stop-opacity:0"/>
		<stop  offset="1" style="stop-color:#FFC927"/>
	</linearGradient>
	<path class="st41" d="M674.1,340.6L674.1,340.6c-12,0-21.9-9.8-21.9-21.9v-213c0-12,9.8-21.9,21.9-21.9h0c12,0,21.9,9.8,21.9,21.9
		v213C696,330.7,686.1,340.6,674.1,340.6z"/>
	<linearGradient id="SVGID_36_" gradientUnits="userSpaceOnUse" x1="835.5409" y1="472.0082" x2="835.5409" y2="215.2667">
		<stop  offset="0" style="stop-color:#FFFFFF;stop-opacity:0"/>
		<stop  offset="1" style="stop-color:#FFC927"/>
	</linearGradient>
	<path class="st42" d="M835.5,472L835.5,472c-12,0-21.9-9.8-21.9-21.9v-213c0-12,9.8-21.9,21.9-21.9h0c12,0,21.9,9.8,21.9,21.9v213
		C857.4,462.2,847.6,472,835.5,472z"/>
</g>
</svg>
