<?xml version="1.0" encoding="utf-8"?>
<svg version="1.1" xmlns:xlink="http://www.w3.org/1999/xlink" width="30px" height="30px" xmlns="http://www.w3.org/2000/svg">
  <g transform="matrix(1 0 0 1 -67 -624 )">
    <path d="M 20.95982142857143 26.392299107142858  C 22.80133928571429 25.41573660714286  24.313616071428577 24.090401785714285  25.49665178571429 22.416294642857142  C 25.251116071428577 20.686383928571427  24.762834821428573 19.249441964285715  24.03180803571429 18.10546875  C 23.30078125 16.961495535714285  22.271205357142858 16.30022321428571  20.943080357142858 16.121651785714285  C 20.1953125 16.94754464285714  19.305245535714285 17.59207589285714  18.27287946428571 18.055245535714285  C 17.240513392857146 18.518415178571427  16.149553571428573 18.75  15 18.75  C 13.850446428571429 18.75  12.75948660714286 18.518415178571427  11.727120535714285 18.055245535714285  C 10.694754464285715 17.59207589285714  9.8046875 16.94754464285714  9.056919642857144 16.121651785714285  C 7.728794642857142 16.30022321428571  6.699218750000001 16.961495535714285  5.968191964285714 18.10546875  C 5.23716517857143 19.249441964285715  4.748883928571429 20.686383928571427  4.503348214285714 22.416294642857142  C 5.686383928571429 24.090401785714285  7.198660714285714 25.41573660714286  9.040178571428571 26.392299107142858  C 10.881696428571429 27.368861607142854  12.868303571428573 27.857142857142858  15 27.857142857142858  C 17.13169642857143 27.857142857142858  19.11830357142857 27.368861607142854  20.95982142857143 26.392299107142858  Z M 19.545200892857142 15.259486607142858  C 20.80078125 14.00390625  21.42857142857143 12.488839285714286  21.42857142857143 10.714285714285714  C 21.42857142857143 8.939732142857142  20.80078125 7.424665178571429  19.545200892857142 6.169084821428571  C 18.28962053571429 4.913504464285713  16.77455357142857 4.285714285714287  15 4.285714285714287  C 13.225446428571429 4.285714285714287  11.710379464285715 4.913504464285713  10.454799107142856 6.169084821428571  C 9.19921875 7.424665178571429  8.571428571428571 8.939732142857142  8.571428571428571 10.714285714285714  C 8.571428571428571 12.488839285714286  9.19921875 14.00390625  10.454799107142856 15.259486607142858  C 11.710379464285715 16.515066964285715  13.225446428571429 17.142857142857142  15 17.142857142857142  C 16.77455357142857 17.142857142857142  18.28962053571429 16.515066964285715  19.545200892857142 15.259486607142858  Z M 28.81138392857143 9.174107142857142  C 29.603794642857146 11.026785714285712  30 12.968749999999998  30 15  C 30 17.031249999999996  29.603794642857146 18.970424107142854  28.81138392857143 20.81752232142857  C 28.01897321428572 22.664620535714285  26.955915178571434 24.260602678571427  25.62220982142857 25.60546875  C 24.28850446428572 26.95033482142857  22.695312500000004 28.018973214285715  20.84263392857143 28.81138392857143  C 18.989955357142858 29.603794642857142  17.04241071428571 30  15 30  C 12.96875 30  11.026785714285715 29.603794642857142  9.174107142857144 28.81138392857143  C 7.321428571428572 28.018973214285715  5.725446428571428 26.953125  4.386160714285714 25.613839285714285  C 3.046875 24.27455357142857  1.9810267857142858 22.678571428571427  1.1886160714285714 20.825892857142858  C 0.3962053571428571 18.973214285714285  0 17.031249999999996  0 15  C 0 12.968749999999998  0.3962053571428571 11.026785714285712  1.1886160714285714 9.174107142857142  C 1.9810267857142858 7.3214285714285685  3.046875 5.725446428571429  4.386160714285714 4.386160714285713  C 5.725446428571428 3.046875  7.321428571428572 1.981026785714285  9.174107142857144 1.188616071428571  C 11.026785714285715 0.396205357142857  12.96875 0  15 0  C 17.03125 0  18.97321428571429 0.396205357142857  20.825892857142858 1.188616071428571  C 22.67857142857143 1.981026785714285  24.27455357142857 3.046875  25.61383928571429 4.386160714285713  C 26.953125000000004 5.725446428571429  28.01897321428572 7.3214285714285685  28.81138392857143 9.174107142857142  Z " fill-rule="nonzero" fill="#02a3f0" stroke="none" fill-opacity="0.8549019607843137" transform="matrix(1 0 0 1 67 624 )" />
  </g>
</svg>