<?xml version="1.0" encoding="utf-8"?>
<svg version="1.1" xmlns:xlink="http://www.w3.org/1999/xlink" width="50px" height="50px" xmlns="http://www.w3.org/2000/svg">
  <g transform="matrix(1 0 0 1 -247 -867 )">
    <path d="M 49.693080357142854 17.578125  C 49.897693452380956 17.745535714285715  50 17.96875  50 18.247767857142854  L 50 45.535714285714285  C 50 46.763392857142854  49.562872023809526 47.81436011904762  48.68861607142857 48.68861607142857  C 47.81436011904763 49.562872023809526  46.76339285714287 50  45.535714285714285 50  L 4.464285714285714 50  C 3.2366071428571432 50  2.1856398809523814 49.562872023809526  1.3113839285714286 48.68861607142857  C 0.4371279761904762 47.81436011904762  0 46.763392857142854  0 45.535714285714285  L 0 18.247767857142854  C 0 17.96875  0.10230654761904763 17.745535714285715  0.30691964285714285 17.578125  C 0.4557291666666667 17.447916666666664  0.818452380952381 17.12704613095238  1.3950892857142858 16.615513392857146  C 1.9717261904761907 16.1039806547619  2.357700892857143 15.769159226190471  2.553013392857143 15.611049107142854  C 2.7483258928571432 15.452938988095239  3.1715029761904767 15.104166666666663  3.8225446428571432 14.564732142857146  C 4.473586309523809 14.025297619047617  5.124627976190476 13.509114583333332  5.775669642857143 13.016183035714285  C 6.426711309523809 12.523251488095239  7.319568452380953 11.844308035714285  8.454241071428571 10.97935267857143  C 9.58891369047619 10.11439732142857  10.923549107142858 9.119233630952378  12.458147321428571 7.993861607142855  C 13.992745535714285 6.868489583333331  15.783110119047622 5.561755952380948  17.829241071428573 4.073660714285715  C 17.922247023809526 3.999255952380948  18.410528273809526 3.627232142857145  19.294084821428573 2.9575892857142847  C 20.17764136904762 2.28794642857143  20.842633928571427 1.7996651785714302  21.2890625 1.492745535714285  C 21.735491071428573 1.1858258928571452  22.330729166666668 0.8603050595238082  23.074776785714285 0.5161830357142849  C 23.818824404761905 0.17206101190476164  24.460565476190478 0  25 0  C 25.539434523809522 0  26.1811755952381 0.17206101190476164  26.925223214285715 0.5161830357142849  C 27.669270833333336 0.8603050595238082  28.27380952380953 1.1904761904761862  28.738839285714285 1.5066964285714302  C 29.20386904761905 1.822916666666663  29.864211309523814 2.3065476190476164  30.71986607142857 2.9575892857142847  C 31.575520833333336 3.608630952380948  32.059151785714285 3.980654761904756  32.17075892857143 4.073660714285715  C 34.21688988095239 5.561755952380948  36.007254464285715 6.868489583333331  37.54185267857143 7.993861607142855  C 39.076450892857146 9.119233630952378  40.41108630952381 10.11439732142857  41.54575892857143 10.97935267857143  C 42.68043154761905 11.844308035714285  43.57328869047619 12.523251488095239  44.224330357142854 13.016183035714285  C 44.875372023809526 13.509114583333332  45.5264136904762 14.025297619047617  46.177455357142854 14.564732142857146  C 46.828497023809526 15.104166666666663  47.251674107142854 15.452938988095239  47.446986607142854 15.611049107142854  C 47.642299107142854 15.769159226190471  48.02827380952381 16.1039806547619  48.604910714285715 16.615513392857146  C 49.18154761904763 17.12704613095238  49.54427083333334 17.447916666666664  49.693080357142854 17.578125  Z M 32.924107142857146 35.58872767857143  C 33.686755952380956 35.00279017857143  34.133184523809526 34.663318452380956  34.263392857142854 34.5703125  C 39.155505952380956 31.017485119047617  42.36421130952381 28.673735119047617  43.88950892857143 27.5390625  C 44.094122023809526 27.390252976190478  44.21037946428572 27.199590773809522  44.23828125 26.96707589285714  C 44.26618303571429 26.734561011904763  44.20572916666667 26.515997023809522  44.056919642857146 26.31138392857143  L 42.996651785714285 24.86049107142857  C 42.84784226190476 24.655877976190478  42.65252976190476 24.539620535714285  42.410714285714285 24.51171875  C 42.16889880952381 24.483816964285715  41.945684523809526 24.544270833333332  41.74107142857143 24.693080357142854  C 37.44419642857143 27.836681547619047  34.25409226190476 30.16183035714286  32.17075892857143 31.668526785714285  C 32.077752976190474 31.72433035714286  31.59412202380953 32.08705357142857  30.71986607142857 32.75669642857143  C 29.84561011904762 33.426339285714285  29.180617559523814 33.914620535714285  28.724888392857146 34.22154017857143  C 28.269159226190478 34.52845982142857  27.669270833333336 34.8539806547619  26.925223214285715 35.19810267857143  C 26.1811755952381 35.542224702380956  25.539434523809522 35.714285714285715  25 35.714285714285715  C 24.460565476190478 35.714285714285715  23.818824404761905 35.542224702380956  23.074776785714285 35.19810267857143  C 22.330729166666668 34.8539806547619  21.730840773809526 34.52845982142857  21.275111607142858 34.22154017857143  C 20.819382440476193 33.914620535714285  20.15438988095238 33.426339285714285  19.280133928571427 32.75669642857143  C 18.405877976190478 32.08705357142857  17.922247023809526 31.72433035714286  17.829241071428573 31.668526785714285  C 14.369419642857142 29.175967261904763  11.179315476190478 26.850818452380953  8.258928571428571 24.693080357142854  C 8.054315476190476 24.544270833333332  7.831101190476191 24.483816964285715  7.5892857142857135 24.51171875  C 7.34747023809524 24.539620535714285  7.15215773809524 24.655877976190478  7.0033482142857135 24.86049107142857  L 5.943080357142857 26.31138392857143  C 5.794270833333334 26.515997023809522  5.733816964285714 26.734561011904763  5.76171875 26.96707589285714  C 5.789620535714286 27.199590773809522  5.905877976190476 27.390252976190478  6.110491071428571 27.5390625  C 7.635788690476191 28.673735119047617  10.844494047619047 31.017485119047617  15.736607142857142 34.5703125  C 15.92261904761905 34.719122023809526  16.38764880952381 35.07254464285714  17.131696428571427 35.63058035714286  C 17.87574404761905 36.18861607142857  18.480282738095237 36.625744047619044  18.9453125 36.941964285714285  C 19.410342261904763 37.258184523809526  20.005580357142858 37.625558035714285  20.731026785714285 38.04408482142857  C 21.456473214285715 38.46261160714286  22.177269345238095 38.774181547619044  22.893415178571427 38.97879464285714  C 23.609561011904763 39.183407738095234  24.311755952380953 39.285714285714285  25 39.285714285714285  C 25.68824404761905 39.285714285714285  26.390438988095244 39.183407738095234  27.10658482142857 38.97879464285714  C 27.822730654761905 38.774181547619044  28.55747767857143 38.453311011904766  29.310825892857146 38.016183035714285  C 30.064174107142854 37.57905505952381  30.6640625 37.211681547619044  31.11049107142857 36.9140625  C 31.556919642857146 36.616443452380956  32.161458333333336 36.17466517857143  32.924107142857146 35.58872767857143  Z " fill-rule="nonzero" fill="#286acc" stroke="none" transform="matrix(1 0 0 1 247 867 )" />
  </g>
</svg>