<?xml version="1.0" encoding="utf-8"?>
<svg version="1.1" xmlns:xlink="http://www.w3.org/1999/xlink" width="300px" height="170px" xmlns="http://www.w3.org/2000/svg">
  <g transform="matrix(1 0 0 1 -139 -253 )">
    <path d="M 139 253  L 439 253  L 439 423  L 139 423  L 139 253  " fill-rule="nonzero" fill="#cccccc" stroke="none" />
    <path d="M 151 265  L 427 265  L 427 411  L 151 411  L 151 265  " fill-rule="nonzero" fill="#ffffff" stroke="none" />
    <path d="M 307.75 304  C 300.61 304  295 298.39  295 291.25  C 295 284.11  300.61 278.5  307.75 278.5  C 314.89 278.5  320.5 284.11  320.5 291.25  C 320.5 298.39  314.89 304  307.75 304  " fill-rule="nonzero" fill="#cccccc" stroke="none" />
    <path d="M 156 407  L 156 331.65  L 222.75 297.4  L 316.2 360.42  L 369.6 317.95  L 423 360.42  L 423 407  L 156 407  " fill-rule="nonzero" fill="#169bd5" stroke="none" />
  </g>
</svg>