<?xml version="1.0" encoding="utf-8"?>
<!-- Generator: Adobe Illustrator 21.0.0, SVG Export Plug-In . SVG Version: 6.00 Build 0)  -->
<svg version="1.1" xmlns="http://www.w3.org/2000/svg" xmlns:xlink="http://www.w3.org/1999/xlink" x="0px" y="0px"
	 viewBox="0 0 1024 1024" style="enable-background:new 0 0 1024 1024;" xml:space="preserve">
<style type="text/css">
	.st0{display:none;}
	.st1{display:inline;}
	.st2{opacity:0.25;}
	.st3{display:inline;opacity:0.25;}
	.st4{enable-background:new    ;}
	.st5{fill:url(#SVGID_1_);}
	.st6{fill:url(#SVGID_2_);}
	.st7{fill:url(#SVGID_3_);}
	.st8{fill:url(#SVGID_4_);}
	.st9{fill:url(#SVGID_5_);}
	.st10{fill:url(#SVGID_6_);}
	.st11{fill:url(#SVGID_7_);}
	.st12{fill:url(#SVGID_8_);}
	.st13{fill:url(#SVGID_9_);}
	.st14{fill:url(#SVGID_10_);}
	.st15{fill:url(#SVGID_11_);}
	.st16{fill:url(#SVGID_12_);}
	.st17{fill:url(#SVGID_13_);}
	.st18{fill:url(#SVGID_14_);}
	.st19{fill:url(#SVGID_15_);}
	.st20{fill:url(#SVGID_16_);}
	.st21{fill:url(#SVGID_19_);}
	.st22{fill:url(#SVGID_20_);}
	.st23{fill:url(#SVGID_21_);}
	.st24{fill:url(#SVGID_22_);}
	.st25{fill:url(#SVGID_23_);}
	.st26{fill:url(#SVGID_24_);}
	.st27{fill:url(#SVGID_25_);}
	.st28{fill:url(#SVGID_26_);}
	.st29{fill:url(#SVGID_27_);}
	.st30{fill:url(#SVGID_28_);}
	.st31{fill:url(#SVGID_29_);}
	.st32{fill:url(#SVGID_30_);}
	.st33{fill:url(#SVGID_31_);}
	.st34{fill:url(#SVGID_32_);}
	.st35{fill:url(#SVGID_33_);}
	.st36{fill:url(#SVGID_34_);}
	.st37{fill:url(#SVGID_35_);}
	.st38{fill:url(#SVGID_36_);}
	.st39{fill:url(#SVGID_37_);}
	.st40{fill:url(#SVGID_38_);}
	.st41{fill:url(#SVGID_39_);}
</style>
<g id="图层_1" class="st0">
	<g id="bg">
		<g id="图层_2" class="st1">
			<g id="图标参考线">
				<g id="图标尺寸" class="st2">
					<path d="M1018.2,5.8v1012.5H5.8V5.8H1018.2 M1024,0H0v1024h1024V0z"/>
					<path d="M512,28.8c266.9,0,483.2,216.4,483.2,483.2S778.9,995.2,512,995.2S28.8,778.9,28.8,512S245.1,28.8,512,28.8 M512,23
						C241.9,23,23,241.9,23,512s218.9,489,489,489s489-218.9,489-489C1000.7,242,782,23.3,512,23z"/>
					<path d="M949.2,74.8v874.4H74.8V74.8H949.2 M955,69H69v886h886V69z"/>
					<path d="M995.2,28.8v966.5H28.8V28.8H995.2 M1001,23H23v978h978V23z"/>
					<path d="M995.2,189.8v644.3H28.8V189.8H995.2 M1001,184.1H23v655.8h978V184.1z"/>
				</g>
			</g>
		</g>
	</g>
	<g id="图标尺寸_1_" class="st3">
		<g>
			<path d="M1017.1,4.6v1010.2H6.9V4.6L1017.1,4.6 M1021.7,0h-6.9H4.6H0v6.9v1010.2v6.9h6.9h1010.2h6.9v-6.9V6.9V0H1021.7z"/>
		</g>
		<g>
			<path d="M512,27.6c266.3,0,482.2,215.8,482.2,482.2S778.3,991.9,512,991.9S29.8,776.1,29.8,509.7S245.7,27.6,512,27.6 M512,23
				c-268.6,0-489,218.1-489,486.7s218.1,486.7,489,486.7s489-218.1,489-486.7S780.6,23,512,23L512,23z"/>
		</g>
		<g>
			<path d="M948.2,73.5V946H75.8V73.5L948.2,73.5 M952.8,68.9h-6.9H73.5h-4.6v6.9v872.5v6.9h6.9h872.5h6.9v-6.9V75.8v-6.9H952.8z"/>
		</g>
		<g>
			<path d="M994.1,27.6v964.3H29.8V27.6L994.1,27.6 M998.7,23h-6.9H27.5h-4.6v6.9v964.3v6.9h6.9h964.3h6.9v-6.9V29.9V23H998.7z"/>
		</g>
		<g>
			<path d="M994.1,188.3v642.9H29.8V188.3L994.1,188.3 M998.7,183.7h-6.9H27.5h-4.6v4.6v642.9v6.9h6.9h964.3h6.9v-6.9V188.3v-4.6
				H998.7z"/>
		</g>
	</g>
</g>
<g id="图层_2_1_">
	<g>
		<g class="st4">
			<linearGradient id="SVGID_1_" gradientUnits="userSpaceOnUse" x1="30.0774" y1="841.1631" x2="995.994" y2="841.1631">
				<stop  offset="0" style="stop-color:#F6F6F9"/>
				<stop  offset="1" style="stop-color:#D7D8D5"/>
			</linearGradient>
			<path class="st5" d="M995.8,671.9c-0.1,0.7-0.1,1.4-0.2,2.1c-0.1,0.6-0.3,1.1-0.4,1.7c-0.2,0.7-0.3,1.3-0.6,2
				c-0.2,0.5-0.4,1.1-0.7,1.6c-0.3,0.7-0.6,1.4-1,2c-0.3,0.5-0.6,1-0.9,1.5c-0.5,0.8-1,1.5-1.5,2.3c-0.3,0.4-0.7,0.9-1.1,1.3
				c-0.8,1-1.8,2-2.8,3c-0.4,0.4-0.7,0.7-1.1,1.1c-0.6,0.6-1.3,1.1-2,1.7c-0.6,0.5-1.2,1-1.8,1.5c-0.7,0.5-1.6,1-2.4,1.6
				c-0.8,0.5-1.6,1.1-2.5,1.6L561.1,938.4c-2,1.1-4,2.2-6.2,3.1c-0.6,0.3-1.2,0.5-1.9,0.8c-1.7,0.7-3.4,1.4-5.1,1.9
				c-0.6,0.2-1.3,0.4-1.9,0.7c-1.1,0.3-2.2,0.7-3.4,1c-0.9,0.2-1.7,0.5-2.6,0.7c-1.2,0.3-2.4,0.5-3.6,0.8c-0.8,0.2-1.7,0.4-2.5,0.5
				c-2.5,0.4-4.9,0.8-7.5,1c-0.8,0.1-1.6,0.1-2.3,0.2c-1.5,0.1-3,0.2-4.4,0.3c-0.9,0-1.9,0.1-2.8,0.1c-1.2,0-2.4,0-3.6,0
				c-1,0-2,0-3-0.1c-1.1,0-2.2-0.1-3.3-0.2c-1-0.1-2-0.2-3-0.3c-1.1-0.1-2.2-0.2-3.3-0.4c-1-0.1-1.9-0.3-2.9-0.4
				c-1.2-0.2-2.3-0.4-3.5-0.6c-0.9-0.2-1.8-0.4-2.7-0.5c-1.4-0.3-2.7-0.6-4.1-1c-0.7-0.2-1.5-0.4-2.2-0.6c-2.4-0.7-4.8-1.5-7.1-2.4
				c-1.1-0.4-2.2-0.9-3.3-1.4c-0.6-0.3-1.2-0.5-1.7-0.7c-1.7-0.8-3.3-1.6-4.8-2.5L49.6,696.7c-12.9-7.5-19.4-17.3-19.4-27.1
				l-0.2,63.2c0,9.8,6.4,19.6,19.4,27.1L468,1001.6c1.5,0.9,3.2,1.7,4.8,2.5c0.6,0.3,1.1,0.5,1.7,0.7c1,0.4,1.9,0.9,3,1.3
				c0.1,0,0.2,0.1,0.4,0.1c2.3,0.9,4.6,1.7,7,2.4c0.2,0.1,0.4,0.1,0.6,0.2c0.5,0.2,1.1,0.3,1.7,0.4c1.3,0.4,2.7,0.7,4.1,1
				c0.4,0.1,0.7,0.2,1.1,0.3c0.5,0.1,1.1,0.2,1.6,0.3c1.2,0.2,2.3,0.4,3.5,0.6c0.5,0.1,0.9,0.2,1.4,0.2c0.5,0.1,1,0.1,1.5,0.2
				c1.1,0.1,2.2,0.3,3.3,0.4c0.5,0.1,1,0.1,1.6,0.2c0.5,0,1,0,1.5,0.1c1.1,0.1,2.2,0.1,3.3,0.2c0.6,0,1.1,0.1,1.7,0.1
				c0.4,0,0.9,0,1.3,0c1.2,0,2.4,0,3.6,0c0.6,0,1.2,0,1.8,0c0.4,0,0.7-0.1,1-0.1c1.5-0.1,3-0.2,4.5-0.3c0.6,0,1.2-0.1,1.8-0.1
				c0.2,0,0.4-0.1,0.5-0.1c2.5-0.3,5-0.6,7.5-1c0.1,0,0.3,0,0.4-0.1c0.7-0.1,1.4-0.3,2.1-0.5c1.2-0.2,2.4-0.5,3.6-0.8
				c0.9-0.2,1.7-0.5,2.6-0.7c1.1-0.3,2.3-0.6,3.4-1c0.2-0.1,0.5-0.1,0.7-0.2c0.4-0.1,0.8-0.3,1.2-0.4c1.8-0.6,3.5-1.2,5.1-1.9
				c0.6-0.3,1.3-0.5,1.9-0.8c2.1-1,4.2-2,6.2-3.1l415.9-241.7c0.3-0.2,0.5-0.3,0.8-0.5c0.6-0.4,1.1-0.8,1.7-1.1
				c0.8-0.5,1.6-1,2.4-1.6c0.6-0.5,1.2-1,1.8-1.4c0.7-0.6,1.4-1.1,2-1.7c0.1-0.1,0.3-0.2,0.4-0.3c0.3-0.2,0.4-0.5,0.7-0.7
				c1-1,1.9-2,2.8-3c0.2-0.2,0.4-0.4,0.6-0.7c0.2-0.2,0.3-0.5,0.5-0.7c0.6-0.8,1.1-1.5,1.5-2.3c0.2-0.3,0.5-0.6,0.6-1
				c0.1-0.2,0.1-0.3,0.2-0.5c0.4-0.7,0.7-1.4,1-2c0.2-0.4,0.4-0.8,0.6-1.2c0.1-0.1,0.1-0.3,0.1-0.4c0.2-0.7,0.4-1.3,0.6-2
				c0.1-0.4,0.3-0.9,0.4-1.3c0-0.1,0-0.2,0-0.4c0.1-0.7,0.2-1.4,0.2-2.1c0-0.4,0.1-0.9,0.2-1.3c0-0.2,0-0.4,0-0.6L996,670
				C996,670.7,995.9,671.3,995.8,671.9z"/>
			<g>
				<g>
					<linearGradient id="SVGID_2_" gradientUnits="userSpaceOnUse" x1="30.2568" y1="669.8132" x2="995.994" y2="669.8132">
						<stop  offset="0" style="stop-color:#D7D8D5"/>
						<stop  offset="1" style="stop-color:#F6F6F9"/>
					</linearGradient>
					<path class="st6" d="M976.6,642.9c25.7,14.8,25.9,38.9,0.3,53.8L561.1,938.4c-25.5,14.8-67.1,14.8-92.8,0L49.6,696.7
						c-25.7-14.8-25.8-38.9-0.3-53.8l415.9-241.7c25.5-14.8,67.1-14.8,92.8,0L976.6,642.9z"/>
				</g>
			</g>
		</g>
	</g>
	<g>
		<g>
			<g>
				<linearGradient id="SVGID_3_" gradientUnits="userSpaceOnUse" x1="650.785" y1="501.6719" x2="780.4048" y2="501.6719">
					<stop  offset="0" style="stop-color:#777896"/>
					<stop  offset="1" style="stop-color:#9693A4"/>
				</linearGradient>
				<polygon class="st7" points="780.4,323.5 779.6,605 650.8,679.8 651.6,398.4 				"/>
			</g>
			<g>
				<linearGradient id="SVGID_4_" gradientUnits="userSpaceOnUse" x1="521.1202" y1="501.6725" x2="651.5829" y2="501.6725">
					<stop  offset="0" style="stop-color:#777896"/>
					<stop  offset="1" style="stop-color:#9693A4"/>
				</linearGradient>
				<polygon class="st8" points="651.6,398.4 650.8,679.8 521.1,605 521.9,323.5 				"/>
			</g>
			<g>
				<linearGradient id="SVGID_5_" gradientUnits="userSpaceOnUse" x1="521.9182" y1="323.5136" x2="780.4048" y2="323.5136">
					<stop  offset="0" style="stop-color:#777896"/>
					<stop  offset="1" style="stop-color:#9693A4"/>
				</linearGradient>
				<polygon class="st9" points="780.4,323.5 651.6,398.4 521.9,323.5 650.7,248.7 				"/>
			</g>
		</g>
	</g>
	<g>
		<g>
			<g>
				<g>
					<linearGradient id="SVGID_6_" gradientUnits="userSpaceOnUse" x1="362.0579" y1="501.032" x2="612.2296" y2="501.032">
						<stop  offset="0" style="stop-color:#6386DB"/>
						<stop  offset="1" style="stop-color:#8EB0EC"/>
					</linearGradient>
					<polygon class="st10" points="612.2,157.2 610.7,700.4 362.1,844.9 363.6,301.7 					"/>
				</g>
			</g>
			<g>
				<linearGradient id="SVGID_7_" gradientUnits="userSpaceOnUse" x1="111.7997" y1="501.0331" x2="363.5979" y2="501.0331">
					<stop  offset="0" style="stop-color:#6386DB"/>
					<stop  offset="1" style="stop-color:#8EB0EC"/>
				</linearGradient>
				<polygon class="st11" points="363.6,301.7 362.1,844.9 111.8,700.4 113.3,157.2 				"/>
			</g>
			<g>
				<linearGradient id="SVGID_8_" gradientUnits="userSpaceOnUse" x1="113.3397" y1="157.1754" x2="612.2296" y2="157.1754">
					<stop  offset="0" style="stop-color:#6386DB"/>
					<stop  offset="1" style="stop-color:#8EB0EC"/>
				</linearGradient>
				<polygon class="st12" points="612.2,157.2 363.6,301.7 113.3,157.2 362,12.7 				"/>
			</g>
		</g>
	</g>
	<g>
		<g>
			<g>
				<linearGradient id="SVGID_9_" gradientUnits="userSpaceOnUse" x1="362.5107" y1="192.6625" x2="519.7151" y2="192.6625">
					<stop  offset="0" style="stop-color:#D7D8D5"/>
					<stop  offset="1" style="stop-color:#EDEDEE"/>
				</linearGradient>
				<polygon class="st13" points="519.7,140.6 519.7,153.4 362.5,244.7 362.5,231.9 				"/>
			</g>
			<g>
				<linearGradient id="SVGID_10_" gradientUnits="userSpaceOnUse" x1="204.3141" y1="192.6632" x2="362.5469" y2="192.6632">
					<stop  offset="0" style="stop-color:#D7D8D5"/>
					<stop  offset="1" style="stop-color:#EDEDEE"/>
				</linearGradient>
				<polygon class="st14" points="362.5,231.9 362.5,244.7 204.3,153.4 204.4,140.6 				"/>
			</g>
			<g>
				<linearGradient id="SVGID_11_" gradientUnits="userSpaceOnUse" x1="204.3504" y1="140.6042" x2="519.7151" y2="140.6042">
					<stop  offset="0" style="stop-color:#FBFBFB"/>
					<stop  offset="1" style="stop-color:#FBFBFB"/>
				</linearGradient>
				<polygon class="st15" points="519.7,140.6 362.5,231.9 204.4,140.6 361.5,49.3 				"/>
			</g>
		</g>
	</g>
	<g>
		<g>
			<linearGradient id="SVGID_12_" gradientUnits="userSpaceOnUse" x1="391.5544" y1="315.583" x2="586.6202" y2="315.583">
				<stop  offset="0" style="stop-color:#D1D1E4"/>
				<stop  offset="1" style="stop-color:#EBE1EE"/>
			</linearGradient>
			<polygon class="st16" points="391.7,393.8 391.6,349.9 586.5,237.4 586.6,281.2 			"/>
		</g>
	</g>
	<g>
		<g>
			<linearGradient id="SVGID_13_" gradientUnits="userSpaceOnUse" x1="391.5544" y1="412.4373" x2="586.6202" y2="412.4373">
				<stop  offset="0" style="stop-color:#D1D1E4"/>
				<stop  offset="1" style="stop-color:#EBE1EE"/>
			</linearGradient>
			<polygon class="st17" points="391.7,490.6 391.6,446.8 586.5,334.2 586.6,378.1 			"/>
		</g>
	</g>
	<g>
		<g>
			<linearGradient id="SVGID_14_" gradientUnits="userSpaceOnUse" x1="391.5544" y1="506.3326" x2="586.6203" y2="506.3326">
				<stop  offset="0" style="stop-color:#D1D1E4"/>
				<stop  offset="1" style="stop-color:#EBE1EE"/>
			</linearGradient>
			<polygon class="st18" points="391.7,584.5 391.6,540.7 586.5,428.1 586.6,472 			"/>
		</g>
	</g>
	<g>
		<g>
			<linearGradient id="SVGID_15_" gradientUnits="userSpaceOnUse" x1="391.5544" y1="596.5127" x2="586.6202" y2="596.5127">
				<stop  offset="0" style="stop-color:#D1D1E4"/>
				<stop  offset="1" style="stop-color:#EBE1EE"/>
			</linearGradient>
			<polygon class="st19" points="391.7,674.7 391.6,630.9 586.5,518.3 586.6,562.2 			"/>
		</g>
	</g>
	<g>
		<g>
			<linearGradient id="SVGID_16_" gradientUnits="userSpaceOnUse" x1="391.5544" y1="686.3253" x2="586.6202" y2="686.3253">
				<stop  offset="0" style="stop-color:#D1D1E4"/>
				<stop  offset="1" style="stop-color:#EBE1EE"/>
			</linearGradient>
			<polygon class="st20" points="391.7,764.5 391.6,720.7 586.5,608.1 586.6,652 			"/>
		</g>
	</g>
	<g class="st4">
		<defs>
			<polygon id="SVGID_17_" class="st4" points="727.9,429.7 727.7,392 760.6,373 760.7,410.8 			"/>
		</defs>
		<clipPath id="SVGID_18_">
			<use xlink:href="#SVGID_17_"  style="overflow:visible;"/>
		</clipPath>
	</g>
	<g>
		<g>
			<linearGradient id="SVGID_19_" gradientUnits="userSpaceOnUse" x1="676.2081" y1="428.9245" x2="709.1677" y2="428.9245">
				<stop  offset="0" style="stop-color:#D1D1E4"/>
				<stop  offset="1" style="stop-color:#EBE1EE"/>
			</linearGradient>
			<polygon class="st21" points="676.2,419.5 676.3,457.3 709.2,438.3 709.1,400.6 			"/>
			<linearGradient id="SVGID_20_" gradientUnits="userSpaceOnUse" x1="727.7471" y1="401.3682" x2="760.7067" y2="401.3682">
				<stop  offset="0" style="stop-color:#D1D1E4"/>
				<stop  offset="1" style="stop-color:#EBE1EE"/>
			</linearGradient>
			<polygon class="st22" points="760.7,410.8 760.6,373 727.7,392 727.9,429.7 			"/>
			<linearGradient id="SVGID_21_" gradientUnits="userSpaceOnUse" x1="676.2081" y1="485.8189" x2="709.1677" y2="485.8189">
				<stop  offset="0" style="stop-color:#D1D1E4"/>
				<stop  offset="1" style="stop-color:#EBE1EE"/>
			</linearGradient>
			<polygon class="st23" points="676.2,476.4 676.3,514.2 709.2,495.2 709.1,457.5 			"/>
			<linearGradient id="SVGID_22_" gradientUnits="userSpaceOnUse" x1="727.7471" y1="458.2621" x2="760.7067" y2="458.2621">
				<stop  offset="0" style="stop-color:#D1D1E4"/>
				<stop  offset="1" style="stop-color:#EBE1EE"/>
			</linearGradient>
			<polygon class="st24" points="727.7,448.9 727.9,486.6 760.7,467.7 760.6,429.9 			"/>
			<linearGradient id="SVGID_23_" gradientUnits="userSpaceOnUse" x1="676.2081" y1="545.759" x2="709.1677" y2="545.759">
				<stop  offset="0" style="stop-color:#D1D1E4"/>
				<stop  offset="1" style="stop-color:#EBE1EE"/>
			</linearGradient>
			<polygon class="st25" points="676.2,536.3 676.3,574.1 709.2,555.2 709.1,517.4 			"/>
			<linearGradient id="SVGID_24_" gradientUnits="userSpaceOnUse" x1="727.7471" y1="518.2025" x2="760.7067" y2="518.2025">
				<stop  offset="0" style="stop-color:#D1D1E4"/>
				<stop  offset="1" style="stop-color:#EBE1EE"/>
			</linearGradient>
			<polygon class="st26" points="727.7,508.8 727.9,546.6 760.7,527.6 760.6,489.8 			"/>
			<linearGradient id="SVGID_25_" gradientUnits="userSpaceOnUse" x1="676.2081" y1="605.6989" x2="709.1677" y2="605.6989">
				<stop  offset="0" style="stop-color:#D1D1E4"/>
				<stop  offset="1" style="stop-color:#EBE1EE"/>
			</linearGradient>
			<polygon class="st27" points="676.2,596.3 676.3,634.1 709.2,615.1 709.1,577.3 			"/>
			<linearGradient id="SVGID_26_" gradientUnits="userSpaceOnUse" x1="727.7471" y1="578.1422" x2="760.7067" y2="578.1422">
				<stop  offset="0" style="stop-color:#D1D1E4"/>
				<stop  offset="1" style="stop-color:#EBE1EE"/>
			</linearGradient>
			<polygon class="st28" points="727.7,568.7 727.9,606.5 760.7,587.6 760.6,549.8 			"/>
		</g>
	</g>
	<linearGradient id="SVGID_27_" gradientUnits="userSpaceOnUse" x1="283.4645" y1="106.3054" x2="440.5585" y2="106.3054">
		<stop  offset="0" style="stop-color:#D1D1E4"/>
		<stop  offset="1" style="stop-color:#EBE1EE"/>
	</linearGradient>
	<circle class="st29" cx="362" cy="106.3" r="78.5"/>
	<g>
		<linearGradient id="SVGID_28_" gradientUnits="userSpaceOnUse" x1="557.0472" y1="801.0323" x2="589.549" y2="801.0323">
			<stop  offset="0" style="stop-color:#565656"/>
			<stop  offset="1" style="stop-color:#494949"/>
		</linearGradient>
		<rect x="557" y="739.8" class="st30" width="32.5" height="122.6"/>
		<g>
			<linearGradient id="SVGID_29_" gradientUnits="userSpaceOnUse" x1="557.0472" y1="862.4744" x2="589.549" y2="862.4744">
				<stop  offset="0" style="stop-color:#565656"/>
				<stop  offset="1" style="stop-color:#494949"/>
			</linearGradient>
			<path class="st31" d="M584.8,855.8c6.4,3.7,6.4,9.6,0.1,13.3c-6.3,3.7-16.6,3.7-23,0c-6.4-3.7-6.4-9.6-0.1-13.3
				C568.1,852.1,578.4,852.1,584.8,855.8z"/>
		</g>
	</g>
	<g>
		<linearGradient id="SVGID_30_" gradientUnits="userSpaceOnUse" x1="486.0282" y1="793.627" x2="660.568" y2="793.627">
			<stop  offset="0" style="stop-color:#00C692"/>
			<stop  offset="1" style="stop-color:#00AB7E"/>
		</linearGradient>
		<path class="st32" d="M511.8,806.1c34.2,23.4,89.5,23.4,123.4,0c17-11.7,25.4-27.1,25.4-42.4l-174.5,0
			C486.1,779,494.7,794.3,511.8,806.1z"/>
		<linearGradient id="SVGID_31_" gradientUnits="userSpaceOnUse" x1="486.0282" y1="674.5853" x2="660.5679" y2="674.5853">
			<stop  offset="0" style="stop-color:#00C692"/>
			<stop  offset="1" style="stop-color:#00AB7E"/>
		</linearGradient>
		<polygon class="st33" points="573.3,585.6 486,763.6 660.6,763.6 660.6,763.6 		"/>
	</g>
	<g>
		<linearGradient id="SVGID_32_" gradientUnits="userSpaceOnUse" x1="480.1825" y1="831.462" x2="500.7359" y2="831.462">
			<stop  offset="0" style="stop-color:#565656"/>
			<stop  offset="1" style="stop-color:#494949"/>
		</linearGradient>
		<rect x="480.2" y="792.7" class="st34" width="20.6" height="77.5"/>
		<g>
			<linearGradient id="SVGID_33_" gradientUnits="userSpaceOnUse" x1="480.1825" y1="870.3165" x2="500.7359" y2="870.3165">
				<stop  offset="0" style="stop-color:#565656"/>
				<stop  offset="1" style="stop-color:#494949"/>
			</linearGradient>
			<path class="st35" d="M497.7,866.1c4,2.3,4,6.1,0,8.4c-4,2.3-10.5,2.3-14.5,0c-4-2.3-4-6.1,0-8.4
				C487.2,863.8,493.7,863.8,497.7,866.1z"/>
		</g>
	</g>
	<g>
		<linearGradient id="SVGID_34_" gradientUnits="userSpaceOnUse" x1="435.2718" y1="826.779" x2="545.6466" y2="826.779">
			<stop  offset="0" style="stop-color:#00C692"/>
			<stop  offset="1" style="stop-color:#00AB7E"/>
		</linearGradient>
		<path class="st36" d="M451.6,834.6c21.6,14.8,56.6,14.8,78,0c10.7-7.4,16.1-17.1,16-26.8l-110.4,0
			C435.3,817.5,440.8,827.2,451.6,834.6z"/>
		<linearGradient id="SVGID_35_" gradientUnits="userSpaceOnUse" x1="435.2718" y1="751.4999" x2="545.6465" y2="751.4999">
			<stop  offset="0" style="stop-color:#00C692"/>
			<stop  offset="1" style="stop-color:#00AB7E"/>
		</linearGradient>
		<polygon class="st37" points="490.5,695.2 435.3,807.8 545.6,807.8 545.6,807.8 		"/>
	</g>
	<g>
		<linearGradient id="SVGID_36_" gradientUnits="userSpaceOnUse" x1="833.7825" y1="652.262" x2="854.3359" y2="652.262">
			<stop  offset="0" style="stop-color:#565656"/>
			<stop  offset="1" style="stop-color:#494949"/>
		</linearGradient>
		<rect x="833.8" y="613.5" class="st38" width="20.6" height="77.5"/>
		<g>
			<linearGradient id="SVGID_37_" gradientUnits="userSpaceOnUse" x1="833.7825" y1="691.1165" x2="854.3359" y2="691.1165">
				<stop  offset="0" style="stop-color:#565656"/>
				<stop  offset="1" style="stop-color:#494949"/>
			</linearGradient>
			<path class="st39" d="M851.3,686.9c4,2.3,4,6.1,0,8.4c-4,2.3-10.5,2.3-14.5,0c-4-2.3-4-6.1,0-8.4
				C840.8,684.6,847.3,684.6,851.3,686.9z"/>
		</g>
	</g>
	<g>
		<linearGradient id="SVGID_38_" gradientUnits="userSpaceOnUse" x1="788.8718" y1="647.579" x2="899.2466" y2="647.579">
			<stop  offset="0" style="stop-color:#00C692"/>
			<stop  offset="1" style="stop-color:#00AB7E"/>
		</linearGradient>
		<path class="st40" d="M805.2,655.4c21.6,14.8,56.6,14.8,78,0c10.7-7.4,16.1-17.1,16-26.8l-110.4,0
			C788.9,638.3,794.4,648,805.2,655.4z"/>
		<linearGradient id="SVGID_39_" gradientUnits="userSpaceOnUse" x1="788.8718" y1="572.2999" x2="899.2466" y2="572.2999">
			<stop  offset="0" style="stop-color:#00C692"/>
			<stop  offset="1" style="stop-color:#00AB7E"/>
		</linearGradient>
		<polygon class="st41" points="844.1,516 788.9,628.6 899.2,628.6 899.2,628.6 		"/>
	</g>
</g>
</svg>
