<?xml version="1.0" encoding="utf-8"?>
<!-- Generator: Adobe Illustrator 21.0.0, SVG Export Plug-In . SVG Version: 6.00 Build 0)  -->
<svg version="1.1" xmlns="http://www.w3.org/2000/svg" xmlns:xlink="http://www.w3.org/1999/xlink" x="0px" y="0px"
	 viewBox="0 0 1024 1024" style="enable-background:new 0 0 1024 1024;" xml:space="preserve">
<style type="text/css">
	.st0{display:none;}
	.st1{display:inline;}
	.st2{opacity:0.25;}
	.st3{display:inline;opacity:0.25;}
	.st4{fill:url(#SVGID_1_);}
	.st5{fill:#FDFDFD;}
	.st6{fill:url(#SVGID_2_);}
	.st7{fill:url(#SVGID_3_);}
	.st8{fill:url(#SVGID_4_);}
	.st9{fill:url(#SVGID_5_);}
	.st10{fill:url(#SVGID_6_);}
	.st11{fill:url(#SVGID_7_);}
	.st12{fill:url(#SVGID_8_);}
	.st13{fill:url(#SVGID_9_);}
	.st14{fill:url(#SVGID_10_);}
	.st15{fill:url(#SVGID_11_);}
	.st16{fill:url(#SVGID_12_);}
	.st17{fill:url(#SVGID_13_);}
	.st18{fill:url(#SVGID_14_);}
	.st19{fill:url(#SVGID_15_);}
	.st20{fill:url(#SVGID_16_);}
	.st21{fill:url(#SVGID_17_);}
	.st22{fill:url(#SVGID_18_);}
	.st23{fill:url(#SVGID_19_);}
	.st24{fill:url(#SVGID_20_);}
	.st25{fill:url(#SVGID_21_);}
	.st26{fill:url(#SVGID_22_);}
	.st27{fill:url(#SVGID_23_);}
	.st28{fill:url(#SVGID_24_);}
	.st29{fill:url(#SVGID_25_);}
	.st30{fill:url(#SVGID_26_);}
	.st31{fill:url(#SVGID_27_);}
	.st32{fill:url(#SVGID_28_);}
	.st33{fill:url(#SVGID_29_);}
	.st34{fill:url(#SVGID_30_);}
	.st35{fill:url(#SVGID_31_);}
	.st36{fill:url(#SVGID_32_);}
	.st37{fill:url(#SVGID_33_);}
	.st38{fill:url(#SVGID_34_);}
	.st39{fill:url(#SVGID_35_);}
	.st40{fill:url(#SVGID_36_);}
	.st41{fill:url(#SVGID_37_);}
	.st42{fill:url(#SVGID_38_);}
	.st43{fill:url(#SVGID_39_);}
	.st44{fill:url(#SVGID_40_);}
	.st45{fill:url(#SVGID_41_);}
	.st46{fill:url(#SVGID_42_);}
	.st47{fill:url(#SVGID_43_);}
	.st48{fill:url(#SVGID_44_);}
	.st49{fill:#141011;}
	.st50{fill:#231F20;}
	.st51{fill:#1E1805;}
	.st52{fill:#E2E8E8;}
	.st53{fill:#2A3244;}
	.st54{fill:#454C60;}
	.st55{fill:#EFCAB1;}
	.st56{fill:#D39450;}
	.st57{fill:#EFB797;}
	.st58{fill:#492F15;}
	.st59{fill:#B5D6FF;}
</style>
<g id="图层_1" class="st0">
	<g id="bg">
		<g id="图层_2" class="st1">
			<g id="图标参考线">
				<g id="图标尺寸" class="st2">
					<path d="M1018.2,5.8v1012.5H5.8V5.8H1018.2 M1024,0H0v1024h1024V0z"/>
					<path d="M512,28.8c266.9,0,483.2,216.4,483.2,483.2S778.9,995.2,512,995.2S28.8,778.9,28.8,512S245.1,28.8,512,28.8 M512,23
						C241.9,23,23,241.9,23,512s218.9,489,489,489s489-218.9,489-489C1000.7,242,782,23.3,512,23z"/>
					<path d="M949.2,74.8v874.4H74.8V74.8H949.2 M955,69H69v886h886V69z"/>
					<path d="M995.2,28.8v966.5H28.8V28.8H995.2 M1001,23H23v978h978V23z"/>
					<path d="M995.2,189.8v644.3H28.8V189.8H995.2 M1001,184.1H23v655.8h978V184.1z"/>
				</g>
			</g>
		</g>
	</g>
	<g id="图标尺寸_1_" class="st3">
		<g>
			<path d="M1017.1,4.6v1010.2H6.9V4.6L1017.1,4.6 M1021.7,0h-6.9H4.6H0v6.9v1010.2v6.9h6.9h1010.2h6.9v-6.9V6.9V0H1021.7z"/>
		</g>
		<g>
			<path d="M512,27.6c266.3,0,482.2,215.8,482.2,482.2S778.3,991.9,512,991.9S29.8,776.1,29.8,509.7S245.7,27.6,512,27.6 M512,23
				c-268.6,0-489,218.1-489,486.7s218.1,486.7,489,486.7s489-218.1,489-486.7S780.6,23,512,23L512,23z"/>
		</g>
		<g>
			<path d="M948.2,73.5V946H75.8V73.5L948.2,73.5 M952.8,68.9h-6.9H73.5h-4.6v6.9v872.5v6.9h6.9h872.5h6.9v-6.9V75.8v-6.9H952.8z"/>
		</g>
		<g>
			<path d="M994.1,27.6v964.3H29.8V27.6L994.1,27.6 M998.7,23h-6.9H27.5h-4.6v6.9v964.3v6.9h6.9h964.3h6.9v-6.9V29.9V23H998.7z"/>
		</g>
		<g>
			<path d="M994.1,188.3v642.9H29.8V188.3L994.1,188.3 M998.7,183.7h-6.9H27.5h-4.6v4.6v642.9v6.9h6.9h964.3h6.9v-6.9V188.3v-4.6
				H998.7z"/>
		</g>
	</g>
</g>
<g id="图层_2_1_">
	<g>
		<linearGradient id="SVGID_1_" gradientUnits="userSpaceOnUse" x1="91.3707" y1="423.6446" x2="639.4875" y2="423.6446">
			<stop  offset="0" style="stop-color:#D7D8D5"/>
			<stop  offset="1" style="stop-color:#F6F6F9"/>
		</linearGradient>
		<path class="st4" d="M625.6,49.9c0.4-0.1,0.9-0.3,1.3-0.4c0.4-0.1,0.8-0.2,1.2-0.3c0.5-0.1,1-0.2,1.5-0.2c0.3,0,0.6-0.1,0.9-0.1
			c0.6,0,1.3-0.1,1.9,0c0.1,0,0.3,0,0.4,0c0.7,0,1.5,0.1,2.1,0.3c0.2,0,0.3,0.1,0.5,0.1c0.5,0.1,1.1,0.3,1.6,0.5
			c0.2,0.1,0.3,0.1,0.5,0.2c0.7,0.3,1.3,0.6,1.9,0.9l0,0c0,0,0,0,0,0l-38.3-22.3c-0.1,0-0.1-0.1-0.2-0.1c-0.5-0.3-1-0.5-1.5-0.7
			c-0.1,0-0.2-0.1-0.3-0.1c-0.2-0.1-0.3-0.1-0.5-0.2c-0.3-0.1-0.5-0.2-0.8-0.3c-0.3-0.1-0.6-0.1-0.8-0.2c-0.2,0-0.3-0.1-0.5-0.1
			c-0.1,0-0.2,0-0.3-0.1c-0.6-0.1-1.2-0.2-1.8-0.2c0,0-0.1,0-0.1,0c-0.1,0-0.3,0-0.4,0c-0.5,0-0.9,0-1.4,0c-0.2,0-0.3,0-0.5,0
			c-0.3,0-0.6,0.1-0.9,0.1c-0.3,0-0.5,0-0.8,0.1c-0.2,0-0.5,0.1-0.7,0.2c-0.4,0.1-0.8,0.2-1.2,0.3c-0.2,0.1-0.4,0.1-0.6,0.1
			c-0.2,0.1-0.4,0.2-0.7,0.2c-0.7,0.2-1.4,0.4-2.1,0.7c-0.2,0.1-0.5,0.1-0.7,0.2c-0.1,0.1-0.3,0.1-0.4,0.2c-1.2,0.5-2.4,1.1-3.7,1.8
			L120.4,296.2c-1.5,0.9-3.1,1.9-4.5,3.1c-0.3,0.2-0.5,0.4-0.8,0.6c-1.4,1.1-2.8,2.3-4.1,3.6c-0.1,0.1-0.2,0.2-0.3,0.3
			c-0.2,0.2-0.4,0.5-0.6,0.7c-0.7,0.7-1.3,1.4-1.9,2.1c-0.2,0.2-0.4,0.4-0.6,0.7c-0.2,0.2-0.3,0.4-0.5,0.6c-0.4,0.5-0.8,0.9-1.1,1.4
			c-0.2,0.3-0.5,0.6-0.7,0.9c-0.2,0.3-0.4,0.5-0.6,0.8c-0.3,0.4-0.5,0.7-0.8,1.1c-0.2,0.3-0.4,0.5-0.5,0.7c-0.3,0.4-0.6,0.9-0.9,1.4
			c-0.2,0.3-0.4,0.5-0.6,0.8c-0.1,0.1-0.2,0.2-0.2,0.3c-0.5,0.8-1,1.6-1.5,2.5c0,0.1-0.1,0.1-0.1,0.2c-0.1,0.2-0.2,0.4-0.3,0.5
			c-0.3,0.6-0.7,1.1-1,1.7c-0.2,0.3-0.3,0.6-0.4,0.9c-0.1,0.3-0.3,0.6-0.4,0.9c-0.1,0.2-0.3,0.5-0.4,0.7c-0.3,0.7-0.7,1.4-1,2.1
			c0,0.1-0.1,0.2-0.2,0.3c0,0,0,0.1,0,0.1c-0.4,0.9-0.7,1.7-1.1,2.6c-0.1,0.2-0.1,0.3-0.2,0.5c-0.1,0.3-0.2,0.6-0.3,1
			c-0.2,0.4-0.3,0.9-0.5,1.3c-0.1,0.3-0.2,0.7-0.3,1c-0.1,0.4-0.3,0.8-0.4,1.2c-0.1,0.2-0.2,0.5-0.2,0.7c-0.1,0.4-0.2,0.9-0.3,1.3
			c-0.1,0.5-0.3,1-0.4,1.5c0,0.2-0.1,0.3-0.1,0.5c-0.1,0.4-0.1,0.7-0.2,1.1c-0.1,0.8-0.3,1.6-0.4,2.3c0,0.2-0.1,0.4-0.1,0.6
			c0,0.2,0,0.4,0,0.6c-0.2,1.7-0.3,3.4-0.3,5.1l0.8,277.2l0.5,174.6l38.3,22.3L130.5,646l-0.8-277.2c0-1.7,0.1-3.4,0.3-5.1
			c0-0.4,0.1-0.8,0.1-1.2c0.1-0.8,0.3-1.6,0.4-2.3c0.1-0.5,0.2-1,0.3-1.6c0.1-0.5,0.2-1,0.4-1.5c0.2-0.7,0.4-1.4,0.6-2.1
			c0.1-0.4,0.2-0.8,0.4-1.2c0.2-0.8,0.5-1.6,0.8-2.3c0.1-0.3,0.2-0.6,0.3-1c0.4-1.1,0.8-2.1,1.3-3.2c0-0.1,0.1-0.2,0.2-0.3
			c0.4-1,0.9-1.9,1.3-2.8c0.1-0.3,0.3-0.6,0.4-0.9c0.4-0.9,0.9-1.7,1.4-2.6c0.1-0.2,0.2-0.4,0.3-0.5c0.6-1,1.2-2,1.8-3
			c0.2-0.3,0.4-0.6,0.6-0.8c0.5-0.7,1-1.4,1.4-2.1c0.3-0.4,0.5-0.7,0.8-1.1c0.4-0.6,0.9-1.1,1.3-1.7c0.4-0.5,0.8-0.9,1.1-1.4
			c0.4-0.4,0.7-0.8,1.1-1.3c0.6-0.7,1.3-1.4,1.9-2.1c0.3-0.3,0.6-0.6,1-1c1.3-1.3,2.7-2.5,4.1-3.6c0.2-0.2,0.5-0.4,0.8-0.6
			c1.5-1.1,3-2.2,4.5-3.1L618.8,52.9c1.2-0.7,2.5-1.3,3.7-1.8c0.4-0.2,0.8-0.3,1.1-0.5C624.3,50.3,625,50.1,625.6,49.9z"/>
		<g>
			<path class="st5" d="M618.8,52.9c16.1-9.3,29.2-1.8,29.2,16.7l0.8,277.2l0.5,173.7L131,820.7L130.5,646l-0.8-277.2
				c-0.1-18.5,12.9-41,29-50.3L618.8,52.9z"/>
		</g>
	</g>
	<g>
		<linearGradient id="SVGID_2_" gradientUnits="userSpaceOnUse" x1="130.5357" y1="830.988" x2="953.03" y2="830.988">
			<stop  offset="0" style="stop-color:#D7D8D5"/>
			<stop  offset="1" style="stop-color:#F6F6F9"/>
		</linearGradient>
		<path class="st6" d="M952.9,665.4c0,0.4-0.1,0.9-0.1,1.3c-0.1,0.4-0.2,0.7-0.3,1.1c-0.1,0.4-0.2,0.8-0.4,1.2
			c-0.1,0.3-0.3,0.7-0.4,1c-0.2,0.4-0.4,0.9-0.6,1.3c-0.2,0.3-0.4,0.6-0.6,0.9c-0.3,0.5-0.6,1-1,1.4c-0.2,0.3-0.4,0.6-0.7,0.8
			c-0.5,0.6-1.1,1.3-1.7,1.9c-0.2,0.2-0.4,0.5-0.7,0.7c-0.4,0.4-0.8,0.7-1.3,1c-0.4,0.3-0.7,0.6-1.1,0.9c-0.5,0.3-1,0.7-1.5,1
			c-0.5,0.3-1,0.7-1.6,1L484,946.5c-1.8,1-3.7,1.9-5.7,2.7c-0.5,0.2-1.1,0.4-1.6,0.6c-1.2,0.5-2.5,0.8-3.8,1.2
			c-1.4,0.4-2.7,0.7-4.1,1c-1.6,0.3-3.3,0.6-5,0.9c-0.4,0.1-0.8,0.1-1.2,0.2c-2.3,0.2-4.6,0.4-6.9,0.4c-0.4,0-0.7,0-1.1,0
			c-2.3,0-4.6-0.1-6.8-0.4c-0.3,0-0.7-0.1-1-0.1c-2.2-0.3-4.4-0.6-6.6-1.1c-0.4-0.1-0.8-0.2-1.2-0.3c-2-0.5-3.9-1.1-5.7-1.7
			c-0.3-0.1-0.7-0.2-1-0.3c-2.2-0.9-4.3-1.8-6.3-3L184.7,807.2l-54-31.2l-0.1,44.3l54,31.2l241.3,139.3c1.9,1.1,3.8,2,5.9,2.8
			c0.1,0,0.2,0.1,0.3,0.1c0.3,0.1,0.7,0.2,1,0.3c1.2,0.4,2.4,0.9,3.6,1.2c0.7,0.2,1.4,0.3,2,0.5c0.4,0.1,0.8,0.2,1.2,0.3
			c0.4,0.1,0.7,0.2,1.1,0.3c1.3,0.3,2.7,0.5,4.1,0.7c0.5,0.1,1,0.1,1.5,0.2c0.3,0,0.7,0.1,1,0.1c0.5,0.1,1,0.1,1.5,0.2
			c1.3,0.1,2.7,0.2,4,0.2c0.4,0,0.8,0,1.3,0c0.4,0,0.7,0,1.1,0c0.6,0,1.2,0,1.8,0c1.5-0.1,3-0.2,4.5-0.3c0.2,0,0.3-0.1,0.5-0.1
			c0.4,0,0.8-0.1,1.2-0.2c1.2-0.1,2.4-0.3,3.5-0.5c0.5-0.1,1-0.3,1.5-0.4c1.4-0.3,2.8-0.6,4.1-1c0.7-0.2,1.5-0.3,2.2-0.5
			c0.6-0.2,1.1-0.4,1.7-0.6c0.5-0.2,1.1-0.4,1.6-0.6c2-0.8,3.9-1.7,5.7-2.7L941,725.2c0.2-0.1,0.3-0.2,0.5-0.3
			c0.4-0.2,0.7-0.5,1.1-0.7c0.5-0.3,1-0.7,1.5-1c0.4-0.3,0.8-0.6,1.1-0.9c0.4-0.3,0.9-0.7,1.3-1c0.1-0.1,0.2-0.1,0.3-0.2
			c0.2-0.1,0.3-0.3,0.4-0.5c0.6-0.6,1.2-1.2,1.7-1.9c0.1-0.1,0.3-0.3,0.4-0.4c0.1-0.1,0.2-0.3,0.3-0.4c0.4-0.5,0.7-1,1-1.4
			c0.1-0.2,0.3-0.4,0.4-0.6c0.1-0.1,0.1-0.2,0.1-0.3c0.2-0.4,0.4-0.8,0.6-1.3c0.1-0.3,0.3-0.5,0.4-0.7c0-0.1,0-0.2,0.1-0.3
			c0.1-0.4,0.2-0.8,0.4-1.2c0.1-0.3,0.2-0.6,0.2-0.8c0-0.1,0-0.1,0-0.2c0.1-0.4,0.1-0.9,0.1-1.3c0-0.3,0.1-0.6,0.1-0.8
			c0-0.1,0-0.2,0-0.4l0.1-44.3C953,664.6,953,665,952.9,665.4z"/>
		<g>
			<linearGradient id="SVGID_3_" gradientUnits="userSpaceOnUse" x1="130.6613" y1="715.1245" x2="953.03" y2="715.1245">
				<stop  offset="0" style="stop-color:#F1EDEC"/>
				<stop  offset="1" style="stop-color:#ECECEA"/>
			</linearGradient>
			<path class="st7" d="M940.9,647.3c16.1,9.3,16.1,24.3,0.2,33.6L484,946.5c-16,9.3-41.9,9.3-58,0L184.7,807.2l-54-31.2l515-299.3
				l54,31.2L940.9,647.3z"/>
		</g>
	</g>
	<linearGradient id="SVGID_4_" gradientUnits="userSpaceOnUse" x1="157.1385" y1="404.4472" x2="620.9609" y2="404.4472">
		<stop  offset="0" style="stop-color:#6386DB"/>
		<stop  offset="1" style="stop-color:#8EB0EC"/>
	</linearGradient>
	<polygon class="st8" points="158.2,720.1 157.1,356 619.9,88.8 621,452.9 	"/>
	<g>
		<linearGradient id="SVGID_5_" gradientUnits="userSpaceOnUse" x1="484.7903" y1="628.2895" x2="543.2566" y2="628.2895">
			<stop  offset="0" style="stop-color:#D7D8D5"/>
			<stop  offset="1" style="stop-color:#E2E3DA"/>
		</linearGradient>
		<polygon class="st9" points="543.3,628.3 513.9,611.4 484.8,628.3 514.1,645.2 		"/>
		<linearGradient id="SVGID_6_" gradientUnits="userSpaceOnUse" x1="446.792" y1="650.3716" x2="505.2585" y2="650.3716">
			<stop  offset="0" style="stop-color:#D7D8D5"/>
			<stop  offset="1" style="stop-color:#E2E3DA"/>
		</linearGradient>
		<polygon class="st10" points="505.3,650.4 475.9,633.4 446.8,650.4 476.1,667.3 		"/>
		<linearGradient id="SVGID_7_" gradientUnits="userSpaceOnUse" x1="526.6227" y1="652.4502" x2="585.1195" y2="652.4502">
			<stop  offset="0" style="stop-color:#D7D8D5"/>
			<stop  offset="1" style="stop-color:#E2E3DA"/>
		</linearGradient>
		<polygon class="st11" points="526.6,652.4 556,669.4 585.1,652.5 555.8,635.5 		"/>
		<linearGradient id="SVGID_8_" gradientUnits="userSpaceOnUse" x1="488.6247" y1="674.5324" x2="547.1212" y2="674.5324">
			<stop  offset="0" style="stop-color:#D7D8D5"/>
			<stop  offset="1" style="stop-color:#E2E3DA"/>
		</linearGradient>
		<polygon class="st12" points="488.6,674.5 518,691.5 547.1,674.5 517.8,657.6 		"/>
		<linearGradient id="SVGID_9_" gradientUnits="userSpaceOnUse" x1="602.5582" y1="608.3215" x2="661.0546" y2="608.3215">
			<stop  offset="0" style="stop-color:#D7D8D5"/>
			<stop  offset="1" style="stop-color:#E2E3DA"/>
		</linearGradient>
		<polygon class="st13" points="661.1,608.3 631.7,591.4 602.6,608.3 631.9,625.3 		"/>
		<linearGradient id="SVGID_10_" gradientUnits="userSpaceOnUse" x1="450.6571" y1="696.5967" x2="509.1536" y2="696.5967">
			<stop  offset="0" style="stop-color:#D7D8D5"/>
			<stop  offset="1" style="stop-color:#E2E3DA"/>
		</linearGradient>
		<polygon class="st14" points="450.7,696.6 480,713.5 509.2,696.6 479.8,679.7 		"/>
		<linearGradient id="SVGID_11_" gradientUnits="userSpaceOnUse" x1="564.5903" y1="630.3858" x2="623.0871" y2="630.3858">
			<stop  offset="0" style="stop-color:#D7D8D5"/>
			<stop  offset="1" style="stop-color:#E2E3DA"/>
		</linearGradient>
		<polygon class="st15" points="564.6,630.4 593.9,647.3 623.1,630.4 593.7,613.4 		"/>
		<linearGradient id="SVGID_12_" gradientUnits="userSpaceOnUse" x1="408.8244" y1="672.4361" x2="467.2907" y2="672.4361">
			<stop  offset="0" style="stop-color:#D7D8D5"/>
			<stop  offset="1" style="stop-color:#E2E3DA"/>
		</linearGradient>
		<polygon class="st16" points="467.3,672.4 438,655.5 408.8,672.4 438.2,689.4 		"/>
		<linearGradient id="SVGID_13_" gradientUnits="userSpaceOnUse" x1="370.8263" y1="694.518" x2="429.2926" y2="694.518">
			<stop  offset="0" style="stop-color:#D7D8D5"/>
			<stop  offset="1" style="stop-color:#E2E3DA"/>
		</linearGradient>
		<polygon class="st17" points="429.3,694.5 400,677.6 370.8,694.5 400.2,711.5 		"/>
		<linearGradient id="SVGID_14_" gradientUnits="userSpaceOnUse" x1="332.8588" y1="716.5825" x2="391.3251" y2="716.5825">
			<stop  offset="0" style="stop-color:#D7D8D5"/>
			<stop  offset="1" style="stop-color:#E2E3DA"/>
		</linearGradient>
		<polygon class="st18" points="391.3,716.6 362,699.6 332.9,716.6 362.2,733.5 		"/>
		<linearGradient id="SVGID_15_" gradientUnits="userSpaceOnUse" x1="336.7236" y1="762.8077" x2="395.2201" y2="762.8077">
			<stop  offset="0" style="stop-color:#D7D8D5"/>
			<stop  offset="1" style="stop-color:#E2E3DA"/>
		</linearGradient>
		<polygon class="st19" points="336.7,762.8 366.1,779.7 395.2,762.8 365.9,745.9 		"/>
		<linearGradient id="SVGID_16_" gradientUnits="userSpaceOnUse" x1="294.8909" y1="738.6469" x2="353.3575" y2="738.6469">
			<stop  offset="0" style="stop-color:#D7D8D5"/>
			<stop  offset="1" style="stop-color:#E2E3DA"/>
		</linearGradient>
		<polygon class="st20" points="353.4,738.6 324,721.7 294.9,738.6 324.2,755.6 		"/>
		<linearGradient id="SVGID_17_" gradientUnits="userSpaceOnUse" x1="522.7579" y1="606.2252" x2="581.2242" y2="606.2252">
			<stop  offset="0" style="stop-color:#D7D8D5"/>
			<stop  offset="1" style="stop-color:#E2E3DA"/>
		</linearGradient>
		<polygon class="st21" points="581.2,606.2 551.9,589.3 522.8,606.2 552.1,623.2 		"/>
		<linearGradient id="SVGID_18_" gradientUnits="userSpaceOnUse" x1="412.6588" y1="718.6788" x2="471.1555" y2="718.6788">
			<stop  offset="0" style="stop-color:#D7D8D5"/>
			<stop  offset="1" style="stop-color:#E2E3DA"/>
		</linearGradient>
		<polygon class="st22" points="412.7,718.7 442,735.6 471.2,718.7 441.8,701.7 		"/>
		<linearGradient id="SVGID_19_" gradientUnits="userSpaceOnUse" x1="374.6912" y1="740.7433" x2="433.1877" y2="740.7433">
			<stop  offset="0" style="stop-color:#D7D8D5"/>
			<stop  offset="1" style="stop-color:#E2E3DA"/>
		</linearGradient>
		<polygon class="st23" points="433.2,740.8 403.8,723.8 374.7,740.7 404,757.7 		"/>
		<linearGradient id="SVGID_20_" gradientUnits="userSpaceOnUse" x1="456.3263" y1="743.3527" x2="514.7932" y2="743.3527">
			<stop  offset="0" style="stop-color:#D7D8D5"/>
			<stop  offset="1" style="stop-color:#E2E3DA"/>
		</linearGradient>
		<polygon class="st24" points="514.8,743.4 485.5,726.4 456.3,743.4 485.7,760.3 		"/>
		<linearGradient id="SVGID_21_" gradientUnits="userSpaceOnUse" x1="418.3588" y1="765.4171" x2="476.8257" y2="765.4171">
			<stop  offset="0" style="stop-color:#D7D8D5"/>
			<stop  offset="1" style="stop-color:#E2E3DA"/>
		</linearGradient>
		<polygon class="st25" points="476.8,765.4 447.5,748.5 418.4,765.4 447.7,782.4 		"/>
		<linearGradient id="SVGID_22_" gradientUnits="userSpaceOnUse" x1="532.2922" y1="699.2062" x2="590.7592" y2="699.2062">
			<stop  offset="0" style="stop-color:#D7D8D5"/>
			<stop  offset="1" style="stop-color:#E2E3DA"/>
		</linearGradient>
		<polygon class="st26" points="590.8,699.2 561.4,682.3 532.3,699.2 561.6,716.1 		"/>
		<linearGradient id="SVGID_23_" gradientUnits="userSpaceOnUse" x1="494.3247" y1="721.2706" x2="552.7916" y2="721.2706">
			<stop  offset="0" style="stop-color:#D7D8D5"/>
			<stop  offset="1" style="stop-color:#E2E3DA"/>
		</linearGradient>
		<polygon class="st27" points="552.8,721.3 523.5,704.3 494.3,721.3 523.7,738.2 		"/>
		<linearGradient id="SVGID_24_" gradientUnits="userSpaceOnUse" x1="570.2598" y1="677.1417" x2="628.7267" y2="677.1417">
			<stop  offset="0" style="stop-color:#D7D8D5"/>
			<stop  offset="1" style="stop-color:#E2E3DA"/>
		</linearGradient>
		<polygon class="st28" points="628.7,677.1 599.4,660.2 570.3,677.1 599.6,694.1 		"/>
		<linearGradient id="SVGID_25_" gradientUnits="userSpaceOnUse" x1="646.2258" y1="632.9953" x2="704.6926" y2="632.9953">
			<stop  offset="0" style="stop-color:#D7D8D5"/>
			<stop  offset="1" style="stop-color:#E2E3DA"/>
		</linearGradient>
		<polygon class="st29" points="704.7,633 675.4,616.1 646.2,633 675.6,649.9 		"/>
		<linearGradient id="SVGID_26_" gradientUnits="userSpaceOnUse" x1="608.2582" y1="655.0596" x2="666.7248" y2="655.0596">
			<stop  offset="0" style="stop-color:#D7D8D5"/>
			<stop  offset="1" style="stop-color:#E2E3DA"/>
		</linearGradient>
		<polygon class="st30" points="666.7,655.1 637.4,638.1 608.3,655.1 637.6,672 		"/>
		<linearGradient id="SVGID_27_" gradientUnits="userSpaceOnUse" x1="218.9253" y1="782.7932" x2="277.3922" y2="782.7932">
			<stop  offset="0" style="stop-color:#D7D8D5"/>
			<stop  offset="1" style="stop-color:#E2E3DA"/>
		</linearGradient>
		<polygon class="st31" points="218.9,782.8 248.3,799.7 277.4,782.8 248.1,765.9 		"/>
		<linearGradient id="SVGID_28_" gradientUnits="userSpaceOnUse" x1="298.7256" y1="784.8896" x2="357.222" y2="784.8896">
			<stop  offset="0" style="stop-color:#D7D8D5"/>
			<stop  offset="1" style="stop-color:#E2E3DA"/>
		</linearGradient>
		<polygon class="st32" points="327.9,767.9 298.7,784.9 328.1,801.8 357.2,784.9 		"/>
		<linearGradient id="SVGID_29_" gradientUnits="userSpaceOnUse" x1="256.8928" y1="760.7289" x2="315.3591" y2="760.7289">
			<stop  offset="0" style="stop-color:#D7D8D5"/>
			<stop  offset="1" style="stop-color:#E2E3DA"/>
		</linearGradient>
		<polygon class="st33" points="286,743.8 256.9,760.7 286.2,777.7 315.4,760.7 		"/>
		<linearGradient id="SVGID_30_" gradientUnits="userSpaceOnUse" x1="613.0456" y1="702.3376" x2="671.5119" y2="702.3376">
			<stop  offset="0" style="stop-color:#D7D8D5"/>
			<stop  offset="1" style="stop-color:#E2E3DA"/>
		</linearGradient>
		<polygon class="st34" points="613,702.3 642.4,719.3 671.5,702.3 642.2,685.4 		"/>
		<linearGradient id="SVGID_31_" gradientUnits="userSpaceOnUse" x1="575.0472" y1="724.4199" x2="633.5139" y2="724.4199">
			<stop  offset="0" style="stop-color:#D7D8D5"/>
			<stop  offset="1" style="stop-color:#E2E3DA"/>
		</linearGradient>
		<polygon class="st35" points="575,724.4 604.4,741.4 633.5,724.4 604.2,707.5 		"/>
		<linearGradient id="SVGID_32_" gradientUnits="userSpaceOnUse" x1="537.0797" y1="746.4842" x2="595.546" y2="746.4842">
			<stop  offset="0" style="stop-color:#D7D8D5"/>
			<stop  offset="1" style="stop-color:#E2E3DA"/>
		</linearGradient>
		<polygon class="st36" points="537.1,746.5 566.4,763.4 595.5,746.5 566.2,729.6 		"/>
		<linearGradient id="SVGID_33_" gradientUnits="userSpaceOnUse" x1="560.7255" y1="584.1608" x2="619.1918" y2="584.1608">
			<stop  offset="0" style="stop-color:#D7D8D5"/>
			<stop  offset="1" style="stop-color:#E2E3DA"/>
		</linearGradient>
		<polygon class="st37" points="619.2,584.2 589.9,567.2 560.7,584.2 590.1,601.1 		"/>
		<linearGradient id="SVGID_34_" gradientUnits="userSpaceOnUse" x1="636.6913" y1="540.0142" x2="695.1577" y2="540.0142">
			<stop  offset="0" style="stop-color:#D7D8D5"/>
			<stop  offset="1" style="stop-color:#E2E3DA"/>
		</linearGradient>
		<polygon class="st38" points="695.2,540 665.8,523.1 636.7,540 666,556.9 		"/>
		<linearGradient id="SVGID_35_" gradientUnits="userSpaceOnUse" x1="684.2232" y1="610.9132" x2="742.6913" y2="610.9132">
			<stop  offset="0" style="stop-color:#D7D8D5"/>
			<stop  offset="1" style="stop-color:#E2E3DA"/>
		</linearGradient>
		<polygon class="st39" points="713.6,627.8 742.7,610.9 713.4,594 684.2,610.9 		"/>
		<linearGradient id="SVGID_36_" gradientUnits="userSpaceOnUse" x1="640.5556" y1="586.2397" x2="699.0527" y2="586.2397">
			<stop  offset="0" style="stop-color:#D7D8D5"/>
			<stop  offset="1" style="stop-color:#E2E3DA"/>
		</linearGradient>
		<polygon class="st40" points="640.6,586.2 669.9,603.2 699.1,586.2 669.7,569.3 		"/>
		<linearGradient id="SVGID_37_" gradientUnits="userSpaceOnUse" x1="598.7232" y1="562.0787" x2="657.1901" y2="562.0787">
			<stop  offset="0" style="stop-color:#D7D8D5"/>
			<stop  offset="1" style="stop-color:#E2E3DA"/>
		</linearGradient>
		<polygon class="st41" points="657.2,562.1 627.9,545.1 598.7,562.1 628.1,579 		"/>
		<linearGradient id="SVGID_38_" gradientUnits="userSpaceOnUse" x1="651.0131" y1="680.2733" x2="709.4794" y2="680.2733">
			<stop  offset="0" style="stop-color:#D7D8D5"/>
			<stop  offset="1" style="stop-color:#E2E3DA"/>
		</linearGradient>
		<polygon class="st42" points="651,680.3 680.3,697.2 709.5,680.3 680.2,663.3 		"/>
		<linearGradient id="SVGID_39_" gradientUnits="userSpaceOnUse" x1="499.0816" y1="768.5663" x2="557.5479" y2="768.5663">
			<stop  offset="0" style="stop-color:#D7D8D5"/>
			<stop  offset="1" style="stop-color:#E2E3DA"/>
		</linearGradient>
		<polygon class="st43" points="499.1,768.6 528.4,785.5 557.5,768.6 528.2,751.6 		"/>
		<linearGradient id="SVGID_40_" gradientUnits="userSpaceOnUse" x1="461.114" y1="790.6307" x2="519.5803" y2="790.6307">
			<stop  offset="0" style="stop-color:#D7D8D5"/>
			<stop  offset="1" style="stop-color:#E2E3DA"/>
		</linearGradient>
		<polygon class="st44" points="461.1,790.6 490.4,807.6 519.6,790.6 490.3,773.7 		"/>
		<linearGradient id="SVGID_41_" gradientUnits="userSpaceOnUse" x1="423.1461" y1="812.6951" x2="481.6128" y2="812.6951">
			<stop  offset="0" style="stop-color:#D7D8D5"/>
			<stop  offset="1" style="stop-color:#E2E3DA"/>
		</linearGradient>
		<polygon class="st45" points="423.1,812.7 452.5,829.6 481.6,812.7 452.3,795.8 		"/>
		<linearGradient id="SVGID_42_" gradientUnits="userSpaceOnUse" x1="380.3607" y1="787.4991" x2="438.8276" y2="787.4991">
			<stop  offset="0" style="stop-color:#D7D8D5"/>
			<stop  offset="1" style="stop-color:#E2E3DA"/>
		</linearGradient>
		<polygon class="st46" points="409.5,770.6 380.4,787.5 409.7,804.4 438.8,787.5 		"/>
		<linearGradient id="SVGID_43_" gradientUnits="userSpaceOnUse" x1="342.3931" y1="809.5635" x2="400.86" y2="809.5635">
			<stop  offset="0" style="stop-color:#D7D8D5"/>
			<stop  offset="1" style="stop-color:#E2E3DA"/>
		</linearGradient>
		<polygon class="st47" points="342.4,809.6 371.7,826.5 400.9,809.6 371.5,792.6 		"/>
		<linearGradient id="SVGID_44_" gradientUnits="userSpaceOnUse" x1="688.9807" y1="658.2089" x2="747.447" y2="658.2089">
			<stop  offset="0" style="stop-color:#D7D8D5"/>
			<stop  offset="1" style="stop-color:#E2E3DA"/>
		</linearGradient>
		<polygon class="st48" points="718.1,641.3 689,658.2 718.3,675.1 747.4,658.2 		"/>
	</g>
	<g>
		<g>
			<line class="st49" x1="628.5" y1="778.5" x2="623.4" y2="780.1"/>
			<g>
				<path class="st50" d="M645.8,761.3c0,0,0.9,3,1.8,5.2c0.6,1.5,12.7,9.9,20.5,12.8c0.7,0.3,0.8,0.7,0.8,2.5
					c0,0.2-2.6,1.4-4.7,1.7c-3.1,0.4-6,0.4-8,0c-6.4-1.1-12.7-4.9-13.9-5.7c0,0-0.8-0.4-0.8,0.4c0,0.4,0,1.5,0,1.8l-8.2-3.2
					c0,0-0.7-2.6-0.8-4c-0.4-5.3,0.6-12.4,0.6-12.4L645.8,761.3z"/>
			</g>
			<path class="st50" d="M606.6,768.3c0,0-1.4,13.3-1.6,19.2c-0.1,4.4,4.9,9.3,10.9,9.7c1.5,0.1,3.2-0.1,3.3-0.1
				c2.2,0,3.1-2.7,2.2-8.4c-0.9-5-3.4-21.7-3.7-21.8L606.6,768.3z"/>
			<polygon class="st49" points="646.6,778.6 641.5,780.2 639.1,776.6 642.1,775.8 			"/>
		</g>
		<path class="st51" d="M651.6,617.8l-2.4,141.2c0,0-2.1,7.4-14.9,3.4c0,0-3.2-1.2-3.6-3.1L626.7,623
			C626.7,623,636.7,617.1,651.6,617.8z"/>
		<path class="st51" d="M636.8,627.2l-14.2,142.2c0,0-3,5.2-11.9,3.9c0,0-6-1.2-7.4-3.5V648.2c0,0-1-23.2,5.3-30.3L636.8,627.2z"/>
		<g>
			<g>
				<polygon class="st52" points="697.3,548.7 696.4,547.9 695.6,548.3 696.7,549.4 				"/>
				<path class="st53" d="M684.7,581.1c-0.1,0.7-0.1,0.8-1,1.1l-21.4,5.6c-0.7,0.1-1.2-0.3-1.1-1l10.7-31.7c0.2-0.7,0.6-1.3,1.5-1.5
					l22.5-5.9c0.5-0.1,0.9,0.2,0.8,0.9L684.7,581.1z"/>
				<polygon class="st53" points="663,588 662.1,587.2 661.3,587.6 662.2,588.4 				"/>
			</g>
			<path class="st54" d="M685.5,581.9c-0.1,0.7-0.1,0.8-1,1.1l-21.4,5.6c-0.7,0.1-1.2-0.3-1.1-1l10.7-31.7c0.2-0.7,0.8-1.3,1.5-1.5
				l22.5-5.9c0.6-0.1,1.1,0.3,0.8,0.9L685.5,581.9z"/>
		</g>
		<path class="st55" d="M606.3,639.5c0,0,5.9,3.7,7.7,6c1,1.3,1.2,1.8,1.2,1.8l-9,6.8c0,0-5.4-6.7-5.6-10.2
			C600.4,640.3,606.3,639.5,606.3,639.5z"/>
		<path class="st56" d="M593.9,548.7c0,0,16.1-18.2,46.2-17.1c0,0,11.8,1.8,11.5,17.2c0,0-2.9,51.6-1.2,60.4c0,0,5.8,11.1-4.1,17.6
			c0,0-7.9,0.8-14.6,4.4c0,0-12,6.1-27.7,0c0,0-4.7-1.2-5.2-6.8c0,0,2.3-27.3,0.3-34.6C599,589.8,586.8,565.9,593.9,548.7z"/>
		<path class="st56" d="M593.1,549.2c0,0-4.2,3-9,21.2c0,0-7.9,26.7-6.9,39.9c0,0,0.3,13.8,22.1,36.5c0,0,2.3,4.1,3.6,4.9
			c0,0,2,1.5,7-2.7c0,0,5.1-3.8,3.5-5.6l-1.8-2c0,0,0.6-1.5,0.2-3.1L595.8,607c0,0-2.6-2.1,1.3-11l7.4-20.7l-8.7-28.3L593.1,549.2z"
			/>
		<path class="st56" d="M636.9,560c0,0,10.5,32,15.1,39.9c0,0,3.6,4.6,10.1,2.8c0,0,17.8-5.2,26.8-18.4c0,0,1.1-4-3.8-6.6
			c-4.9-2.6-18.9,7.1-18.9,7.1s-4.1,1.9-5-2.1c0,0-3.6-32.4-9.2-41.4c0,0-3.9-6.7-10.3-9.3S636.9,560,636.9,560z"/>
		<path class="st55" d="M692.8,575.4c0,0,0.2,0.7,0.1,1.2c-0.2,0.7-0.5,0.8-0.8,1.6c-0.1,0.3,0.1,1.5-0.2,1.9c-0.5,0.9-1,1-1.2,1.3
			c-0.2,0.4,0,1.3-0.7,1.8c-0.4,0.3-0.9,0.6-1.1,1c-0.5,1.2-1.7,1.1-2.4,1c-1.2-0.1-2.6-0.2-3.7-0.6c-0.8-0.3-0.9-1.5-0.2-2
			c0.4-0.3,1.4-0.2,2.1-0.3c0.2,0-2.4,0.2-2.4-1.5c0-0.5,0.4-1.1,0.9-1.2c0.9-0.1,3-0.2,3-0.2s0.4-0.1-0.1-0.2
			c-0.5-0.1-2.8-0.3-3-0.4c-0.7-0.3-0.7-2,0.3-2.3c1.8-0.6,5-0.2,5-0.2s-1.5-0.5-3.1-0.8c-0.7-0.1-0.8-1.8,0.4-2.2
			C686.1,573.2,691,572.6,692.8,575.4z"/>
		<path class="st57" d="M618.1,514.4c-0.4,2.2-4.2,22.8-4.2,22.8s3,7.5,10.8,10.3c6.6,2.4,7.4-5.5,7.4-5.5l3.7-19.9
			C635.9,522.1,618.9,510.4,618.1,514.4z"/>
		<path class="st57" d="M646.8,503.9c0,0,1.2,10.6-2.1,18.2c0,0-1.8,4.9-1.9,8.6c0,0,0.2,6.9-11.8,6.3c0,0-16.9-3.9-15.7-22
			c0,0-1.7-12.6,4.5-14.7C619.9,500.4,636,491.3,646.8,503.9z"/>
		<path class="st58" d="M648.3,501.1c2.6,3.7-1.5,3.7-1.8,5.8c-0.3,2.3-6,1.6-8.3,1.2c-7.9-1.4-10.5-2.3-10.6-2.3
			c-1.4-0.1-2.7,2.3-3.2,5.1l-0.2,8c0,0.1-2.3-1.7-2.4-1.9c0,0-1.7-1.1-2.3-0.7c-2.1,1.3-1.9,2.8-1.7,3.1l-1.2,7.7
			c-0.1-0.2-2-8-2.2-9.6c-0.7-4.9-1-5.7-1.2-13.6c-0.1-4.5,8.1-14.1,20-12.3C641,492.7,648.3,501.1,648.3,501.1z"/>
	</g>
	<g>
		<g>
			<polygon class="st59" points="257.3,450.6 257.8,624.8 305.1,597.5 304.6,423.3 			"/>
			<polygon class="st59" points="574.7,267.4 527.4,294.7 527.9,468.8 575.2,441.5 			"/>
			<polygon class="st59" points="324.7,365.1 325.3,585.8 372.6,558.5 372,337.8 			"/>
			<polygon class="st59" points="459.8,289.3 460.4,510 507.6,482.7 507,262.1 			"/>
			<polygon class="st59" points="392.1,277.7 392.9,546.8 440.1,519.5 439.4,250.4 			"/>
		</g>
	</g>
</g>
</svg>
