<?xml version="1.0" encoding="utf-8"?>
<svg version="1.1" xmlns:xlink="http://www.w3.org/1999/xlink" width="25px" height="25px" xmlns="http://www.w3.org/2000/svg">
  <g transform="matrix(1 0 0 1 -418 -503 )">
    <path d="M 430.5 503  C 437.5 503  443 508.5  443 515.5  C 443 522.5  437.5 528  430.5 528  C 423.5 528  418 522.5  418 515.5  C 418 508.5  423.5 503  430.5 503  Z " fill-rule="nonzero" fill="#ffffff" stroke="none" />
    <path d="M 430.5 503.5  C 437.22 503.5  442.5 508.78  442.5 515.5  C 442.5 522.22  437.22 527.5  430.5 527.5  C 423.78 527.5  418.5 522.22  418.5 515.5  C 418.5 508.78  423.78 503.5  430.5 503.5  Z " stroke-width="1" stroke="#797979" fill="none" />
  </g>
</svg>