<?xml version="1.0" encoding="utf-8"?>
<svg version="1.1" xmlns:xlink="http://www.w3.org/1999/xlink" width="70px" height="67px" xmlns="http://www.w3.org/2000/svg">
  <g transform="matrix(1 0 0 1 -312 -578 )">
    <path d="M 18.666666666666668 23.928571428571427  C 18.666666666666668 27.393229166666664  19.651041666666664 30.583705357142858  21.619791666666664 33.5  C 17.682291666666668 33.624627976190474  14.461805555555557 35.21986607142857  11.958333333333334 38.285714285714285  L 7.072916666666667 38.285714285714285  C 5.079861111111111 38.285714285714285  3.402777777777778 37.78097098214286  2.0416666666666665 36.771484375  C 0.6805555555555555 35.76199776785714  0 34.28515625  0 32.34095982142858  C 0 23.54222470238095  1.5069444444444442 19.142857142857142  4.520833333333334 19.142857142857142  C 4.666666666666667 19.142857142857142  5.1953125 19.404575892857142  6.106770833333333 19.928013392857142  C 7.018229166666667 20.451450892857142  8.203125 20.981119791666664  9.661458333333334 21.517020089285715  C 11.119791666666666 22.052920386904763  12.565972222222221 22.320870535714285  14 22.320870535714285  C 15.628472222222223 22.320870535714285  17.244791666666668 22.034226190476186  18.848958333333336 21.4609375  C 18.727430555555557 22.383184523809515  18.666666666666668 23.205729166666664  18.666666666666668 23.928571428571427  Z M 60.5390625 53.446707589285715  C 60.62413194444445 54.705450148809526  60.66666666666667 55.995349702380956  60.66666666666667 57.31640625  C 60.66666666666667 60.30747767857142  59.77951388888889 62.669177827380956  58.00520833333333 64.40150669642857  C 56.230902777777786 66.13383556547619  53.87326388888889 67  50.93229166666667 67  L 19.067708333333332 67  C 16.12673611111111 67  13.769097222222225 66.13383556547619  11.994791666666666 64.40150669642857  C 10.220486111111112 62.669177827380956  9.333333333333334 60.30747767857142  9.333333333333334 57.31640625  C 9.333333333333334 55.995349702380956  9.375868055555557 54.705450148809526  9.4609375 53.446707589285715  C 9.546006944444446 52.187965029761905  9.716145833333332 50.829520089285715  9.971354166666668 49.37137276785714  C 10.2265625 47.91322544642857  10.548611111111112 46.561011904761905  10.9375 45.31473214285714  C 11.32638888888889 44.06845238095237  11.848958333333334 42.853329613095234  12.505208333333334 41.669363839285715  C 13.161458333333334 40.48539806547619  13.914930555555557 39.47591145833333  14.765625 38.64090401785714  C 15.616319444444445 37.805896577380956  16.655381944444446 37.139136904761905  17.8828125 36.640625  C 19.110243055555557 36.14211309523809  20.46527777777778 35.89285714285714  21.947916666666668 35.89285714285714  C 22.190972222222225 35.89285714285714  22.713541666666664 36.160807291666664  23.515625 36.696707589285715  C 24.317708333333336 37.23260788690476  25.20486111111111 37.830822172619044  26.177083333333332 38.49135044642857  C 27.14930555555556 39.15187872023809  28.44965277777778 39.75009300595237  30.078125 40.28599330357143  C 31.706597222222225 40.821893601190474  33.34722222222222 41.08984375  35 41.08984375  C 36.65277777777778 41.08984375  38.29340277777778 40.821893601190474  39.921875 40.28599330357143  C 41.55034722222223 39.75009300595237  42.85069444444445 39.15187872023809  43.82291666666667 38.49135044642857  C 44.795138888888886 37.830822172619044  45.682291666666664 37.23260788690476  46.484375 36.696707589285715  C 47.286458333333336 36.160807291666664  47.809027777777786 35.89285714285714  48.05208333333333 35.89285714285714  C 49.53472222222223 35.89285714285714  50.88975694444445 36.14211309523809  52.1171875 36.640625  C 53.34461805555556 37.139136904761905  54.38368055555556 37.805896577380956  55.234375 38.64090401785714  C 56.08506944444445 39.47591145833333  56.83854166666667 40.48539806547619  57.49479166666667 41.669363839285715  C 58.151041666666664 42.853329613095234  58.67361111111112 44.06845238095237  59.0625 45.31473214285714  C 59.45138888888889 46.561011904761905  59.7734375 47.91322544642857  60.028645833333336 49.37137276785714  C 60.283854166666664 50.829520089285715  60.45399305555556 52.187965029761905  60.5390625 53.446707589285715  Z M 20.598958333333332 2.804129464285716  C 22.421875 4.6735491071428585  23.333333333333332 6.92931547619047  23.333333333333332 9.571428571428575  C 23.333333333333332 12.213541666666664  22.421875 14.469308035714283  20.598958333333332 16.338727678571427  C 18.776041666666668 18.208147321428573  16.57638888888889 19.142857142857142  14 19.142857142857142  C 11.423611111111112 19.142857142857142  9.223958333333334 18.208147321428573  7.401041666666667 16.338727678571427  C 5.578125 14.469308035714283  4.666666666666667 12.213541666666664  4.666666666666667 9.571428571428575  C 4.666666666666667 6.92931547619047  5.578125 4.6735491071428585  7.401041666666667 2.804129464285716  C 9.223958333333334 0.9347098214285746  11.423611111111112 0  14 0  C 16.57638888888889 0  18.776041666666668 0.9347098214285746  20.598958333333332 2.804129464285716  Z M 44.8984375 13.777622767857142  C 47.6328125 16.581752232142858  49 19.965401785714285  49 23.928571428571427  C 49 27.891741071428573  47.6328125 31.275390625  44.8984375 34.079520089285715  C 42.1640625 36.88364955357143  38.86458333333333 38.285714285714285  35 38.285714285714285  C 31.13541666666667 38.285714285714285  27.835937500000004 36.88364955357143  25.1015625 34.079520089285715  C 22.3671875 31.275390625  21 27.891741071428573  21 23.928571428571427  C 21 19.965401785714285  22.3671875 16.581752232142858  25.1015625 13.777622767857142  C 27.835937500000004 10.973493303571425  31.13541666666667 9.571428571428575  35 9.571428571428575  C 38.86458333333333 9.571428571428575  42.1640625 10.973493303571425  44.8984375 13.777622767857142  Z M 65.47916666666667 19.142857142857142  C 68.49305555555557 19.142857142857142  70.00000000000001 23.54222470238095  70 32.34095982142858  C 70.00000000000001 34.28515625  69.31944444444444 35.76199776785714  67.95833333333333 36.771484375  C 66.59722222222223 37.78097098214286  64.9201388888889 38.285714285714285  62.92708333333333 38.285714285714285  L 58.04166666666667 38.285714285714285  C 55.53819444444445 35.21986607142857  52.317708333333336 33.624627976190474  48.380208333333336 33.5  C 50.34895833333333 30.583705357142858  51.33333333333333 27.393229166666664  51.33333333333333 23.928571428571427  C 51.33333333333333 23.205729166666664  51.27256944444445 22.383184523809515  51.151041666666664 21.4609375  C 52.755208333333336 22.034226190476186  54.371527777777786 22.320870535714285  56 22.320870535714285  C 57.43402777777778 22.320870535714285  58.880208333333336 22.052920386904763  60.338541666666664 21.517020089285715  C 61.796875 20.981119791666664  62.981770833333336 20.451450892857142  63.893229166666664 19.928013392857142  C 64.8046875 19.404575892857142  65.33333333333333 19.142857142857142  65.47916666666667 19.142857142857142  Z M 62.598958333333336 2.804129464285716  C 64.421875 4.6735491071428585  65.33333333333333 6.92931547619047  65.33333333333333 9.571428571428575  C 65.33333333333333 12.213541666666664  64.421875 14.469308035714283  62.598958333333336 16.338727678571427  C 60.77604166666667 18.208147321428573  58.57638888888889 19.142857142857142  56 19.142857142857142  C 53.423611111111114 19.142857142857142  51.223958333333336 18.208147321428573  49.401041666666664 16.338727678571427  C 47.578125 14.469308035714283  46.666666666666664 12.213541666666664  46.666666666666664 9.571428571428575  C 46.666666666666664 6.92931547619047  47.578125 4.6735491071428585  49.401041666666664 2.804129464285716  C 51.223958333333336 0.9347098214285746  53.423611111111114 0  56 0  C 58.57638888888889 0  60.77604166666667 0.9347098214285746  62.598958333333336 2.804129464285716  Z " fill-rule="nonzero" fill="#00eeff" stroke="none" fill-opacity="0.996078431372549" transform="matrix(1 0 0 1 312 578 )" />
  </g>
</svg>