<?xml version="1.0" encoding="utf-8"?>
<svg version="1.1" xmlns:xlink="http://www.w3.org/1999/xlink" width="30px" height="30px" xmlns="http://www.w3.org/2000/svg">
  <g transform="matrix(1 0 0 1 -368 -557 )">
    <path d="M 24.7265625 12.71484375  C 24.9609375 12.48046875  25.078125 12.1875  25.078125 11.8359375  C 25.078125 11.471354166666666  24.9609375 11.171875000000002  24.7265625 10.937500000000002  L 22.94921875 9.179687500000002  C 22.70182291666667 8.932291666666664  22.40885416666667 8.808593749999998  22.0703125 8.808593749999998  C 21.731770833333336 8.808593749999998  21.438802083333336 8.932291666666664  21.19140625 9.179687500000002  L 13.22265625 17.128906250000004  L 8.80859375 12.71484375  C 8.561197916666666 12.467447916666666  8.268229166666666 12.343750000000002  7.929687500000001 12.343750000000002  C 7.591145833333334 12.343750000000002  7.298177083333333 12.467447916666666  7.05078125 12.71484375  L 5.2734375 14.47265625  C 5.0390625 14.70703125  4.921875000000001 15.006510416666664  4.921875 15.371093750000002  C 4.921875000000001 15.722656250000002  5.0390625 16.015625000000004  5.2734375 16.250000000000004  L 12.34375 23.3203125  C 12.591145833333336 23.56770833333333  12.884114583333336 23.69140625  13.22265625 23.69140625  C 13.57421875 23.69140625  13.873697916666668 23.56770833333333  14.12109375 23.3203125  L 24.7265625 12.71484375  Z M 27.98828125 7.470703125  C 29.32942708333333 9.76888020833333  30 12.278645833333329  30 15  C 30 17.721354166666668  29.32942708333333 20.231119791666664  27.98828125 22.529296875  C 26.64713541666667 24.827473958333332  24.827473958333332 26.647135416666668  22.529296875 27.98828125  C 20.23111979166667 29.329427083333336  17.721354166666668 30  15 30  C 12.278645833333334 30  9.768880208333334 29.329427083333336  7.470703125 27.98828125  C 5.172526041666667 26.647135416666668  3.352864583333334 24.827473958333332  2.01171875 22.529296875  C 0.6705729166666665 20.231119791666664  0 17.721354166666668  0 15  C 0 12.278645833333329  0.6705729166666665 9.76888020833333  2.01171875 7.470703125  C 3.352864583333334 5.172526041666666  5.172526041666667 3.3528645833333304  7.470703125 2.011718749999999  C 9.768880208333334 0.6705729166666641  12.278645833333334 0  15 0  C 17.721354166666668 0  20.23111979166667 0.6705729166666641  22.529296875 2.011718749999999  C 24.827473958333332 3.3528645833333304  26.64713541666667 5.172526041666666  27.98828125 7.470703125  Z " fill-rule="nonzero" fill="#00eeff" stroke="none" fill-opacity="0.996078431372549" transform="matrix(1 0 0 1 368 557 )" />
  </g>
</svg>