<?xml version="1.0" encoding="utf-8"?>
<svg version="1.1" xmlns:xlink="http://www.w3.org/1999/xlink" width="30px" height="30px" xmlns="http://www.w3.org/2000/svg">
  <g transform="matrix(1 0 0 1 -414 -174 )">
    <path d="M 13.99103139013453 22.5  L 14.932735426008968 22.5  L 16.883408071748878 20.02840909090909  L 14.327354260089686 16.789772727272727  L 12.376681614349776 19.261363636363637  L 12.376681614349776 20.454545454545457  L 13.99103139013453 20.454545454545457  L 13.99103139013453 22.5  Z M 22.315022421524663 7.862215909090909  C 22.50560538116592 7.620738636363633  22.51121076233184 7.386363636363633  22.331838565022423 7.159090909090909  C 22.152466367713007 6.931818181818179  21.96748878923767 6.9389204545454515  21.776905829596412 7.180397727272728  L 15.891255605381167 14.63778409090909  C 15.70067264573991 14.879261363636363  15.695067264573991 15.11363636363636  15.874439461883407 15.34090909090909  C 16.053811659192828 15.568181818181818  16.238789237668165 15.561079545454541  16.42937219730942 15.319602272727275  L 22.315022421524663 7.862215909090909  Z M 23.340807174887892 19.19744318181818  C 23.565022421524667 19.31107954545454  23.677130044843047 19.517045454545457  23.677130044843047 19.81534090909091  L 23.677130044843047 23.863636363636363  C 23.677130044843047 25.553977272727273  23.20347533632287 26.999289772727273  22.25616591928251 28.199573863636363  C 21.308856502242154 29.399857954545453  20.16816143497758 30  18.83408071748879 30  L 4.84304932735426 30  C 3.5089686098654713 30  2.368273542600897 29.399857954545453  1.420964125560538 28.199573863636363  C 0.4736547085201793 26.999289772727273  0 25.553977272727273  0 23.863636363636363  L 0 6.136363636363638  C 0 4.446022727272724  0.4736547085201793 3.0007102272727257  1.420964125560538 1.8004261363636376  C 2.368273542600897 0.6001420454545425  3.5089686098654713 0  4.84304932735426 0  L 18.83408071748879 0  C 19.54035874439462 0  20.196188340807176 0.17755681818181657  20.80156950672646 0.532670454545453  C 20.969730941704036 0.6321022727272707  21.07062780269058 0.7954545454545447  21.1042600896861 1.0227272727272718  C 21.137892376681613 1.2642045454545447  21.08744394618834 1.470170454545453  20.952914798206276 1.640625  L 20.128923766816143 2.684659090909091  C 19.971973094170405 2.8835227272727257  19.79260089686099 2.940340909090909  19.590807174887892 2.8551136363636376  C 19.332959641255606 2.7698863636363624  19.08071748878924 2.7272727272727284  18.83408071748879 3  L 4.84304932735426 3  C 4.103139013452915 2.7272727272727284  3.4697309417040367 3.0610795454545423  2.9428251121076237 3.728693181818181  C 2.415919282511211 4.396306818181817  2.1524663677130045 5.198863636363638  2.1524663677130045 6.136363636363638  L 2.1524663677130045 23.863636363636363  C 2.1524663677130045 24.801136363636363  2.415919282511211 25.603693181818176  2.9428251121076237 26.27130681818182  C 3.4697309417040367 26.938920454545453  4.103139013452915 27.272727272727273  4.84304932735426 27  L 18.83408071748879 27  C 19.573991031390136 27.272727272727273  20.207399103139014 26.938920454545453  20.734304932735427 26.27130681818182  C 21.26121076233184 25.603693181818176  21.524663677130043 24.801136363636363  21.524663677130043 23.863636363636363  L 21.524663677130043 21.178977272727273  C 21.524663677130043 20.99431818181818  21.57511210762332 20.83806818181818  21.676008968609864 20.710227272727273  L 22.75224215246637 19.34659090909091  C 22.920403587443946 19.133522727272727  23.116591928251122 19.083806818181817  23.340807174887892 19.19744318181818  Z M 10.762331838565022 18.40909090909091  L 22.062780269058297 4.090909090909091  L 26.905829596412556 10.227272727272728  L 15.605381165919281 24.545454545454543  L 10.762331838565022 24.545454545454543  L 10.762331838565022 18.40909090909091  Z M 30 5.454545454545453  C 30 6.022727272727271  29.84304932735426 6.505681818181817  29.529147982062778 6.903409090909091  L 27.98206278026906 8.863636363636363  L 23.1390134529148 2.7272727272727284  L 24.686098654708523 0.767045454545453  C 25 0.369318181818179  25.381165919282513 0.17045454545454697  25.829596412556054 0.17045454545454697  C 26.2780269058296 0.17045454545454697  26.659192825112108 0.369318181818179  26.973094170403588 0.767045454545453  L 29.529147982062778 4.005681818181818  C 29.84304932735426 4.403409090909086  30 4.886363636363635  30 5.454545454545453  Z " fill-rule="nonzero" fill="#7f7f7f" stroke="none" transform="matrix(1 0 0 1 414 174 )" />
  </g>
</svg>