<?xml version="1.0" encoding="utf-8"?>
<svg version="1.1" xmlns:xlink="http://www.w3.org/1999/xlink" width="10px" height="20px" xmlns="http://www.w3.org/2000/svg">
  <g transform="matrix(1 0 0 1 -549 -443 )">
    <path d="M 9.828178694158074 9.539078156312627  C 9.942726231386027 9.672678690714761  10 9.82631930527722  10 10  C 10 10.173680694722778  9.942726231386027 10.327321309285235  9.828178694158074 10.460921843687373  L 1.8213058419243986 19.799599198396795  C 1.7067583046964492 19.933199732798933  1.575028636884307 20  1.4261168384879723 20  C 1.2772050400916382 20  1.1454753722794961 19.933199732798933  1.0309278350515463 19.799599198396795  L 0.1718213058419244 18.79759519038076  C 0.05727376861397484 18.663994655978623  0 18.510354041416164  0 18.336673346693388  C 0 18.162992651970605  0.05727376861397484 18.00935203740815  0.1718213058419244 17.87575150300601  L 6.9243986254295535 10  L 0.1718213058419244 2.124248496993988  C 0.05727376861397484 1.9906479625918494  0 1.8370073480293914  0 1.6633266533066138  C 0 1.4896459585838318  0.05727376861397484 1.3360053440213737  0.1718213058419244 1.2024048096192375  L 1.0309278350515463 0.2004008016032066  C 1.1454753722794961 0.06680026720106813  1.2772050400916382 0  1.4261168384879723 0  C 1.575028636884307 0  1.7067583046964492 0.06680026720106813  1.8213058419243986 0.2004008016032066  L 9.828178694158074 9.539078156312627  Z " fill-rule="nonzero" fill="#aaaaaa" stroke="none" transform="matrix(1 0 0 1 549 443 )" />
  </g>
</svg>