<?xml version="1.0" encoding="utf-8"?>
<svg version="1.1" xmlns:xlink="http://www.w3.org/1999/xlink" width="20px" height="30px" xmlns="http://www.w3.org/2000/svg">
  <defs>
    <linearGradient gradientUnits="userSpaceOnUse" x1="20.19780219780225" y1="0" x2="0" y2="-0.2999999999992742" id="LinearGradient1187">
      <stop id="Stop1188" stop-color="#0096fe" stop-opacity="0.8313725490196079" offset="0" />
      <stop id="Stop1189" stop-color="#00a8fd" stop-opacity="0.996078431372549" offset="0" />
      <stop id="Stop1190" stop-color="#01cafe" offset="1" />
    </linearGradient>
  </defs>
  <g transform="matrix(1 0 0 1 -253 -233 )">
    <path d="M 17.863674147963422 7.166466346153847  C 18.201717927403717 7.7493990384615365  18.403990024937656 8.4375  18.470490440565253 9.230769230769232  C 18.669991687448046 11.41826923076923  17.944028816846775 12.968749999999998  16.29260182876143 13.882211538461537  C 17.589359933499583 14.218749999999998  18.559157661402054 14.837740384615385  19.201995012468828 15.739182692307693  C 19.84483236353561 16.640625  20.0942089221391 17.92668269230769  19.950124688279303 19.59735576923077  C 19.872540870047107 20.450721153846153  19.69243557772236 21.201923076923073  19.409808811305073 21.850961538461537  C 19.127182044887782 22.5  18.769742310889445 23.03485576923077  18.337489609310058 23.455528846153847  C 17.90523690773067 23.87620192307692  17.367691881407595 24.22776442307692  16.724854530340814 24.510216346153847  C 16.082017179274036 24.79266826923077  15.408700471044611 25  14.704904405652535 25.132211538461537  C 14.001108340260462 25.264423076923077  13.19479080077584 25.354567307692307  12.28595178719867 25.40264423076923  L 12.28595178719867 30  L 9.725685785536161 30  L 9.725685785536161 25.474759615384617  C 8.839013577168192 25.474759615384617  8.162926018287614 25.46875  7.69742310889443 25.45673076923077  L 7.69742310889443 30  L 5.1371571072319195 30  L 5.1371571072319195 25.40264423076923  C 4.937655860349127 25.40264423076923  4.638403990024937 25.39963942307692  4.239401496259352 25.393629807692307  C 3.8403990024937658 25.387620192307693  3.5356054308672764 25.384615384615383  3.3250207813798838 25.384615384615383  L 0 25.384615384615383  L 0.515378221113882 22.085336538461537  L 2.3607647547797175 22.085336538461537  C 2.914934885009698 22.085336538461537  3.236353560543087 21.778846153846153  3.3250207813798838 21.165865384615383  L 3.3250207813798838 13.918269230769232  L 3.5910224438902745 13.918269230769232  C 3.524522028262677 13.906249999999998  3.43585480742588 13.900240384615385  3.3250207813798838 13.900240384615385  L 3.3250207813798838 8.725961538461537  C 3.180936547520089 7.908653846153845  2.687725131615406 7.5  1.8453865336658355 7.5  L 0 7.5  L 0 4.543269230769232  L 3.524522028262677 4.561298076923078  C 4.233859794957052 4.561298076923078  4.771404821280133 4.55528846153846  5.1371571072319195 4.543269230769232  L 5.1371571072319195 0  L 7.69742310889443 0  L 7.69742310889443 4.453125  C 8.6062621224716 4.429086538461535  9.282349681352176 4.417067307692307  9.725685785536161 4.417067307692307  L 9.725685785536161 0  L 12.28595178719867 0  L 12.28595178719867 4.543269230769232  C 13.16154059296204 4.627403846153845  13.937378775284014 4.762620192307688  14.613466334164588 4.948918269230768  C 15.289553893045166 5.135216346153846  15.915766140205045 5.4056490384615365  16.492103075644224 5.760216346153847  C 17.068440011083403 6.114783653846151  17.52563036852314 6.583533653846151  17.863674147963422 7.166466346153847  Z M 14.738154613466335 19.975961538461537  C 14.843446938210032 19.69951923076923  14.89609310058188 19.39302884615384  14.89609310058188 19.056490384615383  C 14.89609310058188 18.623798076923073  14.812967581047383 18.239182692307693  14.646716541978389 17.90264423076923  C 14.480465502909395 17.566105769230766  14.275422554724301 17.289663461538463  14.03158769742311 17.073317307692307  C 13.787752840121918 16.856971153846153  13.46910501523968 16.673677884615383  13.075644222776393 16.5234375  C 12.682183430313108 16.373197115384617  12.31920199501247 16.26201923076923  11.986699916874482 16.189903846153847  C 11.654197838736494 16.117788461538463  11.244111942366306 16.063701923076927  10.756442227763923 16.02764423076923  C 10.268772513161542 15.991586538461537  9.886395123302856 15.973557692307693  9.609310058187862 15.973557692307693  C 9.332224993072874 15.973557692307693  8.974785259074537 15.979567307692308  8.536990856192851 15.991586538461537  C 8.099196453311169 16.003605769230766  7.835965641451926 16.009615384615383  7.747298420615128 16.009615384615383  L 7.747298420615128 22.103365384615383  C 7.835965641451926 22.103365384615383  8.04100858963702 22.106370192307693  8.362427265170407 22.112379807692307  C 8.683845940703797 22.11838942307692  8.949847603214188 22.12139423076923  9.160432252701579 22.12139423076923  C 9.371016902188973 22.12139423076923  9.664727071210862 22.112379807692307  10.041562759767249 22.094350961538463  C 10.418398448323636 22.076322115384617  10.742587974508176 22.052283653846153  11.014131338320865 22.022235576923073  C 11.285674702133555 21.9921875  11.601551676364645 21.94110576923077  11.96176226101413 21.868990384615383  C 12.32197284566362 21.796875  12.62953726794126 21.712740384615383  12.884455527847049 21.616586538461537  C 13.139373787752842 21.520432692307693  13.402604599612083 21.39423076923077  13.674147963424772 21.23798076923077  C 13.945691327237464 21.081730769230766  14.164588528678305 20.901442307692307  14.330839567747297 20.697115384615383  C 14.497090606816293 20.49278846153846  14.632862288722638 20.252403846153847  14.738154613466335 19.975961538461537  Z M 13.566084788029926 11.394230769230768  C 13.66583541147132 11.11778846153846  13.715710723192021 10.811298076923073  13.715710723192021 10.474759615384615  C 13.715710723192021 10.078125  13.646439456913273 9.7265625  13.507896924355778 9.420072115384615  C 13.369354391798282 9.113581730769232  13.200332502078139 8.861177884615385  13.000831255195344 8.662860576923078  C 12.801330008312553 8.464543269230768  12.535328345802162 8.296274038461535  12.202826267664173 8.158052884615385  C 11.870324189526185 8.01983173076923  11.565530617899697 7.920673076923077  11.288445552784705 7.860576923076922  C 11.011360487669714 7.8004807692307665  10.670545857578277 7.752403846153847  10.26600166251039 7.716346153846153  C 9.861457467442506 7.680288461538463  9.540038791909117 7.66526442307692  9.301745635910224 7.671274038461537  C 9.063452479911334 7.6772836538461515  8.764200609587146 7.6832932692307665  8.403990024937656 7.689302884615384  C 8.04377944028817 7.695312499999999  7.824882238847327 7.698317307692307  7.747298420615128 7.698317307692307  L 7.747298420615128 13.233173076923078  C 7.802715433638127 13.233173076923078  7.99390412856747 13.236177884615385  8.320864505403158 13.2421875  C 8.647824882238847 13.248197115384615  8.90551399279579 13.248197115384615  9.093931837073981 13.2421875  C 9.282349681352176 13.236177884615385  9.559434746467165 13.224158653846153  9.925187032418952 13.206129807692307  C 10.29093931837074 13.188100961538463  10.59573288999723 13.155048076923077  10.83956774729842 13.106971153846153  C 11.083402604599613 13.05889423076923  11.368800221668051 12.99278846153846  11.695760598503743 12.908653846153847  C 12.022720975339432 12.82451923076923  12.291493488500972 12.713341346153845  12.502078137988361 12.575120192307693  C 12.712662787475757 12.436899038461537  12.917705735660848 12.27463942307692  13.11720698254364 12.088341346153847  C 13.316708229426435 11.90204326923077  13.46633416458853 11.670673076923077  13.566084788029926 11.394230769230768  Z " fill-rule="nonzero" fill="url(#LinearGradient1187)" stroke="none" transform="matrix(1 0 0 1 253 233 )" />
  </g>
</svg>