<?xml version="1.0" encoding="utf-8"?>
<svg version="1.1" xmlns:xlink="http://www.w3.org/1999/xlink" width="62px" height="70px" xmlns="http://www.w3.org/2000/svg">
  <g transform="matrix(1 0 0 1 -128 -504 )">
    <path d="M 19.727272727272727 37.69230769230769  L 25.363636363636367 64.61538461538461  L 29.590909090909093 45.76923076923077  L 25.363636363636367 40.38461538461538  L 19.727272727272727 37.69230769230769  Z M 32.40909090909091 45.76923076923077  L 36.63636363636364 64.61538461538461  L 42.272727272727266 37.69230769230769  L 36.63636363636364 40.38461538461538  L 32.40909090909091 45.76923076923077  Z M 43.50568181818181 23.26322115384615  C 43.564393939393945 23.01081730769231  43.62310606060606 22.63221153846154  43.68181818181819 22.12740384615385  C 43.62310606060606 22.015224358974354  43.564393939393945 21.931089743589745  43.50568181818181 21.875  C 43.212121212121225 21.65064102564102  41.803030303030305 21.53846153846154  39.27840909090909 21.53846153846154  C 37.22348484848485 21.53846153846154  34.77225378787879 21.804887820512814  31.924715909090907 22.33774038461538  C 31.719223484848484 22.393830128205124  31.410984848484855 22.421875  31 22.421875  C 30.589015151515152 22.421875  30.28077651515152 22.393830128205124  30.075284090909093 22.33774038461538  C 27.227746212121215 21.804887820512814  24.776515151515152 21.53846153846154  22.721590909090907 21.53846153846154  C 20.196969696969695 21.53846153846154  18.78787878787879 21.65064102564102  18.49431818181818 21.875  C 18.435606060606062 21.931089743589745  18.37689393939394 22.015224358974354  18.31818181818182 22.12740384615385  C 18.37689393939394 22.63221153846154  18.435606060606062 23.01081730769231  18.49431818181818 23.26322115384615  C 18.553030303030305 23.34735576923077  18.66311553030303 23.4385016025641  18.824573863636367 23.53665865384615  C 18.986032196969695 23.634815705128204  19.096117424242426 23.782051282051274  19.154829545454547 23.97836538461538  C 19.213541666666668 24.09054487179487  19.323626893939394 24.37800480769231  19.485085227272727 24.84074519230769  C 19.646543560606062 25.30348557692308  19.749289772727273 25.590945512820515  19.793323863636367 25.703125  C 19.837357954545453 25.81530448717948  19.94744318181818 26.053685897435894  20.123579545454547 26.41826923076923  C 20.299715909090907 26.78285256410256  20.424479166666668 27.021233974358974  20.49786931818182 27.13341346153846  C 20.571259469696972 27.24559294871795  20.703361742424246 27.441907051282044  20.894176136363633 27.72235576923077  C 21.08499053030303 28.00280448717948  21.261126893939394 28.19210737179487  21.422585227272727 28.29026442307692  C 21.584043560606066 28.388421474358974  21.789535984848488 28.52163461538462  22.0390625 28.68990384615385  C 22.288589015151516 28.85817307692308  22.545454545454547 28.970352564102566  22.809659090909093 29.02644230769231  C 23.073863636363633 29.082532051282044  23.374763257575758 29.138621794871796  23.712357954545453 29.19471153846154  C 24.049952651515152 29.250801282051274  24.409564393939394 29.27884615384615  24.79119318181818 29.27884615384615  C 25.848011363636367 29.27884615384615  26.714015151515152 29.103565705128204  27.389204545454547 28.75300480769231  C 28.06439393939394 28.40244391025641  28.541429924242426 27.98177083333333  28.8203125 27.49098557692308  C 29.099195075757578 27.000200320512814  29.31202651515152 26.516426282051274  29.45880681818182 26.03966346153846  C 29.605587121212125 25.56290064102564  29.774384469696972 25.149238782051274  29.965198863636367 24.79867788461538  C 30.156013257575758 24.44811698717948  30.412878787878793 24.27283653846154  30.735795454545453 24.27283653846154  L 31.264204545454547 24.27283653846154  C 31.587121212121215 24.27283653846154  31.843986742424246 24.44811698717948  32.03480113636364 24.79867788461538  C 32.22561553030303 25.149238782051274  32.39441287878788 25.56290064102564  32.54119318181819 26.03966346153846  C 32.687973484848484 26.516426282051274  32.90080492424243 27.000200320512814  33.1796875 27.49098557692308  C 33.45857007575758 27.98177083333333  33.93560606060606 28.40244391025641  34.61079545454545 28.75300480769231  C 35.28598484848485 29.103565705128204  36.15198863636364 29.27884615384615  37.20880681818181 29.27884615384615  C 37.59043560606061 29.27884615384615  37.95004734848485 29.250801282051274  38.28764204545455 29.19471153846154  C 38.62523674242425 29.138621794871796  38.92613636363636 29.082532051282044  39.19034090909091 29.02644230769231  C 39.45454545454545 28.970352564102566  39.711410984848484 28.85817307692308  39.9609375 28.68990384615385  C 40.210464015151516 28.52163461538462  40.41595643939394 28.388421474358974  40.577414772727266 28.29026442307692  C 40.73887310606061 28.19210737179487  40.915009469696976 28.00280448717948  41.10582386363636 27.72235576923077  C 41.29663825757576 27.441907051282044  41.42874053030303 27.24559294871795  41.50213068181819 27.13341346153846  C 41.575520833333336 27.021233974358974  41.7002840909091 26.78285256410256  41.87642045454545 26.41826923076923  C 42.05255681818182 26.053685897435894  42.162642045454554 25.81530448717948  42.20667613636364 25.703125  C 42.250710227272734 25.590945512820515  42.353456439393945 25.30348557692308  42.514914772727266 24.84074519230769  C 42.67637310606061 24.37800480769231  42.786458333333336 24.09054487179487  42.84517045454545 23.97836538461538  C 42.903882575757585 23.782051282051274  43.013967803030305 23.634815705128204  43.17542613636364 23.53665865384615  C 43.336884469696976 23.4385016025641  43.4469696969697 23.34735576923077  43.50568181818181 23.26322115384615  Z M 61.647727272727266 52.85757211538462  C 61.88257575757576 54.86278044871795  62 56.94511217948718  62 59.10456730769231  C 62 62.497996794871796  60.92850378787879 65.16225961538461  58.78551136363636 67.09735576923077  C 56.642518939393945 69.03245192307692  53.79498106060606 70  50.242897727272734 70  L 11.757102272727273 70  C 8.20501893939394 70  5.3574810606060606 69.03245192307692  3.2144886363636367 67.09735576923077  C 1.071496212121212 65.16225961538461  0 62.497996794871796  0 59.10456730769231  C 0 57.393830128205124  0.06605113636363635 55.73918269230769  0.19815340909090912 54.140625  C 0.3302556818181818 52.54206730769231  0.6091382575757576 50.782251602564095  1.0348011363636362 48.86117788461538  C 1.4604640151515154 46.940104166666664  2.010890151515152 45.20833333333333  2.686079545454546 43.66586538461538  C 3.36126893939394 42.12339743589743  4.293323863636363 40.67207532051282  5.482244318181818 39.31189903846154  C 6.671164772727273 37.951722756410255  8.043560606060607 36.90705128205128  9.599431818181817 36.17788461538462  L 5.636363636363637 26.92307692307692  L 15.05965909090909 26.92307692307692  C 14.41382575757576 25.128205128205124  14.09090909090909 23.33333333333333  14.09090909090909 21.53846153846154  C 14.09090909090909 21.20192307692308  14.120265151515152 20.753205128205124  14.178977272727273 20.19230769230769  C 8.483901515151516 19.070512820512814  5.636363636363637 17.724358974358974  5.636363636363637 16.15384615384615  C 5.636363636363637 14.55528846153846  8.71875 13.16706730769231  14.883522727272727 11.98918269230769  C 15.38257575757576 10.250400641025637  16.13849431818182 8.37139423076923  17.151278409090907 6.35216346153846  C 18.1640625 4.332932692307691  19.198863636363633 2.734375  20.25568181818182 1.556490384615381  C 21.195075757575758 0.5188301282051322  22.310606060606066 0  23.602272727272727 0  C 24.482954545454547 0  25.715909090909093 0.434695512820521  27.301136363636367 1.3040865384615397  C 28.886363636363633 2.1734775641025585  30.11931818181818 2.6081730769230793  31 2.6081730769230793  C 31.880681818181817 2.6081730769230793  33.11363636363636 2.1734775641025585  34.69886363636364 1.3040865384615397  C 36.28409090909091 0.434695512820521  37.51704545454545 0  38.397727272727266 0  C 39.68939393939394 0  40.80492424242425 0.5188301282051322  41.74431818181819 1.556490384615381  C 42.80113636363637 2.734375  43.83593750000001 4.332932692307691  44.84872159090909 6.35216346153846  C 45.86150568181819 8.37139423076923  46.61742424242425 10.250400641025637  47.116477272727266 11.98918269230769  C 53.28125 13.16706730769231  56.36363636363636 14.55528846153846  56.36363636363636 16.15384615384615  C 56.36363636363636 17.724358974358974  53.51609848484849 19.070512820512814  47.821022727272734 20.19230769230769  C 48.026515151515156 22.46394230769231  47.73295454545455 24.707532051282044  46.94034090909091 26.92307692307692  L 56.36363636363636 26.92307692307692  L 52.75284090909091 36.38822115384616  C 54.602272727272734 37.31370192307692  56.18016098484849 38.66686698717949  57.48650568181819 40.44771634615384  C 58.79285037878788 42.228565705128204  59.75426136363636 44.240785256410255  60.37073863636364 46.484375  C 60.98721590909091 48.72796474358974  61.41287878787879 50.85236378205128  61.647727272727266 52.85757211538462  Z " fill-rule="nonzero" fill="#ffffff" stroke="none" transform="matrix(1 0 0 1 128 504 )" />
  </g>
</svg>