<?xml version="1.0" encoding="utf-8"?>
<svg version="1.1" xmlns:xlink="http://www.w3.org/1999/xlink" width="43px" height="50px" xmlns="http://www.w3.org/2000/svg">
  <defs>
    <linearGradient gradientUnits="userSpaceOnUse" x1="21.5" y1="0" x2="21.5" y2="50" id="LinearGradient931">
      <stop id="Stop932" stop-color="#ff7523" offset="0" />
      <stop id="Stop933" stop-color="#f0eb02" stop-opacity="0.8745098039215686" offset="1" />
    </linearGradient>
  </defs>
  <g transform="matrix(1 0 0 1 -35 -29 )">
    <path d="M 29.674479166666664 1.8973214285714302  L 41.096354166666664 13.28125  C 41.35763888888889 13.541666666666663  41.618923611111114 13.876488095238093  41.880208333333336 15  L 28 15  L 28 1.1160714285714302  C 29.077256944444446 1.3764880952380931  29.413194444444446 1.636904761904756  29.674479166666664 1.8973214285714302  Z M 25.8671875 17.075892857142854  C 26.389756944444446 17.596726190476186  27.024305555555554 17.857142857142854  27.770833333333336 18  L 43 18  L 43 47.32142857142857  C 43 48.06547619047619  42.73871527777778 48.697916666666664  42.216145833333336 49.21875  C 41.69357638888889 49.739583333333336  41.05902777777778 50  40.3125 50  L 2.6875 50  C 1.9409722222222225 50  1.3064236111111112 49.739583333333336  0.7838541666666667 49.21875  C 0.2612847222222222 48.697916666666664  0 48.06547619047619  0 47.32142857142857  L 0 2.67857142857143  C 0 1.9345238095238082  0.2612847222222222 1.3020833333333315  0.7838541666666667 0.78125  C 1.3064236111111112 0.2604166666666685  1.9409722222222225 0  2.6875 0  L 25 0  L 25 15.17857142857143  C 25.083333333333336 15.92261904761904  25.344618055555554 16.555059523809522  25.8671875 17.075892857142854  Z M 31.998046875 39.034598214285715  C 32.166015625 38.8671875  32.25 38.65327380952381  32.25 38.39285714285714  L 32.25 36.60714285714286  C 32.25 36.34672619047619  32.166015625 36.1328125  31.998046875 35.965401785714285  C 31.830078125 35.79799107142857  31.615451388888896 35.714285714285715  31.354166666666664 35  L 11.645833333333332 35  C 11.384548611111112 35.714285714285715  11.169921875000002 35.79799107142857  11.001953125 35.965401785714285  C 10.833984375 36.1328125  10.75 36.34672619047619  10.75 36.60714285714286  L 10.75 38.39285714285714  C 10.75 38.65327380952381  10.833984375 38.8671875  11.001953125 39.034598214285715  C 11.169921875000002 39.20200892857143  11.384548611111112 39.285714285714285  11.645833333333332 39  L 31.354166666666664 39  C 31.615451388888896 39.285714285714285  31.830078125 39.20200892857143  31.998046875 39.034598214285715  Z M 31.998046875 31.89174107142857  C 32.166015625 31.72433035714286  32.25 31.510416666666664  32.25 31.25  L 32.25 29.464285714285715  C 32.25 29.203869047619047  32.166015625 28.98995535714286  31.998046875 28.82254464285714  C 31.830078125 28.65513392857143  31.615451388888896 28.57142857142857  31.354166666666664 28  L 11.645833333333332 28  C 11.384548611111112 28.57142857142857  11.169921875000002 28.65513392857143  11.001953125 28.82254464285714  C 10.833984375 28.98995535714286  10.75 29.203869047619047  10.75 29.464285714285715  L 10.75 31.25  C 10.75 31.510416666666664  10.833984375 31.72433035714286  11.001953125 31.89174107142857  C 11.169921875000002 32.059151785714285  11.384548611111112 32.14285714285714  11.645833333333332 32  L 31.354166666666664 32  C 31.615451388888896 32.14285714285714  31.830078125 32.059151785714285  31.998046875 31.89174107142857  Z M 31.998046875 24.74888392857143  C 32.166015625 24.581473214285715  32.25 24.367559523809522  32.25 24.107142857142854  L 32.25 22.32142857142857  C 32.25 22.0610119047619  32.166015625 21.847098214285715  31.998046875 21.6796875  C 31.830078125 21.512276785714285  31.615451388888896 21.42857142857143  31.354166666666664 22  L 11.645833333333332 22  C 11.384548611111112 21.42857142857143  11.169921875000002 21.512276785714285  11.001953125 21.6796875  C 10.833984375 21.847098214285715  10.75 22.0610119047619  10.75 22.32142857142857  L 10.75 24.107142857142854  C 10.75 24.367559523809522  10.833984375 24.581473214285715  11.001953125 24.74888392857143  C 11.169921875000002 24.916294642857146  11.384548611111112 25  11.645833333333332 25  L 31.354166666666664 25  C 31.615451388888896 25  31.830078125 24.916294642857146  31.998046875 24.74888392857143  Z " fill-rule="nonzero" fill="url(#LinearGradient931)" stroke="none" transform="matrix(1 0 0 1 35 29 )" />
  </g>
</svg>