<?xml version="1.0" encoding="utf-8"?>
<svg version="1.1" xmlns:xlink="http://www.w3.org/1999/xlink" width="47px" height="35px" xmlns="http://www.w3.org/2000/svg">
  <g transform="matrix(1 0 0 1 -71 -651 )">
    <path d="M 21.155649038461537 3.0028129395218013  C 21.51342147435897 3.314580403187996  21.692307692307693 3.6837787154242823  22 4.11040787623066  L 22 30.88959212376934  C 21.692307692307693 31.316221284575715  21.51342147435897 31.685419596812  21.155649038461537 31.9971870604782  C 20.797876602564102 32.3089545241444  20.37419871794872 32.4648382559775  19.884615384615383 32.4648382559775  C 19.39503205128205 32.4648382559775  18.971354166666668 32.3089545241444  18.61358173076923 31.9971870604782  L 9.207932692307692 23.80098452883263  L 1.8076923076923077 23.80098452883263  C 1.3181089743589747 23.80098452883263  0.8944310897435899 23.645100796999532  0.5366586538461539 23.333333333333336  C 0.17888621794871795 23.021565869667132  0 22.652367557430846  0 22.22573839662447  L 0 12.774261603375527  C 0 12.347632442569148  0.17888621794871795 11.97843413033286  0.5366586538461539 11.666666666666668  C 0.8944310897435899 11.354899203000466  1.3181089743589747 11.199015471167371  1.8076923076923077 11.199015471167371  L 9.207932692307692 11.199015471167371  L 18.61358173076923 3.0028129395218013  C 18.971354166666668 2.6910454758556024  19.39503205128205 2.535161744022505  19.884615384615383 2.535161744022505  C 20.37419871794872 2.535161744022505  20.797876602564102 2.6910454758556024  21.155649038461537 3.0028129395218013  Z M 31.338040865384613 14.004922644163148  C 32.13832131410257 15.087904360056259  32.53846153846154 16.252930145335206  32.53846153846154 17.5  C 32.53846153846154 18.74706985466479  32.13832131410257 19.90799343647445  31.338040865384613 20.982770745428976  C 30.537760416666668 22.057548054383492  29.478565705128204 22.824660103141113  28.16045673076923 23.28410689170183  C 27.972155448717956 23.366150961087666  27.73677884615385 23.407172995780588  27.454326923076923 23.407172995780588  C 26.964743589743595 23.407172995780588  26.541065705128204 23.25539146741678  26.18329326923077 22.95182841068917  C 25.825520833333336 22.648265353961552  25.646634615384613 22.274964838255976  25.646634615384613 21.831926863572434  C 25.646634615384613 21.487341772151897  25.759615384615387 21.196085325832158  25.985576923076923 20.95815752461322  C 26.211538461538463 20.72022972339428  26.484575320512825 20.51511954992968  26.8046875 20.342827004219412  C 27.124799679487186 20.17053445850914  27.44491185897436 19.9818330989217  27.765024038461537 19.776722925457104  C 28.08513621794872 19.571612751992497  28.358173076923077 19.276254102203467  28.584134615384613 18.89064697609001  C 28.810096153846157 18.505039849976555  28.923076923076923 18.041490857946552  28.923076923076923 17.5  C 28.923076923076923 16.958509142053448  28.810096153846157 16.494960150023438  28.584134615384613 16.109353023909986  C 28.358173076923077 15.72374589779653  28.08513621794872 15.4283872480075  27.765024038461537 15.2232770745429  C 27.44491185897436 15.018166901078294  27.124799679487186 14.829465541490858  26.8046875 14.657172995780593  C 26.484575320512825 14.484880450070323  26.211538461538463 14.279770276605717  25.985576923076923 14.04184247538678  C 25.759615384615387 13.803914674167837  25.646634615384613 13.5126582278481  25.646634615384613 13.168073136427566  C 25.646634615384613 12.72503516174402  25.825520833333336 12.351734646038441  26.18329326923077 12.048171589310831  C 26.541065705128204 11.744608532583216  26.964743589743595 11.592827004219407  27.454326923076923 11.592827004219407  C 27.73677884615385 11.592827004219407  27.972155448717956 11.63384903891233  28.16045673076923 11.715893108298172  C 29.478565705128204 12.158931082981718  30.537760416666668 12.921940928270043  31.338040865384613 14.004922644163148  Z M 37.36838942307693 10.546765119549928  C 38.968950320512825 12.671706516643225  39.76923076923077 14.98945147679325  39.76923076923077 17.5  C 39.76923076923077 20.01054852320675  38.968950320512825 22.32829348335677  37.36838942307693 24.45323488045007  C 35.76782852564103 26.578176277543363  33.6494391025641 28.124706985466474  31.013221153846157 29.092827004219412  C 30.768429487179493 29.17487107360525  30.533052884615387 29.21589310829817  30.307091346153843 29.21589310829817  C 29.798677884615387 29.21589310829817  29.365584935897438 29.060009376465075  29.0078125 28.748241912798875  C 28.65004006410257 28.436474449132675  28.47115384615385 28.06727613689639  28.471153846153843 27.64064697609001  C 28.47115384615385 27.00070323488045  28.83834134615385 26.516643225503984  29.572716346153843 26.18846694796062  C 30.62720352564103 25.712611345522735  31.342748397435898 25.351617440225034  31.719350961538463 25.10548523206751  C 33.112780448717956 24.219409282700422  34.2002203525641 23.107712142522267  34.98167067307693 21.77039381153305  C 35.763120993589745 20.433075480543835  36.15384615384615 19.009610876699483  36.15384615384615 17.5  C 36.15384615384615 15.990389123300513  35.763120993589745 14.566924519456164  34.98167067307693 13.229606188466946  C 34.2002203525641 11.89228785747773  33.112780448717956 10.780590717299578  31.719350961538463 9.894514767932488  C 31.342748397435898 9.648382559774966  30.62720352564103 9.28738865447726  29.572716346153843 8.81153305203938  C 28.83834134615385 8.483356774496013  28.47115384615385 7.999296765119551  28.471153846153843 7.359353023909984  C 28.47115384615385 6.9327238631036066  28.65004006410257 6.56352555086732  29.0078125 6.251758087201125  C 29.365584935897438 5.939990623534927  29.789262820512825 5.784106891701829  30.278846153846157 5.784106891701829  C 30.523637820512825 5.784106891701829  30.768429487179493 5.8251289263947434  31.013221153846157 5.907172995780592  C 33.6494391025641 6.8752930145335185  35.76782852564103 8.421823722456628  37.36838942307693 10.546765119549928  Z M 43.41286057692307 7.100914205344584  C 45.804286858974365 10.259610876699483  47 13.725972808251285  47 17.5  C 47 21.274027191748708  45.804286858974365 24.74038912330051  43.41286057692307 27.899085794655416  C 41.021434294871796 31.057782466010313  37.83914262820513 33.38373183309892  33.86598557692307 34.87693389592123  C 33.62119391025641 34.95897796530708  33.376402243589745 35  33.13161057692307 35  C 32.642027243589745 35  32.218349358974365 34.8441162681669  31.860576923076923 34.53234880450071  C 31.502804487179493 34.22058134083451  31.32391826923077 33.851383028598214  31.32391826923077 33.42475386779184  C 31.32391826923077 32.83403656821378  31.69110576923077 32.34997655883732  32.42548076923077 31.97257383966245  C 32.55729166666667 31.906938584153774  32.769130608974365 31.82079231129864  33.06099759615385 31.714135021097047  C 33.352864583333336 31.607477730895454  33.56470352564103 31.521331458040322  33.69651442307693 31.455696202531644  C 34.562700320512825 31.045475855602437  35.33473557692307 30.627051101734644  36.01262019230769 30.20042194092827  C 38.32872596153846 28.707219878105953  40.13641826923077 26.844819503047347  41.43569711538461 24.613220815752463  C 42.73497596153846 22.381622128457572  43.38461538461539 20.01054852320675  43.38461538461539 17.5  C 43.38461538461539 14.98945147679325  42.73497596153846 12.61837787154243  41.43569711538461 10.386779184247539  C 40.13641826923077 8.155180496952648  38.32872596153846 6.292780121894044  36.01262019230769 4.799578059071729  C 35.33473557692307 4.372948898265352  34.562700320512825 3.954524144397559  33.69651442307693 3.544303797468354  C 33.56470352564103 3.478668541959678  33.352864583333336 3.392522269104545  33.06099759615385 3.2858649789029544  C 32.769130608974365 3.179207688701356  32.55729166666667 3.093061415846223  32.42548076923077 3.0274261603375545  C 31.69110576923077 2.650023441162676  31.32391826923077 2.165963431786215  31.32391826923077 1.575246132208159  C 31.32391826923077 1.1486169714017773  31.502804487179493 0.7794186591654911  31.860576923076923 0.46765119549929623  C 32.218349358974365 0.15588373183309745  32.642027243589745 0  33.13161057692307 0  C 33.376402243589745 0  33.62119391025641 0.04102203469291854  33.86598557692307 0.1230661040787634  C 37.83914262820513 1.6162681669010737  41.021434294871796 3.942217533989682  43.41286057692307 7.100914205344584  Z " fill-rule="nonzero" fill="#00aaaa" stroke="none" fill-opacity="0.984313725490196" transform="matrix(1 0 0 1 71 651 )" />
  </g>
</svg>