<?xml version="1.0" encoding="utf-8"?>
<svg version="1.1" xmlns:xlink="http://www.w3.org/1999/xlink" width="29px" height="40px" xmlns="http://www.w3.org/2000/svg">
  <g transform="matrix(1 0 0 1 -85 -288 )">
    <path d="M 28.501718213058417 2.404809619238475  C 28.833906071019477 2.6720106880427474  29 2.9792919171676635  29 3.3266533066132276  C 29 3.6740146960587827  28.833906071019477 3.981295925183699  28.501718213058417 4.248496993987976  L 8.919243986254296 20  L 28.501718213058417 35.75150300601202  C 28.833906071019477 36.0187040748163  29 36.32598530394121  29 36.673346693386776  C 29 37.02070808283233  28.833906071019477 37.327989311957246  28.501718213058417 37.59519038076152  L 26.010309278350515 39.59919839679359  C 25.678121420389463 39.866399465597866  25.296105383734254 40  24.86426116838488 40  C 24.432416953035514 40  24.0504009163803 39.866399465597866  23.718213058419245 39.59919839679359  L 0.4982817869415808 20.921843687374746  C 0.16609392898052702 20.65464261857047  0 20.347361389445556  0 20  C 0 19.65263861055444  0.16609392898052702 19.345357381429523  0.4982817869415808 19.078156312625254  L 23.718213058419245 0.4008016032064132  C 24.0504009163803 0.13360053440213626  24.432416953035514 0  24.86426116838488 0  C 25.296105383734254 0  25.678121420389463 0.13360053440213626  26.010309278350515 0.4008016032064132  L 28.501718213058417 2.404809619238475  Z " fill-rule="nonzero" fill="#000000" stroke="none" transform="matrix(1 0 0 1 85 288 )" />
  </g>
</svg>