<?xml version="1.0" encoding="utf-8"?>
<svg version="1.1" xmlns:xlink="http://www.w3.org/1999/xlink" width="20px" height="20px" xmlns="http://www.w3.org/2000/svg">
  <g transform="matrix(1 0 0 1 -432 -1130 )">
    <path d="M 16.235795454545453 9.21875  C 16.321022727272727 9.303977272727273  16.363636363636363 9.412878787878787  16.363636363636363 9.545454545454547  L 16.363636363636363 10.454545454545453  C 16.363636363636363 10.587121212121211  16.321022727272727 10.696022727272727  16.235795454545453 10.78125  C 16.15056818181818 10.866477272727273  16.04166666666667 10.909090909090908  15.909090909090908 10.909090909090908  L 10.909090909090908 10.909090909090908  L 10.909090909090908 15.909090909090908  C 10.909090909090908 16.041666666666664  10.866477272727273 16.15056818181818  10.78125 16.235795454545453  C 10.696022727272727 16.321022727272727  10.587121212121213 16.363636363636363  10.454545454545453 16.363636363636363  L 9.545454545454547 16.363636363636363  C 9.412878787878789 16.363636363636363  9.303977272727273 16.321022727272727  9.21875 16.235795454545453  C 9.133522727272727 16.15056818181818  9.09090909090909 16.041666666666664  9.09090909090909 15.909090909090908  L 9.09090909090909 10.909090909090908  L 4.090909090909091 10.909090909090908  C 3.958333333333334 10.909090909090908  3.8494318181818183 10.866477272727273  3.7642045454545454 10.78125  C 3.678977272727273 10.696022727272727  3.6363636363636367 10.587121212121211  3.6363636363636367 10.454545454545453  L 3.6363636363636367 9.545454545454547  C 3.6363636363636367 9.412878787878787  3.678977272727273 9.303977272727273  3.7642045454545454 9.21875  C 3.8494318181818183 9.133522727272727  3.958333333333334 9.090909090909092  4.090909090909091 9.090909090909092  L 9.09090909090909 9.090909090909092  L 9.09090909090909 4.090909090909092  C 9.09090909090909 3.9583333333333304  9.133522727272727 3.849431818181819  9.21875 3.764204545454546  C 9.303977272727273 3.678977272727273  9.412878787878789 3.6363636363636354  9.545454545454547 3.6363636363636354  L 10.454545454545453 3.6363636363636354  C 10.587121212121213 3.6363636363636354  10.696022727272727 3.678977272727273  10.78125 3.764204545454546  C 10.866477272727273 3.849431818181819  10.909090909090908 3.9583333333333304  10.909090909090908 4.090909090909092  L 10.909090909090908 9.090909090909092  L 15.909090909090908 9.090909090909092  C 16.04166666666667 9.090909090909092  16.15056818181818 9.133522727272727  16.235795454545453 9.21875  Z M 17.514204545454547 17.514204545454547  C 17.959280303030305 17.069128787878785  18.18181818181818 16.534090909090907  18 15.909090909090908  L 18 4.090909090909092  C 18.18181818181818 3.4659090909090917  17.959280303030305 2.930871212121211  17.514204545454547 2.485795454545454  C 17.06912878787879 2.040719696969695  16.534090909090907 1.8181818181818188  15.909090909090908 2  L 4.090909090909091 2  C 3.4659090909090913 1.8181818181818188  2.930871212121213 2.040719696969695  2.4857954545454546 2.485795454545454  C 2.0407196969696972 2.930871212121211  1.8181818181818183 3.4659090909090917  2 4.090909090909092  L 2 15.909090909090908  C 1.8181818181818183 16.534090909090907  2.0407196969696972 17.069128787878785  2.4857954545454546 17.514204545454547  C 2.930871212121213 17.959280303030305  3.4659090909090913 18.18181818181818  4.090909090909091 18  L 15.909090909090908 18  C 16.534090909090907 18.18181818181818  17.06912878787879 17.959280303030305  17.514204545454547 17.514204545454547  Z M 18.799715909090907 1.2002840909090917  C 19.599905303030305 2.000473484848484  20 2.964015151515149  20 4.090909090909092  L 20 15.909090909090908  C 20 17.035984848484848  19.599905303030305 17.999526515151516  18.799715909090907 18.799715909090907  C 17.999526515151516 19.599905303030305  17.03598484848485 20  15.909090909090908 20  L 4.090909090909091 20  C 2.964015151515152 20  2.0004734848484853 19.599905303030305  1.2002840909090908 18.799715909090907  C 0.40009469696969696 17.999526515151516  0 17.035984848484848  0 15.909090909090908  L 0 4.090909090909092  C 0 2.964015151515149  0.40009469696969696 2.000473484848484  1.2002840909090908 1.2002840909090917  C 2.0004734848484853 0.400094696969695  2.964015151515152 0  4.090909090909091 0  L 15.909090909090908 0  C 17.03598484848485 0  17.999526515151516 0.400094696969695  18.799715909090907 1.2002840909090917  Z " fill-rule="nonzero" fill="#ffffff" stroke="none" transform="matrix(1 0 0 1 432 1130 )" />
  </g>
</svg>