<?xml version="1.0" encoding="utf-8"?>
<svg version="1.1" xmlns:xlink="http://www.w3.org/1999/xlink" width="13px" height="13px" viewBox="255 647  13 13" xmlns="http://www.w3.org/2000/svg">
  <path d="M 261.5 647  C 265.14 647  268 649.86  268 653.5  C 268 657.14  265.14 660  261.5 660  C 257.86 660  255 657.14  255 653.5  C 255 649.86  257.86 647  261.5 647  Z " fill-rule="nonzero" fill="#ffffff" stroke="none" />
  <path d="M 261.5 647.5  C 264.86 647.5  267.5 650.14  267.5 653.5  C 267.5 656.86  264.86 659.5  261.5 659.5  C 258.14 659.5  255.5 656.86  255.5 653.5  C 255.5 650.14  258.14 647.5  261.5 647.5  Z " stroke-width="1" stroke="#797979" fill="none" />
  <path d="M 261.5 656.75  C 259.68 656.75  258.25 655.32  258.25 653.5  C 258.25 651.68  259.68 650.25  261.5 650.25  C 263.32 650.25  264.75 651.68  264.75 653.5  C 264.75 655.32  263.32 656.75  261.5 656.75  " fill-rule="nonzero" fill="#797979" stroke="none" />
</svg>