<?xml version="1.0" encoding="utf-8"?>
<svg version="1.1" xmlns:xlink="http://www.w3.org/1999/xlink" width="42px" height="50px" xmlns="http://www.w3.org/2000/svg">
  <g transform="matrix(1 0 0 1 -309 -52 )">
    <path d="M 13.363636363636363 26.923076923076923  L 17.181818181818183 46.15384615384615  L 20.045454545454547 32.69230769230769  L 17.181818181818183 28.846153846153843  L 13.363636363636363 26.923076923076923  Z M 21.954545454545453 32.69230769230769  L 24.81818181818182 46.15384615384615  L 28.636363636363633 26.923076923076923  L 24.81818181818182 28.846153846153843  L 21.954545454545453 32.69230769230769  Z M 29.471590909090907 16.616586538461537  C 29.51136363636364 16.436298076923077  29.551136363636363 16.165865384615387  29.590909090909093 15.805288461538463  C 29.551136363636363 15.725160256410254  29.51136363636364 15.665064102564102  29.471590909090907 15.625  C 29.27272727272728 15.464743589743584  28.31818181818182 15.384615384615385  26.607954545454547 15.384615384615385  C 25.215909090909093 15.384615384615385  23.55539772727273 15.574919871794869  21.626420454545453 15.955528846153843  C 21.48721590909091 15.995592948717945  21.278409090909093 16.015625  21 16.015625  C 20.72159090909091 16.015625  20.512784090909093 15.995592948717945  20.373579545454547 15.955528846153843  C 18.444602272727273 15.574919871794869  16.78409090909091 15.384615384615385  15.392045454545453 15.384615384615385  C 13.681818181818182 15.384615384615385  12.727272727272728 15.464743589743584  12.52840909090909 15.625  C 12.488636363636363 15.665064102564102  12.448863636363638 15.725160256410254  12.40909090909091 15.805288461538463  C 12.448863636363638 16.165865384615387  12.488636363636363 16.436298076923077  12.52840909090909 16.616586538461537  C 12.568181818181818 16.676682692307693  12.642755681818182 16.741786858974354  12.752130681818183 16.811899038461537  C 12.861505681818182 16.882011217948715  12.936079545454547 16.987179487179482  12.975852272727273 17.127403846153843  C 13.015625000000002 17.207532051282048  13.090198863636365 17.412860576923077  13.199573863636363 17.743389423076923  C 13.308948863636363 18.07391826923077  13.378551136363637 18.279246794871796  13.408380681818183 18.359375  C 13.438210227272727 18.4395032051282  13.51278409090909 18.60977564102564  13.632102272727273 18.870192307692307  C 13.751420454545453 19.13060897435897  13.835937500000002 19.30088141025641  13.88565340909091 19.381009615384613  C 13.93536931818182 19.461137820512818  14.024857954545457 19.601362179487175  14.154119318181817 19.801682692307693  C 14.283380681818182 20.0020032051282  14.402698863636365 20.137219551282048  14.512073863636363 20.20733173076923  C 14.621448863636367 20.27744391025641  14.760653409090912 20.372596153846157  14.9296875 20.492788461538463  C 15.098721590909092 20.61298076923077  15.272727272727273 20.693108974358974  15.451704545454547 20.733173076923077  C 15.630681818181817 20.773237179487175  15.834517045454545 20.813301282051285  16.063210227272727 20.853365384615387  C 16.29190340909091 20.893429487179482  16.535511363636363 20.913461538461537  16.79403409090909 20.913461538461537  C 17.509943181818183 20.913461538461537  18.09659090909091 20.788261217948715  18.553977272727273 20.537860576923077  C 19.011363636363637 20.287459935897434  19.334517045454547 19.986979166666664  19.5234375 19.63641826923077  C 19.712357954545457 19.28585737179487  19.856534090909093 18.940304487179482  19.95596590909091 18.599759615384613  C 20.055397727272727 18.25921474358974  20.16974431818182 17.963741987179482  20.299005681818183 17.713341346153843  C 20.428267045454547 17.4629407051282  20.60227272727273 17.337740384615387  20.821022727272727 17.337740384615387  L 21.178977272727273 17.337740384615387  C 21.397727272727273 17.337740384615387  21.571732954545457 17.4629407051282  21.70099431818182 17.713341346153843  C 21.830255681818183 17.963741987179482  21.944602272727277 18.25921474358974  22.044034090909093 18.599759615384613  C 22.14346590909091 18.940304487179482  22.28764204545455 19.28585737179487  22.4765625 19.63641826923077  C 22.665482954545457 19.986979166666664  22.988636363636363 20.287459935897434  23.446022727272727 20.537860576923077  C 23.903409090909093 20.788261217948715  24.49005681818182 20.913461538461537  25.205965909090907 20.913461538461537  C 25.464488636363637 20.913461538461537  25.708096590909093 20.893429487179482  25.936789772727273 20.853365384615387  C 26.165482954545457 20.813301282051285  26.36931818181818 20.773237179487175  26.548295454545453 20.733173076923077  C 26.727272727272727 20.693108974358974  26.90127840909091 20.61298076923077  27.0703125 20.492788461538463  C 27.23934659090909 20.372596153846157  27.378551136363637 20.27744391025641  27.487926136363633 20.20733173076923  C 27.597301136363637 20.137219551282048  27.716619318181824 20.0020032051282  27.84588068181818 19.801682692307693  C 27.975142045454547 19.601362179487175  28.064630681818183 19.461137820512818  28.114346590909093 19.381009615384613  C 28.164062500000004 19.30088141025641  28.24857954545455 19.13060897435897  28.367897727272727 18.870192307692307  C 28.487215909090914 18.60977564102564  28.561789772727277 18.4395032051282  28.59161931818182 18.359375  C 28.621448863636367 18.279246794871796  28.69105113636364 18.07391826923077  28.800426136363633 17.743389423076923  C 28.909801136363637 17.412860576923077  28.984375000000004 17.207532051282048  29.024147727272727 17.127403846153843  C 29.06392045454546 16.987179487179482  29.13849431818182 16.882011217948715  29.24786931818182 16.811899038461537  C 29.357244318181824 16.741786858974354  29.431818181818183 16.676682692307693  29.471590909090907 16.616586538461537  Z M 41.76136363636363 37.75540865384615  C 41.92045454545455 39.18770032051282  42 40.67508012820513  42 42.21754807692308  C 42 44.641426282051285  41.27414772727273 46.54447115384615  39.82244318181818 47.92668269230769  C 38.37073863636364 49.308894230769226  36.44176136363637 50  34.03551136363637 50  L 7.964488636363637 50  C 5.558238636363637 50  3.6292613636363638 49.308894230769226  2.1775568181818183 47.92668269230769  C 0.7258522727272727 46.54447115384615  0 44.641426282051285  0 42.21754807692308  C 0 40.99559294871795  0.04474431818181818 39.81370192307692  0.13423295454545456 38.671875  C 0.22372159090909094 37.53004807692308  0.41264204545454547 36.27303685897436  0.7009943181818181 34.90084134615385  C 0.989346590909091 33.52864583333333  1.3622159090909094 32.291666666666664  1.819602272727273 31.189903846153843  C 2.2769886363636367 30.088141025641026  2.9083806818181817 29.05148237179487  3.713778409090909 28.079927884615387  C 4.519176136363637 27.108373397435898  5.448863636363638 26.362179487179482  6.502840909090908 25.841346153846157  L 3.8181818181818183 19.23076923076923  L 10.201704545454545 19.23076923076923  C 9.764204545454547 17.948717948717945  9.545454545454545 16.666666666666664  9.545454545454545 15.384615384615385  C 9.545454545454545 15.14423076923077  9.56534090909091 14.823717948717945  9.605113636363637 14.423076923076922  C 5.747159090909091 13.621794871794869  3.8181818181818183 12.660256410256409  3.8181818181818183 11.538461538461537  C 3.8181818181818183 10.396634615384615  5.90625 9.405048076923078  10.082386363636363 8.563701923076922  C 10.420454545454547 7.321714743589741  10.93252840909091 5.9795673076923075  11.618607954545453 4.537259615384615  C 12.3046875 3.0949519230769216  13.005681818181817 1.953125  13.72159090909091 1.1117788461538436  C 14.357954545454545 0.37059294871795156  15.113636363636367 0  15.988636363636363 0  C 16.585227272727273 0  17.420454545454547 0.3104967948718007  18.494318181818183 0.9314903846153855  C 19.568181818181817 1.5524839743589702  20.40340909090909 1.862980769230771  21 1.862980769230771  C 21.596590909090907 1.862980769230771  22.43181818181818 1.5524839743589702  23.50568181818182 0.9314903846153855  C 24.579545454545453 0.3104967948718007  25.414772727272727 0  26.011363636363633 0  C 26.886363636363637 0  27.642045454545457 0.37059294871795156  28.278409090909093 1.1117788461538436  C 28.994318181818187 1.953125  29.695312500000004 3.0949519230769216  30.381392045454547 4.537259615384615  C 31.067471590909093 5.9795673076923075  31.579545454545457 7.321714743589741  31.917613636363633 8.563701923076922  C 36.09375 9.405048076923078  38.18181818181818 10.396634615384615  38.18181818181818 11.538461538461537  C 38.18181818181818 12.660256410256409  36.252840909090914 13.621794871794869  32.39488636363637 14.423076923076922  C 32.534090909090914 16.045673076923077  32.33522727272727 17.648237179487175  31.798295454545453 19.23076923076923  L 38.18181818181818 19.23076923076923  L 35.73579545454545 25.99158653846154  C 36.98863636363637 26.65264423076923  38.057528409090914 27.619190705128204  38.94247159090909 28.89122596153846  C 39.82741477272727 30.163261217948715  40.47869318181818 31.600560897435898  40.89630681818182 33.203125  C 41.31392045454545 34.805689102564095  41.60227272727273 36.32311698717948  41.76136363636363 37.75540865384615  Z " fill-rule="nonzero" fill="#ffffff" stroke="none" transform="matrix(1 0 0 1 309 52 )" />
  </g>
</svg>