<?xml version="1.0" encoding="utf-8"?>
<svg version="1.1" xmlns:xlink="http://www.w3.org/1999/xlink" width="30px" height="30px" xmlns="http://www.w3.org/2000/svg">
  <g transform="matrix(1 0 0 1 -66 -672 )">
    <path d="M 14.4580078125 21.669921875000004  C 14.819335937500002 21.11653645833333  15 20.423177083333332  15 19.589843750000004  C 15 18.756510416666664  14.9560546875 17.991536458333332  14.8681640625 17.294921874999996  C 14.7802734375 16.598307291666664  14.636230468750002 15.927734375000002  14.43603515625 15.283203125000002  C 14.23583984375 14.638671874999998  13.940429687500002 14.130859375000002  13.5498046875 13.759765624999998  C 13.159179687500002 13.388671875  12.685546875000002 13.203124999999998  12.12890625 13.203124999999998  C 12.070312500000002 13.255208333333334  11.923828125000002 13.372395833333334  11.689453125 13.554687499999998  C 11.455078125000002 13.736979166666664  11.271972656250002 13.876953124999998  11.14013671875 13.974609375  C 11.00830078125 14.072265625000002  10.834960937500002 14.186197916666664  10.6201171875 14.316406249999998  C 10.4052734375 14.446614583333332  10.1953125 14.541015625000002  9.990234375 14.599609375000002  C 9.78515625 14.658203125000002  9.580078125 14.687500000000002  9.375 14.687500000000002  C 9.169921875 14.687500000000002  8.96484375 14.658203125000002  8.759765625 14.599609375000002  C 8.5546875 14.541015625000002  8.344726562500002 14.446614583333332  8.1298828125 14.316406249999998  C 7.915039062500001 14.186197916666664  7.74169921875 14.072265625000002  7.60986328125 13.974609375  C 7.47802734375 13.876953124999998  7.294921875 13.736979166666664  7.060546875 13.554687499999998  C 6.826171875 13.372395833333334  6.6796875 13.255208333333334  6.62109375 13.203124999999998  C 6.064453125 13.203124999999998  5.5908203125 13.388671875  5.2001953125 13.759765624999998  C 4.809570312500001 14.130859375000002  4.51416015625 14.638671874999998  4.31396484375 15.283203125000002  C 4.113769531250001 15.927734375000002  3.9697265625 16.598307291666664  3.8818359375 17.294921874999996  C 3.7939453125 17.991536458333332  3.75 18.756510416666664  3.75 19.589843750000004  C 3.75 20.423177083333332  3.9306640625000004 21.11653645833333  4.2919921875 21.669921875000004  C 4.6533203125 22.223307291666664  5.09765625 22.5  5.625 22.5  L 13.125 22.5  C 13.65234375 22.5  14.0966796875 22.223307291666664  14.4580078125 21.669921875000004  Z M 11.72607421875 12.568359375  C 12.375488281250002 11.70247395833333  12.700195312500002 10.657552083333332  12.7001953125 9.43359375  C 12.700195312500002 8.209635416666664  12.375488281250002 7.164713541666666  11.72607421875 6.298828125  C 11.076660156250002 5.43294270833333  10.292968750000002 4.999999999999999  9.375 4.999999999999999  C 8.45703125 4.999999999999999  7.673339843750001 5.43294270833333  7.02392578125 6.298828125  C 6.37451171875 7.164713541666666  6.0498046875 8.209635416666664  6.0498046875 9.43359375  C 6.0498046875 10.657552083333332  6.37451171875 11.70247395833333  7.02392578125 12.568359375  C 7.673339843750001 13.434244791666666  8.45703125 13.867187500000002  9.375 13.867187500000002  C 10.292968750000002 13.867187500000002  11.076660156250002 13.434244791666666  11.72607421875 12.568359375  Z M 26.1181640625 19.824218750000004  C 26.2060546875 19.707031250000004  26.25 19.557291666666664  26.25 19.374999999999996  L 26.25 18.125000000000004  C 26.25 17.94270833333333  26.2060546875 17.792968749999996  26.1181640625 17.675781249999996  C 26.0302734375 17.558593749999996  25.917968750000004 17.499999999999996  25.78125 17.499999999999996  L 17.34375 17.499999999999996  C 17.20703125 17.499999999999996  17.0947265625 17.558593749999996  17.0068359375 17.675781249999996  C 16.9189453125 17.792968749999996  16.875 17.94270833333333  16.875 18.125000000000004  L 16.875 19.374999999999996  C 16.875 19.557291666666664  16.9189453125 19.707031250000004  17.0068359375 19.824218750000004  C 17.0947265625 19.941406250000004  17.20703125 20.000000000000004  17.34375 20.000000000000004  L 25.78125 20.000000000000004  C 25.917968750000004 20.000000000000004  26.0302734375 19.941406250000004  26.1181640625 19.824218750000004  Z M 26.09619140625 14.794921875  C 26.19873046875 14.658203125000002  26.25 14.492187499999998  26.25 14.296875  L 26.25 13.203124999999998  C 26.25 13.0078125  26.19873046875 12.841796875000002  26.09619140625 12.705078124999998  C 25.99365234375 12.568359375  25.869140625 12.499999999999998  25.72265625 12.499999999999998  L 17.40234375 12.499999999999998  C 17.255859375 12.499999999999998  17.13134765625 12.568359375  17.02880859375 12.705078124999998  C 16.92626953125 12.841796875000002  16.875 13.0078125  16.875 13.203124999999998  L 16.875 14.296875  C 16.875 14.492187499999998  16.92626953125 14.658203125000002  17.02880859375 14.794921875  C 17.13134765625 14.931640624999998  17.255859375 15  17.40234375 15  L 25.72265625 15  C 25.869140625 15  25.99365234375 14.931640624999998  26.09619140625 14.794921875  Z M 26.1181640625 9.824218750000002  C 26.2060546875 9.707031250000002  26.25 9.557291666666664  26.25 9.375  L 26.25 8.125000000000002  C 26.25 7.9427083333333295  26.2060546875 7.79296875  26.1181640625 7.67578125  C 26.0302734375 7.55859375  25.917968750000004 7.5  25.78125 7.5  L 17.34375 7.5  C 17.20703125 7.5  17.0947265625 7.55859375  17.0068359375 7.67578125  C 16.9189453125 7.79296875  16.875 7.9427083333333295  16.875 8.125000000000002  L 16.875 9.375  C 16.875 9.557291666666664  16.9189453125 9.707031250000002  17.0068359375 9.824218750000002  C 17.0947265625 9.941406250000002  17.20703125 10.000000000000002  17.34375 10.000000000000002  L 25.78125 10.000000000000002  C 25.917968750000004 10.000000000000002  26.0302734375 9.941406250000002  26.1181640625 9.824218750000002  Z M 29.3115234375 0.9179687500000011  C 29.770507812500004 1.5299479166666652  30 2.265625000000001  30 3.124999999999999  L 30 26.875  C 30 27.734375  29.770507812500004 28.470052083333336  29.3115234375 29.08203125  C 28.8525390625 29.694010416666668  28.30078125 30  27.65625 30  L 22.5 30  L 22.5 28.125  C 22.5 27.942708333333336  22.4560546875 27.79296875  22.3681640625 27.67578125  C 22.2802734375 27.55859375  22.167968750000004 27.5  22.03125 27.5  L 21.09375 27.5  C 20.95703125 27.5  20.8447265625 27.55859375  20.7568359375 27.67578125  C 20.6689453125 27.79296875  20.625 27.942708333333336  20.625 28.125  L 20.625 30  L 9.375 30  L 9.375 28.125  C 9.375 27.942708333333336  9.3310546875 27.79296875  9.2431640625 27.67578125  C 9.1552734375 27.55859375  9.04296875 27.5  8.90625 27.5  L 7.96875 27.5  C 7.832031250000001 27.5  7.7197265625 27.55859375  7.6318359375 27.67578125  C 7.5439453125 27.79296875  7.5 27.942708333333336  7.5 28.125  L 7.5 30  L 2.34375 30  C 1.69921875 30  1.1474609375000002 29.694010416666668  0.6884765625 29.08203125  C 0.2294921875 28.470052083333336  0 27.734375  0 26.875  L 0 3.124999999999999  C 0 2.265625000000001  0.2294921875 1.5299479166666652  0.6884765625 0.9179687500000011  C 1.1474609375000002 0.3059895833333304  1.69921875 0  2.34375 0  L 27.65625 0  C 28.30078125 0  28.8525390625 0.3059895833333304  29.3115234375 0.9179687500000011  Z " fill-rule="nonzero" fill="#44e5be" stroke="none" fill-opacity="0.7333333333333333" transform="matrix(1 0 0 1 66 672 )" />
  </g>
</svg>