<?xml version="1.0" encoding="utf-8"?>
<svg version="1.1" xmlns:xlink="http://www.w3.org/1999/xlink" width="20px" height="25px" xmlns="http://www.w3.org/2000/svg">
  <g transform="matrix(1 0 0 1 -73 -327 )">
    <path d="M 19.65635738831615 1.5030060120240467  C 19.885452462772054 1.670006680026717  20 1.8620574482297898  20 2.0791583166332672  C 20 2.2962591850367393  19.885452462772054 2.4883099532398116  19.65635738831615 2.655310621242485  L 6.151202749140894 12.5  L 19.65635738831615 22.344689378757515  C 19.885452462772054 22.511690046760187  20 22.703740814963258  20 22.92084168336673  C 20 23.13794255177021  19.885452462772054 23.329993319973276  19.65635738831615 23.49699398797595  L 17.938144329896907 24.749498997995993  C 17.70904925544101 24.916499665998664  17.445589919816726 25  17.147766323024054 25  C 16.84994272623139 25  16.586483390607107 24.916499665998664  16.3573883161512 24.749498997995993  L 0.3436426116838488 13.076152304609218  C 0.11454753722794968 12.909151636606545  0 12.717100868403472  0 12.5  C 0 12.282899131596526  0.11454753722794968 12.090848363393453  0.3436426116838488 11.923847695390782  L 16.3573883161512 0.25050100200400827  C 16.586483390607107 0.08350033400133516  16.84994272623139 0  17.147766323024054 0  C 17.445589919816726 0  17.70904925544101 0.08350033400133516  17.938144329896907 0.25050100200400827  L 19.65635738831615 1.5030060120240467  Z " fill-rule="nonzero" fill="#555555" stroke="none" transform="matrix(1 0 0 1 73 327 )" />
  </g>
</svg>