<?xml version="1.0" encoding="utf-8"?>
<svg version="1.1" xmlns:xlink="http://www.w3.org/1999/xlink" width="25px" height="25px" xmlns="http://www.w3.org/2000/svg">
  <g transform="matrix(1 0 0 1 -413 -386 )">
    <path d="M 15.099158653846153 12.190755208333334  C 15.289463141025642 11.984592013888888  15.384615384615385 11.740451388888888  15.384615384615385 11.458333333333334  C 15.384615384615385 11.176215277777777  15.289463141025642 10.932074652777777  15.099158653846153 10.725911458333334  C 14.908854166666668 10.51974826388889  14.683493589743593 10.416666666666666  14.423076923076922 10.416666666666666  L 10.576923076923077 10.416666666666666  C 10.31650641025641 10.416666666666666  10.091145833333334 10.51974826388889  9.900841346153847 10.725911458333334  C 9.71053685897436 10.932074652777777  9.615384615384617 11.176215277777777  9.615384615384617 11.458333333333334  C 9.615384615384617 11.740451388888888  9.71053685897436 11.984592013888888  9.900841346153847 12.190755208333334  C 10.091145833333334 12.396918402777777  10.31650641025641 12.5  10.576923076923077 12.5  L 14.423076923076922 12.5  C 14.683493589743593 12.5  14.908854166666668 12.396918402777777  15.099158653846153 12.190755208333334  Z M 23.753004807692307 7.600911458333334  C 23.943309294871796 7.807074652777776  24.03846153846154 8.051215277777777  24 8.333333333333334  L 24 23.958333333333336  C 24.03846153846154 24.240451388888886  23.943309294871796 24.484592013888886  23.753004807692307 24.690755208333336  C 23.56270032051282 24.89691840277778  23.337339743589748 25  23.076923076923077 25  L 1.9230769230769231 25  C 1.6626602564102568 25  1.4372996794871797 24.89691840277778  1.2469951923076923 24.690755208333336  C 1.0566907051282053 24.484592013888886  0.9615384615384616 24.240451388888886  1 23.958333333333336  L 1 8.333333333333334  C 0.9615384615384616 8.051215277777777  1.0566907051282053 7.807074652777776  1.2469951923076923 7.600911458333334  C 1.4372996794871797 7.394748263888887  1.6626602564102568 7.291666666666666  1.9230769230769231 7.291666666666666  L 23.076923076923077 7.291666666666666  C 23.337339743589748 7.291666666666666  23.56270032051282 7.394748263888887  23.753004807692307 7.600911458333334  Z M 24.714543269230766 0.30924479166666574  C 24.904847756410263 0.5154079861111077  25.000000000000007 0.7595486111111077  25 1.0416666666666656  L 25 5.208333333333334  C 25.000000000000007 5.490451388888887  24.904847756410263 5.734592013888887  24.714543269230766 5.940755208333334  C 24.524238782051285 6.146918402777776  24.298878205128208 6.25  24.03846153846154 6.25  L 0.9615384615384616 6.25  C 0.7011217948717952 6.25  0.47576121794871823 6.146918402777776  0.2854567307692307 5.940755208333334  C 0.09515224358974372 5.734592013888887  0 5.490451388888887  0 5.208333333333334  L 0 1.0416666666666656  C 0 0.7595486111111077  0.09515224358974372 0.5154079861111077  0.2854567307692307 0.30924479166666574  C 0.47576121794871823 0.10308159722222099  0.7011217948717952 0  0.9615384615384616 0  L 24.03846153846154 0  C 24.298878205128208 0  24.524238782051285 0.10308159722222099  24.714543269230766 0.30924479166666574  Z " fill-rule="nonzero" fill="#02a7f0" stroke="none" fill-opacity="0.8745098039215686" transform="matrix(1 0 0 1 413 386 )" />
  </g>
</svg>