<?xml version="1.0" encoding="utf-8"?>
<svg version="1.1" xmlns:xlink="http://www.w3.org/1999/xlink" width="30px" height="30px" xmlns="http://www.w3.org/2000/svg">
  <defs>
    <mask fill="white" id="clip950">
      <path d="M 24.714356681569804 26.56718813200326  C 24.714356681569804 26.56718813200326  30.052092523784882 21.208538070674138  29.79889741034971 14.92547831879697  C 29.448917884904176 6.240704586496864  23.13566531598431 -0.041790374158320986  14.750481432173352 0.00020932750682689516  C 6.448730138383475 0.041791132088423666  0.020858062810557243 6.546798210221947  5.388920834370481E-05 14.92547831879697  C -0.020855609389053953 23.3465770525435  6.048918512044796 27.345588235294123  7.948335817193407 28.374999999999996  C 9.847753122342134 29.40441176470588  13.288623944361646 30  13.288623944361646 30  L 29.79889741034971 30  L 29.79889741034971 26.56718813200326  L 24.714356681569804 26.56718813200326  Z " fill-rule="evenodd" />
    </mask>
  </defs>
  <g transform="matrix(1 0 0 1 -31 -243 )">
    <path d="M 24.714356681569804 26.56718813200326  C 24.714356681569804 26.56718813200326  30.052092523784882 21.208538070674138  29.79889741034971 14.92547831879697  C 29.448917884904176 6.240704586496864  23.13566531598431 -0.041790374158320986  14.750481432173352 0.00020932750682689516  C 6.448730138383475 0.041791132088423666  0.020858062810557243 6.546798210221947  5.388920834370481E-05 14.92547831879697  C -0.020855609389053953 23.3465770525435  6.048918512044796 27.345588235294123  7.948335817193407 28.374999999999996  C 9.847753122342134 29.40441176470588  13.288623944361646 30  13.288623944361646 30  L 29.79889741034971 30  L 29.79889741034971 26.56718813200326  L 24.714356681569804 26.56718813200326  Z " fill-rule="nonzero" fill="#ffffff" stroke="none" fill-opacity="0.27450980392156865" transform="matrix(1 0 0 1 31 243 )" />
    <path d="M 24.714356681569804 26.56718813200326  C 24.714356681569804 26.56718813200326  30.052092523784882 21.208538070674138  29.79889741034971 14.92547831879697  C 29.448917884904176 6.240704586496864  23.13566531598431 -0.041790374158320986  14.750481432173352 0.00020932750682689516  C 6.448730138383475 0.041791132088423666  0.020858062810557243 6.546798210221947  5.388920834370481E-05 14.92547831879697  C -0.020855609389053953 23.3465770525435  6.048918512044796 27.345588235294123  7.948335817193407 28.374999999999996  C 9.847753122342134 29.40441176470588  13.288623944361646 30  13.288623944361646 30  L 29.79889741034971 30  L 29.79889741034971 26.56718813200326  L 24.714356681569804 26.56718813200326  Z " stroke-width="8" stroke="#0096ff" fill="none" stroke-opacity="0.996078431372549" transform="matrix(1 0 0 1 31 243 )" mask="url(#clip950)" />
  </g>
</svg>