<?xml version="1.0" encoding="utf-8"?>
<svg version="1.1" xmlns:xlink="http://www.w3.org/1999/xlink" width="38px" height="50px" xmlns="http://www.w3.org/2000/svg">
  <g transform="matrix(1 0 0 1 -468 -61 )">
    <path d="M 31.666666666666668 14.285714285714285  C 31.666666666666668 17.020089285714285  31.015190972222225 19.549851190476186  29.712239583333332 21.875  C 30.48741319444445 22.135416666666664  31.225477430555557 22.488839285714285  31.926432291666668 22.935267857142854  C 32.62738715277778 23.38169642857143  33.361328125 24.06063988095238  34.12825520833333 24.972098214285715  C 34.89518229166667 25.883556547619047  35.55078125 26.957775297619047  36.09505208333333 28.194754464285715  C 36.63932291666667 29.43173363095238  37.09288194444445 31.031436011904756  37.45572916666667 32.99386160714286  C 37.818576388888886 34.956287202380956  38 37.155877976190474  38 39.59263392857143  C 38 42.457217261904766  37.17534722222222 44.907924107142854  35.52604166666667 46.944754464285715  C 33.876736111111114 48.98158482142857  31.889322916666668 50  29.563802083333332 50  L 8.436197916666668 50  C 6.110677083333333 50  4.123263888888889 48.98158482142857  2.4739583333333335 46.944754464285715  C 0.8246527777777776 44.907924107142854  0 42.457217261904766  0 39.59263392857143  C 0 37.155877976190474  0.1814236111111111 34.956287202380956  0.5442708333333333 32.99386160714286  C 0.9071180555555556 31.031436011904756  1.3606770833333333 29.43173363095238  1.9049479166666667 28.194754464285715  C 2.44921875 26.957775297619047  3.1048177083333335 25.883556547619047  3.8717447916666665 24.972098214285715  C 4.638671875 24.06063988095238  5.372612847222223 23.38169642857143  6.073567708333333 22.935267857142854  C 6.774522569444445 22.488839285714285  7.512586805555556 22.135416666666664  8.287760416666668 21.875  C 6.9848090277777795 19.549851190476186  6.333333333333333 17.020089285714285  6.333333333333333 14.285714285714285  C 6.333333333333333 12.351190476190471  6.667317708333333 10.50502232142857  7.335286458333333 8.74720982142857  C 8.003255208333332 6.989397321428569  8.90625 5.46875  10.044270833333334 4.185267857142855  C 11.182291666666666 2.9017857142857153  12.530598958333334 1.883370535714285  14.089192708333334 1.1300223214285698  C 15.647786458333334 0.37667410714285476  17.284722222222225 0  19 0  C 20.71527777777778 0  22.352213541666668 0.37667410714285476  23.910807291666668 1.1300223214285698  C 25.469401041666668 1.883370535714285  26.817708333333332 2.9017857142857153  27.955729166666668 4.185267857142855  C 29.09375 5.46875  29.996744791666668 6.989397321428569  30.664713541666668 8.74720982142857  C 31.332682291666668 10.50502232142857  31.666666666666668 12.351190476190471  31.666666666666668 14.285714285714285  Z M 25.716796875 6.710379464285715  C 23.861328125000004 4.617745535714285  21.622395833333336 3.57142857142857  19 3.57142857142857  C 16.377604166666664 3.57142857142857  14.138671875 4.617745535714285  12.283203125 6.710379464285715  C 10.427734375 8.803013392857146  9.5 11.328125  9.5 14.285714285714285  C 9.5 17.24330357142857  10.427734375 19.76841517857143  12.283203125 21.861049107142854  C 14.138671875 23.953683035714285  16.377604166666664 25  19 25  C 21.622395833333336 25  23.861328125000004 23.953683035714285  25.716796875 21.861049107142854  C 27.572265625 19.76841517857143  28.5 17.24330357142857  28.5 14.285714285714285  C 28.5 11.328125  27.572265625 8.803013392857146  25.716796875 6.710379464285715  Z M 8.436197916666668 46  L 29.563802083333332 46  C 31.015190972222225 46.42857142857143  32.25629340277778 45.76357886904762  33.287109375 44.43359375  C 34.31792534722222 43.10360863095238  34.83333333333333 41.48995535714286  34.83333333333333 39.59263392857143  C 34.83333333333333 35.1469494047619  34.18598090277778 31.640625  32.89127604166667 29.073660714285715  C 31.596571180555557 26.50669642857143  29.736979166666668 25.158110119047617  27.3125 25.027901785714285  C 24.921006944444443 27.390252976190478  22.15017361111111 28.57142857142857  19 28.57142857142857  C 15.84982638888889 28.57142857142857  13.078993055555559 27.390252976190478  10.6875 25.027901785714285  C 8.263020833333332 25.158110119047617  6.403428819444445 26.50669642857143  5.108723958333333 29.073660714285715  C 3.8140190972222223 31.640625  3.1666666666666665 35.1469494047619  3.1666666666666665 39.59263392857143  C 3.1666666666666665 41.48995535714286  3.682074652777778 43.10360863095238  4.712890625 44.43359375  C 5.743706597222223 45.76357886904762  6.9848090277777795 46.42857142857143  8.436197916666668 46  Z " fill-rule="nonzero" fill="#ffffff" stroke="none" transform="matrix(1 0 0 1 468 61 )" />
  </g>
</svg>