<?xml version="1.0" encoding="utf-8"?>
<svg version="1.1" xmlns:xlink="http://www.w3.org/1999/xlink" width="23px" height="30px" xmlns="http://www.w3.org/2000/svg">
  <g transform="matrix(1 0 0 1 -31 -291 )">
    <path d="M 17.309895833333332 1.138392857142858  L 21.981770833333332 6.361607142857142  C 22.261284722222225 6.674107142857141  22.500868055555557 7.098214285714287  22.700520833333332 7.633928571428571  C 22.90017361111111 8.169642857142858  23 8.660714285714285  23 9.107142857142858  L 23 28.392857142857142  C 23 28.839285714285715  22.860243055555554 29.218749999999996  22.580729166666668 29.53125  C 22.301215277777782 29.843750000000004  21.961805555555557 30  21.5625 30  L 1.4375 30  C 1.0381944444444446 30  0.6987847222222223 29.843750000000004  0.41927083333333337 29.53125  C 0.13975694444444442 29.218749999999996  0 28.839285714285715  0 28.392857142857142  L 0 1.607142857142858  C 0 1.160714285714285  0.13975694444444442 0.7812499999999989  0.41927083333333337 0.46875  C 0.6987847222222223 0.1562500000000011  1.0381944444444446 0  1.4375 0  L 14.854166666666668 0  C 15.253472222222225 0  15.692708333333332 0.11160714285714413  16.171875 0.33482142857142905  C 16.651041666666668 0.558035714285714  17.030381944444446 0.8258928571428559  17.309895833333332 1.138392857142858  Z M 15.947265625 2.6450892857142874  C 15.827473958333332 2.5111607142857126  15.622829861111114 2.3883928571428537  15.333333333333332 2.2767857142857126  L 15.333333333333332 8.571428571428571  L 20.963541666666668 8.571428571428571  C 20.863715277777782 8.247767857142854  20.75390625 8.018973214285714  20.634114583333332 7.885044642857142  L 15.947265625 2.6450892857142874  Z M 2 27.857142857142858  L 21 27.857142857142858  L 21 10.714285714285714  L 14.854166666666668 10.714285714285714  C 14.45486111111111 10.714285714285714  14.11545138888889 10.558035714285712  13.8359375 10.245535714285714  C 13.55642361111111 9.933035714285714  13.416666666666668 9.553571428571425  13.416666666666668 9.107142857142858  L 13.416666666666668 2.142857142857142  L 2 2.142857142857142  L 2 27.857142857142858  Z M 7.442057291666666 23.939732142857142  L 6.423828125 23.939732142857142  L 6.423828125 25.714285714285715  L 10.631510416666666 25.714285714285715  L 10.631510416666666 23.939732142857142  L 9.508463541666666 23.939732142857142  L 11.05078125 21.244419642857142  C 11.100694444444445 21.16629464285714  11.150607638888891 21.074218749999996  11.200520833333334 20.968191964285715  C 11.250434027777779 20.862165178571427  11.287868923611112 20.786830357142854  11.312825520833334 20.7421875  C 11.337782118055557 20.69754464285714  11.355251736111112 20.675223214285715  11.365234375 20.675223214285715  L 11.395182291666666 20.675223214285715  C 11.405164930555557 20.71986607142857  11.430121527777779 20.775669642857142  11.470052083333334 20.84263392857143  C 11.490017361111109 20.88727678571428  11.51247829861111 20.92912946428571  11.537434895833332 20.968191964285715  C 11.562391493055557 21.007254464285715  11.592339409722225 21.05189732142857  11.627278645833332 21.102120535714285  C 11.662217881944446 21.15234375  11.694661458333336 21.199776785714285  11.724609375 21.244419642857142  L 13.326822916666668 23.939732142857142  L 12.188802083333332 23.939732142857142  L 12.188802083333332 25.714285714285715  L 16.546223958333332 25.714285714285715  L 16.546223958333332 23.939732142857142  L 15.527994791666668 23.939732142857142  L 12.652994791666668 19.369419642857142  L 15.572916666666668 14.6484375  L 16.576171875 14.6484375  L 16.576171875 12.857142857142858  L 12.3984375 12.857142857142858  L 12.3984375 14.6484375  L 13.506510416666668 14.6484375  L 11.964192708333332 17.310267857142858  C 11.92426215277778 17.388392857142858  11.874348958333336 17.48046875  11.814453125 17.586495535714285  C 11.754557291666668 17.692522321428573  11.709635416666668 17.76785714285714  11.6796875 17.8125  L 11.649739583333332 17.862723214285715  L 11.619791666666668 17.862723214285715  C 11.609809027777779 17.818080357142854  11.584852430555557 17.762276785714285  11.544921875 17.6953125  C 11.485026041666666 17.572544642857146  11.400173611111112 17.44419642857143  11.290364583333334 17.310267857142858  L 9.703125 14.6484375  L 10.841145833333334 14.6484375  L 10.841145833333334 12.857142857142858  L 6.498697916666666 12.857142857142858  L 6.498697916666666 14.6484375  L 7.516927083333334 14.6484375  L 10.347005208333334 19.20200892857143  L 7.442057291666666 23.939732142857142  Z " fill-rule="nonzero" fill="#f59a23" stroke="none" transform="matrix(1 0 0 1 31 291 )" />
  </g>
</svg>