<?xml version="1.0" encoding="utf-8"?>
<svg version="1.1" xmlns:xlink="http://www.w3.org/1999/xlink" width="40px" height="40px" xmlns="http://www.w3.org/2000/svg">
  <g transform="matrix(1 0 0 1 -285 -358 )">
    <path d="M 305 358  C 316.2 358  325 366.8  325 378  C 325 389.2  316.2 398  305 398  C 293.8 398  285 389.2  285 378  C 285 366.8  293.8 358  305 358  Z " fill-rule="nonzero" fill="#ffffff" stroke="none" />
    <path d="M 305 358.5  C 315.92 358.5  324.5 367.08  324.5 378  C 324.5 388.92  315.92 397.5  305 397.5  C 294.08 397.5  285.5 388.92  285.5 378  C 285.5 367.08  294.08 358.5  305 358.5  Z " stroke-width="1" stroke="#797979" fill="none" />
  </g>
</svg>