<?xml version="1.0" encoding="utf-8"?>
<svg version="1.1" xmlns:xlink="http://www.w3.org/1999/xlink" width="13px" height="13px" viewBox="223 779  13 13" xmlns="http://www.w3.org/2000/svg">
  <path d="M 229.5 779  C 233.14 779  236 781.86  236 785.5  C 236 789.14  233.14 792  229.5 792  C 225.86 792  223 789.14  223 785.5  C 223 781.86  225.86 779  229.5 779  Z " fill-rule="nonzero" fill="#ffffff" stroke="none" />
  <path d="M 229.5 779.5  C 232.86 779.5  235.5 782.14  235.5 785.5  C 235.5 788.86  232.86 791.5  229.5 791.5  C 226.14 791.5  223.5 788.86  223.5 785.5  C 223.5 782.14  226.14 779.5  229.5 779.5  Z " stroke-width="1" stroke="#797979" fill="none" />
  <path d="M 229.5 788.75  C 227.68 788.75  226.25 787.32  226.25 785.5  C 226.25 783.68  227.68 782.25  229.5 782.25  C 231.32 782.25  232.75 783.68  232.75 785.5  C 232.75 787.32  231.32 788.75  229.5 788.75  " fill-rule="nonzero" fill="#797979" stroke="none" />
</svg>