<?xml version="1.0" encoding="utf-8"?>
<svg version="1.1" xmlns:xlink="http://www.w3.org/1999/xlink" width="13px" height="13px" viewBox="91 779  13 13" xmlns="http://www.w3.org/2000/svg">
  <path d="M 97.5 779  C 101.14 779  104 781.86  104 785.5  C 104 789.14  101.14 792  97.5 792  C 93.86 792  91 789.14  91 785.5  C 91 781.86  93.86 779  97.5 779  Z " fill-rule="nonzero" fill="#ffffff" stroke="none" />
  <path d="M 97.5 779.5  C 100.86 779.5  103.5 782.14  103.5 785.5  C 103.5 788.86  100.86 791.5  97.5 791.5  C 94.14 791.5  91.5 788.86  91.5 785.5  C 91.5 782.14  94.14 779.5  97.5 779.5  Z " stroke-width="1" stroke="#797979" fill="none" />
  <path d="M 97.5 788.75  C 95.68 788.75  94.25 787.32  94.25 785.5  C 94.25 783.68  95.68 782.25  97.5 782.25  C 99.32 782.25  100.75 783.68  100.75 785.5  C 100.75 787.32  99.32 788.75  97.5 788.75  " fill-rule="nonzero" fill="#797979" stroke="none" />
</svg>