<?xml version="1.0" encoding="utf-8"?>
<svg version="1.1" xmlns:xlink="http://www.w3.org/1999/xlink" width="29px" height="35px" xmlns="http://www.w3.org/2000/svg">
  <g transform="matrix(1 0 0 1 -92 -303 )">
    <path d="M 28.501718213058417 2.1042084168336657  C 28.833906071019477 2.338009352037404  29 2.6068804275217055  29 2.910821643286574  C 29 3.2147628590514348  28.833906071019477 3.4836339345357366  28.501718213058417 3.7174348697394786  L 8.919243986254296 17.5  L 28.501718213058417 31.282565130260522  C 28.833906071019477 31.516366065464265  29 31.78523714094856  29 32.089178356713425  C 29 32.39311957247829  28.833906071019477 32.66199064796259  28.501718213058417 32.895791583166336  L 26.010309278350515 34.64929859719439  C 25.678121420389463 34.883099532398134  25.296105383734254 35  24.86426116838488 35  C 24.432416953035514 35  24.0504009163803 34.883099532398134  23.718213058419245 34.64929859719439  L 0.4982817869415808 18.306613226452903  C 0.16609392898052702 18.07281229124916  0 17.803941215764862  0 17.5  C 0 17.196058784235134  0.16609392898052702 16.927187708750832  0.4982817869415808 16.693386773547097  L 23.718213058419245 0.3507014028056116  C 24.0504009163803 0.11690046760186923  24.432416953035514 0  24.86426116838488 0  C 25.296105383734254 0  25.678121420389463 0.11690046760186923  26.010309278350515 0.3507014028056116  L 28.501718213058417 2.1042084168336657  Z " fill-rule="nonzero" fill="#000000" stroke="none" transform="matrix(1 0 0 1 92 303 )" />
  </g>
</svg>