<?xml version="1.0" encoding="utf-8"?>
<svg version="1.1" xmlns:xlink="http://www.w3.org/1999/xlink" width="137px" height="46px" xmlns="http://www.w3.org/2000/svg">
  <defs>
    <linearGradient gradientUnits="userSpaceOnUse" x1="502.5" y1="408" x2="502.5" y2="454" id="LinearGradient630">
      <stop id="Stop631" stop-color="#ff7523" offset="0" />
      <stop id="Stop632" stop-color="#f0eb02" stop-opacity="0.8745098039215686" offset="1" />
    </linearGradient>
  </defs>
  <g transform="matrix(1 0 0 1 -434 -408 )">
    <path d="M 434.5 431  A 22.5 22.5 0 0 1 457 408.5 L 548 408.5  A 22.5 22.5 0 0 1 570.5 431 A 22.5 22.5 0 0 1 548 453.5 L 457 453.5  A 22.5 22.5 0 0 1 434.5 431 Z " fill-rule="nonzero" fill="url(#LinearGradient630)" stroke="none" />
    <path d="M 434.5 431  A 22.5 22.5 0 0 1 457 408.5 L 548 408.5  A 22.5 22.5 0 0 1 570.5 431 A 22.5 22.5 0 0 1 548 453.5 L 457 453.5  A 22.5 22.5 0 0 1 434.5 431 Z " stroke-width="1" stroke="#d7d7d7" fill="none" />
  </g>
</svg>