<?xml version="1.0" encoding="utf-8"?>
<svg version="1.1" xmlns:xlink="http://www.w3.org/1999/xlink" width="30px" height="30px" xmlns="http://www.w3.org/2000/svg">
  <g transform="matrix(1 0 0 1 -455 -174 )">
    <path d="M 10.717329545454545 11.42578125  C 10.845170454545455 11.54296875  10.90909090909091 11.692708333333332  11 11.875000000000002  L 11 23.125  C 10.90909090909091 23.307291666666668  10.845170454545455 23.45703125  10.717329545454545 23.57421875  C 10.589488636363637 23.69140625  10.426136363636365 23.75  10.227272727272727 23.75  L 8.863636363636363 23.75  C 8.664772727272728 23.75  8.501420454545457 23.69140625  8.373579545454545 23.57421875  C 8.245738636363637 23.45703125  8.181818181818182 23.307291666666668  8.181818181818182 23.125  L 8.181818181818182 11.875000000000002  C 8.181818181818182 11.692708333333332  8.245738636363637 11.54296875  8.373579545454545 11.42578125  C 8.501420454545457 11.30859375  8.664772727272728 11.25  8.863636363636363 11.25  L 10.227272727272727 11.25  C 10.426136363636365 11.25  10.589488636363637 11.30859375  10.717329545454545 11.42578125  Z M 16.171875 11.42578125  C 16.29971590909091 11.54296875  16.363636363636363 11.692708333333332  16 11.875000000000002  L 16 23.125  C 16.363636363636363 23.307291666666668  16.29971590909091 23.45703125  16.171875 23.57421875  C 16.04403409090909 23.69140625  15.88068181818182 23.75  15.681818181818182 23.75  L 14.318181818181818 23.75  C 14.119318181818183 23.75  13.95596590909091 23.69140625  13.828125 23.57421875  C 13.70028409090909 23.45703125  13.636363636363637 23.307291666666668  14 23.125  L 14 11.875000000000002  C 13.636363636363637 11.692708333333332  13.70028409090909 11.54296875  13.828125 11.42578125  C 13.95596590909091 11.30859375  14.119318181818183 11.25  14.318181818181818 11.25  L 15.681818181818182 11.25  C 15.88068181818182 11.25  16.04403409090909 11.30859375  16.171875 11.42578125  Z M 21.626420454545453 11.42578125  C 21.754261363636363 11.54296875  21.81818181818182 11.692708333333332  21.81818181818182 11.875000000000002  L 21.81818181818182 23.125  C 21.81818181818182 23.307291666666668  21.754261363636363 23.45703125  21.626420454545453 23.57421875  C 21.498579545454547 23.69140625  21.335227272727273 23.75  21.136363636363637 23.75  L 19.772727272727273 23.75  C 19.573863636363637 23.75  19.410511363636363 23.69140625  19.282670454545453 23.57421875  C 19.154829545454547 23.45703125  19.09090909090909 23.307291666666668  19 23.125  L 19 11.875000000000002  C 19.09090909090909 11.692708333333332  19.154829545454547 11.54296875  19.282670454545453 11.42578125  C 19.410511363636363 11.30859375  19.573863636363637 11.25  19.772727272727273 11.25  L 21.136363636363637 11.25  C 21.335227272727273 11.25  21.498579545454547 11.30859375  21.626420454545453 11.42578125  Z M 24.39630681818182 26.806640625  C 24.495738636363637 26.565755208333336  24.545454545454547 26.302083333333336  24 26.015625  L 24 8  L 6 8  L 6 26.015625  C 5.454545454545455 26.302083333333336  5.504261363636364 26.565755208333336  5.603693181818182 26.806640625  C 5.703125000000001 27.047526041666664  5.806107954545455 27.223307291666664  5.912642045454545 27.333984375  C 6.019176136363637 27.444661458333336  6.09375 27.5  6.136363636363637 27  L 23.863636363636363 27  C 23.90625 27.5  23.980823863636363 27.444661458333336  24.087357954545453 27.333984375  C 24.193892045454547 27.223307291666664  24.296875000000004 27.047526041666664  24.39630681818182 26.806640625  Z M 11.271306818181818 2.714843749999999  L 10.227272727272727 4.999999999999999  L 19.772727272727273 4.999999999999999  L 18.75 2.714843749999999  C 18.650568181818187 2.597656249999999  18.529829545454547 2.526041666666665  18.38778409090909 2.500000000000001  L 11.633522727272727 2.500000000000001  C 11.491477272727273 2.526041666666665  11.370738636363638 2.597656249999999  11.271306818181818 2.714843749999999  Z M 29.808238636363637 5.175781249999999  C 29.936079545454547 5.292968749999999  30 5.442708333333331  30 5.625  L 30 6.874999999999999  C 30 7.057291666666664  29.936079545454547 7.20703125  29.808238636363637 7.32421875  C 29.680397727272727 7.44140625  29.517045454545457 7.5  29.31818181818182 7.5  L 27 7.5  L 27 26.015625  C 27.272727272727273 27.096354166666664  26.938920454545457 28.030598958333336  26.27130681818182 28.818359375  C 25.603693181818183 29.606119791666668  24.801136363636363 30  23.863636363636363 30  L 6.136363636363637 30  C 5.198863636363637 30  4.396306818181819 29.619140625  3.7286931818181817 28.857421875  C 3.061079545454546 28.095703125  2.7272727272727275 27.174479166666668  3 26.09375  L 3 7.5  L 0.6818181818181819 7.5  C 0.4829545454545454 7.5  0.31960227272727276 7.44140625  0.19176136363636365 7.32421875  C 0.06392045454545454 7.20703125  0 7.057291666666664  0 6.874999999999999  L 0 5.625  C 0 5.442708333333331  0.06392045454545454 5.292968749999999  0.19176136363636365 5.175781249999999  C 0.31960227272727276 5.058593749999999  0.4829545454545454 4.999999999999999  0.6818181818181819 4.999999999999999  L 7.265625 4.999999999999999  L 8.757102272727273 1.738281250000001  C 8.970170454545457 1.256510416666664  9.353693181818183 0.8463541666666641  9.907670454545455 0.5078125000000011  C 10.461647727272728 0.16927083333333148  11.022727272727273 0  11.59090909090909 0  L 18.40909090909091 0  C 18.97727272727273 0  19.538352272727273 0.16927083333333148  20.092329545454547 0.5078125000000011  C 20.64630681818182 0.8463541666666641  21.029829545454547 1.256510416666664  21.242897727272727 1.738281250000001  L 22.734375 4.999999999999999  L 29.31818181818182 4.999999999999999  C 29.517045454545457 4.999999999999999  29.680397727272727 5.058593749999999  29.808238636363637 5.175781249999999  Z " fill-rule="nonzero" fill="#7f7f7f" stroke="none" transform="matrix(1 0 0 1 455 174 )" />
  </g>
</svg>