<?xml version="1.0" encoding="utf-8"?>
<svg version="1.1" xmlns:xlink="http://www.w3.org/1999/xlink" width="15px" height="15px" xmlns="http://www.w3.org/2000/svg">
  <g transform="matrix(1 0 0 1 -391 -457 )">
    <path d="M 12.36328125 6.357421875  C 12.48046875 6.240234375  12.5390625 6.09375  12.5390625 5.91796875  C 12.5390625 5.735677083333333  12.48046875 5.585937500000001  12.36328125 5.468750000000001  L 11.474609375 4.589843750000001  C 11.350911458333336 4.466145833333332  11.204427083333336 4.404296874999999  11.03515625 4.404296874999999  C 10.865885416666668 4.404296874999999  10.719401041666668 4.466145833333332  10.595703125 4.589843750000001  L 6.611328125 8.564453125000002  L 4.404296875 6.357421875  C 4.280598958333333 6.233723958333333  4.134114583333333 6.171875000000001  3.9648437500000004 6.171875000000001  C 3.795572916666667 6.171875000000001  3.6490885416666665 6.233723958333333  3.525390625 6.357421875  L 2.63671875 7.236328125  C 2.51953125 7.353515625  2.4609375000000004 7.503255208333332  2.4609375 7.685546875000001  C 2.4609375000000004 7.861328125000001  2.51953125 8.007812500000002  2.63671875 8.125000000000002  L 6.171875 11.66015625  C 6.295572916666668 11.783854166666664  6.442057291666668 11.845703125  6.611328125 11.845703125  C 6.787109375 11.845703125  6.936848958333334 11.783854166666664  7.060546875 11.66015625  L 12.36328125 6.357421875  Z M 13.994140625 3.7353515625  C 14.664713541666664 4.884440104166665  15 6.139322916666664  15 7.5  C 15 8.860677083333334  14.664713541666664 10.115559895833332  13.994140625 11.2646484375  C 13.323567708333336 12.413736979166666  12.413736979166666 13.323567708333334  11.2646484375 13.994140625  C 10.115559895833336 14.664713541666668  8.860677083333334 15  7.5 15  C 6.139322916666667 15  4.884440104166667 14.664713541666668  3.7353515625 13.994140625  C 2.5862630208333335 13.323567708333334  1.676432291666667 12.413736979166666  1.005859375 11.2646484375  C 0.33528645833333326 10.115559895833332  0 8.860677083333334  0 7.5  C 0 6.139322916666664  0.33528645833333326 4.884440104166665  1.005859375 3.7353515625  C 1.676432291666667 2.586263020833333  2.5862630208333335 1.6764322916666652  3.7353515625 1.0058593749999996  C 4.884440104166667 0.33528645833333204  6.139322916666667 0  7.5 0  C 8.860677083333334 0  10.115559895833336 0.33528645833333204  11.2646484375 1.0058593749999996  C 12.413736979166666 1.6764322916666652  13.323567708333336 2.586263020833333  13.994140625 3.7353515625  Z " fill-rule="nonzero" fill="#1f9900" stroke="none" transform="matrix(1 0 0 1 391 457 )" />
  </g>
</svg>