<?xml version="1.0" encoding="utf-8"?>
<svg version="1.1" xmlns:xlink="http://www.w3.org/1999/xlink" width="59px" height="70px" xmlns="http://www.w3.org/2000/svg">
  <defs>
    <mask fill="white" id="clip72">
      <path d="M 2.681818181818182 0  L 56.31818181818182 0  C 57.04450757575758 0  57.67305871212122 0.24739583333333925  58.20383522727273 0.7421875000000022  C 58.73461174242425 1.2369791666666574  59 1.822916666666664  59 2.499999999999999  L 59 67.5  C 59 68.17708333333333  58.73461174242425 68.76302083333333  58.20383522727273 69.2578125  C 57.67305871212122 69.75260416666667  57.04450757575758 70  56.31818181818182 70  L 2.681818181818182 70  C 1.9554924242424245 70  1.3269412878787878 69.75260416666667  0.7961647727272727 69.2578125  C 0.26538825757575757 68.76302083333333  0 68.17708333333333  0 67.5  L 0 2.499999999999999  C 0 1.822916666666664  0.26538825757575757 1.2369791666666574  0.7961647727272727 0.7421875000000022  C 1.3269412878787878 0.24739583333333925  1.9554924242424245 0  2.681818181818182 0  Z M 21.831676136363637 10.351562500000002  C 21.580255681818183 10.585937500000002  21.454545454545457 10.885416666666663  21.454545454545457 11.249999999999998  L 21.454545454545457 13.749999999999998  C 21.454545454545457 14.114583333333334  21.580255681818183 14.414062500000002  21.831676136363637 14.648437500000004  C 22.08309659090909 14.882812499999996  22.404356060606066 15.000000000000002  22.795454545454543 15.000000000000002  L 25.477272727272727 15.000000000000002  C 25.868371212121215 15.000000000000002  26.189630681818183 14.882812499999996  26.441051136363637 14.648437500000004  C 26.69247159090909 14.414062500000002  26.818181818181817 14.114583333333334  26.818181818181817 13.749999999999998  L 26.818181818181817 11.249999999999998  C 26.818181818181817 10.885416666666663  26.69247159090909 10.585937500000002  26.441051136363637 10.351562500000002  C 26.189630681818183 10.1171875  25.868371212121215 10.000000000000004  25.477272727272727 10.000000000000004  L 22.795454545454543 10.000000000000004  C 22.404356060606066 10.000000000000004  22.08309659090909 10.1171875  21.831676136363637 10.351562500000002  Z M 21.831676136363637 20.351562499999996  C 21.580255681818183 20.585937499999996  21.454545454545457 20.885416666666657  21.454545454545457 21.250000000000004  L 21.454545454545457 23.75  C 21.454545454545457 24.11458333333333  21.580255681818183 24.414062499999996  21.831676136363637 24.6484375  C 22.08309659090909 24.8828125  22.404356060606066 24.999999999999996  22.795454545454543 24.999999999999996  L 25.477272727272727 24.999999999999996  C 25.868371212121215 24.999999999999996  26.189630681818183 24.8828125  26.441051136363637 24.6484375  C 26.69247159090909 24.414062499999996  26.818181818181817 24.11458333333333  26.818181818181817 23.75  L 26.818181818181817 21.250000000000004  C 26.818181818181817 20.885416666666657  26.69247159090909 20.585937499999996  26.441051136363637 20.351562499999996  C 26.189630681818183 20.117187500000004  25.868371212121215 20  25.477272727272727 20  L 22.795454545454543 20  C 22.404356060606066 20  22.08309659090909 20.117187500000004  21.831676136363637 20.351562499999996  Z M 21.831676136363637 30.3515625  C 21.580255681818183 30.5859375  21.454545454545457 30.88541666666666  21.454545454545457 31.249999999999996  L 21.454545454545457 33.75  C 21.454545454545457 34.114583333333336  21.580255681818183 34.4140625  21.831676136363637 34.6484375  C 22.08309659090909 34.8828125  22.404356060606066 35  22.795454545454543 35  L 25.477272727272727 35  C 25.868371212121215 35  26.189630681818183 34.8828125  26.441051136363637 34.6484375  C 26.69247159090909 34.4140625  26.818181818181817 34.114583333333336  26.818181818181817 33.75  L 26.818181818181817 31.249999999999996  C 26.818181818181817 30.88541666666666  26.69247159090909 30.5859375  26.441051136363637 30.3515625  C 26.189630681818183 30.1171875  25.868371212121215 30.000000000000004  25.477272727272727 30.000000000000004  L 22.795454545454543 30.000000000000004  C 22.404356060606066 30.000000000000004  22.08309659090909 30.1171875  21.831676136363637 30.3515625  Z M 21.831676136363637 40.35156249999999  C 21.580255681818183 40.58593750000001  21.454545454545457 40.885416666666664  21.454545454545457 41.25  L 21.454545454545457 43.75  C 21.454545454545457 44.11458333333333  21.580255681818183 44.41406250000001  21.831676136363637 44.6484375  C 22.08309659090909 44.8828125  22.404356060606066 44.99999999999999  22.795454545454543 44.99999999999999  L 25.477272727272727 44.99999999999999  C 25.868371212121215 44.99999999999999  26.189630681818183 44.8828125  26.441051136363637 44.6484375  C 26.69247159090909 44.41406250000001  26.818181818181817 44.11458333333333  26.818181818181817 43.75  L 26.818181818181817 41.25  C 26.818181818181817 40.885416666666664  26.69247159090909 40.58593750000001  26.441051136363637 40.35156249999999  C 26.189630681818183 40.1171875  25.868371212121215 40  25.477272727272727 40  L 22.795454545454543 40  C 22.404356060606066 40  22.08309659090909 40.1171875  21.831676136363637 40.35156249999999  Z M 15.71377840909091 54.6484375  C 15.965198863636362 54.4140625  16.09090909090909 54.11458333333333  16.09090909090909 53.74999999999999  L 16.09090909090909 51.25000000000001  C 16.09090909090909 50.88541666666667  15.965198863636362 50.5859375  15.71377840909091 50.3515625  C 15.462357954545455 50.1171875  15.141098484848486 50  14.75 50  L 12.068181818181818 50  C 11.677083333333334 50  11.355823863636363 50.1171875  11.104403409090908 50.3515625  C 10.852982954545455 50.5859375  10.727272727272728 50.88541666666667  10.727272727272728 51.25000000000001  L 10.727272727272728 53.74999999999999  C 10.727272727272728 54.11458333333333  10.852982954545455 54.4140625  11.104403409090908 54.6484375  C 11.355823863636363 54.8828125  11.677083333333334 55  12.068181818181818 55  L 14.75 55  C 15.141098484848486 55  15.462357954545455 54.8828125  15.71377840909091 54.6484375  Z M 15.71377840909091 44.6484375  C 15.965198863636362 44.41406250000001  16.09090909090909 44.11458333333333  16.09090909090909 43.75  L 16.09090909090909 41.25  C 16.09090909090909 40.885416666666664  15.965198863636362 40.58593750000001  15.71377840909091 40.35156249999999  C 15.462357954545455 40.1171875  15.141098484848486 40  14.75 40  L 12.068181818181818 40  C 11.677083333333334 40  11.355823863636363 40.1171875  11.104403409090908 40.35156249999999  C 10.852982954545455 40.58593750000001  10.727272727272728 40.885416666666664  10.727272727272728 41.25  L 10.727272727272728 43.75  C 10.727272727272728 44.11458333333333  10.852982954545455 44.41406250000001  11.104403409090908 44.6484375  C 11.355823863636363 44.8828125  11.677083333333334 44.99999999999999  12.068181818181818 44.99999999999999  L 14.75 44.99999999999999  C 15.141098484848486 44.99999999999999  15.462357954545455 44.8828125  15.71377840909091 44.6484375  Z M 15.71377840909091 34.6484375  C 15.965198863636362 34.4140625  16.09090909090909 34.114583333333336  16.09090909090909 33.75  L 16.09090909090909 31.249999999999996  C 16.09090909090909 30.88541666666666  15.965198863636362 30.5859375  15.71377840909091 30.3515625  C 15.462357954545455 30.1171875  15.141098484848486 30.000000000000004  14.75 30.000000000000004  L 12.068181818181818 30.000000000000004  C 11.677083333333334 30.000000000000004  11.355823863636363 30.1171875  11.104403409090908 30.3515625  C 10.852982954545455 30.5859375  10.727272727272728 30.88541666666666  10.727272727272728 31.249999999999996  L 10.727272727272728 33.75  C 10.727272727272728 34.114583333333336  10.852982954545455 34.4140625  11.104403409090908 34.6484375  C 11.355823863636363 34.8828125  11.677083333333334 35  12.068181818181818 35  L 14.75 35  C 15.141098484848486 35  15.462357954545455 34.8828125  15.71377840909091 34.6484375  Z M 15.71377840909091 24.6484375  C 15.965198863636362 24.414062499999996  16.09090909090909 24.11458333333333  16.09090909090909 23.75  L 16.09090909090909 21.250000000000004  C 16.09090909090909 20.885416666666657  15.965198863636362 20.585937499999996  15.71377840909091 20.351562499999996  C 15.462357954545455 20.117187500000004  15.141098484848486 20  14.75 20  L 12.068181818181818 20  C 11.677083333333334 20  11.355823863636363 20.117187500000004  11.104403409090908 20.351562499999996  C 10.852982954545455 20.585937499999996  10.727272727272728 20.885416666666657  10.727272727272728 21.250000000000004  L 10.727272727272728 23.75  C 10.727272727272728 24.11458333333333  10.852982954545455 24.414062499999996  11.104403409090908 24.6484375  C 11.355823863636363 24.8828125  11.677083333333334 24.999999999999996  12.068181818181818 24.999999999999996  L 14.75 24.999999999999996  C 15.141098484848486 24.999999999999996  15.462357954545455 24.8828125  15.71377840909091 24.6484375  Z M 15.71377840909091 14.648437500000004  C 15.965198863636362 14.414062500000002  16.09090909090909 14.114583333333334  16.09090909090909 13.749999999999998  L 16.09090909090909 11.249999999999998  C 16.09090909090909 10.885416666666663  15.965198863636362 10.585937500000002  15.71377840909091 10.351562500000002  C 15.462357954545455 10.1171875  15.141098484848486 10.000000000000004  14.75 10.000000000000004  L 12.068181818181818 10.000000000000004  C 11.677083333333334 10.000000000000004  11.355823863636363 10.1171875  11.104403409090908 10.351562500000002  C 10.852982954545455 10.585937500000002  10.727272727272728 10.885416666666663  10.727272727272728 11.249999999999998  L 10.727272727272728 13.749999999999998  C 10.727272727272728 14.114583333333334  10.852982954545455 14.414062500000002  11.104403409090908 14.648437500000004  C 11.355823863636363 14.882812499999996  11.677083333333334 15.000000000000002  12.068181818181818 15.000000000000002  L 14.75 15.000000000000002  C 15.141098484848486 15.000000000000002  15.462357954545455 14.882812499999996  15.71377840909091 14.648437500000004  Z M 37.16832386363637 64.6484375  C 37.41974431818182 64.4140625  37.54545454545455 64.11458333333333  37.54545454545455 63.75  L 37.54545454545455 56.25  C 37.54545454545455 55.88541666666667  37.41974431818182 55.5859375  37.16832386363637 55.35156250000001  C 36.916903409090914 55.11718749999999  36.59564393939394 55  36.20454545454545 55  L 22.795454545454543 55  C 22.404356060606066 55  22.08309659090909 55.11718749999999  21.831676136363637 55.35156250000001  C 21.580255681818183 55.5859375  21.454545454545457 55.88541666666667  21.454545454545457 56.25  L 21.454545454545457 63.75  C 21.454545454545457 64.11458333333333  21.580255681818183 64.4140625  21.831676136363637 64.6484375  C 22.08309659090909 64.8828125  22.404356060606066 65  22.795454545454543 65  L 36.20454545454545 65  C 36.59564393939394 65  36.916903409090914 64.8828125  37.16832386363637 64.6484375  Z M 37.16832386363637 44.6484375  C 37.41974431818182 44.41406250000001  37.54545454545455 44.11458333333333  37.54545454545455 43.75  L 37.54545454545455 41.25  C 37.54545454545455 40.885416666666664  37.41974431818182 40.58593750000001  37.16832386363637 40.35156249999999  C 36.916903409090914 40.1171875  36.59564393939394 40  36.20454545454545 40  L 33.52272727272727 40  C 33.131628787878796 40  32.81036931818182 40.1171875  32.55894886363637 40.35156249999999  C 32.307528409090914 40.58593750000001  32.18181818181818 40.885416666666664  32.18181818181818 41.25  L 32.18181818181818 43.75  C 32.18181818181818 44.11458333333333  32.307528409090914 44.41406250000001  32.55894886363637 44.6484375  C 32.81036931818182 44.8828125  33.131628787878796 44.99999999999999  33.52272727272727 44.99999999999999  L 36.20454545454545 44.99999999999999  C 36.59564393939394 44.99999999999999  36.916903409090914 44.8828125  37.16832386363637 44.6484375  Z M 37.16832386363637 34.6484375  C 37.41974431818182 34.4140625  37.54545454545455 34.114583333333336  37.54545454545455 33.75  L 37.54545454545455 31.249999999999996  C 37.54545454545455 30.88541666666666  37.41974431818182 30.5859375  37.16832386363637 30.3515625  C 36.916903409090914 30.1171875  36.59564393939394 30.000000000000004  36.20454545454545 30.000000000000004  L 33.52272727272727 30.000000000000004  C 33.131628787878796 30.000000000000004  32.81036931818182 30.1171875  32.55894886363637 30.3515625  C 32.307528409090914 30.5859375  32.18181818181818 30.88541666666666  32.18181818181818 31.249999999999996  L 32.18181818181818 33.75  C 32.18181818181818 34.114583333333336  32.307528409090914 34.4140625  32.55894886363637 34.6484375  C 32.81036931818182 34.8828125  33.131628787878796 35  33.52272727272727 35  L 36.20454545454545 35  C 36.59564393939394 35  36.916903409090914 34.8828125  37.16832386363637 34.6484375  Z M 37.16832386363637 24.6484375  C 37.41974431818182 24.414062499999996  37.54545454545455 24.11458333333333  37.54545454545455 23.75  L 37.54545454545455 21.250000000000004  C 37.54545454545455 20.885416666666657  37.41974431818182 20.585937499999996  37.16832386363637 20.351562499999996  C 36.916903409090914 20.117187500000004  36.59564393939394 20  36.20454545454545 20  L 33.52272727272727 20  C 33.131628787878796 20  32.81036931818182 20.117187500000004  32.55894886363637 20.351562499999996  C 32.307528409090914 20.585937499999996  32.18181818181818 20.885416666666657  32.18181818181818 21.250000000000004  L 32.18181818181818 23.75  C 32.18181818181818 24.11458333333333  32.307528409090914 24.414062499999996  32.55894886363637 24.6484375  C 32.81036931818182 24.8828125  33.131628787878796 24.999999999999996  33.52272727272727 24.999999999999996  L 36.20454545454545 24.999999999999996  C 36.59564393939394 24.999999999999996  36.916903409090914 24.8828125  37.16832386363637 24.6484375  Z M 37.16832386363637 14.648437500000004  C 37.41974431818182 14.414062500000002  37.54545454545455 14.114583333333334  37.54545454545455 13.749999999999998  L 37.54545454545455 11.249999999999998  C 37.54545454545455 10.885416666666663  37.41974431818182 10.585937500000002  37.16832386363637 10.351562500000002  C 36.916903409090914 10.1171875  36.59564393939394 10.000000000000004  36.20454545454545 10.000000000000004  L 33.52272727272727 10.000000000000004  C 33.131628787878796 10.000000000000004  32.81036931818182 10.1171875  32.55894886363637 10.351562500000002  C 32.307528409090914 10.585937500000002  32.18181818181818 10.885416666666663  32.18181818181818 11.249999999999998  L 32.18181818181818 13.749999999999998  C 32.18181818181818 14.114583333333334  32.307528409090914 14.414062500000002  32.55894886363637 14.648437500000004  C 32.81036931818182 14.882812499999996  33.131628787878796 15.000000000000002  33.52272727272727 15.000000000000002  L 36.20454545454545 15.000000000000002  C 36.59564393939394 15.000000000000002  36.916903409090914 14.882812499999996  37.16832386363637 14.648437500000004  Z M 47.895596590909086 54.6484375  C 48.14701704545455 54.4140625  48.27272727272727 54.11458333333333  48.27272727272727 53.74999999999999  L 48.27272727272727 51.25000000000001  C 48.27272727272727 50.88541666666667  48.14701704545455 50.5859375  47.895596590909086 50.3515625  C 47.64417613636363 50.1171875  47.32291666666668 50  46.93181818181818 50  L 44.25 50  C 43.858901515151516 50  43.53764204545455 50.1171875  43.286221590909086 50.3515625  C 43.03480113636363 50.5859375  42.909090909090914 50.88541666666667  42.909090909090914 51.25000000000001  L 42.909090909090914 53.74999999999999  C 42.909090909090914 54.11458333333333  43.03480113636363 54.4140625  43.286221590909086 54.6484375  C 43.53764204545455 54.8828125  43.858901515151516 55  44.25 55  L 46.93181818181818 55  C 47.32291666666668 55  47.64417613636363 54.8828125  47.895596590909086 54.6484375  Z M 47.895596590909086 44.6484375  C 48.14701704545455 44.41406250000001  48.27272727272727 44.11458333333333  48.27272727272727 43.75  L 48.27272727272727 41.25  C 48.27272727272727 40.885416666666664  48.14701704545455 40.58593750000001  47.895596590909086 40.35156249999999  C 47.64417613636363 40.1171875  47.32291666666668 40  46.93181818181818 40  L 44.25 40  C 43.858901515151516 40  43.53764204545455 40.1171875  43.286221590909086 40.35156249999999  C 43.03480113636363 40.58593750000001  42.909090909090914 40.885416666666664  42.909090909090914 41.25  L 42.909090909090914 43.75  C 42.909090909090914 44.11458333333333  43.03480113636363 44.41406250000001  43.286221590909086 44.6484375  C 43.53764204545455 44.8828125  43.858901515151516 44.99999999999999  44.25 44.99999999999999  L 46.93181818181818 44.99999999999999  C 47.32291666666668 44.99999999999999  47.64417613636363 44.8828125  47.895596590909086 44.6484375  Z M 47.895596590909086 34.6484375  C 48.14701704545455 34.4140625  48.27272727272727 34.114583333333336  48.27272727272727 33.75  L 48.27272727272727 31.249999999999996  C 48.27272727272727 30.88541666666666  48.14701704545455 30.5859375  47.895596590909086 30.3515625  C 47.64417613636363 30.1171875  47.32291666666668 30.000000000000004  46.93181818181818 30.000000000000004  L 44.25 30.000000000000004  C 43.858901515151516 30.000000000000004  43.53764204545455 30.1171875  43.286221590909086 30.3515625  C 43.03480113636363 30.5859375  42.909090909090914 30.88541666666666  42.909090909090914 31.249999999999996  L 42.909090909090914 33.75  C 42.909090909090914 34.114583333333336  43.03480113636363 34.4140625  43.286221590909086 34.6484375  C 43.53764204545455 34.8828125  43.858901515151516 35  44.25 35  L 46.93181818181818 35  C 47.32291666666668 35  47.64417613636363 34.8828125  47.895596590909086 34.6484375  Z M 47.895596590909086 24.6484375  C 48.14701704545455 24.414062499999996  48.27272727272727 24.11458333333333  48.27272727272727 23.75  L 48.27272727272727 21.250000000000004  C 48.27272727272727 20.885416666666657  48.14701704545455 20.585937499999996  47.895596590909086 20.351562499999996  C 47.64417613636363 20.117187500000004  47.32291666666668 20  46.93181818181818 20  L 44.25 20  C 43.858901515151516 20  43.53764204545455 20.117187500000004  43.286221590909086 20.351562499999996  C 43.03480113636363 20.585937499999996  42.909090909090914 20.885416666666657  42.909090909090914 21.250000000000004  L 42.909090909090914 23.75  C 42.909090909090914 24.11458333333333  43.03480113636363 24.414062499999996  43.286221590909086 24.6484375  C 43.53764204545455 24.8828125  43.858901515151516 24.999999999999996  44.25 24.999999999999996  L 46.93181818181818 24.999999999999996  C 47.32291666666668 24.999999999999996  47.64417613636363 24.8828125  47.895596590909086 24.6484375  Z M 47.895596590909086 14.648437500000004  C 48.14701704545455 14.414062500000002  48.27272727272727 14.114583333333334  48.27272727272727 13.749999999999998  L 48.27272727272727 11.249999999999998  C 48.27272727272727 10.885416666666663  48.14701704545455 10.585937500000002  47.895596590909086 10.351562500000002  C 47.64417613636363 10.1171875  47.32291666666668 10.000000000000004  46.93181818181818 10.000000000000004  L 44.25 10.000000000000004  C 43.858901515151516 10.000000000000004  43.53764204545455 10.1171875  43.286221590909086 10.351562500000002  C 43.03480113636363 10.585937500000002  42.909090909090914 10.885416666666663  42.909090909090914 11.249999999999998  L 42.909090909090914 13.749999999999998  C 42.909090909090914 14.114583333333334  43.03480113636363 14.414062500000002  43.286221590909086 14.648437500000004  C 43.53764204545455 14.882812499999996  43.858901515151516 15.000000000000002  44.25 15.000000000000002  L 46.93181818181818 15.000000000000002  C 47.32291666666668 15.000000000000002  47.64417613636363 14.882812499999996  47.895596590909086 14.648437500000004  Z " fill-rule="evenodd" />
    </mask>
  </defs>
  <g transform="matrix(1 0 0 1 -407 -799 )">
    <path d="M 2.681818181818182 0  L 56.31818181818182 0  C 57.04450757575758 0  57.67305871212122 0.24739583333333925  58.20383522727273 0.7421875000000022  C 58.73461174242425 1.2369791666666574  59 1.822916666666664  59 2.499999999999999  L 59 67.5  C 59 68.17708333333333  58.73461174242425 68.76302083333333  58.20383522727273 69.2578125  C 57.67305871212122 69.75260416666667  57.04450757575758 70  56.31818181818182 70  L 2.681818181818182 70  C 1.9554924242424245 70  1.3269412878787878 69.75260416666667  0.7961647727272727 69.2578125  C 0.26538825757575757 68.76302083333333  0 68.17708333333333  0 67.5  L 0 2.499999999999999  C 0 1.822916666666664  0.26538825757575757 1.2369791666666574  0.7961647727272727 0.7421875000000022  C 1.3269412878787878 0.24739583333333925  1.9554924242424245 0  2.681818181818182 0  Z M 21.831676136363637 10.351562500000002  C 21.580255681818183 10.585937500000002  21.454545454545457 10.885416666666663  21.454545454545457 11.249999999999998  L 21.454545454545457 13.749999999999998  C 21.454545454545457 14.114583333333334  21.580255681818183 14.414062500000002  21.831676136363637 14.648437500000004  C 22.08309659090909 14.882812499999996  22.404356060606066 15.000000000000002  22.795454545454543 15.000000000000002  L 25.477272727272727 15.000000000000002  C 25.868371212121215 15.000000000000002  26.189630681818183 14.882812499999996  26.441051136363637 14.648437500000004  C 26.69247159090909 14.414062500000002  26.818181818181817 14.114583333333334  26.818181818181817 13.749999999999998  L 26.818181818181817 11.249999999999998  C 26.818181818181817 10.885416666666663  26.69247159090909 10.585937500000002  26.441051136363637 10.351562500000002  C 26.189630681818183 10.1171875  25.868371212121215 10.000000000000004  25.477272727272727 10.000000000000004  L 22.795454545454543 10.000000000000004  C 22.404356060606066 10.000000000000004  22.08309659090909 10.1171875  21.831676136363637 10.351562500000002  Z M 21.831676136363637 20.351562499999996  C 21.580255681818183 20.585937499999996  21.454545454545457 20.885416666666657  21.454545454545457 21.250000000000004  L 21.454545454545457 23.75  C 21.454545454545457 24.11458333333333  21.580255681818183 24.414062499999996  21.831676136363637 24.6484375  C 22.08309659090909 24.8828125  22.404356060606066 24.999999999999996  22.795454545454543 24.999999999999996  L 25.477272727272727 24.999999999999996  C 25.868371212121215 24.999999999999996  26.189630681818183 24.8828125  26.441051136363637 24.6484375  C 26.69247159090909 24.414062499999996  26.818181818181817 24.11458333333333  26.818181818181817 23.75  L 26.818181818181817 21.250000000000004  C 26.818181818181817 20.885416666666657  26.69247159090909 20.585937499999996  26.441051136363637 20.351562499999996  C 26.189630681818183 20.117187500000004  25.868371212121215 20  25.477272727272727 20  L 22.795454545454543 20  C 22.404356060606066 20  22.08309659090909 20.117187500000004  21.831676136363637 20.351562499999996  Z M 21.831676136363637 30.3515625  C 21.580255681818183 30.5859375  21.454545454545457 30.88541666666666  21.454545454545457 31.249999999999996  L 21.454545454545457 33.75  C 21.454545454545457 34.114583333333336  21.580255681818183 34.4140625  21.831676136363637 34.6484375  C 22.08309659090909 34.8828125  22.404356060606066 35  22.795454545454543 35  L 25.477272727272727 35  C 25.868371212121215 35  26.189630681818183 34.8828125  26.441051136363637 34.6484375  C 26.69247159090909 34.4140625  26.818181818181817 34.114583333333336  26.818181818181817 33.75  L 26.818181818181817 31.249999999999996  C 26.818181818181817 30.88541666666666  26.69247159090909 30.5859375  26.441051136363637 30.3515625  C 26.189630681818183 30.1171875  25.868371212121215 30.000000000000004  25.477272727272727 30.000000000000004  L 22.795454545454543 30.000000000000004  C 22.404356060606066 30.000000000000004  22.08309659090909 30.1171875  21.831676136363637 30.3515625  Z M 21.831676136363637 40.35156249999999  C 21.580255681818183 40.58593750000001  21.454545454545457 40.885416666666664  21.454545454545457 41.25  L 21.454545454545457 43.75  C 21.454545454545457 44.11458333333333  21.580255681818183 44.41406250000001  21.831676136363637 44.6484375  C 22.08309659090909 44.8828125  22.404356060606066 44.99999999999999  22.795454545454543 44.99999999999999  L 25.477272727272727 44.99999999999999  C 25.868371212121215 44.99999999999999  26.189630681818183 44.8828125  26.441051136363637 44.6484375  C 26.69247159090909 44.41406250000001  26.818181818181817 44.11458333333333  26.818181818181817 43.75  L 26.818181818181817 41.25  C 26.818181818181817 40.885416666666664  26.69247159090909 40.58593750000001  26.441051136363637 40.35156249999999  C 26.189630681818183 40.1171875  25.868371212121215 40  25.477272727272727 40  L 22.795454545454543 40  C 22.404356060606066 40  22.08309659090909 40.1171875  21.831676136363637 40.35156249999999  Z M 15.71377840909091 54.6484375  C 15.965198863636362 54.4140625  16.09090909090909 54.11458333333333  16.09090909090909 53.74999999999999  L 16.09090909090909 51.25000000000001  C 16.09090909090909 50.88541666666667  15.965198863636362 50.5859375  15.71377840909091 50.3515625  C 15.462357954545455 50.1171875  15.141098484848486 50  14.75 50  L 12.068181818181818 50  C 11.677083333333334 50  11.355823863636363 50.1171875  11.104403409090908 50.3515625  C 10.852982954545455 50.5859375  10.727272727272728 50.88541666666667  10.727272727272728 51.25000000000001  L 10.727272727272728 53.74999999999999  C 10.727272727272728 54.11458333333333  10.852982954545455 54.4140625  11.104403409090908 54.6484375  C 11.355823863636363 54.8828125  11.677083333333334 55  12.068181818181818 55  L 14.75 55  C 15.141098484848486 55  15.462357954545455 54.8828125  15.71377840909091 54.6484375  Z M 15.71377840909091 44.6484375  C 15.965198863636362 44.41406250000001  16.09090909090909 44.11458333333333  16.09090909090909 43.75  L 16.09090909090909 41.25  C 16.09090909090909 40.885416666666664  15.965198863636362 40.58593750000001  15.71377840909091 40.35156249999999  C 15.462357954545455 40.1171875  15.141098484848486 40  14.75 40  L 12.068181818181818 40  C 11.677083333333334 40  11.355823863636363 40.1171875  11.104403409090908 40.35156249999999  C 10.852982954545455 40.58593750000001  10.727272727272728 40.885416666666664  10.727272727272728 41.25  L 10.727272727272728 43.75  C 10.727272727272728 44.11458333333333  10.852982954545455 44.41406250000001  11.104403409090908 44.6484375  C 11.355823863636363 44.8828125  11.677083333333334 44.99999999999999  12.068181818181818 44.99999999999999  L 14.75 44.99999999999999  C 15.141098484848486 44.99999999999999  15.462357954545455 44.8828125  15.71377840909091 44.6484375  Z M 15.71377840909091 34.6484375  C 15.965198863636362 34.4140625  16.09090909090909 34.114583333333336  16.09090909090909 33.75  L 16.09090909090909 31.249999999999996  C 16.09090909090909 30.88541666666666  15.965198863636362 30.5859375  15.71377840909091 30.3515625  C 15.462357954545455 30.1171875  15.141098484848486 30.000000000000004  14.75 30.000000000000004  L 12.068181818181818 30.000000000000004  C 11.677083333333334 30.000000000000004  11.355823863636363 30.1171875  11.104403409090908 30.3515625  C 10.852982954545455 30.5859375  10.727272727272728 30.88541666666666  10.727272727272728 31.249999999999996  L 10.727272727272728 33.75  C 10.727272727272728 34.114583333333336  10.852982954545455 34.4140625  11.104403409090908 34.6484375  C 11.355823863636363 34.8828125  11.677083333333334 35  12.068181818181818 35  L 14.75 35  C 15.141098484848486 35  15.462357954545455 34.8828125  15.71377840909091 34.6484375  Z M 15.71377840909091 24.6484375  C 15.965198863636362 24.414062499999996  16.09090909090909 24.11458333333333  16.09090909090909 23.75  L 16.09090909090909 21.250000000000004  C 16.09090909090909 20.885416666666657  15.965198863636362 20.585937499999996  15.71377840909091 20.351562499999996  C 15.462357954545455 20.117187500000004  15.141098484848486 20  14.75 20  L 12.068181818181818 20  C 11.677083333333334 20  11.355823863636363 20.117187500000004  11.104403409090908 20.351562499999996  C 10.852982954545455 20.585937499999996  10.727272727272728 20.885416666666657  10.727272727272728 21.250000000000004  L 10.727272727272728 23.75  C 10.727272727272728 24.11458333333333  10.852982954545455 24.414062499999996  11.104403409090908 24.6484375  C 11.355823863636363 24.8828125  11.677083333333334 24.999999999999996  12.068181818181818 24.999999999999996  L 14.75 24.999999999999996  C 15.141098484848486 24.999999999999996  15.462357954545455 24.8828125  15.71377840909091 24.6484375  Z M 15.71377840909091 14.648437500000004  C 15.965198863636362 14.414062500000002  16.09090909090909 14.114583333333334  16.09090909090909 13.749999999999998  L 16.09090909090909 11.249999999999998  C 16.09090909090909 10.885416666666663  15.965198863636362 10.585937500000002  15.71377840909091 10.351562500000002  C 15.462357954545455 10.1171875  15.141098484848486 10.000000000000004  14.75 10.000000000000004  L 12.068181818181818 10.000000000000004  C 11.677083333333334 10.000000000000004  11.355823863636363 10.1171875  11.104403409090908 10.351562500000002  C 10.852982954545455 10.585937500000002  10.727272727272728 10.885416666666663  10.727272727272728 11.249999999999998  L 10.727272727272728 13.749999999999998  C 10.727272727272728 14.114583333333334  10.852982954545455 14.414062500000002  11.104403409090908 14.648437500000004  C 11.355823863636363 14.882812499999996  11.677083333333334 15.000000000000002  12.068181818181818 15.000000000000002  L 14.75 15.000000000000002  C 15.141098484848486 15.000000000000002  15.462357954545455 14.882812499999996  15.71377840909091 14.648437500000004  Z M 37.16832386363637 64.6484375  C 37.41974431818182 64.4140625  37.54545454545455 64.11458333333333  37.54545454545455 63.75  L 37.54545454545455 56.25  C 37.54545454545455 55.88541666666667  37.41974431818182 55.5859375  37.16832386363637 55.35156250000001  C 36.916903409090914 55.11718749999999  36.59564393939394 55  36.20454545454545 55  L 22.795454545454543 55  C 22.404356060606066 55  22.08309659090909 55.11718749999999  21.831676136363637 55.35156250000001  C 21.580255681818183 55.5859375  21.454545454545457 55.88541666666667  21.454545454545457 56.25  L 21.454545454545457 63.75  C 21.454545454545457 64.11458333333333  21.580255681818183 64.4140625  21.831676136363637 64.6484375  C 22.08309659090909 64.8828125  22.404356060606066 65  22.795454545454543 65  L 36.20454545454545 65  C 36.59564393939394 65  36.916903409090914 64.8828125  37.16832386363637 64.6484375  Z M 37.16832386363637 44.6484375  C 37.41974431818182 44.41406250000001  37.54545454545455 44.11458333333333  37.54545454545455 43.75  L 37.54545454545455 41.25  C 37.54545454545455 40.885416666666664  37.41974431818182 40.58593750000001  37.16832386363637 40.35156249999999  C 36.916903409090914 40.1171875  36.59564393939394 40  36.20454545454545 40  L 33.52272727272727 40  C 33.131628787878796 40  32.81036931818182 40.1171875  32.55894886363637 40.35156249999999  C 32.307528409090914 40.58593750000001  32.18181818181818 40.885416666666664  32.18181818181818 41.25  L 32.18181818181818 43.75  C 32.18181818181818 44.11458333333333  32.307528409090914 44.41406250000001  32.55894886363637 44.6484375  C 32.81036931818182 44.8828125  33.131628787878796 44.99999999999999  33.52272727272727 44.99999999999999  L 36.20454545454545 44.99999999999999  C 36.59564393939394 44.99999999999999  36.916903409090914 44.8828125  37.16832386363637 44.6484375  Z M 37.16832386363637 34.6484375  C 37.41974431818182 34.4140625  37.54545454545455 34.114583333333336  37.54545454545455 33.75  L 37.54545454545455 31.249999999999996  C 37.54545454545455 30.88541666666666  37.41974431818182 30.5859375  37.16832386363637 30.3515625  C 36.916903409090914 30.1171875  36.59564393939394 30.000000000000004  36.20454545454545 30.000000000000004  L 33.52272727272727 30.000000000000004  C 33.131628787878796 30.000000000000004  32.81036931818182 30.1171875  32.55894886363637 30.3515625  C 32.307528409090914 30.5859375  32.18181818181818 30.88541666666666  32.18181818181818 31.249999999999996  L 32.18181818181818 33.75  C 32.18181818181818 34.114583333333336  32.307528409090914 34.4140625  32.55894886363637 34.6484375  C 32.81036931818182 34.8828125  33.131628787878796 35  33.52272727272727 35  L 36.20454545454545 35  C 36.59564393939394 35  36.916903409090914 34.8828125  37.16832386363637 34.6484375  Z M 37.16832386363637 24.6484375  C 37.41974431818182 24.414062499999996  37.54545454545455 24.11458333333333  37.54545454545455 23.75  L 37.54545454545455 21.250000000000004  C 37.54545454545455 20.885416666666657  37.41974431818182 20.585937499999996  37.16832386363637 20.351562499999996  C 36.916903409090914 20.117187500000004  36.59564393939394 20  36.20454545454545 20  L 33.52272727272727 20  C 33.131628787878796 20  32.81036931818182 20.117187500000004  32.55894886363637 20.351562499999996  C 32.307528409090914 20.585937499999996  32.18181818181818 20.885416666666657  32.18181818181818 21.250000000000004  L 32.18181818181818 23.75  C 32.18181818181818 24.11458333333333  32.307528409090914 24.414062499999996  32.55894886363637 24.6484375  C 32.81036931818182 24.8828125  33.131628787878796 24.999999999999996  33.52272727272727 24.999999999999996  L 36.20454545454545 24.999999999999996  C 36.59564393939394 24.999999999999996  36.916903409090914 24.8828125  37.16832386363637 24.6484375  Z M 37.16832386363637 14.648437500000004  C 37.41974431818182 14.414062500000002  37.54545454545455 14.114583333333334  37.54545454545455 13.749999999999998  L 37.54545454545455 11.249999999999998  C 37.54545454545455 10.885416666666663  37.41974431818182 10.585937500000002  37.16832386363637 10.351562500000002  C 36.916903409090914 10.1171875  36.59564393939394 10.000000000000004  36.20454545454545 10.000000000000004  L 33.52272727272727 10.000000000000004  C 33.131628787878796 10.000000000000004  32.81036931818182 10.1171875  32.55894886363637 10.351562500000002  C 32.307528409090914 10.585937500000002  32.18181818181818 10.885416666666663  32.18181818181818 11.249999999999998  L 32.18181818181818 13.749999999999998  C 32.18181818181818 14.114583333333334  32.307528409090914 14.414062500000002  32.55894886363637 14.648437500000004  C 32.81036931818182 14.882812499999996  33.131628787878796 15.000000000000002  33.52272727272727 15.000000000000002  L 36.20454545454545 15.000000000000002  C 36.59564393939394 15.000000000000002  36.916903409090914 14.882812499999996  37.16832386363637 14.648437500000004  Z M 47.895596590909086 54.6484375  C 48.14701704545455 54.4140625  48.27272727272727 54.11458333333333  48.27272727272727 53.74999999999999  L 48.27272727272727 51.25000000000001  C 48.27272727272727 50.88541666666667  48.14701704545455 50.5859375  47.895596590909086 50.3515625  C 47.64417613636363 50.1171875  47.32291666666668 50  46.93181818181818 50  L 44.25 50  C 43.858901515151516 50  43.53764204545455 50.1171875  43.286221590909086 50.3515625  C 43.03480113636363 50.5859375  42.909090909090914 50.88541666666667  42.909090909090914 51.25000000000001  L 42.909090909090914 53.74999999999999  C 42.909090909090914 54.11458333333333  43.03480113636363 54.4140625  43.286221590909086 54.6484375  C 43.53764204545455 54.8828125  43.858901515151516 55  44.25 55  L 46.93181818181818 55  C 47.32291666666668 55  47.64417613636363 54.8828125  47.895596590909086 54.6484375  Z M 47.895596590909086 44.6484375  C 48.14701704545455 44.41406250000001  48.27272727272727 44.11458333333333  48.27272727272727 43.75  L 48.27272727272727 41.25  C 48.27272727272727 40.885416666666664  48.14701704545455 40.58593750000001  47.895596590909086 40.35156249999999  C 47.64417613636363 40.1171875  47.32291666666668 40  46.93181818181818 40  L 44.25 40  C 43.858901515151516 40  43.53764204545455 40.1171875  43.286221590909086 40.35156249999999  C 43.03480113636363 40.58593750000001  42.909090909090914 40.885416666666664  42.909090909090914 41.25  L 42.909090909090914 43.75  C 42.909090909090914 44.11458333333333  43.03480113636363 44.41406250000001  43.286221590909086 44.6484375  C 43.53764204545455 44.8828125  43.858901515151516 44.99999999999999  44.25 44.99999999999999  L 46.93181818181818 44.99999999999999  C 47.32291666666668 44.99999999999999  47.64417613636363 44.8828125  47.895596590909086 44.6484375  Z M 47.895596590909086 34.6484375  C 48.14701704545455 34.4140625  48.27272727272727 34.114583333333336  48.27272727272727 33.75  L 48.27272727272727 31.249999999999996  C 48.27272727272727 30.88541666666666  48.14701704545455 30.5859375  47.895596590909086 30.3515625  C 47.64417613636363 30.1171875  47.32291666666668 30.000000000000004  46.93181818181818 30.000000000000004  L 44.25 30.000000000000004  C 43.858901515151516 30.000000000000004  43.53764204545455 30.1171875  43.286221590909086 30.3515625  C 43.03480113636363 30.5859375  42.909090909090914 30.88541666666666  42.909090909090914 31.249999999999996  L 42.909090909090914 33.75  C 42.909090909090914 34.114583333333336  43.03480113636363 34.4140625  43.286221590909086 34.6484375  C 43.53764204545455 34.8828125  43.858901515151516 35  44.25 35  L 46.93181818181818 35  C 47.32291666666668 35  47.64417613636363 34.8828125  47.895596590909086 34.6484375  Z M 47.895596590909086 24.6484375  C 48.14701704545455 24.414062499999996  48.27272727272727 24.11458333333333  48.27272727272727 23.75  L 48.27272727272727 21.250000000000004  C 48.27272727272727 20.885416666666657  48.14701704545455 20.585937499999996  47.895596590909086 20.351562499999996  C 47.64417613636363 20.117187500000004  47.32291666666668 20  46.93181818181818 20  L 44.25 20  C 43.858901515151516 20  43.53764204545455 20.117187500000004  43.286221590909086 20.351562499999996  C 43.03480113636363 20.585937499999996  42.909090909090914 20.885416666666657  42.909090909090914 21.250000000000004  L 42.909090909090914 23.75  C 42.909090909090914 24.11458333333333  43.03480113636363 24.414062499999996  43.286221590909086 24.6484375  C 43.53764204545455 24.8828125  43.858901515151516 24.999999999999996  44.25 24.999999999999996  L 46.93181818181818 24.999999999999996  C 47.32291666666668 24.999999999999996  47.64417613636363 24.8828125  47.895596590909086 24.6484375  Z M 47.895596590909086 14.648437500000004  C 48.14701704545455 14.414062500000002  48.27272727272727 14.114583333333334  48.27272727272727 13.749999999999998  L 48.27272727272727 11.249999999999998  C 48.27272727272727 10.885416666666663  48.14701704545455 10.585937500000002  47.895596590909086 10.351562500000002  C 47.64417613636363 10.1171875  47.32291666666668 10.000000000000004  46.93181818181818 10.000000000000004  L 44.25 10.000000000000004  C 43.858901515151516 10.000000000000004  43.53764204545455 10.1171875  43.286221590909086 10.351562500000002  C 43.03480113636363 10.585937500000002  42.909090909090914 10.885416666666663  42.909090909090914 11.249999999999998  L 42.909090909090914 13.749999999999998  C 42.909090909090914 14.114583333333334  43.03480113636363 14.414062500000002  43.286221590909086 14.648437500000004  C 43.53764204545455 14.882812499999996  43.858901515151516 15.000000000000002  44.25 15.000000000000002  L 46.93181818181818 15.000000000000002  C 47.32291666666668 15.000000000000002  47.64417613636363 14.882812499999996  47.895596590909086 14.648437500000004  Z " fill-rule="nonzero" fill="#ffffff" stroke="none" transform="matrix(1 0 0 1 407 799 )" />
    <path d="M 2.681818181818182 0  L 56.31818181818182 0  C 57.04450757575758 0  57.67305871212122 0.24739583333333925  58.20383522727273 0.7421875000000022  C 58.73461174242425 1.2369791666666574  59 1.822916666666664  59 2.499999999999999  L 59 67.5  C 59 68.17708333333333  58.73461174242425 68.76302083333333  58.20383522727273 69.2578125  C 57.67305871212122 69.75260416666667  57.04450757575758 70  56.31818181818182 70  L 2.681818181818182 70  C 1.9554924242424245 70  1.3269412878787878 69.75260416666667  0.7961647727272727 69.2578125  C 0.26538825757575757 68.76302083333333  0 68.17708333333333  0 67.5  L 0 2.499999999999999  C 0 1.822916666666664  0.26538825757575757 1.2369791666666574  0.7961647727272727 0.7421875000000022  C 1.3269412878787878 0.24739583333333925  1.9554924242424245 0  2.681818181818182 0  Z " stroke-width="4" stroke="#ffffff" fill="none" transform="matrix(1 0 0 1 407 799 )" mask="url(#clip72)" />
    <path d="M 21.831676136363637 10.351562500000002  C 21.580255681818183 10.585937500000002  21.454545454545457 10.885416666666663  21.454545454545457 11.249999999999998  L 21.454545454545457 13.749999999999998  C 21.454545454545457 14.114583333333334  21.580255681818183 14.414062500000002  21.831676136363637 14.648437500000004  C 22.08309659090909 14.882812499999996  22.404356060606066 15.000000000000002  22.795454545454543 15.000000000000002  L 25.477272727272727 15.000000000000002  C 25.868371212121215 15.000000000000002  26.189630681818183 14.882812499999996  26.441051136363637 14.648437500000004  C 26.69247159090909 14.414062500000002  26.818181818181817 14.114583333333334  26.818181818181817 13.749999999999998  L 26.818181818181817 11.249999999999998  C 26.818181818181817 10.885416666666663  26.69247159090909 10.585937500000002  26.441051136363637 10.351562500000002  C 26.189630681818183 10.1171875  25.868371212121215 10.000000000000004  25.477272727272727 10.000000000000004  L 22.795454545454543 10.000000000000004  C 22.404356060606066 10.000000000000004  22.08309659090909 10.1171875  21.831676136363637 10.351562500000002  Z " stroke-width="4" stroke="#ffffff" fill="none" transform="matrix(1 0 0 1 407 799 )" mask="url(#clip72)" />
    <path d="M 21.831676136363637 20.351562499999996  C 21.580255681818183 20.585937499999996  21.454545454545457 20.885416666666657  21.454545454545457 21.250000000000004  L 21.454545454545457 23.75  C 21.454545454545457 24.11458333333333  21.580255681818183 24.414062499999996  21.831676136363637 24.6484375  C 22.08309659090909 24.8828125  22.404356060606066 24.999999999999996  22.795454545454543 24.999999999999996  L 25.477272727272727 24.999999999999996  C 25.868371212121215 24.999999999999996  26.189630681818183 24.8828125  26.441051136363637 24.6484375  C 26.69247159090909 24.414062499999996  26.818181818181817 24.11458333333333  26.818181818181817 23.75  L 26.818181818181817 21.250000000000004  C 26.818181818181817 20.885416666666657  26.69247159090909 20.585937499999996  26.441051136363637 20.351562499999996  C 26.189630681818183 20.117187500000004  25.868371212121215 20  25.477272727272727 20  L 22.795454545454543 20  C 22.404356060606066 20  22.08309659090909 20.117187500000004  21.831676136363637 20.351562499999996  Z " stroke-width="4" stroke="#ffffff" fill="none" transform="matrix(1 0 0 1 407 799 )" mask="url(#clip72)" />
    <path d="M 21.831676136363637 30.3515625  C 21.580255681818183 30.5859375  21.454545454545457 30.88541666666666  21.454545454545457 31.249999999999996  L 21.454545454545457 33.75  C 21.454545454545457 34.114583333333336  21.580255681818183 34.4140625  21.831676136363637 34.6484375  C 22.08309659090909 34.8828125  22.404356060606066 35  22.795454545454543 35  L 25.477272727272727 35  C 25.868371212121215 35  26.189630681818183 34.8828125  26.441051136363637 34.6484375  C 26.69247159090909 34.4140625  26.818181818181817 34.114583333333336  26.818181818181817 33.75  L 26.818181818181817 31.249999999999996  C 26.818181818181817 30.88541666666666  26.69247159090909 30.5859375  26.441051136363637 30.3515625  C 26.189630681818183 30.1171875  25.868371212121215 30.000000000000004  25.477272727272727 30.000000000000004  L 22.795454545454543 30.000000000000004  C 22.404356060606066 30.000000000000004  22.08309659090909 30.1171875  21.831676136363637 30.3515625  Z " stroke-width="4" stroke="#ffffff" fill="none" transform="matrix(1 0 0 1 407 799 )" mask="url(#clip72)" />
    <path d="M 21.831676136363637 40.35156249999999  C 21.580255681818183 40.58593750000001  21.454545454545457 40.885416666666664  21.454545454545457 41.25  L 21.454545454545457 43.75  C 21.454545454545457 44.11458333333333  21.580255681818183 44.41406250000001  21.831676136363637 44.6484375  C 22.08309659090909 44.8828125  22.404356060606066 44.99999999999999  22.795454545454543 44.99999999999999  L 25.477272727272727 44.99999999999999  C 25.868371212121215 44.99999999999999  26.189630681818183 44.8828125  26.441051136363637 44.6484375  C 26.69247159090909 44.41406250000001  26.818181818181817 44.11458333333333  26.818181818181817 43.75  L 26.818181818181817 41.25  C 26.818181818181817 40.885416666666664  26.69247159090909 40.58593750000001  26.441051136363637 40.35156249999999  C 26.189630681818183 40.1171875  25.868371212121215 40  25.477272727272727 40  L 22.795454545454543 40  C 22.404356060606066 40  22.08309659090909 40.1171875  21.831676136363637 40.35156249999999  Z " stroke-width="4" stroke="#ffffff" fill="none" transform="matrix(1 0 0 1 407 799 )" mask="url(#clip72)" />
    <path d="M 15.71377840909091 54.6484375  C 15.965198863636362 54.4140625  16.09090909090909 54.11458333333333  16.09090909090909 53.74999999999999  L 16.09090909090909 51.25000000000001  C 16.09090909090909 50.88541666666667  15.965198863636362 50.5859375  15.71377840909091 50.3515625  C 15.462357954545455 50.1171875  15.141098484848486 50  14.75 50  L 12.068181818181818 50  C 11.677083333333334 50  11.355823863636363 50.1171875  11.104403409090908 50.3515625  C 10.852982954545455 50.5859375  10.727272727272728 50.88541666666667  10.727272727272728 51.25000000000001  L 10.727272727272728 53.74999999999999  C 10.727272727272728 54.11458333333333  10.852982954545455 54.4140625  11.104403409090908 54.6484375  C 11.355823863636363 54.8828125  11.677083333333334 55  12.068181818181818 55  L 14.75 55  C 15.141098484848486 55  15.462357954545455 54.8828125  15.71377840909091 54.6484375  Z " stroke-width="4" stroke="#ffffff" fill="none" transform="matrix(1 0 0 1 407 799 )" mask="url(#clip72)" />
    <path d="M 15.71377840909091 44.6484375  C 15.965198863636362 44.41406250000001  16.09090909090909 44.11458333333333  16.09090909090909 43.75  L 16.09090909090909 41.25  C 16.09090909090909 40.885416666666664  15.965198863636362 40.58593750000001  15.71377840909091 40.35156249999999  C 15.462357954545455 40.1171875  15.141098484848486 40  14.75 40  L 12.068181818181818 40  C 11.677083333333334 40  11.355823863636363 40.1171875  11.104403409090908 40.35156249999999  C 10.852982954545455 40.58593750000001  10.727272727272728 40.885416666666664  10.727272727272728 41.25  L 10.727272727272728 43.75  C 10.727272727272728 44.11458333333333  10.852982954545455 44.41406250000001  11.104403409090908 44.6484375  C 11.355823863636363 44.8828125  11.677083333333334 44.99999999999999  12.068181818181818 44.99999999999999  L 14.75 44.99999999999999  C 15.141098484848486 44.99999999999999  15.462357954545455 44.8828125  15.71377840909091 44.6484375  Z " stroke-width="4" stroke="#ffffff" fill="none" transform="matrix(1 0 0 1 407 799 )" mask="url(#clip72)" />
    <path d="M 15.71377840909091 34.6484375  C 15.965198863636362 34.4140625  16.09090909090909 34.114583333333336  16.09090909090909 33.75  L 16.09090909090909 31.249999999999996  C 16.09090909090909 30.88541666666666  15.965198863636362 30.5859375  15.71377840909091 30.3515625  C 15.462357954545455 30.1171875  15.141098484848486 30.000000000000004  14.75 30.000000000000004  L 12.068181818181818 30.000000000000004  C 11.677083333333334 30.000000000000004  11.355823863636363 30.1171875  11.104403409090908 30.3515625  C 10.852982954545455 30.5859375  10.727272727272728 30.88541666666666  10.727272727272728 31.249999999999996  L 10.727272727272728 33.75  C 10.727272727272728 34.114583333333336  10.852982954545455 34.4140625  11.104403409090908 34.6484375  C 11.355823863636363 34.8828125  11.677083333333334 35  12.068181818181818 35  L 14.75 35  C 15.141098484848486 35  15.462357954545455 34.8828125  15.71377840909091 34.6484375  Z " stroke-width="4" stroke="#ffffff" fill="none" transform="matrix(1 0 0 1 407 799 )" mask="url(#clip72)" />
    <path d="M 15.71377840909091 24.6484375  C 15.965198863636362 24.414062499999996  16.09090909090909 24.11458333333333  16.09090909090909 23.75  L 16.09090909090909 21.250000000000004  C 16.09090909090909 20.885416666666657  15.965198863636362 20.585937499999996  15.71377840909091 20.351562499999996  C 15.462357954545455 20.117187500000004  15.141098484848486 20  14.75 20  L 12.068181818181818 20  C 11.677083333333334 20  11.355823863636363 20.117187500000004  11.104403409090908 20.351562499999996  C 10.852982954545455 20.585937499999996  10.727272727272728 20.885416666666657  10.727272727272728 21.250000000000004  L 10.727272727272728 23.75  C 10.727272727272728 24.11458333333333  10.852982954545455 24.414062499999996  11.104403409090908 24.6484375  C 11.355823863636363 24.8828125  11.677083333333334 24.999999999999996  12.068181818181818 24.999999999999996  L 14.75 24.999999999999996  C 15.141098484848486 24.999999999999996  15.462357954545455 24.8828125  15.71377840909091 24.6484375  Z " stroke-width="4" stroke="#ffffff" fill="none" transform="matrix(1 0 0 1 407 799 )" mask="url(#clip72)" />
    <path d="M 15.71377840909091 14.648437500000004  C 15.965198863636362 14.414062500000002  16.09090909090909 14.114583333333334  16.09090909090909 13.749999999999998  L 16.09090909090909 11.249999999999998  C 16.09090909090909 10.885416666666663  15.965198863636362 10.585937500000002  15.71377840909091 10.351562500000002  C 15.462357954545455 10.1171875  15.141098484848486 10.000000000000004  14.75 10.000000000000004  L 12.068181818181818 10.000000000000004  C 11.677083333333334 10.000000000000004  11.355823863636363 10.1171875  11.104403409090908 10.351562500000002  C 10.852982954545455 10.585937500000002  10.727272727272728 10.885416666666663  10.727272727272728 11.249999999999998  L 10.727272727272728 13.749999999999998  C 10.727272727272728 14.114583333333334  10.852982954545455 14.414062500000002  11.104403409090908 14.648437500000004  C 11.355823863636363 14.882812499999996  11.677083333333334 15.000000000000002  12.068181818181818 15.000000000000002  L 14.75 15.000000000000002  C 15.141098484848486 15.000000000000002  15.462357954545455 14.882812499999996  15.71377840909091 14.648437500000004  Z " stroke-width="4" stroke="#ffffff" fill="none" transform="matrix(1 0 0 1 407 799 )" mask="url(#clip72)" />
    <path d="M 37.16832386363637 64.6484375  C 37.41974431818182 64.4140625  37.54545454545455 64.11458333333333  37.54545454545455 63.75  L 37.54545454545455 56.25  C 37.54545454545455 55.88541666666667  37.41974431818182 55.5859375  37.16832386363637 55.35156250000001  C 36.916903409090914 55.11718749999999  36.59564393939394 55  36.20454545454545 55  L 22.795454545454543 55  C 22.404356060606066 55  22.08309659090909 55.11718749999999  21.831676136363637 55.35156250000001  C 21.580255681818183 55.5859375  21.454545454545457 55.88541666666667  21.454545454545457 56.25  L 21.454545454545457 63.75  C 21.454545454545457 64.11458333333333  21.580255681818183 64.4140625  21.831676136363637 64.6484375  C 22.08309659090909 64.8828125  22.404356060606066 65  22.795454545454543 65  L 36.20454545454545 65  C 36.59564393939394 65  36.916903409090914 64.8828125  37.16832386363637 64.6484375  Z " stroke-width="4" stroke="#ffffff" fill="none" transform="matrix(1 0 0 1 407 799 )" mask="url(#clip72)" />
    <path d="M 37.16832386363637 44.6484375  C 37.41974431818182 44.41406250000001  37.54545454545455 44.11458333333333  37.54545454545455 43.75  L 37.54545454545455 41.25  C 37.54545454545455 40.885416666666664  37.41974431818182 40.58593750000001  37.16832386363637 40.35156249999999  C 36.916903409090914 40.1171875  36.59564393939394 40  36.20454545454545 40  L 33.52272727272727 40  C 33.131628787878796 40  32.81036931818182 40.1171875  32.55894886363637 40.35156249999999  C 32.307528409090914 40.58593750000001  32.18181818181818 40.885416666666664  32.18181818181818 41.25  L 32.18181818181818 43.75  C 32.18181818181818 44.11458333333333  32.307528409090914 44.41406250000001  32.55894886363637 44.6484375  C 32.81036931818182 44.8828125  33.131628787878796 44.99999999999999  33.52272727272727 44.99999999999999  L 36.20454545454545 44.99999999999999  C 36.59564393939394 44.99999999999999  36.916903409090914 44.8828125  37.16832386363637 44.6484375  Z " stroke-width="4" stroke="#ffffff" fill="none" transform="matrix(1 0 0 1 407 799 )" mask="url(#clip72)" />
    <path d="M 37.16832386363637 34.6484375  C 37.41974431818182 34.4140625  37.54545454545455 34.114583333333336  37.54545454545455 33.75  L 37.54545454545455 31.249999999999996  C 37.54545454545455 30.88541666666666  37.41974431818182 30.5859375  37.16832386363637 30.3515625  C 36.916903409090914 30.1171875  36.59564393939394 30.000000000000004  36.20454545454545 30.000000000000004  L 33.52272727272727 30.000000000000004  C 33.131628787878796 30.000000000000004  32.81036931818182 30.1171875  32.55894886363637 30.3515625  C 32.307528409090914 30.5859375  32.18181818181818 30.88541666666666  32.18181818181818 31.249999999999996  L 32.18181818181818 33.75  C 32.18181818181818 34.114583333333336  32.307528409090914 34.4140625  32.55894886363637 34.6484375  C 32.81036931818182 34.8828125  33.131628787878796 35  33.52272727272727 35  L 36.20454545454545 35  C 36.59564393939394 35  36.916903409090914 34.8828125  37.16832386363637 34.6484375  Z " stroke-width="4" stroke="#ffffff" fill="none" transform="matrix(1 0 0 1 407 799 )" mask="url(#clip72)" />
    <path d="M 37.16832386363637 24.6484375  C 37.41974431818182 24.414062499999996  37.54545454545455 24.11458333333333  37.54545454545455 23.75  L 37.54545454545455 21.250000000000004  C 37.54545454545455 20.885416666666657  37.41974431818182 20.585937499999996  37.16832386363637 20.351562499999996  C 36.916903409090914 20.117187500000004  36.59564393939394 20  36.20454545454545 20  L 33.52272727272727 20  C 33.131628787878796 20  32.81036931818182 20.117187500000004  32.55894886363637 20.351562499999996  C 32.307528409090914 20.585937499999996  32.18181818181818 20.885416666666657  32.18181818181818 21.250000000000004  L 32.18181818181818 23.75  C 32.18181818181818 24.11458333333333  32.307528409090914 24.414062499999996  32.55894886363637 24.6484375  C 32.81036931818182 24.8828125  33.131628787878796 24.999999999999996  33.52272727272727 24.999999999999996  L 36.20454545454545 24.999999999999996  C 36.59564393939394 24.999999999999996  36.916903409090914 24.8828125  37.16832386363637 24.6484375  Z " stroke-width="4" stroke="#ffffff" fill="none" transform="matrix(1 0 0 1 407 799 )" mask="url(#clip72)" />
    <path d="M 37.16832386363637 14.648437500000004  C 37.41974431818182 14.414062500000002  37.54545454545455 14.114583333333334  37.54545454545455 13.749999999999998  L 37.54545454545455 11.249999999999998  C 37.54545454545455 10.885416666666663  37.41974431818182 10.585937500000002  37.16832386363637 10.351562500000002  C 36.916903409090914 10.1171875  36.59564393939394 10.000000000000004  36.20454545454545 10.000000000000004  L 33.52272727272727 10.000000000000004  C 33.131628787878796 10.000000000000004  32.81036931818182 10.1171875  32.55894886363637 10.351562500000002  C 32.307528409090914 10.585937500000002  32.18181818181818 10.885416666666663  32.18181818181818 11.249999999999998  L 32.18181818181818 13.749999999999998  C 32.18181818181818 14.114583333333334  32.307528409090914 14.414062500000002  32.55894886363637 14.648437500000004  C 32.81036931818182 14.882812499999996  33.131628787878796 15.000000000000002  33.52272727272727 15.000000000000002  L 36.20454545454545 15.000000000000002  C 36.59564393939394 15.000000000000002  36.916903409090914 14.882812499999996  37.16832386363637 14.648437500000004  Z " stroke-width="4" stroke="#ffffff" fill="none" transform="matrix(1 0 0 1 407 799 )" mask="url(#clip72)" />
    <path d="M 47.895596590909086 54.6484375  C 48.14701704545455 54.4140625  48.27272727272727 54.11458333333333  48.27272727272727 53.74999999999999  L 48.27272727272727 51.25000000000001  C 48.27272727272727 50.88541666666667  48.14701704545455 50.5859375  47.895596590909086 50.3515625  C 47.64417613636363 50.1171875  47.32291666666668 50  46.93181818181818 50  L 44.25 50  C 43.858901515151516 50  43.53764204545455 50.1171875  43.286221590909086 50.3515625  C 43.03480113636363 50.5859375  42.909090909090914 50.88541666666667  42.909090909090914 51.25000000000001  L 42.909090909090914 53.74999999999999  C 42.909090909090914 54.11458333333333  43.03480113636363 54.4140625  43.286221590909086 54.6484375  C 43.53764204545455 54.8828125  43.858901515151516 55  44.25 55  L 46.93181818181818 55  C 47.32291666666668 55  47.64417613636363 54.8828125  47.895596590909086 54.6484375  Z " stroke-width="4" stroke="#ffffff" fill="none" transform="matrix(1 0 0 1 407 799 )" mask="url(#clip72)" />
    <path d="M 47.895596590909086 44.6484375  C 48.14701704545455 44.41406250000001  48.27272727272727 44.11458333333333  48.27272727272727 43.75  L 48.27272727272727 41.25  C 48.27272727272727 40.885416666666664  48.14701704545455 40.58593750000001  47.895596590909086 40.35156249999999  C 47.64417613636363 40.1171875  47.32291666666668 40  46.93181818181818 40  L 44.25 40  C 43.858901515151516 40  43.53764204545455 40.1171875  43.286221590909086 40.35156249999999  C 43.03480113636363 40.58593750000001  42.909090909090914 40.885416666666664  42.909090909090914 41.25  L 42.909090909090914 43.75  C 42.909090909090914 44.11458333333333  43.03480113636363 44.41406250000001  43.286221590909086 44.6484375  C 43.53764204545455 44.8828125  43.858901515151516 44.99999999999999  44.25 44.99999999999999  L 46.93181818181818 44.99999999999999  C 47.32291666666668 44.99999999999999  47.64417613636363 44.8828125  47.895596590909086 44.6484375  Z " stroke-width="4" stroke="#ffffff" fill="none" transform="matrix(1 0 0 1 407 799 )" mask="url(#clip72)" />
    <path d="M 47.895596590909086 34.6484375  C 48.14701704545455 34.4140625  48.27272727272727 34.114583333333336  48.27272727272727 33.75  L 48.27272727272727 31.249999999999996  C 48.27272727272727 30.88541666666666  48.14701704545455 30.5859375  47.895596590909086 30.3515625  C 47.64417613636363 30.1171875  47.32291666666668 30.000000000000004  46.93181818181818 30.000000000000004  L 44.25 30.000000000000004  C 43.858901515151516 30.000000000000004  43.53764204545455 30.1171875  43.286221590909086 30.3515625  C 43.03480113636363 30.5859375  42.909090909090914 30.88541666666666  42.909090909090914 31.249999999999996  L 42.909090909090914 33.75  C 42.909090909090914 34.114583333333336  43.03480113636363 34.4140625  43.286221590909086 34.6484375  C 43.53764204545455 34.8828125  43.858901515151516 35  44.25 35  L 46.93181818181818 35  C 47.32291666666668 35  47.64417613636363 34.8828125  47.895596590909086 34.6484375  Z " stroke-width="4" stroke="#ffffff" fill="none" transform="matrix(1 0 0 1 407 799 )" mask="url(#clip72)" />
    <path d="M 47.895596590909086 24.6484375  C 48.14701704545455 24.414062499999996  48.27272727272727 24.11458333333333  48.27272727272727 23.75  L 48.27272727272727 21.250000000000004  C 48.27272727272727 20.885416666666657  48.14701704545455 20.585937499999996  47.895596590909086 20.351562499999996  C 47.64417613636363 20.117187500000004  47.32291666666668 20  46.93181818181818 20  L 44.25 20  C 43.858901515151516 20  43.53764204545455 20.117187500000004  43.286221590909086 20.351562499999996  C 43.03480113636363 20.585937499999996  42.909090909090914 20.885416666666657  42.909090909090914 21.250000000000004  L 42.909090909090914 23.75  C 42.909090909090914 24.11458333333333  43.03480113636363 24.414062499999996  43.286221590909086 24.6484375  C 43.53764204545455 24.8828125  43.858901515151516 24.999999999999996  44.25 24.999999999999996  L 46.93181818181818 24.999999999999996  C 47.32291666666668 24.999999999999996  47.64417613636363 24.8828125  47.895596590909086 24.6484375  Z " stroke-width="4" stroke="#ffffff" fill="none" transform="matrix(1 0 0 1 407 799 )" mask="url(#clip72)" />
    <path d="M 47.895596590909086 14.648437500000004  C 48.14701704545455 14.414062500000002  48.27272727272727 14.114583333333334  48.27272727272727 13.749999999999998  L 48.27272727272727 11.249999999999998  C 48.27272727272727 10.885416666666663  48.14701704545455 10.585937500000002  47.895596590909086 10.351562500000002  C 47.64417613636363 10.1171875  47.32291666666668 10.000000000000004  46.93181818181818 10.000000000000004  L 44.25 10.000000000000004  C 43.858901515151516 10.000000000000004  43.53764204545455 10.1171875  43.286221590909086 10.351562500000002  C 43.03480113636363 10.585937500000002  42.909090909090914 10.885416666666663  42.909090909090914 11.249999999999998  L 42.909090909090914 13.749999999999998  C 42.909090909090914 14.114583333333334  43.03480113636363 14.414062500000002  43.286221590909086 14.648437500000004  C 43.53764204545455 14.882812499999996  43.858901515151516 15.000000000000002  44.25 15.000000000000002  L 46.93181818181818 15.000000000000002  C 47.32291666666668 15.000000000000002  47.64417613636363 14.882812499999996  47.895596590909086 14.648437500000004  Z " stroke-width="4" stroke="#ffffff" fill="none" transform="matrix(1 0 0 1 407 799 )" mask="url(#clip72)" />
  </g>
</svg>