<?xml version="1.0" encoding="utf-8"?>
<svg version="1.1" xmlns:xlink="http://www.w3.org/1999/xlink" width="15px" height="30px" xmlns="http://www.w3.org/2000/svg">
  <g transform="matrix(1 0 0 1 -37 -71 )">
    <path d="M 14.742268041237113 1.8036072144288562  C 14.91408934707904 2.004008016032061  15 2.2344689378757474  15 2.4949899799599207  C 15 2.755511022044087  14.91408934707904 2.9859719438877743  14.742268041237113 3.186372745490982  L 4.613402061855671 15  L 14.742268041237113 26.81362725450902  C 14.91408934707904 27.014028056112227  15 27.24448897795591  15 27.50501002004008  C 15 27.76553106212425  14.91408934707904 27.995991983967933  14.742268041237113 28.196392785571145  L 13.45360824742268 29.69939879759519  C 13.281786941580757 29.8997995991984  13.084192439862544 30  12.86082474226804 30  C 12.63745704467354 30  12.439862542955328 29.8997995991984  12.268041237113401 29.69939879759519  L 0.2577319587628866 15.691382765531062  C 0.08591065292096225 15.490981963927853  0 15.260521042084166  0 15  C 0 14.73947895791583  0.08591065292096225 14.509018036072144  0.2577319587628866 14.308617234468938  L 12.268041237113401 0.3006012024048099  C 12.439862542955328 0.1002004008016022  12.63745704467354 0  12.86082474226804 0  C 13.084192439862544 0  13.281786941580757 0.1002004008016022  13.45360824742268 0.3006012024048099  L 14.742268041237113 1.8036072144288562  Z " fill-rule="nonzero" fill="#ffffff" stroke="none" transform="matrix(1 0 0 1 37 71 )" />
  </g>
</svg>