<?xml version="1.0" encoding="utf-8"?>
<svg version="1.1" xmlns:xlink="http://www.w3.org/1999/xlink" width="25px" height="23px" xmlns="http://www.w3.org/2000/svg">
  <g transform="matrix(1 0 0 1 -451 -419 )">
    <path d="M 15.099158653846153 11.215494791666668  C 15.289463141025642 11.025824652777775  15.384615384615385 10.801215277777775  15.384615384615385 10.541666666666668  C 15.384615384615385 10.282118055555554  15.289463141025642 10.057508680555554  15.099158653846153 9.867838541666668  C 14.908854166666668 9.678168402777779  14.683493589743593 9.583333333333332  14.423076923076922 9.583333333333332  L 10.576923076923077 9.583333333333332  C 10.31650641025641 9.583333333333332  10.091145833333334 9.678168402777779  9.900841346153847 9.867838541666668  C 9.71053685897436 10.057508680555554  9.615384615384617 10.282118055555554  9.615384615384617 10.541666666666668  C 9.615384615384617 10.801215277777775  9.71053685897436 11.025824652777775  9.900841346153847 11.215494791666668  C 10.091145833333334 11.405164930555554  10.31650641025641 11.5  10.576923076923077 11.5  L 14.423076923076922 11.5  C 14.683493589743593 11.5  14.908854166666668 11.405164930555554  15.099158653846153 11.215494791666668  Z M 23.753004807692307 6.992838541666668  C 23.943309294871796 7.1825086805555545  24.03846153846154 7.4071180555555545  24 7.666666666666668  L 24 22.041666666666668  C 24.03846153846154 22.301215277777775  23.943309294871796 22.525824652777775  23.753004807692307 22.715494791666668  C 23.56270032051282 22.905164930555557  23.337339743589748 23  23.076923076923077 23  L 1.9230769230769231 23  C 1.6626602564102568 23  1.4372996794871797 22.905164930555557  1.2469951923076923 22.715494791666668  C 1.0566907051282053 22.525824652777775  0.9615384615384616 22.301215277777775  1 22.041666666666668  L 1 7.666666666666668  C 0.9615384615384616 7.4071180555555545  1.0566907051282053 7.1825086805555545  1.2469951923076923 6.992838541666668  C 1.4372996794871797 6.803168402777776  1.6626602564102568 6.708333333333332  1.9230769230769231 7  L 23.076923076923077 7  C 23.337339743589748 6.708333333333332  23.56270032051282 6.803168402777776  23.753004807692307 6.992838541666668  Z M 24.714543269230766 0.2845052083333325  C 24.904847756410263 0.4741753472222191  25.000000000000007 0.6987847222222191  25 0.9583333333333325  L 25 4.791666666666668  C 25.000000000000007 5.051215277777776  24.904847756410263 5.275824652777776  24.714543269230766 5.465494791666668  C 24.524238782051285 5.6551649305555545  24.298878205128208 5.75  24.03846153846154 6  L 0.9615384615384616 6  C 0.7011217948717952 5.75  0.47576121794871823 5.6551649305555545  0.2854567307692307 5.465494791666668  C 0.09515224358974372 5.275824652777776  0 5.051215277777776  0 4.791666666666668  L 0 0.9583333333333325  C 0 0.6987847222222191  0.09515224358974372 0.4741753472222191  0.2854567307692307 0.2845052083333325  C 0.47576121794871823 0.09483506944444331  0.7011217948717952 0  0.9615384615384616 0  L 24.03846153846154 0  C 24.298878205128208 0  24.524238782051285 0.09483506944444331  24.714543269230766 0.2845052083333325  Z " fill-rule="nonzero" fill="#ffffff" stroke="none" fill-opacity="0.996078431372549" transform="matrix(1 0 0 1 451 419 )" />
  </g>
</svg>