<?xml version="1.0" encoding="utf-8"?>
<svg version="1.1" xmlns:xlink="http://www.w3.org/1999/xlink" width="43px" height="50px" xmlns="http://www.w3.org/2000/svg">
  <g transform="matrix(1 0 0 1 -279 -1135 )">
    <path d="M 9.098307291666666 20.228794642857146  C 12.942925347222223 21.028645833333336  17.076822916666668 21.42857142857143  21.5 21.42857142857143  C 25.923177083333336 21.42857142857143  30.05707465277778 21.028645833333336  33.901692708333336 20.228794642857146  C 37.74631076388889 19.42894345238095  40.779079861111114 18.247767857142854  43 16.685267857142854  L 43 21.42857142857143  C 43 22.71205357142857  42.03884548611111 23.902529761904763  40.116536458333336 25  C 38.19422743055556 26.097470238095234  35.581380208333336 26.96707589285714  32.277994791666664 27.608816964285715  C 28.974609375 28.250558035714285  25.381944444444446 28.57142857142857  21.5 28.57142857142857  C 17.618055555555557 28.57142857142857  14.025390625 28.250558035714285  10.722005208333334 27.608816964285715  C 7.418619791666666 26.96707589285714  4.805772569444445 26.097470238095234  2.883463541666667 25  C 0.9611545138888887 23.902529761904763  0 22.71205357142857  0 21.42857142857143  L 0 16.685267857142854  C 2.220920138888889 18.247767857142854  5.253689236111112 19.42894345238095  9.098307291666666 20.228794642857146  Z M 9.098307291666666 41.65736607142857  C 12.942925347222223 42.457217261904766  17.076822916666668 42.85714285714286  21.5 42.85714285714286  C 25.923177083333336 42.85714285714286  30.05707465277778 42.457217261904766  33.901692708333336 41.65736607142857  C 37.74631076388889 40.85751488095238  40.779079861111114 39.676339285714285  43 38.113839285714285  L 43 42.85714285714286  C 43 44.140625  42.03884548611111 45.33110119047619  40.116536458333336 46.42857142857143  C 38.19422743055556 47.526041666666664  35.581380208333336 48.39564732142857  32.277994791666664 49.037388392857146  C 28.974609375 49.679129464285715  25.381944444444446 50  21.5 50  C 17.618055555555557 50  14.025390625 49.679129464285715  10.722005208333334 49.037388392857146  C 7.418619791666666 48.39564732142857  4.805772569444445 47.526041666666664  2.883463541666667 46.42857142857143  C 0.9611545138888887 45.33110119047619  0 44.140625  0 42.85714285714286  L 0 38.113839285714285  C 2.220920138888889 39.676339285714285  5.253689236111112 40.85751488095238  9.098307291666666 41.65736607142857  Z M 9.098307291666666 30.94308035714286  C 12.942925347222223 31.742931547619047  17.076822916666668 32.14285714285714  21.5 32.14285714285714  C 25.923177083333336 32.14285714285714  30.05707465277778 31.742931547619047  33.901692708333336 30.94308035714286  C 37.74631076388889 30.143229166666664  40.779079861111114 28.96205357142857  43 27.39955357142857  L 43 32.14285714285714  C 43 33.426339285714285  42.03884548611111 34.616815476190474  40.116536458333336 35.714285714285715  C 38.19422743055556 36.811755952380956  35.581380208333336 37.68136160714286  32.277994791666664 38.32310267857143  C 28.974609375 38.96484375  25.381944444444446 39.285714285714285  21.5 39.285714285714285  C 17.618055555555557 39.285714285714285  14.025390625 38.96484375  10.722005208333334 38.32310267857143  C 7.418619791666666 37.68136160714286  4.805772569444445 36.811755952380956  2.883463541666667 35.714285714285715  C 0.9611545138888887 34.616815476190474  0 33.426339285714285  0 32.14285714285714  L 0 27.39955357142857  C 2.220920138888889 28.96205357142857  5.253689236111112 30.143229166666664  9.098307291666666 30.94308035714286  Z M 10.722005208333334 0.9626116071428548  C 14.025390625 0.3208705357142849  17.618055555555557 0  21.5 0  C 25.381944444444446 0  28.974609375 0.3208705357142849  32.277994791666664 0.9626116071428548  C 35.581380208333336 1.6043526785714302  38.19422743055556 2.4739583333333313  40.116536458333336 3.57142857142857  C 42.03884548611111 4.668898809523808  43 5.859375  43 7.142857142857145  L 43 10.714285714285715  C 43 11.997767857142854  42.03884548611111 13.18824404761904  40.116536458333336 14.285714285714285  C 38.19422743055556 15.383184523809524  35.581380208333336 16.25279017857143  32.277994791666664 16.89453125  C 28.974609375 17.53627232142857  25.381944444444446 17.857142857142854  21.5 17.857142857142854  C 17.618055555555557 17.857142857142854  14.025390625 17.53627232142857  10.722005208333334 16.89453125  C 7.418619791666666 16.25279017857143  4.805772569444445 15.383184523809524  2.883463541666667 14.285714285714285  C 0.9611545138888887 13.18824404761904  0 11.997767857142854  0 10.714285714285715  L 0 7.142857142857145  C 0 5.859375  0.9611545138888887 4.668898809523808  2.883463541666667 3.57142857142857  C 4.805772569444445 2.4739583333333313  7.418619791666666 1.6043526785714302  10.722005208333334 0.9626116071428548  Z " fill-rule="nonzero" fill="#3285ff" stroke="none" transform="matrix(1 0 0 1 279 1135 )" />
  </g>
</svg>