<?xml version="1.0" encoding="utf-8"?>
<svg version="1.1" xmlns:xlink="http://www.w3.org/1999/xlink" width="40px" height="40px" xmlns="http://www.w3.org/2000/svg">
  <defs>
    <mask fill="white" id="clip715">
      <path d="M 0 20  C 0 10.88134441287347  5.833218602569978 3.3535666264478445  14.045687534901163 0.8706349135318958  C 15.920193723328303 0.3039026799425748  17.91865558712653 0  20 0  C 31.200000000000003 0  40 8.799999999999999  40 20  C 40 31.200000000000003  31.200000000000003 40  20 40  C 8.799999999999997 40  0 31.200000000000003  0 20  Z " fill-rule="evenodd" />
    </mask>
  </defs>
  <g transform="matrix(1 0 0 1 -21 -1 )">
    <path d="M 0 20  C 0 10.88134441287347  5.833218602569978 3.3535666264478445  14.045687534901163 0.8706349135318958  C 15.920193723328303 0.3039026799425748  17.91865558712653 0  20 0  C 31.200000000000003 0  40 8.799999999999999  40 20  C 40 31.200000000000003  31.200000000000003 40  20 40  C 8.799999999999997 40  0 31.200000000000003  0 20  Z " fill-rule="nonzero" fill="#3285ff" stroke="none" transform="matrix(1 0 0 1 21 1 )" />
    <path d="M 0 20  C 0 10.88134441287347  5.833218602569978 3.3535666264478445  14.045687534901163 0.8706349135318958  C 15.920193723328303 0.3039026799425748  17.91865558712653 0  20 0  C 31.200000000000003 0  40 8.799999999999999  40 20  C 40 31.200000000000003  31.200000000000003 40  20 40  C 8.799999999999997 40  0 31.200000000000003  0 20  Z " stroke-width="2" stroke="#797979" fill="none" transform="matrix(1 0 0 1 21 1 )" mask="url(#clip715)" />
  </g>
</svg>