<?xml version="1.0" encoding="utf-8"?>
<svg version="1.1" xmlns:xlink="http://www.w3.org/1999/xlink" width="36px" height="42px" xmlns="http://www.w3.org/2000/svg">
  <g transform="matrix(1 0 0 1 -525 -267 )">
    <path d="M 30 12  C 30 14.296875  29.3828125 16.421874999999996  28.1484375 18.375  C 28.882812500000004 18.593749999999996  29.58203125 18.890625  30.24609375 19.265624999999996  C 30.910156250000004 19.640625  31.60546875 20.210937499999996  32.33203125 20.9765625  C 33.05859375 21.7421875  33.6796875 22.64453125  34.1953125 23.68359375  C 34.7109375 24.722656249999996  35.140625 26.066406249999996  35.484375 27.714843750000004  C 35.82812499999999 29.36328125  36 31.2109375  36 33.2578125  C 36 35.66406250000001  35.21875 37.72265625  33.65625 39.43359375  C 32.09375000000001 41.14453125  30.2109375 42  28.0078125 42  L 7.9921875 42  C 5.7890625 42  3.9062500000000004 41.14453125  2.34375 39.43359375  C 0.7812499999999999 37.72265625  0 35.66406250000001  0 33.2578125  C 0 31.2109375  0.17187499999999997 29.36328125  0.515625 27.714843750000004  C 0.8593750000000001 26.066406249999996  1.2890625 24.722656249999996  1.8046875 23.68359375  C 2.3203125 22.64453125  2.94140625 21.7421875  3.66796875 20.9765625  C 4.39453125 20.210937499999996  5.089843750000001 19.640625  5.75390625 19.265624999999996  C 6.417968750000001 18.890625  7.1171875 18.593749999999996  7.8515625 18.375  C 6.617187500000001 16.421874999999996  6 14.296875  6 12  C 6 10.374999999999996  6.31640625 8.824218749999998  6.94921875 7.347656249999998  C 7.58203125 5.871093749999998  8.4375 4.59375  9.515625 3.5156249999999982  C 10.59375 2.437500000000001  11.87109375 1.5820312499999993  13.34765625 0.9492187499999987  C 14.82421875 0.316406249999998  16.375 0  18 0  C 19.625000000000004 0  21.17578125 0.316406249999998  22.65234375 0.9492187499999987  C 24.12890625 1.5820312499999993  25.40625 2.437500000000001  26.484375 3.5156249999999982  C 27.5625 4.59375  28.41796875 5.871093749999998  29.05078125 7.347656249999998  C 29.68359375 8.824218749999998  30 10.374999999999996  30 12  Z M 24.36328125 5.636718750000001  C 22.605468750000004 3.878906249999999  20.484375000000004 2.9999999999999987  18 2.9999999999999987  C 15.515625 2.9999999999999987  13.39453125 3.878906249999999  11.63671875 5.636718750000001  C 9.87890625 7.394531250000002  9 9.515625  9 12  C 9 14.484374999999998  9.87890625 16.60546875  11.63671875 18.363281249999996  C 13.39453125 20.12109375  15.515625 21  18 21  C 20.484375000000004 21  22.605468750000004 20.12109375  24.36328125 18.363281249999996  C 26.12109375 16.60546875  27 14.484374999999998  27 12  C 27 9.515625  26.12109375 7.394531250000002  24.36328125 5.636718750000001  Z M 7.9921875 39  L 28.0078125 39  C 29.3828125 39  30.558593750000004 38.44140625  31.53515625 37.32421875  C 32.51171875 36.20703125  33 34.8515625  33 33.2578125  C 33 29.523437499999996  32.38671875 26.578125  31.16015625 24.421875  C 29.93359375 22.265625  28.171875 21.132812499999996  25.875 21.0234375  C 23.609375 23.0078125  20.984375 24  18 24  C 15.015625000000002 24  12.390625000000002 23.0078125  10.125 21.0234375  C 7.828125 21.132812499999996  6.066406250000001 22.265625  4.83984375 24.421875  C 3.6132812500000004 26.578125  3 29.523437499999996  3 33.2578125  C 3 34.8515625  3.48828125 36.20703125  4.46484375 37.32421875  C 5.441406250000001 38.44140625  6.617187500000001 39  7.9921875 39  Z " fill-rule="nonzero" fill="#ffffff" stroke="none" transform="matrix(1 0 0 1 525 267 )" />
  </g>
</svg>