<?xml version="1.0" encoding="utf-8"?>
<svg version="1.1" xmlns:xlink="http://www.w3.org/1999/xlink" width="70px" height="71px" xmlns="http://www.w3.org/2000/svg">
  <g transform="matrix(1 0 0 1 -473 -1037 )">
    <path d="M 54.55078125 40.538411458333336  C 55.12803819444444 39.95290798611111  55.416666666666664 39.25954861111111  55.416666666666664 38.458333333333336  L 55.416666666666664 32.54166666666667  C 55.416666666666664 31.740451388888886  55.12803819444444 31.047092013888886  54.55078125 30.461588541666668  C 53.973524305555564 29.876085069444446  53.289930555555564 29.583333333333332  52.5 30  L 40 30  L 40 17.75  C 40.833333333333336 16.948784722222214  40.544704861111114 16.255425347222214  39.967447916666664 15.669921875  C 39.39019097222223 15.084418402777777  38.70659722222223 14.79166666666667  37.916666666666664 14.79166666666667  L 32.08333333333333 14.79166666666667  C 31.293402777777782 14.79166666666667  30.609809027777782 15.084418402777777  30.032552083333332 15.669921875  C 29.45529513888889 16.255425347222214  29.166666666666668 16.948784722222214  30 17.75  L 30 30  L 17.5 30  C 16.710069444444446 29.583333333333332  16.026475694444446 29.876085069444446  15.44921875 30.461588541666668  C 14.871961805555557 31.047092013888886  14.583333333333334 31.740451388888886  14.583333333333334 32.54166666666667  L 14.583333333333334 38.458333333333336  C 14.583333333333334 39.25954861111111  14.871961805555557 39.95290798611111  15.44921875 40.538411458333336  C 16.026475694444446 41.12391493055556  16.710069444444446 41.416666666666664  17.5 41  L 30 41  L 30 53.25  C 29.166666666666668 54.05121527777778  29.45529513888889 54.74457465277778  30.032552083333332 55.330078125  C 30.609809027777782 55.91558159722222  31.293402777777782 56.20833333333333  32.08333333333333 56.20833333333333  L 37.916666666666664 56.20833333333333  C 38.70659722222223 56.20833333333333  39.39019097222223 55.91558159722222  39.967447916666664 55.330078125  C 40.544704861111114 54.74457465277778  40.833333333333336 54.05121527777778  40 53.25  L 40 41  L 52.5 41  C 53.289930555555564 41.416666666666664  53.973524305555564 41.12391493055556  54.55078125 40.538411458333336  Z M 65.30598958333334 17.6806640625  C 68.4353298611111 23.119683159722214  70 29.059461805555546  70 35.5  C 70 41.94053819444444  68.4353298611111 47.88031684027777  65.30598958333334 53.3193359375  C 62.176649305555564 58.75835503472222  57.93077256944444 63.06488715277778  52.568359375 66.23893229166667  C 47.205946180555564 69.41297743055556  41.34982638888889 71  35 71  C 28.650173611111114 71  22.794053819444446 69.41297743055556  17.431640625 66.23893229166667  C 12.069227430555557 63.06488715277778  7.8233506944444455 58.75835503472222  4.694010416666667 53.3193359375  C 1.5646701388888886 47.88031684027777  0 41.94053819444444  0 35.5  C 0 29.059461805555546  1.5646701388888886 23.119683159722214  4.694010416666667 17.6806640625  C 7.8233506944444455 12.241644965277777  12.069227430555557 7.935112847222215  17.431640625 4.76106770833333  C 22.794053819444446 1.5870225694444384  28.650173611111114 0  35 0  C 41.34982638888889 0  47.205946180555564 1.5870225694444384  52.568359375 4.76106770833333  C 57.93077256944444 7.935112847222215  62.176649305555564 12.241644965277777  65.30598958333334 17.6806640625  Z " fill-rule="nonzero" fill="#286acc" stroke="none" transform="matrix(1 0 0 1 473 1037 )" />
  </g>
</svg>