<?xml version="1.0" encoding="utf-8"?>
<svg version="1.1" xmlns:xlink="http://www.w3.org/1999/xlink" width="24px" height="20px" xmlns="http://www.w3.org/2000/svg">
  <g transform="matrix(1 0 0 1 -183 -130 )">
    <path d="M 4.0554455445544555 18.31023102310231  L 5.75049504950495 18.31023102310231  L 7.192079207920792 17.10891089108911  L 3.469306930693069 14.006600660066006  L 2.0277227722772277 15.207920792079207  L 2.0277227722772277 16.620462046204622  L 4.0554455445544555 16.620462046204622  L 4.0554455445544555 18.31023102310231  Z M 13.924752475247523 6.2838283828382835  C 13.9986798679868 6.222222222222222  14.035643564356437 6.1474147414741465  14.035643564356437 6.05940594059406  C 14.035643564356437 5.865786578657866  13.919471947194719 5.768976897689768  13.687128712871285 5.768976897689768  C 13.581518151815182 5.768976897689768  13.491749174917494 5.799779977997799  13.417821782178219 5.861386138613862  L 4.8316831683168315 13.016501650165019  C 4.757755775577558 13.078107810781077  4.7207920792079205 13.152915291529151  4.7207920792079205 13.24092409240924  C 4.7207920792079205 13.43454345434543  4.836963696369637 13.531353135313534  5.069306930693069 13.531353135313534  C 5.174917491749175 13.531353135313534  5.264686468646865 13.500550055005501  5.338613861386138 13.438943894389439  L 13.924752475247523 6.2838283828382835  Z M 0 14.50825082508251  L 13.180198019801981 3.5247524752475257  L 19.77029702970297 9.016501650165017  L 6.590099009900991 20  L 0 20  L 0 14.50825082508251  Z M 23.413861386138613 3.5907590759075902  C 23.804620462046206 3.9339933993399345  24 4.334433443344334  24 4.792079207920792  C 24 5.258525852585258  23.804620462046206 5.654565456545653  23.413861386138613 5.980198019801981  L 20.78415841584158 8.17161716171617  L 14.194059405940594 2.6798679867986808  L 16.823762376237624 0.5016501650165006  C 17.203960396039605 0.1672167216721654  17.67920792079208 0  18.24950495049505 0  C 18.809240924092414 0  19.28976897689769 0.1672167216721654  19.69108910891089 0.5016501650165006  L 23.413861386138613 3.5907590759075902  Z " fill-rule="nonzero" fill="#ffffff" stroke="none" transform="matrix(1 0 0 1 183 130 )" />
  </g>
</svg>