<?xml version="1.0" encoding="utf-8"?>
<svg version="1.1" xmlns:xlink="http://www.w3.org/1999/xlink" width="33px" height="36px" xmlns="http://www.w3.org/2000/svg">
  <g transform="matrix(1 0 0 1 -480 -378 )">
    <path d="M 20.23828125 22.078125  C 21.976862980769234 20.181490384615383  22.846153846153847 17.89903846153846  22.846153846153847 15.230769230769234  C 22.846153846153847 12.562499999999996  21.976862980769234 10.280048076923075  20.23828125 8.383413461538462  C 18.49969951923077 6.486778846153843  16.407451923076923 5.538461538461538  13.961538461538462 5.538461538461538  C 11.515625000000002 5.538461538461538  9.423377403846155 6.486778846153843  7.6847956730769225 8.383413461538462  C 5.9462139423076925 10.280048076923075  5.0769230769230775 12.562499999999996  5.0769230769230775 15.230769230769234  C 5.0769230769230775 17.89903846153846  5.9462139423076925 20.181490384615383  7.6847956730769225 22.078125  C 9.423377403846155 23.97475961538461  11.515625000000002 24.923076923076923  13.961538461538462 24.923076923076923  C 16.407451923076923 24.923076923076923  18.49969951923077 23.97475961538461  20.23828125 22.078125  Z M 32.26622596153846 31.283653846153847  C 32.75540865384615 31.817307692307693  33 32.46634615384615  33 33.23076923076923  C 33 33.98076923076923  32.74879807692308 34.62980769230769  32.24639423076923 35.17788461538461  C 31.743990384615387 35.72596153846154  31.149038461538463 36  30.461538461538463 36  C 29.747596153846153 36  29.15264423076923 35.72596153846154  28.67668269230769 35.17788461538461  L 21.874399038461537 27.778846153846153  C 19.5078125 29.567307692307693  16.87019230769231 30.46153846153846  13.961538461538462 30.46153846153846  C 12.070913461538463 30.46153846153846  10.262920673076923 30.061298076923077  8.537560096153845 29.26081730769231  C 6.812199519230769 28.46033653846154  5.324819711538462 27.378605769230766  4.075420673076923 26.015625  C 2.8260216346153846 24.652644230769234  1.8344350961538465 23.030048076923077  1.1006610576923077 21.14783653846154  C 0.3668870192307692 19.265625  0 17.293269230769226  0 15.230769230769234  C 0 13.168269230769226  0.3668870192307692 11.195913461538462  1.1006610576923077 9.313701923076923  C 1.8344350961538465 7.431490384615383  2.8260216346153846 5.808894230769233  4.075420673076923 4.445913461538462  C 5.324819711538462 3.082932692307694  6.812199519230769 2.0012019230769225  8.537560096153845 1.200721153846155  C 10.262920673076923 0.4002403846153837  12.070913461538463 0  13.961538461538462 0  C 15.852163461538462 0  17.66015625 0.4002403846153837  19.385516826923077 1.200721153846155  C 21.110877403846153 2.0012019230769225  22.598257211538463 3.082932692307694  23.84765625 4.445913461538462  C 25.097055288461537 5.808894230769233  26.088641826923077 7.431490384615383  26.822415865384613 9.313701923076923  C 27.556189903846153 11.195913461538462  27.923076923076923 13.168269230769226  27.923076923076923 15.230769230769234  C 27.923076923076923 18.403846153846153  27.103365384615387 21.281249999999996  25.46394230769231 23.862980769230766  L 32.26622596153846 31.283653846153847  Z " fill-rule="nonzero" fill="#02a7f0" stroke="none" transform="matrix(1 0 0 1 480 378 )" />
  </g>
</svg>