<?xml version="1.0" encoding="utf-8"?>
<svg version="1.1" xmlns:xlink="http://www.w3.org/1999/xlink" width="20px" height="20px" xmlns="http://www.w3.org/2000/svg">
  <g transform="matrix(1 0 0 1 -37 -77 )">
    <path d="M 19.65635738831615 1.2024048096192375  C 19.885452462772054 1.3360053440213737  20 1.4896459585838318  20 1.6633266533066138  C 20 1.8370073480293914  19.885452462772054 1.9906479625918494  19.65635738831615 2.124248496993988  L 6.151202749140894 10  L 19.65635738831615 17.87575150300601  C 19.885452462772054 18.00935203740815  20 18.162992651970605  20 18.336673346693388  C 20 18.510354041416164  19.885452462772054 18.663994655978623  19.65635738831615 18.79759519038076  L 17.938144329896907 19.799599198396795  C 17.70904925544101 19.933199732798933  17.445589919816726 20  17.147766323024054 20  C 16.84994272623139 20  16.586483390607107 19.933199732798933  16.3573883161512 19.799599198396795  L 0.3436426116838488 10.460921843687373  C 0.11454753722794968 10.327321309285235  0 10.173680694722778  0 10  C 0 9.82631930527722  0.11454753722794968 9.672678690714761  0.3436426116838488 9.539078156312627  L 16.3573883161512 0.2004008016032066  C 16.586483390607107 0.06680026720106813  16.84994272623139 0  17.147766323024054 0  C 17.445589919816726 0  17.70904925544101 0.06680026720106813  17.938144329896907 0.2004008016032066  L 19.65635738831615 1.2024048096192375  Z " fill-rule="nonzero" fill="#ffffff" stroke="none" transform="matrix(1 0 0 1 37 77 )" />
  </g>
</svg>