<?xml version="1.0" encoding="utf-8"?>
<svg version="1.1" xmlns:xlink="http://www.w3.org/1999/xlink" width="49px" height="40px" xmlns="http://www.w3.org/2000/svg">
  <g transform="matrix(1 0 0 1 -60 -40 )">
    <path d="M 41.95662949194548 22.8526890101325  C 41.97686906237092 22.894258248895817  41.986988847583646 22.95661210704079  42 23.03975058456742  L 42 38.00467653936087  C 41.986988847583646 38.54507664328396  41.79471292854193 39.012730579371265  41.41016109045849 39.40763834762276  C 41.025609252375055 39.80254611587426  40.57021891780256 40  40.04399008674101 40  L 28 40  L 28 28.02805923616524  L 21 28.02805923616524  L 21 40  L 8.956009913258983 40  C 8.42978108219744 40  7.974390747624949 39.80254611587426  7.589838909541511 39.40763834762276  C 7.205287071458076 39.012730579371265  7.0130111524163565 38.54507664328396  7 38.00467653936087  L 7 23.03975058456742  C 7.0130111524163565 23.01896596518576  7.018071045022719 22.987789036113277  7.02819083023544 22.94621979734996  C 7.038310615448163 22.904650558586646  7.043370508054523 22.87347362951416  7.043370508054523 22.8526890101325  L 24.5 8.074824629773968  L 41.95662949194548 22.8526890101325  Z M 48.96964064436183 20.155884645362434  C 48.989880214787284 20.43647700701481  48.91904171829823 20.680696284749285  48.757125154894666 20.888542478565864  L 46.874845105328376 23.195635229929856  C 46.71292854192483 23.382696804364773  46.50041305245767 23.497012210963888  46.237298636926894 23.538581449727204  L 46.14622057001239 23.538581449727204  C 45.883106154481624 23.538581449727204  45.670590665014466 23.465835281891398  45.5086741016109 23.320342946219796  L 24.5 5.331254871395168  L 3.4913258983890954 23.320342946219796  C 3.248451053283767 23.486619901273052  3.005576208178439 23.559366069108858  2.76270136307311 23.538581449727204  C 2.4995869475423382 23.497012210963888  2.2870714580751756 23.382696804364773  2.125154894671623 23.195635229929856  L 0.2428748451053284 20.888542478565864  C 0.08095828170177616 20.680696284749285  0.010119785212722087 20.43647700701481  0.03035935563816605 20.155884645362434  C 0.050598926063610224 19.875292283710056  0.16191656340355232 19.651857625357234  0.3643122676579926 19.485580670303975  L 22.19268897149938 0.8106001558846465  C 22.84035522511359 0.2702000519615444  23.609458901280465 0  24.5 0  C 25.39054109871954 0  26.159644774886416 0.2702000519615444  26.80731102850062 0.8106001558846465  L 34.21499380421314 7.170693686671861  L 34.21499380421314 1.0911925175370207  C 34.21499380421314 0.8002078461938122  34.30607187112763 0.5611847233047529  34.488228004956625 0.3741231488698382  C 34.67038413878562 0.1870615744349191  34.90313919867823 0.09353078721745955  35.18649318463445 0.09353078721745955  L 41.01548946716233 0.09353078721745955  C 41.29884345311855 0.09353078721745955  41.53159851301115 0.1870615744349191  41.713754646840144 0.3741231488698382  C 41.89591078066914 0.5611847233047529  41.986988847583646 0.8002078461938122  42 1.0911925175370207  L 42 13.811379579111458  L 48.63568773234201 19.485580670303975  C 48.83808343659645 19.651857625357234  48.94940107393639 19.875292283710056  48.96964064436183 20.155884645362434  Z " fill-rule="nonzero" fill="#000000" stroke="none" transform="matrix(1 0 0 1 60 40 )" />
  </g>
</svg>