<?xml version="1.0" encoding="utf-8"?>
<svg version="1.1" xmlns:xlink="http://www.w3.org/1999/xlink" width="30px" height="35px" xmlns="http://www.w3.org/2000/svg">
  <g transform="matrix(1 0 0 1 -141 -719 )">
    <path d="M 29.80078125 25.304361979166664  C 29.93359375 26.451280381944443  30 27.67035590277778  30 28.961588541666668  C 30 30.61740451388889  29.51171875 32.03776041666667  28.53515625 33.22265625  C 27.558593750000004 34.40755208333333  26.382812500000004 35  25.0078125 35  L 4.9921875 35  C 3.6171875 35  2.4414062500000004 34.40755208333333  1.4648437500000002 33.22265625  C 0.4882812500000001 32.03776041666667  0 30.61740451388889  0 28.961588541666668  C 0 27.67035590277778  0.06640625000000015 26.451280381944443  0.19921875000000017 25.304361979166664  C 0.33203125000000017 24.157443576388882  0.5781250000000001 23.0029296875  0.9375000000000002 21.8408203125  C 1.2968750000000004 20.6787109375  1.7539062500000002 19.683702256944446  2.30859375 18.855794270833336  C 2.8632812500000004 18.027886284722218  3.59765625 17.351888020833332  4.51171875 16.827799479166668  C 5.42578125 16.3037109375  6.476562500000001 16.041666666666668  7.664062500000001 16.041666666666668  C 9.7109375 17.98611111111111  12.156250000000002 18.958333333333336  15 18.958333333333336  C 17.843750000000004 18.958333333333336  20.289062500000004 17.98611111111111  22.3359375 16.041666666666668  C 23.5234375 16.041666666666668  24.57421875 16.3037109375  25.48828125 16.827799479166668  C 26.40234375 17.351888020833332  27.136718750000004 18.027886284722218  27.69140625 18.855794270833336  C 28.246093750000004 19.683702256944446  28.703125 20.6787109375  29.0625 21.8408203125  C 29.421875000000004 23.0029296875  29.667968750000004 24.157443576388882  29.80078125 25.304361979166664  Z M 21.36328125 2.5634765625  C 23.12109375 4.2724609375  24 6.334635416666668  24 8.75  C 24 11.165364583333332  23.12109375 13.2275390625  21.36328125 14.9365234375  C 19.60546875 16.6455078125  17.484375 17.5  15 17.5  C 12.515625 17.5  10.39453125 16.6455078125  8.63671875 14.9365234375  C 6.87890625 13.2275390625  6 11.165364583333332  6 8.75  C 6 6.334635416666668  6.87890625 4.2724609375  8.63671875 2.5634765625  C 10.39453125 0.8544921875  12.515625 0  15 0  C 17.484375 0  19.60546875 0.8544921875  21.36328125 2.5634765625  Z " fill-rule="nonzero" fill="#ffffff" stroke="none" transform="matrix(1 0 0 1 141 719 )" />
  </g>
</svg>