<?xml version="1.0" encoding="utf-8"?>
<svg version="1.1" xmlns:xlink="http://www.w3.org/1999/xlink" width="25px" height="25px" xmlns="http://www.w3.org/2000/svg">
  <g transform="matrix(1 0 0 1 -68 -719 )">
    <path d="M 4.224422442244224 22.887788778877887  L 5.99009900990099 22.887788778877887  L 7.491749174917492 21.386138613861387  L 3.6138613861386135 17.50825082508251  L 2.112211221122112 19.00990099009901  L 2.112211221122112 20.775577557755774  L 4.224422442244224 20.775577557755774  L 4.224422442244224 22.887788778877887  Z M 14.504950495049505 7.854785478547854  C 14.581958195819583 7.777777777777778  14.620462046204622 7.684268426842683  14.620462046204622 7.574257425742576  C 14.620462046204622 7.332233223322332  14.499449944994499 7.21122112211221  14.257425742574256 7.21122112211221  C 14.14741474147415 7.21122112211221  14.053905390539057 7.249724972497249  13.976897689768977 7.326732673267328  L 5.033003300330033 16.27062706270627  C 4.955995599559956 16.347634763476346  4.917491749174918 16.441144114411436  4.917491749174918 16.551155115511552  C 4.917491749174918 16.793179317931788  5.038503850385039 16.914191419141915  5.2805280528052805 16.914191419141915  C 5.390539053905391 16.914191419141915  5.484048404840484 16.875687568756874  5.561056105610561 16.7986798679868  L 14.504950495049505 7.854785478547854  Z M 0 18.135313531353138  L 13.72937293729373 4.405940594059407  L 20.594059405940595 11.27062706270627  L 6.864686468646865 25  L 0 25  L 0 18.135313531353138  Z M 24.38943894389439 4.488448844884488  C 24.796479647964798 4.917491749174918  25 5.418041804180418  25 5.99009900990099  C 25 6.5731573157315735  24.796479647964798 7.068206820682066  24.38943894389439 7.475247524752477  L 21.65016501650165 10.214521452145215  L 14.785478547854785 3.3498349834983507  L 17.524752475247524 0.6270627062706258  C 17.92079207920792 0.20902090209020674  18.415841584158414 0  19.00990099009901 0  C 19.592959295929596 0  20.093509350935097 0.20902090209020674  20.511551155115512 0.6270627062706258  L 24.38943894389439 4.488448844884488  Z " fill-rule="nonzero" fill="#ffd33d" stroke="none" transform="matrix(1 0 0 1 68 719 )" />
  </g>
</svg>