<?xml version="1.0" encoding="utf-8"?>
<svg version="1.1" xmlns:xlink="http://www.w3.org/1999/xlink" width="15px" height="15px" xmlns="http://www.w3.org/2000/svg">
  <g transform="matrix(1 0 0 1 -423 -508 )">
    <path d="M 14.849699398797595 1.546391752577319  C 14.9498997995992 1.7182130584192397  15 1.9158075601374551  15 2.1391752577319596  C 15 2.3625429553264587  14.9498997995992 2.560137457044671  14.849699398797595 2.731958762886598  L 7.845691382765531 14.742268041237113  C 7.745490981963928 14.914089347079033  7.630260521042085 15  7.5 15  C 7.369739478957917 15  7.254509018036074 14.914089347079033  7.154308617234468 14.742268041237113  L 0.1503006012024048 2.731958762886598  C 0.05010020040080175 2.560137457044671  0 2.3625429553264587  0 2.1391752577319596  C 0 1.9158075601374551  0.05010020040080175 1.7182130584192397  0.1503006012024048 1.546391752577319  L 0.9018036072144289 0.25773195876288735  C 1.0020040080160324 0.08591065292096023  1.117234468937876 0  1.24749498997996 0  C 1.3777555110220443 0  1.4929859719438878 0.08591065292096023  1.593186372745491 0.25773195876288735  L 7.5 10.38659793814433  L 13.40681362725451 0.25773195876288735  C 13.507014028056114 0.08591065292096023  13.622244488977957 0  13.75250501002004 0  C 13.882765531062127 0  13.99799599198397 0.08591065292096023  14.098196392785573 0.25773195876288735  L 14.849699398797595 1.546391752577319  Z " fill-rule="nonzero" fill="#aaaaaa" stroke="none" transform="matrix(1 0 0 1 423 508 )" />
  </g>
</svg>