<?xml version="1.0" encoding="utf-8"?>
<svg version="1.1" xmlns:xlink="http://www.w3.org/1999/xlink" width="25px" height="25px" xmlns="http://www.w3.org/2000/svg">
  <g transform="matrix(1 0 0 1 -261 -386 )">
    <path d="M 23.72448979591837 4.996744791666666  C 24.1046418567427 5.159505208333334  24.399759903961584 5.392795138888887  24.60984393757503 5.696614583333334  C 25.010004001600638 6.315104166666666  25.100040016006403 7.014973958333334  24.879951980792317 7.796223958333334  L 20.753301320528212 22.542317708333336  C 20.56322529011605 23.23676215277778  20.180572228891556 23.819986979166664  19.60534213685474 24.2919921875  C 19.03011204481793 24.763997395833336  18.417366946778714 25  17.767106842737096 25  L 3.9165666266506602 25  C 3.1462585034013606 25  2.4034613845538217 24.709743923611114  1.6881752701080432 24.129231770833336  C 0.9728891556622651 23.548719618055554  0.47519007603041225 22.835286458333336  0.195078031212485 21.988932291666664  C -0.045018007202881155 21.261935763888886  -0.05502200880352141 20.572916666666664  0.16506602641056423 19.921875  C 0.16506602641056423 19.87847222222222  0.18007202881152462 19.73198784722222  0.21008403361344538 19.482421875  C 0.24009603841536614 19.232855902777775  0.2601040416166467 19.032118055555554  0.27010804321728693 18.880208333333336  C 0.2801120448179272 18.79340277777778  0.2651060424169668 18.6767578125  0.22509003601440575 18.5302734375  C 0.18507402961184474 18.3837890625  0.17006802721088438 18.277994791666668  0.18007202881152462 18.212890625  C 0.20008003201280514 18.09353298611111  0.24009603841536614 17.979600694444443  0.3001200480192077 17.87109375  C 0.36014405762304924 17.762586805555554  0.4426770708283313 17.635091145833332  0.5477190876350541 17.488606770833332  C 0.6527611044417767 17.342122395833332  0.7352941176470588 17.21462673611111  0.7953181272509003 17.106119791666668  C 1.0254101640656264 16.693793402777775  1.250500200080032 16.197374131944443  1.4705882352941175 15.616861979166668  C 1.6906762705082032 15.03634982638889  1.8407362945178072 14.539930555555552  1.9207683073229291 14.127604166666668  C 1.9507803121248497 14.019097222222221  1.9532813125250101 13.856336805555552  1.9282713085234093 13.639322916666668  C 1.903261304521809 13.422309027777779  1.9007603041216488 13.270399305555552  1.9207683073229291 13.18359375  C 1.9507803121248497 13.06423611111111  2.0358143257302923 12.91232638888889  2.175870348139256 12.727864583333332  C 2.3159263705482194 12.543402777777779  2.4009603841536618 12.418619791666666  2.430972388955582 12.353515625  C 2.6410564225690276 11.962890625  2.851140456182473 11.463758680555555  3.061224489795918 10.856119791666666  C 3.2713085234093637 10.248480902777777  3.3963585434173673 9.760199652777777  3.436374549819928 9.391276041666666  C 3.446378551420568 9.293619791666666  3.4338735494197676 9.120008680555555  3.398859543817527 8.870442708333334  C 3.363845538215286 8.62087673611111  3.3663465386154465 8.468967013888888  3.4063625450180073 8.414713541666666  C 3.446378551420568 8.273654513888888  3.5564225690276112 8.108181423611107  3.736494597839136 7.918294270833334  C 3.9165666266506602 7.728407118055555  4.026610644257703 7.606336805555555  4.066626650660264 7.552083333333334  C 4.256702681072429 7.269965277777776  4.469287715086035 6.8115234375  4.704381752701081 6.1767578125  C 4.939475790316126 5.5419921875  5.077030812324931 5.018446180555555  5.1170468187274905 4.606119791666666  C 5.127050820328131 4.519314236111108  5.112044817927171 4.380967881944442  5.07202881152461 4.191080729166666  C 5.032012805122049 4.001193576388887  5.022008803521409 3.857421875  5.042016806722689 3.759765625  C 5.06202480992397 3.672960069444442  5.107042817126851 3.575303819444442  5.177070828331332 3.466796875  C 5.2470988395358145 3.3582899305555554  5.337134853941577 3.233506944444442  5.447178871548619 3.0924479166666656  C 5.557222889155663 2.9513888888888866  5.642256902761105 2.837456597222221  5.702280912364946 2.7506510416666656  C 5.782312925170069 2.6204427083333344  5.864845938375351 2.4549696180555554  5.949879951980792 2.2542317708333344  C 6.0349139655862345 2.0534939236111076  6.109943977591037 1.8636067708333344  6.174969987995198 1.6845703125  C 6.23999599839936 1.5055338541666656  6.320028011204483 1.3102213541666656  6.415066026410564 1.0986328125  C 6.510104041616647 0.8870442708333343  6.607643057222889 0.713433159722221  6.707683073229291 0.5777994791666657  C 6.8077230892356955 0.4421657986111077  6.940276110444178 0.31467013888888673  7.105342136854742 0.1953125  C 7.270408163265307 0.07595486111110772  7.4504801920768315 0.013563368055555247  7.645558223289315 0.008138020833334259  C 7.840636254501801 0.0027126736111077188  8.078231292517007 0.03255208333333426  8.358343337334933 0.09765625  L 8.343337334933974 0.146484375  C 8.723489395758303 0.048828125  8.97859143657463 0  9.108643457382954 0  L 20.528211284513805 0  C 21.268507402961188 0  21.83873549419768 0.303819444444442  22.23889555822329 0.9114583333333343  C 22.6390556222489 1.519097222222221  22.729091636654665 2.2243923611111076  22.50900360144058 3.02734375  L 18.39735894357743 17.7734375  C 18.03721488595438 19.064670138888886  17.679571828731493 19.8974609375  17.324429771908765 20.271809895833336  C 16.969287715086036 20.646158854166664  16.3265306122449 20.833333333333336  15.396158463385353 20.833333333333336  L 2.3559423769507806 20.833333333333336  C 2.0858343337334935 20.833333333333336  1.8957583033213286 20.914713541666664  1.7857142857142856 21.077473958333336  C 1.6756702681072428 21.251085069444446  1.6706682673069229 21.484375  1.7707082833133252 21.77734375  C 2.0108043217286915 22.536892361111114  2.73109243697479 22.916666666666664  3.93157262905162 23  L 17.782112845138055 23  C 18.072228891556623 22.916666666666664  18.35234093637455 22.83257378472222  18.622448979591837 22.664388020833336  C 18.89255702280912 22.496202256944446  19.06762705082033 22.27105034722222  19.14765906362545 21.988932291666664  L 23.649459783913564 5.924479166666666  C 23.71948779511805 5.685763888888887  23.74449779911965 5.376519097222221  23.72448979591837 4.996744791666666  Z M 8.958583433373349 4.6875  L 8.643457382953182 5.729166666666666  C 8.60344137655062 5.870225694444442  8.61344537815126 5.992296006944442  8.673469387755102 6.095377604166666  C 8.733493397358943 6.198459201388887  8.833533413365348 6.25  8.97358943577431 6.25  L 18.097238895558224 6.25  C 18.22729091636655 6.25  18.35484193677471 6.198459201388887  18.479891956782712 6.095377604166666  C 18.604941976790716 5.992296006944442  18.687474989996 5.870225694444442  18.72749099639856 5.729166666666666  L 19.042617046818727 4.6875  C 19.08263305322129 4.546440972222221  19.07262905162065 4.424370659722221  19.012605042016805 4.3212890625  C 18.952581032412965 4.218207465277776  18.852541016406565 4.166666666666666  18.7124849939976 4.166666666666666  L 9.588835534213686 4.166666666666666  C 9.458783513405363 4.166666666666666  9.331232492997199 4.218207465277776  9.206182472989195 4.3212890625  C 9.081132452981192 4.424370659722221  8.998599439775912 4.546440972222221  8.958583433373349 4.6875  Z M 7.713085234093637 8.854166666666666  L 7.3979591836734695 9.895833333333334  C 7.35794317727091 10.03689236111111  7.36794717887155 10.15896267361111  7.427971188475391 10.262044270833334  C 7.487995198079232 10.365125868055555  7.588035214085634 10.416666666666666  7.728091236494598 10.416666666666666  L 16.85174069627851 10.416666666666666  C 16.981792717086837 10.416666666666666  17.109343737495 10.365125868055555  17.234393757503 10.262044270833334  C 17.359443777511007 10.15896267361111  17.44197679071629 10.03689236111111  17.48199279711885 9.895833333333334  L 17.797118847539014 8.854166666666666  C 17.837134853941578 8.713107638888888  17.827130852340936 8.591037326388888  17.767106842737096 8.487955729166666  C 17.707082833133253 8.384874131944445  17.607042817126853 8.333333333333334  17.466986794717887 8.333333333333334  L 8.343337334933974 8.333333333333334  C 8.21328531412565 8.333333333333334  8.085734293717488 8.384874131944445  7.960684273709484 8.487955729166666  C 7.835634253701482 8.591037326388888  7.753101240496199 8.713107638888888  7.713085234093637 8.854166666666666  Z " fill-rule="nonzero" fill="#44e5be" stroke="none" fill-opacity="0.7333333333333333" transform="matrix(1 0 0 1 261 386 )" />
  </g>
</svg>