<?xml version="1.0" encoding="utf-8"?>
<svg version="1.1" xmlns:xlink="http://www.w3.org/1999/xlink" width="13px" height="13px" viewBox="373 647  13 13" xmlns="http://www.w3.org/2000/svg">
  <path d="M 379.5 647  C 383.14 647  386 649.86  386 653.5  C 386 657.14  383.14 660  379.5 660  C 375.86 660  373 657.14  373 653.5  C 373 649.86  375.86 647  379.5 647  Z " fill-rule="nonzero" fill="#f0f0f0" stroke="none" />
  <path d="M 379.5 647.5  C 382.86 647.5  385.5 650.14  385.5 653.5  C 385.5 656.86  382.86 659.5  379.5 659.5  C 376.14 659.5  373.5 656.86  373.5 653.5  C 373.5 650.14  376.14 647.5  379.5 647.5  Z " stroke-width="1" stroke="#797979" fill="none" />
  <path d="M 379.5 656.75  C 377.68 656.75  376.25 655.32  376.25 653.5  C 376.25 651.68  377.68 650.25  379.5 650.25  C 381.32 650.25  382.75 651.68  382.75 653.5  C 382.75 655.32  381.32 656.75  379.5 656.75  " fill-rule="nonzero" fill="#797979" stroke="none" />
</svg>