<?xml version="1.0" encoding="utf-8"?>
<svg version="1.1" xmlns:xlink="http://www.w3.org/1999/xlink" width="50px" height="32px" xmlns="http://www.w3.org/2000/svg">
  <g transform="matrix(1 0 0 1 -143 -882 )">
    <path d="M 2.951388888888889 18.98901098901099  C 3.1828703703703707 19.45787545787546  3.587962962962963 19.692307692307693  4.166666666666666 19.692307692307693  C 4.74537037037037 19.692307692307693  5.150462962962963 19.45787545787546  5.381944444444445 18.98901098901099  C 5.6134259259259265 18.52014652014652  5.6134259259259265 18.05128205128205  5.381944444444445 17.582417582417584  C 5.150462962962963 17.113553113553113  4.74537037037037 16.87912087912088  4.166666666666666 16.87912087912088  C 3.587962962962963 16.87912087912088  3.1828703703703707 17.113553113553113  2.951388888888889 17.582417582417584  C 2.719907407407408 18.05128205128205  2.719907407407408 18.52014652014652  2.951388888888889 18.98901098901099  Z M 36.79470486111111 20.032967032967033  C 36.744068287037045 19.454212454212453  36.52343750000001 18.915750915750912  36.1328125 18.417582417582416  C 35.988136574074076 18.227106227106226  35.70963541666667 17.860805860805858  35.29730902777778 17.31868131868132  C 34.88498263888889 16.776556776556774  34.584780092592595 16.38095238095238  34.39670138888889 16.13186813186813  C 34.20862268518518 15.882783882783883  33.93373842592593 15.523809523809522  33.57204861111111 15.054945054945055  C 33.210358796296305 14.586080586080584  32.9029224537037 14.197802197802197  32.64973958333333 13.89010989010989  C 32.39655671296296 13.582417582417584  32.10358796296296 13.238095238095237  31.770833333333332 12.857142857142858  C 31.438078703703702 12.476190476190474  31.112557870370374 12.117216117216117  30.794270833333332 11.780219780219781  L 28.08159722222222 14.857142857142858  C 26.88078703703704 16.234432234432234  25.372540509259263 16.908424908424905  23.55685763888889 16.87912087912088  C 21.741174768518523 16.849816849816847  20.254629629629633 16.13186813186813  19.09722222222222 14.725274725274726  C 18.272569444444446 13.714285714285715  17.863859953703706 12.556776556776555  17.87109375 11.252747252747252  C 17.878327546296298 9.948717948717949  18.30150462962963 8.798534798534796  19.140625 7.802197802197803  L 22.981770833333336 3.2747252747252737  C 22.663483796296298 3.1135531135531096  22.29456018518519 2.992673992673989  21.875 2.9120879120879124  C 21.455439814814817 2.8315018315018285  21.11183449074074 2.7875457875457847  20.84418402777778 2.780219780219781  C 20.576533564814817 2.77289377289377  20.16782407407408 2.776556776556774  19.618055555555554 2.791208791208792  C 19.068287037037038 2.805860805860803  18.71383101851852 2.813186813186814  18.5546875 2.813186813186814  C 17.22366898148148 2.813186813186814  16.080729166666664 3.2967032967032956  15.125868055555555 4.263736263736263  L 11.69704861111111 7.736263736263737  L 9 7.736263736263737  L 9 19.692307692307693  C 8.405671296296296 19.692307692307693  8.557581018518519 19.688644688644693  8.7890625 19.68131868131868  C 9.020543981481483 19.67399267399267  9.1796875 19.67399267399267  9.266493055555555 19.68131868131868  C 9.35329861111111 19.688644688644693  9.49435763888889 19.7032967032967  9.68967013888889 19.725274725274723  C 9.88498263888889 19.747252747252745  10.033275462962964 19.78021978021978  10.13454861111111 19.824175824175825  C 10.235821759259261 19.86813186813187  10.362413194444446 19.930402930402927  10.514322916666668 20.01098901098901  C 10.66623263888889 20.091575091575088  10.800057870370372 20.19047619047619  10.91579861111111 20.307692307692307  L 17.36111111111111 26.725274725274726  C 19.024884259259263 28.35164835164835  20.666956018518523 29.164835164835164  22.28732638888889 29.164835164835164  C 23.41579861111111 29.164835164835164  24.320023148148152 28.820512820512818  25 28.13186813186813  C 25.82465277777778 28.424908424908423  26.63845486111111 28.36630036630037  27.44140625 27.956043956043956  C 28.24435763888889 27.545787545787544  28.768807870370374 26.923076923076923  29.014756944444443 26.087912087912088  C 30.0853587962963 26.175824175824175  31.00405092592593 25.853479853479854  31.770833333333332 25.12087912087912  C 32.06018518518518 24.857142857142858  32.320601851851855 24.523809523809522  32.55208333333333 24.12087912087912  C 32.78356481481482 23.717948717948715  32.88483796296296 23.347985347985347  32.85590277777778 23.01098901098901  C 33.0005787037037 23.15750915750916  33.31163194444444 23.23076923076923  33.7890625 23.23076923076923  C 34.41116898148148 23.23076923076923  34.968171296296305 23.076923076923077  35.46006944444444 22.76923076923077  C 35.951967592592595 22.46153846153846  36.31004050925927 22.073260073260073  36.53428819444444 21.604395604395606  C 36.75853587962963 21.13553113553113  36.84534143518518 20.61172161172161  36.79470486111111 20.032967032967033  Z M 38.28125 16.615384615384613  C 39.03356481481482 17.582417582417584  39.467592592592595 18.608058608058606  39.58333333333333 19.692307692307693  L 41 19.692307692307693  L 41 8.439560439560438  L 39.6484375 8.439560439560438  L 36.24131944444444 4.483516483516482  C 35.28645833333333 3.3699633699633686  34.06394675925926 2.813186813186814  32.57378472222222 2.813186813186814  L 28.94965277777778 2.813186813186814  C 27.66203703703704 2.813186813186814  26.60590277777778 3.304029304029303  25.78125 4.285714285714285  L 21.24565972222222 9.626373626373628  C 20.840567129629633 10.10989010989011  20.638020833333336 10.65934065934066  20.638020833333336 11.274725274725274  C 20.638020833333336 11.89010989010989  20.833333333333336 12.439560439560438  21.223958333333336 12.923076923076923  C 21.846064814814817 13.670329670329672  22.64178240740741 14.051282051282051  23.61111111111111 14.065934065934066  C 24.580439814814817 14.08058608058608  25.383391203703702 13.721611721611719  26.01996527777778 12.989010989010989  L 30.208333333333332 8.197802197802197  C 30.570023148148152 7.860805860805858  30.95703125 7.703296703296704  31.36935763888889 7.725274725274726  C 31.78168402777778 7.747252747252748  32.1216724537037 7.945054945054945  32.38932291666667 8.318681318681318  C 32.65697337962963 8.692307692307693  32.71846064814815 9.106227106227106  32.57378472222222 9.560439560439562  C 32.8052662037037 9.83882783882784  33.210358796296305 10.3003663003663  33.7890625 10.945054945054945  C 34.3677662037037 11.589743589743588  34.80179398148148 12.087912087912088  35.09114583333333 12.439560439560438  C 35.510706018518526 12.967032967032967  36.10749421296296 13.73992673992674  36.88151041666667 14.758241758241759  C 37.655526620370374 15.776556776556774  38.12210648148148 16.395604395604394  38.28125 16.615384615384613  Z M 44.61805555555556 18.98901098901099  C 44.849537037037045 19.45787545787546  45.25462962962963 19.692307692307693  45.83333333333333 19.692307692307693  C 46.412037037037045 19.692307692307693  46.81712962962963 19.45787545787546  47.04861111111111 18.98901098901099  C 47.280092592592595 18.52014652014652  47.280092592592595 18.05128205128205  47.04861111111111 17.582417582417584  C 46.81712962962963 17.113553113553113  46.412037037037045 16.87912087912088  45.83333333333333 16.87912087912088  C 45.25462962962963 16.87912087912088  44.849537037037045 17.113553113553113  44.61805555555556 17.582417582417584  C 44.386574074074076 18.05128205128205  44.386574074074076 18.52014652014652  44.61805555555556 18.98901098901099  Z M 49.58767361111111 6.043956043956044  C 49.86255787037038 6.322344322344318  50 6.65201465201465  50 7.032967032967033  L 50 21.0989010989011  C 50 21.479853479853478  49.86255787037038 21.80952380952381  49.58767361111111 22.087912087912088  C 49.312789351851855 22.366300366300365  48.987268518518526 22.505494505494504  48.61111111111111 22.505494505494504  L 39.19270833333333 22.505494505494504  C 38.802083333333336 23.457875457875456  38.208912037037045 24.238095238095237  37.41319444444444 24.846153846153847  C 36.617476851851855 25.454212454212456  35.71325231481482 25.83150183150183  34.70052083333333 25.978021978021978  C 34.223090277777786 26.681318681318682  33.64076967592593 27.27838827838828  32.95355902777778 27.76923076923077  C 32.26634837962963 28.26007326007326  31.524884259259263 28.593406593406595  30.729166666666668 28.76923076923077  C 30.12152777777778 29.545787545787544  29.365596064814813 30.142857142857142  28.46137152777778 30.560439560439562  C 27.557146990740744 30.978021978021978  26.627604166666668 31.15750915750916  25.672743055555557 31.0989010989011  C 24.8046875 31.5970695970696  23.893229166666664 31.886446886446883  22.938368055555554 31.967032967032967  C 21.983506944444446 32.04761904761905  21.061197916666664 31.945054945054945  20.17144097222222 31.65934065934066  C 19.28168402777778 31.373626373626372  18.43532986111111 30.98168498168498  17.63237847222222 30.483516483516482  C 16.829427083333336 29.985347985347985  16.080729166666664 29.39194139194139  15.386284722222221 28.703296703296704  L 9.15798611111111 22.505494505494504  L 1.3888888888888888 22.505494505494504  C 1.0127314814814816 22.505494505494504  0.6872106481481481 22.366300366300365  0.4123263888888889 22.087912087912088  C 0.13744212962962962 21.80952380952381  0 21.479853479853478  0 21.0989010989011  L 0 6.3296703296703285  C 0 5.948717948717945  0.13744212962962962 5.619047619047617  0.4123263888888889 5.3406593406593394  C 0.6872106481481481 5.062271062271062  1.0127314814814816 4.923076923076923  1.3888888888888888 4.923076923076923  L 10.52517361111111 4.923076923076923  C 10.727719907407408 4.717948717948715  11.067708333333332 4.3663003663003614  11.54513888888889 3.8681318681318686  C 12.022569444444445 3.3699633699633686  12.366174768518519 3.0183150183150182  12.57595486111111 2.813186813186814  C 12.785734953703706 2.608058608058606  13.10402199074074 2.315018315018314  13.530815972222221 1.9340659340659343  C 13.957609953703706 1.5531135531135511  14.322916666666666 1.2783882783882738  14.62673611111111 1.1098901098901095  C 14.930555555555555 0.941391941391938  15.299479166666666 0.7545787545787519  15.733506944444445 0.549450549450551  C 16.16753472222222 0.34432234432233955  16.61603009259259 0.2014652014651972  17.078993055555554 0.12087912087912045  C 17.541956018518523 0.04029304029304015  18.033854166666668 0  18.5546875 0  L 21.09375 0  C 22.526041666666664 0  23.835358796296298 0.41025641025640525  25.02170138888889 1.23076923076923  C 26.20804398148148 0.41025641025640525  27.51736111111111 0  28.94965277777778 0  L 32.57378472222222 0  C 33.08015046296296 0  33.56481481481482 0.0439560439560438  34.02777777777778 0.1318681318681314  C 34.49074074074075 0.219780219780219  34.89945023148148 0.32600732600732485  35.25390625 0.45054945054944895  C 35.608362268518526 0.575091575091573  35.98090277777778 0.76923076923077  36.37152777777778 1.0329670329670328  C 36.76215277777778 1.2967032967032956  37.08405671296296 1.523809523809522  37.33723958333333 1.7142857142857153  C 37.5904224537037 1.9047619047619015  37.90147569444444 2.1941391941391934  38.27039930555556 2.582417582417584  C 38.63932291666667 2.9706959706959672  38.92144097222222 3.278388278388274  39.11675347222222 3.5054945054945073  C 39.31206597222222 3.73260073260073  39.608651620370374 4.084249084249084  40.00651041666667 4.560439560439562  C 40.40436921296296 5.036630036630033  40.70457175925926 5.3919413919413905  40.90711805555556 5.626373626373628  L 48.61111111111111 5.626373626373628  C 48.987268518518526 5.626373626373628  49.312789351851855 5.765567765567763  49.58767361111111 6.043956043956044  Z " fill-rule="nonzero" fill="#ffffff" stroke="none" transform="matrix(1 0 0 1 143 882 )" />
  </g>
</svg>